G04*
G04 #@! TF.GenerationSoftware,Altium Limited,Altium Designer,21.2.2 (38)*
G04*
G04 Layer_Physical_Order=1*
G04 Layer_Color=255*
%FSLAX25Y25*%
%MOIN*%
G70*
G04*
G04 #@! TF.SameCoordinates,7E302BD7-B57C-4E89-9E1E-63AC0990036A*
G04*
G04*
G04 #@! TF.FilePolarity,Positive*
G04*
G01*
G75*
%ADD14C,0.01000*%
%ADD15R,0.02756X0.03347*%
%ADD16R,0.04921X0.02953*%
%ADD17R,0.10236X0.04331*%
%ADD18R,0.02953X0.04921*%
%ADD19R,0.03740X0.03740*%
%ADD20R,0.03740X0.03740*%
%ADD21R,0.03740X0.02953*%
%ADD22R,0.05807X0.01181*%
%ADD23R,0.01181X0.05807*%
%ADD24R,0.19685X0.19685*%
%ADD25R,0.13228X0.19134*%
%ADD26R,0.05472X0.05512*%
%ADD27R,0.03347X0.02756*%
%ADD28R,0.02953X0.03740*%
%ADD29R,0.07441X0.05000*%
%ADD51C,0.02500*%
%ADD52C,0.00800*%
%ADD53C,0.03500*%
%ADD54C,0.01500*%
%ADD55C,0.03000*%
%ADD56C,0.05000*%
%ADD57C,0.01200*%
%ADD58C,0.04724*%
%ADD59R,0.05906X0.05906*%
%ADD60C,0.05906*%
%ADD61C,0.18000*%
%ADD62C,0.06201*%
%ADD63C,0.02362*%
G36*
X511197Y160000D02*
X470000D01*
Y155000D01*
X367500D01*
Y130212D01*
X318999Y81711D01*
X272002D01*
X269588Y84124D01*
Y85122D01*
X269939D01*
Y92503D01*
X262278D01*
Y92716D01*
X261687D01*
Y92504D01*
X261278D01*
Y88813D01*
X259687D01*
D01*
X258128D01*
Y92504D01*
X257719D01*
Y92716D01*
X257128D01*
Y92503D01*
X252157D01*
Y97755D01*
X252057Y98258D01*
X251773Y98683D01*
X250358Y100099D01*
X250549Y100561D01*
X252798D01*
Y110403D01*
X242955D01*
Y101313D01*
X241000D01*
X240498Y101213D01*
X240072Y100928D01*
X237005Y97861D01*
X234898D01*
Y101167D01*
Y105104D01*
Y109041D01*
Y112978D01*
Y116915D01*
Y121019D01*
X237697D01*
X237885Y120831D01*
X238608Y120531D01*
X239392D01*
X240115Y120831D01*
X240669Y121385D01*
X240968Y122108D01*
Y122892D01*
X240669Y123615D01*
X240115Y124169D01*
X239392Y124469D01*
X238608D01*
X237885Y124169D01*
X237331Y123615D01*
X237259Y123441D01*
X234898D01*
Y127545D01*
X232313D01*
Y134018D01*
X232813Y134225D01*
X234465Y132572D01*
X234891Y132287D01*
X235394Y132187D01*
X237656D01*
Y130303D01*
X238114D01*
X238361Y129803D01*
X238211Y129606D01*
X237884D01*
X237161Y129306D01*
X236607Y128752D01*
X236307Y128029D01*
Y127246D01*
X236607Y126522D01*
X237161Y125968D01*
X237884Y125669D01*
X238667D01*
X239391Y125968D01*
X239945Y126522D01*
X240244Y127246D01*
Y128029D01*
X240243Y128031D01*
X241858Y129646D01*
X241858Y129646D01*
X242121Y130039D01*
X242173Y130303D01*
X247666D01*
Y127048D01*
X247029Y126411D01*
X246892Y126469D01*
X246108D01*
X245385Y126169D01*
X244831Y125615D01*
X244531Y124892D01*
Y124108D01*
X244831Y123385D01*
X245385Y122831D01*
X245591Y122746D01*
X245492Y122246D01*
X242955D01*
Y112403D01*
X252798D01*
Y122246D01*
X247508D01*
X247409Y122746D01*
X247615Y122831D01*
X248169Y123385D01*
X248468Y124108D01*
Y124427D01*
X249732Y125690D01*
X249732Y125690D01*
X249995Y126083D01*
X250087Y126547D01*
Y128283D01*
X250549Y128474D01*
X251080Y127943D01*
X251080Y127943D01*
X251108Y127924D01*
X251331Y127385D01*
X251885Y126831D01*
X252608Y126532D01*
X253392D01*
X254115Y126831D01*
X254669Y127385D01*
X254969Y128108D01*
Y128892D01*
X254669Y129615D01*
X254481Y129803D01*
X254688Y130303D01*
X255540D01*
Y125250D01*
X255540Y125250D01*
X255632Y124786D01*
X255894Y124394D01*
X257144Y123144D01*
X257537Y122881D01*
X258000Y122789D01*
X258000Y122789D01*
X258947D01*
X258977Y122746D01*
X258709Y122246D01*
X254798D01*
Y112403D01*
X264640D01*
Y122246D01*
X262737D01*
X262530Y122746D01*
X262669Y122885D01*
X262968Y123608D01*
Y124392D01*
X262669Y125115D01*
X262115Y125669D01*
X261969Y125729D01*
Y126271D01*
X262115Y126331D01*
X262669Y126885D01*
X262835Y127286D01*
X263355Y127235D01*
X263414Y126941D01*
X263506Y126478D01*
X263768Y126085D01*
X266667Y123187D01*
Y122593D01*
X266966Y121870D01*
X267520Y121316D01*
X268244Y121017D01*
X269027D01*
X269750Y121316D01*
X270304Y121870D01*
X270603Y122593D01*
Y123377D01*
X270304Y124100D01*
X269750Y124654D01*
X269027Y124953D01*
X268701D01*
X268624Y125070D01*
X268825Y125669D01*
X269215Y125831D01*
X269769Y126385D01*
X270069Y127108D01*
Y127892D01*
X269769Y128615D01*
X269215Y129169D01*
X268492Y129469D01*
X268198D01*
X267867Y129832D01*
X267946Y130303D01*
X269939D01*
Y133515D01*
X272611Y136187D01*
X282029D01*
X282385Y135831D01*
X283108Y135531D01*
X283892D01*
X284615Y135831D01*
X285169Y136385D01*
X285469Y137108D01*
Y137892D01*
X285169Y138615D01*
X284615Y139169D01*
X283892Y139469D01*
X283108D01*
X282385Y139169D01*
X282029Y138813D01*
X272068D01*
X271565Y138713D01*
X271139Y138428D01*
X270262Y137551D01*
X269939Y137685D01*
Y137685D01*
X264144D01*
X264041Y138185D01*
X266044Y140187D01*
X279000D01*
X279502Y140287D01*
X279928Y140572D01*
X284813Y145457D01*
X289341D01*
Y147097D01*
X290342D01*
Y145843D01*
X295657D01*
Y151035D01*
X295657Y151123D01*
X295870Y151535D01*
X295870Y151569D01*
Y153405D01*
X290130D01*
Y151569D01*
X290130Y151535D01*
X290342Y151123D01*
X290342Y151035D01*
Y149722D01*
X289341D01*
Y149984D01*
X282845D01*
Y147202D01*
X282511Y146867D01*
X282011Y147074D01*
Y160299D01*
X288955Y167243D01*
X303343D01*
Y166190D01*
X306801D01*
X309434Y163557D01*
X309860Y163272D01*
X310362Y163172D01*
X319094D01*
Y161532D01*
X330906D01*
Y167438D01*
X319094D01*
Y165798D01*
X316726D01*
X316248Y165851D01*
Y170379D01*
X312986D01*
X310140Y173225D01*
X310347Y173725D01*
X316248D01*
Y173987D01*
X318813D01*
X319077Y173487D01*
X319069Y173450D01*
X319094Y173323D01*
Y172162D01*
X320255D01*
X320382Y172137D01*
X320509Y172162D01*
X330906D01*
Y178068D01*
X326201D01*
Y183816D01*
X326822Y184175D01*
X327409Y184761D01*
X327823Y185479D01*
X328038Y186280D01*
Y187110D01*
X327823Y187911D01*
X327409Y188629D01*
X326822Y189215D01*
X326104Y189630D01*
X325303Y189845D01*
X324474D01*
X323673Y189630D01*
X322954Y189215D01*
X322368Y188629D01*
X321953Y187911D01*
X321739Y187110D01*
Y186280D01*
X321953Y185479D01*
X322368Y184761D01*
X322954Y184175D01*
X323575Y183816D01*
Y178068D01*
X319094D01*
Y176613D01*
X316248D01*
Y178253D01*
X309752D01*
Y174320D01*
X309252Y174113D01*
X308658Y174707D01*
Y177410D01*
X303343D01*
Y172883D01*
X306770D01*
X308435Y171217D01*
X308228Y170717D01*
X303343D01*
Y169664D01*
X288454D01*
X287990Y169572D01*
X287597Y169310D01*
X287597Y169310D01*
X279944Y161656D01*
X279681Y161263D01*
X279589Y160800D01*
X279589Y160800D01*
Y147101D01*
X278803Y146316D01*
X278342Y146507D01*
Y149984D01*
X271846D01*
Y149722D01*
X271105D01*
X270751Y150076D01*
X270751Y151123D01*
X270964Y151535D01*
X270964Y151569D01*
Y153405D01*
X265223D01*
Y151569D01*
X265223Y151535D01*
X265436Y151123D01*
X265436Y151035D01*
Y147699D01*
X264950Y147213D01*
X264300D01*
X263883Y147311D01*
X263813Y147701D01*
Y160338D01*
X263713Y160840D01*
X263428Y161266D01*
X261606Y163089D01*
Y167138D01*
X249795D01*
Y165498D01*
X246448D01*
Y166954D01*
X246876Y167039D01*
X247301Y167324D01*
X251840Y171862D01*
X261606D01*
Y173502D01*
X265141D01*
X273781Y164863D01*
Y157858D01*
X271846D01*
Y153331D01*
X278342D01*
Y157858D01*
X276406D01*
Y165407D01*
X276306Y165909D01*
X276022Y166335D01*
X266613Y175743D01*
X266187Y176028D01*
X265685Y176128D01*
X261606D01*
Y177768D01*
X256909D01*
Y183816D01*
X257531Y184175D01*
X258117Y184761D01*
X258532Y185479D01*
X258746Y186280D01*
Y187110D01*
X258532Y187911D01*
X258117Y188629D01*
X257531Y189215D01*
X256813Y189630D01*
X256012Y189845D01*
X255182D01*
X254381Y189630D01*
X253663Y189215D01*
X253077Y188629D01*
X252662Y187911D01*
X252447Y187110D01*
Y186280D01*
X252662Y185479D01*
X253077Y184761D01*
X253663Y184175D01*
X254284Y183816D01*
Y177768D01*
X249795D01*
Y173530D01*
X246092Y169827D01*
X239952D01*
Y167305D01*
X239490Y167114D01*
X238858Y167746D01*
Y170417D01*
X233542D01*
Y165890D01*
X233074Y165813D01*
X199897D01*
X191905Y173804D01*
Y177853D01*
X187618D01*
Y183816D01*
X188239Y184175D01*
X188826Y184761D01*
X189240Y185479D01*
X189455Y186280D01*
Y187110D01*
X189240Y187911D01*
X188826Y188629D01*
X188239Y189215D01*
X187521Y189630D01*
X186720Y189845D01*
X185891D01*
X185090Y189630D01*
X184372Y189215D01*
X183785Y188629D01*
X183370Y187911D01*
X183156Y187110D01*
Y186280D01*
X183370Y185479D01*
X183785Y184761D01*
X184372Y184175D01*
X184993Y183816D01*
Y177853D01*
X180095D01*
Y174547D01*
X178814D01*
X178312Y174447D01*
X177886Y174163D01*
X177684Y173961D01*
X177184Y174168D01*
Y178101D01*
X170688D01*
Y176510D01*
X169658D01*
Y177510D01*
X164342D01*
Y172983D01*
X169658D01*
Y173885D01*
X170688D01*
Y173573D01*
X176589D01*
X176796Y173073D01*
X173950Y170227D01*
X170688D01*
Y165699D01*
X177184D01*
Y169748D01*
X179358Y171922D01*
X184335D01*
X184461Y171947D01*
X190049D01*
X195952Y166045D01*
X195760Y165583D01*
X191905D01*
Y167223D01*
X180095D01*
Y164813D01*
X169044D01*
X168313Y165544D01*
Y166290D01*
X169658D01*
Y170817D01*
X164342D01*
Y166290D01*
X165687D01*
Y165000D01*
X165787Y164498D01*
X166072Y164072D01*
X167572Y162572D01*
X167998Y162287D01*
X168500Y162187D01*
X180095D01*
Y161317D01*
X191905D01*
Y162958D01*
X196186D01*
X197572Y161572D01*
X197998Y161287D01*
X198500Y161187D01*
X235956D01*
X238072Y159072D01*
X238498Y158787D01*
X239000Y158687D01*
X241456D01*
X243627Y156517D01*
Y141383D01*
X243165Y141192D01*
X240006Y144350D01*
Y145843D01*
X241351D01*
Y151123D01*
X241564Y151535D01*
X241564Y151535D01*
X241564Y151535D01*
Y153405D01*
X238693D01*
Y154405D01*
X237694D01*
Y157276D01*
X235823D01*
Y153704D01*
X235388Y153518D01*
X235035Y153809D01*
Y157858D01*
X228539D01*
Y153331D01*
X231801D01*
X234647Y150484D01*
X234440Y149984D01*
X228539D01*
Y145457D01*
X230474D01*
Y144713D01*
X230574Y144211D01*
X230859Y143785D01*
X233032Y141612D01*
Y141108D01*
X233331Y140385D01*
X233885Y139831D01*
X234608Y139532D01*
X235392D01*
X236115Y139831D01*
X236669Y140385D01*
X236968Y141108D01*
Y141892D01*
X236669Y142615D01*
X236115Y143169D01*
X235392Y143468D01*
X234888D01*
X233400Y144957D01*
X233607Y145457D01*
X235035D01*
Y149389D01*
X235535Y149596D01*
X236036Y149095D01*
Y145843D01*
X237381D01*
Y143807D01*
X237481Y143304D01*
X237765Y142878D01*
X241658Y138986D01*
Y137685D01*
X237656D01*
Y134813D01*
X235937D01*
X223051Y147699D01*
Y151035D01*
X223051Y151123D01*
X223264Y151535D01*
X223264Y151569D01*
Y153405D01*
X217523D01*
Y151569D01*
X217523Y151535D01*
X217736Y151123D01*
X217736Y151035D01*
Y149722D01*
X216735D01*
Y149984D01*
X210239D01*
Y145457D01*
X209799Y145313D01*
X203544D01*
X195763Y153093D01*
X195971Y153593D01*
X210239D01*
Y153331D01*
X216735D01*
Y157858D01*
X210239D01*
Y156218D01*
X152138D01*
X132613Y175743D01*
X132187Y176028D01*
X131685Y176128D01*
X122969D01*
Y177768D01*
X118327D01*
Y183816D01*
X118948Y184175D01*
X119534Y184761D01*
X119949Y185479D01*
X120164Y186280D01*
Y187110D01*
X119949Y187911D01*
X119534Y188629D01*
X118948Y189215D01*
X118230Y189630D01*
X117429Y189845D01*
X116600D01*
X115798Y189630D01*
X115080Y189215D01*
X114494Y188629D01*
X114079Y187911D01*
X113865Y187110D01*
Y186280D01*
X114079Y185479D01*
X114494Y184761D01*
X115080Y184175D01*
X115701Y183816D01*
Y177768D01*
X111159D01*
Y173276D01*
X111133Y173150D01*
Y173068D01*
X107892Y169827D01*
X101752D01*
Y165299D01*
X101752D01*
X101720Y164813D01*
X100044D01*
X99480Y165377D01*
X99484Y165492D01*
X99674Y165890D01*
X100657D01*
Y167050D01*
X100683Y167177D01*
X100657Y167304D01*
Y170417D01*
X95342D01*
Y165890D01*
X96687D01*
Y165000D01*
X96787Y164498D01*
X97072Y164072D01*
X98572Y162572D01*
X98998Y162287D01*
X99500Y162187D01*
X111159D01*
Y161232D01*
X122969D01*
Y162872D01*
X138271D01*
X149572Y151572D01*
X149998Y151287D01*
X150500Y151187D01*
X193956D01*
X201774Y143370D01*
X201567Y142870D01*
X200830D01*
Y141000D01*
X203700D01*
Y140000D01*
X204700D01*
Y137130D01*
X206570D01*
Y137130D01*
X206948Y137343D01*
X208383D01*
Y136248D01*
X208121D01*
Y129752D01*
X212649D01*
Y130912D01*
X214232D01*
X221873Y123270D01*
X222299Y122986D01*
X222802Y122886D01*
X227516D01*
Y121574D01*
X221261D01*
X220759Y121474D01*
X220333Y121190D01*
X219456Y120312D01*
X212221D01*
Y121657D01*
X211019D01*
Y122345D01*
X212659D01*
Y128841D01*
X208132D01*
Y122345D01*
X208394D01*
Y121657D01*
X206906D01*
X206528Y121869D01*
Y121869D01*
X204843D01*
X204785Y122345D01*
X204785D01*
Y128841D01*
X200258D01*
Y126906D01*
X179950D01*
X166928Y139928D01*
X166502Y140213D01*
X166000Y140313D01*
X149544D01*
X136928Y152928D01*
X136502Y153213D01*
X136000Y153313D01*
X87044D01*
X64613Y175743D01*
X64187Y176028D01*
X63685Y176128D01*
X53905D01*
Y177768D01*
X49035D01*
Y183816D01*
X49657Y184175D01*
X50243Y184761D01*
X50658Y185479D01*
X50872Y186280D01*
Y187110D01*
X50658Y187911D01*
X50243Y188629D01*
X49657Y189215D01*
X48939Y189630D01*
X48138Y189845D01*
X47308D01*
X46507Y189630D01*
X45789Y189215D01*
X45202Y188629D01*
X44788Y187911D01*
X44573Y187110D01*
Y186280D01*
X44788Y185479D01*
X45202Y184761D01*
X45789Y184175D01*
X46410Y183816D01*
Y177768D01*
X42094D01*
Y173276D01*
X42069Y173150D01*
Y173068D01*
X38828Y169827D01*
X32688D01*
Y167369D01*
X32226Y167177D01*
X31657Y167746D01*
Y170417D01*
X26342D01*
Y165890D01*
X29801D01*
X32434Y163257D01*
X32860Y162972D01*
X33362Y162872D01*
X42094D01*
Y161232D01*
X53905D01*
Y162872D01*
X70271D01*
X84572Y148572D01*
X84998Y148287D01*
X85500Y148187D01*
X134456D01*
X147072Y135572D01*
X147498Y135287D01*
X148000Y135187D01*
X163956D01*
X184472Y114672D01*
X184898Y114387D01*
X185400Y114287D01*
X200398D01*
Y112313D01*
X179471D01*
X179115Y112669D01*
X178392Y112969D01*
X177608D01*
X176885Y112669D01*
X176331Y112115D01*
X176031Y111392D01*
Y110608D01*
X176331Y109885D01*
X176885Y109331D01*
X177608Y109031D01*
X178392D01*
X179115Y109331D01*
X179471Y109687D01*
X200398D01*
Y108352D01*
X200739D01*
X201024Y107970D01*
Y106100D01*
X203894D01*
Y104100D01*
X201024D01*
Y102781D01*
X117431D01*
X73356Y146856D01*
X72963Y147118D01*
X72500Y147211D01*
X72500Y147211D01*
X68240D01*
Y149740D01*
X60760D01*
Y142260D01*
X64537D01*
Y139261D01*
X63583D01*
Y134339D01*
X67913D01*
Y139261D01*
X66959D01*
Y142260D01*
X68240D01*
Y144789D01*
X71999D01*
X92089Y124699D01*
X92058Y124530D01*
X91870Y124211D01*
X68240D01*
Y126740D01*
X61167D01*
X60760Y126740D01*
X60667Y127201D01*
Y134339D01*
X61417D01*
Y139261D01*
X57087D01*
Y134339D01*
X57837D01*
Y125960D01*
X57337Y125753D01*
X56927Y126163D01*
X56026Y126683D01*
X55500Y126824D01*
Y123000D01*
X54500D01*
D01*
X55500D01*
Y119176D01*
X56026Y119317D01*
X56927Y119837D01*
X57337Y120247D01*
X57837Y120040D01*
Y116161D01*
X57087D01*
Y111239D01*
X57837D01*
Y102460D01*
X57337Y102253D01*
X56927Y102663D01*
X56026Y103183D01*
X55500Y103324D01*
Y99500D01*
X54500D01*
D01*
X55500D01*
Y95676D01*
X56026Y95817D01*
X56927Y96337D01*
X57337Y96747D01*
X57837Y96540D01*
Y92661D01*
X57087D01*
Y87739D01*
X57837D01*
Y79460D01*
X57337Y79253D01*
X56927Y79663D01*
X56026Y80183D01*
X55500Y80324D01*
Y76500D01*
Y72676D01*
X56026Y72817D01*
X56927Y73337D01*
X57337Y73747D01*
X57837Y73540D01*
Y69661D01*
X57087D01*
Y64739D01*
X57885D01*
Y57386D01*
X52968Y52469D01*
X52608D01*
X51885Y52169D01*
X51631Y51915D01*
X48086D01*
X42615Y57386D01*
Y94639D01*
X43365D01*
Y99561D01*
X42639D01*
Y118039D01*
X43413D01*
Y122961D01*
X42663D01*
Y141539D01*
X43413D01*
Y146461D01*
X39083D01*
Y141539D01*
X39833D01*
Y122961D01*
X39083D01*
Y118039D01*
X39809D01*
Y99561D01*
X39035D01*
Y94639D01*
X39785D01*
Y56800D01*
X39893Y56259D01*
X40200Y55800D01*
X46500Y49500D01*
X46959Y49193D01*
X47500Y49085D01*
X51631D01*
X51885Y48831D01*
X52608Y48531D01*
X53392D01*
X54115Y48831D01*
X54669Y49385D01*
X54969Y50108D01*
Y50468D01*
X60300Y55800D01*
X60607Y56259D01*
X60715Y56800D01*
Y64739D01*
X61417D01*
Y69661D01*
X60667D01*
Y72299D01*
X60760Y72760D01*
X61167Y72760D01*
X64589D01*
Y69661D01*
X63583D01*
Y64739D01*
X67913D01*
Y69661D01*
X67011D01*
Y72760D01*
X68240D01*
Y75289D01*
X94600D01*
X94600Y75289D01*
X95063Y75381D01*
X95456Y75644D01*
X114772Y94959D01*
X117894D01*
X118085Y94498D01*
X112656Y89069D01*
X112008D01*
X111285Y88769D01*
X110731Y88215D01*
X110432Y87492D01*
Y86708D01*
X110731Y85985D01*
X111285Y85431D01*
X112008Y85132D01*
X112792D01*
X113515Y85431D01*
X114069Y85985D01*
X114368Y86708D01*
Y87356D01*
X120172Y93159D01*
X123135D01*
X123326Y92698D01*
X119697Y89069D01*
X119408D01*
X118685Y88769D01*
X118131Y88215D01*
X117832Y87492D01*
Y86708D01*
X118131Y85985D01*
X118685Y85431D01*
X119408Y85132D01*
X120192D01*
X120915Y85431D01*
X121469Y85985D01*
X121768Y86708D01*
Y87492D01*
X121703Y87650D01*
X125342Y91289D01*
X129069D01*
X129261Y90827D01*
X127479Y89046D01*
X126831D01*
X126108Y88746D01*
X125554Y88192D01*
X125254Y87469D01*
Y86686D01*
X125554Y85962D01*
X126108Y85408D01*
X126831Y85109D01*
X127614D01*
X128338Y85408D01*
X128892Y85962D01*
X129191Y86686D01*
Y87334D01*
X131347Y89489D01*
X209330D01*
Y88100D01*
X212200D01*
Y86100D01*
X209330D01*
Y84577D01*
X197500D01*
X197500Y84577D01*
X196705Y84419D01*
X196031Y83969D01*
X189531Y77469D01*
X189081Y76795D01*
X188923Y76000D01*
Y71921D01*
X187354D01*
Y64835D01*
X194402D01*
Y64835D01*
X194598D01*
Y64835D01*
X201646D01*
Y71921D01*
X200199D01*
Y74762D01*
X202361Y76923D01*
X213413D01*
X213604Y76461D01*
X210072Y72928D01*
X209787Y72502D01*
X209687Y72000D01*
Y67471D01*
X209331Y67115D01*
X209032Y66392D01*
Y65608D01*
X209331Y64885D01*
X209885Y64331D01*
X210608Y64031D01*
X211392D01*
X212115Y64331D01*
X212669Y64885D01*
X212968Y65608D01*
Y66392D01*
X212669Y67115D01*
X212313Y67471D01*
Y71456D01*
X214633Y73776D01*
X215094Y73585D01*
Y68362D01*
X226905D01*
Y70002D01*
X230252D01*
Y65673D01*
X233514D01*
X236360Y62827D01*
X236153Y62327D01*
X230252D01*
Y62065D01*
X226905D01*
Y63638D01*
X215094D01*
Y57732D01*
X219639D01*
Y51779D01*
X219017Y51420D01*
X218431Y50834D01*
X218016Y50116D01*
X217802Y49315D01*
Y48485D01*
X218016Y47684D01*
X218431Y46966D01*
X219017Y46380D01*
X219736Y45965D01*
X220536Y45750D01*
X221366D01*
X222167Y45965D01*
X222885Y46380D01*
X223471Y46966D01*
X223886Y47684D01*
X224101Y48485D01*
Y49315D01*
X223886Y50116D01*
X223471Y50834D01*
X222885Y51420D01*
X222264Y51779D01*
Y57732D01*
X226905D01*
Y59439D01*
X230252D01*
Y57799D01*
X236748D01*
Y61732D01*
X237248Y61939D01*
X237842Y61344D01*
Y58390D01*
X243158D01*
Y62917D01*
X239982D01*
X238317Y64583D01*
X238524Y65083D01*
X243158D01*
Y69610D01*
X239699D01*
X237770Y71539D01*
X237962Y72001D01*
X240767D01*
Y73871D01*
X237897D01*
X235027D01*
Y72628D01*
X232723D01*
X232624Y73128D01*
X233115Y73331D01*
X233669Y73885D01*
X233968Y74608D01*
Y75392D01*
X233669Y76115D01*
X233115Y76669D01*
X232392Y76968D01*
X231608D01*
X230885Y76669D01*
X230331Y76115D01*
X230031Y75392D01*
Y74888D01*
X227771Y72628D01*
X226905D01*
Y74268D01*
X225453D01*
X225404Y74768D01*
X225502Y74787D01*
X225928Y75072D01*
X230320Y79463D01*
X235239D01*
Y78119D01*
X235027Y77741D01*
X235027D01*
Y75871D01*
X237897D01*
X240767D01*
Y77741D01*
X240767D01*
X240554Y78119D01*
Y81577D01*
X241286Y82309D01*
X241850Y82166D01*
X242043Y81877D01*
X242342Y81577D01*
Y78241D01*
X242342Y78153D01*
X242130Y77741D01*
X242130Y77707D01*
Y75871D01*
X245000D01*
X247870D01*
Y77707D01*
X247870Y77741D01*
X247657Y78153D01*
X247657Y78241D01*
Y83434D01*
X244283D01*
Y85122D01*
X249532D01*
Y66339D01*
X247039D01*
Y63864D01*
X245072Y61897D01*
X244787Y61471D01*
X244687Y60969D01*
Y47000D01*
X244787Y46498D01*
X245072Y46072D01*
X248072Y43072D01*
X248498Y42787D01*
X249000Y42687D01*
X256456D01*
X260687Y38456D01*
Y37520D01*
X260556Y37485D01*
X259703Y36993D01*
X259007Y36296D01*
X258515Y35444D01*
X258260Y34492D01*
Y33508D01*
X258515Y32556D01*
X259007Y31703D01*
X259703Y31007D01*
X260556Y30515D01*
X261508Y30260D01*
X262492D01*
X263444Y30515D01*
X264297Y31007D01*
X264993Y31703D01*
X265485Y32556D01*
X265740Y33508D01*
Y34492D01*
X265485Y35444D01*
X264993Y36296D01*
X264297Y36993D01*
X263444Y37485D01*
X263313Y37520D01*
Y39000D01*
X263213Y39502D01*
X262928Y39928D01*
X257928Y44928D01*
X257502Y45213D01*
X257000Y45313D01*
X249544D01*
X248271Y46585D01*
X248463Y47047D01*
X248654D01*
Y49917D01*
Y52787D01*
X247313D01*
Y55512D01*
X251961D01*
Y57986D01*
X253287Y59313D01*
X253749Y59121D01*
Y55512D01*
X255034D01*
Y52575D01*
X254083D01*
Y47260D01*
X258610D01*
Y52575D01*
X257659D01*
Y55512D01*
X258670D01*
Y59842D01*
X254470D01*
X254279Y60304D01*
X255965Y61990D01*
X255976Y62008D01*
X258670D01*
X258785Y61555D01*
X258787Y61545D01*
X259072Y61119D01*
X261587Y58604D01*
Y55539D01*
X265917D01*
Y59776D01*
X266417Y59983D01*
X268083Y58318D01*
Y55539D01*
X272413D01*
Y60461D01*
X269652D01*
X268448Y61665D01*
X268639Y62127D01*
X269248D01*
Y63800D01*
X267870D01*
Y62896D01*
X267408Y62705D01*
X265917Y64196D01*
Y67261D01*
X264813D01*
Y68500D01*
X264713Y69002D01*
X264428Y69428D01*
X258063Y75793D01*
Y84909D01*
X261623D01*
Y82036D01*
X261623Y82036D01*
X261636Y81972D01*
Y81391D01*
X261636Y81391D01*
X261728Y80928D01*
X261990Y80535D01*
X267981Y74544D01*
X267981Y74544D01*
X268374Y74282D01*
X268837Y74189D01*
X268837Y74189D01*
X270335D01*
X270434Y73689D01*
X270385Y73669D01*
X269831Y73115D01*
X269531Y72392D01*
Y71608D01*
X269831Y70885D01*
X270385Y70331D01*
X271108Y70031D01*
X271892D01*
X272301Y70201D01*
X272369Y70187D01*
X284095D01*
Y68362D01*
X295905D01*
Y70002D01*
X298774D01*
X299252Y69949D01*
Y65604D01*
X296367Y62720D01*
X295905Y62911D01*
Y63638D01*
X284095D01*
Y57732D01*
X288930D01*
Y51779D01*
X288309Y51420D01*
X287722Y50834D01*
X287308Y50116D01*
X287093Y49315D01*
Y48485D01*
X287308Y47684D01*
X287722Y46966D01*
X288309Y46380D01*
X289027Y45965D01*
X289828Y45750D01*
X290657D01*
X291458Y45965D01*
X292176Y46380D01*
X292763Y46966D01*
X293178Y47684D01*
X293392Y48485D01*
Y49315D01*
X293178Y50116D01*
X292763Y50834D01*
X292176Y51420D01*
X291555Y51779D01*
Y57732D01*
X295905D01*
Y59372D01*
X296189D01*
X296691Y59472D01*
X297117Y59757D01*
X298790Y61430D01*
X299252Y61238D01*
Y57547D01*
X305748D01*
Y59264D01*
X306842D01*
Y58390D01*
X312158D01*
Y62917D01*
X306842D01*
Y61889D01*
X305748D01*
Y62075D01*
X300088D01*
X299897Y62537D01*
X302255Y64895D01*
X302539Y65320D01*
X302559Y65421D01*
X305748D01*
Y68195D01*
X306210Y68387D01*
X306842Y67754D01*
Y65083D01*
X312158D01*
Y69610D01*
X308699D01*
X306066Y72243D01*
X305640Y72528D01*
X305138Y72628D01*
X295905D01*
Y74189D01*
X322111D01*
X322111Y74189D01*
X322574Y74282D01*
X322967Y74544D01*
X349513Y101089D01*
X367500D01*
Y81500D01*
X469500D01*
X470000Y81000D01*
Y76000D01*
X511197D01*
Y803D01*
X803D01*
Y235197D01*
X511197D01*
Y160000D01*
D02*
G37*
G36*
X138646Y165998D02*
X138439Y165498D01*
X122969D01*
Y167138D01*
X111159D01*
Y164813D01*
X108280D01*
X108248Y165299D01*
X108248D01*
Y166954D01*
X108676Y167039D01*
X109101Y167324D01*
X113374Y171597D01*
X113552Y171862D01*
X122969D01*
Y173502D01*
X131141D01*
X138646Y165998D01*
D02*
G37*
G36*
X70646D02*
X70439Y165498D01*
X53905D01*
Y167138D01*
X42094D01*
Y165498D01*
X39184D01*
Y166954D01*
X39612Y167039D01*
X40037Y167324D01*
X44310Y171597D01*
X44488Y171862D01*
X53905D01*
Y173502D01*
X63141D01*
X70646Y165998D01*
D02*
G37*
G36*
X261187Y159794D02*
Y147872D01*
X260544Y147228D01*
X260082Y147420D01*
Y149984D01*
X253586D01*
Y149722D01*
X252939D01*
X252585Y150076D01*
X252585Y151123D01*
X252798Y151535D01*
X252798Y151569D01*
Y153405D01*
X247058D01*
Y151569D01*
X247058Y151535D01*
X247270Y151123D01*
X247270Y151035D01*
Y145843D01*
X248687D01*
Y143044D01*
X246714Y141070D01*
X246252Y141261D01*
Y157061D01*
X246152Y157563D01*
X245867Y157989D01*
X243631Y160225D01*
X243822Y160687D01*
X247956D01*
X248114Y160530D01*
X248154Y160470D01*
X249052Y159572D01*
X249478Y159287D01*
X249980Y159187D01*
X255456D01*
X255687Y158956D01*
Y157858D01*
X253586D01*
Y153331D01*
X260082D01*
Y157858D01*
X258313D01*
Y159500D01*
X258213Y160002D01*
X257928Y160428D01*
X257586Y160770D01*
X257777Y161232D01*
X259749D01*
X261187Y159794D01*
D02*
G37*
G36*
X229687Y133956D02*
Y127545D01*
X227516D01*
Y125511D01*
X223345D01*
X215704Y133152D01*
X215278Y133437D01*
X214776Y133537D01*
X212649D01*
Y136248D01*
X211009D01*
Y137343D01*
X212263D01*
Y142657D01*
X212751Y142687D01*
X220956D01*
X229687Y133956D01*
D02*
G37*
G36*
X179406Y124281D02*
X200258D01*
Y122345D01*
X200731D01*
X200788Y121869D01*
X200788D01*
Y119999D01*
X203658D01*
Y117999D01*
X200788D01*
Y116913D01*
X185944D01*
X179006Y123851D01*
X179252Y124312D01*
X179406Y124281D01*
D02*
G37*
G36*
X113645Y99643D02*
X113454Y99181D01*
X105150D01*
X105000Y99211D01*
X105000Y99211D01*
X70002D01*
X68856Y100356D01*
X68463Y100619D01*
X68240Y100663D01*
Y103240D01*
X61167D01*
X60760Y103240D01*
X60667Y103701D01*
Y111239D01*
X61417D01*
Y116161D01*
X60667D01*
Y118798D01*
X60760Y119260D01*
X61167Y119260D01*
X64537D01*
Y116161D01*
X63583D01*
Y111239D01*
X67913D01*
Y116161D01*
X66959D01*
Y119260D01*
X68240D01*
Y121789D01*
X91499D01*
X113645Y99643D01*
D02*
G37*
G36*
X367500Y123872D02*
Y105111D01*
X348793D01*
X348586Y105611D01*
X367038Y124063D01*
X367500Y123872D01*
D02*
G37*
G36*
X245404Y98187D02*
X245331Y98115D01*
X245031Y97392D01*
Y96888D01*
X244011Y95867D01*
X243726Y95442D01*
X243627Y94939D01*
Y92503D01*
X237656D01*
Y91077D01*
X234000D01*
X234000Y91077D01*
X233483Y90974D01*
X233052Y91373D01*
X233077Y91500D01*
Y95261D01*
X233958D01*
X234085Y95236D01*
X237549D01*
X238051Y95336D01*
X238477Y95621D01*
X241544Y98687D01*
X245196D01*
X245404Y98187D01*
D02*
G37*
G36*
X227516Y97442D02*
Y95261D01*
X228923D01*
Y92361D01*
X225740Y89177D01*
X220763D01*
Y89758D01*
X219950D01*
X219743Y90258D01*
X226888Y97403D01*
X227016Y97594D01*
X227516Y97442D01*
D02*
G37*
G36*
X69037Y96882D02*
X69500Y96789D01*
X69500Y96789D01*
X104879D01*
X105030Y96759D01*
X112494D01*
X112685Y96298D01*
X94099Y77711D01*
X68240D01*
Y80240D01*
X61167D01*
X60760Y80240D01*
X60667Y80702D01*
Y87739D01*
X61417D01*
Y92661D01*
X60667D01*
Y95298D01*
X60760Y95760D01*
X61167Y95760D01*
X64537D01*
Y92661D01*
X63583D01*
Y87739D01*
X67913D01*
Y92661D01*
X66959D01*
Y95760D01*
X68240D01*
Y96917D01*
X68740Y97080D01*
X69037Y96882D01*
D02*
G37*
%LPC*%
G36*
X481758Y228963D02*
X479830D01*
X477939Y228587D01*
X476158Y227849D01*
X474555Y226778D01*
X473191Y225414D01*
X472120Y223811D01*
X471382Y222030D01*
X471006Y220139D01*
Y218211D01*
X471382Y216320D01*
X472120Y214539D01*
X473191Y212936D01*
X474555Y211573D01*
X476158Y210502D01*
X477939Y209764D01*
X479830Y209388D01*
X481758D01*
X483648Y209764D01*
X485430Y210502D01*
X487033Y211573D01*
X488396Y212936D01*
X489467Y214539D01*
X490205Y216320D01*
X490581Y218211D01*
Y220139D01*
X490205Y222030D01*
X489467Y223811D01*
X488396Y225414D01*
X487033Y226778D01*
X485430Y227849D01*
X483648Y228587D01*
X481758Y228963D01*
D02*
G37*
G36*
X31364D02*
X29436D01*
X27545Y228587D01*
X25764Y227849D01*
X24161Y226778D01*
X22798Y225414D01*
X21726Y223811D01*
X20989Y222030D01*
X20613Y220139D01*
Y218211D01*
X20989Y216320D01*
X21726Y214539D01*
X22798Y212936D01*
X24161Y211573D01*
X25764Y210502D01*
X27545Y209764D01*
X29436Y209388D01*
X31364D01*
X33255Y209764D01*
X35036Y210502D01*
X36639Y211573D01*
X38002Y212936D01*
X39074Y214539D01*
X39811Y216320D01*
X40187Y218211D01*
Y220139D01*
X39811Y222030D01*
X39074Y223811D01*
X38002Y225414D01*
X36639Y226778D01*
X35036Y227849D01*
X33255Y228587D01*
X31364Y228963D01*
D02*
G37*
G36*
X463885Y189845D02*
X463056D01*
X462255Y189630D01*
X461537Y189215D01*
X460951Y188629D01*
X460592Y188008D01*
X441195D01*
X440693Y187908D01*
X440267Y187623D01*
X412456Y159813D01*
X359500D01*
X358998Y159713D01*
X358572Y159428D01*
X339072Y139928D01*
X338787Y139502D01*
X338687Y139000D01*
Y121544D01*
X327063Y109919D01*
X305453D01*
Y111855D01*
X300925D01*
Y105359D01*
X305453D01*
Y107294D01*
X327607D01*
X328109Y107394D01*
X328535Y107678D01*
X340928Y120072D01*
X341213Y120498D01*
X341313Y121000D01*
Y138456D01*
X360044Y157187D01*
X413000D01*
X413502Y157287D01*
X413928Y157572D01*
X441739Y185382D01*
X460592D01*
X460951Y184761D01*
X461537Y184175D01*
X462158Y183816D01*
Y177768D01*
X457594D01*
Y176750D01*
X454248D01*
Y177701D01*
X447752D01*
Y173768D01*
X447252Y173561D01*
X446751Y174062D01*
Y177110D01*
X441436D01*
Y172583D01*
X444524D01*
X444535Y172565D01*
X446221Y170879D01*
X446030Y170417D01*
X441436D01*
Y169466D01*
X434654D01*
X434151Y169366D01*
X433725Y169082D01*
X431612Y166969D01*
X431108D01*
X430385Y166669D01*
X429831Y166115D01*
X429531Y165392D01*
Y164608D01*
X429831Y163885D01*
X430385Y163331D01*
X431108Y163031D01*
X431892D01*
X432615Y163331D01*
X433169Y163885D01*
X433468Y164608D01*
Y165112D01*
X435197Y166841D01*
X441436D01*
Y165890D01*
X442781D01*
Y164093D01*
X442881Y163591D01*
X443165Y163165D01*
X444759Y161572D01*
X445185Y161287D01*
X445687Y161187D01*
X450000D01*
X450099Y161207D01*
X461835D01*
X461962Y161232D01*
X469406D01*
Y167138D01*
X457594D01*
Y163832D01*
X450020D01*
X449921Y163813D01*
X446231D01*
X445406Y164637D01*
Y165890D01*
X446751D01*
Y169696D01*
X447213Y169887D01*
X447752Y169348D01*
Y165299D01*
X454248D01*
Y169827D01*
X450986D01*
X448140Y172673D01*
X448347Y173173D01*
X454248D01*
Y174124D01*
X457594D01*
Y171862D01*
X469406D01*
Y177768D01*
X464783D01*
Y183816D01*
X465405Y184175D01*
X465991Y184761D01*
X466406Y185479D01*
X466620Y186280D01*
Y187110D01*
X466406Y187911D01*
X465991Y188629D01*
X465405Y189215D01*
X464686Y189630D01*
X463885Y189845D01*
D02*
G37*
G36*
X385748Y177701D02*
X379252D01*
Y176110D01*
X378251D01*
Y177110D01*
X372936D01*
Y172583D01*
X378251D01*
Y173485D01*
X379252D01*
Y173173D01*
X385748D01*
Y177701D01*
D02*
G37*
G36*
X246448D02*
X239952D01*
Y176110D01*
X238858D01*
Y177110D01*
X233542D01*
Y172583D01*
X238858D01*
Y173485D01*
X239952D01*
Y173173D01*
X246448D01*
Y177701D01*
D02*
G37*
G36*
X108248D02*
X101752D01*
Y176110D01*
X100657D01*
Y177110D01*
X95342D01*
Y172583D01*
X100657D01*
Y173485D01*
X101752D01*
Y173173D01*
X108248D01*
Y177701D01*
D02*
G37*
G36*
X39184D02*
X32688D01*
Y176110D01*
X31657D01*
Y177110D01*
X26342D01*
Y172583D01*
X31657D01*
Y173485D01*
X32688D01*
Y173173D01*
X39184D01*
Y177701D01*
D02*
G37*
G36*
X394594Y189845D02*
X393765D01*
X392964Y189630D01*
X392246Y189215D01*
X391659Y188629D01*
X391301Y188008D01*
X366195D01*
X365693Y187908D01*
X365267Y187623D01*
X311956Y134313D01*
X305458D01*
Y136248D01*
X300931D01*
Y129813D01*
X300931Y129752D01*
X300784Y129313D01*
X297731D01*
X297584Y129752D01*
X297584D01*
Y136248D01*
X297322D01*
Y136989D01*
X297676Y137343D01*
X298724Y137343D01*
X299135Y137130D01*
X299169Y137130D01*
X301006D01*
Y140000D01*
Y142870D01*
X299169D01*
X299135Y142870D01*
X298724Y142657D01*
X298635Y142657D01*
X293443D01*
Y137343D01*
X294697D01*
Y136248D01*
X293057D01*
Y134313D01*
X283000D01*
X282498Y134213D01*
X282072Y133928D01*
X275689Y127545D01*
X272697D01*
Y122820D01*
Y118884D01*
Y115567D01*
X271356D01*
X271356Y115567D01*
X270893Y115474D01*
X270500Y115212D01*
X269644Y114356D01*
X269381Y113963D01*
X269289Y113500D01*
X269289Y113500D01*
Y111500D01*
X269289Y111500D01*
X269381Y111037D01*
X269644Y110644D01*
Y110194D01*
X269381Y109801D01*
X269289Y109338D01*
X269289Y109338D01*
Y107500D01*
X269289Y107500D01*
X269381Y107037D01*
X269644Y106644D01*
Y106320D01*
X269381Y105927D01*
X269289Y105464D01*
X269289Y105464D01*
Y103500D01*
X269289Y103500D01*
X269381Y103037D01*
X269644Y102644D01*
Y102446D01*
X269381Y102053D01*
X269289Y101590D01*
X269289Y101590D01*
Y100000D01*
X269289Y100000D01*
X269381Y99537D01*
X269644Y99144D01*
X271036Y97752D01*
X271429Y97489D01*
X271892Y97397D01*
X271892Y97397D01*
X272697D01*
Y95261D01*
X274107D01*
X274168Y94955D01*
Y86600D01*
X274345Y85707D01*
X274851Y84951D01*
X275607Y84445D01*
X276500Y84268D01*
X277393Y84445D01*
X278149Y84951D01*
X278655Y85707D01*
X278832Y86600D01*
Y95261D01*
X280079D01*
Y97397D01*
X284391D01*
X289144Y92644D01*
X289537Y92382D01*
X290000Y92289D01*
X290000Y92289D01*
X293437D01*
Y90842D01*
X296896D01*
X297397Y90342D01*
X297190Y89842D01*
X293051D01*
Y87906D01*
X288393D01*
X287891Y87806D01*
X287835Y87769D01*
X287208D01*
X286485Y87469D01*
X285931Y86915D01*
X285631Y86192D01*
Y85408D01*
X285931Y84685D01*
X286485Y84131D01*
X287208Y83832D01*
X287992D01*
X288715Y84131D01*
X289269Y84685D01*
X289516Y85281D01*
X293051D01*
Y83345D01*
X297579D01*
Y89452D01*
X298079Y89659D01*
X300320Y87418D01*
X300409Y86969D01*
X300694Y86543D01*
X300925Y86312D01*
Y83345D01*
X305453D01*
Y89842D01*
X301610D01*
X301318Y90194D01*
X301504Y90630D01*
X304870D01*
Y92500D01*
X302000D01*
Y94500D01*
X304870D01*
Y96187D01*
X308929D01*
X309285Y95831D01*
X310008Y95531D01*
X310792D01*
X311515Y95831D01*
X312069Y96385D01*
X312368Y97108D01*
Y97892D01*
X312069Y98615D01*
X311515Y99169D01*
X310792Y99468D01*
X310008D01*
X309285Y99169D01*
X308929Y98813D01*
X305363D01*
X304870Y98830D01*
X304870Y99313D01*
Y100700D01*
X302000D01*
Y101700D01*
X301000D01*
Y104570D01*
X299164D01*
X299130Y104570D01*
X298718Y104358D01*
X298630Y104358D01*
X297317D01*
Y105359D01*
X297579D01*
Y111855D01*
X293051D01*
Y109919D01*
X292437D01*
X287325Y115032D01*
X287532Y115532D01*
X287892D01*
X288615Y115831D01*
X289169Y116385D01*
X289469Y117108D01*
Y117892D01*
X289169Y118615D01*
X288615Y119169D01*
X287892Y119468D01*
X287108D01*
X286497Y119215D01*
X285257Y120455D01*
X285448Y120917D01*
X292230D01*
X292732Y121017D01*
X292937Y121154D01*
X293437Y120888D01*
Y120436D01*
X294691D01*
Y119435D01*
X293051D01*
Y112939D01*
X297579D01*
Y119435D01*
X297317D01*
Y120082D01*
X297670Y120436D01*
X298718Y120436D01*
X299130Y120223D01*
X299164Y120223D01*
X301000D01*
Y123093D01*
Y125964D01*
X299164D01*
X299130Y125964D01*
X298718Y125751D01*
X298630Y125751D01*
X294229D01*
X294038Y126213D01*
X294512Y126687D01*
X305956D01*
X312572Y120072D01*
X312998Y119787D01*
X313500Y119687D01*
X319529D01*
X319885Y119331D01*
X320608Y119032D01*
X321392D01*
X322115Y119331D01*
X322669Y119885D01*
X322969Y120608D01*
Y121392D01*
X322669Y122115D01*
X322115Y122669D01*
X321392Y122968D01*
X320608D01*
X319885Y122669D01*
X319529Y122313D01*
X314044D01*
X307428Y128928D01*
X307002Y129213D01*
X306500Y129313D01*
X305605D01*
X305458Y129752D01*
X305458Y129813D01*
Y131687D01*
X312500D01*
X313002Y131787D01*
X313428Y132072D01*
X366739Y185382D01*
X391301D01*
X391659Y184761D01*
X392246Y184175D01*
X392867Y183816D01*
Y177768D01*
X388595D01*
Y173276D01*
X388569Y173150D01*
Y173004D01*
X385392Y169827D01*
X379252D01*
Y165299D01*
X385748D01*
Y166954D01*
X386176Y167039D01*
X386601Y167324D01*
X390810Y171532D01*
X391030Y171862D01*
X400406D01*
Y177768D01*
X395492D01*
Y183816D01*
X396113Y184175D01*
X396700Y184761D01*
X397114Y185479D01*
X397329Y186280D01*
Y187110D01*
X397114Y187911D01*
X396700Y188629D01*
X396113Y189215D01*
X395395Y189630D01*
X394594Y189845D01*
D02*
G37*
G36*
X378251Y170417D02*
X372936D01*
Y169466D01*
X367154D01*
X366651Y169366D01*
X366225Y169082D01*
X366112Y168968D01*
X365608D01*
X364885Y168669D01*
X364331Y168115D01*
X364032Y167392D01*
Y166608D01*
X364331Y165885D01*
X364885Y165331D01*
X365608Y165032D01*
X366392D01*
X367115Y165331D01*
X367669Y165885D01*
X367969Y166608D01*
Y166841D01*
X372936D01*
Y165890D01*
X374281D01*
Y164407D01*
X374381Y163904D01*
X374665Y163478D01*
X376072Y162072D01*
X376498Y161787D01*
X377000Y161687D01*
X388595D01*
Y161232D01*
X400406D01*
Y167138D01*
X388595D01*
Y164313D01*
X377544D01*
X376906Y164950D01*
Y165890D01*
X378251D01*
Y170417D01*
D02*
G37*
G36*
X270964Y157276D02*
X269093D01*
Y155405D01*
X270964D01*
Y157276D01*
D02*
G37*
G36*
X267093D02*
X265223D01*
Y155405D01*
X267093D01*
Y157276D01*
D02*
G37*
G36*
X295870Y157276D02*
X294000D01*
Y155405D01*
X295870D01*
Y157276D01*
D02*
G37*
G36*
X292000D02*
X290130D01*
Y155405D01*
X292000D01*
Y157276D01*
D02*
G37*
G36*
X241564D02*
X239693D01*
Y155405D01*
X241564D01*
Y157276D01*
D02*
G37*
G36*
X223264D02*
X221393D01*
Y155405D01*
X223264D01*
Y157276D01*
D02*
G37*
G36*
X219393D02*
X217523D01*
Y155405D01*
X219393D01*
Y157276D01*
D02*
G37*
G36*
X287892Y161969D02*
X287108D01*
X286385Y161669D01*
X285831Y161115D01*
X285531Y160392D01*
Y159888D01*
X285072Y159428D01*
X284787Y159002D01*
X284687Y158500D01*
Y157858D01*
X282845D01*
Y153331D01*
X289341D01*
Y157858D01*
X288780D01*
X288652Y158224D01*
X288642Y158358D01*
X289169Y158885D01*
X289469Y159608D01*
Y160392D01*
X289169Y161115D01*
X288615Y161669D01*
X287892Y161969D01*
D02*
G37*
G36*
X55500Y149824D02*
Y147000D01*
X58324D01*
X58183Y147526D01*
X57663Y148427D01*
X56927Y149163D01*
X56026Y149683D01*
X55500Y149824D01*
D02*
G37*
G36*
X53500D02*
X52974Y149683D01*
X52073Y149163D01*
X51337Y148427D01*
X50817Y147526D01*
X50676Y147000D01*
X53500D01*
Y149824D01*
D02*
G37*
G36*
X58324Y145000D02*
X55500D01*
Y142176D01*
X56026Y142317D01*
X56927Y142837D01*
X57663Y143573D01*
X58183Y144474D01*
X58324Y145000D01*
D02*
G37*
G36*
X53500D02*
X50676D01*
X50817Y144474D01*
X51337Y143573D01*
X52073Y142837D01*
X52974Y142317D01*
X53500Y142176D01*
Y145000D01*
D02*
G37*
G36*
X121634Y142711D02*
X121577D01*
X121270Y142650D01*
X121010Y142476D01*
X120836Y142216D01*
X120775Y141909D01*
Y141851D01*
X120786Y141795D01*
X120315Y141600D01*
X120295Y141629D01*
X120263Y141678D01*
X120229Y141700D01*
X120206Y141735D01*
X120171Y141758D01*
X120149Y141792D01*
X119888Y141966D01*
X119581Y142027D01*
X119524D01*
X119217Y141966D01*
X118956Y141792D01*
X118782Y141531D01*
X118721Y141224D01*
Y141167D01*
X118782Y140860D01*
X118956Y140599D01*
X118990Y140576D01*
X119013Y140542D01*
X119047Y140519D01*
X119070Y140485D01*
X119331Y140311D01*
X119638Y140250D01*
X119695D01*
X120002Y140311D01*
X120263Y140485D01*
X120437Y140746D01*
X120498Y141053D01*
Y141110D01*
X120487Y141167D01*
X120958Y141362D01*
X120977Y141332D01*
X121010Y141284D01*
X121044Y141261D01*
X121067Y141227D01*
X121101Y141204D01*
X121124Y141170D01*
X121384Y140996D01*
X121692Y140935D01*
X121749D01*
X122056Y140996D01*
X122316Y141170D01*
X122490Y141430D01*
X122551Y141737D01*
Y141794D01*
X122490Y142102D01*
X122316Y142362D01*
X122282Y142385D01*
X122259Y142419D01*
X122225Y142442D01*
X122202Y142476D01*
X121942Y142650D01*
X121634Y142711D01*
D02*
G37*
G36*
X303006Y142870D02*
Y141000D01*
X304876D01*
Y142870D01*
X303006D01*
D02*
G37*
G36*
X133613Y141342D02*
X133556D01*
X133249Y141281D01*
X132989Y141107D01*
X132815Y140847D01*
X132754Y140540D01*
Y140482D01*
X132815Y140175D01*
X132989Y139915D01*
X133023Y139892D01*
X133046Y139858D01*
X133080Y139835D01*
X133103Y139801D01*
X133363Y139627D01*
X133670Y139566D01*
X133728D01*
X134035Y139627D01*
X134422Y139699D01*
X134674Y139498D01*
X134700Y139458D01*
X134868Y139135D01*
X134807Y138828D01*
Y138771D01*
X134868Y138464D01*
X135042Y138204D01*
X135076Y138181D01*
X135099Y138146D01*
X135134Y138124D01*
X135156Y138089D01*
X135417Y137915D01*
X135724Y137854D01*
X135781D01*
X136088Y137915D01*
X136349Y138089D01*
X136523Y138350D01*
X136584Y138657D01*
Y138714D01*
X136523Y139021D01*
X136349Y139282D01*
X136180Y139605D01*
X136242Y139912D01*
Y139969D01*
X136180Y140276D01*
X136006Y140537D01*
X135972Y140560D01*
X135949Y140594D01*
X135915Y140617D01*
X135892Y140651D01*
X135632Y140825D01*
X135325Y140886D01*
X135268D01*
X134960Y140825D01*
X134573Y140752D01*
X134322Y140954D01*
X134295Y140993D01*
X134261Y141016D01*
X134238Y141050D01*
X134204Y141073D01*
X134181Y141107D01*
X133921Y141281D01*
X133613Y141342D01*
D02*
G37*
G36*
X304876Y139000D02*
X303006D01*
Y137130D01*
X304876D01*
Y139000D01*
D02*
G37*
G36*
X202700Y139000D02*
X200830D01*
Y137130D01*
X202700D01*
Y139000D01*
D02*
G37*
G36*
X125970Y140201D02*
X125913D01*
X125605Y140140D01*
X125345Y139966D01*
X125171Y139706D01*
X125110Y139399D01*
Y139342D01*
X125171Y139034D01*
X125345Y138774D01*
X125379Y138751D01*
X125402Y138717D01*
X125436Y138694D01*
X125459Y138660D01*
X125493Y138637D01*
X125516Y138603D01*
X125550Y138580D01*
X125573Y138546D01*
X125834Y138372D01*
X126141Y138311D01*
X126236Y138068D01*
X126251Y137973D01*
X126312Y137665D01*
X126486Y137405D01*
X126520Y137382D01*
X126543Y137348D01*
X126577Y137325D01*
X126593Y137301D01*
Y137288D01*
X126654Y136981D01*
X126828Y136720D01*
X126862Y136697D01*
X126885Y136663D01*
X127146Y136489D01*
X127453Y136428D01*
X127510D01*
X127817Y136489D01*
X128078Y136663D01*
X128252Y136924D01*
X128313Y137231D01*
Y137288D01*
X128252Y137595D01*
X128078Y137856D01*
X128043Y137879D01*
X128027Y137902D01*
Y137916D01*
X127966Y138223D01*
X127792Y138483D01*
X127758Y138506D01*
X127735Y138540D01*
X127701Y138563D01*
X127678Y138597D01*
X127418Y138771D01*
X127111Y138832D01*
X127016Y139076D01*
X127001Y139171D01*
X126940Y139478D01*
X126766Y139738D01*
X126731Y139761D01*
X126708Y139795D01*
X126674Y139818D01*
X126652Y139852D01*
X126617Y139875D01*
X126594Y139909D01*
X126560Y139932D01*
X126537Y139966D01*
X126277Y140140D01*
X125970Y140201D01*
D02*
G37*
G36*
X24894Y138324D02*
Y135500D01*
X27718D01*
X27577Y136026D01*
X27057Y136927D01*
X26321Y137663D01*
X25419Y138183D01*
X24894Y138324D01*
D02*
G37*
G36*
X22894D02*
X22368Y138183D01*
X21467Y137663D01*
X20731Y136927D01*
X20210Y136026D01*
X20069Y135500D01*
X22894D01*
Y138324D01*
D02*
G37*
G36*
X130077Y138148D02*
X130020D01*
X129712Y138087D01*
X129452Y137913D01*
X129278Y137652D01*
X129217Y137345D01*
Y137288D01*
X129278Y136981D01*
X129452Y136720D01*
X129486Y136697D01*
X129509Y136663D01*
X129543Y136641D01*
X129566Y136606D01*
X129816Y136439D01*
X129829Y136425D01*
X130003Y135887D01*
X129963Y135827D01*
X129901Y135520D01*
Y135463D01*
X129963Y135155D01*
X130137Y134895D01*
X130171Y134872D01*
X130194Y134838D01*
X130228Y134815D01*
X130251Y134781D01*
X130511Y134607D01*
X130586Y134151D01*
Y134094D01*
X130647Y133786D01*
X130821Y133526D01*
X130855Y133503D01*
X130878Y133469D01*
X130912Y133446D01*
X130935Y133412D01*
X131196Y133238D01*
X131503Y133177D01*
X131560D01*
X131867Y133238D01*
X132123Y133409D01*
X132128Y133412D01*
X132240Y133437D01*
X132688Y133459D01*
X132723Y133453D01*
X132761Y133412D01*
X132770Y133405D01*
X132989Y133184D01*
X132991Y133182D01*
X133046Y133127D01*
X133060Y133117D01*
X133080Y133104D01*
X133103Y133070D01*
X133239Y132978D01*
X133331Y132842D01*
X133365Y132819D01*
X133388Y132784D01*
X133422Y132762D01*
X133445Y132727D01*
X133705Y132553D01*
X134013Y132492D01*
X134070D01*
X134377Y132553D01*
X134637Y132727D01*
X134811Y132988D01*
X134873Y133295D01*
Y133352D01*
X134811Y133659D01*
X134637Y133920D01*
X134603Y133943D01*
X134580Y133977D01*
X134546Y134000D01*
X134523Y134034D01*
X134387Y134125D01*
X134295Y134262D01*
X134261Y134285D01*
X134238Y134319D01*
X134204Y134342D01*
X134181Y134376D01*
X134044Y134468D01*
X133953Y134604D01*
X133919Y134627D01*
X133896Y134661D01*
X133862Y134684D01*
X133839Y134718D01*
X133578Y134892D01*
X133271Y134953D01*
X133214D01*
X132907Y134892D01*
X132651Y134721D01*
X132646Y134718D01*
X132277Y134637D01*
X132108Y134657D01*
X132045Y134678D01*
X132036Y134684D01*
X132013Y134718D01*
X131753Y134892D01*
X131672Y134908D01*
X131617Y135041D01*
X131678Y135349D01*
Y135406D01*
X131617Y135713D01*
X131443Y135973D01*
X131409Y135996D01*
X131386Y136030D01*
X131352Y136053D01*
X131329Y136087D01*
X131079Y136254D01*
X131066Y136268D01*
X130892Y136806D01*
X130933Y136867D01*
X130994Y137174D01*
Y137231D01*
X130933Y137538D01*
X130759Y137799D01*
X130724Y137821D01*
X130701Y137856D01*
X130667Y137879D01*
X130645Y137913D01*
X130384Y138087D01*
X130077Y138148D01*
D02*
G37*
G36*
X126084Y133356D02*
X126027D01*
X125719Y133295D01*
X125459Y133121D01*
X125285Y132861D01*
X125224Y132554D01*
Y132545D01*
X125133Y132432D01*
X124777Y132180D01*
X124601Y132215D01*
X124544D01*
X124236Y132154D01*
X123976Y131980D01*
X123802Y131720D01*
X123741Y131413D01*
Y131356D01*
X123802Y131048D01*
X123976Y130788D01*
X124010Y130765D01*
X124033Y130731D01*
X124067Y130708D01*
X124090Y130674D01*
X124227Y130582D01*
X124318Y130446D01*
X124352Y130423D01*
X124375Y130389D01*
X124409Y130366D01*
X124432Y130332D01*
X124693Y130158D01*
X125000Y130096D01*
X125057D01*
X125364Y130158D01*
X125625Y130332D01*
X125799Y130592D01*
X125860Y130899D01*
Y130956D01*
X125825Y131133D01*
X126076Y131488D01*
X126189Y131580D01*
X126198D01*
X126505Y131641D01*
X126766Y131815D01*
X126940Y132075D01*
X127001Y132382D01*
Y132439D01*
X126940Y132747D01*
X126766Y133007D01*
X126731Y133030D01*
X126708Y133064D01*
X126674Y133087D01*
X126652Y133121D01*
X126391Y133295D01*
X126084Y133356D01*
D02*
G37*
G36*
X36917Y146461D02*
X32587D01*
Y141539D01*
X33439D01*
Y138240D01*
X30154D01*
Y130760D01*
X37634D01*
Y138240D01*
X36065D01*
Y141539D01*
X36917D01*
Y146461D01*
D02*
G37*
G36*
X27718Y133500D02*
X24894D01*
Y130676D01*
X25419Y130817D01*
X26321Y131337D01*
X27057Y132073D01*
X27577Y132974D01*
X27718Y133500D01*
D02*
G37*
G36*
X22894D02*
X20069D01*
X20210Y132974D01*
X20731Y132073D01*
X21467Y131337D01*
X22368Y130817D01*
X22894Y130676D01*
Y133500D01*
D02*
G37*
G36*
X204775Y136248D02*
X200247D01*
Y134313D01*
X194500D01*
X193998Y134213D01*
X193572Y133928D01*
X191112Y131468D01*
X190608D01*
X189885Y131169D01*
X189331Y130615D01*
X189032Y129892D01*
Y129108D01*
X189331Y128385D01*
X189885Y127831D01*
X190608Y127532D01*
X191392D01*
X192115Y127831D01*
X192669Y128385D01*
X192968Y129108D01*
Y129612D01*
X195044Y131687D01*
X200247D01*
Y129752D01*
X204775D01*
Y136248D01*
D02*
G37*
G36*
X118896Y128679D02*
X118839D01*
X118532Y128618D01*
X118272Y128444D01*
X118098Y128183D01*
X118037Y127876D01*
Y127819D01*
X118098Y127512D01*
X118272Y127251D01*
X118306Y127228D01*
X118329Y127194D01*
X118363Y127171D01*
X118386Y127137D01*
X118646Y126963D01*
X118730Y126437D01*
X118721Y126393D01*
Y126336D01*
X118782Y126029D01*
X118956Y125768D01*
X118990Y125745D01*
X119013Y125711D01*
X119047Y125688D01*
X119070Y125654D01*
X119207Y125563D01*
X119299Y125426D01*
X119333Y125403D01*
X119355Y125369D01*
X119390Y125346D01*
X119413Y125312D01*
X119673Y125138D01*
X119980Y125077D01*
X120037D01*
X120344Y125138D01*
X120605Y125312D01*
X120779Y125572D01*
X120840Y125880D01*
Y125937D01*
X120779Y126244D01*
X120605Y126504D01*
X120571Y126527D01*
X120548Y126561D01*
X120514Y126584D01*
X120491Y126618D01*
X120354Y126710D01*
X120263Y126847D01*
X120229Y126869D01*
X120206Y126904D01*
X120171Y126926D01*
X120149Y126961D01*
X119888Y127135D01*
X119805Y127661D01*
X119813Y127705D01*
Y127762D01*
X119752Y128069D01*
X119578Y128330D01*
X119544Y128352D01*
X119521Y128387D01*
X119487Y128410D01*
X119464Y128444D01*
X119204Y128618D01*
X118896Y128679D01*
D02*
G37*
G36*
X303000Y125964D02*
Y124093D01*
X304870D01*
Y125964D01*
X303000D01*
D02*
G37*
G36*
X53500Y126824D02*
X52974Y126683D01*
X52073Y126163D01*
X51337Y125427D01*
X50817Y124526D01*
X50676Y124000D01*
X53500D01*
Y126824D01*
D02*
G37*
G36*
X126084Y125941D02*
X126027D01*
X125719Y125880D01*
X125459Y125706D01*
X125285Y125445D01*
X125224Y125138D01*
Y125081D01*
X125285Y124774D01*
X125459Y124513D01*
X125493Y124490D01*
X125516Y124456D01*
X125550Y124433D01*
X125573Y124399D01*
X125710Y124308D01*
X125801Y124171D01*
X125836Y124148D01*
X125858Y124114D01*
X125893Y124091D01*
X125908Y124067D01*
Y124054D01*
X125970Y123747D01*
X126144Y123486D01*
X126178Y123464D01*
X126201Y123430D01*
X126235Y123407D01*
X126258Y123372D01*
X126518Y123198D01*
X126825Y123137D01*
X126882D01*
X127190Y123198D01*
X127450Y123372D01*
X127624Y123633D01*
X127685Y123940D01*
Y123997D01*
X127624Y124304D01*
X127450Y124565D01*
X127416Y124588D01*
X127393Y124622D01*
X127359Y124645D01*
X127343Y124669D01*
Y124682D01*
X127282Y124989D01*
X127108Y125249D01*
X127074Y125272D01*
X127051Y125306D01*
X127017Y125329D01*
X126994Y125363D01*
X126857Y125455D01*
X126766Y125592D01*
X126731Y125615D01*
X126708Y125649D01*
X126674Y125672D01*
X126652Y125706D01*
X126391Y125880D01*
X126084Y125941D01*
D02*
G37*
G36*
X304870Y122093D02*
X303000D01*
Y120223D01*
X304870D01*
Y122093D01*
D02*
G37*
G36*
X53500Y122000D02*
X50676D01*
X50817Y121474D01*
X51337Y120573D01*
X52073Y119837D01*
X52974Y119317D01*
X53500Y119176D01*
Y122000D01*
D02*
G37*
G36*
X126084Y120921D02*
X126027D01*
X125719Y120860D01*
X125459Y120686D01*
X125285Y120425D01*
X125224Y120118D01*
Y120061D01*
X125285Y119754D01*
X125459Y119493D01*
X125493Y119471D01*
X125516Y119437D01*
X125550Y119414D01*
X125573Y119379D01*
X125834Y119205D01*
X126141Y119144D01*
X126198D01*
X126505Y119205D01*
X126766Y119379D01*
X126940Y119640D01*
X127001Y119947D01*
Y120004D01*
X126940Y120311D01*
X126766Y120572D01*
X126731Y120595D01*
X126708Y120629D01*
X126674Y120652D01*
X126652Y120686D01*
X126391Y120860D01*
X126084Y120921D01*
D02*
G37*
G36*
X24894Y115124D02*
Y112300D01*
X27718D01*
X27577Y112826D01*
X27057Y113727D01*
X26321Y114463D01*
X25419Y114983D01*
X24894Y115124D01*
D02*
G37*
G36*
X22894D02*
X22368Y114983D01*
X21467Y114463D01*
X20731Y113727D01*
X20210Y112826D01*
X20069Y112300D01*
X22894D01*
Y115124D01*
D02*
G37*
G36*
X305453Y119435D02*
X300925D01*
Y112939D01*
X305453D01*
Y114874D01*
X310269D01*
X313072Y112072D01*
X313498Y111787D01*
X314000Y111687D01*
X319029D01*
X319385Y111331D01*
X320108Y111031D01*
X320892D01*
X321615Y111331D01*
X322169Y111885D01*
X322468Y112608D01*
Y113392D01*
X322169Y114115D01*
X321615Y114669D01*
X320892Y114969D01*
X320108D01*
X319385Y114669D01*
X319029Y114313D01*
X314544D01*
X311741Y117115D01*
X311315Y117400D01*
X310813Y117500D01*
X305453D01*
Y119435D01*
D02*
G37*
G36*
X36917Y122961D02*
X32587D01*
Y118039D01*
X33439D01*
Y115040D01*
X30154D01*
Y107560D01*
X37634D01*
Y115040D01*
X36065D01*
Y118039D01*
X36917D01*
Y122961D01*
D02*
G37*
G36*
X27718Y110300D02*
X24894D01*
Y107476D01*
X25419Y107617D01*
X26321Y108137D01*
X27057Y108873D01*
X27577Y109774D01*
X27718Y110300D01*
D02*
G37*
G36*
X22894D02*
X20069D01*
X20210Y109774D01*
X20731Y108873D01*
X21467Y108137D01*
X22368Y107617D01*
X22894Y107476D01*
Y110300D01*
D02*
G37*
G36*
X303000Y104570D02*
Y102700D01*
X304870D01*
Y104570D01*
X303000D01*
D02*
G37*
G36*
X264640Y110403D02*
X254798D01*
Y100561D01*
X264640D01*
Y110403D01*
D02*
G37*
G36*
X53500Y103324D02*
X52974Y103183D01*
X52073Y102663D01*
X51337Y101927D01*
X50817Y101026D01*
X50676Y100500D01*
X53500D01*
Y103324D01*
D02*
G37*
G36*
Y98500D02*
X50676D01*
X50817Y97974D01*
X51337Y97073D01*
X52073Y96337D01*
X52974Y95817D01*
X53500Y95676D01*
Y98500D01*
D02*
G37*
G36*
X24952Y91876D02*
Y89052D01*
X27776D01*
X27635Y89578D01*
X27115Y90479D01*
X26379Y91215D01*
X25478Y91735D01*
X24952Y91876D01*
D02*
G37*
G36*
X22952D02*
X22426Y91735D01*
X21525Y91215D01*
X20789Y90479D01*
X20269Y89578D01*
X20128Y89052D01*
X22952D01*
Y91876D01*
D02*
G37*
G36*
X36869Y99561D02*
X32539D01*
Y94639D01*
X33391D01*
Y91792D01*
X30212D01*
Y84312D01*
X37692D01*
Y91792D01*
X36017D01*
Y94639D01*
X36869D01*
Y99561D01*
D02*
G37*
G36*
X27776Y87052D02*
X24952D01*
Y84228D01*
X25478Y84369D01*
X26379Y84889D01*
X27115Y85625D01*
X27635Y86526D01*
X27776Y87052D01*
D02*
G37*
G36*
X22952D02*
X20128D01*
X20269Y86526D01*
X20789Y85625D01*
X21525Y84889D01*
X22426Y84369D01*
X22952Y84228D01*
Y87052D01*
D02*
G37*
G36*
X53500Y80324D02*
X52974Y80183D01*
X52073Y79663D01*
X51337Y78927D01*
X50817Y78026D01*
X50676Y77500D01*
X53500D01*
Y80324D01*
D02*
G37*
G36*
X446000Y74313D02*
X444500D01*
X444401Y74293D01*
X430165D01*
X430038Y74268D01*
X422594D01*
Y73509D01*
X405284D01*
X404928Y73865D01*
X404205Y74165D01*
X403421D01*
X402698Y73865D01*
X402144Y73311D01*
X401845Y72588D01*
Y71805D01*
X402144Y71081D01*
X402698Y70527D01*
X403421Y70228D01*
X404205D01*
X404928Y70527D01*
X405284Y70884D01*
X422594D01*
Y68362D01*
X434406D01*
Y71668D01*
X444480D01*
X444579Y71687D01*
X445456D01*
X446687Y70456D01*
Y69610D01*
X445342D01*
Y65083D01*
X450658D01*
Y69610D01*
X449313D01*
Y71000D01*
X449213Y71502D01*
X448928Y71928D01*
X446928Y73928D01*
X446502Y74213D01*
X446000Y74313D01*
D02*
G37*
G36*
X53500Y75500D02*
X50676D01*
X50817Y74974D01*
X51337Y74073D01*
X52073Y73337D01*
X52974Y72817D01*
X53500Y72676D01*
Y75500D01*
D02*
G37*
G36*
X247870Y73871D02*
X246000D01*
Y72001D01*
X247870D01*
Y73871D01*
D02*
G37*
G36*
X244000D02*
X242130D01*
Y72001D01*
X244000D01*
Y73871D01*
D02*
G37*
G36*
X175892Y79969D02*
X175108D01*
X174385Y79669D01*
X173831Y79115D01*
X173531Y78392D01*
Y77744D01*
X170144Y74356D01*
X169881Y73963D01*
X169789Y73500D01*
X169789Y73500D01*
Y70029D01*
X169327Y69837D01*
X167179Y71986D01*
X166786Y72248D01*
X166323Y72341D01*
X166323Y72341D01*
X157905D01*
Y74083D01*
X146095D01*
Y68177D01*
X157905D01*
Y69919D01*
X160343D01*
X160752Y69701D01*
Y65652D01*
X158578Y63478D01*
X153665D01*
X153539Y63453D01*
X146095D01*
Y57547D01*
X150347D01*
Y51779D01*
X149726Y51420D01*
X149139Y50834D01*
X148725Y50116D01*
X148510Y49315D01*
Y48485D01*
X148725Y47684D01*
X149139Y46966D01*
X149726Y46380D01*
X150444Y45965D01*
X151245Y45750D01*
X152075D01*
X152875Y45965D01*
X153594Y46380D01*
X154180Y46966D01*
X154595Y47684D01*
X154809Y48485D01*
Y49315D01*
X154595Y50116D01*
X154180Y50834D01*
X153594Y51420D01*
X152972Y51779D01*
Y57547D01*
X157905D01*
Y60853D01*
X159122D01*
X159624Y60953D01*
X160050Y61237D01*
X160252Y61439D01*
X160752Y61232D01*
Y57299D01*
X167248D01*
Y58890D01*
X168342D01*
Y57890D01*
X173658D01*
Y62417D01*
X168342D01*
Y61515D01*
X167248D01*
Y61827D01*
X161347D01*
X161140Y62327D01*
X163986Y65173D01*
X167248D01*
Y67839D01*
X167710Y68031D01*
X168342Y67398D01*
Y64583D01*
X173658D01*
Y69110D01*
X172211D01*
Y72998D01*
X175244Y76032D01*
X175892D01*
X176615Y76331D01*
X177169Y76885D01*
X177469Y77608D01*
Y78392D01*
X177169Y79115D01*
X176615Y79669D01*
X175892Y79969D01*
D02*
G37*
G36*
X272626Y67473D02*
X271248D01*
Y65800D01*
X272626D01*
Y67473D01*
D02*
G37*
G36*
X269248D02*
X267870D01*
Y65800D01*
X269248D01*
Y67473D01*
D02*
G37*
G36*
X346392Y80468D02*
X345608D01*
X344885Y80169D01*
X344331Y79615D01*
X344032Y78892D01*
Y78108D01*
X344331Y77385D01*
X344885Y76831D01*
X345608Y76531D01*
X346112D01*
X351963Y70681D01*
X352389Y70396D01*
X352891Y70296D01*
X353795D01*
Y68462D01*
X365605D01*
Y70102D01*
X368752D01*
Y66152D01*
X366363Y63763D01*
X361365D01*
X361239Y63738D01*
X353795D01*
Y57832D01*
X358221D01*
Y51779D01*
X357600Y51420D01*
X357014Y50834D01*
X356599Y50116D01*
X356384Y49315D01*
Y48485D01*
X356599Y47684D01*
X357014Y46966D01*
X357600Y46380D01*
X358318Y45965D01*
X359119Y45750D01*
X359948D01*
X360750Y45965D01*
X361468Y46380D01*
X362054Y46966D01*
X362469Y47684D01*
X362684Y48485D01*
Y49315D01*
X362469Y50116D01*
X362054Y50834D01*
X361468Y51420D01*
X360846Y51779D01*
Y57832D01*
X365605D01*
Y61138D01*
X366907D01*
X367409Y61238D01*
X367835Y61522D01*
X368252Y61939D01*
X368752Y61732D01*
Y57799D01*
X375248D01*
Y59467D01*
X376343D01*
Y58543D01*
X381658D01*
Y63071D01*
X376343D01*
Y62092D01*
X375248D01*
Y62327D01*
X369347D01*
X369140Y62827D01*
X371986Y65673D01*
X375248D01*
Y68349D01*
X375710Y68540D01*
X376343Y67908D01*
Y65236D01*
X381658D01*
Y69764D01*
X378199D01*
X375620Y72343D01*
X375194Y72628D01*
X374691Y72728D01*
X365605D01*
Y74368D01*
X353795D01*
Y73260D01*
X353294Y73062D01*
X347969Y78388D01*
Y78892D01*
X347669Y79615D01*
X347115Y80169D01*
X346392Y80468D01*
D02*
G37*
G36*
X486406Y74268D02*
X474594D01*
Y72628D01*
X473415D01*
X472913Y72528D01*
X472487Y72243D01*
X468572Y68328D01*
X468287Y67902D01*
X468187Y67400D01*
Y51844D01*
X449156Y32813D01*
X351544D01*
X340013Y44344D01*
Y57929D01*
X340369Y58285D01*
X340669Y59008D01*
Y59792D01*
X340369Y60515D01*
X339815Y61069D01*
X339092Y61369D01*
X338308D01*
X337585Y61069D01*
X337031Y60515D01*
X336732Y59792D01*
Y59008D01*
X337031Y58285D01*
X337387Y57929D01*
Y43800D01*
X337487Y43298D01*
X337772Y42872D01*
X350072Y30572D01*
X350498Y30287D01*
X351000Y30187D01*
X449700D01*
X450202Y30287D01*
X450628Y30572D01*
X470428Y50372D01*
X470713Y50798D01*
X470813Y51300D01*
Y66856D01*
X473959Y70002D01*
X474594D01*
Y68362D01*
X486406D01*
Y71187D01*
X497956D01*
X498687Y70456D01*
Y69610D01*
X497342D01*
Y65083D01*
X502658D01*
Y69610D01*
X501313D01*
Y71000D01*
X501213Y71502D01*
X500928Y71928D01*
X499428Y73428D01*
X499002Y73713D01*
X498500Y73813D01*
X486406D01*
Y74268D01*
D02*
G37*
G36*
X496248Y70201D02*
X489752D01*
Y66152D01*
X487263Y63663D01*
X482165D01*
X482038Y63638D01*
X481962D01*
X481358Y63888D01*
X480500Y64001D01*
X479642Y63888D01*
X479038Y63638D01*
X474594D01*
Y57732D01*
X477331D01*
Y50127D01*
X452720Y25516D01*
X348441D01*
X342669Y31288D01*
Y31792D01*
X342369Y32515D01*
X341815Y33069D01*
X341092Y33369D01*
X340308D01*
X339585Y33069D01*
X339031Y32515D01*
X338732Y31792D01*
Y31008D01*
X339031Y30285D01*
X339585Y29731D01*
X340308Y29432D01*
X340812D01*
X344266Y25978D01*
X344075Y25516D01*
X289786D01*
X278961Y36342D01*
Y37669D01*
X277339D01*
X276500Y37836D01*
X275661Y37669D01*
X274039D01*
Y33339D01*
X275367D01*
X282728Y25978D01*
X282537Y25516D01*
X202425D01*
X196845Y31097D01*
X196158Y31624D01*
X195902Y31729D01*
Y32271D01*
X196158Y32377D01*
X196845Y32903D01*
X197371Y33590D01*
X197703Y34390D01*
X197816Y35248D01*
Y42347D01*
X201902D01*
Y63055D01*
X187098D01*
Y42347D01*
X191184D01*
Y37835D01*
X185153D01*
X184163Y37638D01*
X183324Y37077D01*
X182404Y36158D01*
X180782Y36158D01*
X180370Y36370D01*
X180336Y36370D01*
X178500D01*
Y33500D01*
Y30630D01*
X180336D01*
X180370Y30630D01*
X180782Y30843D01*
X180870Y30843D01*
X186063D01*
Y32499D01*
X186225Y32661D01*
X192471D01*
X192842Y32377D01*
X193098Y32271D01*
Y31729D01*
X192842Y31624D01*
X192155Y31097D01*
X191629Y30410D01*
X191297Y29610D01*
X191184Y28752D01*
X191297Y27894D01*
X191629Y27094D01*
X192155Y26407D01*
X198707Y19855D01*
X199394Y19329D01*
X200194Y18997D01*
X201052Y18884D01*
X454094D01*
X454952Y18997D01*
X455752Y19329D01*
X456438Y19855D01*
X483138Y46555D01*
X483665Y47242D01*
X483996Y48042D01*
X484109Y48900D01*
X483996Y49758D01*
X483963Y49840D01*
Y57732D01*
X486406D01*
Y61038D01*
X487807D01*
X488309Y61138D01*
X488735Y61422D01*
X489252Y61939D01*
X489752Y61732D01*
Y57799D01*
X496248D01*
Y59390D01*
X497342D01*
Y58390D01*
X502658D01*
Y62917D01*
X497342D01*
Y62015D01*
X496248D01*
Y62327D01*
X490347D01*
X490140Y62827D01*
X492986Y65673D01*
X496248D01*
Y70201D01*
D02*
G37*
G36*
X272626Y63800D02*
X271248D01*
Y62127D01*
X272626D01*
Y63800D01*
D02*
G37*
G36*
X85087Y74041D02*
X84960Y74016D01*
X76528D01*
Y68110D01*
X88339D01*
Y69750D01*
X91206D01*
X91685Y69701D01*
Y65173D01*
X94947D01*
X97793Y62327D01*
X97586Y61827D01*
X91685D01*
Y61565D01*
X88339D01*
Y63386D01*
X76528D01*
Y57480D01*
X81056D01*
Y51779D01*
X80435Y51420D01*
X79848Y50834D01*
X79434Y50116D01*
X79219Y49315D01*
Y48485D01*
X79434Y47684D01*
X79848Y46966D01*
X80435Y46380D01*
X81153Y45965D01*
X81954Y45750D01*
X82783D01*
X83584Y45965D01*
X84302Y46380D01*
X84889Y46966D01*
X85303Y47684D01*
X85518Y48485D01*
Y49315D01*
X85303Y50116D01*
X84889Y50834D01*
X84302Y51420D01*
X83681Y51779D01*
Y57480D01*
X88339D01*
Y58939D01*
X91685D01*
Y57299D01*
X98181D01*
Y61232D01*
X98681Y61439D01*
X99182Y60938D01*
Y57984D01*
X104497D01*
Y62512D01*
X101321D01*
X99655Y64177D01*
X99863Y64677D01*
X104497D01*
Y65628D01*
X108441D01*
X108943Y65728D01*
X109369Y66013D01*
X111388Y68032D01*
X111892D01*
X112615Y68331D01*
X113169Y68885D01*
X113469Y69608D01*
Y70392D01*
X113169Y71115D01*
X112615Y71669D01*
X111892Y71969D01*
X111108D01*
X110385Y71669D01*
X109831Y71115D01*
X109531Y70392D01*
Y69888D01*
X107897Y68254D01*
X104497D01*
Y69205D01*
X101038D01*
X98252Y71991D01*
X97826Y72276D01*
X97324Y72376D01*
X88339D01*
Y74016D01*
X85213D01*
X85087Y74041D01*
D02*
G37*
G36*
X444248Y70201D02*
X437752D01*
Y66152D01*
X435263Y63663D01*
X430165D01*
X430038Y63638D01*
X422594D01*
Y57732D01*
X427513D01*
Y51779D01*
X426891Y51420D01*
X426305Y50834D01*
X425890Y50116D01*
X425676Y49315D01*
Y48485D01*
X425890Y47684D01*
X426305Y46966D01*
X426891Y46380D01*
X427609Y45965D01*
X428410Y45750D01*
X429240D01*
X430041Y45965D01*
X430759Y46380D01*
X431346Y46966D01*
X431760Y47684D01*
X431975Y48485D01*
Y49315D01*
X431760Y50116D01*
X431346Y50834D01*
X430759Y51420D01*
X430138Y51779D01*
Y57732D01*
X434406D01*
Y61038D01*
X435807D01*
X436309Y61138D01*
X436735Y61422D01*
X437252Y61939D01*
X437752Y61732D01*
Y57799D01*
X444248D01*
Y59390D01*
X445342D01*
Y58390D01*
X450658D01*
Y62917D01*
X445342D01*
Y62015D01*
X444248D01*
Y62327D01*
X438347D01*
X438140Y62827D01*
X440986Y65673D01*
X444248D01*
Y70201D01*
D02*
G37*
G36*
X252130Y52787D02*
X250654D01*
Y50917D01*
X252130D01*
Y52787D01*
D02*
G37*
G36*
Y48917D02*
X250654D01*
Y47047D01*
X252130D01*
Y48917D01*
D02*
G37*
G36*
X141392Y80968D02*
X140608D01*
X139885Y80669D01*
X139331Y80115D01*
X139032Y79392D01*
Y78888D01*
X101956Y41813D01*
X50044D01*
X42028Y49828D01*
X41602Y50113D01*
X41100Y50213D01*
X33279D01*
X32920Y50834D01*
X32334Y51420D01*
X31616Y51835D01*
X30815Y52050D01*
X29985D01*
X29184Y51835D01*
X28466Y51420D01*
X27880Y50834D01*
X27465Y50116D01*
X27250Y49315D01*
Y48485D01*
X27465Y47684D01*
X27880Y46966D01*
X28466Y46380D01*
X29184Y45965D01*
X29985Y45750D01*
X30815D01*
X31616Y45965D01*
X32334Y46380D01*
X32920Y46966D01*
X33279Y47587D01*
X40556D01*
X48572Y39572D01*
X48998Y39287D01*
X49500Y39187D01*
X102500D01*
X103002Y39287D01*
X103428Y39572D01*
X140888Y77031D01*
X141392D01*
X142115Y77331D01*
X142669Y77885D01*
X142968Y78608D01*
Y79392D01*
X142669Y80115D01*
X142115Y80669D01*
X141392Y80968D01*
D02*
G37*
G36*
X276400Y60232D02*
X275507Y60055D01*
X274751Y59549D01*
X274245Y58793D01*
X274068Y57900D01*
X274168Y57397D01*
Y44165D01*
X274039D01*
Y39835D01*
X275661D01*
X276500Y39668D01*
X277339Y39835D01*
X278961D01*
Y44165D01*
X278832D01*
Y57800D01*
X278655Y58693D01*
X278149Y59449D01*
X278049Y59549D01*
X277292Y60055D01*
X276400Y60232D01*
D02*
G37*
G36*
X245953Y37953D02*
X243000D01*
Y35000D01*
X245953D01*
Y37953D01*
D02*
G37*
G36*
X241000D02*
X238047D01*
Y35000D01*
X241000D01*
Y37953D01*
D02*
G37*
G36*
X176500Y36370D02*
X174630D01*
Y34500D01*
X176500D01*
Y36370D01*
D02*
G37*
G36*
Y32500D02*
X174630D01*
Y30630D01*
X176500D01*
Y32500D01*
D02*
G37*
G36*
X252492Y37740D02*
X251508D01*
X250556Y37485D01*
X249704Y36993D01*
X249007Y36296D01*
X248515Y35444D01*
X248260Y34492D01*
Y33508D01*
X248515Y32556D01*
X249007Y31703D01*
X249704Y31007D01*
X250556Y30515D01*
X251508Y30260D01*
X252492D01*
X253444Y30515D01*
X254296Y31007D01*
X254993Y31703D01*
X255485Y32556D01*
X255740Y33508D01*
Y34492D01*
X255485Y35444D01*
X254993Y36296D01*
X254296Y36993D01*
X253444Y37485D01*
X252492Y37740D01*
D02*
G37*
G36*
X245953Y33000D02*
X243000D01*
Y30047D01*
X245953D01*
Y33000D01*
D02*
G37*
G36*
X241000D02*
X238047D01*
Y30047D01*
X241000D01*
Y33000D01*
D02*
G37*
G36*
X481758Y26207D02*
X479830D01*
X477939Y25831D01*
X476158Y25093D01*
X474555Y24022D01*
X473191Y22659D01*
X472120Y21056D01*
X471382Y19275D01*
X471006Y17384D01*
Y15456D01*
X471382Y13565D01*
X472120Y11784D01*
X473191Y10181D01*
X474555Y8817D01*
X476158Y7746D01*
X477939Y7008D01*
X479830Y6632D01*
X481758D01*
X483649Y7008D01*
X485430Y7746D01*
X487033Y8817D01*
X488396Y10181D01*
X489467Y11784D01*
X490205Y13565D01*
X490581Y15456D01*
Y17384D01*
X490205Y19275D01*
X489467Y21056D01*
X488396Y22659D01*
X487033Y24022D01*
X485430Y25093D01*
X483649Y25831D01*
X481758Y26207D01*
D02*
G37*
G36*
X31364D02*
X29436D01*
X27545Y25831D01*
X25764Y25093D01*
X24161Y24022D01*
X22798Y22659D01*
X21726Y21056D01*
X20989Y19275D01*
X20613Y17384D01*
Y15456D01*
X20989Y13565D01*
X21726Y11784D01*
X22798Y10181D01*
X24161Y8817D01*
X25764Y7746D01*
X27545Y7008D01*
X29436Y6632D01*
X31364D01*
X33255Y7008D01*
X35036Y7746D01*
X36639Y8817D01*
X38002Y10181D01*
X39074Y11784D01*
X39811Y13565D01*
X40187Y15456D01*
Y17384D01*
X39811Y19275D01*
X39074Y21056D01*
X38002Y22659D01*
X36639Y24022D01*
X35036Y25093D01*
X33255Y25831D01*
X31364Y26207D01*
D02*
G37*
%LPD*%
G36*
X293057Y129752D02*
X293614D01*
X293664Y129252D01*
X293466Y129213D01*
X293040Y128928D01*
X289623Y125511D01*
X280079D01*
Y127545D01*
X280054D01*
X279863Y128007D01*
X283544Y131687D01*
X293057D01*
Y129752D01*
D02*
G37*
G36*
X288687Y106269D02*
Y101000D01*
X288787Y100498D01*
X289072Y100072D01*
X292572Y96572D01*
X292992Y96291D01*
X292998Y96287D01*
X293000Y96287D01*
X293437Y96157D01*
Y94711D01*
X290501D01*
X285748Y99464D01*
X285355Y99726D01*
X284892Y99818D01*
X284892Y99818D01*
X280079D01*
Y103135D01*
Y107072D01*
Y111009D01*
Y114224D01*
X280541Y114416D01*
X288687Y106269D01*
D02*
G37*
G36*
X121634Y141851D02*
X121692D01*
Y141794D01*
X121749D01*
Y141737D01*
X121692D01*
Y141794D01*
X121634D01*
Y141851D01*
X121577D01*
Y141909D01*
X121634D01*
Y141851D01*
D02*
G37*
G36*
X119581Y141167D02*
X119638D01*
Y141110D01*
X119695D01*
Y141053D01*
X119638D01*
Y141110D01*
X119581D01*
Y141167D01*
X119524D01*
Y141224D01*
X119581D01*
Y141167D01*
D02*
G37*
G36*
X133613Y140482D02*
X133670D01*
Y140425D01*
X133728D01*
Y140368D01*
X133670D01*
Y140425D01*
X133613D01*
Y140482D01*
X133556D01*
Y140540D01*
X133613D01*
Y140482D01*
D02*
G37*
G36*
X135325Y140026D02*
X135382D01*
Y139969D01*
X135439D01*
Y139912D01*
X135382D01*
Y139969D01*
X135325D01*
Y140026D01*
X135268D01*
Y140083D01*
X135325D01*
Y140026D01*
D02*
G37*
G36*
X135667Y138771D02*
X135724D01*
Y138714D01*
X135781D01*
Y138657D01*
X135724D01*
Y138714D01*
X135667D01*
Y138771D01*
X135610D01*
Y138828D01*
X135667D01*
Y138771D01*
D02*
G37*
G36*
X125970Y139342D02*
X126027D01*
Y139285D01*
X126084D01*
Y139227D01*
X126141D01*
Y139171D01*
X126198D01*
Y139113D01*
X126141D01*
Y139171D01*
X126084D01*
Y139227D01*
X126027D01*
Y139285D01*
X125970D01*
Y139342D01*
X125913D01*
Y139399D01*
X125970D01*
Y139342D01*
D02*
G37*
G36*
X127111Y137973D02*
X127168D01*
Y137916D01*
X127225D01*
Y137858D01*
X127168D01*
Y137916D01*
X127111D01*
Y137973D01*
X127053D01*
Y138030D01*
X127111D01*
Y137973D01*
D02*
G37*
G36*
X127453Y137288D02*
X127510D01*
Y137231D01*
X127453D01*
Y137288D01*
X127396D01*
Y137345D01*
X127453D01*
Y137288D01*
D02*
G37*
G36*
X130077D02*
X130134D01*
Y137231D01*
X130191D01*
Y137174D01*
X130134D01*
Y137231D01*
X130077D01*
Y137288D01*
X130020D01*
Y137345D01*
X130077D01*
Y137288D01*
D02*
G37*
G36*
X130761Y135463D02*
X130818D01*
Y135406D01*
X130875D01*
Y135349D01*
X130818D01*
Y135406D01*
X130761D01*
Y135463D01*
X130704D01*
Y135520D01*
X130761D01*
Y135463D01*
D02*
G37*
G36*
X133271Y134094D02*
X133328D01*
Y134037D01*
X133385D01*
Y133980D01*
X133328D01*
Y134037D01*
X133271D01*
Y134094D01*
X133214D01*
Y134151D01*
X133271D01*
Y134094D01*
D02*
G37*
G36*
X131446D02*
X131503D01*
Y134037D01*
X131560D01*
Y133980D01*
X131503D01*
Y134037D01*
X131446D01*
Y134094D01*
X131389D01*
Y134151D01*
X131446D01*
Y134094D01*
D02*
G37*
G36*
X133613Y133751D02*
X133670D01*
Y133694D01*
X133728D01*
Y133637D01*
X133670D01*
Y133694D01*
X133613D01*
Y133751D01*
X133556D01*
Y133809D01*
X133613D01*
Y133751D01*
D02*
G37*
G36*
X133956Y133409D02*
X134013D01*
Y133352D01*
X134070D01*
Y133295D01*
X134013D01*
Y133352D01*
X133956D01*
Y133409D01*
X133899D01*
Y133466D01*
X133956D01*
Y133409D01*
D02*
G37*
G36*
X126084Y132497D02*
X126141D01*
Y132439D01*
X126198D01*
Y132382D01*
X126141D01*
Y132439D01*
X126084D01*
Y132497D01*
X126027D01*
Y132554D01*
X126084D01*
Y132497D01*
D02*
G37*
G36*
X124601Y131356D02*
X124658D01*
Y131299D01*
X124715D01*
Y131242D01*
X124658D01*
Y131299D01*
X124601D01*
Y131356D01*
X124544D01*
Y131413D01*
X124601D01*
Y131356D01*
D02*
G37*
G36*
X124943Y131013D02*
X125000D01*
Y130956D01*
X125057D01*
Y130899D01*
X125000D01*
Y130956D01*
X124943D01*
Y131013D01*
X124886D01*
Y131070D01*
X124943D01*
Y131013D01*
D02*
G37*
G36*
X118896Y127819D02*
X118954D01*
Y127762D01*
X119010D01*
Y127705D01*
X118954D01*
Y127762D01*
X118896D01*
Y127819D01*
X118839D01*
Y127876D01*
X118896D01*
Y127819D01*
D02*
G37*
G36*
X119581Y126336D02*
X119638D01*
Y126279D01*
X119695D01*
Y126222D01*
X119638D01*
Y126279D01*
X119581D01*
Y126336D01*
X119524D01*
Y126393D01*
X119581D01*
Y126336D01*
D02*
G37*
G36*
X119923Y125994D02*
X119980D01*
Y125937D01*
X120037D01*
Y125880D01*
X119980D01*
Y125937D01*
X119923D01*
Y125994D01*
X119866D01*
Y126051D01*
X119923D01*
Y125994D01*
D02*
G37*
G36*
X126084Y125081D02*
X126141D01*
Y125024D01*
X126198D01*
Y124967D01*
X126141D01*
Y125024D01*
X126084D01*
Y125081D01*
X126027D01*
Y125138D01*
X126084D01*
Y125081D01*
D02*
G37*
G36*
X126426Y124739D02*
X126483D01*
Y124682D01*
X126540D01*
Y124625D01*
X126483D01*
Y124682D01*
X126426D01*
Y124739D01*
X126369D01*
Y124796D01*
X126426D01*
Y124739D01*
D02*
G37*
G36*
X126768Y124054D02*
X126825D01*
Y123997D01*
X126882D01*
Y123940D01*
X126825D01*
Y123997D01*
X126768D01*
Y124054D01*
X126711D01*
Y124111D01*
X126768D01*
Y124054D01*
D02*
G37*
G36*
X126084Y120061D02*
X126141D01*
Y120004D01*
X126198D01*
Y119947D01*
X126141D01*
Y120004D01*
X126084D01*
Y120061D01*
X126027D01*
Y120118D01*
X126084D01*
Y120061D01*
D02*
G37*
%LPC*%
G36*
X252798Y157276D02*
X250928D01*
Y155405D01*
X252798D01*
Y157276D01*
D02*
G37*
G36*
X248928D02*
X247058D01*
Y155405D01*
X248928D01*
Y157276D01*
D02*
G37*
%LPD*%
D14*
X149000Y139000D02*
X166000D01*
X148000Y136500D02*
X164500D01*
X303189Y108607D02*
X327607D01*
X445687Y162500D02*
X450000D01*
X256750Y75250D02*
Y88813D01*
X213487Y148409D02*
X220303D01*
X220951Y60636D02*
X221000Y60685D01*
X85500Y149500D02*
X135000D01*
X469869Y131897D02*
X473493Y135521D01*
X255036Y62918D02*
Y63295D01*
X286000Y158500D02*
X287500Y160000D01*
X359534Y60619D02*
X359700Y60785D01*
X271869Y72000D02*
X272369Y71500D01*
X98000Y165000D02*
Y168154D01*
X447606Y67347D02*
X448000D01*
X250000Y148428D02*
X250018Y148409D01*
X246373Y168252D02*
X251082Y172961D01*
X249205Y64173D02*
X249500D01*
X35936Y168252D02*
X39109D01*
X462878Y175437D02*
X463471Y174844D01*
X483979Y100479D02*
X488000Y104500D01*
X296094Y93500D02*
X301622Y87972D01*
X446000Y73000D02*
X448000Y71000D01*
X440705Y67248D02*
X441000D01*
X324888Y175227D02*
X325000Y175115D01*
X82433Y71063D02*
X83421D01*
X254782Y133994D02*
Y140282D01*
X263900Y145900D02*
X265493D01*
X445464Y173493D02*
X450705Y168252D01*
X167049Y175197D02*
X173887D01*
X456257Y133697D02*
X469124D01*
X240106Y60654D02*
X240500D01*
X211000Y66000D02*
Y72000D01*
X374691Y71415D02*
X378606Y67500D01*
X427024Y71315D02*
X428500D01*
X293093Y123093D02*
X296094D01*
X164049Y60203D02*
X170951D01*
X236500Y162500D02*
X239000Y160000D01*
X487807Y62350D02*
X492705Y67248D01*
X250018Y148409D02*
X256834D01*
X389882Y173150D02*
X391547Y174815D01*
X359500Y158500D02*
X413000D01*
X444094Y164093D02*
X445687Y162500D01*
X256750Y75250D02*
X263500Y68500D01*
X220303Y148409D02*
X220393Y148500D01*
X82368Y60369D02*
X82433Y60433D01*
X86500Y152000D02*
X136000D01*
X456257Y131897D02*
X469869D01*
X249795Y57677D02*
X255036Y62918D01*
X102500Y40500D02*
X141000Y79000D01*
X268561Y133994D02*
X272068Y137500D01*
X246908Y133994D02*
Y139408D01*
X359534Y48900D02*
Y60619D01*
X99500Y163500D02*
X116379D01*
X499606Y67347D02*
X500000D01*
X285798Y148409D02*
X292910D01*
X243200Y168252D02*
X246373D01*
X338700Y43800D02*
Y59400D01*
X246000Y47000D02*
Y60969D01*
X242971Y82805D02*
X245000Y80776D01*
X45047Y174815D02*
X48000D01*
X455780Y103698D02*
X470888D01*
X301622Y87471D02*
Y87972D01*
X448000Y67740D02*
Y71000D01*
X39109Y168252D02*
X43382Y172525D01*
X221261Y120261D02*
X231207D01*
X287600Y85800D02*
X288393Y86594D01*
X435807Y62350D02*
X440705Y67248D01*
X306000Y175146D02*
X306394D01*
X47723Y175092D02*
X48000Y174815D01*
X279000Y141500D02*
X284920Y147420D01*
X260501Y142500D02*
X263900Y145900D01*
X469500Y67400D02*
X473415Y71315D01*
X30400Y48900D02*
X41100D01*
X104951Y174797D02*
X105000Y174748D01*
X455672Y134283D02*
X456257Y133697D01*
X233795Y67248D02*
X239130Y61913D01*
X228315Y71315D02*
X232000Y75000D01*
X378606Y67500D02*
X379000D01*
X295231Y122230D02*
X296004Y123003D01*
X290243Y48900D02*
Y60443D01*
X198500Y162500D02*
X236500D01*
X116514Y175365D02*
X117064Y174815D01*
X324888Y175227D02*
Y186695D01*
X351000Y31500D02*
X449700D01*
X340000Y139000D02*
X359500Y158500D01*
X450000Y162500D02*
X450020Y162520D01*
X263500Y65000D02*
Y68500D01*
X29394Y168154D02*
X33362Y164185D01*
X82368Y48900D02*
Y60369D01*
X136000Y152000D02*
X149000Y139000D01*
X473493Y135521D02*
X483979D01*
X256210Y64173D02*
Y68245D01*
X34752Y112158D02*
Y120500D01*
X49500Y40500D02*
X102500D01*
X272068Y137500D02*
X283500D01*
X252813Y133994D02*
Y141313D01*
X47723Y175092D02*
X47723Y175092D01*
X359700Y60785D02*
X361365Y62450D01*
X116379Y163500D02*
X117064Y164185D01*
X284920Y147420D02*
Y147531D01*
X252851Y174918D02*
X255597D01*
X210385Y133000D02*
X211161Y132224D01*
X246000Y47000D02*
X249000Y44000D01*
X242971Y82805D02*
Y88813D01*
X453194Y107798D02*
X455194Y105798D01*
X301622Y87471D02*
X302500Y86594D01*
X447606Y67347D02*
X448000Y67740D01*
X94933Y66748D02*
X95228D01*
X209849Y118999D02*
X219999D01*
X288393Y86594D02*
X296004D01*
X430165Y62350D02*
X435807D01*
X312705Y168804D02*
X313000D01*
X82433Y60433D02*
X82500Y60500D01*
X265500Y141500D02*
X279000D01*
X265493Y145900D02*
X268093Y148500D01*
X469500Y51300D02*
Y67400D01*
X246908Y139408D02*
X250000Y142500D01*
X98000Y174846D02*
X98049Y174797D01*
X455672Y134283D02*
Y135798D01*
X250673Y65051D02*
Y65346D01*
X233451Y67297D02*
X233500Y67248D01*
X211000Y72000D02*
X215000Y76000D01*
X306000Y168454D02*
X306394D01*
X296004Y123003D02*
X296094Y123093D01*
X290000Y60685D02*
X290243Y60443D01*
X199353Y164500D02*
X237328D01*
X151594Y154905D02*
X213487D01*
X322047Y175115D02*
X325000D01*
X338700Y43800D02*
X351000Y31500D01*
X327607Y108607D02*
X340000Y121000D01*
X450020Y162520D02*
X461835D01*
X269370Y59173D02*
X270000Y58543D01*
X29000Y168154D02*
X29394D01*
X151660Y48900D02*
Y60160D01*
X179406Y125593D02*
X202521D01*
X483979Y135521D02*
X488000Y131500D01*
X260000Y62047D02*
Y67000D01*
X33894Y111300D02*
X34752Y112158D01*
X41100Y48900D02*
X49500Y40500D01*
X367154Y168154D02*
X375593D01*
X178000Y111000D02*
X202062D01*
X65748Y67200D02*
Y67495D01*
X366907Y62450D02*
X371705Y67248D01*
X138815Y164185D02*
X150500Y152500D01*
X167000Y165000D02*
X168500Y163500D01*
X499951Y60703D02*
X500000Y60654D01*
X284920Y147531D02*
X285798Y148409D01*
X251082Y173150D02*
X252851Y174918D01*
X222802Y124198D02*
X231207D01*
X249000Y44000D02*
X257000D01*
X455194Y99797D02*
Y101312D01*
X302500Y86594D02*
Y86889D01*
X219999Y118999D02*
X221261Y120261D01*
X276388Y118293D02*
X282207D01*
X295911Y86500D02*
X296004Y86594D01*
X447951Y60703D02*
X448000Y60654D01*
X306394Y175146D02*
X307370Y174170D01*
X100470Y61071D02*
Y61507D01*
X394180Y175136D02*
X394500Y174815D01*
X262656Y138656D02*
X265500Y141500D01*
X314000Y113000D02*
X320500D01*
X268184Y148409D02*
X275094D01*
X276500Y35504D02*
X276795D01*
X238693Y143807D02*
Y148500D01*
X98049Y174797D02*
X104951D01*
X452742Y137797D02*
X453672D01*
X249795Y64173D02*
X250673Y65051D01*
X233500Y67248D02*
X233795D01*
X306394Y168454D02*
X310362Y164485D01*
X296004Y116187D02*
Y123003D01*
X290000Y60685D02*
X296189D01*
X237328Y164500D02*
X239828Y162000D01*
X117064Y174815D02*
X131685D01*
X320382Y173450D02*
X322047Y175115D01*
X449700Y31500D02*
X469500Y51300D01*
X340000Y121000D02*
Y139000D01*
X461835Y162520D02*
X463500Y164185D01*
X269083Y59173D02*
X269370D01*
X33362Y164185D02*
X48000D01*
X151660Y60160D02*
X152000Y60500D01*
X166000Y139000D02*
X179406Y125593D01*
X452742Y97798D02*
X453194D01*
X252813Y71641D02*
X256210Y68245D01*
X34752Y135358D02*
Y144000D01*
X249082Y161398D02*
X249980Y160500D01*
X366000Y167000D02*
X367154Y168154D01*
X164500Y136500D02*
X185400Y115600D01*
X33894Y134500D02*
X34842Y133552D01*
X249980Y160500D02*
X256000D01*
X371705Y67248D02*
X372000D01*
X117064Y164185D02*
X138815D01*
X167000Y165000D02*
Y168553D01*
X493000Y60752D02*
X493049Y60703D01*
X170951Y60203D02*
X171000Y60154D01*
X186000Y174900D02*
X186305Y175206D01*
X214776Y132224D02*
X222802Y124198D01*
X257000Y44000D02*
X262000Y39000D01*
X453194Y97798D02*
X455194Y99797D01*
X282207Y118293D02*
X291894Y108607D01*
X95228Y66748D02*
X100470Y61507D01*
X222090Y118261D02*
X222293D01*
X305138Y71315D02*
X309106Y67347D01*
X441000Y60752D02*
X441049Y60703D01*
X307370Y174139D02*
Y174170D01*
X394180Y175136D02*
Y186695D01*
X377000Y163000D02*
X393315D01*
X283000Y133000D02*
X295321D01*
X473415Y71315D02*
X480500D01*
X237118Y149870D02*
X237323D01*
X112446Y172525D02*
Y173150D01*
X453672Y137797D02*
X455672Y135798D01*
X249500Y64173D02*
X249795D01*
X239130Y61630D02*
Y61913D01*
X310362Y164485D02*
X325000D01*
X191000Y129500D02*
X194500Y133000D01*
X302205Y66996D02*
X302500D01*
X188953Y174900D02*
X199353Y164500D01*
X114161Y174865D02*
X116514D01*
X306000Y175146D02*
X306077Y175223D01*
X280489Y116324D02*
X290000Y106813D01*
X500000Y67347D02*
Y71000D01*
X263752Y64505D02*
X269083Y59173D01*
X101446Y66941D02*
X101840D01*
X82433Y60433D02*
X85386D01*
X455194Y101312D02*
X455780Y101898D01*
X254782Y72218D02*
X260000Y67000D01*
X33894Y134500D02*
X34752Y135358D01*
X434654Y168154D02*
X444094D01*
X202062Y111000D02*
X202662Y111600D01*
X257000Y155367D02*
Y159500D01*
X361365Y62450D02*
X366907D01*
X225000Y76000D02*
X229776Y80776D01*
X168500Y163500D02*
X185230D01*
X276388Y116324D02*
X280489D01*
X493049Y60703D02*
X499951D01*
X163705Y66748D02*
X164000D01*
X186305Y175206D02*
Y186695D01*
X211161Y132224D02*
X214776D01*
X262000Y34000D02*
Y39000D01*
X255700Y164185D02*
X258653D01*
X455780Y101898D02*
X470142D01*
X100470Y61071D02*
X101446Y60094D01*
X272369Y71500D02*
X289815D01*
X222293Y118293D02*
X231207D01*
X441049Y60703D02*
X447951D01*
X307370Y174139D02*
X312705Y168804D01*
X382451Y174797D02*
X382500Y174748D01*
X393315Y163000D02*
X394500Y164185D01*
X276500Y126500D02*
X283000Y133000D01*
X359700Y71415D02*
X374691D01*
X237323Y149870D02*
X238693Y148500D01*
X105000Y168252D02*
X108173D01*
X48000Y164185D02*
X70815D01*
X483979Y137321D02*
X488000Y141342D01*
X250845Y65518D02*
Y88813D01*
X221067Y60752D02*
X233500D01*
X262656Y133994D02*
Y138656D01*
X301327Y66118D02*
X302205Y66996D01*
X256539Y154905D02*
X257000Y155367D01*
X117014Y175365D02*
Y186695D01*
X313000Y168804D02*
X313077Y168881D01*
X290000Y101000D02*
Y106813D01*
X498500Y72500D02*
X500000Y71000D01*
X263752Y64505D02*
Y64800D01*
X97324Y71063D02*
X101446Y66941D01*
X94931Y66750D02*
X94933Y66748D01*
X474106Y100479D02*
X483979D01*
X254782Y72218D02*
Y88813D01*
X34704Y88804D02*
Y97100D01*
X431500Y165000D02*
X434654Y168154D01*
X185400Y115600D02*
X219428D01*
X194500Y133000D02*
X202511D01*
X256000Y160500D02*
X257000Y159500D01*
X372028Y60780D02*
X378972D01*
X229776Y80776D02*
X237897D01*
X185230Y163500D02*
X186000Y164270D01*
X291894Y108607D02*
X296004D01*
X450705Y168252D02*
X451000D01*
X152000Y60500D02*
X153665Y62165D01*
X173936Y168652D02*
X174231D01*
X252813Y71641D02*
Y88813D01*
X239045Y165660D02*
X240520Y164185D01*
X483979Y98679D02*
X488000Y94657D01*
X101446Y60094D02*
X101840D01*
X289815Y71500D02*
X290000Y71315D01*
X286000Y154999D02*
X286093Y154905D01*
X375643Y174797D02*
X382451D01*
X375593Y164407D02*
X377000Y163000D01*
X296009Y133000D02*
Y139909D01*
X256210Y57677D02*
X256347Y57540D01*
X232082Y154905D02*
X237118Y149870D01*
X112446Y173150D02*
X114161Y174865D01*
X70815Y164185D02*
X85500Y149500D01*
X455672Y131312D02*
X456257Y131897D01*
X236138Y71315D02*
X240106Y67347D01*
X209606Y140000D02*
X209696Y139909D01*
X301327Y65823D02*
Y66118D01*
X256539Y154905D02*
X256834D01*
X131685Y174815D02*
X151594Y154905D01*
X255597Y174918D02*
Y186695D01*
X293500Y97500D02*
X310400D01*
X481685Y72500D02*
X498500D01*
X270000Y58000D02*
Y58543D01*
X83421Y71063D02*
X97324D01*
X35887Y174797D02*
X35936Y174748D01*
X470888Y103698D02*
X474106Y100479D01*
X250673Y65346D02*
X250845Y65518D01*
X33952Y88052D02*
X34704Y88804D01*
X302500Y116187D02*
X310813D01*
X202405Y133500D02*
X203200Y132705D01*
X258653Y164185D02*
X262500Y160338D01*
X372000Y60752D02*
X372028Y60780D01*
X215000Y76000D02*
X225000D01*
X236200Y168154D02*
X236594D01*
X444094Y174846D02*
X444487D01*
X184335Y173235D02*
X186000Y174900D01*
X232000Y74906D02*
Y75000D01*
X237897Y80776D02*
X241002Y83882D01*
X236594Y168154D02*
X239045Y165702D01*
X473361Y98679D02*
X483979D01*
X290198Y124230D02*
X293969Y128000D01*
X82433Y60433D02*
X82802Y60065D01*
X219428Y115600D02*
X222090Y118261D01*
X290000Y71315D02*
X305138D01*
X255700Y174815D02*
X265685D01*
X375593Y174846D02*
X375643Y174797D01*
X221500Y144000D02*
X231000Y134500D01*
X441195Y186695D02*
X463471D01*
X303194Y133000D02*
X312500D01*
X250845Y88813D02*
Y97755D01*
X231787Y154905D02*
X232082D01*
X108173Y168252D02*
X112446Y172525D01*
X48000Y174815D02*
X63685D01*
X469124Y133697D02*
X472748Y137321D01*
X228315Y71315D02*
X236138D01*
X203258Y111507D02*
X203351Y111600D01*
X286093Y154905D02*
X286500Y155312D01*
X296189Y60685D02*
X301327Y65823D01*
X242000Y160000D02*
X244939Y157061D01*
X220393Y148500D02*
X235394Y133500D01*
X236249Y174797D02*
X243151D01*
X290000Y101000D02*
X293500Y97500D01*
X480500Y71315D02*
X481685Y72500D01*
X256146Y57000D02*
X256347Y56799D01*
X101840Y66941D02*
X108441D01*
X29000Y174846D02*
X29049Y174797D01*
X234085Y96549D02*
X237549D01*
X455194Y104283D02*
X455780Y103698D01*
X310813Y116187D02*
X314000Y113000D01*
X209696Y133000D02*
Y139909D01*
X248500Y162000D02*
X249082Y161418D01*
X378972Y60780D02*
X379000Y60807D01*
X150500Y152500D02*
X194500D01*
X252813Y141313D02*
X256000Y144500D01*
X309106Y67347D02*
X309500D01*
X444487Y174846D02*
X445464Y173870D01*
X174231Y168652D02*
X178814Y173235D01*
X221000Y60685D02*
X221067Y60752D01*
X241002Y83882D02*
Y88813D01*
X239045Y165660D02*
Y165702D01*
X352891Y71609D02*
X359506D01*
X293969Y128000D02*
X306500D01*
X85386Y60252D02*
X95228D01*
X240520Y164185D02*
X255700D01*
X275094Y154905D02*
Y165407D01*
X382500Y168252D02*
X385673D01*
X231000Y127000D02*
Y134500D01*
X413000Y158500D02*
X441195Y186695D01*
X312500Y133000D02*
X366195Y186695D01*
X340700Y31400D02*
X348300Y23800D01*
X242971Y133994D02*
Y139529D01*
X116997Y174748D02*
X117064Y174815D01*
X63685D02*
X86500Y152000D01*
X472748Y137321D02*
X483979D01*
X255036Y63295D02*
X255914Y64173D01*
X209706Y125593D02*
X209800Y125500D01*
X286472Y155312D02*
X286500D01*
X302500Y60500D02*
X302577Y60577D01*
X239000Y160000D02*
X242000D01*
X98000Y168154D02*
X98394D01*
X235394Y133500D02*
X238500D01*
X236200Y174846D02*
X236249Y174797D01*
X248600Y100000D02*
X250845Y97755D01*
X430165Y72980D02*
X444480D01*
X256347Y49917D02*
Y56799D01*
X108441Y66941D02*
X111500Y70000D01*
X29049Y174797D02*
X35887D01*
X237549Y96549D02*
X241000Y100000D01*
X452742Y107798D02*
X453194D01*
X428500Y71315D02*
X430165Y72980D01*
X209706Y119142D02*
X209849Y118999D01*
X249082Y161398D02*
Y161418D01*
X428825Y48900D02*
Y60360D01*
X366195Y186695D02*
X394180D01*
X194500Y152500D02*
X203000Y144000D01*
X256000Y144500D02*
X259672D01*
X451000Y168252D02*
X451049Y168203D01*
X178814Y173235D02*
X184335D01*
X240106Y67347D02*
X240500D01*
X244939Y94939D02*
X247000Y97000D01*
X346000Y78500D02*
X352891Y71609D01*
X276388Y124198D02*
X290198D01*
X159122Y62165D02*
X163705Y66748D01*
X296009Y139909D02*
X296100Y140000D01*
X167000Y168553D02*
X167394D01*
X231787Y144713D02*
Y148409D01*
X482165Y62350D02*
X487807D01*
X265685Y174815D02*
X275094Y165407D01*
X389882Y172461D02*
Y173150D01*
X203000Y144000D02*
X221500D01*
X306500Y128000D02*
X313500Y121000D01*
X375593Y164407D02*
Y168154D01*
X263500Y58000D02*
Y58547D01*
X238693Y143807D02*
X242971Y139529D01*
X47723Y175092D02*
Y186695D01*
X135000Y149500D02*
X148000Y136500D01*
X453672Y127797D02*
X455672Y129797D01*
X249500Y57677D02*
X249795D01*
X286000Y155783D02*
X286472Y155312D01*
X309423Y60577D02*
X309500Y60654D01*
X244939Y133994D02*
Y157061D01*
X98394Y168154D02*
X99370Y167177D01*
X250000Y142500D02*
Y148428D01*
X243151Y174797D02*
X243200Y174748D01*
X241000Y100000D02*
X248600D01*
X256000Y57000D02*
X256146D01*
X43382Y173150D02*
X45047Y174815D01*
X463471Y174844D02*
Y186695D01*
X470142Y101898D02*
X473361Y98679D01*
X444480Y72980D02*
X444500Y73000D01*
X209706Y119142D02*
Y125593D01*
X186000Y164270D02*
X196730D01*
X428500Y60685D02*
X428825Y60360D01*
X313000Y175300D02*
X324815D01*
X48000Y164185D02*
X48654Y163531D01*
X254782Y140282D02*
X257000Y142500D01*
X259672Y144500D02*
X262500Y147328D01*
X445464Y173493D02*
Y173870D01*
X167000Y175247D02*
X167049Y175197D01*
X240451Y60703D02*
X240500Y60654D01*
X244939Y88813D02*
Y94939D01*
X403813Y72196D02*
X426142D01*
X276388Y122230D02*
X292230D01*
X153665Y62165D02*
X159122D01*
X296004Y101790D02*
X296094Y101700D01*
X196730Y164270D02*
X198500Y162500D01*
X231787Y144713D02*
X235000Y141500D01*
X480500Y60685D02*
X482165Y62350D01*
X292910Y148409D02*
X293000Y148500D01*
X391547Y174815D02*
X394500D01*
X313500Y121000D02*
X321000D01*
X444094Y164093D02*
Y168154D01*
X260000Y62047D02*
X263500Y58547D01*
X186000Y174900D02*
X188953D01*
X220951Y48900D02*
Y60636D01*
X455672Y129797D02*
Y131312D01*
X255914Y64173D02*
X256210D01*
X286000Y155783D02*
Y158500D01*
X302577Y60577D02*
X309423D01*
X98000Y165000D02*
X99500Y163500D01*
X249928Y148500D02*
X250000Y148428D01*
X251082Y172961D02*
Y173150D01*
X246000Y60969D02*
X249205Y64173D01*
X43382Y172525D02*
Y173150D01*
X451000Y175437D02*
X462878D01*
X455194Y104283D02*
Y105798D01*
X359506Y71609D02*
X359700Y71415D01*
X444500Y73000D02*
X446000D01*
X428500Y60685D02*
X430165Y62350D01*
X324815Y175300D02*
X324888Y175227D01*
X83421Y71063D02*
X85087Y72728D01*
X257000Y142500D02*
X260501D01*
X262500Y147328D02*
Y160338D01*
X444094Y174846D02*
X444143Y174797D01*
X173887Y175197D02*
X173936Y175148D01*
X452742Y127797D02*
X453672D01*
X239130Y61630D02*
X240106Y60654D01*
X221000Y71315D02*
X228315D01*
X426142Y72196D02*
X427024Y71315D01*
X292230Y122230D02*
X293093Y123093D01*
X164000Y60252D02*
X164049Y60203D01*
X296004Y101790D02*
Y108607D01*
X271500Y72000D02*
X271869D01*
X239828Y162000D02*
X248500D01*
X492705Y67248D02*
X493000D01*
X268093Y148500D02*
X268184Y148409D01*
X385673Y168252D02*
X389882Y172461D01*
D15*
X41248Y144000D02*
D03*
X34752D02*
D03*
X59252Y90200D02*
D03*
X65748D02*
D03*
X263752Y58000D02*
D03*
X270248D02*
D03*
X59252Y136800D02*
D03*
X65748D02*
D03*
X263752Y64800D02*
D03*
X270248D02*
D03*
X41248Y120500D02*
D03*
X34752D02*
D03*
X59252Y67200D02*
D03*
X65748D02*
D03*
X59252Y113700D02*
D03*
X65748D02*
D03*
X41200Y97100D02*
D03*
X34704D02*
D03*
D16*
X94933Y59563D02*
D03*
Y67437D02*
D03*
X233500Y60063D02*
D03*
Y67937D02*
D03*
X372000D02*
D03*
Y60063D02*
D03*
X493000Y67937D02*
D03*
Y60063D02*
D03*
X105000Y167563D02*
D03*
Y175437D02*
D03*
X243200Y167563D02*
D03*
Y175437D02*
D03*
X382500Y167563D02*
D03*
Y175437D02*
D03*
X213487Y147721D02*
D03*
Y155595D02*
D03*
X275094Y147721D02*
D03*
Y155595D02*
D03*
X164000Y67437D02*
D03*
Y59563D02*
D03*
X302500Y67685D02*
D03*
Y59811D02*
D03*
X441000Y67937D02*
D03*
Y60063D02*
D03*
X231787Y155595D02*
D03*
Y147721D02*
D03*
X35936Y167563D02*
D03*
Y175437D02*
D03*
X173936Y167963D02*
D03*
Y175837D02*
D03*
X313000Y175989D02*
D03*
Y168115D02*
D03*
X451000Y175437D02*
D03*
Y167563D02*
D03*
X256834Y147721D02*
D03*
Y155595D02*
D03*
X286093Y147721D02*
D03*
Y155595D02*
D03*
D17*
X152000Y60500D02*
D03*
Y71130D02*
D03*
X290000Y60685D02*
D03*
Y71315D02*
D03*
X428500Y60685D02*
D03*
Y71315D02*
D03*
X48000Y174815D02*
D03*
Y164185D02*
D03*
X186000Y174900D02*
D03*
Y164270D02*
D03*
X325000Y175115D02*
D03*
Y164485D02*
D03*
X463500Y174815D02*
D03*
Y164185D02*
D03*
X82433Y60433D02*
D03*
Y71063D02*
D03*
X221000Y60685D02*
D03*
Y71315D02*
D03*
X359700Y60785D02*
D03*
Y71415D02*
D03*
X480500Y60685D02*
D03*
Y71315D02*
D03*
X117064Y174815D02*
D03*
Y164185D02*
D03*
X255700Y174815D02*
D03*
Y164185D02*
D03*
X394500Y174815D02*
D03*
Y164185D02*
D03*
D18*
X210385Y133000D02*
D03*
X202511D02*
D03*
X295315Y116187D02*
D03*
X303189D02*
D03*
X295315Y108607D02*
D03*
X303189D02*
D03*
X210536Y111600D02*
D03*
X202662D02*
D03*
X303189Y86594D02*
D03*
X295315D02*
D03*
X210396Y125593D02*
D03*
X202521D02*
D03*
X295321Y133000D02*
D03*
X303194D02*
D03*
D19*
X212200Y87100D02*
D03*
X218106D02*
D03*
X302000Y123093D02*
D03*
X296094D02*
D03*
X203894Y105100D02*
D03*
X209800D02*
D03*
X203658Y118999D02*
D03*
X209564D02*
D03*
X302000Y101700D02*
D03*
X296094D02*
D03*
X203700Y140000D02*
D03*
X209606D02*
D03*
X302000Y93500D02*
D03*
X296094D02*
D03*
X302006Y140000D02*
D03*
X296100D02*
D03*
X177500Y33500D02*
D03*
X183405D02*
D03*
D20*
X238693Y154405D02*
D03*
Y148500D02*
D03*
X249928Y154405D02*
D03*
Y148500D02*
D03*
X293000Y154405D02*
D03*
Y148500D02*
D03*
X237897Y74871D02*
D03*
Y80776D02*
D03*
X245000Y74871D02*
D03*
Y80776D02*
D03*
X220393Y154405D02*
D03*
Y148500D02*
D03*
X268093Y154405D02*
D03*
Y148500D02*
D03*
D21*
X101840Y66941D02*
D03*
Y60248D02*
D03*
X240500Y67347D02*
D03*
Y60654D02*
D03*
X379000Y67500D02*
D03*
Y60807D02*
D03*
X500000Y67347D02*
D03*
Y60654D02*
D03*
X98000Y168154D02*
D03*
Y174846D02*
D03*
X236200Y168154D02*
D03*
Y174846D02*
D03*
X375593Y168154D02*
D03*
Y174846D02*
D03*
X29000Y168154D02*
D03*
Y174846D02*
D03*
X171000Y66847D02*
D03*
Y60154D02*
D03*
X309500Y67347D02*
D03*
Y60654D02*
D03*
X448000Y67347D02*
D03*
Y60654D02*
D03*
X167000Y168553D02*
D03*
Y175247D02*
D03*
X306000Y168454D02*
D03*
Y175146D02*
D03*
X444094Y168154D02*
D03*
Y174846D02*
D03*
D22*
X276388Y96639D02*
D03*
Y98608D02*
D03*
Y100576D02*
D03*
Y102545D02*
D03*
Y104513D02*
D03*
Y106482D02*
D03*
Y108450D02*
D03*
Y110419D02*
D03*
Y112387D02*
D03*
Y114356D02*
D03*
Y116324D02*
D03*
Y118293D02*
D03*
Y120261D02*
D03*
Y122230D02*
D03*
Y124198D02*
D03*
Y126167D02*
D03*
X231207D02*
D03*
Y124198D02*
D03*
Y122230D02*
D03*
Y120261D02*
D03*
Y118293D02*
D03*
Y116324D02*
D03*
Y114356D02*
D03*
Y112387D02*
D03*
Y110419D02*
D03*
Y108450D02*
D03*
Y106482D02*
D03*
Y104513D02*
D03*
Y102545D02*
D03*
Y100576D02*
D03*
Y98608D02*
D03*
Y96639D02*
D03*
D23*
X268561Y133994D02*
D03*
X266593D02*
D03*
X264624D02*
D03*
X262656D02*
D03*
X260687D02*
D03*
X258719D02*
D03*
X256750D02*
D03*
X254782D02*
D03*
X252813D02*
D03*
X250845D02*
D03*
X248876D02*
D03*
X246908D02*
D03*
X244939D02*
D03*
X242971D02*
D03*
X241002D02*
D03*
X239034D02*
D03*
Y88813D02*
D03*
X241002D02*
D03*
X242971D02*
D03*
X244939D02*
D03*
X246908D02*
D03*
X248876D02*
D03*
X250845D02*
D03*
X252813D02*
D03*
X254782D02*
D03*
X256750D02*
D03*
X258719D02*
D03*
X260687D02*
D03*
X262656D02*
D03*
X264624D02*
D03*
X266593D02*
D03*
X268561D02*
D03*
D24*
X253798Y111403D02*
D03*
D25*
X194500Y52701D02*
D03*
D26*
X190878Y68378D02*
D03*
X198122D02*
D03*
D27*
X378000Y135848D02*
D03*
Y129352D02*
D03*
X249500Y57677D02*
D03*
Y64173D02*
D03*
X378000Y99852D02*
D03*
Y106348D02*
D03*
X256210Y57677D02*
D03*
Y64173D02*
D03*
X276500Y42000D02*
D03*
Y35504D02*
D03*
X194500Y35248D02*
D03*
Y28752D02*
D03*
D28*
X249654Y49917D02*
D03*
X256347D02*
D03*
D29*
X398451Y137797D02*
D03*
Y127797D02*
D03*
Y117798D02*
D03*
Y107798D02*
D03*
Y97798D02*
D03*
X452742D02*
D03*
Y107798D02*
D03*
Y117798D02*
D03*
Y127797D02*
D03*
Y137797D02*
D03*
D51*
X198122Y68378D02*
Y75622D01*
X191000Y68500D02*
Y76000D01*
X198122Y75622D02*
X201500Y79000D01*
X218106Y87100D02*
X226600D01*
X222000Y82500D02*
X226600Y87100D01*
X231000Y91500D01*
X224000Y79000D02*
X234000Y89000D01*
X238000D01*
X190878Y68378D02*
X191000Y68500D01*
X231000Y91500D02*
Y96000D01*
X197500Y82500D02*
X222000D01*
X201500Y79000D02*
X224000D01*
X191000Y76000D02*
X197500Y82500D01*
D52*
X262846Y81391D02*
X268837Y75400D01*
X64500Y76500D02*
X94600D01*
X119800Y87459D02*
X124841Y92500D01*
X270837Y78900D02*
X320163D01*
X211700Y86600D02*
X212200Y87100D01*
X270500Y103500D02*
Y105464D01*
X253798Y109298D02*
Y111403D01*
X226032Y101174D02*
X227403Y102545D01*
X398451Y104369D02*
Y107798D01*
X214816Y99770D02*
X217032Y101987D01*
X166323Y71130D02*
X170606Y66847D01*
X220632Y101834D02*
Y103410D01*
X378000Y99852D02*
X378935Y100786D01*
X210536Y111600D02*
X210544Y111607D01*
X253798Y105279D02*
Y106279D01*
X271500Y80500D02*
X319500D01*
X105030Y97970D02*
X215561D01*
X270500Y111500D02*
X271581Y110419D01*
X228703Y108428D02*
X228725Y108450D01*
X238276Y127776D02*
X241002Y130502D01*
X262846Y81391D02*
Y82023D01*
X94600Y76500D02*
X114270Y96170D01*
X112400Y87100D02*
X119670Y94370D01*
X320163Y78900D02*
X373063Y131800D01*
X270500Y105464D02*
X271518Y106482D01*
X249000Y103500D02*
X253798Y108298D01*
X215232Y105647D02*
X223941Y114356D01*
X250500Y114701D02*
X253798Y111403D01*
X397983Y102300D02*
X398451Y101831D01*
X256981Y108220D02*
X257500Y107701D01*
X216307Y96170D02*
X220632Y100496D01*
X378935Y100786D02*
Y101831D01*
X257490Y104009D02*
X258000Y103500D01*
X64500Y146000D02*
X65748Y144752D01*
X319500Y80500D02*
X372400Y133400D01*
X217032Y101987D02*
Y103325D01*
X270500Y111500D02*
Y113500D01*
X228726Y110419D02*
X231207D01*
X248876Y126547D02*
Y133994D01*
X268837Y75400D02*
X322111D01*
X105000Y98000D02*
X105030Y97970D01*
X266771Y85412D02*
Y88635D01*
X271892Y98608D02*
X276388D01*
X253798Y108298D02*
Y109298D01*
X264624Y126941D02*
Y133994D01*
X397983Y103900D02*
X398451Y104369D01*
X256981Y104358D02*
Y108220D01*
X130846Y90700D02*
X218474D01*
X378935Y101831D02*
X379403Y102300D01*
X253798Y106298D02*
Y108298D01*
X65748Y136800D02*
Y144752D01*
X268377Y85406D02*
X268383Y85412D01*
X214968Y96170D02*
X216307D01*
X271356Y114356D02*
X276388D01*
X226249Y106482D02*
X231207D01*
X246500Y124500D02*
X246830D01*
X322111Y75400D02*
X349011Y102300D01*
X69500Y98000D02*
X105000D01*
X266593Y88813D02*
X266771Y88635D01*
X270500Y100000D02*
Y101590D01*
X266593Y129360D02*
X268100Y127853D01*
X260996Y103496D02*
Y104205D01*
X398451Y97798D02*
Y101831D01*
X171000Y73500D02*
X175500Y78000D01*
X257490Y107710D02*
X260996Y104205D01*
X264446Y82054D02*
X269500Y77000D01*
X224232Y99004D02*
Y101919D01*
X257500Y104358D02*
Y107701D01*
X65748Y113700D02*
Y121752D01*
X268383Y85412D02*
Y88635D01*
X220632Y100496D02*
Y101834D01*
X270500Y113500D02*
X271356Y114356D01*
X225650Y108428D02*
X228703D01*
X246830Y124500D02*
X248876Y126547D01*
X262834Y82036D02*
Y88635D01*
X68000Y99500D02*
X69500Y98000D01*
X266771Y85412D02*
X266777Y85406D01*
X270500Y100000D02*
X271892Y98608D01*
X268100Y127500D02*
Y127853D01*
X92000Y123000D02*
X115230Y99770D01*
X379403Y102300D02*
X397983D01*
X171000Y66847D02*
Y73500D01*
X256981Y103500D02*
Y104358D01*
X378000Y135848D02*
X378935Y134914D01*
X214070Y101570D02*
X215232Y102732D01*
X269500Y77000D02*
X321448D01*
X260687Y139687D02*
X264500Y143500D01*
X253798Y111403D02*
X256981Y108220D01*
X64500Y123000D02*
X65748Y121752D01*
X268383Y88635D02*
X268561Y88813D01*
X215714Y94370D02*
X217052D01*
X271581Y110419D02*
X276388D01*
X224232Y101919D02*
X226826Y104513D01*
X252701Y128799D02*
X253000Y128500D01*
X262656Y88813D02*
X262834Y88635D01*
X64500Y99500D02*
X68000D01*
X377065Y130287D02*
X378000Y129352D01*
X270500Y101590D02*
X271455Y102545D01*
X115230Y99770D02*
X213477D01*
X398451Y127797D02*
Y131331D01*
X231207Y122230D02*
X238730D01*
X378935Y133869D02*
Y134914D01*
X217728Y92500D02*
X224232Y99004D01*
X276388Y120261D02*
X283739D01*
X321448Y77000D02*
X348348Y103900D01*
X277700Y143500D02*
X280800Y146600D01*
X65748Y90200D02*
Y98252D01*
X372400Y133400D02*
X376597D01*
X222432Y99750D02*
Y101089D01*
X227955Y116302D02*
X227977Y116324D01*
X270500Y109338D02*
X271581Y110419D01*
X225073Y110397D02*
X228703D01*
X250845Y129890D02*
X251936Y128799D01*
X262834Y82036D02*
X262846Y82023D01*
X376597Y131800D02*
X377065Y131331D01*
X276388Y98608D02*
X284892D01*
X64500Y123000D02*
X92000D01*
X379403Y131800D02*
X397983D01*
X238730Y122230D02*
X239000Y122500D01*
X378000Y129352D02*
X378935Y130287D01*
X215232Y102732D02*
Y105647D01*
X283739Y120261D02*
X286500Y117500D01*
X264446Y82054D02*
Y88635D01*
X223941Y114356D02*
X231207D01*
X264500Y143500D02*
X277700D01*
X264624Y126941D02*
X268581Y122985D01*
X65800Y67252D02*
Y75200D01*
X260687Y133994D02*
Y139687D01*
X376597Y133400D02*
X377065Y133869D01*
X209800Y105100D02*
X210536Y105836D01*
X222989Y116302D02*
X227955D01*
X270500Y107500D02*
Y109338D01*
X217032Y104902D02*
X224518Y112387D01*
X251936Y128799D02*
X252701D01*
X377022Y100830D02*
X378000Y99852D01*
X373063Y131800D02*
X376597D01*
X213477Y99770D02*
X214816D01*
X284892Y98608D02*
X290000Y93500D01*
X72500Y146000D02*
X116930Y101570D01*
X397983Y131800D02*
X398451Y131331D01*
X258719Y130281D02*
Y133994D01*
X378935Y133869D02*
X379403Y133400D01*
X124841Y92500D02*
X217728D01*
X264446Y88635D02*
X264624Y88813D01*
X348348Y103900D02*
X376553D01*
X268581Y122985D02*
Y122985D01*
X65748Y67200D02*
X65800Y67252D01*
X377065Y133869D02*
Y134914D01*
X210536Y105836D02*
Y111600D01*
X227977Y116324D02*
X231207D01*
X271518Y106482D02*
X276388D01*
X218832Y104156D02*
X225073Y110397D01*
X250845Y129890D02*
Y133994D01*
X376553Y102300D02*
X377022Y101831D01*
X119670Y94370D02*
X215714D01*
X377065Y130287D02*
Y131331D01*
X290000Y93500D02*
X296094D01*
X116930Y101570D02*
X214070D01*
X397983Y133400D02*
X398451Y133869D01*
X258719Y130281D02*
X261000Y128000D01*
X378935Y130287D02*
Y131331D01*
X218474Y90700D02*
X226032Y98259D01*
X248000Y102500D02*
X249000Y103500D01*
X226826Y104513D02*
X231207D01*
X241002Y130502D02*
Y133994D01*
X376553Y103900D02*
X377022Y104369D01*
X64500Y99500D02*
X65748Y98252D01*
X64500Y76500D02*
X65800Y75200D01*
X377065Y134914D02*
X378000Y135848D01*
X280800Y146600D02*
Y160800D01*
X217787Y111100D02*
X222989Y116302D01*
X270500Y107500D02*
X271518Y106482D01*
X222432Y102665D02*
X226249Y106482D01*
X349011Y102300D02*
X376553D01*
X218832Y101241D02*
Y104156D01*
X378000Y106348D02*
X378935Y105413D01*
X64500Y146000D02*
X72500D01*
X398451Y133869D02*
Y137797D01*
X256750Y125250D02*
Y133994D01*
X378935Y131331D02*
X379403Y131800D01*
X217052Y94370D02*
X222432Y99750D01*
X227403Y102545D02*
X231207D01*
X377022Y104369D02*
Y105370D01*
X65748Y98252D02*
X66030Y97970D01*
X127223Y87077D02*
X130846Y90700D01*
X266777Y82960D02*
X270837Y78900D01*
X288454Y168454D02*
X306000D01*
X224518Y112387D02*
X231207D01*
X270500Y103500D02*
X271455Y102545D01*
X377022Y100830D02*
Y101831D01*
X152000Y71130D02*
X166323D01*
X217032Y103325D02*
Y104902D01*
X378935Y104369D02*
Y105413D01*
X268581Y122985D02*
X268635D01*
X252019Y103500D02*
X253798Y105279D01*
X379403Y133400D02*
X397983D01*
X258000Y124000D02*
X261000D01*
X268377Y83623D02*
X271500Y80500D01*
X226032Y98259D02*
Y101174D01*
X228703Y110397D02*
X228726Y110419D01*
X377022Y105370D02*
X378000Y106348D01*
X114270Y96170D02*
X214968D01*
X119800Y87100D02*
Y87459D01*
X266777Y82960D02*
Y85406D01*
X280800Y160800D02*
X288454Y168454D01*
X271455Y102545D02*
X276388D01*
X248500Y104000D02*
X253798Y109298D01*
X220632Y103410D02*
X225650Y108428D01*
X266593Y129360D02*
Y133994D01*
X379403Y103900D02*
X397983D01*
X170606Y66847D02*
X171000D01*
X222432Y101089D02*
Y102665D01*
X378935Y104369D02*
X379403Y103900D01*
X210544Y111100D02*
X217787D01*
X251000Y103500D02*
X253798Y106298D01*
X256750Y125250D02*
X258000Y124000D01*
X268377Y83623D02*
Y85406D01*
X215561Y97970D02*
X218832Y101241D01*
X228725Y108450D02*
X231207D01*
X238276Y127637D02*
Y127776D01*
D53*
X183405Y33500D02*
X185153Y35248D01*
X194500D01*
D54*
X253798Y111403D02*
Y114797D01*
X250000Y115201D02*
X253798Y111403D01*
X254297Y115297D02*
X258500Y119500D01*
X253798Y114797D02*
Y115797D01*
X258000Y120000D02*
X258500Y120500D01*
X253798Y114797D02*
X254297Y115297D01*
X253798Y115797D02*
X258000Y120000D01*
X250000Y115201D02*
Y119500D01*
D55*
X276388Y95517D02*
X276500Y95405D01*
Y42000D02*
Y57800D01*
X276400Y57900D02*
X276500Y57800D01*
Y86600D02*
Y95405D01*
Y35504D02*
X289804Y22200D01*
D56*
X201052D02*
X289804D01*
X480500Y60685D02*
X480647Y60538D01*
X454094Y22200D02*
X480794Y48900D01*
X480647Y49047D02*
Y60538D01*
Y49047D02*
X480794Y48900D01*
X289804Y22200D02*
X454094D01*
X194500Y28752D02*
X201052Y22200D01*
X194500Y35248D02*
Y52701D01*
D57*
X41224Y97124D02*
Y120476D01*
X59252Y67200D02*
X59300Y67152D01*
X41200Y144048D02*
X41248Y144000D01*
X59252Y67200D02*
Y90200D01*
X53000Y50500D02*
X59300Y56800D01*
X59252Y113700D02*
Y136800D01*
X59300Y56800D02*
Y67152D01*
X59228Y113676D02*
X59252Y113700D01*
X47500Y50500D02*
X53000D01*
X59252Y90200D02*
Y113700D01*
X41200Y56800D02*
Y97100D01*
X41248Y120500D02*
Y144000D01*
X41200Y56800D02*
X47500Y50500D01*
X41200Y97100D02*
X41224Y97124D01*
Y120476D02*
X41248Y120500D01*
D58*
X30400Y48900D02*
D03*
X480794D02*
D03*
X255597Y186695D02*
D03*
X220951Y48900D02*
D03*
X463471Y186695D02*
D03*
X428825Y48900D02*
D03*
X186305Y186695D02*
D03*
X151660Y48900D02*
D03*
X394180Y186695D02*
D03*
X359534Y48900D02*
D03*
X117014Y186695D02*
D03*
X82368Y48900D02*
D03*
X324888Y186695D02*
D03*
X290243Y48900D02*
D03*
X47723Y186695D02*
D03*
D59*
X64500Y76500D02*
D03*
Y146000D02*
D03*
X33894Y111300D02*
D03*
Y134500D02*
D03*
X64500Y123000D02*
D03*
X33952Y88052D02*
D03*
X64500Y99500D02*
D03*
X242000Y34000D02*
D03*
D60*
X54500Y76500D02*
D03*
Y146000D02*
D03*
X23894Y111300D02*
D03*
Y134500D02*
D03*
X54500Y123000D02*
D03*
X23952Y88052D02*
D03*
X54500Y99500D02*
D03*
X262000Y34000D02*
D03*
X252000D02*
D03*
D61*
X30400Y16420D02*
D03*
X480794Y219175D02*
D03*
X480794Y16420D02*
D03*
X30400Y219175D02*
D03*
D62*
X488000Y104500D02*
D03*
Y94657D02*
D03*
Y141342D02*
D03*
Y131500D02*
D03*
D63*
X307500Y146500D02*
D03*
X449850Y8000D02*
D03*
X430400D02*
D03*
X410950D02*
D03*
X391500D02*
D03*
X372050D02*
D03*
X352600D02*
D03*
X333150D02*
D03*
X313700D02*
D03*
X294250D02*
D03*
X274800D02*
D03*
X216450D02*
D03*
X255350D02*
D03*
X235900D02*
D03*
X197000D02*
D03*
X99000Y131000D02*
D03*
X87500Y141500D02*
D03*
X110000D02*
D03*
X165000Y120000D02*
D03*
X146000D02*
D03*
X109500D02*
D03*
X165000Y129000D02*
D03*
X146000D02*
D03*
X222000Y29500D02*
D03*
X209500Y47500D02*
D03*
X205000Y31000D02*
D03*
X303500Y46000D02*
D03*
X321500Y31000D02*
D03*
X87525Y194500D02*
D03*
X408450Y58350D02*
D03*
X398725Y77800D02*
D03*
X369550Y175050D02*
D03*
X155600Y213950D02*
D03*
X330650Y58350D02*
D03*
X340375Y155600D02*
D03*
X204225Y194500D02*
D03*
X486250Y175050D02*
D03*
X379275Y77800D02*
D03*
X48625Y155600D02*
D03*
X19450Y175050D02*
D03*
Y97250D02*
D03*
X437625Y194500D02*
D03*
X175050Y19450D02*
D03*
X155600Y175050D02*
D03*
X311200Y213950D02*
D03*
X194500D02*
D03*
X165325Y194500D02*
D03*
X350100Y58350D02*
D03*
X418175Y77800D02*
D03*
X136150Y58350D02*
D03*
X457075Y77800D02*
D03*
X87525Y155600D02*
D03*
X291750Y175050D02*
D03*
X427900Y213950D02*
D03*
X77800Y136150D02*
D03*
X126425Y155600D02*
D03*
X350100Y136150D02*
D03*
X282025Y194500D02*
D03*
X369550Y213950D02*
D03*
X97250D02*
D03*
X447350D02*
D03*
X408450D02*
D03*
X495975Y194500D02*
D03*
X223675D02*
D03*
X389000Y58350D02*
D03*
X29175Y77800D02*
D03*
X213950Y213950D02*
D03*
X77800D02*
D03*
X398725Y38900D02*
D03*
X29175Y155600D02*
D03*
X97250Y19450D02*
D03*
X116700Y213950D02*
D03*
X320925Y116700D02*
D03*
X408450Y175050D02*
D03*
X58350Y213950D02*
D03*
X77800Y19450D02*
D03*
X155600D02*
D03*
X301475Y194500D02*
D03*
X77800Y175050D02*
D03*
X359825Y77800D02*
D03*
X272300Y213950D02*
D03*
X320925Y155600D02*
D03*
X58350Y19450D02*
D03*
X136150Y213950D02*
D03*
X272300Y175050D02*
D03*
X252850Y213950D02*
D03*
X330650D02*
D03*
X68075Y194500D02*
D03*
Y155600D02*
D03*
X213950Y175050D02*
D03*
X291750Y213950D02*
D03*
X418175Y194500D02*
D03*
X116700Y19450D02*
D03*
X301475Y155600D02*
D03*
X29175Y116700D02*
D03*
X136150Y19450D02*
D03*
X350100Y213950D02*
D03*
X48625Y116700D02*
D03*
X389000Y213950D02*
D03*
X145875Y194500D02*
D03*
X233400Y213950D02*
D03*
X466800Y58350D02*
D03*
X29175Y194500D02*
D03*
X175050Y213950D02*
D03*
X87525Y116700D02*
D03*
X106975Y155600D02*
D03*
X437625Y77800D02*
D03*
X359825Y194500D02*
D03*
X154500Y86500D02*
D03*
X218500Y137500D02*
D03*
X186500Y108000D02*
D03*
X205544Y73694D02*
D03*
X320500Y113000D02*
D03*
X393582Y27732D02*
D03*
X358500Y96500D02*
D03*
X175500Y78000D02*
D03*
X270500Y95500D02*
D03*
X226000Y159000D02*
D03*
X276500Y86600D02*
D03*
X165000Y85500D02*
D03*
X112400Y87100D02*
D03*
X191000Y129500D02*
D03*
X246000Y70000D02*
D03*
X289000Y142000D02*
D03*
X321000Y121000D02*
D03*
X253488Y119505D02*
D03*
X468082Y44732D02*
D03*
X361500Y145000D02*
D03*
X261000Y128000D02*
D03*
X240519Y95095D02*
D03*
X268635Y122985D02*
D03*
X247000Y159000D02*
D03*
X276500Y91003D02*
D03*
X16000Y58000D02*
D03*
X187000Y120500D02*
D03*
X207500Y87000D02*
D03*
X229163Y54862D02*
D03*
X249488Y119505D02*
D03*
X259500Y96500D02*
D03*
X206000Y147500D02*
D03*
X353500Y130000D02*
D03*
X285500Y104000D02*
D03*
X261000Y124000D02*
D03*
X140500Y155000D02*
D03*
X338700Y59400D02*
D03*
X276400Y57900D02*
D03*
X197085Y120242D02*
D03*
X196062Y87186D02*
D03*
X240000Y55000D02*
D03*
X223500Y132500D02*
D03*
X334500Y145500D02*
D03*
X209163Y58862D02*
D03*
X287500Y160000D02*
D03*
X136500Y85500D02*
D03*
X247000Y97000D02*
D03*
X287600Y85800D02*
D03*
X251500Y124630D02*
D03*
X185662Y82986D02*
D03*
X345500Y155500D02*
D03*
X60000Y169500D02*
D03*
X283500Y137500D02*
D03*
X129500Y79000D02*
D03*
X211000Y66000D02*
D03*
X249000Y103500D02*
D03*
X239000Y122500D02*
D03*
X177500Y137000D02*
D03*
X127223Y87077D02*
D03*
X53000Y50500D02*
D03*
X320500Y127000D02*
D03*
X128500Y169000D02*
D03*
X366000Y167000D02*
D03*
X69500Y57000D02*
D03*
X232000Y75000D02*
D03*
X235000Y141500D02*
D03*
X152000Y145000D02*
D03*
X119800Y87100D02*
D03*
X271500Y72000D02*
D03*
X286500Y128500D02*
D03*
X315364Y88061D02*
D03*
X329500Y123000D02*
D03*
X265019Y168596D02*
D03*
X287500Y117500D02*
D03*
X46500Y66000D02*
D03*
X178000Y111000D02*
D03*
X176500Y68500D02*
D03*
X238276Y127637D02*
D03*
X178000Y145500D02*
D03*
X257500Y103500D02*
D03*
X226000Y93000D02*
D03*
X310400Y97500D02*
D03*
X332500Y105500D02*
D03*
X343500Y116000D02*
D03*
X457000Y33500D02*
D03*
X431500Y165000D02*
D03*
X50000Y58500D02*
D03*
X141000Y79000D02*
D03*
X149000Y81000D02*
D03*
X246500Y124500D02*
D03*
X193864Y138561D02*
D03*
X253500Y103500D02*
D03*
X364000Y90000D02*
D03*
X346000Y78500D02*
D03*
X436082Y27732D02*
D03*
X358500Y109000D02*
D03*
X268100Y127500D02*
D03*
X437000Y159500D02*
D03*
X267500Y162000D02*
D03*
X159000Y79500D02*
D03*
X253000Y128500D02*
D03*
X216500Y124000D02*
D03*
X403813Y72196D02*
D03*
X361582Y27732D02*
D03*
X363000Y113500D02*
D03*
X261000Y77000D02*
D03*
X111500Y70000D02*
D03*
X237019Y103095D02*
D03*
X340700Y31400D02*
D03*
X276500Y53400D02*
D03*
M02*
