G04*
G04 #@! TF.GenerationSoftware,Altium Limited,Altium Designer,21.2.2 (38)*
G04*
G04 Layer_Color=8421504*
%FSLAX25Y25*%
%MOIN*%
G70*
G04*
G04 #@! TF.SameCoordinates,7E302BD7-B57C-4E89-9E1E-63AC0990036A*
G04*
G04*
G04 #@! TF.FilePolarity,Positive*
G04*
G01*
G75*
%ADD15R,0.02756X0.03347*%
%ADD16R,0.04921X0.02953*%
%ADD17R,0.10236X0.04331*%
%ADD18R,0.02953X0.04921*%
%ADD19R,0.03740X0.03740*%
%ADD20R,0.03740X0.03740*%
%ADD21R,0.03740X0.02953*%
%ADD22R,0.05807X0.01181*%
%ADD23R,0.01181X0.05807*%
%ADD24R,0.19685X0.19685*%
%ADD25R,0.13228X0.19134*%
%ADD26R,0.05472X0.05512*%
%ADD27R,0.03347X0.02756*%
%ADD28R,0.02953X0.03740*%
%ADD29R,0.07441X0.05000*%
D15*
X41248Y144000D02*
D03*
X34752D02*
D03*
X59252Y90200D02*
D03*
X65748D02*
D03*
X263752Y58000D02*
D03*
X270248D02*
D03*
X59252Y136800D02*
D03*
X65748D02*
D03*
X263752Y64800D02*
D03*
X270248D02*
D03*
X41248Y120500D02*
D03*
X34752D02*
D03*
X59252Y67200D02*
D03*
X65748D02*
D03*
X59252Y113700D02*
D03*
X65748D02*
D03*
X41200Y97100D02*
D03*
X34704D02*
D03*
D16*
X94933Y59563D02*
D03*
Y67437D02*
D03*
X233500Y60063D02*
D03*
Y67937D02*
D03*
X372000D02*
D03*
Y60063D02*
D03*
X493000Y67937D02*
D03*
Y60063D02*
D03*
X105000Y167563D02*
D03*
Y175437D02*
D03*
X243200Y167563D02*
D03*
Y175437D02*
D03*
X382500Y167563D02*
D03*
Y175437D02*
D03*
X213487Y147721D02*
D03*
Y155595D02*
D03*
X275094Y147721D02*
D03*
Y155595D02*
D03*
X164000Y67437D02*
D03*
Y59563D02*
D03*
X302500Y67685D02*
D03*
Y59811D02*
D03*
X441000Y67937D02*
D03*
Y60063D02*
D03*
X231787Y155595D02*
D03*
Y147721D02*
D03*
X35936Y167563D02*
D03*
Y175437D02*
D03*
X173936Y167963D02*
D03*
Y175837D02*
D03*
X313000Y175989D02*
D03*
Y168115D02*
D03*
X451000Y175437D02*
D03*
Y167563D02*
D03*
X256834Y147721D02*
D03*
Y155595D02*
D03*
X286093Y147721D02*
D03*
Y155595D02*
D03*
D17*
X152000Y60500D02*
D03*
Y71130D02*
D03*
X290000Y60685D02*
D03*
Y71315D02*
D03*
X428500Y60685D02*
D03*
Y71315D02*
D03*
X48000Y174815D02*
D03*
Y164185D02*
D03*
X186000Y174900D02*
D03*
Y164270D02*
D03*
X325000Y175115D02*
D03*
Y164485D02*
D03*
X463500Y174815D02*
D03*
Y164185D02*
D03*
X82433Y60433D02*
D03*
Y71063D02*
D03*
X221000Y60685D02*
D03*
Y71315D02*
D03*
X359700Y60785D02*
D03*
Y71415D02*
D03*
X480500Y60685D02*
D03*
Y71315D02*
D03*
X117064Y174815D02*
D03*
Y164185D02*
D03*
X255700Y174815D02*
D03*
Y164185D02*
D03*
X394500Y174815D02*
D03*
Y164185D02*
D03*
D18*
X210385Y133000D02*
D03*
X202511D02*
D03*
X295315Y116187D02*
D03*
X303189D02*
D03*
X295315Y108607D02*
D03*
X303189D02*
D03*
X210536Y111600D02*
D03*
X202662D02*
D03*
X303189Y86594D02*
D03*
X295315D02*
D03*
X210396Y125593D02*
D03*
X202521D02*
D03*
X295321Y133000D02*
D03*
X303194D02*
D03*
D19*
X212200Y87100D02*
D03*
X218106D02*
D03*
X302000Y123093D02*
D03*
X296094D02*
D03*
X203894Y105100D02*
D03*
X209800D02*
D03*
X203658Y118999D02*
D03*
X209564D02*
D03*
X302000Y101700D02*
D03*
X296094D02*
D03*
X203700Y140000D02*
D03*
X209606D02*
D03*
X302000Y93500D02*
D03*
X296094D02*
D03*
X302006Y140000D02*
D03*
X296100D02*
D03*
X177500Y33500D02*
D03*
X183405D02*
D03*
D20*
X238693Y154405D02*
D03*
Y148500D02*
D03*
X249928Y154405D02*
D03*
Y148500D02*
D03*
X293000Y154405D02*
D03*
Y148500D02*
D03*
X237897Y74871D02*
D03*
Y80776D02*
D03*
X245000Y74871D02*
D03*
Y80776D02*
D03*
X220393Y154405D02*
D03*
Y148500D02*
D03*
X268093Y154405D02*
D03*
Y148500D02*
D03*
D21*
X101840Y66941D02*
D03*
Y60248D02*
D03*
X240500Y67347D02*
D03*
Y60654D02*
D03*
X379000Y67500D02*
D03*
Y60807D02*
D03*
X500000Y67347D02*
D03*
Y60654D02*
D03*
X98000Y168154D02*
D03*
Y174846D02*
D03*
X236200Y168154D02*
D03*
Y174846D02*
D03*
X375593Y168154D02*
D03*
Y174846D02*
D03*
X29000Y168154D02*
D03*
Y174846D02*
D03*
X171000Y66847D02*
D03*
Y60154D02*
D03*
X309500Y67347D02*
D03*
Y60654D02*
D03*
X448000Y67347D02*
D03*
Y60654D02*
D03*
X167000Y168553D02*
D03*
Y175247D02*
D03*
X306000Y168454D02*
D03*
Y175146D02*
D03*
X444094Y168154D02*
D03*
Y174846D02*
D03*
D22*
X276388Y96639D02*
D03*
Y98608D02*
D03*
Y100576D02*
D03*
Y102545D02*
D03*
Y104513D02*
D03*
Y106482D02*
D03*
Y108450D02*
D03*
Y110419D02*
D03*
Y112387D02*
D03*
Y114356D02*
D03*
Y116324D02*
D03*
Y118293D02*
D03*
Y120261D02*
D03*
Y122230D02*
D03*
Y124198D02*
D03*
Y126167D02*
D03*
X231207D02*
D03*
Y124198D02*
D03*
Y122230D02*
D03*
Y120261D02*
D03*
Y118293D02*
D03*
Y116324D02*
D03*
Y114356D02*
D03*
Y112387D02*
D03*
Y110419D02*
D03*
Y108450D02*
D03*
Y106482D02*
D03*
Y104513D02*
D03*
Y102545D02*
D03*
Y100576D02*
D03*
Y98608D02*
D03*
Y96639D02*
D03*
D23*
X268561Y133994D02*
D03*
X266593D02*
D03*
X264624D02*
D03*
X262656D02*
D03*
X260687D02*
D03*
X258719D02*
D03*
X256750D02*
D03*
X254782D02*
D03*
X252813D02*
D03*
X250845D02*
D03*
X248876D02*
D03*
X246908D02*
D03*
X244939D02*
D03*
X242971D02*
D03*
X241002D02*
D03*
X239034D02*
D03*
Y88813D02*
D03*
X241002D02*
D03*
X242971D02*
D03*
X244939D02*
D03*
X246908D02*
D03*
X248876D02*
D03*
X250845D02*
D03*
X252813D02*
D03*
X254782D02*
D03*
X256750D02*
D03*
X258719D02*
D03*
X260687D02*
D03*
X262656D02*
D03*
X264624D02*
D03*
X266593D02*
D03*
X268561D02*
D03*
D24*
X253798Y111403D02*
D03*
D25*
X194500Y52701D02*
D03*
D26*
X190878Y68378D02*
D03*
X198122D02*
D03*
D27*
X378000Y135848D02*
D03*
Y129352D02*
D03*
X249500Y57677D02*
D03*
Y64173D02*
D03*
X378000Y99852D02*
D03*
Y106348D02*
D03*
X256210Y57677D02*
D03*
Y64173D02*
D03*
X276500Y42000D02*
D03*
Y35504D02*
D03*
X194500Y35248D02*
D03*
Y28752D02*
D03*
D28*
X249654Y49917D02*
D03*
X256347D02*
D03*
D29*
X398451Y137797D02*
D03*
Y127797D02*
D03*
Y117798D02*
D03*
Y107798D02*
D03*
Y97798D02*
D03*
X452742D02*
D03*
Y107798D02*
D03*
Y117798D02*
D03*
Y127797D02*
D03*
Y137797D02*
D03*
M02*
