M48
;Layer_Color=9474304
;FILE_FORMAT=2:5
INCH,TZ
;TYPE=PLATED
T1F00S00C0.01181
T2F00S00C0.02087
T3F00S00C0.03543
T4F00S00C0.04134
T5F00S00C0.13780
%
T01
X16000Y58000
X29175Y77800
X46500Y66000
X50000Y58500
X53000Y50500
X69500Y57000
X77800Y19450
X97250
X116700
X136150
X155600
X136150Y58350
X141000Y79000
X149000Y81000
X154500Y86500
X136500Y85500
X127223Y87077
X119800Y87100
X112400
X111500Y70000
X129500Y79000
X146000Y120000
Y129000
X152000Y145000
X140500Y155000
X126425Y155600
X106975
X110000Y141500
X99000Y131000
X109500Y120000
X87525Y116700
X87500Y141500
X87525Y155600
X68075
X48625
X29175
Y116700
X48625
X19450Y97250
X77800Y136150
X58350Y19450
X175050
X197000Y8000
X216450
X235900
X255350
X274800
X294250
X303500Y46000
X276500Y53400
X276400Y57900
X271500Y72000
X261000Y77000
X259500Y96500
X257500Y103500
X253500
X249000
X247000Y97000
X240519Y95095
X237019Y103095
X226000Y93000
X232000Y75000
X246000Y70000
X240000Y55000
X229163Y54862
X209163Y58862
X211000Y66000
X205544Y73694
X207500Y87000
X196062Y87186
X185662Y82986
X175500Y78000
X176500Y68500
X165000Y85500
X159000Y79500
X165000Y120000
Y129000
X177500Y137000
X178000Y145500
X193864Y138561
X191000Y129500
X187000Y120500
X197085Y120242
X186500Y108000
X178000Y111000
X216500Y124000
X218500Y137500
X223500Y132500
X238276Y127637
X239000Y122500
X246500Y124500
X251500Y124630
X253000Y128500
X261000Y128000
Y124000
X268635Y122985
X268100Y127500
X286500Y128500
X283500Y137500
X289000Y142000
X307500Y146500
X301475Y155600
X287500Y117500
X285500Y104000
X287600Y85800
X276500Y86600
Y91003
X270500Y95500
X253488Y119505
X249488
X235000Y141500
X206000Y147500
X209500Y47500
X205000Y31000
X222000Y29500
X310400Y97500
X315364Y88061
X320500Y113000
X320925Y116700
X321000Y121000
X320500Y127000
X329500Y123000
X332500Y105500
X343500Y116000
X358500Y109000
X363000Y113500
X358500Y96500
X364000Y90000
X359825Y77800
X346000Y78500
X350100Y58350
X338700Y59400
X330650Y58350
X321500Y31000
X340700Y31400
X361582Y27732
X352600Y8000
X372050
X391500
X410950
X430400
X449850
X457000Y33500
X468082Y44732
X466800Y58350
X457075Y77800
X437625
X418175
X398725
X403813Y72196
X408450Y58350
X389000
X379275Y77800
X398725Y38900
X393582Y27732
X436082
X333150Y8000
X313700
X320925Y155600
X340375
X345500Y155500
X334500Y145500
X350100Y136150
X353500Y130000
X361500Y145000
X486250Y175050
X495975Y194500
X437625
X418175
X427900Y213950
X447350
X408450
X389000
X369550
X350100
X330650
X359825Y194500
X369550Y175050
X366000Y167000
X408450Y175050
X431500Y165000
X437000Y159500
X287500Y160000
X291750Y175050
X272300
X265019Y168596
X267500Y162000
X247000Y159000
X226000
X213950Y175050
X204225Y194500
X223675
X213950Y213950
X194500
X175050
X165325Y194500
X233400Y213950
X252850
X272300
X291750
X311200
X301475Y194500
X282025
X145875
X155600Y213950
X136150
X116700
X97250
X77800
X58350
X68075Y194500
X87525
X77800Y175050
X60000Y169500
X19450Y175050
X29175Y194500
X128500Y169000
X155600Y175050
T02
X30400Y48900
X82368
X151660
X220951
X290243
X359534
X428825
X480794
X463471Y186695
X394180
X324888
X255597
X186305
X117014
X47723
T03
X23952Y88052
X33952
X33894Y111300
X23894
Y134500
X33894
X54500Y146000
X64500
Y123000
X54500
Y99500
X64500
Y76500
X54500
X242000Y34000
X252000
X262000
T04
X488000Y94657
Y104500
Y131500
Y141342
T05
X30400Y16420
X480794
X480794Y219175
X30400
M30
