G04*
G04 #@! TF.GenerationSoftware,Altium Limited,Altium Designer,21.2.2 (38)*
G04*
G04 Layer_Color=16711935*
%FSLAX25Y25*%
%MOIN*%
G70*
G04*
G04 #@! TF.SameCoordinates,7E302BD7-B57C-4E89-9E1E-63AC0990036A*
G04*
G04*
G04 #@! TF.FilePolarity,Negative*
G04*
G01*
G75*
%ADD31R,0.05721X0.03753*%
%ADD35R,0.04540X0.04540*%
%ADD45C,0.05524*%
%ADD46R,0.06706X0.06706*%
%ADD47C,0.06706*%
%ADD48C,0.18800*%
%ADD49C,0.07001*%
%ADD50C,0.03162*%
D31*
X235894Y115189D02*
D03*
Y107315D02*
D03*
X257500Y115689D02*
D03*
Y107815D02*
D03*
X272200Y115689D02*
D03*
Y107815D02*
D03*
D35*
X250494Y108595D02*
D03*
Y114500D02*
D03*
X242800Y108500D02*
D03*
Y114406D02*
D03*
X265294Y109095D02*
D03*
Y115000D02*
D03*
D45*
X30400Y48900D02*
D03*
X480794D02*
D03*
X255597Y186695D02*
D03*
X220951Y48900D02*
D03*
X463471Y186695D02*
D03*
X428825Y48900D02*
D03*
X186305Y186695D02*
D03*
X151660Y48900D02*
D03*
X394180Y186695D02*
D03*
X359534Y48900D02*
D03*
X117014Y186695D02*
D03*
X82368Y48900D02*
D03*
X324888Y186695D02*
D03*
X290243Y48900D02*
D03*
X47723Y186695D02*
D03*
D46*
X64500Y76500D02*
D03*
Y146000D02*
D03*
X33894Y111300D02*
D03*
Y134500D02*
D03*
X64500Y123000D02*
D03*
X33952Y88052D02*
D03*
X64500Y99500D02*
D03*
X242000Y34000D02*
D03*
D47*
X54500Y76500D02*
D03*
Y146000D02*
D03*
X23894Y111300D02*
D03*
Y134500D02*
D03*
X54500Y123000D02*
D03*
X23952Y88052D02*
D03*
X54500Y99500D02*
D03*
X262000Y34000D02*
D03*
X252000D02*
D03*
D48*
X30400Y16420D02*
D03*
X480794Y219175D02*
D03*
X480794Y16420D02*
D03*
X30400Y219175D02*
D03*
D49*
X488000Y104500D02*
D03*
Y94657D02*
D03*
Y141342D02*
D03*
Y131500D02*
D03*
D50*
X307500Y146500D02*
D03*
X449850Y8000D02*
D03*
X430400D02*
D03*
X410950D02*
D03*
X391500D02*
D03*
X372050D02*
D03*
X352600D02*
D03*
X333150D02*
D03*
X313700D02*
D03*
X294250D02*
D03*
X274800D02*
D03*
X216450D02*
D03*
X255350D02*
D03*
X235900D02*
D03*
X197000D02*
D03*
X99000Y131000D02*
D03*
X87500Y141500D02*
D03*
X110000D02*
D03*
X165000Y120000D02*
D03*
X146000D02*
D03*
X109500D02*
D03*
X165000Y129000D02*
D03*
X146000D02*
D03*
X222000Y29500D02*
D03*
X209500Y47500D02*
D03*
X205000Y31000D02*
D03*
X303500Y46000D02*
D03*
X321500Y31000D02*
D03*
X87525Y194500D02*
D03*
X408450Y58350D02*
D03*
X398725Y77800D02*
D03*
X369550Y175050D02*
D03*
X155600Y213950D02*
D03*
X330650Y58350D02*
D03*
X340375Y155600D02*
D03*
X204225Y194500D02*
D03*
X486250Y175050D02*
D03*
X379275Y77800D02*
D03*
X48625Y155600D02*
D03*
X19450Y175050D02*
D03*
Y97250D02*
D03*
X437625Y194500D02*
D03*
X175050Y19450D02*
D03*
X155600Y175050D02*
D03*
X311200Y213950D02*
D03*
X194500D02*
D03*
X165325Y194500D02*
D03*
X350100Y58350D02*
D03*
X418175Y77800D02*
D03*
X136150Y58350D02*
D03*
X457075Y77800D02*
D03*
X87525Y155600D02*
D03*
X291750Y175050D02*
D03*
X427900Y213950D02*
D03*
X77800Y136150D02*
D03*
X126425Y155600D02*
D03*
X350100Y136150D02*
D03*
X282025Y194500D02*
D03*
X369550Y213950D02*
D03*
X97250D02*
D03*
X447350D02*
D03*
X408450D02*
D03*
X495975Y194500D02*
D03*
X223675D02*
D03*
X389000Y58350D02*
D03*
X29175Y77800D02*
D03*
X213950Y213950D02*
D03*
X77800D02*
D03*
X398725Y38900D02*
D03*
X29175Y155600D02*
D03*
X97250Y19450D02*
D03*
X116700Y213950D02*
D03*
X320925Y116700D02*
D03*
X408450Y175050D02*
D03*
X58350Y213950D02*
D03*
X77800Y19450D02*
D03*
X155600D02*
D03*
X301475Y194500D02*
D03*
X77800Y175050D02*
D03*
X359825Y77800D02*
D03*
X272300Y213950D02*
D03*
X320925Y155600D02*
D03*
X58350Y19450D02*
D03*
X136150Y213950D02*
D03*
X272300Y175050D02*
D03*
X252850Y213950D02*
D03*
X330650D02*
D03*
X68075Y194500D02*
D03*
Y155600D02*
D03*
X213950Y175050D02*
D03*
X291750Y213950D02*
D03*
X418175Y194500D02*
D03*
X116700Y19450D02*
D03*
X301475Y155600D02*
D03*
X29175Y116700D02*
D03*
X136150Y19450D02*
D03*
X350100Y213950D02*
D03*
X48625Y116700D02*
D03*
X389000Y213950D02*
D03*
X145875Y194500D02*
D03*
X233400Y213950D02*
D03*
X466800Y58350D02*
D03*
X29175Y194500D02*
D03*
X175050Y213950D02*
D03*
X87525Y116700D02*
D03*
X106975Y155600D02*
D03*
X437625Y77800D02*
D03*
X359825Y194500D02*
D03*
X154500Y86500D02*
D03*
X218500Y137500D02*
D03*
X186500Y108000D02*
D03*
X205544Y73694D02*
D03*
X320500Y113000D02*
D03*
X393582Y27732D02*
D03*
X358500Y96500D02*
D03*
X175500Y78000D02*
D03*
X270500Y95500D02*
D03*
X226000Y159000D02*
D03*
X276500Y86600D02*
D03*
X165000Y85500D02*
D03*
X112400Y87100D02*
D03*
X191000Y129500D02*
D03*
X246000Y70000D02*
D03*
X289000Y142000D02*
D03*
X321000Y121000D02*
D03*
X253488Y119505D02*
D03*
X468082Y44732D02*
D03*
X361500Y145000D02*
D03*
X261000Y128000D02*
D03*
X240519Y95095D02*
D03*
X268635Y122985D02*
D03*
X247000Y159000D02*
D03*
X276500Y91003D02*
D03*
X16000Y58000D02*
D03*
X187000Y120500D02*
D03*
X207500Y87000D02*
D03*
X229163Y54862D02*
D03*
X249488Y119505D02*
D03*
X259500Y96500D02*
D03*
X206000Y147500D02*
D03*
X353500Y130000D02*
D03*
X285500Y104000D02*
D03*
X261000Y124000D02*
D03*
X140500Y155000D02*
D03*
X338700Y59400D02*
D03*
X276400Y57900D02*
D03*
X197085Y120242D02*
D03*
X196062Y87186D02*
D03*
X240000Y55000D02*
D03*
X223500Y132500D02*
D03*
X334500Y145500D02*
D03*
X209163Y58862D02*
D03*
X287500Y160000D02*
D03*
X136500Y85500D02*
D03*
X247000Y97000D02*
D03*
X287600Y85800D02*
D03*
X251500Y124630D02*
D03*
X185662Y82986D02*
D03*
X345500Y155500D02*
D03*
X60000Y169500D02*
D03*
X283500Y137500D02*
D03*
X129500Y79000D02*
D03*
X211000Y66000D02*
D03*
X249000Y103500D02*
D03*
X239000Y122500D02*
D03*
X177500Y137000D02*
D03*
X127223Y87077D02*
D03*
X53000Y50500D02*
D03*
X320500Y127000D02*
D03*
X128500Y169000D02*
D03*
X366000Y167000D02*
D03*
X69500Y57000D02*
D03*
X232000Y75000D02*
D03*
X235000Y141500D02*
D03*
X152000Y145000D02*
D03*
X119800Y87100D02*
D03*
X271500Y72000D02*
D03*
X286500Y128500D02*
D03*
X315364Y88061D02*
D03*
X329500Y123000D02*
D03*
X265019Y168596D02*
D03*
X287500Y117500D02*
D03*
X46500Y66000D02*
D03*
X178000Y111000D02*
D03*
X176500Y68500D02*
D03*
X238276Y127637D02*
D03*
X178000Y145500D02*
D03*
X257500Y103500D02*
D03*
X226000Y93000D02*
D03*
X310400Y97500D02*
D03*
X332500Y105500D02*
D03*
X343500Y116000D02*
D03*
X457000Y33500D02*
D03*
X431500Y165000D02*
D03*
X50000Y58500D02*
D03*
X141000Y79000D02*
D03*
X149000Y81000D02*
D03*
X246500Y124500D02*
D03*
X193864Y138561D02*
D03*
X253500Y103500D02*
D03*
X364000Y90000D02*
D03*
X346000Y78500D02*
D03*
X436082Y27732D02*
D03*
X358500Y109000D02*
D03*
X268100Y127500D02*
D03*
X437000Y159500D02*
D03*
X267500Y162000D02*
D03*
X159000Y79500D02*
D03*
X253000Y128500D02*
D03*
X216500Y124000D02*
D03*
X403813Y72196D02*
D03*
X361582Y27732D02*
D03*
X363000Y113500D02*
D03*
X261000Y77000D02*
D03*
X111500Y70000D02*
D03*
X237019Y103095D02*
D03*
X340700Y31400D02*
D03*
X276500Y53400D02*
D03*
M02*
