G04*
G04 #@! TF.GenerationSoftware,Altium Limited,Altium Designer,21.2.2 (38)*
G04*
G04 Layer_Color=255*
%FSLAX25Y25*%
%MOIN*%
G70*
G04*
G04 #@! TF.SameCoordinates,7E302BD7-B57C-4E89-9E1E-63AC0990036A*
G04*
G04*
G04 #@! TF.FilePolarity,Positive*
G04*
G01*
G75*
%ADD16R,0.04921X0.02953*%
%ADD20R,0.03740X0.03740*%
%ADD58C,0.04724*%
%ADD59R,0.05906X0.05906*%
%ADD60C,0.05906*%
%ADD61C,0.18000*%
%ADD62C,0.06201*%
D16*
X235894Y115189D02*
D03*
Y107315D02*
D03*
X257500Y115689D02*
D03*
Y107815D02*
D03*
X272200Y115689D02*
D03*
Y107815D02*
D03*
D20*
X250494Y108595D02*
D03*
Y114500D02*
D03*
X242800Y108500D02*
D03*
Y114406D02*
D03*
X265294Y109095D02*
D03*
Y115000D02*
D03*
D58*
X30400Y48900D02*
D03*
X480794D02*
D03*
X255597Y186695D02*
D03*
X220951Y48900D02*
D03*
X463471Y186695D02*
D03*
X428825Y48900D02*
D03*
X186305Y186695D02*
D03*
X151660Y48900D02*
D03*
X394180Y186695D02*
D03*
X359534Y48900D02*
D03*
X117014Y186695D02*
D03*
X82368Y48900D02*
D03*
X324888Y186695D02*
D03*
X290243Y48900D02*
D03*
X47723Y186695D02*
D03*
D59*
X64500Y76500D02*
D03*
Y146000D02*
D03*
X33894Y111300D02*
D03*
Y134500D02*
D03*
X64500Y123000D02*
D03*
X33952Y88052D02*
D03*
X64500Y99500D02*
D03*
X242000Y34000D02*
D03*
D60*
X54500Y76500D02*
D03*
Y146000D02*
D03*
X23894Y111300D02*
D03*
Y134500D02*
D03*
X54500Y123000D02*
D03*
X23952Y88052D02*
D03*
X54500Y99500D02*
D03*
X262000Y34000D02*
D03*
X252000D02*
D03*
D61*
X30400Y16420D02*
D03*
X480794Y219175D02*
D03*
X480794Y16420D02*
D03*
X30400Y219175D02*
D03*
D62*
X488000Y104500D02*
D03*
Y94657D02*
D03*
Y141342D02*
D03*
Y131500D02*
D03*
M02*
