G04*
G04 #@! TF.GenerationSoftware,Altium Limited,Altium Designer,21.2.2 (38)*
G04*
G04 Layer_Color=16711935*
%FSLAX25Y25*%
%MOIN*%
G70*
G04*
G04 #@! TF.SameCoordinates,7E302BD7-B57C-4E89-9E1E-63AC0990036A*
G04*
G04*
G04 #@! TF.FilePolarity,Positive*
G04*
G01*
G75*
%ADD12C,0.00787*%
%ADD13C,0.00394*%
D12*
X202472Y46272D02*
Y67728D01*
X186528D02*
X202472D01*
X186528Y46272D02*
Y67728D01*
Y46272D02*
X202472D01*
X497252Y92689D02*
X501189D01*
Y106468D01*
X497252D02*
X501189D01*
X497252Y92689D02*
Y106468D01*
X474614Y85012D02*
X497252D01*
Y114146D01*
X474614D02*
X497252D01*
X474614Y85012D02*
Y114146D01*
X497252Y129532D02*
X501189D01*
Y143311D01*
X497252D02*
X501189D01*
X497252Y129532D02*
Y143311D01*
X474614Y121854D02*
X497252D01*
Y150988D01*
X474614D02*
X497252D01*
X474614Y121854D02*
Y150988D01*
X448530Y88860D02*
Y146734D01*
X402664Y88860D02*
X448530D01*
X402664D02*
Y146734D01*
X448530D01*
D13*
X34850Y142425D02*
X41150D01*
X34850Y145575D02*
X41150D01*
Y142425D02*
Y145575D01*
X34850Y142425D02*
Y145575D01*
X59350Y91775D02*
X65650D01*
X59350Y88625D02*
X65650D01*
X59350D02*
Y91775D01*
X65650Y88625D02*
Y91775D01*
X263850Y59575D02*
X270150D01*
X263850Y56425D02*
X270150D01*
X263850D02*
Y59575D01*
X270150Y56425D02*
Y59575D01*
X92571Y59563D02*
X97295D01*
X92571Y67437D02*
X97295D01*
X92571Y59563D02*
Y67437D01*
X97295Y59563D02*
Y67437D01*
X231138Y60063D02*
X235862D01*
X231138Y67937D02*
X235862D01*
X231138Y60063D02*
Y67937D01*
X235862Y60063D02*
Y67937D01*
X369638D02*
X374362D01*
X369638Y60063D02*
X374362D01*
Y67937D01*
X369638Y60063D02*
Y67937D01*
X490638D02*
X495362D01*
X490638Y60063D02*
X495362D01*
Y67937D01*
X490638Y60063D02*
Y67937D01*
X146803Y59220D02*
X157197D01*
X146803Y72409D02*
X157197D01*
X146803Y59220D02*
Y72409D01*
X157197Y59220D02*
Y72409D01*
X284803Y59405D02*
X295197D01*
X284803Y72594D02*
X295197D01*
X284803Y59405D02*
Y72594D01*
X295197Y59405D02*
Y72594D01*
X423303Y59405D02*
X433697D01*
X423303Y72594D02*
X433697D01*
X423303Y59405D02*
Y72594D01*
X433697Y59405D02*
Y72594D01*
X210385Y130638D02*
Y135362D01*
X202511Y130638D02*
Y135362D01*
Y130638D02*
X210385D01*
X202511Y135362D02*
X210385D01*
X233531Y115189D02*
X238256D01*
X233531Y107315D02*
X238256D01*
X233531D02*
Y115189D01*
X238256Y107315D02*
Y115189D01*
X212003Y85525D02*
Y88675D01*
X218302Y85525D02*
Y88675D01*
X212003D02*
X218302D01*
X212003Y85525D02*
X218302D01*
X237119Y154602D02*
X240268D01*
X237119Y148303D02*
X240268D01*
Y154602D01*
X237119Y148303D02*
Y154602D01*
X302197Y121519D02*
Y124668D01*
X295898Y121519D02*
Y124668D01*
Y121519D02*
X302197D01*
X295898Y124668D02*
X302197D01*
X103414Y60445D02*
Y66744D01*
X100265Y60445D02*
Y66744D01*
X103414D01*
X100265Y60445D02*
X103414D01*
X242075Y60850D02*
Y67150D01*
X238925Y60850D02*
Y67150D01*
X242075D01*
X238925Y60850D02*
X242075D01*
X380575Y61004D02*
Y67303D01*
X377425Y61004D02*
Y67303D01*
X380575D01*
X377425Y61004D02*
X380575D01*
X501575Y60850D02*
Y67150D01*
X498425Y60850D02*
Y67150D01*
X501575D01*
X498425Y60850D02*
X501575D01*
X248919Y108398D02*
X252068D01*
X248919Y114697D02*
X252068D01*
Y108398D02*
Y114697D01*
X248919Y108398D02*
Y114697D01*
X234113Y91718D02*
X273482D01*
X234113D02*
Y131088D01*
X273482D01*
Y91718D02*
Y131088D01*
X271514Y91718D02*
X273482Y93687D01*
X295315Y113825D02*
Y118549D01*
X303189Y113825D02*
Y118549D01*
X295315D02*
X303189D01*
X295315Y113825D02*
X303189D01*
X379575Y129450D02*
Y135750D01*
X376425Y129450D02*
Y135750D01*
X379575D01*
X376425Y129450D02*
X379575D01*
X59350Y138375D02*
X65650D01*
X59350Y135225D02*
X65650D01*
X59350D02*
Y138375D01*
X65650Y135225D02*
Y138375D01*
X247925Y57776D02*
Y64075D01*
X251075Y57776D02*
Y64075D01*
X247925Y57776D02*
X251075D01*
X247925Y64075D02*
X251075D01*
X102638Y167563D02*
X107362D01*
X102638Y175437D02*
X107362D01*
X102638Y167563D02*
Y175437D01*
X107362Y167563D02*
Y175437D01*
X240838Y167563D02*
X245562D01*
X240838Y175437D02*
X245562D01*
X240838Y167563D02*
Y175437D01*
X245562Y167563D02*
Y175437D01*
X380138Y167563D02*
X384862D01*
X380138Y175437D02*
X384862D01*
X380138Y167563D02*
Y175437D01*
X384862Y167563D02*
Y175437D01*
X42803Y176094D02*
X53197D01*
X42803Y162906D02*
X53197D01*
Y176094D01*
X42803Y162906D02*
Y176094D01*
X180803Y176180D02*
X191197D01*
X180803Y162991D02*
X191197D01*
Y176180D01*
X180803Y162991D02*
Y176180D01*
X319803Y176394D02*
X330197D01*
X319803Y163206D02*
X330197D01*
Y176394D01*
X319803Y163206D02*
Y176394D01*
X458303Y176094D02*
X468697D01*
X458303Y162906D02*
X468697D01*
Y176094D01*
X458303Y162906D02*
Y176094D01*
X211125Y147721D02*
X215849D01*
X211125Y155595D02*
X215849D01*
X211125Y147721D02*
Y155595D01*
X215849Y147721D02*
Y155595D01*
X272731Y147721D02*
X277456D01*
X272731Y155595D02*
X277456D01*
X272731Y147721D02*
Y155595D01*
X277456Y147721D02*
Y155595D01*
X203698Y103525D02*
Y106675D01*
X209997Y103525D02*
Y106675D01*
X203698D02*
X209997D01*
X203698Y103525D02*
X209997D01*
X203462Y117424D02*
Y120574D01*
X209761Y117424D02*
Y120574D01*
X203462D02*
X209761D01*
X203462Y117424D02*
X209761D01*
X248353Y154602D02*
X251502D01*
X248353Y148303D02*
X251502D01*
Y154602D01*
X248353Y148303D02*
Y154602D01*
X291425D02*
X294575D01*
X291425Y148303D02*
X294575D01*
Y154602D01*
X291425Y148303D02*
Y154602D01*
X302197Y100125D02*
Y103275D01*
X295898Y100125D02*
Y103275D01*
Y100125D02*
X302197D01*
X295898Y103275D02*
X302197D01*
X96425Y168350D02*
Y174650D01*
X99575Y168350D02*
Y174650D01*
X96425Y168350D02*
X99575D01*
X96425Y174650D02*
X99575D01*
X234625Y168350D02*
Y174650D01*
X237775Y168350D02*
Y174650D01*
X234625Y168350D02*
X237775D01*
X234625Y174650D02*
X237775D01*
X374019Y168350D02*
Y174650D01*
X377168Y168350D02*
Y174650D01*
X374019Y168350D02*
X377168D01*
X374019Y174650D02*
X377168D01*
X27425Y168350D02*
Y174650D01*
X30575Y168350D02*
Y174650D01*
X27425Y168350D02*
X30575D01*
X27425Y174650D02*
X30575D01*
X295315Y106244D02*
Y110969D01*
X303189Y106244D02*
Y110969D01*
X295315D02*
X303189D01*
X295315Y106244D02*
X303189D01*
X376425Y99950D02*
Y106250D01*
X379575Y99950D02*
Y106250D01*
X376425Y99950D02*
X379575D01*
X376425Y106250D02*
X379575D01*
X263850Y66375D02*
X270150D01*
X263850Y63225D02*
X270150D01*
X263850D02*
Y66375D01*
X270150Y63225D02*
Y66375D01*
X210536Y109238D02*
Y113962D01*
X202662Y109238D02*
Y113962D01*
Y109238D02*
X210536D01*
X202662Y113962D02*
X210536D01*
X254635Y57776D02*
Y64075D01*
X257785Y57776D02*
Y64075D01*
X254635Y57776D02*
X257785D01*
X254635Y64075D02*
X257785D01*
X161638Y67437D02*
X166362D01*
X161638Y59563D02*
X166362D01*
Y67437D01*
X161638Y59563D02*
Y67437D01*
X300138Y67685D02*
X304862D01*
X300138Y59811D02*
X304862D01*
Y67685D01*
X300138Y59811D02*
Y67685D01*
X438638Y67937D02*
X443362D01*
X438638Y60063D02*
X443362D01*
Y67937D01*
X438638Y60063D02*
Y67937D01*
X77236Y59153D02*
X87630D01*
X77236Y72342D02*
X87630D01*
X77236Y59153D02*
Y72342D01*
X87630Y59153D02*
Y72342D01*
X215803Y59405D02*
X226197D01*
X215803Y72594D02*
X226197D01*
X215803Y59405D02*
Y72594D01*
X226197Y59405D02*
Y72594D01*
X354503Y59505D02*
X364897D01*
X354503Y72694D02*
X364897D01*
X354503Y59505D02*
Y72694D01*
X364897Y59505D02*
Y72694D01*
X475303Y59405D02*
X485697D01*
X475303Y72594D02*
X485697D01*
X475303Y59405D02*
Y72594D01*
X485697Y59405D02*
Y72594D01*
X229425Y155595D02*
X234149D01*
X229425Y147721D02*
X234149D01*
Y155595D01*
X229425Y147721D02*
Y155595D01*
X255138Y115689D02*
X259862D01*
X255138Y107815D02*
X259862D01*
X255138D02*
Y115689D01*
X259862Y107815D02*
Y115689D01*
X236322Y74674D02*
X239471D01*
X236322Y80973D02*
X239471D01*
X236322Y74674D02*
Y80973D01*
X239471Y74674D02*
Y80973D01*
X203503Y138425D02*
Y141575D01*
X209802Y138425D02*
Y141575D01*
X203503D02*
X209802D01*
X203503Y138425D02*
X209802D01*
X302197Y91925D02*
Y95075D01*
X295898Y91925D02*
Y95075D01*
Y91925D02*
X302197D01*
X295898Y95075D02*
X302197D01*
X172575Y60350D02*
Y66650D01*
X169425Y60350D02*
Y66650D01*
X172575D01*
X169425Y60350D02*
X172575D01*
X311075Y60850D02*
Y67150D01*
X307925Y60850D02*
Y67150D01*
X311075D01*
X307925Y60850D02*
X311075D01*
X449575D02*
Y67150D01*
X446425Y60850D02*
Y67150D01*
X449575D01*
X446425Y60850D02*
X449575D01*
X241225Y108303D02*
X244375D01*
X241225Y114602D02*
X244375D01*
Y108303D02*
Y114602D01*
X241225Y108303D02*
Y114602D01*
X263719Y108898D02*
X266868D01*
X263719Y115197D02*
X266868D01*
Y108898D02*
Y115197D01*
X263719Y108898D02*
Y115197D01*
X34850Y118925D02*
X41150D01*
X34850Y122075D02*
X41150D01*
Y118925D02*
Y122075D01*
X34850Y118925D02*
Y122075D01*
X278075Y35602D02*
Y41902D01*
X274925Y35602D02*
Y41902D01*
X278075D01*
X274925Y35602D02*
X278075D01*
X303189Y84231D02*
Y88956D01*
X295315Y84231D02*
Y88956D01*
Y84231D02*
X303189D01*
X295315Y88956D02*
X303189D01*
X269838Y115689D02*
X274562D01*
X269838Y107815D02*
X274562D01*
X269838D02*
Y115689D01*
X274562Y107815D02*
Y115689D01*
X59350Y68775D02*
X65650D01*
X59350Y65625D02*
X65650D01*
X59350D02*
Y68775D01*
X65650Y65625D02*
Y68775D01*
X59350Y115275D02*
X65650D01*
X59350Y112125D02*
X65650D01*
X59350D02*
Y115275D01*
X65650Y112125D02*
Y115275D01*
X196075Y28850D02*
Y35150D01*
X192925Y28850D02*
Y35150D01*
X196075D01*
X192925Y28850D02*
X196075D01*
X33574Y167563D02*
X38298D01*
X33574Y175437D02*
X38298D01*
X33574Y167563D02*
Y175437D01*
X38298Y167563D02*
Y175437D01*
X171574Y167963D02*
X176298D01*
X171574Y175837D02*
X176298D01*
X171574Y167963D02*
Y175837D01*
X176298Y167963D02*
Y175837D01*
X310638Y175989D02*
X315362D01*
X310638Y168115D02*
X315362D01*
Y175989D01*
X310638Y168115D02*
Y175989D01*
X448638Y175437D02*
X453362D01*
X448638Y167563D02*
X453362D01*
Y175437D01*
X448638Y167563D02*
Y175437D01*
X111867Y176094D02*
X122261D01*
X111867Y162906D02*
X122261D01*
Y176094D01*
X111867Y162906D02*
Y176094D01*
X250503D02*
X260897D01*
X250503Y162906D02*
X260897D01*
Y176094D01*
X250503Y162906D02*
Y176094D01*
X389303D02*
X399697D01*
X389303Y162906D02*
X399697D01*
Y176094D01*
X389303Y162906D02*
Y176094D01*
X210396Y123231D02*
Y127956D01*
X202521Y123231D02*
Y127956D01*
Y123231D02*
X210396D01*
X202521Y127956D02*
X210396D01*
X254472Y147721D02*
X259196D01*
X254472Y155595D02*
X259196D01*
X254472Y147721D02*
Y155595D01*
X259196Y147721D02*
Y155595D01*
X283731Y147721D02*
X288456D01*
X283731Y155595D02*
X288456D01*
X283731Y147721D02*
Y155595D01*
X288456Y147721D02*
Y155595D01*
X249850Y51492D02*
X256150D01*
X249850Y48342D02*
X256150D01*
X249850D02*
Y51492D01*
X256150Y48342D02*
Y51492D01*
X243425Y74674D02*
X246575D01*
X243425Y80973D02*
X246575D01*
X243425Y74674D02*
Y80973D01*
X246575Y74674D02*
Y80973D01*
X218819Y154602D02*
X221968D01*
X218819Y148303D02*
X221968D01*
Y154602D01*
X218819Y148303D02*
Y154602D01*
X266519Y154602D02*
X269668D01*
X266519Y148303D02*
X269668D01*
Y154602D01*
X266519Y148303D02*
Y154602D01*
X302202Y138425D02*
Y141575D01*
X295903Y138425D02*
Y141575D01*
Y138425D02*
X302202D01*
X295903Y141575D02*
X302202D01*
X165425Y168750D02*
Y175050D01*
X168575Y168750D02*
Y175050D01*
X165425Y168750D02*
X168575D01*
X165425Y175050D02*
X168575D01*
X304425Y168650D02*
Y174950D01*
X307575Y168650D02*
Y174950D01*
X304425Y168650D02*
X307575D01*
X304425Y174950D02*
X307575D01*
X442519Y168350D02*
Y174650D01*
X445668Y168350D02*
Y174650D01*
X442519Y168350D02*
X445668D01*
X442519Y174650D02*
X445668D01*
X34802Y95525D02*
X41102D01*
X34802Y98675D02*
X41102D01*
Y95525D02*
Y98675D01*
X34802Y95525D02*
Y98675D01*
X177303Y31925D02*
Y35075D01*
X183602Y31925D02*
Y35075D01*
X177303D02*
X183602D01*
X177303Y31925D02*
X183602D01*
X295321Y130638D02*
Y135362D01*
X303194Y130638D02*
Y135362D01*
X295321D02*
X303194D01*
X295321Y130638D02*
X303194D01*
M02*
