G04*
G04 #@! TF.GenerationSoftware,Altium Limited,Altium Designer,21.2.2 (38)*
G04*
G04 Layer_Color=32768*
%FSLAX25Y25*%
%MOIN*%
G70*
G04*
G04 #@! TF.SameCoordinates,7E302BD7-B57C-4E89-9E1E-63AC0990036A*
G04*
G04*
G04 #@! TF.FilePolarity,Positive*
G04*
G01*
G75*
%ADD13C,0.00394*%
%ADD64C,0.00197*%
D13*
X38000Y142425D02*
Y145575D01*
X36425Y144000D02*
X39575D01*
X62500Y88625D02*
Y91775D01*
X60925Y90200D02*
X64075D01*
X267000Y56425D02*
Y59575D01*
X265425Y58000D02*
X268575D01*
X94933Y61532D02*
Y65469D01*
X92965Y63500D02*
X96902D01*
X233500Y62032D02*
Y65969D01*
X231532Y64000D02*
X235469D01*
X372000Y62032D02*
Y65969D01*
X370031Y64000D02*
X373969D01*
X493000Y62032D02*
Y65969D01*
X491032Y64000D02*
X494969D01*
X146488Y57941D02*
X157512D01*
X146488Y73689D02*
X157512D01*
X146488Y57941D02*
Y73689D01*
X157512Y57941D02*
Y73689D01*
X152000Y63846D02*
Y67783D01*
X150031Y65815D02*
X153969D01*
X284488Y58126D02*
X295512D01*
X284488Y73874D02*
X295512D01*
X284488Y58126D02*
Y73874D01*
X295512Y58126D02*
Y73874D01*
X290000Y64031D02*
Y67968D01*
X288032Y66000D02*
X291968D01*
X422988Y58126D02*
X434012D01*
X422988Y73874D02*
X434012D01*
X422988Y58126D02*
Y73874D01*
X434012Y58126D02*
Y73874D01*
X428500Y64031D02*
Y67968D01*
X426532Y66000D02*
X430469D01*
X204480Y133000D02*
X208417D01*
X206448Y131032D02*
Y134968D01*
X235894Y109283D02*
Y113221D01*
X233925Y111252D02*
X237862D01*
X213578Y87100D02*
X216728D01*
X215153Y85525D02*
Y88675D01*
X238693Y149878D02*
Y153028D01*
X237119Y151453D02*
X240268D01*
X297472Y123093D02*
X300622D01*
X299047Y121519D02*
Y124668D01*
X100265Y63595D02*
X103414D01*
X101840Y62020D02*
Y65169D01*
X238925Y64000D02*
X242075D01*
X240500Y62425D02*
Y65575D01*
X377425Y64153D02*
X380575D01*
X379000Y62579D02*
Y65728D01*
X498425Y64000D02*
X501575D01*
X500000Y62425D02*
Y65575D01*
X250494Y109972D02*
Y113122D01*
X248919Y111547D02*
X252068D01*
X297284Y116187D02*
X301220D01*
X299252Y114218D02*
Y118156D01*
X204441Y41126D02*
Y75740D01*
X184559D02*
X204441D01*
X184559Y41126D02*
Y75740D01*
Y41126D02*
X204441D01*
X376425Y132600D02*
X379575D01*
X378000Y131025D02*
Y134175D01*
X62500Y135225D02*
Y138375D01*
X60925Y136800D02*
X64075D01*
X247925Y60925D02*
X251075D01*
X249500Y59350D02*
Y62500D01*
X105000Y169532D02*
Y173468D01*
X103032Y171500D02*
X106968D01*
X243200Y169532D02*
Y173468D01*
X241231Y171500D02*
X245168D01*
X382500Y169532D02*
Y173468D01*
X380532Y171500D02*
X384469D01*
X42488Y177374D02*
X53512D01*
X42488Y161626D02*
X53512D01*
Y177374D01*
X42488Y161626D02*
Y177374D01*
X48000Y167532D02*
Y171468D01*
X46031Y169500D02*
X49968D01*
X180488Y177459D02*
X191512D01*
X180488Y161711D02*
X191512D01*
Y177459D01*
X180488Y161711D02*
Y177459D01*
X186000Y167616D02*
Y171554D01*
X184031Y169585D02*
X187969D01*
X319488Y177674D02*
X330512D01*
X319488Y161926D02*
X330512D01*
Y177674D01*
X319488Y161926D02*
Y177674D01*
X325000Y167832D02*
Y171768D01*
X323031Y169800D02*
X326969D01*
X457988Y177374D02*
X469012D01*
X457988Y161626D02*
X469012D01*
Y177374D01*
X457988Y161626D02*
Y177374D01*
X463500Y167532D02*
Y171468D01*
X461531Y169500D02*
X465469D01*
X213487Y149689D02*
Y153626D01*
X211519Y151657D02*
X215456D01*
X275094Y149689D02*
Y153626D01*
X273125Y151657D02*
X277062D01*
X205272Y105100D02*
X208422D01*
X206847Y103525D02*
Y106675D01*
X205036Y118999D02*
X208186D01*
X206611Y117424D02*
Y120574D01*
X249928Y149878D02*
Y153028D01*
X248353Y151453D02*
X251502D01*
X293000Y149878D02*
Y153028D01*
X291425Y151453D02*
X294575D01*
X297472Y101700D02*
X300622D01*
X299047Y100125D02*
Y103275D01*
X96425Y171500D02*
X99575D01*
X98000Y169925D02*
Y173075D01*
X234625Y171500D02*
X237775D01*
X236200Y169925D02*
Y173075D01*
X374019Y171500D02*
X377168D01*
X375593Y169925D02*
Y173075D01*
X27425Y171500D02*
X30575D01*
X29000Y169925D02*
Y173075D01*
X297284Y108607D02*
X301220D01*
X299252Y106638D02*
Y110575D01*
X376425Y103100D02*
X379575D01*
X378000Y101525D02*
Y104675D01*
X267000Y63225D02*
Y66375D01*
X265425Y64800D02*
X268575D01*
X204631Y111600D02*
X208568D01*
X206599Y109632D02*
Y113568D01*
X254635Y60925D02*
X257785D01*
X256210Y59350D02*
Y62500D01*
X164000Y61532D02*
Y65469D01*
X162031Y63500D02*
X165969D01*
X302500Y61779D02*
Y65716D01*
X300532Y63748D02*
X304468D01*
X441000Y62032D02*
Y65969D01*
X439032Y64000D02*
X442969D01*
X76921Y57874D02*
X87945D01*
X76921Y73622D02*
X87945D01*
X76921Y57874D02*
Y73622D01*
X87945Y57874D02*
Y73622D01*
X82433Y63779D02*
Y67716D01*
X80465Y65748D02*
X84402D01*
X215488Y58126D02*
X226512D01*
X215488Y73874D02*
X226512D01*
X215488Y58126D02*
Y73874D01*
X226512Y58126D02*
Y73874D01*
X221000Y64031D02*
Y67968D01*
X219032Y66000D02*
X222969D01*
X354188Y58226D02*
X365212D01*
X354188Y73974D02*
X365212D01*
X354188Y58226D02*
Y73974D01*
X365212Y58226D02*
Y73974D01*
X359700Y64131D02*
Y68068D01*
X357732Y66100D02*
X361668D01*
X474988Y58126D02*
X486012D01*
X474988Y73874D02*
X486012D01*
X474988Y58126D02*
Y73874D01*
X486012Y58126D02*
Y73874D01*
X480500Y64031D02*
Y67968D01*
X478532Y66000D02*
X482469D01*
X231787Y149689D02*
Y153626D01*
X229819Y151657D02*
X233755D01*
X257500Y109783D02*
Y113721D01*
X255532Y111752D02*
X259469D01*
X237897Y76249D02*
Y79398D01*
X236322Y77823D02*
X239471D01*
X205078Y140000D02*
X208228D01*
X206653Y138425D02*
Y141575D01*
X297472Y93500D02*
X300622D01*
X299047Y91925D02*
Y95075D01*
X169425Y63500D02*
X172575D01*
X171000Y61925D02*
Y65075D01*
X307925Y64000D02*
X311075D01*
X309500Y62425D02*
Y65575D01*
X446425Y64000D02*
X449575D01*
X448000Y62425D02*
Y65575D01*
X472646Y83043D02*
X503158D01*
Y116114D01*
X472646D02*
X503158D01*
X472646Y83043D02*
Y116114D01*
X242800Y109878D02*
Y113028D01*
X241225Y111453D02*
X244375D01*
X265294Y110472D02*
Y113622D01*
X263719Y112047D02*
X266868D01*
X38000Y118925D02*
Y122075D01*
X36425Y120500D02*
X39575D01*
X274925Y38752D02*
X278075D01*
X276500Y37177D02*
Y40327D01*
X297284Y86594D02*
X301220D01*
X299252Y84625D02*
Y88562D01*
X272200Y109783D02*
Y113721D01*
X270232Y111752D02*
X274168D01*
X62500Y65625D02*
Y68775D01*
X60925Y67200D02*
X64075D01*
X62500Y112125D02*
Y115275D01*
X60925Y113700D02*
X64075D01*
X192925Y32000D02*
X196075D01*
X194500Y30425D02*
Y33575D01*
X35936Y169532D02*
Y173468D01*
X33968Y171500D02*
X37905D01*
X173936Y169931D02*
Y173869D01*
X171967Y171900D02*
X175905D01*
X313000Y170083D02*
Y174021D01*
X311032Y172052D02*
X314968D01*
X451000Y169532D02*
Y173468D01*
X449031Y171500D02*
X452969D01*
X111552Y177374D02*
X122576D01*
X111552Y161626D02*
X122576D01*
Y177374D01*
X111552Y161626D02*
Y177374D01*
X117064Y167532D02*
Y171468D01*
X115095Y169500D02*
X119033D01*
X250188Y177374D02*
X261212D01*
X250188Y161626D02*
X261212D01*
Y177374D01*
X250188Y161626D02*
Y177374D01*
X255700Y167532D02*
Y171468D01*
X253731Y169500D02*
X257668D01*
X388988Y177374D02*
X400012D01*
X388988Y161626D02*
X400012D01*
Y177374D01*
X388988Y161626D02*
Y177374D01*
X394500Y167532D02*
Y171468D01*
X392531Y169500D02*
X396468D01*
X204490Y125593D02*
X208427D01*
X206458Y123625D02*
Y127562D01*
X256834Y149689D02*
Y153626D01*
X254866Y151657D02*
X258803D01*
X286093Y149689D02*
Y153626D01*
X284125Y151657D02*
X288062D01*
X253000Y48342D02*
Y51492D01*
X251425Y49917D02*
X254575D01*
X245000Y76249D02*
Y79398D01*
X243425Y77823D02*
X246575D01*
X220393Y149878D02*
Y153028D01*
X218819Y151453D02*
X221968D01*
X268093Y149878D02*
Y153028D01*
X266519Y151453D02*
X269668D01*
X297478Y140000D02*
X300628D01*
X299053Y138425D02*
Y141575D01*
X165425Y171900D02*
X168575D01*
X167000Y170325D02*
Y173475D01*
X304425Y171800D02*
X307575D01*
X306000Y170225D02*
Y173375D01*
X442519Y171500D02*
X445668D01*
X444094Y169925D02*
Y173075D01*
X472646Y119886D02*
X503158D01*
Y152957D01*
X472646D02*
X503158D01*
X472646Y119886D02*
Y152957D01*
X460400Y84923D02*
Y150672D01*
X388983Y84923D02*
X460400D01*
X388983D02*
Y150672D01*
X460400D01*
X37952Y95525D02*
Y98675D01*
X36377Y97100D02*
X39527D01*
X178878Y33500D02*
X182028D01*
X180453Y31925D02*
Y35075D01*
X297289Y133000D02*
X301226D01*
X299257Y131032D02*
Y134968D01*
D64*
X32291Y141244D02*
X43709D01*
X32291Y146756D02*
X43709D01*
Y141244D02*
Y146756D01*
X32291Y141244D02*
Y146756D01*
X56791Y92956D02*
X68209D01*
X56791Y87444D02*
X68209D01*
X56791D02*
Y92956D01*
X68209Y87444D02*
Y92956D01*
X261291Y60756D02*
X272709D01*
X261291Y55244D02*
X272709D01*
X261291D02*
Y60756D01*
X272709Y55244D02*
Y60756D01*
X91390Y57004D02*
X98476D01*
X91390Y69996D02*
X98476D01*
X91390Y57004D02*
Y69996D01*
X98476Y57004D02*
Y69996D01*
X229957Y57504D02*
X237043D01*
X229957Y70496D02*
X237043D01*
X229957Y57504D02*
Y70496D01*
X237043Y57504D02*
Y70496D01*
X368457Y70496D02*
X375543D01*
X368457Y57504D02*
X375543D01*
Y70496D01*
X368457Y57504D02*
Y70496D01*
X489457D02*
X496543D01*
X489457Y57504D02*
X496543D01*
Y70496D01*
X489457Y57504D02*
Y70496D01*
X212944Y129457D02*
Y136543D01*
X199952Y129457D02*
Y136543D01*
Y129457D02*
X212944D01*
X199952Y136543D02*
X212944D01*
X232350Y117748D02*
X239437D01*
X232350Y104756D02*
X239437D01*
X232350D02*
Y117748D01*
X239437Y104756D02*
Y117748D01*
X209247Y84147D02*
Y90053D01*
X221058Y84147D02*
Y90053D01*
X209247D02*
X221058D01*
X209247Y84147D02*
X221058D01*
X235741Y157358D02*
X241646D01*
X235741Y145547D02*
X241646D01*
Y157358D01*
X235741Y145547D02*
Y157358D01*
X304953Y120141D02*
Y126046D01*
X293142Y120141D02*
Y126046D01*
Y120141D02*
X304953D01*
X293142Y126046D02*
X304953D01*
X104792Y57689D02*
Y69500D01*
X98887Y57689D02*
Y69500D01*
X104792D01*
X98887Y57689D02*
X104792D01*
X243453Y58095D02*
Y69906D01*
X237547Y58095D02*
Y69906D01*
X243453D01*
X237547Y58095D02*
X243453D01*
X381953Y58248D02*
Y70059D01*
X376047Y58248D02*
Y70059D01*
X381953D01*
X376047Y58248D02*
X381953D01*
X502953Y58095D02*
Y69906D01*
X497047Y58095D02*
Y69906D01*
X502953D01*
X497047Y58095D02*
X502953D01*
X247541Y105642D02*
X253446D01*
X247541Y117453D02*
X253446D01*
Y105642D02*
Y117453D01*
X247541Y105642D02*
Y117453D01*
X227321Y84927D02*
X280274D01*
X227321D02*
Y137880D01*
X280274D01*
Y84927D02*
Y137880D01*
X292756Y112644D02*
Y119730D01*
X305748Y112644D02*
Y119730D01*
X292756D02*
X305748D01*
X292756Y112644D02*
X305748D01*
X380756Y126891D02*
Y138309D01*
X375244Y126891D02*
Y138309D01*
X380756D01*
X375244Y126891D02*
X380756D01*
X56791Y139556D02*
X68209D01*
X56791Y134044D02*
X68209D01*
X56791D02*
Y139556D01*
X68209Y134044D02*
Y139556D01*
X246744Y55216D02*
Y66634D01*
X252256Y55216D02*
Y66634D01*
X246744Y55216D02*
X252256D01*
X246744Y66634D02*
X252256D01*
X101457Y165004D02*
X108543D01*
X101457Y177996D02*
X108543D01*
X101457Y165004D02*
Y177996D01*
X108543Y165004D02*
Y177996D01*
X239657Y165004D02*
X246743D01*
X239657Y177996D02*
X246743D01*
X239657Y165004D02*
Y177996D01*
X246743Y165004D02*
Y177996D01*
X378957Y165004D02*
X386043D01*
X378957Y177996D02*
X386043D01*
X378957Y165004D02*
Y177996D01*
X386043Y165004D02*
Y177996D01*
X209944Y145161D02*
X217030D01*
X209944Y158153D02*
X217030D01*
X209944Y145161D02*
Y158153D01*
X217030Y145161D02*
Y158153D01*
X271550Y145161D02*
X278637D01*
X271550Y158153D02*
X278637D01*
X271550Y145161D02*
Y158153D01*
X278637Y145161D02*
Y158153D01*
X200942Y102147D02*
Y108053D01*
X212753Y102147D02*
Y108053D01*
X200942D02*
X212753D01*
X200942Y102147D02*
X212753D01*
X200706Y116046D02*
Y121952D01*
X212517Y116046D02*
Y121952D01*
X200706D02*
X212517D01*
X200706Y116046D02*
X212517D01*
X246975Y157358D02*
X252881D01*
X246975Y145547D02*
X252881D01*
Y157358D01*
X246975Y145547D02*
Y157358D01*
X290047D02*
X295953D01*
X290047Y145547D02*
X295953D01*
Y157358D01*
X290047Y145547D02*
Y157358D01*
X304953Y98747D02*
Y104653D01*
X293142Y98747D02*
Y104653D01*
Y98747D02*
X304953D01*
X293142Y104653D02*
X304953D01*
X95047Y165594D02*
Y177406D01*
X100953Y165594D02*
Y177406D01*
X95047Y165594D02*
X100953D01*
X95047Y177406D02*
X100953D01*
X233247Y165594D02*
Y177406D01*
X239153Y165594D02*
Y177406D01*
X233247Y165594D02*
X239153D01*
X233247Y177406D02*
X239153D01*
X372641Y165594D02*
Y177406D01*
X378546Y165594D02*
Y177406D01*
X372641Y165594D02*
X378546D01*
X372641Y177406D02*
X378546D01*
X26047Y165594D02*
Y177406D01*
X31953Y165594D02*
Y177406D01*
X26047Y165594D02*
X31953D01*
X26047Y177406D02*
X31953D01*
X292756Y105063D02*
Y112150D01*
X305748Y105063D02*
Y112150D01*
X292756D02*
X305748D01*
X292756Y105063D02*
X305748D01*
X375244Y97391D02*
Y108809D01*
X380756Y97391D02*
Y108809D01*
X375244Y97391D02*
X380756D01*
X375244Y108809D02*
X380756D01*
X261291Y67556D02*
X272709D01*
X261291Y62044D02*
X272709D01*
X261291D02*
Y67556D01*
X272709Y62044D02*
Y67556D01*
X213095Y108057D02*
Y115143D01*
X200103Y108057D02*
Y115143D01*
Y108057D02*
X213095D01*
X200103Y115143D02*
X213095D01*
X253454Y55216D02*
Y66634D01*
X258966Y55216D02*
Y66634D01*
X253454Y55216D02*
X258966D01*
X253454Y66634D02*
X258966D01*
X160457Y69996D02*
X167543D01*
X160457Y57004D02*
X167543D01*
Y69996D01*
X160457Y57004D02*
Y69996D01*
X298957Y70244D02*
X306043D01*
X298957Y57252D02*
X306043D01*
Y70244D01*
X298957Y57252D02*
Y70244D01*
X437457Y70496D02*
X444543D01*
X437457Y57504D02*
X444543D01*
Y70496D01*
X437457Y57504D02*
Y70496D01*
X228244Y158153D02*
X235330D01*
X228244Y145161D02*
X235330D01*
Y158153D01*
X228244Y145161D02*
Y158153D01*
X253957Y118248D02*
X261043D01*
X253957Y105256D02*
X261043D01*
X253957D02*
Y118248D01*
X261043Y105256D02*
Y118248D01*
X234944Y71918D02*
X240849D01*
X234944Y83729D02*
X240849D01*
X234944Y71918D02*
Y83729D01*
X240849Y71918D02*
Y83729D01*
X200747Y137047D02*
Y142953D01*
X212558Y137047D02*
Y142953D01*
X200747D02*
X212558D01*
X200747Y137047D02*
X212558D01*
X304953Y90547D02*
Y96453D01*
X293142Y90547D02*
Y96453D01*
Y90547D02*
X304953D01*
X293142Y96453D02*
X304953D01*
X173953Y57595D02*
Y69406D01*
X168047Y57595D02*
Y69406D01*
X173953D01*
X168047Y57595D02*
X173953D01*
X312453Y58095D02*
Y69906D01*
X306547Y58095D02*
Y69906D01*
X312453D01*
X306547Y58095D02*
X312453D01*
X450953D02*
Y69906D01*
X445047Y58095D02*
Y69906D01*
X450953D01*
X445047Y58095D02*
X450953D01*
X239847Y105547D02*
X245753D01*
X239847Y117358D02*
X245753D01*
Y105547D02*
Y117358D01*
X239847Y105547D02*
Y117358D01*
X262341Y106142D02*
X268246D01*
X262341Y117953D02*
X268246D01*
Y106142D02*
Y117953D01*
X262341Y106142D02*
Y117953D01*
X32291Y117744D02*
X43709D01*
X32291Y123256D02*
X43709D01*
Y117744D02*
Y123256D01*
X32291Y117744D02*
Y123256D01*
X279256Y33043D02*
Y44461D01*
X273744Y33043D02*
Y44461D01*
X279256D01*
X273744Y33043D02*
X279256D01*
X305748Y83050D02*
Y90137D01*
X292756Y83050D02*
Y90137D01*
Y83050D02*
X305748D01*
X292756Y90137D02*
X305748D01*
X268657Y118248D02*
X275743D01*
X268657Y105256D02*
X275743D01*
X268657D02*
Y118248D01*
X275743Y105256D02*
Y118248D01*
X56791Y69956D02*
X68209D01*
X56791Y64444D02*
X68209D01*
X56791D02*
Y69956D01*
X68209Y64444D02*
Y69956D01*
X56791Y116456D02*
X68209D01*
X56791Y110944D02*
X68209D01*
X56791D02*
Y116456D01*
X68209Y110944D02*
Y116456D01*
X197256Y26291D02*
Y37709D01*
X191744Y26291D02*
Y37709D01*
X197256D01*
X191744Y26291D02*
X197256D01*
X32393Y165004D02*
X39479D01*
X32393Y177996D02*
X39479D01*
X32393Y165004D02*
Y177996D01*
X39479Y165004D02*
Y177996D01*
X170393Y165404D02*
X177479D01*
X170393Y178396D02*
X177479D01*
X170393Y165404D02*
Y178396D01*
X177479Y165404D02*
Y178396D01*
X309457Y178548D02*
X316543D01*
X309457Y165556D02*
X316543D01*
Y178548D01*
X309457Y165556D02*
Y178548D01*
X447457Y177996D02*
X454543D01*
X447457Y165004D02*
X454543D01*
Y177996D01*
X447457Y165004D02*
Y177996D01*
X212954Y122050D02*
Y129137D01*
X199962Y122050D02*
Y129137D01*
Y122050D02*
X212954D01*
X199962Y129137D02*
X212954D01*
X253291Y145161D02*
X260378D01*
X253291Y158153D02*
X260378D01*
X253291Y145161D02*
Y158153D01*
X260378Y145161D02*
Y158153D01*
X282550Y145161D02*
X289637D01*
X282550Y158153D02*
X289637D01*
X282550Y145161D02*
Y158153D01*
X289637Y145161D02*
Y158153D01*
X247094Y52870D02*
X258906D01*
X247094Y46964D02*
X258906D01*
X247094D02*
Y52870D01*
X258906Y46964D02*
Y52870D01*
X242047Y71918D02*
X247953D01*
X242047Y83729D02*
X247953D01*
X242047Y71918D02*
Y83729D01*
X247953Y71918D02*
Y83729D01*
X217441Y157358D02*
X223346D01*
X217441Y145547D02*
X223346D01*
Y157358D01*
X217441Y145547D02*
Y157358D01*
X265141Y157358D02*
X271046D01*
X265141Y145547D02*
X271046D01*
Y157358D01*
X265141Y145547D02*
Y157358D01*
X304958Y137047D02*
Y142953D01*
X293147Y137047D02*
Y142953D01*
Y137047D02*
X304958D01*
X293147Y142953D02*
X304958D01*
X164047Y165995D02*
Y177805D01*
X169953Y165995D02*
Y177805D01*
X164047Y165995D02*
X169953D01*
X164047Y177805D02*
X169953D01*
X303047Y165894D02*
Y177706D01*
X308953Y165894D02*
Y177706D01*
X303047Y165894D02*
X308953D01*
X303047Y177706D02*
X308953D01*
X441141Y165594D02*
Y177406D01*
X447046Y165594D02*
Y177406D01*
X441141Y165594D02*
X447046D01*
X441141Y177406D02*
X447046D01*
X32243Y94344D02*
X43661D01*
X32243Y99856D02*
X43661D01*
Y94344D02*
Y99856D01*
X32243Y94344D02*
Y99856D01*
X174547Y30547D02*
Y36453D01*
X186358Y30547D02*
Y36453D01*
X174547D02*
X186358D01*
X174547Y30547D02*
X186358D01*
X292761Y129457D02*
Y136543D01*
X305753Y129457D02*
Y136543D01*
X292761D02*
X305753D01*
X292761Y129457D02*
X305753D01*
M02*
