G04*
G04 #@! TF.GenerationSoftware,Altium Limited,Altium Designer,21.2.0 (30)*
G04*
G04 Layer_Color=32768*
%FSLAX25Y25*%
%MOIN*%
G70*
G04*
G04 #@! TF.SameCoordinates,1A82DE82-DBE2-47DD-AFC6-AE7A396213A6*
G04*
G04*
G04 #@! TF.FilePolarity,Positive*
G04*
G01*
G75*
%ADD16C,0.00394*%
%ADD78C,0.00197*%
D16*
X206000Y40925D02*
Y44075D01*
X204425Y42500D02*
X207575D01*
X184425Y48500D02*
X187575D01*
X186000Y46925D02*
Y50075D01*
X197500Y46925D02*
Y50075D01*
X195925Y48500D02*
X199075D01*
X267925Y172272D02*
X271075D01*
X269500Y170697D02*
Y173846D01*
X256425Y172272D02*
X259575D01*
X258000Y170697D02*
Y173846D01*
X267531Y159272D02*
X271468D01*
X269500Y157303D02*
Y161240D01*
X282500Y157303D02*
Y161240D01*
X280532Y159272D02*
X284469D01*
X282500Y170697D02*
Y173846D01*
X280925Y172272D02*
X284075D01*
X256031Y159272D02*
X259968D01*
X258000Y157303D02*
Y161240D01*
X188500Y12890D02*
Y16827D01*
X186531Y14858D02*
X190469D01*
X225500Y13425D02*
Y16575D01*
X223925Y15000D02*
X227075D01*
X198434Y178000D02*
X202371D01*
X200403Y176031D02*
Y179969D01*
X187000Y176031D02*
Y179969D01*
X185031Y178000D02*
X188969D01*
X213956Y176031D02*
Y179969D01*
X211987Y178000D02*
X215924D01*
X225390D02*
X229327D01*
X227358Y176031D02*
Y179969D01*
X240004Y220031D02*
Y223969D01*
X238035Y222000D02*
X241972D01*
X277000Y233531D02*
Y237469D01*
X275031Y235500D02*
X278969D01*
X240000Y233531D02*
Y237469D01*
X238032Y235500D02*
X241968D01*
X255031Y215500D02*
X258968D01*
X257000Y213531D02*
Y217469D01*
X168731Y58513D02*
X172668D01*
X170700Y56544D02*
Y60481D01*
Y64041D02*
Y67978D01*
X168731Y66010D02*
X172668D01*
X220597Y123031D02*
Y126969D01*
X218629Y125000D02*
X222566D01*
X170531Y97500D02*
X174469D01*
X172500Y95531D02*
Y99468D01*
X220048Y144032D02*
Y147968D01*
X218080Y146000D02*
X222017D01*
X224986Y145016D02*
X228136D01*
X226561Y143441D02*
Y146591D01*
X278500Y201031D02*
Y204969D01*
X276532Y203000D02*
X280469D01*
X273031Y215500D02*
X276969D01*
X275000Y213531D02*
Y217469D01*
X296051Y53925D02*
Y57075D01*
X294476Y55500D02*
X297626D01*
X181032Y276000D02*
X184968D01*
X183000Y274031D02*
Y277969D01*
X205103Y256031D02*
Y259968D01*
X203135Y258000D02*
X207072D01*
X257511Y55500D02*
X261448D01*
X259479Y53531D02*
Y57468D01*
X300500Y208925D02*
Y212075D01*
X298925Y210500D02*
X302075D01*
X296500Y245425D02*
Y248575D01*
X294925Y247000D02*
X298075D01*
X127000Y56391D02*
Y59540D01*
X125425Y57965D02*
X128575D01*
X119897Y57966D02*
X123046D01*
X121471Y56391D02*
Y59540D01*
X240925Y76500D02*
X244075D01*
X242500Y74925D02*
Y78075D01*
X235500Y75032D02*
Y78969D01*
X233531Y77000D02*
X237469D01*
X191400Y145924D02*
X194549D01*
X192974Y144349D02*
Y147499D01*
X186462Y144940D02*
Y148877D01*
X184493Y146908D02*
X188430D01*
X199487Y144940D02*
Y148877D01*
X197519Y146908D02*
X201456D01*
X191500Y124526D02*
Y128463D01*
X189532Y126494D02*
X193468D01*
X189481Y118997D02*
X193418D01*
X191450Y117029D02*
Y120966D01*
X189532Y111500D02*
X193468D01*
X191500Y109531D02*
Y113469D01*
X205054Y146202D02*
X208991D01*
X207023Y144233D02*
Y148170D01*
X213535Y143643D02*
Y146792D01*
X211961Y145218D02*
X215110D01*
X223642Y41532D02*
Y45469D01*
X221673Y43500D02*
X225610D01*
X223642Y49031D02*
Y52969D01*
X221673Y51000D02*
X225610D01*
X177912Y146088D02*
X181062D01*
X179487Y144513D02*
Y147663D01*
X181000Y121531D02*
Y125469D01*
X179032Y123500D02*
X182968D01*
X169500Y117925D02*
Y121075D01*
X167925Y119500D02*
X171075D01*
X168500Y111019D02*
Y114956D01*
X166532Y112987D02*
X170468D01*
X164530Y13032D02*
Y16969D01*
X162561Y15000D02*
X166498D01*
X161970Y8487D02*
X165120D01*
X163545Y6912D02*
Y10062D01*
X136500Y72031D02*
Y75968D01*
X134531Y74000D02*
X138469D01*
X150000Y72031D02*
Y75968D01*
X148031Y74000D02*
X151969D01*
X123925Y83500D02*
X127075D01*
X125500Y81925D02*
Y85075D01*
X322500Y257925D02*
Y261075D01*
X320925Y259500D02*
X324075D01*
X300925Y247000D02*
X304075D01*
X302500Y245425D02*
Y248575D01*
X139925Y130500D02*
X143075D01*
X141500Y128925D02*
Y132075D01*
X320925Y248000D02*
X324075D01*
X322500Y246425D02*
Y249575D01*
X304925Y210500D02*
X308075D01*
X306500Y208925D02*
Y212075D01*
X327000Y212425D02*
Y215575D01*
X325425Y214000D02*
X328575D01*
X232031Y125000D02*
X235968D01*
X234000Y123031D02*
Y126969D01*
X209162Y114000D02*
X212312D01*
X210737Y112425D02*
Y115575D01*
X184692Y249618D02*
X187841D01*
X186267Y248043D02*
Y251193D01*
X183725Y258425D02*
Y261575D01*
X182150Y260000D02*
X185300D01*
X212222Y240000D02*
X216159D01*
X214191Y238032D02*
Y241968D01*
X195500Y238032D02*
Y241968D01*
X193532Y240000D02*
X197468D01*
X215000Y231912D02*
Y235062D01*
X213425Y233487D02*
X216575D01*
X217531Y277800D02*
X221468D01*
X219500Y275832D02*
Y279769D01*
X232031Y94000D02*
X235968D01*
X234000Y92032D02*
Y95969D01*
X327000Y223925D02*
Y227075D01*
X325425Y225500D02*
X328575D01*
X84109Y209500D02*
X87259D01*
X85684Y207925D02*
Y211075D01*
X84109Y203500D02*
X87259D01*
X85684Y201925D02*
Y205075D01*
X104032Y211300D02*
X107968D01*
X106000Y209332D02*
Y213269D01*
X74248Y201925D02*
Y205075D01*
X72673Y203500D02*
X75823D01*
X96131Y191532D02*
Y195468D01*
X94162Y193500D02*
X98099D01*
X179326Y248496D02*
Y252433D01*
X177358Y250465D02*
X181295D01*
X181500Y230031D02*
Y233968D01*
X179532Y232000D02*
X183468D01*
X124500Y209032D02*
Y212968D01*
X122531Y211000D02*
X126469D01*
X227500Y257493D02*
Y261430D01*
X225532Y259462D02*
X229468D01*
X198000Y279031D02*
Y282968D01*
X196031Y281000D02*
X199969D01*
X192000Y230031D02*
Y233968D01*
X190032Y232000D02*
X193968D01*
X260000Y268032D02*
Y271969D01*
X258032Y270000D02*
X261968D01*
X192000Y222928D02*
Y226865D01*
X190032Y224897D02*
X193968D01*
X297000Y179425D02*
Y182575D01*
X295425Y181000D02*
X298575D01*
X168425Y82000D02*
X171575D01*
X170000Y80425D02*
Y83575D01*
X128425Y187500D02*
X131575D01*
X130000Y185925D02*
Y189075D01*
X145925Y195000D02*
X149075D01*
X147500Y193425D02*
Y196575D01*
Y185925D02*
Y189075D01*
X145925Y187500D02*
X149075D01*
X130000Y193425D02*
Y196575D01*
X128425Y195000D02*
X131575D01*
X112000Y66925D02*
Y70075D01*
X110425Y68500D02*
X113575D01*
X149000Y149925D02*
Y153075D01*
X147425Y151500D02*
X150575D01*
X136544Y148371D02*
X140481D01*
X138513Y146403D02*
Y150339D01*
X126425Y145500D02*
X129575D01*
X128000Y143925D02*
Y147075D01*
X119971Y81925D02*
Y85075D01*
X118397Y83500D02*
X121546D01*
X136597Y101302D02*
Y105239D01*
X134629Y103270D02*
X138566D01*
X150000Y101302D02*
Y105239D01*
X148031Y103270D02*
X151969D01*
X128000Y150425D02*
Y153575D01*
X126425Y152000D02*
X129575D01*
X110925Y93000D02*
X114075D01*
X112500Y91425D02*
Y94575D01*
X141500Y117425D02*
Y120575D01*
X139925Y119000D02*
X143075D01*
X132500Y130925D02*
Y134075D01*
X130925Y132500D02*
X134075D01*
X132500Y125119D02*
Y128269D01*
X130925Y126694D02*
X134075D01*
X10000Y140532D02*
Y144468D01*
X8032Y142500D02*
X11969D01*
D78*
X306291Y260335D02*
X317827D01*
Y254547D02*
Y260335D01*
X306291Y254547D02*
X317827D01*
X306291D02*
Y260335D01*
X310291Y223335D02*
X321827D01*
Y217547D02*
Y223335D01*
X310291Y217547D02*
X321827D01*
X310291D02*
Y223335D01*
X145665Y123291D02*
Y134827D01*
X151453D01*
Y123291D02*
Y134827D01*
X145665Y123291D02*
X151453D01*
X253291Y36835D02*
X264827D01*
Y31047D02*
Y36835D01*
X253291Y31047D02*
X264827D01*
X253291D02*
Y36835D01*
X233291Y37335D02*
X244827D01*
Y31547D02*
Y37335D01*
X233291Y31547D02*
X244827D01*
X233291D02*
Y37335D01*
X311291D02*
X322827D01*
Y31547D02*
Y37335D01*
X311291Y31547D02*
X322827D01*
X311291D02*
Y37335D01*
X282291Y36835D02*
X293827D01*
Y31047D02*
Y36835D01*
X282291Y31047D02*
X293827D01*
X282291D02*
Y36835D01*
X138980Y231319D02*
X141618D01*
X138862Y231201D02*
X138980Y231319D01*
X138862Y203681D02*
Y231201D01*
Y203681D02*
X154138D01*
Y231319D01*
X141618D02*
X154138D01*
X229090Y55500D02*
Y106500D01*
X178000D02*
X229090D01*
X178000Y55500D02*
Y106500D01*
Y55500D02*
X229090D01*
X135205Y83764D02*
X146031D01*
X135205D02*
Y98331D01*
X149772D01*
Y83764D02*
Y98331D01*
X146031Y83764D02*
X149772D01*
X203835Y47618D02*
X208165D01*
X203835Y37382D02*
X208165D01*
Y47618D01*
X203835Y37382D02*
Y47618D01*
X191118Y46335D02*
Y50665D01*
X180882Y46335D02*
Y50665D01*
Y46335D02*
X191118D01*
X180882Y50665D02*
X191118D01*
X192382D02*
X202618D01*
X192382Y46335D02*
X202618D01*
X192382D02*
Y50665D01*
X202618Y46335D02*
Y50665D01*
X192000Y38444D02*
Y40806D01*
X190819Y39625D02*
X193181D01*
X181173Y45137D02*
X182158D01*
X181173Y34113D02*
Y45137D01*
Y34113D02*
X202630D01*
Y45137D01*
X182158D02*
X202630D01*
X267335Y167154D02*
Y177390D01*
X271665Y167154D02*
Y177390D01*
X267335Y167154D02*
X271665D01*
X267335Y177390D02*
X271665D01*
X255835Y167154D02*
Y177390D01*
X260165Y167154D02*
Y177390D01*
X255835Y167154D02*
X260165D01*
X255835Y177390D02*
X260165D01*
X266547Y153366D02*
Y165177D01*
X272453Y153366D02*
Y165177D01*
X266547Y153366D02*
X272453D01*
X266547Y165177D02*
X272453D01*
X279547D02*
X285453D01*
X279547Y153366D02*
X285453D01*
Y165177D01*
X279547Y153366D02*
Y165177D01*
X280335Y177390D02*
X284665D01*
X280335Y167154D02*
X284665D01*
Y177390D01*
X280335Y167154D02*
Y177390D01*
X294213Y168500D02*
X295787D01*
X295000Y167713D02*
Y169287D01*
X290669Y174406D02*
X299331D01*
Y162594D02*
Y174406D01*
X290669Y162594D02*
X299331D01*
X290669D02*
Y174406D01*
X255047Y153366D02*
Y165177D01*
X260953Y153366D02*
Y165177D01*
X255047Y153366D02*
X260953D01*
X255047Y165177D02*
X260953D01*
X193290Y5500D02*
Y26327D01*
X221637Y5500D02*
Y26327D01*
X193290D02*
X221637D01*
X193290Y5500D02*
X221637D01*
X185350Y20961D02*
X191650D01*
X185350Y8756D02*
X191650D01*
Y20961D01*
X185350Y8756D02*
Y20961D01*
X223335Y9882D02*
X227665D01*
X223335Y20118D02*
X227665D01*
X223335Y9882D02*
Y20118D01*
X227665Y9882D02*
Y20118D01*
X206505Y174850D02*
Y181150D01*
X194300Y174850D02*
Y181150D01*
X206505D01*
X194300Y174850D02*
X206505D01*
X180898Y181150D02*
X193102D01*
X180898Y174850D02*
X193102D01*
Y181150D01*
X180898Y174850D02*
Y181150D01*
X180000Y182847D02*
X206000D01*
X180000D02*
Y215525D01*
X206000Y215686D01*
Y182847D02*
Y215686D01*
X233500Y182348D02*
Y215186D01*
X207500Y215025D02*
X233500Y215186D01*
X207500Y182348D02*
Y215025D01*
Y182348D02*
X233500D01*
X207853Y181150D02*
X220058D01*
X207853Y174850D02*
X220058D01*
Y181150D01*
X207853Y174850D02*
Y181150D01*
X233461Y174850D02*
Y181150D01*
X221256Y174850D02*
Y181150D01*
X233461D01*
X221256Y174850D02*
X233461D01*
X231343Y216094D02*
X248665D01*
X231343Y227906D02*
X248665D01*
Y216094D02*
Y227906D01*
X231343Y216094D02*
Y227906D01*
X268339Y229594D02*
X285661D01*
X268339Y241406D02*
X285661D01*
Y229594D02*
Y241406D01*
X268339Y229594D02*
Y241406D01*
X231339Y229594D02*
X248661D01*
X231339Y241406D02*
X248661D01*
Y229594D02*
Y241406D01*
X231339Y229594D02*
Y241406D01*
X77217Y195953D02*
Y197724D01*
X91783D01*
Y188276D02*
Y197724D01*
X77217Y188276D02*
X91783D01*
X77217D02*
Y195953D01*
X259953Y209594D02*
Y221406D01*
X254047Y209594D02*
Y221406D01*
X259953D01*
X254047Y209594D02*
X259953D01*
X225124Y114000D02*
X227486D01*
X226305Y112819D02*
Y115181D01*
X214100Y107701D02*
Y117543D01*
Y107701D02*
X238510D01*
Y120299D01*
X214100D02*
X238510D01*
X214100Y117543D02*
Y120299D01*
X176802Y55363D02*
Y61662D01*
X164597Y55363D02*
Y61662D01*
Y55363D02*
X176802D01*
X164597Y61662D02*
X176802D01*
X164597Y62860D02*
X176802D01*
X164597Y69160D02*
X176802D01*
Y62860D02*
Y69160D01*
X164597Y62860D02*
Y69160D01*
X214495Y128150D02*
X226700D01*
X214495Y121850D02*
X226700D01*
X214495D02*
Y128150D01*
X226700Y121850D02*
Y128150D01*
X175650Y91398D02*
Y103602D01*
X169350Y91398D02*
Y103602D01*
X175650D01*
X169350Y91398D02*
X175650D01*
X216899Y152102D02*
X223198D01*
X216899Y139898D02*
X223198D01*
Y152102D01*
X216899Y139898D02*
Y152102D01*
X224396Y139898D02*
Y150134D01*
X228727Y139898D02*
Y150134D01*
X224396Y139898D02*
X228727D01*
X224396Y150134D02*
X228727D01*
X272398Y199850D02*
X284602D01*
X272398Y206150D02*
X284602D01*
Y199850D02*
Y206150D01*
X272398Y199850D02*
Y206150D01*
X268500Y207500D02*
Y223500D01*
X281500Y207500D02*
Y223500D01*
X268500Y207500D02*
X281500D01*
X268500Y223500D02*
X281500D01*
X293886Y50382D02*
X298217D01*
X293886Y60618D02*
X298217D01*
X293886Y50382D02*
Y60618D01*
X298217Y50382D02*
Y60618D01*
X177094Y267339D02*
Y284661D01*
X188906Y267339D02*
Y284661D01*
X177094Y267339D02*
X188906D01*
X177094Y284661D02*
X188906D01*
X190103Y244500D02*
X220103D01*
X190103Y271500D02*
X220103D01*
Y244500D02*
Y271500D01*
X190103Y244500D02*
Y271500D01*
X256330Y49398D02*
Y61602D01*
X262629Y49398D02*
Y61602D01*
X256330Y49398D02*
X262629D01*
X256330Y61602D02*
X262629D01*
X263827Y45326D02*
Y66153D01*
X292173Y45326D02*
Y66153D01*
X263827D02*
X292173D01*
X263827Y45326D02*
X292173D01*
X298335Y205382D02*
X302665D01*
X298335Y215618D02*
X302665D01*
X298335Y205382D02*
Y215618D01*
X302665Y205382D02*
Y215618D01*
X294335Y241882D02*
X298665D01*
X294335Y252118D02*
X298665D01*
X294335Y241882D02*
Y252118D01*
X298665Y241882D02*
Y252118D01*
X133607Y13786D02*
X135969D01*
X134788Y12212D02*
Y15361D01*
X112347Y25794D02*
X157229D01*
Y1778D02*
Y25794D01*
X112347Y1778D02*
X157229D01*
X112347D02*
Y25794D01*
X124835Y52847D02*
X129165D01*
X124835Y63084D02*
X129165D01*
X124835Y52847D02*
Y63084D01*
X129165Y52847D02*
Y63084D01*
X119306Y52847D02*
Y63084D01*
X123637Y52847D02*
Y63084D01*
X119306Y52847D02*
X123637D01*
X119306Y63084D02*
X123637D01*
X244665Y71382D02*
Y81618D01*
X240335Y71382D02*
Y81618D01*
X244665D01*
X240335Y71382D02*
X244665D01*
X232547Y82906D02*
X238453D01*
X232547Y71095D02*
X238453D01*
Y82906D01*
X232547Y71095D02*
Y82906D01*
X190809Y140806D02*
Y151042D01*
X195140Y140806D02*
Y151042D01*
X190809Y140806D02*
X195140D01*
X190809Y151042D02*
X195140D01*
X183312Y153011D02*
X189611D01*
X183312Y140806D02*
X189611D01*
Y153011D01*
X183312Y140806D02*
Y153011D01*
X196338D02*
X202637D01*
X196338Y140806D02*
X202637D01*
Y153011D01*
X196338Y140806D02*
Y153011D01*
X185398Y129644D02*
X197602D01*
X185398Y123345D02*
X197602D01*
X185398D02*
Y129644D01*
X197602Y123345D02*
Y129644D01*
X197552Y115848D02*
Y122147D01*
X185347Y115848D02*
Y122147D01*
Y115848D02*
X197552D01*
X185347Y122147D02*
X197552D01*
X185398Y108350D02*
Y114650D01*
X197602Y108350D02*
Y114650D01*
X185398D02*
X197602D01*
X185398Y108350D02*
X197602D01*
X203873Y140099D02*
Y152304D01*
X210172Y140099D02*
Y152304D01*
X203873Y140099D02*
X210172D01*
X203873Y152304D02*
X210172D01*
X211370Y150336D02*
X215701D01*
X211370Y140099D02*
X215701D01*
Y150336D01*
X211370Y140099D02*
Y150336D01*
X217539Y46650D02*
X229744D01*
X217539Y40350D02*
X229744D01*
X217539D02*
Y46650D01*
X229744Y40350D02*
Y46650D01*
X217539Y47850D02*
X229744D01*
X217539Y54150D02*
X229744D01*
Y47850D02*
Y54150D01*
X217539Y47850D02*
Y54150D01*
X177322Y140970D02*
Y151206D01*
X181652Y140970D02*
Y151206D01*
X177322Y140970D02*
X181652D01*
X177322Y151206D02*
X181652D01*
X177850Y117398D02*
X184150D01*
X177850Y129602D02*
X184150D01*
X177850Y117398D02*
Y129602D01*
X184150Y117398D02*
Y129602D01*
X164382Y117335D02*
X174618D01*
X164382Y121665D02*
X174618D01*
Y117335D02*
Y121665D01*
X164382Y117335D02*
Y121665D01*
X162398Y109838D02*
X174602D01*
X162398Y116137D02*
X174602D01*
Y109838D02*
Y116137D01*
X162398Y109838D02*
Y116137D01*
X158427Y11850D02*
X170632D01*
X158427Y18150D02*
X170632D01*
Y11850D02*
Y18150D01*
X158427Y11850D02*
Y18150D01*
Y6322D02*
Y10652D01*
X168663Y6322D02*
Y10652D01*
X158427D02*
X168663D01*
X158427Y6322D02*
X168663D01*
X136169Y54705D02*
X146996D01*
X136169D02*
Y69272D01*
X150736D01*
Y54705D02*
Y69272D01*
X146996Y54705D02*
X150736D01*
X130398Y77150D02*
X142602D01*
X130398Y70850D02*
X142602D01*
X130398D02*
Y77150D01*
X142602Y70850D02*
Y77150D01*
X143898Y70850D02*
X156102D01*
X143898Y77150D02*
X156102D01*
Y70850D02*
Y77150D01*
X143898Y70850D02*
Y77150D01*
X127665Y78382D02*
Y88618D01*
X123335Y78382D02*
Y88618D01*
X127665D01*
X123335Y78382D02*
X127665D01*
X320335Y264618D02*
X324665D01*
X320335Y254382D02*
X324665D01*
Y264618D01*
X320335Y254382D02*
Y264618D01*
X19669Y128500D02*
X79118D01*
Y158000D01*
X19669D02*
X79118D01*
X19669Y128500D02*
Y158000D01*
X304665Y241882D02*
Y252118D01*
X300335Y241882D02*
Y252118D01*
X304665D01*
X300335Y241882D02*
X304665D01*
X139335Y125382D02*
Y135618D01*
X143665Y125382D02*
Y135618D01*
X139335Y125382D02*
X143665D01*
X139335Y135618D02*
X143665D01*
X324665Y242882D02*
Y253118D01*
X320335Y242882D02*
Y253118D01*
X324665D01*
X320335Y242882D02*
X324665D01*
X313000Y246713D02*
Y248287D01*
X312213Y247500D02*
X313787D01*
X307095Y243169D02*
Y251831D01*
X318905D01*
Y243169D02*
Y251831D01*
X307095Y243169D02*
X318905D01*
X308665Y205382D02*
Y215618D01*
X304335Y205382D02*
Y215618D01*
X308665D01*
X304335Y205382D02*
X308665D01*
X317000Y209713D02*
Y211287D01*
X316213Y210500D02*
X317787D01*
X311094Y206169D02*
Y214831D01*
X322905D01*
Y206169D02*
Y214831D01*
X311094Y206169D02*
X322905D01*
X324835Y208882D02*
X329165D01*
X324835Y219118D02*
X329165D01*
X324835Y208882D02*
Y219118D01*
X329165Y208882D02*
Y219118D01*
X227898Y121850D02*
Y128150D01*
X240102Y121850D02*
Y128150D01*
X227898D02*
X240102D01*
X227898Y121850D02*
X240102D01*
X212903Y108882D02*
Y119118D01*
X208572Y108882D02*
Y119118D01*
X212903D01*
X208572Y108882D02*
X212903D01*
X188432Y244500D02*
Y254736D01*
X184101Y244500D02*
Y254736D01*
X188432D01*
X184101Y244500D02*
X188432D01*
X178607Y257835D02*
X188843D01*
X178607Y262165D02*
X188843D01*
Y257835D02*
Y262165D01*
X178607Y257835D02*
Y262165D01*
X208089Y236850D02*
Y243150D01*
X220293Y236850D02*
Y243150D01*
X208089D02*
X220293D01*
X208089Y236850D02*
X220293D01*
X189398Y243150D02*
X201602D01*
X189398Y236850D02*
X201602D01*
X189398D02*
Y243150D01*
X201602Y236850D02*
Y243150D01*
X209882Y231322D02*
X220118D01*
X209882Y235652D02*
X220118D01*
Y231322D02*
Y235652D01*
X209882Y231322D02*
Y235652D01*
X225602Y274651D02*
Y280950D01*
X213398Y274651D02*
Y280950D01*
Y274651D02*
X225602D01*
X213398Y280950D02*
X225602D01*
X230850Y87898D02*
Y100102D01*
X237150Y87898D02*
Y100102D01*
X230850Y87898D02*
X237150D01*
X230850Y100102D02*
X237150D01*
X324835Y230618D02*
X329165D01*
X324835Y220382D02*
X329165D01*
Y230618D01*
X324835Y220382D02*
Y230618D01*
X90802Y207335D02*
Y211665D01*
X80566Y207335D02*
Y211665D01*
Y207335D02*
X90802D01*
X80566Y211665D02*
X90802D01*
Y201335D02*
Y205665D01*
X80566Y201335D02*
Y205665D01*
Y201335D02*
X90802D01*
X80566Y205665D02*
X90802D01*
X92000Y200800D02*
Y221800D01*
X120000Y200800D02*
Y221800D01*
X92000D02*
X120000D01*
X92000Y200800D02*
X120000D01*
X104194Y241151D02*
X106556D01*
X105375Y239970D02*
Y242332D01*
X90414Y233474D02*
Y248828D01*
Y233474D02*
X120336D01*
Y248828D01*
X90414D02*
X120336D01*
X133732Y39642D02*
X136094D01*
X134913Y38067D02*
Y41216D01*
X112472Y27634D02*
X157354D01*
X112472D02*
Y51650D01*
X157354D01*
Y27634D02*
Y51650D01*
X69130Y205665D02*
X79366D01*
X69130Y201335D02*
X79366D01*
X69130D02*
Y205665D01*
X79366Y201335D02*
Y205665D01*
X92981Y187398D02*
X99281D01*
X92981Y199602D02*
X99281D01*
X92981Y187398D02*
Y199602D01*
X99281Y187398D02*
Y199602D01*
X90984Y144039D02*
Y147976D01*
X88425Y145811D02*
X92953D01*
X80158Y125535D02*
X99449D01*
X80158D02*
Y166087D01*
X99843D01*
Y125929D02*
Y166087D01*
X99449Y125535D02*
X99843Y125929D01*
X176177Y244363D02*
X182476D01*
X176177Y256567D02*
X182476D01*
X176177Y244363D02*
Y256567D01*
X182476Y244363D02*
Y256567D01*
X178350Y238102D02*
X184650D01*
X178350Y225898D02*
X184650D01*
Y238102D01*
X178350Y225898D02*
Y238102D01*
X121350Y217102D02*
X127650D01*
X121350Y204898D02*
X127650D01*
Y217102D01*
X121350Y204898D02*
Y217102D01*
X221398Y247847D02*
X233602D01*
X221398Y271076D02*
X233602D01*
X221398Y247847D02*
Y271076D01*
X233602Y247847D02*
Y271076D01*
X191898Y284150D02*
X204102D01*
X191898Y277850D02*
X204102D01*
X191898D02*
Y284150D01*
X204102Y277850D02*
Y284150D01*
X186094Y229047D02*
X197906D01*
X186094Y234953D02*
X197906D01*
Y229047D02*
Y234953D01*
X186094Y229047D02*
Y234953D01*
X235394Y296969D02*
X284606D01*
X235394Y243032D02*
X284606D01*
Y296969D01*
X235394Y243032D02*
Y296969D01*
X186094Y227849D02*
X197906D01*
X186094Y221944D02*
X197906D01*
X186094D02*
Y227849D01*
X197906Y221944D02*
Y227849D01*
X294835Y186118D02*
X299165D01*
X294835Y175882D02*
X299165D01*
Y186118D01*
X294835Y175882D02*
Y186118D01*
X167835Y76882D02*
Y87118D01*
X172165Y76882D02*
Y87118D01*
X167835Y76882D02*
X172165D01*
X167835Y87118D02*
X172165D01*
X124882Y185335D02*
Y189665D01*
X135118Y185335D02*
Y189665D01*
X124882D02*
X135118D01*
X124882Y185335D02*
X135118D01*
X142382Y192835D02*
Y197165D01*
X152618Y192835D02*
Y197165D01*
X142382D02*
X152618D01*
X142382Y192835D02*
X152618D01*
X142382Y189665D02*
X152618D01*
X142382Y185335D02*
X152618D01*
X142382D02*
Y189665D01*
X152618Y185335D02*
Y189665D01*
X121000Y155671D02*
X156000D01*
Y183671D01*
X121000D02*
X156000D01*
X121000Y155671D02*
Y183671D01*
X124882Y197165D02*
X135118D01*
X124882Y192835D02*
X135118D01*
X124882D02*
Y197165D01*
X135118Y192835D02*
Y197165D01*
X109835Y63382D02*
X114165D01*
X109835Y73618D02*
X114165D01*
X109835Y63382D02*
Y73618D01*
X114165Y63382D02*
Y73618D01*
X143882Y153665D02*
X154118D01*
X143882Y149335D02*
X154118D01*
X143882D02*
Y153665D01*
X154118Y149335D02*
Y153665D01*
X141662Y142269D02*
Y154473D01*
X135363Y142269D02*
Y154473D01*
X141662D01*
X135363Y142269D02*
X141662D01*
X133118Y143335D02*
Y147665D01*
X122882Y143335D02*
Y147665D01*
Y143335D02*
X133118D01*
X122882Y147665D02*
X133118D01*
X117806Y88618D02*
X122137D01*
X117806Y78382D02*
X122137D01*
Y88618D01*
X117806Y78382D02*
Y88618D01*
X130495Y106420D02*
X142700D01*
X130495Y100120D02*
X142700D01*
X130495D02*
Y106420D01*
X142700Y100120D02*
Y106420D01*
X143898Y100120D02*
X156102D01*
X143898Y106420D02*
X156102D01*
Y100120D02*
Y106420D01*
X143898Y100120D02*
Y106420D01*
X122882Y149835D02*
X133118D01*
X122882Y154165D02*
X133118D01*
Y149835D02*
Y154165D01*
X122882Y149835D02*
Y154165D01*
X114665Y87882D02*
Y98118D01*
X110335Y87882D02*
Y98118D01*
X114665D01*
X110335Y87882D02*
X114665D01*
X139335Y124118D02*
X143665D01*
X139335Y113882D02*
X143665D01*
Y124118D01*
X139335Y113882D02*
Y124118D01*
X126094Y123331D02*
X137906D01*
X126094Y114669D02*
Y123331D01*
Y114669D02*
X137906D01*
Y123331D01*
X131213Y119000D02*
X132787D01*
X132000Y118213D02*
Y119787D01*
X127382Y130335D02*
X137618D01*
X127382Y134665D02*
X137618D01*
Y130335D02*
Y134665D01*
X127382Y130335D02*
Y134665D01*
Y124529D02*
X137618D01*
X127382Y128859D02*
X137618D01*
Y124529D02*
Y128859D01*
X127382Y124529D02*
Y128859D01*
X3898Y130886D02*
X16102D01*
X3898Y154114D02*
X16102D01*
X3898Y130886D02*
Y154114D01*
X16102Y130886D02*
Y154114D01*
X32000Y113500D02*
X32000Y55500D01*
X32000Y113500D02*
X95000D01*
Y55500D02*
Y113500D01*
X32000Y55500D02*
X95000D01*
M02*
