G04*
G04 #@! TF.GenerationSoftware,Altium Limited,Altium Designer,21.2.0 (30)*
G04*
G04 Layer_Physical_Order=1*
G04 Layer_Color=255*
%FSLAX25Y25*%
%MOIN*%
G70*
G04*
G04 #@! TF.SameCoordinates,67EC13EC-3D0F-47E5-A8FF-4F5FDFC94078*
G04*
G04*
G04 #@! TF.FilePolarity,Positive*
G04*
G01*
G75*
%ADD12C,0.01000*%
%ADD20R,0.02323X0.01772*%
%ADD21R,0.01772X0.02323*%
%ADD22R,0.06299X0.09843*%
%ADD23R,0.09055X0.09055*%
%ADD24R,0.04724X0.01181*%
%ADD25R,0.01181X0.04724*%
%ADD26R,0.06496X0.06496*%
%ADD27R,0.00984X0.02756*%
%ADD28R,0.02756X0.00984*%
%ADD29R,0.03347X0.02756*%
%ADD30R,0.02756X0.03347*%
%ADD31R,0.07087X0.02953*%
%ADD32R,0.04921X0.02953*%
%ADD33R,0.02756X0.03543*%
%ADD34R,0.06102X0.02756*%
%ADD35R,0.05315X0.03937*%
%ADD36R,0.01000X0.01000*%
%ADD37R,0.04331X0.10827*%
%ADD38R,0.04300X0.01400*%
%ADD39R,0.01000X0.01000*%
%ADD40R,0.07480X0.09449*%
%ADD41R,0.03937X0.05315*%
%ADD42O,0.05709X0.02362*%
%ADD43R,0.02362X0.03937*%
%ADD44R,0.10827X0.04331*%
%ADD45R,0.12402X0.17717*%
%ADD46O,0.05512X0.01772*%
%ADD47R,0.08268X0.05512*%
%ADD48R,0.02200X0.07800*%
%ADD49R,0.03543X0.02756*%
%ADD50R,0.12598X0.14567*%
%ADD51R,0.02953X0.04921*%
%ADD52R,0.20079X0.15748*%
%ADD53R,0.07441X0.05000*%
%ADD57C,0.06000*%
%ADD58C,0.12598*%
%ADD59O,0.07874X0.06693*%
G04:AMPARAMS|DCode=60|XSize=66.93mil|YSize=78.74mil|CornerRadius=16.73mil|HoleSize=0mil|Usage=FLASHONLY|Rotation=270.000|XOffset=0mil|YOffset=0mil|HoleType=Round|Shape=RoundedRectangle|*
%AMROUNDEDRECTD60*
21,1,0.06693,0.04528,0,0,270.0*
21,1,0.03347,0.07874,0,0,270.0*
1,1,0.03346,-0.02264,-0.01673*
1,1,0.03346,-0.02264,0.01673*
1,1,0.03346,0.02264,0.01673*
1,1,0.03346,0.02264,-0.01673*
%
%ADD60ROUNDEDRECTD60*%
%ADD61C,0.10000*%
%ADD62O,0.06693X0.07874*%
G04:AMPARAMS|DCode=63|XSize=66.93mil|YSize=78.74mil|CornerRadius=16.73mil|HoleSize=0mil|Usage=FLASHONLY|Rotation=180.000|XOffset=0mil|YOffset=0mil|HoleType=Round|Shape=RoundedRectangle|*
%AMROUNDEDRECTD63*
21,1,0.06693,0.04528,0,0,180.0*
21,1,0.03347,0.07874,0,0,180.0*
1,1,0.03346,-0.01673,0.02264*
1,1,0.03346,0.01673,0.02264*
1,1,0.03346,0.01673,-0.02264*
1,1,0.03346,-0.01673,-0.02264*
%
%ADD63ROUNDEDRECTD63*%
%ADD64C,0.05906*%
%ADD65R,0.05906X0.05906*%
%ADD66C,0.23622*%
%ADD67C,0.05000*%
%ADD68C,0.03150*%
%ADD69C,0.01500*%
%ADD70C,0.02000*%
%ADD71C,0.04000*%
%ADD72C,0.05500*%
%ADD73C,0.02559*%
%ADD74C,0.03937*%
G36*
X103500Y233000D02*
X36500D01*
Y283500D01*
X103500D01*
Y233000D01*
D02*
G37*
G36*
X173555Y233057D02*
X106944D01*
Y283366D01*
X107055Y283476D01*
X173555D01*
Y233057D01*
D02*
G37*
G36*
X267250Y185500D02*
X242759D01*
X242759Y212000D01*
X255164D01*
X255481Y211613D01*
X255471Y211563D01*
X255587Y210978D01*
X255919Y210482D01*
X256415Y210150D01*
X257000Y210034D01*
X257524D01*
X258109Y210150D01*
X258605Y210482D01*
X259581Y211458D01*
X259913Y211954D01*
X259922Y212000D01*
X267250D01*
X267250Y185500D01*
D02*
G37*
G36*
X272500Y241478D02*
X272318Y241205D01*
X272240Y240815D01*
Y230185D01*
X272318Y229795D01*
X272500Y229522D01*
Y223669D01*
X269291D01*
Y219500D01*
X246371D01*
X246171Y220000D01*
X247089Y220919D01*
X247421Y221415D01*
X247537Y222000D01*
Y225248D01*
X247421Y225833D01*
X247089Y226329D01*
X246593Y226661D01*
X246008Y226777D01*
X245423Y226661D01*
X245264Y226555D01*
X244764Y226822D01*
Y227315D01*
X244686Y227705D01*
X244465Y228036D01*
X244134Y228257D01*
X244000Y228284D01*
Y229217D01*
X244130Y229243D01*
X244461Y229464D01*
X244682Y229795D01*
X244760Y230185D01*
Y233926D01*
X245260Y234193D01*
X245419Y234087D01*
X246004Y233971D01*
X246589Y234087D01*
X247085Y234419D01*
X247417Y234915D01*
X247533Y235500D01*
Y238748D01*
X247417Y239333D01*
X247085Y239829D01*
X244000Y242915D01*
Y250500D01*
X272500D01*
Y241478D01*
D02*
G37*
G36*
X211000Y256026D02*
X210930D01*
X210147Y255923D01*
X209417Y255621D01*
X208790Y255140D01*
X207294Y253644D01*
X206814Y253017D01*
X206511Y252287D01*
X206408Y251504D01*
X206511Y250721D01*
X206814Y249991D01*
X207294Y249364D01*
X207921Y248883D01*
X208651Y248581D01*
X209434Y248478D01*
X210217Y248581D01*
X210500Y248698D01*
X211000Y248364D01*
Y241834D01*
X210613Y241517D01*
X210549Y241529D01*
X209964Y241413D01*
X209468Y241081D01*
X209136Y240585D01*
X209020Y240000D01*
X209136Y239415D01*
X209468Y238919D01*
X210223Y238164D01*
Y237500D01*
X199000D01*
Y285015D01*
X211000D01*
Y256026D01*
D02*
G37*
%LPC*%
G36*
X62913Y267335D02*
X61165D01*
X59451Y266994D01*
X57836Y266325D01*
X56383Y265353D01*
X55146Y264118D01*
X54175Y262664D01*
X53506Y261049D01*
X53165Y259335D01*
Y257587D01*
X53506Y255872D01*
X54175Y254257D01*
X55146Y252804D01*
X56383Y251568D01*
X57836Y250597D01*
X59451Y249928D01*
X61165Y249587D01*
X62913D01*
X64628Y249928D01*
X66243Y250597D01*
X67696Y251568D01*
X68932Y252804D01*
X69903Y254257D01*
X70572Y255872D01*
X70913Y257587D01*
Y259335D01*
X70572Y261049D01*
X69903Y262664D01*
X68932Y264118D01*
X67696Y265353D01*
X66243Y266325D01*
X64628Y266994D01*
X62913Y267335D01*
D02*
G37*
G36*
X149335Y267374D02*
X147587D01*
X145872Y267033D01*
X144257Y266364D01*
X142804Y265393D01*
X141568Y264157D01*
X140597Y262703D01*
X139928Y261088D01*
X139587Y259374D01*
Y257626D01*
X139928Y255911D01*
X140597Y254297D01*
X141568Y252843D01*
X142804Y251607D01*
X144257Y250636D01*
X145872Y249967D01*
X147587Y249626D01*
X149335D01*
X151049Y249967D01*
X152664Y250636D01*
X154118Y251607D01*
X155353Y252843D01*
X156325Y254297D01*
X156994Y255911D01*
X157335Y257626D01*
Y259374D01*
X156994Y261088D01*
X156325Y262703D01*
X155353Y264157D01*
X154118Y265393D01*
X152664Y266364D01*
X151049Y267033D01*
X149335Y267374D01*
D02*
G37*
%LPD*%
D12*
X146177Y122248D02*
X148500Y124571D01*
X141500Y122248D02*
X146177D01*
X148500Y124571D02*
Y124846D01*
X306906Y214154D02*
Y219914D01*
X307491Y220500D02*
X311846D01*
X306906Y219914D02*
X307491Y220500D01*
X302500Y250248D02*
X302795D01*
X307846Y255299D01*
Y257500D01*
X284258Y32243D02*
Y33614D01*
X283846Y34000D02*
X283872D01*
X293815Y14000D02*
Y22685D01*
X284258Y32243D02*
X293815Y22685D01*
X283872Y34000D02*
X284258Y33614D01*
X308906Y34500D02*
X312846D01*
X308405Y34000D02*
X308906Y34500D01*
X251815Y32681D02*
X252748Y33614D01*
X254461D02*
X254847Y34000D01*
X252748Y33614D02*
X254461D01*
X229656Y33750D02*
X230405Y34500D01*
X234846D01*
X19929Y148799D02*
X24000Y152870D01*
X10000Y148799D02*
X19929D01*
X129252Y132205D02*
Y132500D01*
X128374Y131327D02*
X129252Y132205D01*
X128079Y131327D02*
X128374D01*
X124252Y127500D02*
X128079Y131327D01*
X35000Y127500D02*
X124252D01*
X30000Y132500D02*
X35000Y127500D01*
X30000Y132500D02*
Y146870D01*
X24000Y152870D02*
X30000Y146870D01*
X149404Y198000D02*
X149990Y197414D01*
Y195758D02*
X150748Y195000D01*
X149990Y195758D02*
Y197414D01*
X138500Y198000D02*
X149404D01*
X119668Y202827D02*
X152373D01*
X116728Y203800D02*
X118695D01*
X119668Y202827D01*
X152373Y202827D02*
X158422D01*
X152373Y202827D02*
X152373Y202827D01*
X182749Y178500D02*
X207500D01*
X158422Y202827D02*
X182749Y178500D01*
X82468Y209532D02*
Y214968D01*
X82500Y215000D01*
X82436Y209500D02*
X82468Y209532D01*
X90950Y189691D02*
Y190240D01*
X90987Y188556D02*
Y189654D01*
X92186Y187356D02*
Y187356D01*
X90987Y188556D02*
X92186Y187356D01*
X90950Y189691D02*
X90987Y189654D01*
X90750Y190440D02*
X90950Y190240D01*
X89300Y190440D02*
X90750D01*
X92186Y187356D02*
X94744Y184798D01*
X89132Y195560D02*
X93860D01*
X95442Y197142D02*
X96131D01*
X93860Y195560D02*
X95442Y197142D01*
X96131Y189858D02*
X101936D01*
X103078Y191000D01*
X103500D01*
X94744Y184798D02*
X95202D01*
X95500Y184500D01*
X210603Y224897D02*
X213000Y222500D01*
X195937Y224897D02*
X210603D01*
X199142Y239311D02*
Y240000D01*
X195831Y236000D02*
X199142Y239311D01*
X187500Y236000D02*
X195831D01*
X186267Y237233D02*
X187500Y236000D01*
X186267Y237233D02*
Y246370D01*
X195359Y246484D02*
X197673Y244170D01*
Y241469D02*
Y244170D01*
X193489Y246484D02*
X195359D01*
X197673Y241469D02*
X199142Y240000D01*
X250149Y162202D02*
X257016Y155335D01*
X258000D01*
X249298Y162202D02*
X250149D01*
X249000Y162500D02*
X249298Y162202D01*
X295477Y151500D02*
X297000D01*
X282500Y155335D02*
X291642D01*
X295477Y151500D01*
X269500Y155335D02*
X282500D01*
X133922Y60000D02*
X134926Y61004D01*
X133500Y60000D02*
X133922D01*
X134926Y61004D02*
X137941D01*
X134578Y56217D02*
X136985Y53811D01*
X129164Y60336D02*
X133282Y56217D01*
X127000Y61214D02*
X127878Y60336D01*
X136985Y53811D02*
X141525D01*
X133282Y56217D02*
X134578D01*
X127878Y60336D02*
X129164D01*
X132922Y88500D02*
X134477Y90055D01*
X132500Y88500D02*
X132922D01*
X136969Y90055D02*
X136976Y90063D01*
X134477Y90055D02*
X136969D01*
X125500Y86748D02*
X129252D01*
X133130Y82870D02*
X140561D01*
X129252Y86748D02*
X133130Y82870D01*
X135346Y121559D02*
X135740D01*
X132000Y118213D02*
X135346Y121559D01*
X132000Y110000D02*
Y118213D01*
X115500Y157500D02*
X121000Y152000D01*
X124752D01*
X139202Y152013D02*
X145239D01*
X144804Y146410D02*
X145627D01*
X145925Y146112D01*
X138513Y152013D02*
X139202D01*
X144804Y146410D01*
X138513Y144729D02*
X139202D01*
X141500Y133748D02*
X148957D01*
X139202Y144729D02*
X143403Y140528D01*
Y139597D02*
X148957Y134043D01*
X143403Y139597D02*
Y140528D01*
X138500Y152026D02*
Y159971D01*
Y152026D02*
X138513Y152013D01*
X161798Y116736D02*
X164858Y113676D01*
Y112987D02*
Y113676D01*
X161798Y116736D02*
Y118702D01*
X161500Y119000D02*
X161798Y118702D01*
X193673Y127963D02*
Y130905D01*
X192000Y132578D02*
X193673Y130905D01*
X192000Y132578D02*
Y133000D01*
X193673Y127963D02*
X195142Y126494D01*
X181000Y113500D02*
Y119858D01*
X248578Y79000D02*
X249000D01*
X242500Y79748D02*
X247830D01*
X248578Y79000D01*
X230358Y125000D02*
Y125689D01*
X235669Y131000D01*
X238500D01*
X220048Y149642D02*
X220500Y150093D01*
Y159500D01*
X184304Y152018D02*
X185773Y150550D01*
X178729Y161202D02*
X184304Y155627D01*
X176000Y161500D02*
X176298Y161202D01*
X185773Y150550D02*
X186462D01*
X184304Y152018D02*
Y155627D01*
X176298Y161202D02*
X178729D01*
X200194Y149844D02*
X207023D01*
X199487Y150550D02*
X200194Y149844D01*
X198798Y150550D02*
X199487D01*
X197330Y152018D02*
X198798Y150550D01*
X197330Y152018D02*
Y163670D01*
X194500Y166500D02*
X197330Y163670D01*
X172500Y20000D02*
X176428Y16072D01*
Y5514D02*
Y16072D01*
X152702Y4928D02*
X175842D01*
X176428Y5514D01*
X282142Y203000D02*
X282500Y202642D01*
Y196500D02*
Y202642D01*
X252500Y170315D02*
X257705Y175520D01*
X252500Y167000D02*
Y170315D01*
X257705Y175520D02*
X258000D01*
X271298Y198751D02*
X274858Y202311D01*
X271000Y197000D02*
X271298Y197298D01*
X274858Y202311D02*
Y203000D01*
X271298Y197298D02*
Y198751D01*
X321595Y37095D02*
X325500Y41000D01*
X321595Y34000D02*
Y37095D01*
X243094Y34000D02*
Y37635D01*
X246149Y40690D01*
X263094Y39094D02*
X265500Y41500D01*
X263094Y34000D02*
Y39094D01*
X293000Y40578D02*
Y41000D01*
X292094Y34000D02*
Y39673D01*
X293000Y40578D01*
X289000Y186000D02*
X294953D01*
X296705Y184248D02*
X297000D01*
X294953Y186000D02*
X296705Y184248D01*
X320094Y227673D02*
X321000Y228578D01*
X320094Y221000D02*
Y227673D01*
X321000Y228578D02*
Y229000D01*
X316622Y258000D02*
X317500Y258878D01*
Y267000D01*
X316595Y258000D02*
X316622D01*
X216720Y249041D02*
X219959D01*
X222500Y246500D01*
X216718Y249043D02*
X216720Y249041D01*
X222500Y246500D02*
X238252D01*
X246004Y238748D01*
X211752Y233487D02*
Y238797D01*
X210549Y240000D02*
X211752Y238797D01*
X227284Y43500D02*
Y51000D01*
X233500D01*
X222220Y55721D02*
Y58220D01*
X222500Y58500D01*
X221468Y54969D02*
X222220Y55721D01*
X220000Y51000D02*
X221468Y52469D01*
Y54969D01*
X185500Y30000D02*
Y36578D01*
X185307Y36771D02*
X185500Y36578D01*
X172873Y54873D02*
Y57044D01*
X174341Y58513D01*
X170000Y52000D02*
X172873Y54873D01*
X167058Y58513D02*
Y66010D01*
X163514Y54280D02*
X167058Y57824D01*
X163500Y51500D02*
X163514Y51514D01*
X167058Y57824D02*
Y58513D01*
X163514Y51514D02*
Y54280D01*
X143438Y62003D02*
X143453Y61988D01*
X143438Y62003D02*
Y62003D01*
X317500Y181500D02*
X322250Y186250D01*
X315500Y181500D02*
X317500D01*
X153642Y74689D02*
X156702Y77749D01*
Y79202D01*
X157000Y79500D01*
X153642Y74000D02*
Y74689D01*
X146358Y74000D02*
Y77858D01*
X148500Y80000D01*
X125922Y75500D02*
X127422Y74000D01*
X125500Y75500D02*
X125922D01*
X127422Y74000D02*
X132858D01*
X120267Y80252D02*
X124720Y75798D01*
X125202D01*
X125500Y75500D01*
X119971Y80252D02*
X120267D01*
X142500Y110000D02*
X142798Y109702D01*
X144515D01*
X146358Y107858D01*
Y103270D02*
Y107858D01*
X132000Y109578D02*
Y110000D01*
X132956Y103270D02*
Y108622D01*
X132000Y109578D02*
X132956Y108622D01*
X153642Y103270D02*
X164308D01*
X165078Y102500D01*
X165500D01*
Y94500D02*
X165922D01*
X166564Y93858D02*
X172500D01*
X165922Y94500D02*
X166564Y93858D01*
X165500Y102500D02*
X165922D01*
X167280Y101142D02*
X172500D01*
X165922Y102500D02*
X167280Y101142D01*
X141504Y96559D02*
X143472D01*
Y96569D01*
X143491Y96577D02*
X146358Y99445D01*
X143480Y96577D02*
X143491D01*
X146358Y99445D02*
Y103270D01*
X143472Y96569D02*
X143480Y96577D01*
X141504Y96559D02*
Y97429D01*
X140239Y98694D02*
Y103270D01*
Y98694D02*
X141504Y97429D01*
X118500Y48500D02*
Y48622D01*
Y48500D02*
X151449D01*
X121471Y51594D02*
Y54717D01*
X118500Y48622D02*
X121471Y51594D01*
X151449Y48500D02*
X152827D01*
X149193Y50756D02*
X151449Y48500D01*
X149193Y50756D02*
Y52819D01*
X146405Y55606D02*
X149193Y52819D01*
X146405Y55606D02*
Y56476D01*
X269205Y175520D02*
X269500D01*
X265000Y179724D02*
X269205Y175520D01*
X265000Y179724D02*
Y180000D01*
X320500Y135000D02*
X332000D01*
X332500Y134500D01*
X280326Y62826D02*
X288728D01*
X275326Y57826D02*
X280326Y62826D01*
X267272Y57826D02*
X275326D01*
X196735Y18000D02*
X198408D01*
X203408Y23000D02*
X218192D01*
X198408Y18000D02*
X203408Y23000D01*
X167280Y8000D02*
X172000D01*
X166793Y8487D02*
X167280Y8000D01*
X172482Y20000D02*
X172500D01*
X168171Y15000D02*
Y15689D01*
X172482Y20000D01*
X188000Y19000D02*
X188500Y18500D01*
X183000Y19000D02*
X188000D01*
X183000Y11000D02*
X188284D01*
X188500Y11216D01*
X258011Y57673D02*
X259479Y59142D01*
X255095Y57673D02*
X258011D01*
X254422Y57000D02*
X255095Y57673D01*
X254000Y57000D02*
X254422D01*
X251000Y51500D02*
X259121D01*
X259479Y51858D01*
X297500Y108000D02*
X308500Y119000D01*
X289734Y158266D02*
X313234D01*
X287000Y161000D02*
Y174193D01*
Y161000D02*
X289734Y158266D01*
X285673Y175520D02*
X287000Y174193D01*
X269500Y163209D02*
Y169024D01*
X282500Y163209D02*
Y169024D01*
X258000Y163209D02*
Y169024D01*
X282500Y175520D02*
X285673D01*
X313234Y158266D02*
X321000Y150500D01*
X258000Y175520D02*
X261173D01*
X265752Y170941D01*
Y153325D02*
Y170941D01*
Y153325D02*
X273077Y146000D01*
X286500D01*
X297500Y135000D01*
X241500Y165000D02*
Y168000D01*
X262000Y144500D02*
X272500D01*
X241500Y165000D02*
X262000Y144500D01*
X272500D02*
X282500Y134500D01*
X235500Y166500D02*
X235500D01*
X260500Y141500D02*
X269692D01*
X235500Y166500D02*
X260500Y141500D01*
X260000Y134500D02*
X267500D01*
X231500Y163000D02*
X260000Y134500D01*
X120000Y187500D02*
X126752D01*
X117000Y184500D02*
X120000Y187500D01*
X117000Y180500D02*
Y184500D01*
X150748Y187500D02*
X153500D01*
X159000Y182000D01*
X138500Y179371D02*
Y187000D01*
X124642Y207500D02*
X131500D01*
X124500Y207358D02*
X124642Y207500D01*
Y214500D02*
X131500D01*
X124500Y214642D02*
X124642Y214500D01*
X86000Y221399D02*
X93598Y213800D01*
X95272D01*
X86000Y221399D02*
Y225500D01*
X75000Y193000D02*
X79700D01*
X72500Y190500D02*
X75000Y193000D01*
X71000Y203205D02*
X78050Y196155D01*
X71000Y203205D02*
Y203500D01*
X78050Y195760D02*
Y196155D01*
Y195760D02*
X78250Y195560D01*
X79700D01*
X166252Y125000D02*
Y142368D01*
Y119500D02*
Y125000D01*
X168500D01*
X173000Y129500D01*
X179487Y152214D02*
Y156487D01*
X179500Y156500D01*
X192974Y157474D02*
X193000Y157500D01*
X192974Y152050D02*
Y157474D01*
X226279Y162721D02*
Y165220D01*
Y162721D02*
X267500Y121500D01*
X226000Y165500D02*
X226279Y165220D01*
X269692Y141500D02*
X275485Y135707D01*
Y128515D02*
X282500Y121500D01*
X275485Y128515D02*
Y135707D01*
X226561Y148264D02*
X226856D01*
X226266D02*
X226561D01*
X226856D02*
X260120Y115000D01*
X291000D01*
X297500Y121500D01*
X212362Y151728D02*
X216286Y155652D01*
X212317Y151683D02*
X212362Y151728D01*
Y163638D01*
Y149344D02*
Y151728D01*
X207642Y72142D02*
X215000Y79500D01*
Y98000D01*
X242379Y108000D02*
X297500D01*
X242367Y107988D02*
X242379Y108000D01*
X221500Y79315D02*
Y98021D01*
X204197Y62012D02*
X221500Y79315D01*
Y98021D02*
X231468Y107988D01*
X292755Y181702D02*
X296705Y177752D01*
X292298Y181702D02*
X292755D01*
X296705Y177752D02*
X297000D01*
X292000Y182000D02*
X292298Y181702D01*
X295298Y204298D02*
X297251D01*
X300205Y207252D02*
X300500D01*
X297251Y204298D02*
X300205Y207252D01*
X295000Y204000D02*
X295298Y204298D01*
X291000Y243500D02*
X291126Y243626D01*
X296374D02*
X296500Y243752D01*
X291126Y243626D02*
X296374D01*
X136071Y169000D02*
X176024D01*
X192974Y152050D01*
X128500Y176571D02*
X136071Y169000D01*
X135748Y126694D02*
Y132500D01*
X136134Y116441D02*
X140327Y120634D01*
Y121370D01*
X141205Y122248D02*
X141500D01*
X135740Y116441D02*
X136134D01*
X140327Y121370D02*
X141205Y122248D01*
X145326Y115752D02*
X153078Y108000D01*
X172500D01*
X182720Y97780D01*
X190220D02*
X197586Y90414D01*
X182720Y97780D02*
X190220D01*
X191541Y74110D02*
X197586Y80155D01*
Y90414D01*
X180862Y74110D02*
X191541D01*
X152248Y148174D02*
X153500Y146922D01*
X152248Y148174D02*
Y151500D01*
X153500Y146500D02*
Y146922D01*
X218248Y228252D02*
Y233487D01*
Y228252D02*
X223500Y223000D01*
X172142Y112298D02*
X184440Y100000D01*
X187601D01*
X187612Y99988D02*
X189860D01*
X187601Y100000D02*
X187612Y99988D01*
X189860D02*
X190614Y100742D01*
X258000Y77000D02*
X273000D01*
X249205Y68205D02*
X258000Y77000D01*
X226138Y68205D02*
X249205D01*
X278740Y209299D02*
X279421Y208618D01*
X282142Y203000D02*
Y206685D01*
X280209Y208618D02*
X282142Y206685D01*
X279421Y208618D02*
X280209D01*
X278740Y209299D02*
Y210087D01*
X274858Y203000D02*
X275000Y203142D01*
Y220913D01*
X278740D02*
X278827Y221000D01*
X286000D01*
X185284Y105000D02*
X186646Y103638D01*
X188736D01*
X185000Y105000D02*
X185284D01*
X141500Y115752D02*
X145326D01*
X154080Y22645D02*
X163145D01*
X152702D02*
X154080D01*
X163145D02*
X168500Y28000D01*
X295221Y46000D02*
X295500D01*
X288728Y47826D02*
X293395D01*
X295221Y46000D01*
X218192Y8000D02*
X223148D01*
X225571Y5576D01*
X198579Y58362D02*
Y63157D01*
X200000Y64578D01*
Y65000D01*
X196520Y58453D02*
Y61480D01*
X194500Y63500D02*
X196520Y61480D01*
Y58453D02*
X196610Y58362D01*
X179487Y142840D02*
X179914Y143266D01*
X187151D01*
X198579Y131838D01*
X193565Y143266D02*
X199487D01*
X192974Y142676D02*
X193565Y143266D01*
X199487D02*
X200547Y142206D01*
X198579Y103638D02*
Y131838D01*
X192974Y149172D02*
Y152050D01*
X128500Y176571D02*
Y179371D01*
X179487Y149336D02*
Y152214D01*
X166542Y165159D02*
X179487Y152214D01*
X130887Y165159D02*
X166542D01*
X128500Y162771D02*
X130887Y165159D01*
X128500Y159971D02*
Y162771D01*
X200547Y103638D02*
Y142206D01*
X180862Y72142D02*
X207642D01*
X180862Y76079D02*
X189490D01*
X184512Y81691D02*
X186376Y79826D01*
X180862Y95764D02*
X185314D01*
X180862Y83953D02*
X180953Y83862D01*
X180862Y85921D02*
X185157D01*
X186454Y84624D01*
X191412Y78000D02*
X191500D01*
X186459Y89624D02*
X186876D01*
X186078Y95000D02*
X186500D01*
X185314Y95764D02*
X186078Y95000D01*
X206476Y98024D02*
X206500Y98000D01*
X186376Y79624D02*
Y79826D01*
X180862Y87890D02*
X184724D01*
X189490Y76079D02*
X191412Y78000D01*
X184512Y81691D02*
Y83108D01*
X184724Y87890D02*
X186459Y89624D01*
X186454Y84624D02*
X186876D01*
X180953Y83862D02*
X183758D01*
X184512Y83108D01*
X206453Y103638D02*
X206476Y103614D01*
Y98024D02*
Y103614D01*
X204484Y103638D02*
Y126984D01*
X175810Y68167D02*
X180825D01*
X180862Y68205D01*
X216295Y45705D02*
Y58362D01*
X226138Y87890D02*
X230842D01*
X148965Y64941D02*
X154892D01*
X165451Y75500D01*
X174000D01*
X177213Y78713D01*
Y81139D01*
X210390Y44542D02*
Y58362D01*
X206362Y58272D02*
X206453Y58362D01*
X206362Y53362D02*
Y58272D01*
X208421Y47874D02*
Y58362D01*
X226138Y83953D02*
X332953D01*
X190614Y58272D02*
X190705Y58362D01*
X190614Y55467D02*
Y58272D01*
X226138Y78047D02*
X231626D01*
X173929Y85921D02*
X180862D01*
X226138D02*
X226217Y86000D01*
X325000D01*
X226138Y66236D02*
X251736D01*
X208421Y103638D02*
Y108731D01*
X204394Y58272D02*
X204484Y58362D01*
X204394Y55467D02*
Y58272D01*
X179090Y66236D02*
X180862D01*
X179000Y66146D02*
X179090Y66236D01*
X179000Y63860D02*
Y66146D01*
X211066Y107988D02*
X228364D01*
X202516Y103638D02*
Y138742D01*
X175221Y91827D02*
X180862D01*
X188646Y56500D02*
Y58272D01*
X188736Y58362D01*
X185646Y53500D02*
X188646Y56500D01*
X212358Y44695D02*
Y58362D01*
X180772Y93886D02*
X180862Y93795D01*
X177967Y93886D02*
X180772D01*
X226138Y93795D02*
X230000D01*
X214417Y61258D02*
X217518Y64358D01*
X342703Y65000D02*
X344000D01*
X340203Y67500D02*
X342703Y65000D01*
X256830Y67500D02*
X340203D01*
X253688Y64358D02*
X256830Y67500D01*
X217518Y64358D02*
X253688D01*
X180839Y87913D02*
X180862Y87890D01*
X156587Y87913D02*
X180839D01*
X226138Y95764D02*
X231433D01*
X183758Y70083D02*
X185000Y68840D01*
Y62725D02*
Y68840D01*
X154205Y30784D02*
X156461Y33039D01*
Y34185D01*
X185000Y62725D01*
X180772Y89949D02*
X180862Y89858D01*
X177967Y89949D02*
X180772D01*
X193529Y107555D02*
X194551Y106533D01*
X191114Y107555D02*
X193529D01*
X187858Y111500D02*
Y118947D01*
Y110811D02*
Y111500D01*
X196610Y103638D02*
Y110031D01*
X218264Y53425D02*
Y58362D01*
X190614Y103547D02*
X190705Y103638D01*
X190614Y100742D02*
Y103547D01*
X214327Y58362D02*
X214417Y58453D01*
Y61258D01*
X177213Y81139D02*
X177967Y81894D01*
X180772D01*
X180862Y81984D01*
X194551Y103728D02*
X194642Y103638D01*
X194551Y103728D02*
Y106533D01*
X200547Y58362D02*
X200638Y58453D01*
Y60698D01*
X200638Y60698D01*
Y61258D01*
X201392Y62012D01*
X204197D01*
X231468Y107988D02*
X242367D01*
X180953Y70083D02*
X183758D01*
X180862Y70173D02*
X180953Y70083D01*
X210390Y103638D02*
X210480Y103728D01*
Y107402D01*
X211066Y107988D01*
X231136Y109776D02*
X234376Y113016D01*
X230152Y109776D02*
X231136D01*
X228364Y107988D02*
X230152Y109776D01*
X172142Y112298D02*
Y112987D01*
X218264Y53425D02*
X220000Y51689D01*
Y51000D02*
Y51689D01*
X195142Y111500D02*
X196610Y110031D01*
X187858Y110811D02*
X191114Y107555D01*
X177916Y90000D02*
X177967Y89949D01*
X158500Y90000D02*
X177916D01*
X154500Y94000D02*
X158500Y90000D01*
X148000Y94000D02*
X154500D01*
X233311Y97642D02*
X234000D01*
X231433Y95764D02*
X233311Y97642D01*
X152469Y92032D02*
X156587Y87913D01*
X148000Y92032D02*
X152469D01*
X231842Y91827D02*
X233311Y90358D01*
X231842Y91827D02*
Y91953D01*
X230000Y93795D02*
X231842Y91953D01*
X176445Y95408D02*
X177967Y93886D01*
X176445Y95408D02*
Y97886D01*
X173189Y101142D02*
X176445Y97886D01*
X172500Y101142D02*
X173189D01*
X212358Y44695D02*
X217498Y39555D01*
X232055D01*
X255326Y62826D01*
X267272D01*
X178500Y53500D02*
X185646D01*
X175500Y50500D02*
X178500Y53500D01*
X175500Y24500D02*
Y50500D01*
Y24500D02*
X180000Y20000D01*
Y8586D02*
Y20000D01*
Y8586D02*
X180625Y7961D01*
X191691D01*
X191730Y8000D01*
X196735D01*
X173189Y93858D02*
X175221Y91827D01*
X172500Y93858D02*
X173189D01*
X206334Y142560D02*
X207023D01*
X202516Y138742D02*
X206334Y142560D01*
X174341Y59202D02*
X179000Y63860D01*
X174341Y58513D02*
Y59202D01*
X201497Y52570D02*
X204394Y55467D01*
X193023Y52570D02*
X201497D01*
X189248Y48795D02*
X193023Y52570D01*
X189248Y48500D02*
Y48795D01*
X210442Y110752D02*
X210737D01*
X208421Y108731D02*
X210442Y110752D01*
X339031Y70031D02*
X344000Y75000D01*
X255531Y70031D02*
X339031D01*
X251736Y66236D02*
X255531Y70031D01*
X174453Y83953D02*
X180862D01*
X173083Y82583D02*
X174453Y83953D01*
X154382Y82583D02*
X173083D01*
X148870Y88095D02*
X154382Y82583D01*
X148000Y88095D02*
X148870D01*
X331856Y92856D02*
X344000Y105000D01*
X331856Y92856D02*
Y92856D01*
X325000Y86000D02*
X331856Y92856D01*
X173256Y85248D02*
X173929Y85921D01*
X170000Y85248D02*
X173256D01*
X234516Y80937D02*
X235500D01*
X231626Y78047D02*
X234516Y80937D01*
X188881Y53733D02*
X190614Y55467D01*
X188881Y53733D02*
X188881D01*
X187147Y52000D02*
X188881Y53733D01*
X180000Y52000D02*
X187147D01*
X177000Y49000D02*
X180000Y52000D01*
X177000Y27000D02*
Y49000D01*
Y27000D02*
X181000Y23000D01*
X196735D01*
X332953Y83953D02*
X344000Y95000D01*
X206295Y45748D02*
X208421Y47874D01*
X206000Y45748D02*
X206295D01*
X202673Y49673D02*
X206362Y53362D01*
X201626Y49673D02*
X202673D01*
X200748Y48795D02*
X201626Y49673D01*
X200748Y48500D02*
Y48795D01*
X210390Y44542D02*
X216877Y38055D01*
X236555D01*
X246326Y47826D01*
X267272D01*
X230842Y87890D02*
X233311Y90358D01*
X216295Y45705D02*
X216342Y45658D01*
X218531D01*
X220000Y44189D01*
Y43500D02*
Y44189D01*
X174341Y66699D02*
X175810Y68167D01*
X174341Y66010D02*
Y66699D01*
X219359Y142358D02*
X220048D01*
X217891Y140890D02*
X219359Y142358D01*
X217891Y140391D02*
Y140890D01*
X204484Y126984D02*
X217891Y140391D01*
X141500Y122248D02*
Y127252D01*
X207500Y178500D02*
X225388Y160612D01*
Y149142D02*
X226266Y148264D01*
X225388Y149142D02*
Y160612D01*
X153500Y173586D02*
Y179371D01*
Y173586D02*
X154086Y173000D01*
X203000D02*
X212362Y163638D01*
X154086Y173000D02*
X203000D01*
X213240Y148466D02*
X213535D01*
X212362Y149344D02*
X213240Y148466D01*
X220639Y141768D02*
X226561D01*
X220048Y142358D02*
X220639Y141768D01*
X207023Y142560D02*
X207613Y141970D01*
X213535D01*
X172142Y112987D02*
X172748Y113593D01*
Y119500D01*
X154086Y154461D02*
X154159D01*
X153500Y155046D02*
Y159971D01*
Y155046D02*
X154086Y154461D01*
X154159D02*
X166252Y142368D01*
X195142Y119047D02*
Y126494D01*
X195092Y118997D02*
X195142Y119047D01*
X195092Y118997D02*
X195142Y118947D01*
Y111500D02*
Y118947D01*
X187808Y118997D02*
X187858Y118947D01*
Y119047D02*
Y126494D01*
X187808Y118997D02*
X187858Y119047D01*
X181000Y127142D02*
X187211D01*
X187858Y126494D01*
X145239Y152013D02*
X145752Y151500D01*
X148500Y159971D02*
X153500D01*
X143500Y157171D02*
X146171Y154500D01*
X143500Y157171D02*
Y159971D01*
X146171Y154500D02*
X149543D01*
X152248Y151795D01*
Y151500D02*
Y151795D01*
X131248Y145500D02*
Y152000D01*
Y152295D02*
X133500Y154547D01*
Y159971D01*
X131248Y152000D02*
Y152295D01*
X123500Y159971D02*
X128500D01*
X148500Y179371D02*
X153500D01*
X234376Y113016D02*
Y121045D01*
X235595Y73158D02*
X242406D01*
X235500Y73063D02*
X235595Y73158D01*
X242406D02*
X242500Y73252D01*
X235500Y73063D02*
X236484D01*
X295000Y165154D02*
X295878Y166032D01*
X301202D01*
X306828Y171658D02*
X315500D01*
X295000Y164760D02*
Y165154D01*
X301202Y166032D02*
X306828Y171658D01*
X297000Y177752D02*
X297559Y177193D01*
Y172240D02*
Y177193D01*
X123500Y179371D02*
X128500D01*
X133374Y179497D02*
Y194874D01*
Y179497D02*
X133500Y179371D01*
X133248Y195000D02*
X133374Y194874D01*
X144252Y187500D02*
Y195000D01*
X143500Y179371D02*
X143876Y179747D01*
Y187124D01*
X144252Y187500D01*
X179326Y246823D02*
X180783Y248280D01*
X183280D01*
Y254751D01*
X184060Y255532D01*
X188473D02*
X189227Y254777D01*
X184060Y255532D02*
X188473D01*
X189227Y254747D02*
Y254777D01*
Y254747D02*
X189813Y254161D01*
X193489D01*
X180015Y254107D02*
X181484Y255575D01*
Y255984D01*
X184327Y258827D02*
X186095D01*
X179326Y254107D02*
X180015D01*
X181484Y255984D02*
X184327Y258827D01*
X186973Y259705D02*
Y260000D01*
X186095Y258827D02*
X186973Y259705D01*
X186562Y252866D02*
X187826Y251602D01*
X193489D01*
X186267Y252866D02*
X186562D01*
X189810Y256868D02*
X193342D01*
X186973Y259705D02*
X189810Y256868D01*
X193342D02*
X193489Y256720D01*
X118770Y208800D02*
X120212Y207358D01*
X116728Y208800D02*
X118770D01*
X120212Y207358D02*
X124500D01*
X79700Y193000D02*
Y195560D01*
X77496Y203500D02*
X82436D01*
Y197495D02*
Y203500D01*
X83137Y191767D02*
Y196793D01*
X82436Y197495D02*
X83137Y196793D01*
X82011Y190640D02*
X83137Y191767D01*
X79700Y190440D02*
X79900Y190640D01*
X82011D01*
X88932Y195760D02*
Y203500D01*
Y195760D02*
X89132Y195560D01*
X88932Y203500D02*
Y209500D01*
X89632Y208800D02*
X95272D01*
X88932Y209500D02*
X89632Y208800D01*
X139535Y96559D02*
X141504D01*
X145433Y85543D02*
Y86971D01*
X136976Y88095D02*
X136984Y88102D01*
X145335Y87069D02*
X145433Y86971D01*
X136984Y88102D02*
X139543D01*
X145335Y87069D02*
Y88201D01*
X139535Y85535D02*
X139543Y85543D01*
X145433D02*
X145441Y85535D01*
X139543Y85543D02*
Y88102D01*
X142488Y91047D01*
X145335Y88201D01*
X114259Y92000D02*
X136976D01*
X114259Y94000D02*
X136976D01*
X141496Y83805D02*
Y85528D01*
X140561Y82870D02*
X141496Y83805D01*
X119971Y86748D02*
X125500D01*
X150437Y90063D02*
X155252Y85248D01*
X170000D01*
X143465Y83653D02*
Y85528D01*
X125500Y80252D02*
X140064D01*
X143465Y83653D01*
X112795Y89752D02*
X113673Y90630D01*
Y91414D01*
X114259Y92000D01*
X112205Y89752D02*
X112500D01*
X112795D01*
X113673Y94586D02*
X114259Y94000D01*
X141496Y85528D02*
X141504Y85535D01*
X148000Y90063D02*
X150437D01*
X143465Y85528D02*
X143472Y85535D01*
X113673Y94586D02*
Y95370D01*
X112795Y96248D02*
X113673Y95370D01*
X112500Y96248D02*
X112795D01*
X116875Y4928D02*
X152702D01*
X146358Y73311D02*
Y74000D01*
X144437Y67500D02*
Y71390D01*
X146358Y73311D01*
X140142D02*
Y74000D01*
X142469Y67500D02*
Y70984D01*
X140142Y73311D02*
X142469Y70984D01*
X146398Y56484D02*
Y57912D01*
X143453Y61988D02*
X146299Y59142D01*
X146398Y56484D02*
X146405Y56476D01*
X146299Y58010D02*
X146398Y57912D01*
X146299Y58010D02*
Y59142D01*
X140500Y56476D02*
X140508Y56484D01*
Y59043D01*
X143453Y61988D01*
X137941Y59035D02*
X137949Y59043D01*
X140508D01*
X144437Y67500D02*
X146405D01*
X142469D02*
X144437D01*
X140500D02*
X142469D01*
X141156Y127596D02*
X141500Y127252D01*
X343910Y181158D02*
X344500D01*
X317000Y208067D02*
X343910Y181158D01*
X317000Y208067D02*
Y209713D01*
X313653Y213059D02*
X317000Y209713D01*
X313260Y213059D02*
X313653D01*
X300500Y213748D02*
X306500D01*
X312915Y213404D02*
X313260Y213059D01*
X306500Y213748D02*
X306844Y213404D01*
X312915D01*
X306500Y213748D02*
X306906Y214154D01*
X316000Y287409D02*
Y288000D01*
X303405Y251126D02*
Y274815D01*
X316000Y287409D01*
X296500Y250248D02*
X302500D01*
X302594Y250153D02*
X309165D01*
X309260Y250059D01*
X302500Y250248D02*
X302594Y250153D01*
X322500Y251248D02*
Y256252D01*
Y262748D02*
X337004D01*
X343910Y255842D01*
X344500D01*
X239578Y91500D02*
X240000D01*
X234000Y90358D02*
X238436D01*
X239578Y91500D01*
X234000Y97642D02*
Y102500D01*
X233311Y90358D02*
X234000D01*
X224750Y33750D02*
X229656D01*
X224500Y33500D02*
X224750Y33750D01*
X251815Y14000D02*
Y32681D01*
X303658Y14000D02*
Y14591D01*
X308405Y19339D01*
Y34000D01*
X117000Y30784D02*
X154205D01*
X179874Y48500D02*
X182752D01*
X179288Y47914D02*
X179874Y48500D01*
X179288Y43455D02*
Y47914D01*
Y43455D02*
X180264Y42479D01*
X185307D01*
X194252Y48205D02*
Y48500D01*
X193064Y47017D02*
X194252Y48205D01*
X193064Y43065D02*
Y47017D01*
Y43065D02*
X193650Y42479D01*
X198693D01*
Y36771D02*
X200760D01*
X201736Y37747D01*
Y38161D01*
X202827Y39252D01*
X206000D01*
X95272Y208800D02*
X110055D01*
X115055Y213800D01*
X116728D01*
X259479Y51858D02*
X264631D01*
X265598Y52826D01*
X267272D01*
X264282Y59142D02*
X265598Y57826D01*
X267272D01*
X259479Y59142D02*
X264282D01*
X160888Y15000D02*
Y15689D01*
X156336Y20241D02*
X160888Y15689D01*
X156336Y20241D02*
Y20389D01*
X154080Y22645D02*
X156336Y20389D01*
X116875Y22645D02*
X152702D01*
X130914Y65000D02*
X137941D01*
X130085Y63000D02*
X137941D01*
X111705Y71748D02*
X112000D01*
X110827Y70870D02*
X111705Y71748D01*
X110827Y70086D02*
Y70870D01*
X110241Y69500D02*
X110827Y70086D01*
X91232Y71086D02*
X91817Y70500D01*
X90646Y74500D02*
X91232Y73914D01*
Y71086D02*
Y73914D01*
X100357Y70500D02*
X101357Y69500D01*
X110241D01*
X91817Y70500D02*
X100357D01*
X110827Y66130D02*
X111705Y65252D01*
X110241Y67500D02*
X110827Y66914D01*
Y66130D02*
Y66914D01*
X111705Y65252D02*
X112000D01*
X99529Y68500D02*
X100529Y67500D01*
X110241D01*
X91232Y67914D02*
X91817Y68500D01*
X99529D01*
X90646Y64500D02*
X91232Y65086D01*
Y67914D01*
X112295Y71748D02*
X113173Y70870D01*
Y70086D02*
Y70870D01*
Y70086D02*
X113759Y69500D01*
X126414D01*
X130914Y65000D01*
X113173Y66914D02*
X113759Y67500D01*
X125585D01*
X130085Y63000D01*
X113173Y66130D02*
Y66914D01*
X112000Y65252D02*
X112295D01*
X112000Y71748D02*
X112295D01*
Y65252D02*
X113173Y66130D01*
X90646Y104500D02*
X91575D01*
X111327Y94586D02*
Y95370D01*
X91575Y104500D02*
X93575Y102500D01*
X112205Y96248D02*
X112500D01*
X90646Y94500D02*
X91575D01*
X93575Y96500D01*
Y101086D02*
Y102500D01*
X111327Y90630D02*
X112205Y89752D01*
X111327Y90630D02*
Y91414D01*
X106116Y94000D02*
X110741D01*
X98787Y98500D02*
X105287Y92000D01*
X99616Y100500D02*
X106116Y94000D01*
X94160Y98500D02*
X98787D01*
X93575Y97914D02*
X94160Y98500D01*
Y100500D02*
X99616D01*
X93575Y101086D02*
X94160Y100500D01*
X111327Y95370D02*
X112205Y96248D01*
X110741Y92000D02*
X111327Y91414D01*
X105287Y92000D02*
X110741D01*
Y94000D02*
X111327Y94586D01*
X93575Y96500D02*
Y97914D01*
X160297Y8487D02*
Y14410D01*
X160888Y15000D01*
X188500Y18500D02*
X189000Y18000D01*
X196735D01*
X193279Y11216D02*
X195062Y13000D01*
X188500Y11216D02*
X193279D01*
X195062Y13000D02*
X196735D01*
X154202Y55298D02*
Y57298D01*
Y55298D02*
X154500Y55000D01*
X152465Y59035D02*
X154202Y57298D01*
X148965Y59035D02*
X152465D01*
X148965Y61004D02*
X154825D01*
X156705Y59124D01*
X156876D01*
X157078Y63500D02*
X157500D01*
X148965Y62972D02*
X156551D01*
X157078Y63500D01*
X169876Y78876D02*
X170000Y78752D01*
X165124Y78876D02*
X169876D01*
X165000Y79000D02*
X165124Y78876D01*
X224239Y125000D02*
X230358D01*
X234376Y121045D02*
X237642Y124311D01*
Y125000D01*
X218234Y114008D02*
Y123722D01*
Y114000D02*
Y114008D01*
X216956Y125000D02*
X218234Y123722D01*
X214994Y117248D02*
X218234Y114008D01*
X210737Y117248D02*
X214994D01*
X121471Y61214D02*
X127000D01*
X142811Y52311D02*
X144437Y53937D01*
Y56476D01*
X133957Y54717D02*
X136363Y52311D01*
X142811D01*
X127000Y54717D02*
X133957D01*
X142461Y56468D02*
X142469Y56476D01*
X142461Y54746D02*
Y56468D01*
X141525Y53811D02*
X142461Y54746D01*
X327748Y228000D02*
X335752D01*
X327000Y228748D02*
X327748Y228000D01*
X339910Y223843D02*
X340500D01*
X335752Y228000D02*
X339910Y223843D01*
X327000Y217248D02*
Y222252D01*
X257000Y211563D02*
X257524D01*
X258500Y212539D01*
Y214414D01*
X259086Y215000D01*
X261552D01*
X257524Y219437D02*
X258500Y218461D01*
X257000Y219437D02*
X257524D01*
X258500Y217500D02*
Y218461D01*
Y217500D02*
X261552D01*
X193489Y280131D02*
X194358Y281000D01*
X193489Y269516D02*
Y280131D01*
X217476Y246484D02*
X217833Y246128D01*
X216718Y246484D02*
X217476D01*
X217833Y240000D02*
Y246128D01*
X246004Y235500D02*
Y238748D01*
X244500Y215000D02*
Y220492D01*
X246008Y222000D01*
X225367Y215000D02*
X244500D01*
X195937Y232000D02*
X208367D01*
X225367Y215000D01*
X246008Y222000D02*
Y225248D01*
X188063Y224897D02*
Y232000D01*
X185142D02*
X188063D01*
X183658Y233484D02*
X185142Y232000D01*
X183658Y233484D02*
Y234173D01*
X182189Y235642D02*
X183658Y234173D01*
X181500Y235642D02*
X182189D01*
X179326Y246823D02*
X180015D01*
X181500Y235642D02*
Y245338D01*
X180015Y246823D02*
X181500Y245338D01*
X175381Y256608D02*
X176185Y257413D01*
X180477Y259705D02*
Y260000D01*
X178185Y257413D02*
X180477Y259705D01*
X176185Y257413D02*
X178185D01*
X175381Y235314D02*
Y256608D01*
Y235314D02*
X178309Y232386D01*
X180914D01*
X181500Y231800D01*
Y228358D02*
Y231800D01*
X271260Y210087D02*
Y213914D01*
X266531Y214500D02*
X270674D01*
X267359Y216500D02*
X270674D01*
X263302Y215250D02*
X265781D01*
X263302Y217250D02*
X266609D01*
X270674Y214500D02*
X271260Y213914D01*
X266609Y217250D02*
X267359Y216500D01*
X271260Y217086D02*
Y220913D01*
X263052Y215000D02*
X263302Y215250D01*
X270674Y216500D02*
X271260Y217086D01*
X263052Y217500D02*
X263302Y217250D01*
X265781Y215250D02*
X266531Y214500D01*
X261552Y215000D02*
X263052D01*
X261552Y217500D02*
X263052D01*
X108000Y231500D02*
Y235607D01*
X113544Y241151D01*
X97206D02*
X103000Y235357D01*
Y231500D02*
Y235357D01*
X95272Y218800D02*
X104414D01*
X105000Y219386D01*
X104500Y223650D02*
X105000Y223150D01*
X107000Y219386D02*
Y223978D01*
Y219386D02*
X107586Y218800D01*
X116728D01*
X107086Y230000D02*
X108000D01*
X105000Y219386D02*
Y223150D01*
X106500Y229414D02*
X107086Y230000D01*
X104500Y223650D02*
Y229414D01*
X106500Y224479D02*
X107000Y223978D01*
X103000Y230000D02*
X103914D01*
X104500Y229414D01*
X106500Y224479D02*
Y229414D01*
X190719Y248657D02*
X191024D01*
X189446Y247384D02*
X190719Y248657D01*
X191410Y249043D02*
X193489D01*
X191024Y248657D02*
X191410Y249043D01*
X189446Y243101D02*
Y247384D01*
X191858Y240000D02*
Y240689D01*
X189446Y243101D02*
X191858Y240689D01*
X103000Y230000D02*
Y231500D01*
X108000Y230000D02*
Y231500D01*
D20*
X316154Y257500D02*
D03*
X307846D02*
D03*
X320153Y220500D02*
D03*
X311846D02*
D03*
X263154Y34000D02*
D03*
X254847D02*
D03*
X243154Y34500D02*
D03*
X234846D02*
D03*
X321153D02*
D03*
X312846D02*
D03*
X292154Y34000D02*
D03*
X283846D02*
D03*
D21*
X148500Y133153D02*
D03*
Y124846D02*
D03*
D22*
X10000Y136201D02*
D03*
Y148799D02*
D03*
X227500Y253162D02*
D03*
Y265761D02*
D03*
D23*
X146500Y226358D02*
D03*
Y208642D02*
D03*
D24*
X226138Y93795D02*
D03*
Y87890D02*
D03*
X180862Y93795D02*
D03*
Y81984D02*
D03*
Y83953D02*
D03*
Y85921D02*
D03*
Y87890D02*
D03*
Y89858D02*
D03*
Y91827D02*
D03*
Y95764D02*
D03*
Y66236D02*
D03*
Y68205D02*
D03*
Y70173D02*
D03*
Y72142D02*
D03*
Y74110D02*
D03*
Y76079D02*
D03*
Y78047D02*
D03*
Y80016D02*
D03*
X226138Y66236D02*
D03*
Y68205D02*
D03*
Y70173D02*
D03*
Y72142D02*
D03*
Y74110D02*
D03*
Y76079D02*
D03*
Y78047D02*
D03*
Y80016D02*
D03*
Y81984D02*
D03*
Y83953D02*
D03*
Y85921D02*
D03*
Y89858D02*
D03*
Y91827D02*
D03*
Y95764D02*
D03*
D25*
X196610Y103638D02*
D03*
X188736D02*
D03*
X190705D02*
D03*
X192673D02*
D03*
X194642D02*
D03*
X198579D02*
D03*
X200547D02*
D03*
X202516D02*
D03*
X204484D02*
D03*
X206453D02*
D03*
X208421D02*
D03*
X210390D02*
D03*
X212358D02*
D03*
X214327D02*
D03*
X216295D02*
D03*
X218264D02*
D03*
X188736Y58362D02*
D03*
X190705D02*
D03*
X192673D02*
D03*
X194642D02*
D03*
X196610D02*
D03*
X198579D02*
D03*
X200547D02*
D03*
X202516D02*
D03*
X204484D02*
D03*
X206453D02*
D03*
X208421D02*
D03*
X210390D02*
D03*
X212358D02*
D03*
X214327D02*
D03*
X216295D02*
D03*
X218264D02*
D03*
D26*
X142488Y91047D02*
D03*
X143453Y61988D02*
D03*
D27*
X145441Y85535D02*
D03*
X143472D02*
D03*
X141504D02*
D03*
X139535D02*
D03*
Y96559D02*
D03*
X141504D02*
D03*
X143472D02*
D03*
X145441D02*
D03*
X146405Y56476D02*
D03*
X144437D02*
D03*
X142469D02*
D03*
X140500D02*
D03*
Y67500D02*
D03*
X142469D02*
D03*
X144437D02*
D03*
X146405D02*
D03*
D28*
X136976Y88095D02*
D03*
Y90063D02*
D03*
Y92032D02*
D03*
Y94000D02*
D03*
X148000D02*
D03*
Y92032D02*
D03*
Y90063D02*
D03*
Y88095D02*
D03*
X137941Y59035D02*
D03*
Y61004D02*
D03*
Y62972D02*
D03*
Y64941D02*
D03*
X148965D02*
D03*
Y62972D02*
D03*
Y61004D02*
D03*
Y59035D02*
D03*
D29*
X206000Y45748D02*
D03*
Y39252D02*
D03*
X269500Y169024D02*
D03*
Y175520D02*
D03*
X258000Y169024D02*
D03*
Y175520D02*
D03*
X282500D02*
D03*
Y169024D02*
D03*
X225500Y11752D02*
D03*
Y18248D02*
D03*
X226561Y141768D02*
D03*
Y148264D02*
D03*
X296051Y52252D02*
D03*
Y58748D02*
D03*
X300500Y207252D02*
D03*
Y213748D02*
D03*
X296500Y243752D02*
D03*
Y250248D02*
D03*
X127000Y54717D02*
D03*
Y61214D02*
D03*
X121471Y61214D02*
D03*
Y54717D02*
D03*
X242500Y79748D02*
D03*
Y73252D02*
D03*
X192974Y142676D02*
D03*
Y149172D02*
D03*
X213535Y148466D02*
D03*
Y141970D02*
D03*
X179487Y142840D02*
D03*
Y149336D02*
D03*
X125500Y86748D02*
D03*
Y80252D02*
D03*
X322500Y262748D02*
D03*
Y256252D02*
D03*
Y244752D02*
D03*
X302500Y250248D02*
D03*
Y243752D02*
D03*
X141500Y133748D02*
D03*
Y127252D02*
D03*
X322500Y251248D02*
D03*
X306500Y213748D02*
D03*
Y207252D02*
D03*
X327000Y210752D02*
D03*
Y217248D02*
D03*
X210737Y117248D02*
D03*
Y110752D02*
D03*
X186267Y252866D02*
D03*
Y246370D02*
D03*
X327000Y228748D02*
D03*
Y222252D02*
D03*
X170000Y85248D02*
D03*
X297000Y177752D02*
D03*
Y184248D02*
D03*
X170000Y78752D02*
D03*
X112000Y65252D02*
D03*
Y71748D02*
D03*
X119971Y86748D02*
D03*
Y80252D02*
D03*
X112500Y96248D02*
D03*
Y89752D02*
D03*
X141500Y122248D02*
D03*
Y115752D02*
D03*
D30*
X189248Y48500D02*
D03*
X182752D02*
D03*
X194252D02*
D03*
X200748D02*
D03*
X172748Y119500D02*
D03*
X166252D02*
D03*
X160297Y8487D02*
D03*
X166793D02*
D03*
X124752Y152000D02*
D03*
X131248D02*
D03*
X186973Y260000D02*
D03*
X180477D02*
D03*
X218248Y233487D02*
D03*
X211752D02*
D03*
X88932Y209500D02*
D03*
X82436D02*
D03*
X88932Y203500D02*
D03*
X82436D02*
D03*
X71000D02*
D03*
X77496D02*
D03*
X126752Y187500D02*
D03*
X133248D02*
D03*
X144252Y195000D02*
D03*
X150748D02*
D03*
Y187500D02*
D03*
X144252D02*
D03*
X126752Y195000D02*
D03*
X133248D02*
D03*
X145752Y151500D02*
D03*
X152248D02*
D03*
X131248Y145500D02*
D03*
X124752D02*
D03*
X135748Y132500D02*
D03*
X129252D02*
D03*
X135748Y126694D02*
D03*
X129252D02*
D03*
D31*
X198693Y42479D02*
D03*
X185307D02*
D03*
X198693Y36771D02*
D03*
X185307D02*
D03*
D32*
X269500Y155335D02*
D03*
Y163209D02*
D03*
X282500D02*
D03*
Y155335D02*
D03*
X258000D02*
D03*
Y163209D02*
D03*
X257000Y219437D02*
D03*
Y211563D02*
D03*
X235500Y80937D02*
D03*
Y73063D02*
D03*
D33*
X292441Y172240D02*
D03*
X297559D02*
D03*
X295000Y164760D02*
D03*
D34*
X218192Y23000D02*
D03*
Y18000D02*
D03*
Y13000D02*
D03*
Y8000D02*
D03*
X196735D02*
D03*
Y13000D02*
D03*
Y18000D02*
D03*
Y23000D02*
D03*
X288728Y62826D02*
D03*
Y57826D02*
D03*
Y52826D02*
D03*
Y47826D02*
D03*
X267272D02*
D03*
Y52826D02*
D03*
Y57826D02*
D03*
Y62826D02*
D03*
D35*
X188500Y18500D02*
D03*
Y11216D02*
D03*
X172500Y101142D02*
D03*
Y93858D02*
D03*
X220048Y149642D02*
D03*
Y142358D02*
D03*
X259479Y59142D02*
D03*
Y51858D02*
D03*
X186462Y150550D02*
D03*
Y143266D02*
D03*
X199487D02*
D03*
Y150550D02*
D03*
X207023Y149844D02*
D03*
Y142560D02*
D03*
X181000Y119858D02*
D03*
Y127142D02*
D03*
X234000Y97642D02*
D03*
Y90358D02*
D03*
X96131Y189858D02*
D03*
Y197142D02*
D03*
X179326Y246823D02*
D03*
Y254107D02*
D03*
X181500Y235642D02*
D03*
Y228358D02*
D03*
X124500Y214642D02*
D03*
Y207358D02*
D03*
X138513Y152013D02*
D03*
Y144729D02*
D03*
D36*
X261552Y215000D02*
D03*
X263052D02*
D03*
X261552Y217500D02*
D03*
X263052D02*
D03*
D37*
X246008Y222000D02*
D03*
X234000D02*
D03*
X283004Y235500D02*
D03*
X270996D02*
D03*
X246004D02*
D03*
X233996D02*
D03*
D38*
X89300Y195560D02*
D03*
Y190440D02*
D03*
X79700D02*
D03*
Y193000D02*
D03*
Y195560D02*
D03*
D39*
X103000Y230000D02*
D03*
Y231500D02*
D03*
X108000Y230000D02*
D03*
Y231500D02*
D03*
D40*
X234376Y114000D02*
D03*
X218234D02*
D03*
D41*
X167058Y58513D02*
D03*
X174341D02*
D03*
X167058Y66010D02*
D03*
X174341D02*
D03*
X224239Y125000D02*
D03*
X216956D02*
D03*
X282142Y203000D02*
D03*
X274858D02*
D03*
X187858Y126494D02*
D03*
X195142D02*
D03*
X187808Y118997D02*
D03*
X195092D02*
D03*
X195142Y111500D02*
D03*
X187858D02*
D03*
X220000Y43500D02*
D03*
X227284D02*
D03*
X220000Y51000D02*
D03*
X227284D02*
D03*
X172142Y112987D02*
D03*
X164858D02*
D03*
X168171Y15000D02*
D03*
X160888D02*
D03*
X132858Y74000D02*
D03*
X140142D02*
D03*
X153642D02*
D03*
X146358D02*
D03*
X237642Y125000D02*
D03*
X230358D02*
D03*
X210549Y240000D02*
D03*
X217833D02*
D03*
X191858D02*
D03*
X199142D02*
D03*
X223142Y277800D02*
D03*
X215858D02*
D03*
X194358Y281000D02*
D03*
X201642D02*
D03*
X140239Y103270D02*
D03*
X132956D02*
D03*
X146358Y103270D02*
D03*
X153642D02*
D03*
D42*
X116728Y203800D02*
D03*
X95272Y218800D02*
D03*
Y208800D02*
D03*
Y203800D02*
D03*
X116728Y218800D02*
D03*
Y208800D02*
D03*
Y213800D02*
D03*
X95272D02*
D03*
D43*
X278740Y210087D02*
D03*
X271260D02*
D03*
Y220913D02*
D03*
X275000D02*
D03*
X278740D02*
D03*
D44*
X183000Y269996D02*
D03*
Y282004D02*
D03*
D45*
X205103Y258000D02*
D03*
D46*
X216718Y246484D02*
D03*
Y249043D02*
D03*
Y251602D02*
D03*
Y254161D02*
D03*
Y256720D02*
D03*
Y259279D02*
D03*
Y261839D02*
D03*
Y264398D02*
D03*
Y266957D02*
D03*
Y269516D02*
D03*
X193489Y246484D02*
D03*
Y249043D02*
D03*
Y251602D02*
D03*
Y254161D02*
D03*
Y256720D02*
D03*
Y259279D02*
D03*
Y261839D02*
D03*
Y264398D02*
D03*
Y266957D02*
D03*
Y269516D02*
D03*
D47*
X152702Y4928D02*
D03*
X116875D02*
D03*
Y22645D02*
D03*
X152702D02*
D03*
X152827Y48500D02*
D03*
X117000D02*
D03*
X152827Y30784D02*
D03*
X117000D02*
D03*
D48*
X133500Y159971D02*
D03*
X138500Y179371D02*
D03*
X123500Y159971D02*
D03*
X128500D02*
D03*
X138500D02*
D03*
X143500D02*
D03*
X148500D02*
D03*
X153500D02*
D03*
Y179371D02*
D03*
X148500D02*
D03*
X143500D02*
D03*
X133500D02*
D03*
X128500D02*
D03*
X123500D02*
D03*
D49*
X316740Y247500D02*
D03*
X309260Y250059D02*
D03*
Y244941D02*
D03*
X313260Y207941D02*
D03*
Y213059D02*
D03*
X320740Y210500D02*
D03*
X128260Y119000D02*
D03*
X135740Y116441D02*
D03*
Y121559D02*
D03*
D50*
X97206Y241151D02*
D03*
X113544D02*
D03*
D51*
X195937Y232000D02*
D03*
X188063D02*
D03*
Y224897D02*
D03*
X195937D02*
D03*
D52*
X260000Y288701D02*
D03*
Y251299D02*
D03*
D53*
X90646Y84500D02*
D03*
Y74500D02*
D03*
Y64500D02*
D03*
Y94500D02*
D03*
Y104500D02*
D03*
X36354Y84500D02*
D03*
Y74500D02*
D03*
Y64500D02*
D03*
Y94500D02*
D03*
Y104500D02*
D03*
D57*
X62039Y258461D02*
D03*
X148461Y258500D02*
D03*
D58*
X79500Y275921D02*
D03*
X62039Y241000D02*
D03*
X79500Y258461D02*
D03*
Y241000D02*
D03*
X44579D02*
D03*
Y258461D02*
D03*
X62039Y275921D02*
D03*
X44579D02*
D03*
X165921Y275961D02*
D03*
X148461Y241039D02*
D03*
X165921Y258500D02*
D03*
Y241039D02*
D03*
X131000D02*
D03*
Y258500D02*
D03*
X148461Y275961D02*
D03*
X131000D02*
D03*
D59*
X26500Y178500D02*
D03*
Y188342D02*
D03*
X344500Y191000D02*
D03*
Y223342D02*
D03*
X315500Y181500D02*
D03*
X344500Y255842D02*
D03*
Y138815D02*
D03*
Y148658D02*
D03*
X16500Y95917D02*
D03*
Y63657D02*
D03*
D60*
X26500Y198185D02*
D03*
X344500Y181158D02*
D03*
Y213500D02*
D03*
X315500Y171658D02*
D03*
X344500Y246000D02*
D03*
Y158500D02*
D03*
X16500Y105759D02*
D03*
Y73500D02*
D03*
D61*
X267500Y134500D02*
D03*
X320500Y135000D02*
D03*
X273000Y77000D02*
D03*
X282500Y121500D02*
D03*
Y134500D02*
D03*
X297500Y121500D02*
D03*
X297000Y151500D02*
D03*
X297500Y135000D02*
D03*
X267500Y121500D02*
D03*
X321000Y150500D02*
D03*
D62*
X241972Y14000D02*
D03*
X251815D02*
D03*
X261658D02*
D03*
X293815D02*
D03*
X303658D02*
D03*
X313500D02*
D03*
X306157Y288000D02*
D03*
D63*
X271500Y14000D02*
D03*
X323342D02*
D03*
X316000Y288000D02*
D03*
D64*
X54079Y132870D02*
D03*
X64000D02*
D03*
Y153000D02*
D03*
X54000D02*
D03*
X44000Y152870D02*
D03*
Y132870D02*
D03*
X24000Y152870D02*
D03*
Y132870D02*
D03*
X344000Y115000D02*
D03*
Y65000D02*
D03*
Y75000D02*
D03*
Y85000D02*
D03*
Y105000D02*
D03*
Y95000D02*
D03*
D65*
Y55000D02*
D03*
D66*
X351000Y16185D02*
D03*
X16295Y286500D02*
D03*
X351000D02*
D03*
X16295Y16185D02*
D03*
D67*
X255500Y191000D02*
D03*
Y199000D02*
D03*
Y207000D02*
D03*
X263500Y191000D02*
D03*
X247500D02*
D03*
X263500Y199000D02*
D03*
X247500D02*
D03*
X263500Y207000D02*
D03*
X247500D02*
D03*
X110000Y255500D02*
D03*
X118000Y256000D02*
D03*
X118500Y262500D02*
D03*
X110500Y263000D02*
D03*
Y270000D02*
D03*
X118500Y269500D02*
D03*
X118000Y278000D02*
D03*
X110500D02*
D03*
X100000Y255500D02*
D03*
X92500Y255000D02*
D03*
Y263000D02*
D03*
X100000Y262500D02*
D03*
X100500Y270500D02*
D03*
X92500Y271000D02*
D03*
X100500Y278000D02*
D03*
X93000Y278500D02*
D03*
D68*
X200773Y264496D02*
D03*
X209434Y251504D02*
D03*
X200773D02*
D03*
X209434Y264496D02*
D03*
D69*
X26500Y178500D02*
X75500D01*
X108500Y145500D01*
X124752D01*
X32680Y182753D02*
X89747D01*
X96000Y176500D01*
X26500Y188342D02*
X27091D01*
X32680Y182753D01*
X288797Y185048D02*
Y185797D01*
X288500Y176575D02*
Y184751D01*
Y176575D02*
X292441Y172634D01*
X288500Y184751D02*
X288797Y185048D01*
Y185797D02*
X289000Y186000D01*
X292441Y172240D02*
Y172634D01*
X298703Y199750D02*
X306205Y207252D01*
X298703Y198203D02*
Y199750D01*
X306205Y207252D02*
X306500D01*
X298500Y198000D02*
X298703Y198203D01*
X302500Y234287D02*
Y243752D01*
Y234287D02*
X304000Y232787D01*
Y232500D02*
Y232787D01*
X101500Y176500D02*
X119077Y194077D01*
X126124D01*
X96000Y176500D02*
X101500D01*
X96781Y171719D02*
X97000Y171500D01*
X96781Y171719D02*
Y175718D01*
X96000Y176500D02*
X96781Y175718D01*
X126752Y194705D02*
Y195000D01*
X126124Y194077D02*
X126752Y194705D01*
X128260Y119000D02*
X128624D01*
X127866D02*
X128260D01*
X129252Y119628D02*
Y126694D01*
X128624Y119000D02*
X129252Y119628D01*
X122366Y124500D02*
X127866Y119000D01*
X32370Y124500D02*
X122366D01*
X24000Y132870D02*
X32370Y124500D01*
X10000Y136201D02*
X19973D01*
X23304Y132870D02*
X24000D01*
X19973Y136201D02*
X23304Y132870D01*
X35134Y64500D02*
X36354D01*
X27217Y67329D02*
X28138Y68250D01*
X20091Y67329D02*
X27217D01*
X28138Y68250D02*
X32505D01*
X33384Y67371D01*
Y66250D02*
Y67371D01*
X16500Y63737D02*
X20091Y67329D01*
X16500Y63657D02*
Y63737D01*
X33384Y66250D02*
X35134Y64500D01*
X33384Y72750D02*
X35134Y74500D01*
X36354D01*
X16894Y73500D02*
X20566Y69829D01*
X26181D02*
X27102Y70750D01*
X20566Y69829D02*
X26181D01*
X27102Y70750D02*
X32505D01*
X33384Y71629D01*
X16500Y73500D02*
X16894D01*
X33384Y71629D02*
Y72750D01*
X35134Y94500D02*
X36354D01*
X33384Y96250D02*
X35134Y94500D01*
X32505Y98250D02*
X33384Y97371D01*
Y96250D02*
Y97371D01*
X25264Y99588D02*
X26602Y98250D01*
X32505D01*
X16500Y95997D02*
X20091Y99588D01*
X25264D01*
X16500Y95917D02*
Y95997D01*
X35134Y104500D02*
X36354D01*
X16500Y105759D02*
X16894D01*
X20566Y102088D02*
X26300D01*
X16894Y105759D02*
X20566Y102088D01*
X26300D02*
X27638Y100750D01*
X32505D01*
X33384Y102750D02*
X35134Y104500D01*
X33384Y101629D02*
Y102750D01*
X32505Y100750D02*
X33384Y101629D01*
X306500Y207252D02*
X312177D01*
X312866Y207941D01*
X313260D01*
X306423Y243752D02*
X306984Y244313D01*
X308632D02*
X309260Y244941D01*
X306984Y244313D02*
X308632D01*
X302500Y243752D02*
X306423D01*
X322500Y242500D02*
X330825D01*
X321740D02*
X322500D01*
X317762Y246478D02*
X321740Y242500D01*
X322500D02*
Y244752D01*
X334325Y246000D02*
X344500D01*
X330825Y242500D02*
X334325Y246000D01*
X317134Y247500D02*
X317762Y246872D01*
X316740Y247500D02*
X317134D01*
X317762Y246478D02*
Y246872D01*
X245326Y22687D02*
X248144Y19869D01*
Y17591D02*
Y19869D01*
X230944Y16250D02*
X237382Y22687D01*
X245326D01*
X251735Y14000D02*
X251815D01*
X248144Y17591D02*
X251735Y14000D01*
X226423Y17129D02*
X227302Y16250D01*
X230944D01*
X226423Y17129D02*
Y17620D01*
X244291Y20187D02*
X245644Y18834D01*
X238417Y20187D02*
X244291D01*
X245644Y17591D02*
Y18834D01*
X241972Y14000D02*
X242053D01*
X245644Y17591D01*
X231980Y13750D02*
X238417Y20187D01*
X227302Y13750D02*
X231980D01*
X226423Y12871D02*
X227302Y13750D01*
X226423Y12380D02*
Y12871D01*
X225205Y11752D02*
X225500D01*
X224577Y12380D02*
X225205Y11752D01*
X219865Y18000D02*
X221115Y16750D01*
X223707D01*
X219865Y13000D02*
X221115Y14250D01*
X218192Y18000D02*
X219865D01*
X223707Y16750D02*
X225205Y18248D01*
X218192Y13000D02*
X219865D01*
X225205Y18248D02*
X225500D01*
X221115Y14250D02*
X223545D01*
X224577Y13218D01*
Y12380D02*
Y13218D01*
X295128Y57622D02*
Y58120D01*
X290402Y57826D02*
X291652Y56576D01*
X288728Y57826D02*
X290402D01*
X294082Y56576D02*
X295128Y57622D01*
X291652Y56576D02*
X294082D01*
X295128Y52880D02*
Y53197D01*
X291652Y54076D02*
X294249D01*
X295128Y53197D01*
X290402Y52826D02*
X291652Y54076D01*
X288728Y52826D02*
X290402D01*
X297486Y32555D02*
X300353Y35422D01*
X297486Y17591D02*
Y32555D01*
X296346Y52252D02*
X296974Y52880D01*
X296051Y52252D02*
X296346D01*
X296974Y53371D02*
X297853Y54250D01*
X293895Y14000D02*
X297486Y17591D01*
X299986D02*
X303577Y14000D01*
X296974Y57629D02*
X297853Y56750D01*
X303577Y14000D02*
X303658D01*
X296974Y52880D02*
Y53371D01*
Y57629D02*
Y58120D01*
X293815Y14000D02*
X293895D01*
X302853Y34387D02*
Y54407D01*
X299986Y17591D02*
Y31520D01*
X296051Y58748D02*
X296346D01*
X300510Y56750D02*
X302853Y54407D01*
X300353Y35422D02*
Y53371D01*
X297853Y56750D02*
X300510D01*
X299475Y54250D02*
X300353Y53371D01*
X296346Y58748D02*
X296974Y58120D01*
X299986Y31520D02*
X302853Y34387D01*
X297853Y54250D02*
X299475D01*
X327000Y207000D02*
X332909D01*
X324634D02*
X327000D01*
Y210752D01*
X332909Y207000D02*
X339910Y214000D01*
X340500D01*
X320740Y210500D02*
X321134D01*
X324634Y207000D01*
X216288Y269641D02*
Y277371D01*
X216413Y269516D02*
X216718D01*
X216288Y269641D02*
X216413Y269516D01*
X215858Y277800D02*
X216288Y277371D01*
D70*
X154142Y208642D02*
X158000Y212500D01*
X146500Y208642D02*
X154142D01*
X148461Y228319D02*
Y241039D01*
X146500Y226358D02*
X148461Y228319D01*
X201642Y281000D02*
Y281689D01*
X188585Y288413D02*
X194917D01*
X187413Y287242D02*
X188585Y288413D01*
X187413Y283169D02*
Y287242D01*
X194917Y288413D02*
X201642Y281689D01*
X183000Y282004D02*
X186248D01*
X187413Y283169D01*
X283004Y235500D02*
Y244004D01*
X288500Y249500D01*
X234000Y222000D02*
Y238744D01*
X231299Y241328D02*
X231417D01*
X231065Y241562D02*
X231299Y241328D01*
X231417D02*
X234000Y238744D01*
X231065Y241562D02*
Y243435D01*
X231000Y243500D02*
X231065Y243435D01*
X165921Y258500D02*
X172560Y265139D01*
X187413D01*
X189552Y263000D02*
X193500D01*
X187413Y265139D02*
X189552Y263000D01*
X183000Y269996D02*
X186248D01*
X187413Y268831D01*
Y265139D02*
Y268831D01*
D71*
X303500Y94500D02*
X309500D01*
X220526Y179724D02*
X265000D01*
X204500Y195750D02*
X220526Y179724D01*
X204500Y195750D02*
Y198000D01*
Y193500D02*
Y195750D01*
X265000Y180000D02*
X272500D01*
X309500Y94500D02*
X318000D01*
X322250Y186250D02*
X332500Y176000D01*
X316500Y192000D02*
X322250Y186250D01*
X272500Y180000D02*
X284500Y192000D01*
X316500D01*
X332500Y134500D02*
Y176000D01*
Y109000D02*
Y134500D01*
X318000Y94500D02*
X332500Y109000D01*
X209434Y251504D02*
X210930Y253000D01*
X217000D01*
X216500Y258000D02*
X219944D01*
X226350Y256084D02*
X227500Y254934D01*
X221860Y256084D02*
X226350D01*
X227500Y253162D02*
Y254934D01*
X219944Y258000D02*
X221860Y256084D01*
D72*
X227500Y265761D02*
X229500D01*
X223142Y277800D02*
X227100Y273842D01*
X229500Y265761D02*
X237060D01*
X227100Y266160D02*
Y273842D01*
Y266160D02*
X227500Y265761D01*
X216718Y264398D02*
X227100D01*
X237060Y265761D02*
X252711Y281411D01*
Y283577D01*
X257835Y288701D01*
X260000D01*
X227100Y264398D02*
X227500Y264797D01*
Y265761D01*
D73*
X138500Y198000D02*
D03*
X158000Y212500D02*
D03*
X204500Y193500D02*
D03*
Y198000D02*
D03*
X82500Y215000D02*
D03*
X103500Y191000D02*
D03*
X95500Y184500D02*
D03*
X213000Y222500D02*
D03*
X249000Y162500D02*
D03*
X133500Y60000D02*
D03*
X132500Y88500D02*
D03*
X115500Y157500D02*
D03*
X145925Y146112D02*
D03*
X143702Y139298D02*
D03*
X161500Y119000D02*
D03*
X192000Y133000D02*
D03*
X181000Y113500D02*
D03*
X249000Y79000D02*
D03*
X238500Y131000D02*
D03*
X220500Y159500D02*
D03*
X176000Y161500D02*
D03*
X194500Y166500D02*
D03*
X142488Y91047D02*
D03*
X282500Y196500D02*
D03*
X252500Y167000D02*
D03*
X271000Y197000D02*
D03*
X325500Y41000D02*
D03*
X293000D02*
D03*
X265500Y41500D02*
D03*
X246149Y40690D02*
D03*
X289000Y186000D02*
D03*
X298500Y198000D02*
D03*
X321000Y229000D02*
D03*
X317500Y267000D02*
D03*
X304000Y232500D02*
D03*
X288500Y249500D02*
D03*
X231000Y243500D02*
D03*
X309500Y94500D02*
D03*
X172195Y199263D02*
D03*
X169000Y203000D02*
D03*
X217500Y196500D02*
D03*
X223000D02*
D03*
Y203500D02*
D03*
X217500D02*
D03*
X196500Y193500D02*
D03*
X191000D02*
D03*
X196500Y199500D02*
D03*
X191000D02*
D03*
X175500Y203000D02*
D03*
X169000Y182000D02*
D03*
X175000Y191500D02*
D03*
X233500Y51000D02*
D03*
X222500Y58500D02*
D03*
X185500Y30000D02*
D03*
X170000Y52000D02*
D03*
X163500Y51500D02*
D03*
X143438Y62003D02*
D03*
X157000Y79500D02*
D03*
X148500Y80000D02*
D03*
X125500Y75500D02*
D03*
X142500Y110000D02*
D03*
X132000D02*
D03*
X165500Y102500D02*
D03*
Y94500D02*
D03*
X183000Y19000D02*
D03*
Y11000D02*
D03*
X254000Y57000D02*
D03*
X251000Y51500D02*
D03*
X303500Y94500D02*
D03*
X308500Y119000D02*
D03*
X117000Y180500D02*
D03*
X159000Y182000D02*
D03*
X138500Y187000D02*
D03*
X131500Y207500D02*
D03*
Y214500D02*
D03*
X86000Y225500D02*
D03*
X72500Y190500D02*
D03*
X226000Y165500D02*
D03*
X231500Y163000D02*
D03*
X235500Y166500D02*
D03*
X173000Y129500D02*
D03*
X241500Y168000D02*
D03*
X179500Y156500D02*
D03*
X193000Y157500D02*
D03*
X216286Y155652D02*
D03*
X153500Y146500D02*
D03*
X223500Y223000D02*
D03*
X286000Y221000D02*
D03*
X185000Y105000D02*
D03*
X200000Y65000D02*
D03*
X194500Y63500D02*
D03*
X191500Y78000D02*
D03*
X186876Y89624D02*
D03*
Y84624D02*
D03*
X186500Y95000D02*
D03*
X186376Y79624D02*
D03*
X206500Y98000D02*
D03*
X215000D02*
D03*
X168500Y28000D02*
D03*
X225571Y5576D02*
D03*
X295500Y46000D02*
D03*
X192000Y83500D02*
D03*
Y90000D02*
D03*
X292000Y182000D02*
D03*
X291000Y243500D02*
D03*
X295000Y204000D02*
D03*
X240000Y91500D02*
D03*
X234000Y102500D02*
D03*
X224500Y33500D02*
D03*
X172500Y20000D02*
D03*
X172000Y8000D02*
D03*
X154500Y55000D02*
D03*
X156876Y59124D02*
D03*
X157500Y63500D02*
D03*
X165000Y79000D02*
D03*
D74*
X97000Y171500D02*
D03*
M02*
