M48
;Layer_Color=9474304
;FILE_FORMAT=2:5
INCH,TZ
;TYPE=PLATED
T1F00S00C0.01378
T2F00S00C0.01968
T3F00S00C0.02800
T4F00S00C0.03150
T5F00S00C0.03543
T6F00S00C0.03937
T7F00S00C0.05000
T8F00S00C0.07283
T9F00S00C0.16535
;TYPE=NON_PLATED
T10F00S00C0.15748
%
T01
X172000Y8000
X172500Y20000
X183000Y19000
Y11000
X185500Y30000
X168500Y28000
X170000Y52000
X163500Y51500
X154500Y55000
X233500Y51000
X251000Y51500
X246149Y40690
X265500Y41500
X293000Y41000
X295500Y46000
X325500Y41000
X224500Y33500
X225571Y5576
X222500Y58500
X254000Y57000
X249000Y79000
X240000Y91500
X234000Y102500
X215000Y98000
X238500Y131000
X235500Y166500
X231500Y163000
X226000Y165500
X220500Y159500
X216286Y155652
X241500Y168000
X252500Y167000
X249000Y162500
X271000Y197000
X282500Y196500
X289000Y186000
X292000Y182000
X298500Y198000
X295000Y204000
X223000Y203500
X217500
Y196500
X223000
X308500Y119000
X309500Y94500
X303500
X206500Y98000
X192000Y90000
X186876Y89624
Y84624
X186376Y79624
X191500Y78000
X192000Y83500
X186500Y95000
X185000Y105000
X181000Y113500
X173000Y129500
X161500Y119000
X165500Y102500
Y94500
X165000Y79000
X157000Y79500
X148500Y80000
X142488Y91047
X132500Y88500
X125500Y75500
X133500Y60000
X143438Y62003
X157500Y63500
X156876Y59124
X194500Y63500
X200000Y65000
X192000Y133000
X193000Y157500
X194500Y166500
X176000Y161500
X179500Y156500
X169000Y182000
X159000
X175000Y191500
X172195Y199263
X169000Y203000
X175500
X191000Y199500
X196500
Y193500
X191000
X204500
Y198000
X138500
Y187000
X131500Y207500
X117000Y180500
X103500Y191000
X95500Y184500
X72500Y190500
X115500Y157500
X145925Y146112
X153500Y146500
X143702Y139298
X142500Y110000
X132000
X131500Y214500
X158000Y212500
X82500Y215000
X86000Y225500
X213000Y222500
X223500Y223000
X231000Y243500
X291000
X288500Y249500
X286000Y221000
X304000Y232500
X321000Y229000
X317500Y267000
T02
X97000Y171500
X200773Y251504
X209434
Y264496
X200773
T03
X247500Y191000
X255500
Y199000
Y207000
X263500
Y199000
Y191000
X247500Y199000
Y207000
X118000Y256000
X118500Y262500
Y269500
X110500Y270000
Y263000
X110000Y255500
X100000
Y262500
X92500Y263000
Y255000
Y271000
X93000Y278500
X100500Y278000
Y270500
X110500Y278000
X118000
T04
X64000Y132870
Y153000
X54000
X44000Y152870
Y132870
X54079
X24000
Y152870
T05
X344000Y55000
Y65000
Y75000
Y85000
Y95000
Y105000
Y115000
T06
X241972Y14000
X251815
X261658
X271500
X293815
X303658
X313500
X323342
X344500Y138815
Y148658
Y158500
Y181158
Y191000
X315500Y181500
Y171658
X26500Y178500
Y188342
Y198185
X16500Y105759
Y95917
Y73500
Y63657
X344500Y213500
Y223342
Y246000
Y255842
X316000Y288000
X306157
T07
X273000Y77000
X267500Y121500
Y134500
X282500
Y121500
X297500
Y135000
X297000Y151500
X321000Y150500
X320500Y135000
T08
X44579Y241000
Y258461
Y275921
X62039
X79500
Y258461
Y241000
X62039
X131000Y241039
X148461
X165921
Y258500
Y275961
X148461
X131000
Y258500
T09
X16295Y16185
X351000
X16295Y286500
X351000
T10
X62039Y258461
X148461Y258500
M30
