G04*
G04 #@! TF.GenerationSoftware,Altium Limited,Altium Designer,21.8.1 (53)*
G04*
G04 Layer_Color=255*
%FSLAX25Y25*%
%MOIN*%
G70*
G04*
G04 #@! TF.SameCoordinates,67586CA8-3494-4C59-B5DC-5B9CAF07B576*
G04*
G04*
G04 #@! TF.FilePolarity,Positive*
G04*
G01*
G75*
%ADD18R,0.06102X0.02756*%
%ADD19R,0.03937X0.05315*%
%ADD20R,0.03937X0.02756*%
%ADD21R,0.03347X0.02756*%
%ADD22R,0.14567X0.12598*%
%ADD23R,0.08268X0.05512*%
%ADD24R,0.02756X0.03347*%
%ADD25R,0.02953X0.04921*%
%ADD26R,0.05315X0.03937*%
%ADD27R,0.07480X0.09449*%
%ADD28R,0.04724X0.01181*%
%ADD29R,0.01181X0.04724*%
%ADD30R,0.07087X0.02953*%
%ADD31R,0.02756X0.03937*%
%ADD32R,0.12598X0.06890*%
%ADD33R,0.03740X0.06890*%
%ADD34R,0.06496X0.06496*%
%ADD35R,0.00984X0.02756*%
%ADD36R,0.02756X0.00984*%
%ADD37R,0.02362X0.03937*%
%ADD38R,0.14173X0.07284*%
%ADD39R,0.04921X0.02953*%
%ADD40R,0.02200X0.07800*%
%ADD41R,0.03543X0.02756*%
%ADD42R,0.10827X0.04331*%
%ADD43O,0.05512X0.01772*%
%ADD44R,0.12402X0.17717*%
%ADD45O,0.05709X0.02362*%
%ADD46R,0.12598X0.14567*%
%ADD47R,0.02362X0.03150*%
%ADD48R,0.09843X0.06299*%
%ADD49R,0.06299X0.09843*%
%ADD50R,0.20079X0.15748*%
%ADD51R,0.07441X0.05000*%
%ADD103O,0.07874X0.06693*%
G04:AMPARAMS|DCode=104|XSize=66.93mil|YSize=78.74mil|CornerRadius=16.73mil|HoleSize=0mil|Usage=FLASHONLY|Rotation=90.000|XOffset=0mil|YOffset=0mil|HoleType=Round|Shape=RoundedRectangle|*
%AMROUNDEDRECTD104*
21,1,0.06693,0.04528,0,0,90.0*
21,1,0.03347,0.07874,0,0,90.0*
1,1,0.03346,0.02264,0.01673*
1,1,0.03346,0.02264,-0.01673*
1,1,0.03346,-0.02264,-0.01673*
1,1,0.03346,-0.02264,0.01673*
%
%ADD104ROUNDEDRECTD104*%
%ADD105C,0.10000*%
%ADD106C,0.05906*%
%ADD107R,0.05906X0.05906*%
%ADD108C,0.23622*%
G04:AMPARAMS|DCode=109|XSize=66.93mil|YSize=78.74mil|CornerRadius=16.73mil|HoleSize=0mil|Usage=FLASHONLY|Rotation=0.000|XOffset=0mil|YOffset=0mil|HoleType=Round|Shape=RoundedRectangle|*
%AMROUNDEDRECTD109*
21,1,0.06693,0.04528,0,0,0.0*
21,1,0.03347,0.07874,0,0,0.0*
1,1,0.03346,0.01673,-0.02264*
1,1,0.03346,-0.01673,-0.02264*
1,1,0.03346,-0.01673,0.02264*
1,1,0.03346,0.01673,0.02264*
%
%ADD109ROUNDEDRECTD109*%
%ADD110O,0.06693X0.07874*%
%ADD111C,0.06000*%
%ADD112C,0.12598*%
D18*
X252728Y42045D02*
D03*
Y37045D02*
D03*
Y32045D02*
D03*
Y27045D02*
D03*
X231272D02*
D03*
Y32045D02*
D03*
Y37045D02*
D03*
Y42045D02*
D03*
X213228Y27347D02*
D03*
Y22347D02*
D03*
Y17347D02*
D03*
Y12348D02*
D03*
X191772D02*
D03*
Y17347D02*
D03*
Y22347D02*
D03*
Y27347D02*
D03*
D19*
X237358Y20000D02*
D03*
X244642D02*
D03*
X187858Y126494D02*
D03*
X195142D02*
D03*
X187808Y118997D02*
D03*
X195092D02*
D03*
X195142Y111500D02*
D03*
X187858D02*
D03*
X216956Y125000D02*
D03*
X224239D02*
D03*
X205642Y5500D02*
D03*
X198358D02*
D03*
X172142Y112987D02*
D03*
X164858D02*
D03*
X168171Y15000D02*
D03*
X160888D02*
D03*
X127858Y74146D02*
D03*
X135142D02*
D03*
X158642Y74146D02*
D03*
X151358D02*
D03*
X203642Y212000D02*
D03*
X196358D02*
D03*
X219500Y175500D02*
D03*
X212216D02*
D03*
X237642Y125500D02*
D03*
X230358D02*
D03*
X210549Y240000D02*
D03*
X217833D02*
D03*
X191858D02*
D03*
X199142D02*
D03*
X223142Y277800D02*
D03*
X215858D02*
D03*
X167058Y66010D02*
D03*
X174341D02*
D03*
X167058Y58513D02*
D03*
X174341D02*
D03*
X182858Y212500D02*
D03*
X190142D02*
D03*
X194358Y281000D02*
D03*
X201642D02*
D03*
X224358Y243000D02*
D03*
X231642D02*
D03*
X132956Y103270D02*
D03*
X140239D02*
D03*
X153642Y103270D02*
D03*
X146358D02*
D03*
X162739Y213000D02*
D03*
X155456D02*
D03*
X176142D02*
D03*
X168858D02*
D03*
D20*
X248594Y5802D02*
D03*
X235405D02*
D03*
X284405Y110000D02*
D03*
X297594D02*
D03*
X278976Y93869D02*
D03*
X292165D02*
D03*
X265811Y32285D02*
D03*
X279000D02*
D03*
X278095Y124000D02*
D03*
X264906D02*
D03*
X193095Y295710D02*
D03*
X179905D02*
D03*
X275689Y54500D02*
D03*
X262500D02*
D03*
D21*
X332500Y126252D02*
D03*
Y132748D02*
D03*
Y108248D02*
D03*
Y101752D02*
D03*
X127000Y54717D02*
D03*
Y61214D02*
D03*
X121471Y61214D02*
D03*
Y54717D02*
D03*
X259987Y37248D02*
D03*
Y30752D02*
D03*
X192987Y146088D02*
D03*
Y152584D02*
D03*
X213535Y148466D02*
D03*
Y141970D02*
D03*
X226561Y141768D02*
D03*
Y148264D02*
D03*
X202000Y39252D02*
D03*
Y45748D02*
D03*
X220500Y16752D02*
D03*
Y23248D02*
D03*
X125000Y88748D02*
D03*
Y82252D02*
D03*
X253000Y122252D02*
D03*
Y128748D02*
D03*
X312500Y230252D02*
D03*
Y236748D02*
D03*
X130500Y114252D02*
D03*
Y120748D02*
D03*
X259029Y122252D02*
D03*
X273000Y103748D02*
D03*
Y97252D02*
D03*
X259029Y128748D02*
D03*
X270500Y136918D02*
D03*
Y143414D02*
D03*
X251000Y143248D02*
D03*
Y136752D02*
D03*
X210737Y117248D02*
D03*
Y110752D02*
D03*
X186267Y252866D02*
D03*
Y246370D02*
D03*
X245000Y143248D02*
D03*
Y136752D02*
D03*
X169000Y84748D02*
D03*
X241731Y77248D02*
D03*
Y70752D02*
D03*
X169000Y78252D02*
D03*
X111133Y62542D02*
D03*
Y69038D02*
D03*
X119471Y88748D02*
D03*
Y82252D02*
D03*
X112500Y96248D02*
D03*
Y89752D02*
D03*
X242472Y100252D02*
D03*
Y106748D02*
D03*
X248000Y100252D02*
D03*
Y106748D02*
D03*
D22*
X298000Y198627D02*
D03*
Y214966D02*
D03*
Y229746D02*
D03*
Y246085D02*
D03*
X234500Y184839D02*
D03*
Y168500D02*
D03*
D23*
X152702Y4928D02*
D03*
X116875D02*
D03*
Y22645D02*
D03*
X152702D02*
D03*
X152827Y48500D02*
D03*
X117000D02*
D03*
X152827Y30784D02*
D03*
X117000D02*
D03*
D24*
X293248Y82000D02*
D03*
X286752D02*
D03*
X178752Y48500D02*
D03*
X185248D02*
D03*
X196748D02*
D03*
X190252D02*
D03*
X179748Y142000D02*
D03*
X173252D02*
D03*
X168748Y119500D02*
D03*
X162252D02*
D03*
X160297Y8487D02*
D03*
X166793D02*
D03*
X263500Y114000D02*
D03*
X269996D02*
D03*
X186973Y260000D02*
D03*
X180477D02*
D03*
X218248Y233487D02*
D03*
X211752D02*
D03*
X88432Y217500D02*
D03*
X81936D02*
D03*
X88432Y211500D02*
D03*
X81936D02*
D03*
X92248Y192000D02*
D03*
X85752D02*
D03*
X139182Y161500D02*
D03*
X132686D02*
D03*
X144752D02*
D03*
X151248D02*
D03*
X137752Y167487D02*
D03*
X144248D02*
D03*
X121252Y161034D02*
D03*
X127748D02*
D03*
X152748Y126308D02*
D03*
X146252D02*
D03*
X130748Y126308D02*
D03*
X124252D02*
D03*
X259748Y92500D02*
D03*
X253252D02*
D03*
D25*
X272000Y79000D02*
D03*
X279874D02*
D03*
X195937Y232000D02*
D03*
X188063D02*
D03*
Y224897D02*
D03*
X195937D02*
D03*
D26*
X186474Y153962D02*
D03*
Y146678D02*
D03*
X199500D02*
D03*
Y153962D02*
D03*
X207023Y149844D02*
D03*
Y142560D02*
D03*
X220048Y142358D02*
D03*
Y149642D02*
D03*
X215500Y51841D02*
D03*
Y44558D02*
D03*
X223000Y51642D02*
D03*
Y44358D02*
D03*
X181000Y120642D02*
D03*
Y113358D02*
D03*
X234000Y97642D02*
D03*
Y90358D02*
D03*
X172500Y93858D02*
D03*
Y101142D02*
D03*
X99253Y197858D02*
D03*
Y205142D02*
D03*
X179326Y246823D02*
D03*
Y254107D02*
D03*
X181500Y235642D02*
D03*
Y228358D02*
D03*
X125000Y224142D02*
D03*
Y216858D02*
D03*
X137513Y126013D02*
D03*
Y118729D02*
D03*
D27*
X218234Y114000D02*
D03*
X234376D02*
D03*
D28*
X226138Y95764D02*
D03*
Y91827D02*
D03*
Y89858D02*
D03*
Y85921D02*
D03*
Y83953D02*
D03*
Y81984D02*
D03*
Y80016D02*
D03*
Y78047D02*
D03*
Y76079D02*
D03*
Y74110D02*
D03*
Y72142D02*
D03*
Y70173D02*
D03*
Y68205D02*
D03*
Y66236D02*
D03*
X180862Y80016D02*
D03*
Y78047D02*
D03*
Y76079D02*
D03*
Y74110D02*
D03*
Y72142D02*
D03*
Y70173D02*
D03*
Y68205D02*
D03*
Y66236D02*
D03*
Y95764D02*
D03*
Y91827D02*
D03*
Y89858D02*
D03*
Y87890D02*
D03*
Y85921D02*
D03*
Y83953D02*
D03*
Y81984D02*
D03*
Y93795D02*
D03*
X226138Y87890D02*
D03*
Y93795D02*
D03*
D29*
X218264Y58362D02*
D03*
X216295D02*
D03*
X214327D02*
D03*
X212358D02*
D03*
X210390D02*
D03*
X208421D02*
D03*
X206453D02*
D03*
X204484D02*
D03*
X202516D02*
D03*
X200547D02*
D03*
X198579D02*
D03*
X196610D02*
D03*
X194642D02*
D03*
X192673D02*
D03*
X190705D02*
D03*
X188736D02*
D03*
X218264Y103638D02*
D03*
X216295D02*
D03*
X214327D02*
D03*
X212358D02*
D03*
X210390D02*
D03*
X208421D02*
D03*
X206453D02*
D03*
X204484D02*
D03*
X202516D02*
D03*
X200547D02*
D03*
X198579D02*
D03*
X194642D02*
D03*
X192673D02*
D03*
X190705D02*
D03*
X188736D02*
D03*
X196610D02*
D03*
D30*
X181307Y36771D02*
D03*
X194693D02*
D03*
X181307Y42479D02*
D03*
X194693D02*
D03*
D31*
X273000Y24689D02*
D03*
Y11500D02*
D03*
D32*
X193500Y178912D02*
D03*
X166000Y179412D02*
D03*
D33*
X184445Y203715D02*
D03*
X193500D02*
D03*
X202555D02*
D03*
X156945Y204216D02*
D03*
X166000D02*
D03*
X175055D02*
D03*
D34*
X143453Y61988D02*
D03*
X142488Y91047D02*
D03*
D35*
X146405Y56476D02*
D03*
X144437D02*
D03*
X142469D02*
D03*
X140500D02*
D03*
Y67500D02*
D03*
X142469D02*
D03*
X144437D02*
D03*
X146405D02*
D03*
X145441Y96559D02*
D03*
X143472D02*
D03*
X141504D02*
D03*
X139535D02*
D03*
Y85535D02*
D03*
X141504D02*
D03*
X143472D02*
D03*
X145441D02*
D03*
D36*
X137941Y59035D02*
D03*
Y61004D02*
D03*
Y62972D02*
D03*
Y64941D02*
D03*
X148965D02*
D03*
Y62972D02*
D03*
Y61004D02*
D03*
Y59035D02*
D03*
X148000Y88095D02*
D03*
Y90063D02*
D03*
Y92032D02*
D03*
Y94000D02*
D03*
X136976D02*
D03*
Y92032D02*
D03*
Y90063D02*
D03*
Y88095D02*
D03*
D37*
X212260Y182587D02*
D03*
X216000D02*
D03*
X219740D02*
D03*
Y193413D02*
D03*
X212260D02*
D03*
D38*
X217500Y212135D02*
D03*
X238169D02*
D03*
D39*
X312500Y217063D02*
D03*
Y224937D02*
D03*
D40*
X132500Y133971D02*
D03*
X137500Y153371D02*
D03*
X122500Y133971D02*
D03*
X127500D02*
D03*
X137500D02*
D03*
X142500D02*
D03*
X147500D02*
D03*
X152500D02*
D03*
Y153371D02*
D03*
X147500D02*
D03*
X142500D02*
D03*
X132500D02*
D03*
X127500D02*
D03*
X122500D02*
D03*
D41*
X250260Y114147D02*
D03*
X257740Y111588D02*
D03*
Y116706D02*
D03*
X264240Y143059D02*
D03*
Y137941D02*
D03*
X256760Y140500D02*
D03*
X254740Y74000D02*
D03*
X247260Y76559D02*
D03*
Y71441D02*
D03*
X259760Y100500D02*
D03*
X267240Y97941D02*
D03*
Y103059D02*
D03*
D42*
X183000Y282004D02*
D03*
Y269996D02*
D03*
D43*
X193489Y269516D02*
D03*
Y266957D02*
D03*
Y264398D02*
D03*
Y261839D02*
D03*
Y259279D02*
D03*
Y256720D02*
D03*
Y254161D02*
D03*
Y251602D02*
D03*
Y249043D02*
D03*
Y246484D02*
D03*
X216718Y269516D02*
D03*
Y266957D02*
D03*
Y264398D02*
D03*
Y261839D02*
D03*
Y259279D02*
D03*
Y256720D02*
D03*
Y254161D02*
D03*
Y251602D02*
D03*
Y249043D02*
D03*
Y246484D02*
D03*
D44*
X205103Y258000D02*
D03*
D45*
X94772Y228000D02*
D03*
Y218000D02*
D03*
Y213000D02*
D03*
X116228Y228000D02*
D03*
Y218000D02*
D03*
Y213000D02*
D03*
Y223000D02*
D03*
X94772D02*
D03*
D46*
X97206Y241151D02*
D03*
X113544D02*
D03*
D47*
X92740Y197547D02*
D03*
X85260D02*
D03*
X89000Y205500D02*
D03*
D48*
X48299Y167500D02*
D03*
X35701D02*
D03*
D49*
X227500Y253162D02*
D03*
Y265761D02*
D03*
D50*
X259907Y278633D02*
D03*
Y241231D02*
D03*
D51*
X90646Y84500D02*
D03*
Y74500D02*
D03*
Y64500D02*
D03*
Y94500D02*
D03*
Y104500D02*
D03*
X36354Y84500D02*
D03*
Y74500D02*
D03*
Y64500D02*
D03*
Y94500D02*
D03*
Y104500D02*
D03*
D103*
X346500Y123500D02*
D03*
Y91500D02*
D03*
X294500Y170695D02*
D03*
Y139407D02*
D03*
X319500Y171000D02*
D03*
X17500Y190394D02*
D03*
Y180552D02*
D03*
X16500Y95917D02*
D03*
Y63657D02*
D03*
D104*
X346500Y133343D02*
D03*
Y101342D02*
D03*
X294500Y180538D02*
D03*
Y149249D02*
D03*
X319500Y180842D02*
D03*
X17500Y200237D02*
D03*
X16500Y105759D02*
D03*
Y73500D02*
D03*
D105*
X315500Y149500D02*
D03*
X288505Y73000D02*
D03*
X194597Y137619D02*
D03*
X207896Y133500D02*
D03*
X235500Y142000D02*
D03*
X174500Y133000D02*
D03*
X312500Y205500D02*
D03*
X306500Y38500D02*
D03*
X162500Y133500D02*
D03*
X171500Y226000D02*
D03*
X313500Y253500D02*
D03*
X259500Y293500D02*
D03*
X102000Y85500D02*
D03*
Y57500D02*
D03*
D106*
X288048Y8105D02*
D03*
Y18105D02*
D03*
Y28105D02*
D03*
Y38105D02*
D03*
Y48105D02*
D03*
X44079Y134000D02*
D03*
X54000D02*
D03*
Y154130D02*
D03*
X44000D02*
D03*
X34000Y154000D02*
D03*
Y134000D02*
D03*
X14000Y154000D02*
D03*
Y134000D02*
D03*
X306548Y110829D02*
D03*
Y60829D02*
D03*
Y70829D02*
D03*
Y80829D02*
D03*
Y100829D02*
D03*
Y90829D02*
D03*
D107*
X288048Y58105D02*
D03*
X306548Y50829D02*
D03*
D108*
X351000Y16185D02*
D03*
X16295Y286500D02*
D03*
X351000D02*
D03*
X16295Y16185D02*
D03*
D109*
X253670Y160611D02*
D03*
D110*
X273355D02*
D03*
X263513D02*
D03*
D111*
X148461Y258500D02*
D03*
X62039Y258461D02*
D03*
D112*
X165921Y275961D02*
D03*
X148461Y241039D02*
D03*
X165921Y258500D02*
D03*
Y241039D02*
D03*
X131000D02*
D03*
Y258500D02*
D03*
X148461Y275961D02*
D03*
X131000D02*
D03*
X79500Y275921D02*
D03*
X62039Y241000D02*
D03*
X79500Y258461D02*
D03*
Y241000D02*
D03*
X44579D02*
D03*
Y258461D02*
D03*
X62039Y275921D02*
D03*
X44579D02*
D03*
M02*
