G04*
G04 #@! TF.GenerationSoftware,Altium Limited,Altium Designer,21.2.0 (30)*
G04*
G04 Layer_Color=65535*
%FSLAX25Y25*%
%MOIN*%
G70*
G04*
G04 #@! TF.SameCoordinates,67EC13EC-3D0F-47E5-A8FF-4F5FDFC94078*
G04*
G04*
G04 #@! TF.FilePolarity,Positive*
G04*
G01*
G75*
%ADD10C,0.02756*%
%ADD11C,0.00984*%
%ADD12C,0.01000*%
%ADD13C,0.00984*%
%ADD14C,0.00600*%
%ADD15C,0.00787*%
%ADD16C,0.00394*%
%ADD17C,0.00799*%
%ADD18C,0.01968*%
%ADD19C,0.00800*%
G36*
X232477Y258950D02*
X230898D01*
X231688Y259739D01*
X232477Y258950D01*
D02*
G37*
G36*
X14977Y141988D02*
X13398D01*
X14187Y142778D01*
X14977Y141988D01*
D02*
G37*
G36*
X44641Y36632D02*
X44800D01*
Y36552D01*
Y36473D01*
X44721D01*
Y36394D01*
Y36314D01*
Y36235D01*
X44641D01*
Y36156D01*
Y36076D01*
X44562D01*
Y35997D01*
Y35918D01*
Y35838D01*
X44483D01*
Y35759D01*
Y35680D01*
X44403D01*
Y35601D01*
Y35521D01*
X44324D01*
Y35442D01*
Y35362D01*
Y35283D01*
X44245D01*
Y35204D01*
Y35124D01*
X44166D01*
Y35045D01*
X44086D01*
Y34966D01*
Y34887D01*
X44007D01*
Y34807D01*
Y34728D01*
X43928D01*
Y34649D01*
X43848D01*
Y34569D01*
X43769D01*
Y34490D01*
X43690D01*
Y34411D01*
X43610D01*
Y34331D01*
X43372D01*
Y34252D01*
X42579D01*
Y34331D01*
X42421D01*
Y34411D01*
X42262D01*
Y34490D01*
X42182D01*
Y34569D01*
X42103D01*
Y34649D01*
X42024D01*
Y34728D01*
X41945D01*
Y34807D01*
Y34887D01*
X41865D01*
Y34966D01*
Y35045D01*
Y35124D01*
X41786D01*
Y35204D01*
Y35283D01*
Y35362D01*
Y35442D01*
Y35521D01*
Y35601D01*
Y35680D01*
X41865D01*
Y35759D01*
Y35838D01*
Y35918D01*
X41945D01*
Y35997D01*
Y36076D01*
X42024D01*
Y36156D01*
Y36235D01*
X42103D01*
Y36314D01*
X42182D01*
Y36394D01*
X42341D01*
Y36473D01*
X42421D01*
Y36552D01*
X42738D01*
Y36632D01*
X43452D01*
Y36711D01*
X44641D01*
Y36632D01*
D02*
G37*
G36*
X92708Y34569D02*
X93026D01*
Y34490D01*
X93264D01*
Y34411D01*
X93422D01*
Y34331D01*
X93581D01*
Y34252D01*
X93739D01*
Y34173D01*
X93819D01*
Y34093D01*
X93977D01*
Y34014D01*
X94057D01*
Y33935D01*
X94136D01*
Y33856D01*
X94215D01*
Y33776D01*
X94295D01*
Y33697D01*
X94374D01*
Y33617D01*
X94453D01*
Y33538D01*
X94533D01*
Y33459D01*
Y33380D01*
X94612D01*
Y33300D01*
Y33221D01*
X94691D01*
Y33142D01*
Y33062D01*
X94771D01*
Y32983D01*
Y32904D01*
X94850D01*
Y32824D01*
Y32745D01*
Y32666D01*
X94929D01*
Y32586D01*
Y32507D01*
Y32428D01*
Y32348D01*
Y32269D01*
Y32190D01*
X95008D01*
Y32111D01*
Y32031D01*
Y31952D01*
Y31872D01*
Y31793D01*
Y31714D01*
Y31635D01*
Y31555D01*
Y31476D01*
X94929D01*
Y31397D01*
Y31317D01*
Y31238D01*
Y31159D01*
Y31079D01*
Y31000D01*
X94850D01*
Y30921D01*
Y30841D01*
Y30762D01*
Y30683D01*
X94771D01*
Y30603D01*
Y30524D01*
Y30445D01*
X94691D01*
Y30365D01*
Y30286D01*
X94612D01*
Y30207D01*
Y30128D01*
Y30048D01*
X94533D01*
Y29969D01*
X94453D01*
Y29890D01*
Y29810D01*
X94374D01*
Y29731D01*
Y29652D01*
X94295D01*
Y29572D01*
X94215D01*
Y29493D01*
X94136D01*
Y29414D01*
Y29334D01*
X94057D01*
Y29255D01*
X93977D01*
Y29176D01*
X93898D01*
Y29096D01*
X93819D01*
Y29017D01*
X93739D01*
Y28938D01*
X93660D01*
Y28858D01*
X93502D01*
Y28779D01*
X93422D01*
Y28700D01*
X93264D01*
Y28620D01*
X93184D01*
Y28541D01*
X93026D01*
Y28462D01*
X92867D01*
Y28383D01*
X92629D01*
Y28303D01*
X92391D01*
Y28224D01*
X92074D01*
Y28144D01*
X90646D01*
Y28224D01*
X90249D01*
Y28303D01*
X90091D01*
Y28383D01*
X89853D01*
Y28462D01*
X89694D01*
Y28541D01*
X89615D01*
Y28620D01*
X89456D01*
Y28700D01*
X89377D01*
Y28779D01*
X89218D01*
Y28858D01*
X89139D01*
Y28938D01*
X89060D01*
Y29017D01*
X88980D01*
Y29096D01*
Y29176D01*
Y29255D01*
X89060D01*
Y29334D01*
Y29414D01*
X89139D01*
Y29493D01*
Y29572D01*
Y29652D01*
X89218D01*
Y29731D01*
Y29810D01*
Y29890D01*
Y29969D01*
X89298D01*
Y30048D01*
Y30128D01*
Y30207D01*
Y30286D01*
Y30365D01*
X89139D01*
Y30286D01*
X89060D01*
Y30207D01*
Y30128D01*
X88980D01*
Y30048D01*
Y29969D01*
X88901D01*
Y29890D01*
Y29810D01*
X88822D01*
Y29731D01*
X88742D01*
Y29652D01*
Y29572D01*
X88663D01*
Y29493D01*
X88584D01*
Y29414D01*
X88504D01*
Y29334D01*
Y29255D01*
X88425D01*
Y29176D01*
X88346D01*
Y29096D01*
X88266D01*
Y29017D01*
X88187D01*
Y28938D01*
X88029D01*
Y28858D01*
X87949D01*
Y28779D01*
X87870D01*
Y28700D01*
X87711D01*
Y28620D01*
X87553D01*
Y28541D01*
X87473D01*
Y28462D01*
X87315D01*
Y28383D01*
X87077D01*
Y28303D01*
X86839D01*
Y28224D01*
X86522D01*
Y28144D01*
X85014D01*
Y28224D01*
X84697D01*
Y28303D01*
X84539D01*
Y28383D01*
X84301D01*
Y28462D01*
X84142D01*
Y28541D01*
X83983D01*
Y28620D01*
X83904D01*
Y28700D01*
X83745D01*
Y28779D01*
X83666D01*
Y28858D01*
X83587D01*
Y28938D01*
X83507D01*
Y29017D01*
X83428D01*
Y29096D01*
X83349D01*
Y29176D01*
X83269D01*
Y29255D01*
Y29334D01*
X83190D01*
Y29414D01*
Y29493D01*
X83111D01*
Y29572D01*
Y29652D01*
X83031D01*
Y29731D01*
Y29810D01*
X82952D01*
Y29890D01*
Y29969D01*
X82873D01*
Y30048D01*
Y30128D01*
Y30207D01*
Y30286D01*
X82793D01*
Y30365D01*
Y30445D01*
Y30524D01*
Y30603D01*
Y30683D01*
Y30762D01*
Y30841D01*
Y30921D01*
Y31000D01*
Y31079D01*
Y31159D01*
Y31238D01*
Y31317D01*
Y31397D01*
Y31476D01*
Y31555D01*
Y31635D01*
X82873D01*
Y31714D01*
Y31793D01*
Y31872D01*
Y31952D01*
X82952D01*
Y32031D01*
Y32111D01*
Y32190D01*
X83031D01*
Y32269D01*
Y32348D01*
Y32428D01*
X83111D01*
Y32507D01*
Y32586D01*
X83190D01*
Y32666D01*
Y32745D01*
X83269D01*
Y32824D01*
Y32904D01*
X83349D01*
Y32983D01*
Y33062D01*
X83428D01*
Y33142D01*
X83507D01*
Y33221D01*
Y33300D01*
X83587D01*
Y33380D01*
X83666D01*
Y33459D01*
X83745D01*
Y33538D01*
X83825D01*
Y33617D01*
X83904D01*
Y33697D01*
X83983D01*
Y33776D01*
X84063D01*
Y33856D01*
X84142D01*
Y33935D01*
X84221D01*
Y34014D01*
X84380D01*
Y34093D01*
X84459D01*
Y34173D01*
X84618D01*
Y34252D01*
X84777D01*
Y34331D01*
X84935D01*
Y34411D01*
X85173D01*
Y34490D01*
X85411D01*
Y34569D01*
X85728D01*
Y34649D01*
X86997D01*
Y34569D01*
X87394D01*
Y34490D01*
X87632D01*
Y34411D01*
X87870D01*
Y34331D01*
X88029D01*
Y34252D01*
X88187D01*
Y34173D01*
X88266D01*
Y34093D01*
X88425D01*
Y34014D01*
X88504D01*
Y33935D01*
X88584D01*
Y33856D01*
X88663D01*
Y33776D01*
X88742D01*
Y33697D01*
Y33617D01*
Y33538D01*
Y33459D01*
X88663D01*
Y33380D01*
Y33300D01*
X88584D01*
Y33221D01*
Y33142D01*
Y33062D01*
Y32983D01*
X88504D01*
Y32904D01*
Y32824D01*
Y32745D01*
Y32666D01*
Y32586D01*
Y32507D01*
Y32428D01*
X88663D01*
Y32507D01*
Y32586D01*
X88742D01*
Y32666D01*
Y32745D01*
X88822D01*
Y32824D01*
Y32904D01*
X88901D01*
Y32983D01*
Y33062D01*
X88980D01*
Y33142D01*
X89060D01*
Y33221D01*
Y33300D01*
X89139D01*
Y33380D01*
X89218D01*
Y33459D01*
X89298D01*
Y33538D01*
X89377D01*
Y33617D01*
X89456D01*
Y33697D01*
X89536D01*
Y33776D01*
X89615D01*
Y33856D01*
X89694D01*
Y33935D01*
X89773D01*
Y34014D01*
X89932D01*
Y34093D01*
X90012D01*
Y34173D01*
X90170D01*
Y34252D01*
X90329D01*
Y34331D01*
X90487D01*
Y34411D01*
X90725D01*
Y34490D01*
X90963D01*
Y34569D01*
X91281D01*
Y34649D01*
X92708D01*
Y34569D01*
D02*
G37*
G36*
X99768Y34490D02*
X100085D01*
Y34411D01*
X100243D01*
Y34331D01*
X100402D01*
Y34252D01*
X100481D01*
Y34173D01*
X100640D01*
Y34093D01*
X100719D01*
Y34014D01*
X100799D01*
Y33935D01*
X100878D01*
Y33856D01*
Y33776D01*
X100957D01*
Y33697D01*
Y33617D01*
X101037D01*
Y33538D01*
Y33459D01*
X101116D01*
Y33380D01*
Y33300D01*
Y33221D01*
Y33142D01*
Y33062D01*
Y32983D01*
Y32904D01*
Y32824D01*
Y32745D01*
Y32666D01*
Y32586D01*
Y32507D01*
Y32428D01*
Y32348D01*
Y32269D01*
X101037D01*
Y32190D01*
Y32111D01*
Y32031D01*
X100957D01*
Y31952D01*
Y31872D01*
X100878D01*
Y31793D01*
Y31714D01*
X100799D01*
Y31635D01*
Y31555D01*
X100719D01*
Y31476D01*
X100640D01*
Y31397D01*
X100561D01*
Y31317D01*
X100481D01*
Y31238D01*
X100402D01*
Y31159D01*
X100323D01*
Y31079D01*
X100164D01*
Y31000D01*
X100085D01*
Y30921D01*
X99926D01*
Y30841D01*
X99688D01*
Y30762D01*
X99450D01*
Y30683D01*
X98657D01*
Y30603D01*
X96912D01*
Y30524D01*
Y30445D01*
Y30365D01*
Y30286D01*
X96833D01*
Y30207D01*
Y30128D01*
Y30048D01*
Y29969D01*
Y29890D01*
X96754D01*
Y29810D01*
Y29731D01*
Y29652D01*
Y29572D01*
X96674D01*
Y29493D01*
Y29414D01*
Y29334D01*
Y29255D01*
X96595D01*
Y29176D01*
Y29096D01*
Y29017D01*
X96516D01*
Y28938D01*
Y28858D01*
X96436D01*
Y28779D01*
X96357D01*
Y28700D01*
X96278D01*
Y28620D01*
X96198D01*
Y28541D01*
X96119D01*
Y28462D01*
X96040D01*
Y28383D01*
X95881D01*
Y28303D01*
X95643D01*
Y28224D01*
X95326D01*
Y28303D01*
X95405D01*
Y28383D01*
Y28462D01*
Y28541D01*
X95484D01*
Y28620D01*
Y28700D01*
Y28779D01*
Y28858D01*
Y28938D01*
X95564D01*
Y29017D01*
Y29096D01*
Y29176D01*
Y29255D01*
X95643D01*
Y29334D01*
Y29414D01*
Y29493D01*
Y29572D01*
X95722D01*
Y29652D01*
Y29731D01*
Y29810D01*
Y29890D01*
Y29969D01*
X95802D01*
Y30048D01*
Y30128D01*
Y30207D01*
Y30286D01*
X95881D01*
Y30365D01*
Y30445D01*
Y30524D01*
Y30603D01*
Y30683D01*
X95960D01*
Y30762D01*
Y30841D01*
Y30921D01*
Y31000D01*
X96040D01*
Y31079D01*
Y31159D01*
Y31238D01*
Y31317D01*
X96119D01*
Y31397D01*
Y31476D01*
Y31555D01*
Y31635D01*
Y31714D01*
X96198D01*
Y31793D01*
Y31872D01*
Y31952D01*
Y32031D01*
X96278D01*
Y32111D01*
Y32190D01*
Y32269D01*
Y32348D01*
Y32428D01*
X96357D01*
Y32507D01*
Y32586D01*
Y32666D01*
Y32745D01*
X96436D01*
Y32824D01*
Y32904D01*
Y32983D01*
Y33062D01*
X96516D01*
Y33142D01*
Y33221D01*
Y33300D01*
Y33380D01*
Y33459D01*
X96595D01*
Y33538D01*
Y33617D01*
Y33697D01*
Y33776D01*
Y33856D01*
X96674D01*
Y33935D01*
X96754D01*
Y34014D01*
Y34093D01*
X96833D01*
Y34173D01*
X96912D01*
Y34252D01*
X96991D01*
Y34331D01*
X97150D01*
Y34411D01*
X97309D01*
Y34490D01*
X97547D01*
Y34569D01*
X99768D01*
Y34490D01*
D02*
G37*
G36*
X80176D02*
Y34411D01*
Y34331D01*
Y34252D01*
X80097D01*
Y34173D01*
Y34093D01*
Y34014D01*
Y33935D01*
Y33856D01*
X80017D01*
Y33776D01*
Y33697D01*
Y33617D01*
Y33538D01*
Y33459D01*
X79938D01*
Y33380D01*
Y33300D01*
Y33221D01*
Y33142D01*
X79859D01*
Y33062D01*
Y32983D01*
Y32904D01*
Y32824D01*
Y32745D01*
X79779D01*
Y32666D01*
Y32586D01*
Y32507D01*
Y32428D01*
Y32348D01*
X79700D01*
Y32269D01*
Y32190D01*
Y32111D01*
Y32031D01*
X79621D01*
Y31952D01*
Y31872D01*
Y31793D01*
Y31714D01*
Y31635D01*
X79541D01*
Y31555D01*
Y31476D01*
Y31397D01*
Y31317D01*
X79462D01*
Y31238D01*
Y31159D01*
Y31079D01*
Y31000D01*
Y30921D01*
X79383D01*
Y30841D01*
Y30762D01*
Y30683D01*
Y30603D01*
Y30524D01*
X79303D01*
Y30445D01*
Y30365D01*
Y30286D01*
Y30207D01*
X79224D01*
Y30128D01*
Y30048D01*
Y29969D01*
Y29890D01*
Y29810D01*
X79145D01*
Y29731D01*
Y29652D01*
Y29572D01*
Y29493D01*
X79066D01*
Y29414D01*
Y29334D01*
Y29255D01*
Y29176D01*
Y29096D01*
X81762D01*
Y29176D01*
X81842D01*
Y29096D01*
Y29017D01*
X81762D01*
Y28938D01*
Y28858D01*
X81683D01*
Y28779D01*
Y28700D01*
X81604D01*
Y28620D01*
X81524D01*
Y28541D01*
X81445D01*
Y28462D01*
X81366D01*
Y28383D01*
X81207D01*
Y28303D01*
X80969D01*
Y28224D01*
X77797D01*
Y28303D01*
Y28383D01*
Y28462D01*
X77876D01*
Y28541D01*
Y28620D01*
Y28700D01*
Y28779D01*
Y28858D01*
X77955D01*
Y28938D01*
Y29017D01*
Y29096D01*
Y29176D01*
Y29255D01*
X78034D01*
Y29334D01*
Y29414D01*
Y29493D01*
Y29572D01*
X78114D01*
Y29652D01*
Y29731D01*
Y29810D01*
Y29890D01*
Y29969D01*
X78193D01*
Y30048D01*
Y30128D01*
Y30207D01*
Y30286D01*
X78272D01*
Y30365D01*
Y30445D01*
Y30524D01*
Y30603D01*
Y30683D01*
X78352D01*
Y30762D01*
Y30841D01*
Y30921D01*
Y31000D01*
X78431D01*
Y31079D01*
Y31159D01*
Y31238D01*
Y31317D01*
Y31397D01*
X78510D01*
Y31476D01*
Y31555D01*
Y31635D01*
Y31714D01*
X78590D01*
Y31793D01*
Y31872D01*
Y31952D01*
Y32031D01*
X78669D01*
Y32111D01*
Y32190D01*
Y32269D01*
Y32348D01*
Y32428D01*
X78748D01*
Y32507D01*
Y32586D01*
Y32666D01*
Y32745D01*
X78828D01*
Y32824D01*
Y32904D01*
Y32983D01*
Y33062D01*
X78907D01*
Y33142D01*
Y33221D01*
Y33300D01*
Y33380D01*
X78986D01*
Y33459D01*
Y33538D01*
Y33617D01*
Y33697D01*
Y33776D01*
X79066D01*
Y33856D01*
Y33935D01*
Y34014D01*
X79145D01*
Y34093D01*
X79224D01*
Y34173D01*
X79303D01*
Y34252D01*
X79383D01*
Y34331D01*
X79462D01*
Y34411D01*
X79621D01*
Y34490D01*
X79859D01*
Y34569D01*
X80176D01*
Y34490D01*
D02*
G37*
G36*
X75893D02*
X76369D01*
Y34411D01*
X76527D01*
Y34331D01*
X76686D01*
Y34252D01*
X76845D01*
Y34173D01*
X76924D01*
Y34093D01*
X77003D01*
Y34014D01*
X77083D01*
Y33935D01*
X77162D01*
Y33856D01*
X77241D01*
Y33776D01*
X77321D01*
Y33697D01*
Y33617D01*
X77400D01*
Y33538D01*
Y33459D01*
X77479D01*
Y33380D01*
Y33300D01*
Y33221D01*
Y33142D01*
X77558D01*
Y33062D01*
Y32983D01*
Y32904D01*
Y32824D01*
Y32745D01*
Y32666D01*
Y32586D01*
Y32507D01*
X77479D01*
Y32428D01*
Y32348D01*
Y32269D01*
Y32190D01*
X77400D01*
Y32111D01*
Y32031D01*
Y31952D01*
X77321D01*
Y31872D01*
Y31793D01*
X77241D01*
Y31714D01*
Y31635D01*
X77162D01*
Y31555D01*
X77083D01*
Y31476D01*
Y31397D01*
X77003D01*
Y31317D01*
X76924D01*
Y31238D01*
X76845D01*
Y31159D01*
X76686D01*
Y31079D01*
X76607D01*
Y31000D01*
X76448D01*
Y30921D01*
X76289D01*
Y30841D01*
X76131D01*
Y30762D01*
X75814D01*
Y30683D01*
X75655D01*
Y30603D01*
Y30524D01*
Y30445D01*
X75734D01*
Y30365D01*
Y30286D01*
X75814D01*
Y30207D01*
Y30128D01*
Y30048D01*
X75893D01*
Y29969D01*
Y29890D01*
X75972D01*
Y29810D01*
Y29731D01*
Y29652D01*
X76051D01*
Y29572D01*
Y29493D01*
X76131D01*
Y29414D01*
Y29334D01*
Y29255D01*
X76210D01*
Y29176D01*
Y29096D01*
Y29017D01*
Y28938D01*
Y28858D01*
Y28779D01*
X76131D01*
Y28700D01*
Y28620D01*
X76051D01*
Y28541D01*
Y28462D01*
X75972D01*
Y28383D01*
X75814D01*
Y28303D01*
X75655D01*
Y28224D01*
X75417D01*
Y28303D01*
Y28383D01*
X75338D01*
Y28462D01*
Y28541D01*
X75258D01*
Y28620D01*
Y28700D01*
Y28779D01*
X75179D01*
Y28858D01*
Y28938D01*
Y29017D01*
X75100D01*
Y29096D01*
Y29176D01*
X75020D01*
Y29255D01*
Y29334D01*
Y29414D01*
X74941D01*
Y29493D01*
Y29572D01*
Y29652D01*
X74862D01*
Y29731D01*
Y29810D01*
Y29890D01*
X74782D01*
Y29969D01*
Y30048D01*
X74703D01*
Y30128D01*
Y30207D01*
Y30286D01*
X74624D01*
Y30365D01*
Y30445D01*
Y30524D01*
X74544D01*
Y30603D01*
X73275D01*
Y30524D01*
Y30445D01*
Y30365D01*
Y30286D01*
X73196D01*
Y30207D01*
Y30128D01*
Y30048D01*
Y29969D01*
X73117D01*
Y29890D01*
Y29810D01*
Y29731D01*
Y29652D01*
Y29572D01*
X73037D01*
Y29493D01*
Y29414D01*
Y29334D01*
Y29255D01*
Y29176D01*
X72958D01*
Y29096D01*
Y29017D01*
Y28938D01*
Y28858D01*
X72879D01*
Y28779D01*
Y28700D01*
Y28620D01*
X72799D01*
Y28541D01*
X72720D01*
Y28462D01*
X72641D01*
Y28383D01*
X72562D01*
Y28303D01*
X72403D01*
Y28224D01*
X71768D01*
Y28303D01*
Y28383D01*
Y28462D01*
Y28541D01*
X71848D01*
Y28620D01*
Y28700D01*
Y28779D01*
Y28858D01*
X71927D01*
Y28938D01*
Y29017D01*
Y29096D01*
Y29176D01*
Y29255D01*
X72006D01*
Y29334D01*
Y29414D01*
Y29493D01*
Y29572D01*
X72085D01*
Y29652D01*
Y29731D01*
Y29810D01*
Y29890D01*
Y29969D01*
X72165D01*
Y30048D01*
Y30128D01*
Y30207D01*
Y30286D01*
Y30365D01*
X72244D01*
Y30445D01*
Y30524D01*
Y30603D01*
Y30683D01*
X72324D01*
Y30762D01*
Y30841D01*
Y30921D01*
Y31000D01*
Y31079D01*
X72403D01*
Y31159D01*
Y31238D01*
Y31317D01*
Y31397D01*
X72482D01*
Y31476D01*
Y31555D01*
Y31635D01*
Y31714D01*
Y31793D01*
X72562D01*
Y31872D01*
Y31952D01*
Y32031D01*
Y32111D01*
X72641D01*
Y32190D01*
Y32269D01*
Y32348D01*
Y32428D01*
Y32507D01*
X72720D01*
Y32586D01*
Y32666D01*
Y32745D01*
Y32824D01*
X72799D01*
Y32904D01*
Y32983D01*
Y33062D01*
Y33142D01*
X72879D01*
Y33221D01*
Y33300D01*
Y33380D01*
Y33459D01*
Y33538D01*
X72958D01*
Y33617D01*
Y33697D01*
Y33776D01*
Y33856D01*
X73037D01*
Y33935D01*
Y34014D01*
Y34093D01*
X73117D01*
Y34173D01*
Y34252D01*
X73196D01*
Y34331D01*
X73275D01*
Y34411D01*
X73355D01*
Y34490D01*
X73672D01*
Y34569D01*
X75893D01*
Y34490D01*
D02*
G37*
G36*
X71927D02*
X71848D01*
Y34411D01*
Y34331D01*
X71768D01*
Y34252D01*
Y34173D01*
X71689D01*
Y34093D01*
X71610D01*
Y34014D01*
X71530D01*
Y33935D01*
X71451D01*
Y33856D01*
X71372D01*
Y33776D01*
X71213D01*
Y33697D01*
X70658D01*
Y33617D01*
X68437D01*
Y33538D01*
Y33459D01*
X68358D01*
Y33380D01*
Y33300D01*
Y33221D01*
Y33142D01*
Y33062D01*
X68278D01*
Y32983D01*
Y32904D01*
Y32824D01*
Y32745D01*
X68199D01*
Y32666D01*
Y32586D01*
Y32507D01*
Y32428D01*
Y32348D01*
X68120D01*
Y32269D01*
Y32190D01*
Y32111D01*
X68040D01*
Y32031D01*
Y31952D01*
X68199D01*
Y31872D01*
X71213D01*
Y31793D01*
Y31714D01*
X71134D01*
Y31635D01*
Y31555D01*
X71054D01*
Y31476D01*
X70975D01*
Y31397D01*
Y31317D01*
X70896D01*
Y31238D01*
X70737D01*
Y31159D01*
X70658D01*
Y31079D01*
X70420D01*
Y31000D01*
X67961D01*
Y30921D01*
X67802D01*
Y30841D01*
Y30762D01*
Y30683D01*
Y30603D01*
Y30524D01*
X67723D01*
Y30445D01*
Y30365D01*
Y30286D01*
Y30207D01*
X67644D01*
Y30128D01*
Y30048D01*
Y29969D01*
Y29890D01*
X67564D01*
Y29810D01*
Y29731D01*
Y29652D01*
Y29572D01*
Y29493D01*
X67485D01*
Y29414D01*
Y29334D01*
Y29255D01*
Y29176D01*
X68120D01*
Y29096D01*
X70578D01*
Y29176D01*
X70658D01*
Y29096D01*
Y29017D01*
Y28938D01*
X70578D01*
Y28858D01*
Y28779D01*
X70499D01*
Y28700D01*
X70420D01*
Y28620D01*
X70341D01*
Y28541D01*
X70261D01*
Y28462D01*
X70182D01*
Y28383D01*
X70103D01*
Y28303D01*
X69865D01*
Y28224D01*
X66216D01*
Y28303D01*
Y28383D01*
Y28462D01*
X66295D01*
Y28541D01*
Y28620D01*
Y28700D01*
Y28779D01*
Y28858D01*
X66375D01*
Y28938D01*
Y29017D01*
Y29096D01*
Y29176D01*
X66454D01*
Y29255D01*
Y29334D01*
Y29414D01*
Y29493D01*
Y29572D01*
X66533D01*
Y29652D01*
Y29731D01*
Y29810D01*
Y29890D01*
X66613D01*
Y29969D01*
Y30048D01*
Y30128D01*
Y30207D01*
Y30286D01*
X66692D01*
Y30365D01*
Y30445D01*
Y30524D01*
Y30603D01*
Y30683D01*
X66771D01*
Y30762D01*
Y30841D01*
Y30921D01*
Y31000D01*
X66851D01*
Y31079D01*
Y31159D01*
Y31238D01*
Y31317D01*
Y31397D01*
X66930D01*
Y31476D01*
Y31555D01*
Y31635D01*
Y31714D01*
X67009D01*
Y31793D01*
Y31872D01*
Y31952D01*
Y32031D01*
Y32111D01*
X67089D01*
Y32190D01*
Y32269D01*
Y32348D01*
Y32428D01*
Y32507D01*
X67168D01*
Y32586D01*
Y32666D01*
Y32745D01*
Y32824D01*
X67247D01*
Y32904D01*
Y32983D01*
Y33062D01*
Y33142D01*
X67326D01*
Y33221D01*
Y33300D01*
Y33380D01*
Y33459D01*
Y33538D01*
X67406D01*
Y33617D01*
Y33697D01*
Y33776D01*
X67485D01*
Y33856D01*
Y33935D01*
Y34014D01*
X67564D01*
Y34093D01*
X67644D01*
Y34173D01*
X67723D01*
Y34252D01*
X67802D01*
Y34331D01*
X67882D01*
Y34411D01*
X68040D01*
Y34490D01*
X68358D01*
Y34569D01*
X71927D01*
Y34490D01*
D02*
G37*
G36*
X66613D02*
X66533D01*
Y34411D01*
X66454D01*
Y34331D01*
Y34252D01*
X66375D01*
Y34173D01*
Y34093D01*
X66295D01*
Y34014D01*
X66216D01*
Y33935D01*
X66137D01*
Y33856D01*
X65978D01*
Y33776D01*
X65819D01*
Y33697D01*
X65581D01*
Y33617D01*
X64392D01*
Y33538D01*
Y33459D01*
Y33380D01*
Y33300D01*
X64312D01*
Y33221D01*
Y33142D01*
Y33062D01*
Y32983D01*
X64233D01*
Y32904D01*
Y32824D01*
Y32745D01*
Y32666D01*
Y32586D01*
X64154D01*
Y32507D01*
Y32428D01*
Y32348D01*
Y32269D01*
Y32190D01*
X64074D01*
Y32111D01*
Y32031D01*
Y31952D01*
Y31872D01*
X63995D01*
Y31793D01*
Y31714D01*
Y31635D01*
Y31555D01*
Y31476D01*
X63916D01*
Y31397D01*
Y31317D01*
Y31238D01*
Y31159D01*
X63836D01*
Y31079D01*
Y31000D01*
Y30921D01*
Y30841D01*
Y30762D01*
X63757D01*
Y30683D01*
Y30603D01*
Y30524D01*
Y30445D01*
X63678D01*
Y30365D01*
Y30286D01*
Y30207D01*
Y30128D01*
Y30048D01*
X63599D01*
Y29969D01*
Y29890D01*
Y29810D01*
Y29731D01*
X63519D01*
Y29652D01*
Y29572D01*
Y29493D01*
Y29414D01*
X63440D01*
Y29334D01*
Y29255D01*
Y29176D01*
Y29096D01*
X63361D01*
Y29017D01*
Y28938D01*
Y28858D01*
X63281D01*
Y28779D01*
Y28700D01*
X63202D01*
Y28620D01*
X63123D01*
Y28541D01*
X63043D01*
Y28462D01*
X62885D01*
Y28383D01*
X62805D01*
Y28303D01*
X62567D01*
Y28224D01*
X62171D01*
Y28303D01*
Y28383D01*
X62250D01*
Y28462D01*
Y28541D01*
Y28620D01*
Y28700D01*
Y28779D01*
X62329D01*
Y28858D01*
Y28938D01*
Y29017D01*
Y29096D01*
X62409D01*
Y29176D01*
Y29255D01*
Y29334D01*
Y29414D01*
Y29493D01*
X62488D01*
Y29572D01*
Y29652D01*
Y29731D01*
Y29810D01*
X62567D01*
Y29890D01*
Y29969D01*
Y30048D01*
Y30128D01*
Y30207D01*
X62647D01*
Y30286D01*
Y30365D01*
Y30445D01*
Y30524D01*
X62726D01*
Y30603D01*
Y30683D01*
Y30762D01*
Y30841D01*
Y30921D01*
X62805D01*
Y31000D01*
Y31079D01*
Y31159D01*
Y31238D01*
Y31317D01*
X62885D01*
Y31397D01*
Y31476D01*
Y31555D01*
Y31635D01*
X62964D01*
Y31714D01*
Y31793D01*
Y31872D01*
Y31952D01*
Y32031D01*
X63043D01*
Y32111D01*
Y32190D01*
Y32269D01*
Y32348D01*
X63123D01*
Y32428D01*
Y32507D01*
Y32586D01*
Y32666D01*
Y32745D01*
X63202D01*
Y32824D01*
Y32904D01*
Y32983D01*
Y33062D01*
X63281D01*
Y33142D01*
Y33221D01*
Y33300D01*
Y33380D01*
Y33459D01*
X63361D01*
Y33538D01*
Y33617D01*
X61457D01*
Y33697D01*
Y33776D01*
X61536D01*
Y33856D01*
Y33935D01*
X61616D01*
Y34014D01*
Y34093D01*
X61695D01*
Y34173D01*
X61774D01*
Y34252D01*
X61853D01*
Y34331D01*
X61933D01*
Y34411D01*
X62091D01*
Y34490D01*
X62567D01*
Y34569D01*
X66613D01*
Y34490D01*
D02*
G37*
G36*
X59395D02*
Y34411D01*
Y34331D01*
Y34252D01*
X59474D01*
Y34173D01*
Y34093D01*
Y34014D01*
Y33935D01*
Y33856D01*
Y33776D01*
X59553D01*
Y33697D01*
Y33617D01*
Y33538D01*
Y33459D01*
Y33380D01*
X59633D01*
Y33300D01*
Y33221D01*
Y33142D01*
Y33062D01*
Y32983D01*
Y32904D01*
X59712D01*
Y32824D01*
Y32745D01*
Y32666D01*
Y32586D01*
Y32507D01*
Y32428D01*
X59791D01*
Y32348D01*
Y32269D01*
Y32190D01*
Y32111D01*
Y32031D01*
X59870D01*
Y31952D01*
Y31872D01*
Y31793D01*
Y31714D01*
Y31635D01*
Y31555D01*
X59950D01*
Y31476D01*
Y31397D01*
Y31317D01*
Y31238D01*
Y31159D01*
Y31079D01*
X60029D01*
Y31000D01*
Y30921D01*
Y30841D01*
Y30762D01*
Y30683D01*
Y30603D01*
X60109D01*
Y30524D01*
Y30445D01*
Y30365D01*
Y30286D01*
Y30207D01*
Y30128D01*
X60188D01*
Y30048D01*
Y29969D01*
Y29890D01*
Y29810D01*
Y29731D01*
Y29652D01*
X60267D01*
Y29572D01*
Y29493D01*
Y29414D01*
Y29334D01*
Y29255D01*
Y29176D01*
Y29096D01*
Y29017D01*
Y28938D01*
Y28858D01*
Y28779D01*
X60188D01*
Y28700D01*
Y28620D01*
X60109D01*
Y28541D01*
X60029D01*
Y28462D01*
X59950D01*
Y28383D01*
X59870D01*
Y28303D01*
X59633D01*
Y28224D01*
X59395D01*
Y28303D01*
Y28383D01*
Y28462D01*
X59315D01*
Y28541D01*
Y28620D01*
Y28700D01*
Y28779D01*
Y28858D01*
Y28938D01*
X59236D01*
Y29017D01*
Y29096D01*
Y29176D01*
Y29255D01*
Y29334D01*
Y29414D01*
X56063D01*
Y29334D01*
X55984D01*
Y29255D01*
Y29176D01*
X55905D01*
Y29096D01*
Y29017D01*
X55825D01*
Y28938D01*
X55746D01*
Y28858D01*
Y28779D01*
X55667D01*
Y28700D01*
X55587D01*
Y28620D01*
Y28541D01*
X55508D01*
Y28462D01*
X55429D01*
Y28383D01*
X55349D01*
Y28303D01*
X55191D01*
Y28224D01*
X54160D01*
Y28303D01*
X54239D01*
Y28383D01*
X54318D01*
Y28462D01*
Y28541D01*
X54398D01*
Y28620D01*
Y28700D01*
X54477D01*
Y28779D01*
X54556D01*
Y28858D01*
Y28938D01*
X54636D01*
Y29017D01*
X54715D01*
Y29096D01*
Y29176D01*
X54794D01*
Y29255D01*
Y29334D01*
X54874D01*
Y29414D01*
X54953D01*
Y29493D01*
Y29572D01*
X55032D01*
Y29652D01*
Y29731D01*
X55111D01*
Y29810D01*
X55191D01*
Y29890D01*
Y29969D01*
X55270D01*
Y30048D01*
Y30128D01*
X55349D01*
Y30207D01*
X55429D01*
Y30286D01*
Y30365D01*
X55508D01*
Y30445D01*
X55587D01*
Y30524D01*
Y30603D01*
X55667D01*
Y30683D01*
Y30762D01*
X55746D01*
Y30841D01*
X55825D01*
Y30921D01*
Y31000D01*
X55905D01*
Y31079D01*
Y31159D01*
X55984D01*
Y31238D01*
X56063D01*
Y31317D01*
Y31397D01*
X56143D01*
Y31476D01*
X56222D01*
Y31555D01*
Y31635D01*
X56301D01*
Y31714D01*
Y31793D01*
X56380D01*
Y31872D01*
X56460D01*
Y31952D01*
Y32031D01*
X56539D01*
Y32111D01*
Y32190D01*
X56618D01*
Y32269D01*
X56698D01*
Y32348D01*
Y32428D01*
X56777D01*
Y32507D01*
X56856D01*
Y32586D01*
Y32666D01*
X56936D01*
Y32745D01*
Y32824D01*
X57015D01*
Y32904D01*
X57094D01*
Y32983D01*
Y33062D01*
X57174D01*
Y33142D01*
Y33221D01*
X57253D01*
Y33300D01*
X57332D01*
Y33380D01*
Y33459D01*
X57412D01*
Y33538D01*
X57491D01*
Y33617D01*
Y33697D01*
X57570D01*
Y33776D01*
Y33856D01*
X57650D01*
Y33935D01*
X57729D01*
Y34014D01*
Y34093D01*
X57808D01*
Y34173D01*
Y34252D01*
X57888D01*
Y34331D01*
X58046D01*
Y34411D01*
X58126D01*
Y34490D01*
X58363D01*
Y34569D01*
X59395D01*
Y34490D01*
D02*
G37*
G36*
X55984Y36632D02*
Y36552D01*
X55905D01*
Y36473D01*
Y36394D01*
X55825D01*
Y36314D01*
X55746D01*
Y36235D01*
Y36156D01*
X55667D01*
Y36076D01*
Y35997D01*
X55587D01*
Y35918D01*
X55508D01*
Y35838D01*
Y35759D01*
X55429D01*
Y35680D01*
Y35601D01*
X55349D01*
Y35521D01*
X55270D01*
Y35442D01*
Y35362D01*
X55191D01*
Y35283D01*
Y35204D01*
X55111D01*
Y35124D01*
X55032D01*
Y35045D01*
Y34966D01*
X54953D01*
Y34887D01*
X54874D01*
Y34807D01*
Y34728D01*
X54794D01*
Y34649D01*
Y34569D01*
X54715D01*
Y34490D01*
X54636D01*
Y34411D01*
Y34331D01*
X54556D01*
Y34252D01*
Y34173D01*
X54477D01*
Y34093D01*
X54398D01*
Y34014D01*
Y33935D01*
X54318D01*
Y33856D01*
Y33776D01*
X54239D01*
Y33697D01*
X54160D01*
Y33617D01*
Y33538D01*
X54080D01*
Y33459D01*
Y33380D01*
X54001D01*
Y33300D01*
X53922D01*
Y33221D01*
Y33142D01*
X53842D01*
Y33062D01*
X53763D01*
Y32983D01*
Y32904D01*
X53684D01*
Y32824D01*
Y32745D01*
X53604D01*
Y32666D01*
X53525D01*
Y32586D01*
Y32507D01*
X53446D01*
Y32428D01*
Y32348D01*
X53366D01*
Y32269D01*
X53287D01*
Y32190D01*
Y32111D01*
X53208D01*
Y32031D01*
Y31952D01*
X53128D01*
Y31872D01*
X53049D01*
Y31793D01*
Y31714D01*
X52970D01*
Y31635D01*
X52890D01*
Y31555D01*
Y31476D01*
X52811D01*
Y31397D01*
Y31317D01*
X52732D01*
Y31238D01*
X52653D01*
Y31159D01*
Y31079D01*
X52573D01*
Y31000D01*
Y30921D01*
X52494D01*
Y30841D01*
X52415D01*
Y30762D01*
Y30683D01*
X52335D01*
Y30603D01*
Y30524D01*
X52256D01*
Y30445D01*
X52177D01*
Y30365D01*
Y30286D01*
X52097D01*
Y30207D01*
X52018D01*
Y30128D01*
Y30048D01*
X51939D01*
Y29969D01*
Y29890D01*
X51859D01*
Y29810D01*
X51780D01*
Y29731D01*
Y29652D01*
X51701D01*
Y29572D01*
Y29493D01*
X51621D01*
Y29414D01*
X51542D01*
Y29334D01*
Y29255D01*
X51463D01*
Y29176D01*
X51384D01*
Y29096D01*
Y29017D01*
X51304D01*
Y28938D01*
X51225D01*
Y28858D01*
X51145D01*
Y28779D01*
X51066D01*
Y28700D01*
X50987D01*
Y28620D01*
X50908D01*
Y28541D01*
X50749D01*
Y28462D01*
X50590D01*
Y28383D01*
X50432D01*
Y28303D01*
X50114D01*
Y28224D01*
X48687D01*
Y28303D01*
X48766D01*
Y28383D01*
Y28462D01*
X48845D01*
Y28541D01*
Y28620D01*
X48925D01*
Y28700D01*
X49004D01*
Y28779D01*
Y28858D01*
X49083D01*
Y28938D01*
X49163D01*
Y29017D01*
Y29096D01*
X49242D01*
Y29176D01*
Y29255D01*
X49321D01*
Y29334D01*
X49400D01*
Y29414D01*
Y29493D01*
X49480D01*
Y29572D01*
Y29652D01*
X49559D01*
Y29731D01*
X49639D01*
Y29810D01*
Y29890D01*
X49718D01*
Y29969D01*
Y30048D01*
X49797D01*
Y30128D01*
X49876D01*
Y30207D01*
Y30286D01*
X49956D01*
Y30365D01*
Y30445D01*
X50035D01*
Y30524D01*
X50114D01*
Y30603D01*
Y30683D01*
X50194D01*
Y30762D01*
X50273D01*
Y30841D01*
Y30921D01*
X50352D01*
Y31000D01*
Y31079D01*
X50432D01*
Y31159D01*
X50511D01*
Y31238D01*
Y31317D01*
X50590D01*
Y31397D01*
Y31476D01*
X50670D01*
Y31555D01*
X50749D01*
Y31635D01*
Y31714D01*
X50828D01*
Y31793D01*
Y31872D01*
X50908D01*
Y31952D01*
X50987D01*
Y32031D01*
Y32111D01*
X51066D01*
Y32190D01*
Y32269D01*
X51145D01*
Y32348D01*
X51225D01*
Y32428D01*
Y32507D01*
X51304D01*
Y32586D01*
X51384D01*
Y32666D01*
Y32745D01*
X51463D01*
Y32824D01*
Y32904D01*
X51542D01*
Y32983D01*
X51621D01*
Y33062D01*
Y33142D01*
X51701D01*
Y33221D01*
X51780D01*
Y33300D01*
Y33380D01*
X51859D01*
Y33459D01*
Y33538D01*
X51939D01*
Y33617D01*
X52018D01*
Y33697D01*
Y33776D01*
X52097D01*
Y33856D01*
Y33935D01*
X52177D01*
Y34014D01*
X52256D01*
Y34093D01*
Y34173D01*
X52335D01*
Y34252D01*
X52415D01*
Y34331D01*
Y34411D01*
X52494D01*
Y34490D01*
Y34569D01*
X52573D01*
Y34649D01*
X52653D01*
Y34728D01*
Y34807D01*
X52732D01*
Y34887D01*
X52811D01*
Y34966D01*
Y35045D01*
X52890D01*
Y35124D01*
Y35204D01*
X52970D01*
Y35283D01*
X53049D01*
Y35362D01*
Y35442D01*
X53128D01*
Y35521D01*
X53208D01*
Y35601D01*
Y35680D01*
X53287D01*
Y35759D01*
Y35838D01*
X53366D01*
Y35918D01*
X53446D01*
Y35997D01*
Y36076D01*
X53525D01*
Y36156D01*
X53604D01*
Y36235D01*
X53763D01*
Y36314D01*
X53842D01*
Y36394D01*
X54001D01*
Y36473D01*
X54160D01*
Y36552D01*
X54318D01*
Y36632D01*
X54636D01*
Y36711D01*
X55984D01*
Y36632D01*
D02*
G37*
G36*
X50511D02*
Y36552D01*
X50432D01*
Y36473D01*
Y36394D01*
X50352D01*
Y36314D01*
X50273D01*
Y36235D01*
Y36156D01*
X50194D01*
Y36076D01*
Y35997D01*
X50114D01*
Y35918D01*
X50035D01*
Y35838D01*
Y35759D01*
X49956D01*
Y35680D01*
Y35601D01*
X49876D01*
Y35521D01*
X49797D01*
Y35442D01*
Y35362D01*
X49718D01*
Y35283D01*
X49639D01*
Y35204D01*
Y35124D01*
X49559D01*
Y35045D01*
Y34966D01*
X49480D01*
Y34887D01*
X49400D01*
Y34807D01*
Y34728D01*
X49321D01*
Y34649D01*
Y34569D01*
X49242D01*
Y34490D01*
X49163D01*
Y34411D01*
Y34331D01*
X49083D01*
Y34252D01*
Y34173D01*
X49004D01*
Y34093D01*
X48925D01*
Y34014D01*
Y33935D01*
X48845D01*
Y33856D01*
Y33776D01*
X48766D01*
Y33697D01*
X48687D01*
Y33617D01*
Y33538D01*
X48607D01*
Y33459D01*
X48528D01*
Y33380D01*
Y33300D01*
X48449D01*
Y33221D01*
Y33142D01*
X48369D01*
Y33062D01*
X48290D01*
Y32983D01*
Y32904D01*
X48211D01*
Y32824D01*
Y32745D01*
X48131D01*
Y32666D01*
X48052D01*
Y32586D01*
Y32507D01*
X47973D01*
Y32428D01*
Y32348D01*
X47894D01*
Y32269D01*
X47814D01*
Y32190D01*
Y32111D01*
X47735D01*
Y32031D01*
X47655D01*
Y31952D01*
Y31872D01*
X47576D01*
Y31793D01*
Y31714D01*
X47497D01*
Y31635D01*
X47418D01*
Y31555D01*
Y31476D01*
X47338D01*
Y31397D01*
Y31317D01*
X47259D01*
Y31238D01*
X47180D01*
Y31159D01*
Y31079D01*
X47100D01*
Y31000D01*
Y30921D01*
X47021D01*
Y30841D01*
X46942D01*
Y30762D01*
Y30683D01*
X46862D01*
Y30603D01*
X46783D01*
Y30524D01*
Y30445D01*
X46704D01*
Y30365D01*
Y30286D01*
X46624D01*
Y30207D01*
X46545D01*
Y30128D01*
Y30048D01*
X46466D01*
Y29969D01*
Y29890D01*
X46386D01*
Y29810D01*
X46307D01*
Y29731D01*
Y29652D01*
X46228D01*
Y29572D01*
X46148D01*
Y29493D01*
Y29414D01*
X46069D01*
Y29334D01*
Y29255D01*
X45990D01*
Y29176D01*
X45911D01*
Y29096D01*
Y29017D01*
X45831D01*
Y28938D01*
X45752D01*
Y28858D01*
X45673D01*
Y28779D01*
X45593D01*
Y28700D01*
X45514D01*
Y28620D01*
X45435D01*
Y28541D01*
X45276D01*
Y28462D01*
X45117D01*
Y28383D01*
X44959D01*
Y28303D01*
X44641D01*
Y28224D01*
X43214D01*
Y28303D01*
X43293D01*
Y28383D01*
Y28462D01*
X43372D01*
Y28541D01*
X43452D01*
Y28620D01*
Y28700D01*
X43531D01*
Y28779D01*
Y28858D01*
X43610D01*
Y28938D01*
X43690D01*
Y29017D01*
Y29096D01*
X43769D01*
Y29176D01*
Y29255D01*
X43848D01*
Y29334D01*
X43928D01*
Y29414D01*
Y29493D01*
X44007D01*
Y29572D01*
Y29652D01*
X44086D01*
Y29731D01*
X44166D01*
Y29810D01*
Y29890D01*
X44245D01*
Y29969D01*
X44324D01*
Y30048D01*
Y30128D01*
X44403D01*
Y30207D01*
Y30286D01*
X44483D01*
Y30365D01*
X44562D01*
Y30445D01*
Y30524D01*
X44641D01*
Y30603D01*
Y30683D01*
X44721D01*
Y30762D01*
X44800D01*
Y30841D01*
Y30921D01*
X44879D01*
Y31000D01*
Y31079D01*
X44959D01*
Y31159D01*
X45038D01*
Y31238D01*
Y31317D01*
X45117D01*
Y31397D01*
X45197D01*
Y31476D01*
Y31555D01*
X45276D01*
Y31635D01*
Y31714D01*
X45355D01*
Y31793D01*
X45435D01*
Y31872D01*
Y31952D01*
X45514D01*
Y32031D01*
Y32111D01*
X45593D01*
Y32190D01*
X45673D01*
Y32269D01*
Y32348D01*
X45752D01*
Y32428D01*
Y32507D01*
X45831D01*
Y32586D01*
X45911D01*
Y32666D01*
Y32745D01*
X45990D01*
Y32824D01*
X46069D01*
Y32904D01*
Y32983D01*
X46148D01*
Y33062D01*
Y33142D01*
X46228D01*
Y33221D01*
X46307D01*
Y33300D01*
Y33380D01*
X46386D01*
Y33459D01*
Y33538D01*
X46466D01*
Y33617D01*
X46545D01*
Y33697D01*
Y33776D01*
X46624D01*
Y33856D01*
Y33935D01*
X46704D01*
Y34014D01*
X46783D01*
Y34093D01*
Y34173D01*
X46862D01*
Y34252D01*
X46942D01*
Y34331D01*
Y34411D01*
X47021D01*
Y34490D01*
Y34569D01*
X47100D01*
Y34649D01*
X47180D01*
Y34728D01*
Y34807D01*
X47259D01*
Y34887D01*
Y34966D01*
X47338D01*
Y35045D01*
X47418D01*
Y35124D01*
Y35204D01*
X47497D01*
Y35283D01*
Y35362D01*
X47576D01*
Y35442D01*
X47655D01*
Y35521D01*
Y35601D01*
X47735D01*
Y35680D01*
Y35759D01*
X47814D01*
Y35838D01*
X47894D01*
Y35918D01*
X47973D01*
Y35997D01*
Y36076D01*
X48052D01*
Y36156D01*
X48211D01*
Y36235D01*
X48290D01*
Y36314D01*
X48369D01*
Y36394D01*
X48528D01*
Y36473D01*
X48687D01*
Y36552D01*
X48845D01*
Y36632D01*
X49163D01*
Y36711D01*
X50511D01*
Y36632D01*
D02*
G37*
%LPC*%
G36*
X91994Y33776D02*
X91756D01*
Y33697D01*
X91281D01*
Y33617D01*
X91043D01*
Y33538D01*
X90884D01*
Y33459D01*
X90725D01*
Y33380D01*
X90646D01*
Y33300D01*
X90487D01*
Y33221D01*
X90408D01*
Y33142D01*
X90329D01*
Y33062D01*
X90249D01*
Y32983D01*
X90170D01*
Y32904D01*
X90091D01*
Y32824D01*
X90012D01*
Y32745D01*
X89932D01*
Y32666D01*
Y32586D01*
X89853D01*
Y32507D01*
X89773D01*
Y32428D01*
Y32348D01*
X89694D01*
Y32269D01*
Y32190D01*
X89615D01*
Y32111D01*
Y32031D01*
Y31952D01*
X89536D01*
Y31872D01*
Y31793D01*
Y31714D01*
Y31635D01*
X89456D01*
Y31555D01*
Y31476D01*
Y31397D01*
Y31317D01*
Y31238D01*
Y31159D01*
Y31079D01*
Y31000D01*
Y30921D01*
Y30841D01*
Y30762D01*
Y30683D01*
Y30603D01*
Y30524D01*
Y30445D01*
X89536D01*
Y30365D01*
Y30286D01*
Y30207D01*
X89615D01*
Y30128D01*
Y30048D01*
Y29969D01*
X89694D01*
Y29890D01*
X89773D01*
Y29810D01*
Y29731D01*
X89853D01*
Y29652D01*
X89932D01*
Y29572D01*
X90012D01*
Y29493D01*
X90091D01*
Y29414D01*
X90249D01*
Y29334D01*
X90329D01*
Y29255D01*
X90487D01*
Y29176D01*
X90725D01*
Y29096D01*
X91122D01*
Y29017D01*
X91677D01*
Y29096D01*
X92074D01*
Y29176D01*
X92232D01*
Y29255D01*
X92470D01*
Y29334D01*
X92550D01*
Y29414D01*
X92708D01*
Y29493D01*
X92788D01*
Y29572D01*
X92946D01*
Y29652D01*
X93026D01*
Y29731D01*
X93105D01*
Y29810D01*
X93184D01*
Y29890D01*
X93264D01*
Y29969D01*
Y30048D01*
X93343D01*
Y30128D01*
X93422D01*
Y30207D01*
X93502D01*
Y30286D01*
Y30365D01*
X93581D01*
Y30445D01*
Y30524D01*
X93660D01*
Y30603D01*
Y30683D01*
Y30762D01*
X93739D01*
Y30841D01*
Y30921D01*
Y31000D01*
X93819D01*
Y31079D01*
Y31159D01*
Y31238D01*
Y31317D01*
Y31397D01*
X93898D01*
Y31476D01*
Y31555D01*
Y31635D01*
Y31714D01*
Y31793D01*
Y31872D01*
Y31952D01*
Y32031D01*
Y32111D01*
X93819D01*
Y32190D01*
Y32269D01*
Y32348D01*
Y32428D01*
Y32507D01*
X93739D01*
Y32586D01*
Y32666D01*
X93660D01*
Y32745D01*
Y32824D01*
X93581D01*
Y32904D01*
Y32983D01*
X93502D01*
Y33062D01*
X93422D01*
Y33142D01*
X93343D01*
Y33221D01*
X93264D01*
Y33300D01*
X93184D01*
Y33380D01*
X93026D01*
Y33459D01*
X92946D01*
Y33538D01*
X92788D01*
Y33617D01*
X92550D01*
Y33697D01*
X91994D01*
Y33776D01*
D02*
G37*
G36*
X86442D02*
X86204D01*
Y33697D01*
X85728D01*
Y33617D01*
X85490D01*
Y33538D01*
X85332D01*
Y33459D01*
X85173D01*
Y33380D01*
X85094D01*
Y33300D01*
X84935D01*
Y33221D01*
X84856D01*
Y33142D01*
X84777D01*
Y33062D01*
X84697D01*
Y32983D01*
X84618D01*
Y32904D01*
X84539D01*
Y32824D01*
X84459D01*
Y32745D01*
X84380D01*
Y32666D01*
Y32586D01*
X84301D01*
Y32507D01*
X84221D01*
Y32428D01*
Y32348D01*
X84142D01*
Y32269D01*
Y32190D01*
X84063D01*
Y32111D01*
Y32031D01*
Y31952D01*
X83983D01*
Y31872D01*
Y31793D01*
Y31714D01*
Y31635D01*
X83904D01*
Y31555D01*
Y31476D01*
Y31397D01*
Y31317D01*
Y31238D01*
Y31159D01*
Y31079D01*
Y31000D01*
Y30921D01*
Y30841D01*
Y30762D01*
Y30683D01*
Y30603D01*
Y30524D01*
Y30445D01*
Y30365D01*
X83983D01*
Y30286D01*
Y30207D01*
X84063D01*
Y30128D01*
Y30048D01*
X84142D01*
Y29969D01*
Y29890D01*
X84221D01*
Y29810D01*
X84301D01*
Y29731D01*
Y29652D01*
X84380D01*
Y29572D01*
X84459D01*
Y29493D01*
X84539D01*
Y29414D01*
X84697D01*
Y29334D01*
X84777D01*
Y29255D01*
X84935D01*
Y29176D01*
X85173D01*
Y29096D01*
X85490D01*
Y29017D01*
X86204D01*
Y29096D01*
X86522D01*
Y29176D01*
X86759D01*
Y29255D01*
X86918D01*
Y29334D01*
X87077D01*
Y29414D01*
X87156D01*
Y29493D01*
X87315D01*
Y29572D01*
X87394D01*
Y29652D01*
X87473D01*
Y29731D01*
X87553D01*
Y29810D01*
X87632D01*
Y29890D01*
X87711D01*
Y29969D01*
Y30048D01*
X87791D01*
Y30128D01*
X87870D01*
Y30207D01*
Y30286D01*
X87949D01*
Y30365D01*
X88029D01*
Y30445D01*
Y30524D01*
X88108D01*
Y30603D01*
Y30683D01*
Y30762D01*
X88187D01*
Y30841D01*
Y30921D01*
Y31000D01*
X88266D01*
Y31079D01*
Y31159D01*
Y31238D01*
Y31317D01*
Y31397D01*
Y31476D01*
X88346D01*
Y31555D01*
Y31635D01*
Y31714D01*
Y31793D01*
Y31872D01*
Y31952D01*
Y32031D01*
Y32111D01*
X88266D01*
Y32190D01*
Y32269D01*
Y32348D01*
Y32428D01*
Y32507D01*
X88187D01*
Y32586D01*
Y32666D01*
X88108D01*
Y32745D01*
Y32824D01*
X88029D01*
Y32904D01*
X87949D01*
Y32983D01*
Y33062D01*
X87870D01*
Y33142D01*
X87791D01*
Y33221D01*
X87711D01*
Y33300D01*
X87632D01*
Y33380D01*
X87473D01*
Y33459D01*
X87394D01*
Y33538D01*
X87235D01*
Y33617D01*
X86997D01*
Y33697D01*
X86442D01*
Y33776D01*
D02*
G37*
G36*
X99450Y33617D02*
X97547D01*
Y33538D01*
Y33459D01*
Y33380D01*
Y33300D01*
Y33221D01*
X97467D01*
Y33142D01*
Y33062D01*
Y32983D01*
Y32904D01*
X97388D01*
Y32824D01*
Y32745D01*
Y32666D01*
Y32586D01*
Y32507D01*
X97309D01*
Y32428D01*
Y32348D01*
Y32269D01*
Y32190D01*
Y32111D01*
X97229D01*
Y32031D01*
Y31952D01*
Y31872D01*
Y31793D01*
X97150D01*
Y31714D01*
Y31635D01*
Y31555D01*
X99133D01*
Y31635D01*
X99371D01*
Y31714D01*
X99530D01*
Y31793D01*
X99609D01*
Y31872D01*
X99688D01*
Y31952D01*
X99768D01*
Y32031D01*
X99847D01*
Y32111D01*
X99926D01*
Y32190D01*
Y32269D01*
X100006D01*
Y32348D01*
Y32428D01*
Y32507D01*
Y32586D01*
X100085D01*
Y32666D01*
Y32745D01*
Y32824D01*
Y32904D01*
Y32983D01*
X100006D01*
Y33062D01*
Y33142D01*
X99926D01*
Y33221D01*
Y33300D01*
X99847D01*
Y33380D01*
X99768D01*
Y33459D01*
X99609D01*
Y33538D01*
X99450D01*
Y33617D01*
D02*
G37*
G36*
X75814D02*
X73989D01*
Y33538D01*
Y33459D01*
X73910D01*
Y33380D01*
Y33300D01*
Y33221D01*
Y33142D01*
X73830D01*
Y33062D01*
Y32983D01*
Y32904D01*
Y32824D01*
Y32745D01*
X73751D01*
Y32666D01*
Y32586D01*
Y32507D01*
Y32428D01*
X73672D01*
Y32348D01*
Y32269D01*
Y32190D01*
Y32111D01*
Y32031D01*
X73593D01*
Y31952D01*
Y31872D01*
Y31793D01*
Y31714D01*
X73513D01*
Y31635D01*
Y31555D01*
X75496D01*
Y31635D01*
X75734D01*
Y31714D01*
X75893D01*
Y31793D01*
X76051D01*
Y31872D01*
X76131D01*
Y31952D01*
X76210D01*
Y32031D01*
Y32111D01*
X76289D01*
Y32190D01*
Y32269D01*
X76369D01*
Y32348D01*
Y32428D01*
X76448D01*
Y32507D01*
Y32586D01*
Y32666D01*
Y32745D01*
Y32824D01*
Y32904D01*
Y32983D01*
X76369D01*
Y33062D01*
Y33142D01*
X76289D01*
Y33221D01*
Y33300D01*
X76210D01*
Y33380D01*
X76131D01*
Y33459D01*
X75972D01*
Y33538D01*
X75814D01*
Y33617D01*
D02*
G37*
G36*
X70341Y31159D02*
X70182D01*
Y31079D01*
X70341D01*
Y31159D01*
D02*
G37*
G36*
X58601Y33538D02*
X58443D01*
Y33459D01*
Y33380D01*
X58363D01*
Y33300D01*
Y33221D01*
X58284D01*
Y33142D01*
X58205D01*
Y33062D01*
Y32983D01*
X58126D01*
Y32904D01*
Y32824D01*
X58046D01*
Y32745D01*
X57967D01*
Y32666D01*
Y32586D01*
X57888D01*
Y32507D01*
Y32428D01*
X57808D01*
Y32348D01*
X57729D01*
Y32269D01*
Y32190D01*
X57650D01*
Y32111D01*
Y32031D01*
X57570D01*
Y31952D01*
X57491D01*
Y31872D01*
Y31793D01*
X57412D01*
Y31714D01*
Y31635D01*
X57332D01*
Y31555D01*
X57253D01*
Y31476D01*
Y31397D01*
X57174D01*
Y31317D01*
Y31238D01*
X57094D01*
Y31159D01*
X57015D01*
Y31079D01*
Y31000D01*
X56936D01*
Y30921D01*
Y30841D01*
X56856D01*
Y30762D01*
Y30683D01*
X56777D01*
Y30603D01*
X56698D01*
Y30524D01*
X56618D01*
Y30445D01*
Y30365D01*
X59077D01*
Y30445D01*
Y30524D01*
Y30603D01*
Y30683D01*
Y30762D01*
X58998D01*
Y30841D01*
Y30921D01*
Y31000D01*
Y31079D01*
Y31159D01*
Y31238D01*
X58919D01*
Y31317D01*
Y31397D01*
Y31476D01*
Y31555D01*
Y31635D01*
Y31714D01*
X58839D01*
Y31793D01*
Y31872D01*
Y31952D01*
Y32031D01*
Y32111D01*
Y32190D01*
Y32269D01*
X58760D01*
Y32348D01*
Y32428D01*
Y32507D01*
Y32586D01*
Y32666D01*
Y32745D01*
X58681D01*
Y32824D01*
Y32904D01*
Y32983D01*
Y33062D01*
Y33142D01*
Y33221D01*
X58601D01*
Y33300D01*
Y33380D01*
Y33459D01*
Y33538D01*
D02*
G37*
%LPD*%
D10*
X226295Y102500D02*
X225705D01*
X226295D01*
D11*
X148984Y84748D02*
D03*
X149949Y55689D02*
D03*
D12*
X272500Y134500D02*
X272398Y135506D01*
X272095Y136472D01*
X271604Y137356D01*
X270945Y138124D01*
X270145Y138743D01*
X269236Y139189D01*
X268257Y139442D01*
X267247Y139494D01*
X266247Y139340D01*
X265298Y138989D01*
X264440Y138454D01*
X263706Y137757D01*
X263128Y136926D01*
X262729Y135997D01*
X262526Y135006D01*
Y133994D01*
X262729Y133003D01*
X263128Y132073D01*
X263706Y131243D01*
X264440Y130546D01*
X265298Y130011D01*
X266247Y129660D01*
X267247Y129506D01*
X268257Y129558D01*
X269236Y129811D01*
X270145Y130257D01*
X270945Y130876D01*
X271604Y131644D01*
X272095Y132528D01*
X272398Y133493D01*
X272500Y134500D01*
X79463Y198512D02*
X78907D01*
X79463D01*
X325500Y135000D02*
X325398Y136006D01*
X325095Y136972D01*
X324604Y137856D01*
X323945Y138624D01*
X323145Y139243D01*
X322236Y139689D01*
X321257Y139942D01*
X320247Y139994D01*
X319247Y139840D01*
X318298Y139489D01*
X317440Y138954D01*
X316706Y138257D01*
X316128Y137426D01*
X315729Y136497D01*
X315526Y135506D01*
Y134494D01*
X315729Y133503D01*
X316128Y132573D01*
X316706Y131743D01*
X317440Y131046D01*
X318298Y130511D01*
X319247Y130160D01*
X320247Y130006D01*
X321257Y130058D01*
X322236Y130311D01*
X323145Y130757D01*
X323945Y131376D01*
X324604Y132144D01*
X325095Y133028D01*
X325398Y133993D01*
X325500Y135000D01*
X278000Y77000D02*
X277898Y78007D01*
X277595Y78972D01*
X277104Y79856D01*
X276445Y80624D01*
X275645Y81243D01*
X274736Y81689D01*
X273757Y81942D01*
X272747Y81994D01*
X271747Y81840D01*
X270798Y81489D01*
X269939Y80954D01*
X269206Y80257D01*
X268628Y79426D01*
X268229Y78497D01*
X268026Y77506D01*
Y76494D01*
X268229Y75503D01*
X268628Y74573D01*
X269206Y73743D01*
X269939Y73046D01*
X270798Y72511D01*
X271747Y72160D01*
X272747Y72006D01*
X273757Y72058D01*
X274736Y72311D01*
X275645Y72757D01*
X276445Y73376D01*
X277104Y74144D01*
X277595Y75028D01*
X277898Y75994D01*
X278000Y77000D01*
X287500Y121500D02*
X287398Y122506D01*
X287095Y123472D01*
X286604Y124356D01*
X285945Y125124D01*
X285145Y125743D01*
X284237Y126189D01*
X283257Y126442D01*
X282247Y126494D01*
X281247Y126340D01*
X280298Y125989D01*
X279439Y125454D01*
X278706Y124757D01*
X278128Y123926D01*
X277729Y122997D01*
X277526Y122006D01*
Y120994D01*
X277729Y120003D01*
X278128Y119073D01*
X278706Y118243D01*
X279439Y117546D01*
X280298Y117011D01*
X281247Y116660D01*
X282247Y116506D01*
X283257Y116558D01*
X284237Y116811D01*
X285145Y117257D01*
X285945Y117876D01*
X286604Y118644D01*
X287095Y119528D01*
X287398Y120493D01*
X287500Y121500D01*
Y134500D02*
X287398Y135506D01*
X287095Y136472D01*
X286604Y137356D01*
X285945Y138124D01*
X285145Y138743D01*
X284237Y139189D01*
X283257Y139442D01*
X282247Y139494D01*
X281247Y139340D01*
X280298Y138989D01*
X279439Y138454D01*
X278706Y137757D01*
X278128Y136926D01*
X277729Y135997D01*
X277526Y135006D01*
Y133994D01*
X277729Y133003D01*
X278128Y132073D01*
X278706Y131243D01*
X279439Y130546D01*
X280298Y130011D01*
X281247Y129660D01*
X282247Y129506D01*
X283257Y129558D01*
X284237Y129811D01*
X285145Y130257D01*
X285945Y130876D01*
X286604Y131644D01*
X287095Y132528D01*
X287398Y133493D01*
X287500Y134500D01*
X302500Y121500D02*
X302398Y122506D01*
X302095Y123472D01*
X301604Y124356D01*
X300945Y125124D01*
X300145Y125743D01*
X299236Y126189D01*
X298257Y126442D01*
X297247Y126494D01*
X296247Y126340D01*
X295298Y125989D01*
X294440Y125454D01*
X293706Y124757D01*
X293128Y123926D01*
X292729Y122997D01*
X292526Y122006D01*
Y120994D01*
X292729Y120003D01*
X293128Y119073D01*
X293706Y118243D01*
X294440Y117546D01*
X295298Y117011D01*
X296247Y116660D01*
X297247Y116506D01*
X298257Y116558D01*
X299236Y116811D01*
X300145Y117257D01*
X300945Y117876D01*
X301604Y118644D01*
X302095Y119528D01*
X302398Y120493D01*
X302500Y121500D01*
X17760Y156500D02*
X16972D01*
X17760D01*
X302500Y135000D02*
X302398Y136006D01*
X302095Y136972D01*
X301604Y137856D01*
X300945Y138624D01*
X300145Y139243D01*
X299236Y139689D01*
X298257Y139942D01*
X297247Y139994D01*
X296247Y139840D01*
X295298Y139489D01*
X294440Y138954D01*
X293706Y138257D01*
X293128Y137426D01*
X292729Y136497D01*
X292526Y135506D01*
Y134494D01*
X292729Y133503D01*
X293128Y132573D01*
X293706Y131743D01*
X294440Y131046D01*
X295298Y130511D01*
X296247Y130160D01*
X297247Y130006D01*
X298257Y130058D01*
X299236Y130311D01*
X300145Y130757D01*
X300945Y131376D01*
X301604Y132144D01*
X302095Y133028D01*
X302398Y133993D01*
X302500Y135000D01*
X272500Y121500D02*
X272398Y122506D01*
X272095Y123472D01*
X271604Y124356D01*
X270945Y125124D01*
X270145Y125743D01*
X269236Y126189D01*
X268257Y126442D01*
X267247Y126494D01*
X266247Y126340D01*
X265298Y125989D01*
X264440Y125454D01*
X263706Y124757D01*
X263128Y123926D01*
X262729Y122997D01*
X262526Y122006D01*
Y120994D01*
X262729Y120003D01*
X263128Y119073D01*
X263706Y118243D01*
X264440Y117546D01*
X265298Y117011D01*
X266247Y116660D01*
X267247Y116506D01*
X268257Y116558D01*
X269236Y116811D01*
X270145Y117257D01*
X270945Y117876D01*
X271604Y118644D01*
X272095Y119528D01*
X272398Y120493D01*
X272500Y121500D01*
X302000Y151500D02*
X301898Y152506D01*
X301595Y153472D01*
X301104Y154356D01*
X300445Y155124D01*
X299645Y155743D01*
X298737Y156189D01*
X297757Y156442D01*
X296747Y156494D01*
X295747Y156340D01*
X294798Y155989D01*
X293939Y155454D01*
X293206Y154757D01*
X292628Y153927D01*
X292229Y152997D01*
X292026Y152006D01*
Y150994D01*
X292229Y150003D01*
X292628Y149074D01*
X293206Y148243D01*
X293939Y147546D01*
X294798Y147011D01*
X295747Y146660D01*
X296747Y146506D01*
X297757Y146558D01*
X298737Y146811D01*
X299645Y147257D01*
X300445Y147876D01*
X301104Y148644D01*
X301595Y149528D01*
X301898Y150494D01*
X302000Y151500D01*
X326000Y150500D02*
X325898Y151506D01*
X325595Y152472D01*
X325104Y153356D01*
X324445Y154124D01*
X323645Y154743D01*
X322737Y155189D01*
X321757Y155442D01*
X320747Y155494D01*
X319747Y155340D01*
X318798Y154989D01*
X317939Y154454D01*
X317206Y153757D01*
X316628Y152927D01*
X316229Y151997D01*
X316026Y151006D01*
Y149994D01*
X316229Y149003D01*
X316628Y148073D01*
X317206Y147243D01*
X317939Y146546D01*
X318798Y146011D01*
X319747Y145660D01*
X320747Y145506D01*
X321757Y145558D01*
X322737Y145811D01*
X323645Y146257D01*
X324445Y146876D01*
X325104Y147644D01*
X325595Y148528D01*
X325898Y149494D01*
X326000Y150500D01*
X120000Y156171D02*
Y165671D01*
X9332Y204834D02*
X9999Y205501D01*
Y206834D01*
X9332Y207500D01*
X6667D01*
X6000Y206834D01*
Y205501D01*
X6667Y204834D01*
X9999Y201502D02*
Y202835D01*
X9332Y203501D01*
X6667D01*
X6000Y202835D01*
Y201502D01*
X6667Y200835D01*
X9332D01*
X9999Y201502D01*
X6000Y199503D02*
X9999D01*
X6000Y196837D01*
X9999D01*
Y195504D02*
Y192838D01*
Y194171D01*
X6000D01*
Y191505D02*
X8666D01*
X9999Y190172D01*
X8666Y188839D01*
X6000D01*
X7999D01*
Y191505D01*
X9332Y184841D02*
X9999Y185507D01*
Y186840D01*
X9332Y187506D01*
X6667D01*
X6000Y186840D01*
Y185507D01*
X6667Y184841D01*
X9999Y183508D02*
Y180842D01*
Y182175D01*
X6000D01*
X7999Y179509D02*
Y176843D01*
X9332Y172845D02*
X9999Y173511D01*
Y174844D01*
X9332Y175510D01*
X8666D01*
X7999Y174844D01*
Y173511D01*
X7333Y172845D01*
X6667D01*
X6000Y173511D01*
Y174844D01*
X6667Y175510D01*
X6000Y171512D02*
X9999D01*
X6000Y168846D01*
X9999D01*
X9332Y164847D02*
X9999Y165514D01*
Y166847D01*
X9332Y167513D01*
X8666D01*
X7999Y166847D01*
Y165514D01*
X7333Y164847D01*
X6667D01*
X6000Y165514D01*
Y166847D01*
X6667Y167513D01*
X43832Y192334D02*
X44499Y193001D01*
Y194334D01*
X43832Y195000D01*
X41166D01*
X40500Y194334D01*
Y193001D01*
X41166Y192334D01*
X40500Y191001D02*
X43166D01*
X44499Y189668D01*
X43166Y188336D01*
X40500D01*
X42499D01*
Y191001D01*
X40500Y187003D02*
X44499D01*
Y185003D01*
X43832Y184337D01*
X42499D01*
X41833Y185003D01*
Y187003D01*
X43832Y206334D02*
X44499Y207001D01*
Y208334D01*
X43832Y209000D01*
X41166D01*
X40500Y208334D01*
Y207001D01*
X41166Y206334D01*
X42499D01*
Y207667D01*
X40500Y205001D02*
X44499D01*
X40500Y202336D01*
X44499D01*
Y201003D02*
X40500D01*
Y199003D01*
X41166Y198337D01*
X43832D01*
X44499Y199003D01*
Y201003D01*
X357668Y188666D02*
X357001Y187999D01*
Y186667D01*
X357668Y186000D01*
X360334D01*
X361000Y186667D01*
Y187999D01*
X360334Y188666D01*
X357001Y191998D02*
Y190665D01*
X357668Y189999D01*
X360334D01*
X361000Y190665D01*
Y191998D01*
X360334Y192665D01*
X357668D01*
X357001Y191998D01*
X361000Y193997D02*
X357001D01*
X361000Y196663D01*
X357001D01*
Y197996D02*
Y200662D01*
Y199329D01*
X361000D01*
Y201995D02*
X358334D01*
X357001Y203328D01*
X358334Y204661D01*
X361000D01*
X359001D01*
Y201995D01*
X357668Y208659D02*
X357001Y207993D01*
Y206660D01*
X357668Y205994D01*
X360334D01*
X361000Y206660D01*
Y207993D01*
X360334Y208659D01*
X357001Y209992D02*
Y212658D01*
Y211325D01*
X361000D01*
X357001Y215990D02*
Y214657D01*
X357668Y213991D01*
X360334D01*
X361000Y214657D01*
Y215990D01*
X360334Y216657D01*
X357668D01*
X357001Y215990D01*
X361000Y217990D02*
X357001D01*
Y219989D01*
X357668Y220655D01*
X359001D01*
X359667Y219989D01*
Y217990D01*
Y219323D02*
X361000Y220655D01*
X359001Y221988D02*
Y224654D01*
X357168Y233166D02*
X356501Y232499D01*
Y231166D01*
X357168Y230500D01*
X359834D01*
X360500Y231166D01*
Y232499D01*
X359834Y233166D01*
X356501Y236498D02*
Y235165D01*
X357168Y234499D01*
X359834D01*
X360500Y235165D01*
Y236498D01*
X359834Y237164D01*
X357168D01*
X356501Y236498D01*
X360500Y238497D02*
X356501D01*
X360500Y241163D01*
X356501D01*
Y242496D02*
Y245162D01*
Y243829D01*
X360500D01*
Y246495D02*
X357834D01*
X356501Y247828D01*
X357834Y249161D01*
X360500D01*
X358501D01*
Y246495D01*
X357168Y253159D02*
X356501Y252493D01*
Y251160D01*
X357168Y250494D01*
X359834D01*
X360500Y251160D01*
Y252493D01*
X359834Y253159D01*
X356501Y254492D02*
Y257158D01*
Y255825D01*
X360500D01*
X356501Y260490D02*
Y259157D01*
X357168Y258491D01*
X359834D01*
X360500Y259157D01*
Y260490D01*
X359834Y261157D01*
X357168D01*
X356501Y260490D01*
X360500Y262490D02*
X356501D01*
Y264489D01*
X357168Y265156D01*
X358501D01*
X359167Y264489D01*
Y262490D01*
Y263823D02*
X360500Y265156D01*
X358501Y266488D02*
Y269154D01*
X357168Y267821D02*
X359834D01*
X357501Y146500D02*
Y147833D01*
Y147167D01*
X361500D01*
Y146500D01*
Y147833D01*
Y149832D02*
X357501D01*
X358834Y151165D01*
X357501Y152498D01*
X361500D01*
X357501Y153831D02*
X361500D01*
Y155830D01*
X360834Y156497D01*
X358168D01*
X357501Y155830D01*
Y153831D01*
D13*
X282492Y221000D02*
X281754Y221426D01*
Y220574D01*
X282492Y221000D01*
X193981Y272567D02*
X193243Y272993D01*
Y272141D01*
X193981Y272567D01*
X95764Y222147D02*
X95026Y222573D01*
Y221721D01*
X95764Y222147D01*
D14*
X121300Y168471D02*
X122149Y168823D01*
X122500Y169671D01*
X122149Y170520D01*
X121300Y170871D01*
X155700Y164583D02*
Y174760D01*
X121300Y164583D02*
Y174760D01*
D15*
X306921Y254823D02*
Y255689D01*
Y254823D02*
X317039D01*
X317000Y254862D02*
X317039Y254823D01*
X317000Y254862D02*
Y255728D01*
X306921Y259626D02*
Y260216D01*
X317118D01*
Y259390D02*
Y260216D01*
X310921Y217823D02*
Y218689D01*
Y217823D02*
X321039D01*
X321000Y217862D02*
X321039Y217823D01*
X321000Y217862D02*
Y218728D01*
X310921Y222626D02*
Y223217D01*
X321118D01*
Y222390D02*
Y223217D01*
X150311Y123921D02*
X151177D01*
Y134039D01*
X151138Y134000D02*
X151177Y134039D01*
X150272Y134000D02*
X151138D01*
X145783Y123921D02*
X146374D01*
X145783D02*
Y134118D01*
X146610D01*
X253921Y31323D02*
Y32189D01*
Y31323D02*
X264039D01*
X264000Y31362D02*
X264039Y31323D01*
X264000Y31362D02*
Y32228D01*
X253921Y36126D02*
Y36716D01*
X264118D01*
Y35890D02*
Y36716D01*
X233921Y31823D02*
Y32689D01*
Y31823D02*
X244039D01*
X244000Y31862D02*
X244039Y31823D01*
X244000Y31862D02*
Y32728D01*
X233921Y36626D02*
Y37216D01*
X244118D01*
Y36390D02*
Y37216D01*
X311921Y31823D02*
Y32689D01*
Y31823D02*
X322039D01*
X322000Y31862D02*
X322039Y31823D01*
X322000Y31862D02*
Y32728D01*
X311921Y36626D02*
Y37216D01*
X322118D01*
Y36390D02*
Y37216D01*
X282921Y31323D02*
Y32189D01*
Y31323D02*
X293039D01*
X293000Y31362D02*
X293039Y31323D01*
X293000Y31362D02*
Y32228D01*
X282921Y36126D02*
Y36716D01*
X293118D01*
Y35890D02*
Y36716D01*
X36539Y232961D02*
Y282961D01*
Y232961D02*
X87539D01*
Y283461D01*
X37039D02*
X87539D01*
X36539Y282961D02*
X37039Y283461D01*
X13000Y208185D02*
X36000D01*
X13000Y168685D02*
Y208185D01*
Y168685D02*
X36000D01*
Y208185D01*
X152996Y206476D02*
X153941D01*
Y228405D01*
X153941Y228405D01*
X152799D02*
X153941D01*
X139138Y206437D02*
X140358D01*
X139138D02*
Y228563D01*
X139098Y228602D02*
X139138Y228563D01*
X139098Y228602D02*
X140398D01*
X207279Y42106D02*
Y42894D01*
X204720Y42106D02*
Y42894D01*
X185606Y47221D02*
X186394D01*
X185606Y49779D02*
X186394D01*
X197106D02*
X197894D01*
X197106Y47221D02*
X197894D01*
X268220Y171878D02*
Y172665D01*
X270779Y171878D02*
Y172665D01*
X256720Y171878D02*
Y172665D01*
X259279Y171878D02*
Y172665D01*
X267433Y158287D02*
Y160256D01*
X271567Y158287D02*
Y160256D01*
X284567Y158287D02*
Y160256D01*
X280433Y158287D02*
Y160256D01*
X283780Y171878D02*
Y172665D01*
X281221Y171878D02*
Y172665D01*
X255933Y158287D02*
Y160256D01*
X260067Y158287D02*
Y160256D01*
X281500Y4500D02*
Y27500D01*
X232000D02*
X281500D01*
X232000Y4500D02*
Y27500D01*
Y4500D02*
X281500D01*
X193684Y25756D02*
X199786D01*
X201164Y5854D02*
Y25146D01*
Y5854D02*
X213763D01*
Y25146D01*
X201164D02*
X213763D01*
X190764Y14661D02*
Y15055D01*
X186236Y14661D02*
Y15055D01*
X224220Y14606D02*
Y15394D01*
X226780Y14606D02*
Y15394D01*
X237642Y216980D02*
X242366D01*
X237642Y227020D02*
X242366D01*
X274638Y230480D02*
X279362D01*
X274638Y240520D02*
X279362D01*
X237638Y230480D02*
X242362D01*
X237638Y240520D02*
X242362D01*
X259067Y214516D02*
Y216484D01*
X254933Y214516D02*
Y216484D01*
X333343Y4500D02*
Y27500D01*
X283842D02*
X333343D01*
X283842Y4500D02*
Y27500D01*
Y4500D02*
X333343D01*
X170503Y56249D02*
X170897D01*
X170503Y60777D02*
X170897D01*
X170503Y63746D02*
X170897D01*
X170503Y68274D02*
X170897D01*
X220401Y127264D02*
X220794D01*
X220401Y122736D02*
X220794D01*
X174764Y97303D02*
Y97697D01*
X170236Y97303D02*
Y97697D01*
X222312Y145803D02*
Y146197D01*
X217785Y145803D02*
Y146197D01*
X225282Y144622D02*
Y145409D01*
X227841Y144622D02*
Y145409D01*
X278303Y200736D02*
X278697D01*
X278303Y205264D02*
X278697D01*
X269094Y213531D02*
X280906D01*
X269094Y217469D02*
X280906D01*
X269094Y213531D02*
Y217469D01*
X280906Y213531D02*
Y217469D01*
X294772Y55106D02*
Y55894D01*
X297331Y55106D02*
Y55894D01*
X177980Y273638D02*
Y278362D01*
X188020Y273638D02*
Y278362D01*
X197820Y245008D02*
X212387D01*
X197820Y270992D02*
X212387D01*
X257215Y55303D02*
Y55697D01*
X261743Y55303D02*
Y55697D01*
X264220Y65582D02*
X270323D01*
X271701Y45680D02*
Y64971D01*
Y45680D02*
X284299D01*
Y64971D01*
X271701D02*
X284299D01*
X331000Y171500D02*
X354000D01*
Y201000D01*
X331000Y171500D02*
Y201000D01*
X354000D01*
X299220Y210106D02*
Y210894D01*
X301780Y210106D02*
Y210894D01*
X295220Y246606D02*
Y247394D01*
X297779Y246606D02*
Y247394D01*
X296158Y274500D02*
Y297500D01*
Y274500D02*
X325658D01*
X296158Y297500D02*
X325658D01*
Y274500D02*
Y297500D01*
X331000Y233343D02*
X354000D01*
X331000Y203842D02*
Y233343D01*
X354000Y203842D02*
Y233343D01*
X331000Y203842D02*
X354000D01*
X302000Y162000D02*
X325000D01*
Y191500D01*
X302000Y162000D02*
Y191500D01*
X325000D01*
X125721Y57572D02*
Y58359D01*
X128279Y57572D02*
Y58359D01*
X120192Y57572D02*
Y58359D01*
X122751Y57572D02*
Y58359D01*
X243779Y76106D02*
Y76894D01*
X241220Y76106D02*
Y76894D01*
X237567Y76016D02*
Y77984D01*
X233433Y76016D02*
Y77984D01*
X191695Y145530D02*
Y146318D01*
X194254Y145530D02*
Y146318D01*
X188725Y146711D02*
Y147105D01*
X184198Y146711D02*
Y147105D01*
X201751Y146711D02*
Y147105D01*
X197223Y146711D02*
Y147105D01*
X191303Y128758D02*
X191697D01*
X191303Y124230D02*
X191697D01*
X191253Y116733D02*
X191647D01*
X191253Y121261D02*
X191647D01*
X191303Y113764D02*
X191697D01*
X191303Y109236D02*
X191697D01*
X204759Y146005D02*
Y146399D01*
X209286Y146005D02*
Y146399D01*
X214815Y144824D02*
Y145611D01*
X212256Y144824D02*
Y145611D01*
X223445Y45764D02*
X223839D01*
X223445Y41236D02*
X223839D01*
X223445Y48736D02*
X223839D01*
X223445Y53264D02*
X223839D01*
X178208Y145694D02*
Y146482D01*
X180767Y145694D02*
Y146482D01*
X178736Y123303D02*
Y123697D01*
X183264Y123303D02*
Y123697D01*
X169106Y118220D02*
X169894D01*
X169106Y120780D02*
X169894D01*
X168303Y110723D02*
X168697D01*
X168303Y115251D02*
X168697D01*
X164333Y12736D02*
X164726D01*
X164333Y17264D02*
X164726D01*
X163152Y9767D02*
X163939D01*
X163152Y7208D02*
X163939D01*
X136303Y76264D02*
X136697D01*
X136303Y71736D02*
X136697D01*
X149803D02*
X150197D01*
X149803Y76264D02*
X150197D01*
X126779Y83106D02*
Y83894D01*
X124221Y83106D02*
Y83894D01*
X323780Y259106D02*
Y259894D01*
X321220Y259106D02*
Y259894D01*
X339000Y50000D02*
Y120000D01*
Y50000D02*
X349000D01*
Y120000D01*
X339000D02*
X349000D01*
X303780Y246606D02*
Y247394D01*
X301220Y246606D02*
Y247394D01*
X140220Y130106D02*
Y130894D01*
X142780Y130106D02*
Y130894D01*
X323780Y247606D02*
Y248394D01*
X321220Y247606D02*
Y248394D01*
X331000Y236343D02*
X354000D01*
Y265843D01*
X331000Y236343D02*
Y265843D01*
X354000D01*
X331000Y168500D02*
X354000D01*
X331000Y129000D02*
Y168500D01*
Y129000D02*
X354000D01*
Y168500D01*
X307780Y210106D02*
Y210894D01*
X305221Y210106D02*
Y210894D01*
X325721Y213606D02*
Y214394D01*
X328279Y213606D02*
Y214394D01*
X233803Y127264D02*
X234197D01*
X233803Y122736D02*
X234197D01*
X212017Y113606D02*
Y114394D01*
X209458Y113606D02*
Y114394D01*
X187546Y249224D02*
Y250012D01*
X184987Y249224D02*
Y250012D01*
X183331Y258720D02*
X184119D01*
X183331Y261280D02*
X184119D01*
X213994Y242264D02*
X214388D01*
X213994Y237736D02*
X214388D01*
X195303Y242264D02*
X195697D01*
X195303Y237736D02*
X195697D01*
X214606Y232208D02*
X215394D01*
X214606Y234767D02*
X215394D01*
X219303Y275536D02*
X219697D01*
X219303Y280064D02*
X219697D01*
X231736Y93803D02*
Y94197D01*
X236264Y93803D02*
Y94197D01*
X328279Y225106D02*
Y225894D01*
X325721Y225106D02*
Y225894D01*
X85290Y208221D02*
X86078D01*
X85290Y210780D02*
X86078D01*
X85290Y202221D02*
X86078D01*
X85290Y204780D02*
X86078D01*
X99701Y201458D02*
Y221143D01*
X112299Y201458D02*
Y221143D01*
X99701D02*
X112299D01*
X99701Y201458D02*
X112299D01*
X73854Y204780D02*
X74642D01*
X73854Y202221D02*
X74642D01*
X93867Y193303D02*
Y193697D01*
X98395Y193303D02*
Y193697D01*
X122961Y233000D02*
Y283000D01*
Y233000D02*
X173961D01*
Y283500D01*
X123461D02*
X173961D01*
X122961Y283000D02*
X123461Y283500D01*
X177062Y250268D02*
Y250662D01*
X181590Y250268D02*
Y250662D01*
X183764Y231803D02*
Y232197D01*
X179236Y231803D02*
Y232197D01*
X126764Y210803D02*
Y211197D01*
X122236Y210803D02*
Y211197D01*
X221791Y250013D02*
Y268910D01*
X233209Y250013D02*
Y268910D01*
X221791Y250013D02*
X222776D01*
X221791Y268910D02*
X222776D01*
X232224Y250013D02*
X233209D01*
X232224Y268910D02*
X233209D01*
X197803Y283264D02*
X198197D01*
X197803Y278736D02*
X198197D01*
X191016Y229933D02*
X192984D01*
X191016Y234067D02*
X192984D01*
X284213Y245787D02*
Y294213D01*
X235787Y245787D02*
Y294213D01*
X271614D02*
X284213D01*
X271614Y245787D02*
X284213D01*
X235787Y294213D02*
X248386D01*
X235787Y245787D02*
X248386D01*
X191016Y226964D02*
X192984D01*
X191016Y222830D02*
X192984D01*
X298280Y180606D02*
Y181394D01*
X295721Y180606D02*
Y181394D01*
X168720Y81606D02*
Y82394D01*
X171280Y81606D02*
Y82394D01*
X129606Y188779D02*
X130394D01*
X129606Y186221D02*
X130394D01*
X147106Y196280D02*
X147894D01*
X147106Y193720D02*
X147894D01*
X147106Y188779D02*
X147894D01*
X147106Y186221D02*
X147894D01*
X129606Y196280D02*
X130394D01*
X129606Y193720D02*
X130394D01*
X110721Y68106D02*
Y68894D01*
X113279Y68106D02*
Y68894D01*
X148606Y152779D02*
X149394D01*
X148606Y150221D02*
X149394D01*
X140777Y148174D02*
Y148568D01*
X136249Y148174D02*
Y148568D01*
X127606Y144220D02*
X128394D01*
X127606Y146780D02*
X128394D01*
X121251Y83106D02*
Y83894D01*
X118692Y83106D02*
Y83894D01*
X136401Y105534D02*
X136794D01*
X136401Y101006D02*
X136794D01*
X149803Y101006D02*
X150197D01*
X149803Y105534D02*
X150197D01*
X127606Y150721D02*
X128394D01*
X127606Y153279D02*
X128394D01*
X113779Y92606D02*
Y93394D01*
X111221Y92606D02*
Y93394D01*
X142780Y118606D02*
Y119394D01*
X140220Y118606D02*
Y119394D01*
X132106Y131220D02*
X132894D01*
X132106Y133780D02*
X132894D01*
X132106Y125414D02*
X132894D01*
X132106Y127973D02*
X132894D01*
X4291Y133051D02*
Y151949D01*
X15709Y133051D02*
Y151949D01*
X4291Y133051D02*
X5276D01*
X4291Y151949D02*
X5276D01*
X14724Y133051D02*
X15709D01*
X14724Y151949D02*
X15709D01*
X7000Y85917D02*
X30000D01*
Y115417D01*
X7000Y85917D02*
Y115417D01*
X30000D01*
X87677Y59744D02*
X93779D01*
X7000Y83157D02*
X30000D01*
X7000Y53658D02*
Y83157D01*
X30000Y53658D02*
Y83157D01*
X7000Y53658D02*
X30000D01*
D16*
X305780Y255413D02*
Y259508D01*
X309780Y218413D02*
Y222508D01*
X146492Y122780D02*
X150587D01*
X252780Y31913D02*
Y36008D01*
X232780Y32413D02*
Y36508D01*
X310780Y32413D02*
Y36508D01*
X281780Y31913D02*
Y36008D01*
X231122Y259695D02*
X232303Y259698D01*
X13622Y142734D02*
X14803Y142736D01*
D17*
X35799Y13582D02*
Y15915D01*
X36966Y17081D01*
X38132Y15915D01*
Y13582D01*
Y15332D01*
X35799D01*
X39298Y13582D02*
X40464D01*
X39881D01*
Y17081D01*
X39298D01*
X42797Y13582D02*
Y16498D01*
Y15332D01*
X42214D01*
X43380D01*
X42797D01*
Y16498D01*
X43380Y17081D01*
X45713Y13582D02*
X46879D01*
X47462Y14165D01*
Y15332D01*
X46879Y15915D01*
X45713D01*
X45129Y15332D01*
Y14165D01*
X45713Y13582D01*
X48628D02*
Y15915D01*
X50378D01*
X50961Y15332D01*
Y13582D01*
X52127D02*
X53877D01*
X54460Y14165D01*
X53877Y14749D01*
X52710D01*
X52127Y15332D01*
X52710Y15915D01*
X54460D01*
X56209Y13582D02*
X57376D01*
X57959Y14165D01*
Y15332D01*
X57376Y15915D01*
X56209D01*
X55626Y15332D01*
Y14165D01*
X56209Y13582D01*
X59708Y12999D02*
X60291Y13582D01*
Y14165D01*
X59708D01*
Y13582D01*
X60291D01*
X59708Y12999D01*
X59125Y12416D01*
X68455Y16498D02*
X67872Y17081D01*
X66706D01*
X66123Y16498D01*
Y14165D01*
X66706Y13582D01*
X67872D01*
X68455Y14165D01*
Y15332D01*
X67289D01*
X70205Y15915D02*
X71371D01*
X71954Y15332D01*
Y13582D01*
X70205D01*
X69622Y14165D01*
X70205Y14749D01*
X71954D01*
X73120Y13582D02*
X74870D01*
X75453Y14165D01*
X74870Y14749D01*
X73704D01*
X73120Y15332D01*
X73704Y15915D01*
X75453D01*
X77202Y16498D02*
Y15915D01*
X76619D01*
X77786D01*
X77202D01*
Y14165D01*
X77786Y13582D01*
X80118D02*
X81284D01*
X81868Y14165D01*
Y15332D01*
X81284Y15915D01*
X80118D01*
X79535Y15332D01*
Y14165D01*
X80118Y13582D01*
X83034D02*
Y15915D01*
X84783D01*
X85366Y15332D01*
Y13582D01*
X35799Y7465D02*
Y10964D01*
X37549D01*
X38132Y10381D01*
Y9215D01*
X37549Y8632D01*
X35799D01*
X36966D02*
X38132Y7465D01*
X39298Y9798D02*
Y8049D01*
X39881Y7465D01*
X41631D01*
Y6882D01*
X41047Y6299D01*
X40464D01*
X41631Y7465D02*
Y9798D01*
X43380D02*
X44546D01*
X45129Y9215D01*
Y7465D01*
X43380D01*
X42797Y8049D01*
X43380Y8632D01*
X45129D01*
X46296Y7465D02*
Y9798D01*
X48045D01*
X48628Y9215D01*
Y7465D01*
X50378Y6882D02*
X50961Y7465D01*
Y8049D01*
X50378D01*
Y7465D01*
X50961D01*
X50378Y6882D01*
X49795Y6299D01*
X59125Y10964D02*
X57959D01*
X58542D01*
Y8049D01*
X57959Y7465D01*
X57376D01*
X56792Y8049D01*
X62041Y7465D02*
X60874D01*
X60291Y8049D01*
Y9215D01*
X60874Y9798D01*
X62041D01*
X62624Y9215D01*
Y8632D01*
X60291D01*
X63790Y7465D02*
Y9798D01*
X65540D01*
X66123Y9215D01*
Y7465D01*
X67289D02*
Y9798D01*
X69038D01*
X69622Y9215D01*
Y7465D01*
X70788D02*
X71954D01*
X71371D01*
Y9798D01*
X70788D01*
X74287Y7465D02*
Y10381D01*
Y9215D01*
X73704D01*
X74870D01*
X74287D01*
Y10381D01*
X74870Y10964D01*
X78369Y7465D02*
X77202D01*
X76619Y8049D01*
Y9215D01*
X77202Y9798D01*
X78369D01*
X78952Y9215D01*
Y8632D01*
X76619D01*
X80118Y9798D02*
Y7465D01*
Y8632D01*
X80701Y9215D01*
X81284Y9798D01*
X81868D01*
X35799Y24298D02*
Y20799D01*
X37549D01*
X38132Y21382D01*
Y21966D01*
X37549Y22549D01*
X35799D01*
X37549D01*
X38132Y23132D01*
Y23715D01*
X37549Y24298D01*
X35799D01*
X39298Y20799D02*
Y24298D01*
X40464Y23132D01*
X41631Y24298D01*
Y20799D01*
X45129Y23715D02*
X44546Y24298D01*
X43380D01*
X42797Y23715D01*
Y23132D01*
X43380Y22549D01*
X44546D01*
X45129Y21966D01*
Y21382D01*
X44546Y20799D01*
X43380D01*
X42797Y21382D01*
X49795Y20799D02*
Y24298D01*
X50961Y23132D01*
X52127Y24298D01*
Y20799D01*
X53294D02*
Y23132D01*
X54460Y24298D01*
X55626Y23132D01*
Y20799D01*
Y22549D01*
X53294D01*
X59125Y23715D02*
X58542Y24298D01*
X57376D01*
X56792Y23715D01*
Y23132D01*
X57376Y22549D01*
X58542D01*
X59125Y21966D01*
Y21382D01*
X58542Y20799D01*
X57376D01*
X56792Y21382D01*
X60291Y24298D02*
X62624D01*
X61458D01*
Y20799D01*
X66123Y24298D02*
X63790D01*
Y20799D01*
X66123D01*
X63790Y22549D02*
X64956D01*
X67289Y20799D02*
Y24298D01*
X69038D01*
X69622Y23715D01*
Y22549D01*
X69038Y21966D01*
X67289D01*
X68455D02*
X69622Y20799D01*
X74287Y24298D02*
Y20799D01*
X76036D01*
X76619Y21382D01*
Y21966D01*
X76036Y22549D01*
X74287D01*
X76036D01*
X76619Y23132D01*
Y23715D01*
X76036Y24298D01*
X74287D01*
X79535D02*
X78369D01*
X77786Y23715D01*
Y21382D01*
X78369Y20799D01*
X79535D01*
X80118Y21382D01*
Y23715D01*
X79535Y24298D01*
X81284Y20799D02*
Y23132D01*
X82451Y24298D01*
X83617Y23132D01*
Y20799D01*
Y22549D01*
X81284D01*
X84783Y20799D02*
Y24298D01*
X86533D01*
X87116Y23715D01*
Y22549D01*
X86533Y21966D01*
X84783D01*
X85950D02*
X87116Y20799D01*
X88282Y24298D02*
Y20799D01*
X90032D01*
X90615Y21382D01*
Y23715D01*
X90032Y24298D01*
X88282D01*
X95280Y20799D02*
Y24298D01*
X97029D01*
X97613Y23715D01*
Y22549D01*
X97029Y21966D01*
X95280D01*
X96446D02*
X97613Y20799D01*
X98779D02*
X99945D01*
X99362D01*
Y24298D01*
X98779Y23715D01*
X101695Y20799D02*
Y21382D01*
X102278D01*
Y20799D01*
X101695D01*
X106943Y24298D02*
X104610D01*
Y22549D01*
X105777Y23132D01*
X106360D01*
X106943Y22549D01*
Y21382D01*
X106360Y20799D01*
X105193D01*
X104610Y21382D01*
X245799Y75298D02*
Y71799D01*
X247549D01*
X248132Y72382D01*
Y74715D01*
X247549Y75298D01*
X245799D01*
X251631D02*
X249298D01*
Y71799D01*
X251631D01*
X249298Y73549D02*
X250464D01*
X252797Y75298D02*
Y71799D01*
X254546D01*
X255130Y72382D01*
Y72966D01*
X254546Y73549D01*
X252797D01*
X254546D01*
X255130Y74132D01*
Y74715D01*
X254546Y75298D01*
X252797D01*
X256296D02*
Y72382D01*
X256879Y71799D01*
X258045D01*
X258628Y72382D01*
Y75298D01*
X262127Y74715D02*
X261544Y75298D01*
X260378D01*
X259795Y74715D01*
Y72382D01*
X260378Y71799D01*
X261544D01*
X262127Y72382D01*
Y73549D01*
X260961D01*
X95918Y63299D02*
Y66798D01*
X97667D01*
X98251Y66215D01*
Y65049D01*
X97667Y64465D01*
X95918D01*
X97084D02*
X98251Y63299D01*
X99417Y66798D02*
X101749Y63299D01*
Y66798D02*
X99417Y63299D01*
X102916D02*
X104082D01*
X103499D01*
Y66798D01*
X102916Y66215D01*
X105831Y65049D02*
X108164D01*
X106998Y66215D02*
Y63882D01*
X96299Y90799D02*
Y94298D01*
X98049D01*
X98632Y93715D01*
Y92549D01*
X98049Y91966D01*
X96299D01*
X97465D02*
X98632Y90799D01*
X99798Y94298D02*
X102131Y90799D01*
Y94298D02*
X99798Y90799D01*
X105630D02*
X103297D01*
X105630Y93132D01*
Y93715D01*
X105046Y94298D01*
X103880D01*
X103297Y93715D01*
X106796Y92549D02*
X109128D01*
X107962Y93715D02*
Y91382D01*
X357535Y53799D02*
Y56132D01*
X356368Y54966D02*
X358701D01*
X303632Y197798D02*
X301299D01*
Y194299D01*
X303632D01*
X301299Y196049D02*
X302466D01*
X304798Y197798D02*
X307131Y194299D01*
Y197798D02*
X304798Y194299D01*
X308297Y197798D02*
X310630D01*
X309463D01*
Y194299D01*
X311796Y196049D02*
X314128D01*
X315295Y197798D02*
Y194299D01*
X317627D01*
X321126Y197798D02*
X318794D01*
Y194299D01*
X321126D01*
X318794Y196049D02*
X319960D01*
X322292Y197798D02*
Y194299D01*
X324042D01*
X324625Y194882D01*
Y197215D01*
X324042Y197798D01*
X322292D01*
X359201Y115701D02*
X356868D01*
X353299Y67298D02*
Y63799D01*
X355049D01*
X355632Y64382D01*
Y66715D01*
X355049Y67298D01*
X353299D01*
X356798D02*
X357964D01*
X357381D01*
Y63799D01*
X356798D01*
X357964D01*
X361463Y67298D02*
X360297D01*
X359714Y66715D01*
Y64382D01*
X360297Y63799D01*
X361463D01*
X362046Y64382D01*
Y66715D01*
X361463Y67298D01*
X354632Y76715D02*
X354049Y77298D01*
X352882D01*
X352299Y76715D01*
Y74382D01*
X352882Y73799D01*
X354049D01*
X354632Y74382D01*
X355798Y77298D02*
Y73799D01*
X358131D01*
X359297Y77298D02*
Y73799D01*
Y74966D01*
X361630Y77298D01*
X359880Y75549D01*
X361630Y73799D01*
X354799Y104799D02*
Y108298D01*
X356549D01*
X357132Y107715D01*
Y106549D01*
X356549Y105965D01*
X354799D01*
X355965D02*
X357132Y104799D01*
X358298Y108298D02*
X360631Y104799D01*
Y108298D02*
X358298Y104799D01*
X354799Y97798D02*
X357132D01*
X355965D01*
Y94299D01*
X358298Y97798D02*
X360631Y94299D01*
Y97798D02*
X358298Y94299D01*
X351799Y83299D02*
Y86798D01*
X353549D01*
X354132Y86215D01*
Y85049D01*
X353549Y84465D01*
X351799D01*
X352965D02*
X354132Y83299D01*
X357631Y86215D02*
X357048Y86798D01*
X355881D01*
X355298Y86215D01*
Y85632D01*
X355881Y85049D01*
X357048D01*
X357631Y84465D01*
Y83882D01*
X357048Y83299D01*
X355881D01*
X355298Y83882D01*
X358797Y86798D02*
X361129D01*
X359963D01*
Y83299D01*
X15544Y51798D02*
X16710D01*
X16127D01*
Y48299D01*
X15544D01*
X16710D01*
X20792Y51215D02*
X20209Y51798D01*
X19042D01*
X18459Y51215D01*
Y50632D01*
X19042Y50049D01*
X20209D01*
X20792Y49466D01*
Y48882D01*
X20209Y48299D01*
X19042D01*
X18459Y48882D01*
X23708Y51798D02*
X22541D01*
X21958Y51215D01*
Y48882D01*
X22541Y48299D01*
X23708D01*
X24291Y48882D01*
Y51215D01*
X23708Y51798D01*
X25457Y50049D02*
X27790D01*
X31288Y51215D02*
X30705Y51798D01*
X29539D01*
X28956Y51215D01*
Y50632D01*
X29539Y50049D01*
X30705D01*
X31288Y49466D01*
Y48882D01*
X30705Y48299D01*
X29539D01*
X28956Y48882D01*
X32455Y48299D02*
Y51798D01*
X34204D01*
X34787Y51215D01*
Y50049D01*
X34204Y49466D01*
X32455D01*
X35954Y51798D02*
X37120D01*
X36537D01*
Y48299D01*
X35954D01*
X37120D01*
X38869Y50049D02*
X41202D01*
X42368Y51798D02*
Y48299D01*
X44118D01*
X44701Y48882D01*
Y49466D01*
X44118Y50049D01*
X42368D01*
X44118D01*
X44701Y50632D01*
Y51215D01*
X44118Y51798D01*
X42368D01*
X16799Y121298D02*
X17966D01*
X17382D01*
Y117799D01*
X16799D01*
X17966D01*
X22048Y120715D02*
X21464Y121298D01*
X20298D01*
X19715Y120715D01*
Y120132D01*
X20298Y119549D01*
X21464D01*
X22048Y118965D01*
Y118382D01*
X21464Y117799D01*
X20298D01*
X19715Y118382D01*
X24963Y121298D02*
X23797D01*
X23214Y120715D01*
Y118382D01*
X23797Y117799D01*
X24963D01*
X25546Y118382D01*
Y120715D01*
X24963Y121298D01*
X26713Y119549D02*
X29045D01*
X32544Y120715D02*
X31961Y121298D01*
X30795D01*
X30211Y120715D01*
Y120132D01*
X30795Y119549D01*
X31961D01*
X32544Y118965D01*
Y118382D01*
X31961Y117799D01*
X30795D01*
X30211Y118382D01*
X33710Y117799D02*
Y121298D01*
X35460D01*
X36043Y120715D01*
Y119549D01*
X35460Y118965D01*
X33710D01*
X37209Y121298D02*
X38376D01*
X37792D01*
Y117799D01*
X37209D01*
X38376D01*
X40125Y119549D02*
X42458D01*
X43624Y117799D02*
Y120132D01*
X44790Y121298D01*
X45956Y120132D01*
Y117799D01*
Y119549D01*
X43624D01*
X232667Y149666D02*
X232084Y150249D01*
X230918D01*
X230335Y149666D01*
Y147334D01*
X230918Y146751D01*
X232084D01*
X232667Y147334D01*
X233834Y149666D02*
X234417Y150249D01*
X235583D01*
X236166Y149666D01*
Y149083D01*
X235583Y148500D01*
X235000D01*
X235583D01*
X236166Y147917D01*
Y147334D01*
X235583Y146751D01*
X234417D01*
X233834Y147334D01*
X239665Y150249D02*
X237333D01*
Y148500D01*
X238499Y149083D01*
X239082D01*
X239665Y148500D01*
Y147334D01*
X239082Y146751D01*
X237916D01*
X237333Y147334D01*
X230918Y140751D02*
Y144249D01*
X232667D01*
X233251Y143666D01*
Y142500D01*
X232667Y141917D01*
X230918D01*
X232084D02*
X233251Y140751D01*
X236166D02*
Y144249D01*
X234417Y142500D01*
X236749D01*
X237916Y140751D02*
X239082D01*
X238499D01*
Y144249D01*
X237916Y143666D01*
X269584Y228249D02*
Y225334D01*
X270167Y224751D01*
X271334D01*
X271917Y225334D01*
Y228249D01*
X273083D02*
X275416D01*
Y227666D01*
X273083Y225334D01*
Y224751D01*
X233167Y64249D02*
Y61334D01*
X233751Y60751D01*
X234917D01*
X235500Y61334D01*
Y64249D01*
X236666Y60751D02*
X237833D01*
X237249D01*
Y64249D01*
X236666Y63666D01*
X330167Y122751D02*
Y126249D01*
X331917D01*
X332500Y125666D01*
Y124500D01*
X331917Y123917D01*
X330167D01*
X333666Y122751D02*
X334833D01*
X334249D01*
Y126249D01*
X333666Y125666D01*
X290126Y219251D02*
Y222749D01*
X291876D01*
X292459Y222166D01*
Y221000D01*
X291876Y220417D01*
X290126D01*
X291293D02*
X292459Y219251D01*
X293625D02*
X294792D01*
X294208D01*
Y222749D01*
X293625Y222166D01*
X298874Y222749D02*
X296541D01*
Y221000D01*
X297707Y221583D01*
X298290D01*
X298874Y221000D01*
Y219834D01*
X298290Y219251D01*
X297124D01*
X296541Y219834D01*
X290626Y253751D02*
Y257249D01*
X292376D01*
X292959Y256666D01*
Y255500D01*
X292376Y254917D01*
X290626D01*
X291793D02*
X292959Y253751D01*
X294125D02*
X295292D01*
X294708D01*
Y257249D01*
X294125Y256666D01*
X299374Y257249D02*
X298207Y256666D01*
X297041Y255500D01*
Y254334D01*
X297624Y253751D01*
X298790D01*
X299374Y254334D01*
Y254917D01*
X298790Y255500D01*
X297041D01*
X332084Y275251D02*
Y278749D01*
X333834D01*
X334417Y278166D01*
Y277000D01*
X333834Y276417D01*
X332084D01*
X337916Y275251D02*
X335583D01*
X337916Y277583D01*
Y278166D01*
X337333Y278749D01*
X336166D01*
X335583Y278166D01*
X241084Y66251D02*
Y69749D01*
X242834D01*
X243417Y69166D01*
Y68000D01*
X242834Y67417D01*
X241084D01*
X242251D02*
X243417Y66251D01*
X246333D02*
Y69749D01*
X244583Y68000D01*
X246916D01*
X242835Y211251D02*
Y214749D01*
X244584D01*
X245167Y214166D01*
Y213000D01*
X244584Y212417D01*
X242835D01*
X244001D02*
X245167Y211251D01*
X246334Y214166D02*
X246917Y214749D01*
X248083D01*
X248666Y214166D01*
Y213583D01*
X248083Y213000D01*
X247500D01*
X248083D01*
X248666Y212417D01*
Y211834D01*
X248083Y211251D01*
X246917D01*
X246334Y211834D01*
X251582Y211251D02*
Y214749D01*
X249833Y213000D01*
X252165D01*
X286667Y211666D02*
X286084Y212249D01*
X284918D01*
X284335Y211666D01*
Y209334D01*
X284918Y208751D01*
X286084D01*
X286667Y209334D01*
X290166Y208751D02*
X287834D01*
X290166Y211083D01*
Y211666D01*
X289583Y212249D01*
X288417D01*
X287834Y211666D01*
X291333D02*
X291916Y212249D01*
X293082D01*
X293665Y211666D01*
Y211083D01*
X293082Y210500D01*
X293665Y209917D01*
Y209334D01*
X293082Y208751D01*
X291916D01*
X291333Y209334D01*
Y209917D01*
X291916Y210500D01*
X291333Y211083D01*
Y211666D01*
X291916Y210500D02*
X293082D01*
X276835Y178751D02*
Y182249D01*
X278584D01*
X279167Y181666D01*
Y180500D01*
X278584Y179917D01*
X276835D01*
X278001D02*
X279167Y178751D01*
X282666D02*
X280334D01*
X282666Y181083D01*
Y181666D01*
X282083Y182249D01*
X280917D01*
X280334Y181666D01*
X286165Y182249D02*
X284999Y181666D01*
X283833Y180500D01*
Y179334D01*
X284416Y178751D01*
X285582D01*
X286165Y179334D01*
Y179917D01*
X285582Y180500D01*
X283833D01*
X232584Y69749D02*
Y66251D01*
X234334D01*
X234917Y66834D01*
Y69166D01*
X234334Y69749D01*
X232584D01*
X236083Y69166D02*
X236666Y69749D01*
X237833D01*
X238416Y69166D01*
Y68583D01*
X237833Y68000D01*
X237249D01*
X237833D01*
X238416Y67417D01*
Y66834D01*
X237833Y66251D01*
X236666D01*
X236083Y66834D01*
X277126Y148085D02*
X278293D01*
X277710D01*
Y151584D01*
X277126Y151001D01*
X282375Y148085D02*
X280042D01*
X282375Y150418D01*
Y151001D01*
X281792Y151584D01*
X280625D01*
X280042Y151001D01*
X283541Y151584D02*
Y149251D01*
X284707Y148085D01*
X285874Y149251D01*
Y151584D01*
X332126Y268751D02*
Y272249D01*
X333876D01*
X334459Y271666D01*
Y270500D01*
X333876Y269917D01*
X332126D01*
X335625Y268751D02*
X336792D01*
X336208D01*
Y272249D01*
X335625Y271666D01*
X340874Y268751D02*
X338541D01*
X340874Y271083D01*
Y271666D01*
X340290Y272249D01*
X339124D01*
X338541Y271666D01*
X345584Y122751D02*
Y126249D01*
X347334D01*
X347917Y125666D01*
Y124500D01*
X347334Y123917D01*
X345584D01*
X349083Y123334D02*
X349666Y122751D01*
X350833D01*
X351416Y123334D01*
Y125666D01*
X350833Y126249D01*
X349666D01*
X349083Y125666D01*
Y125083D01*
X349666Y124500D01*
X351416D01*
X312917Y200834D02*
Y203166D01*
X312334Y203749D01*
X311167D01*
X310584Y203166D01*
Y200834D01*
X311167Y200251D01*
X312334D01*
X311751Y201417D02*
X312917Y200251D01*
X312334D02*
X312917Y200834D01*
X314083Y203166D02*
X314666Y203749D01*
X315833D01*
X316416Y203166D01*
Y202583D01*
X315833Y202000D01*
X315249D01*
X315833D01*
X316416Y201417D01*
Y200834D01*
X315833Y200251D01*
X314666D01*
X314083Y200834D01*
X290126Y236251D02*
Y239749D01*
X291876D01*
X292459Y239166D01*
Y238000D01*
X291876Y237417D01*
X290126D01*
X291293D02*
X292459Y236251D01*
X293625D02*
X294792D01*
X294208D01*
Y239749D01*
X293625Y239166D01*
X296541D02*
X297124Y239749D01*
X298290D01*
X298874Y239166D01*
Y238583D01*
X298290Y238000D01*
X298874Y237417D01*
Y236834D01*
X298290Y236251D01*
X297124D01*
X296541Y236834D01*
Y237417D01*
X297124Y238000D01*
X296541Y238583D01*
Y239166D01*
X297124Y238000D02*
X298290D01*
X309626Y236251D02*
Y239749D01*
X311376D01*
X311959Y239166D01*
Y238000D01*
X311376Y237417D01*
X309626D01*
X310793D02*
X311959Y236251D01*
X313125D02*
X314292D01*
X313708D01*
Y239749D01*
X313125Y239166D01*
X318374Y236251D02*
X316041D01*
X318374Y238583D01*
Y239166D01*
X317790Y239749D01*
X316624D01*
X316041Y239166D01*
X303917Y236834D02*
Y239166D01*
X303334Y239749D01*
X302167D01*
X301584Y239166D01*
Y236834D01*
X302167Y236251D01*
X303334D01*
X302751Y237417D02*
X303917Y236251D01*
X303334D02*
X303917Y236834D01*
X306833Y236251D02*
Y239749D01*
X305083Y238000D01*
X307416D01*
X290626Y262749D02*
Y259251D01*
X292376D01*
X292959Y259834D01*
Y262166D01*
X292376Y262749D01*
X290626D01*
X294125Y259251D02*
X295292D01*
X294708D01*
Y262749D01*
X294125Y262166D01*
X299374Y259251D02*
X297041D01*
X299374Y261583D01*
Y262166D01*
X298790Y262749D01*
X297624D01*
X297041Y262166D01*
X323584Y272249D02*
Y268751D01*
X325334D01*
X325917Y269334D01*
Y271666D01*
X325334Y272249D01*
X323584D01*
X327083Y269334D02*
X327666Y268751D01*
X328833D01*
X329416Y269334D01*
Y271666D01*
X328833Y272249D01*
X327666D01*
X327083Y271666D01*
Y271083D01*
X327666Y270500D01*
X329416D01*
X276085Y114249D02*
Y111917D01*
X277252Y110751D01*
X278418Y111917D01*
Y114249D01*
X281917Y113666D02*
X281334Y114249D01*
X280167D01*
X279584Y113666D01*
Y111334D01*
X280167Y110751D01*
X281334D01*
X281917Y111334D01*
X283083Y110751D02*
Y113083D01*
X284249Y114249D01*
X285416Y113083D01*
Y110751D01*
Y112500D01*
X283083D01*
X286582Y110751D02*
Y114249D01*
X288331D01*
X288915Y113666D01*
Y112500D01*
X288331Y111917D01*
X286582D01*
X274336Y145249D02*
Y142917D01*
X275502Y141751D01*
X276669Y142917D01*
Y145249D01*
X277835D02*
Y141751D01*
X279584D01*
X280167Y142334D01*
Y142917D01*
X279584Y143500D01*
X277835D01*
X279584D01*
X280167Y144083D01*
Y144666D01*
X279584Y145249D01*
X277835D01*
X281334Y141751D02*
Y144083D01*
X282500Y145249D01*
X283666Y144083D01*
Y141751D01*
Y143500D01*
X281334D01*
X284833Y145249D02*
X287165D01*
X285999D01*
Y141751D01*
X288331Y145249D02*
X290664D01*
X289498D01*
Y141751D01*
X305128Y125749D02*
X306294D01*
X305711D01*
Y122251D01*
X305128D01*
X306294D01*
X308043Y125749D02*
Y122251D01*
X309793D01*
X310376Y122834D01*
Y123417D01*
X309793Y124000D01*
X308043D01*
X309793D01*
X310376Y124583D01*
Y125166D01*
X309793Y125749D01*
X308043D01*
X311542Y122251D02*
Y124583D01*
X312708Y125749D01*
X313875Y124583D01*
Y122251D01*
Y124000D01*
X311542D01*
X315041Y125749D02*
X317374D01*
X316207D01*
Y122251D01*
X318540Y125749D02*
X320872D01*
X319706D01*
Y122251D01*
X259585Y114249D02*
X261918D01*
X260752D01*
Y110751D01*
X265417Y114249D02*
X263084D01*
Y110751D01*
X265417D01*
X263084Y112500D02*
X264251D01*
X266583Y110751D02*
Y114249D01*
X267749Y113083D01*
X268916Y114249D01*
Y110751D01*
X270082D02*
Y114249D01*
X271831D01*
X272415Y113666D01*
Y112500D01*
X271831Y111917D01*
X270082D01*
X249670Y144666D02*
X249086Y145249D01*
X247920D01*
X247337Y144666D01*
Y142334D01*
X247920Y141751D01*
X249086D01*
X249670Y142334D01*
X252585Y145249D02*
X251419D01*
X250836Y144666D01*
Y142334D01*
X251419Y141751D01*
X252585D01*
X253169Y142334D01*
Y144666D01*
X252585Y145249D01*
X254335Y141751D02*
Y145249D01*
X256667Y141751D01*
Y145249D01*
X257834D02*
X260166D01*
X259000D01*
Y141751D01*
X261333D02*
Y144083D01*
X262499Y145249D01*
X263665Y144083D01*
Y141751D01*
Y143500D01*
X261333D01*
X267164Y144666D02*
X266581Y145249D01*
X265415D01*
X264831Y144666D01*
Y142334D01*
X265415Y141751D01*
X266581D01*
X267164Y142334D01*
X268330Y145249D02*
X270663D01*
X269497D01*
Y141751D01*
X304835Y140166D02*
X305418Y140749D01*
X306584D01*
X307167Y140166D01*
Y139583D01*
X306584Y139000D01*
X306001D01*
X306584D01*
X307167Y138417D01*
Y137834D01*
X306584Y137251D01*
X305418D01*
X304835Y137834D01*
X308334Y140749D02*
Y138417D01*
X309500Y137251D01*
X310666Y138417D01*
Y140749D01*
X311833Y140166D02*
X312416Y140749D01*
X313582D01*
X314165Y140166D01*
Y139583D01*
X313582Y139000D01*
X312999D01*
X313582D01*
X314165Y138417D01*
Y137834D01*
X313582Y137251D01*
X312416D01*
X311833Y137834D01*
X306917Y135249D02*
X304584D01*
Y133500D01*
X305751Y134083D01*
X306334D01*
X306917Y133500D01*
Y132334D01*
X306334Y131751D01*
X305167D01*
X304584Y132334D01*
X308083Y135249D02*
Y132917D01*
X309249Y131751D01*
X310416Y132917D01*
Y135249D01*
X307167Y156166D02*
X306584Y156749D01*
X305418D01*
X304835Y156166D01*
Y153834D01*
X305418Y153251D01*
X306584D01*
X307167Y153834D01*
Y155000D01*
X306001D01*
X308334Y153251D02*
Y156749D01*
X310666Y153251D01*
Y156749D01*
X311833D02*
Y153251D01*
X313582D01*
X314165Y153834D01*
Y156166D01*
X313582Y156749D01*
X311833D01*
X161500Y34166D02*
X160917Y34749D01*
X159751D01*
X159167Y34166D01*
Y33583D01*
X159751Y33000D01*
X160917D01*
X161500Y32417D01*
Y31834D01*
X160917Y31251D01*
X159751D01*
X159167Y31834D01*
X162666Y31251D02*
X163833D01*
X163249D01*
Y34749D01*
X162666Y34166D01*
X69335Y208251D02*
Y211749D01*
X71084D01*
X71667Y211166D01*
Y210000D01*
X71084Y209417D01*
X69335D01*
X70501D02*
X71667Y208251D01*
X75166Y211749D02*
X72834D01*
Y210000D01*
X74000Y210583D01*
X74583D01*
X75166Y210000D01*
Y208834D01*
X74583Y208251D01*
X73417D01*
X72834Y208834D01*
X76333Y211166D02*
X76916Y211749D01*
X78082D01*
X78665Y211166D01*
Y208834D01*
X78082Y208251D01*
X76916D01*
X76333Y208834D01*
Y211166D01*
X68835Y214251D02*
Y217749D01*
X70584D01*
X71167Y217166D01*
Y216000D01*
X70584Y215417D01*
X68835D01*
X70001D02*
X71167Y214251D01*
X74083D02*
Y217749D01*
X72334Y216000D01*
X74666D01*
X78165Y217749D02*
X76999Y217166D01*
X75833Y216000D01*
Y214834D01*
X76416Y214251D01*
X77582D01*
X78165Y214834D01*
Y215417D01*
X77582Y216000D01*
X75833D01*
X68835Y219751D02*
Y223249D01*
X70584D01*
X71167Y222666D01*
Y221500D01*
X70584Y220917D01*
X68835D01*
X70001D02*
X71167Y219751D01*
X74083D02*
Y223249D01*
X72334Y221500D01*
X74666D01*
X78165Y223249D02*
X75833D01*
Y221500D01*
X76999Y222083D01*
X77582D01*
X78165Y221500D01*
Y220334D01*
X77582Y219751D01*
X76416D01*
X75833Y220334D01*
X102667Y198666D02*
X102084Y199249D01*
X100918D01*
X100335Y198666D01*
Y196334D01*
X100918Y195751D01*
X102084D01*
X102667Y196334D01*
X103834Y198666D02*
X104417Y199249D01*
X105583D01*
X106166Y198666D01*
Y198083D01*
X105583Y197500D01*
X105000D01*
X105583D01*
X106166Y196917D01*
Y196334D01*
X105583Y195751D01*
X104417D01*
X103834Y196334D01*
X107333Y198666D02*
X107916Y199249D01*
X109082D01*
X109665Y198666D01*
Y198083D01*
X109082Y197500D01*
X109665Y196917D01*
Y196334D01*
X109082Y195751D01*
X107916D01*
X107333Y196334D01*
Y196917D01*
X107916Y197500D01*
X107333Y198083D01*
Y198666D01*
X107916Y197500D02*
X109082D01*
X304626Y147251D02*
X305793D01*
X305210D01*
Y150749D01*
X304626Y150166D01*
X309875Y147251D02*
X307542D01*
X309875Y149583D01*
Y150166D01*
X309292Y150749D01*
X308125D01*
X307542Y150166D01*
X311041Y150749D02*
Y148417D01*
X312207Y147251D01*
X313374Y148417D01*
Y150749D01*
X204584Y30749D02*
Y27834D01*
X205167Y27251D01*
X206334D01*
X206917Y27834D01*
Y30749D01*
X208083Y30166D02*
X208666Y30749D01*
X209833D01*
X210416Y30166D01*
Y29583D01*
X209833Y29000D01*
X209249D01*
X209833D01*
X210416Y28417D01*
Y27834D01*
X209833Y27251D01*
X208666D01*
X208083Y27834D01*
X251917Y69749D02*
X249584D01*
Y68000D01*
X250751D01*
X249584D01*
Y66251D01*
X253083Y69749D02*
Y66251D01*
X254249Y67417D01*
X255416Y66251D01*
Y69749D01*
X223584Y21251D02*
Y24749D01*
X225334D01*
X225917Y24166D01*
Y23000D01*
X225334Y22417D01*
X223584D01*
X224751D02*
X225917Y21251D01*
X229416Y24749D02*
X227083D01*
Y23000D01*
X228249Y23583D01*
X228833D01*
X229416Y23000D01*
Y21834D01*
X228833Y21251D01*
X227666D01*
X227083Y21834D01*
X253335Y178751D02*
Y182249D01*
X255084D01*
X255667Y181666D01*
Y180500D01*
X255084Y179917D01*
X253335D01*
X254501D02*
X255667Y178751D01*
X259166D02*
X256834D01*
X259166Y181083D01*
Y181666D01*
X258583Y182249D01*
X257417D01*
X256834Y181666D01*
X260333D02*
X260916Y182249D01*
X262082D01*
X262665Y181666D01*
Y181083D01*
X262082Y180500D01*
X262665Y179917D01*
Y179334D01*
X262082Y178751D01*
X260916D01*
X260333Y179334D01*
Y179917D01*
X260916Y180500D01*
X260333Y181083D01*
Y181666D01*
X260916Y180500D02*
X262082D01*
X264835Y178751D02*
Y182249D01*
X266584D01*
X267167Y181666D01*
Y180500D01*
X266584Y179917D01*
X264835D01*
X266001D02*
X267167Y178751D01*
X270666D02*
X268334D01*
X270666Y181083D01*
Y181666D01*
X270083Y182249D01*
X268917D01*
X268334Y181666D01*
X271833Y182249D02*
X274165D01*
Y181666D01*
X271833Y179334D01*
Y178751D01*
X117210Y114251D02*
Y117749D01*
X118959D01*
X119542Y117166D01*
Y116000D01*
X118959Y115417D01*
X117210D01*
X118376D02*
X119542Y114251D01*
X120708D02*
X121875D01*
X121292D01*
Y117749D01*
X120708Y117166D01*
X123624Y114251D02*
X124790D01*
X124207D01*
Y117749D01*
X123624Y117166D01*
X259251Y45584D02*
X262749D01*
Y47334D01*
X262166Y47917D01*
X259834D01*
X259251Y47334D01*
Y45584D01*
Y49083D02*
Y51416D01*
X259834D01*
X262166Y49083D01*
X262749D01*
X223584Y30749D02*
Y27251D01*
X225334D01*
X225917Y27834D01*
Y30166D01*
X225334Y30749D01*
X223584D01*
X229416D02*
X228249Y30166D01*
X227083Y29000D01*
Y27834D01*
X227666Y27251D01*
X228833D01*
X229416Y27834D01*
Y28417D01*
X228833Y29000D01*
X227083D01*
X325584Y35249D02*
Y31751D01*
X327334D01*
X327917Y32334D01*
Y34666D01*
X327334Y35249D01*
X325584D01*
X331416Y31751D02*
X329083D01*
X331416Y34083D01*
Y34666D01*
X330833Y35249D01*
X329666D01*
X329083Y34666D01*
X274167Y35749D02*
Y32251D01*
X275917D01*
X276500Y32834D01*
Y35166D01*
X275917Y35749D01*
X274167D01*
X277666Y32251D02*
X278833D01*
X278249D01*
Y35749D01*
X277666Y35166D01*
X165626Y219249D02*
Y215751D01*
X167376D01*
X167959Y216334D01*
Y218666D01*
X167376Y219249D01*
X165626D01*
X169125Y215751D02*
X170292D01*
X169708D01*
Y219249D01*
X169125Y218666D01*
X172041Y219249D02*
X174374D01*
Y218666D01*
X172041Y216334D01*
Y215751D01*
X223667Y235166D02*
X223084Y235749D01*
X221918D01*
X221335Y235166D01*
Y232834D01*
X221918Y232251D01*
X223084D01*
X223667Y232834D01*
X227166Y232251D02*
X224834D01*
X227166Y234583D01*
Y235166D01*
X226583Y235749D01*
X225417D01*
X224834Y235166D01*
X230665Y235749D02*
X228333D01*
Y234000D01*
X229499Y234583D01*
X230082D01*
X230665Y234000D01*
Y232834D01*
X230082Y232251D01*
X228916D01*
X228333Y232834D01*
X8084Y117751D02*
Y121249D01*
X9834D01*
X10417Y120666D01*
Y119500D01*
X9834Y118917D01*
X8084D01*
X11583Y120666D02*
X12166Y121249D01*
X13333D01*
X13916Y120666D01*
Y120083D01*
X13333Y119500D01*
X12749D01*
X13333D01*
X13916Y118917D01*
Y118334D01*
X13333Y117751D01*
X12166D01*
X11583Y118334D01*
X25584Y268751D02*
Y272249D01*
X27334D01*
X27917Y271666D01*
Y270500D01*
X27334Y269917D01*
X25584D01*
X31416Y272249D02*
X30249Y271666D01*
X29083Y270500D01*
Y269334D01*
X29666Y268751D01*
X30833D01*
X31416Y269334D01*
Y269917D01*
X30833Y270500D01*
X29083D01*
X215959Y284666D02*
X215376Y285249D01*
X214210D01*
X213626Y284666D01*
Y282334D01*
X214210Y281751D01*
X215376D01*
X215959Y282334D01*
X217125Y281751D02*
X218292D01*
X217708D01*
Y285249D01*
X217125Y284666D01*
X220041Y282334D02*
X220624Y281751D01*
X221790D01*
X222374Y282334D01*
Y284666D01*
X221790Y285249D01*
X220624D01*
X220041Y284666D01*
Y284083D01*
X220624Y283500D01*
X222374D01*
X290417Y176834D02*
Y179166D01*
X289834Y179749D01*
X288667D01*
X288084Y179166D01*
Y176834D01*
X288667Y176251D01*
X289834D01*
X289251Y177417D02*
X290417Y176251D01*
X289834D02*
X290417Y176834D01*
X293916Y176251D02*
X291583D01*
X293916Y178583D01*
Y179166D01*
X293333Y179749D01*
X292166D01*
X291583Y179166D01*
X196647Y276749D02*
Y273834D01*
X197230Y273251D01*
X198396D01*
X198979Y273834D01*
Y276749D01*
X202478D02*
X201312Y276166D01*
X200146Y275000D01*
Y273834D01*
X200729Y273251D01*
X201895D01*
X202478Y273834D01*
Y274417D01*
X201895Y275000D01*
X200146D01*
X130084Y56249D02*
Y53334D01*
X130667Y52751D01*
X131834D01*
X132417Y53334D01*
Y56249D01*
X135333Y52751D02*
Y56249D01*
X133583Y54500D01*
X135916D01*
X122500Y120334D02*
Y122666D01*
X121917Y123249D01*
X120751D01*
X120167Y122666D01*
Y120334D01*
X120751Y119751D01*
X121917D01*
X121334Y120917D02*
X122500Y119751D01*
X121917D02*
X122500Y120334D01*
X123666Y119751D02*
X124833D01*
X124249D01*
Y123249D01*
X123666Y122666D01*
X96335Y96251D02*
Y99749D01*
X98084D01*
X98667Y99166D01*
Y98000D01*
X98084Y97417D01*
X96335D01*
X97501D02*
X98667Y96251D01*
X102166D02*
X99834D01*
X102166Y98583D01*
Y99166D01*
X101583Y99749D01*
X100417D01*
X99834Y99166D01*
X103333D02*
X103916Y99749D01*
X105082D01*
X105665Y99166D01*
Y98583D01*
X105082Y98000D01*
X104499D01*
X105082D01*
X105665Y97417D01*
Y96834D01*
X105082Y96251D01*
X103916D01*
X103333Y96834D01*
X111710Y199157D02*
Y196241D01*
X112293Y195658D01*
X113459D01*
X114042Y196241D01*
Y199157D01*
X115208Y195658D02*
X116375D01*
X115792D01*
Y199157D01*
X115208Y198574D01*
X118124Y195658D02*
X119290D01*
X118707D01*
Y199157D01*
X118124Y198574D01*
X124167Y223166D02*
X123584Y223749D01*
X122418D01*
X121835Y223166D01*
Y220834D01*
X122418Y220251D01*
X123584D01*
X124167Y220834D01*
X125334Y223166D02*
X125917Y223749D01*
X127083D01*
X127666Y223166D01*
Y222583D01*
X127083Y222000D01*
X126500D01*
X127083D01*
X127666Y221417D01*
Y220834D01*
X127083Y220251D01*
X125917D01*
X125334Y220834D01*
X131165Y223749D02*
X129999Y223166D01*
X128833Y222000D01*
Y220834D01*
X129416Y220251D01*
X130582D01*
X131165Y220834D01*
Y221417D01*
X130582Y222000D01*
X128833D01*
X290126Y187251D02*
Y190749D01*
X291876D01*
X292459Y190166D01*
Y189000D01*
X291876Y188417D01*
X290126D01*
X291293D02*
X292459Y187251D01*
X293625D02*
X294792D01*
X294208D01*
Y190749D01*
X293625Y190166D01*
X298290Y187251D02*
Y190749D01*
X296541Y189000D01*
X298874D01*
X165167Y131749D02*
Y128251D01*
X167500D01*
X168666D02*
X169833D01*
X169249D01*
Y131749D01*
X168666Y131166D01*
X20418Y127120D02*
Y123621D01*
Y124787D01*
X22751Y127120D01*
X21001Y125370D01*
X22751Y123621D01*
X23917Y127120D02*
X26249D01*
X25083D01*
Y123621D01*
X27416D02*
X28582D01*
X27999D01*
Y127120D01*
X27416Y126536D01*
X8126Y127249D02*
Y123751D01*
X9876D01*
X10459Y124334D01*
Y126666D01*
X9876Y127249D01*
X8126D01*
X11625Y123751D02*
X12792D01*
X12208D01*
Y127249D01*
X11625Y126666D01*
X14541D02*
X15124Y127249D01*
X16290D01*
X16874Y126666D01*
Y126083D01*
X16290Y125500D01*
X16874Y124917D01*
Y124334D01*
X16290Y123751D01*
X15124D01*
X14541Y124334D01*
Y124917D01*
X15124Y125500D01*
X14541Y126083D01*
Y126666D01*
X15124Y125500D02*
X16290D01*
X150126Y140249D02*
Y136751D01*
X151876D01*
X152459Y137334D01*
Y139666D01*
X151876Y140249D01*
X150126D01*
X153625Y136751D02*
X154792D01*
X154208D01*
Y140249D01*
X153625Y139666D01*
X156541D02*
X157124Y140249D01*
X158290D01*
X158874Y139666D01*
Y137334D01*
X158290Y136751D01*
X157124D01*
X156541Y137334D01*
Y139666D01*
X307710Y229249D02*
Y225751D01*
X309459D01*
X310042Y226334D01*
Y228666D01*
X309459Y229249D01*
X307710D01*
X311208Y225751D02*
X312375D01*
X311792D01*
Y229249D01*
X311208Y228666D01*
X314124Y225751D02*
X315290D01*
X314707D01*
Y229249D01*
X314124Y228666D01*
X207667Y128749D02*
Y128166D01*
X208834Y127000D01*
X210000Y128166D01*
Y128749D01*
X208834Y127000D02*
Y125251D01*
X211166D02*
X212333D01*
X211749D01*
Y128749D01*
X211166Y128166D01*
X101126Y188249D02*
Y185334D01*
X101710Y184751D01*
X102876D01*
X103459Y185334D01*
Y188249D01*
X104625Y184751D02*
X105792D01*
X105208D01*
Y188249D01*
X104625Y187666D01*
X107541D02*
X108124Y188249D01*
X109290D01*
X109874Y187666D01*
Y185334D01*
X109290Y184751D01*
X108124D01*
X107541Y185334D01*
Y187666D01*
X152084Y92749D02*
Y89834D01*
X152667Y89251D01*
X153834D01*
X154417Y89834D01*
Y92749D01*
X157916D02*
X155583D01*
Y91000D01*
X156749Y91583D01*
X157333D01*
X157916Y91000D01*
Y89834D01*
X157333Y89251D01*
X156166D01*
X155583Y89834D01*
X295084Y71749D02*
Y68834D01*
X295667Y68251D01*
X296834D01*
X297417Y68834D01*
Y71749D01*
X300916Y68251D02*
X298583D01*
X300916Y70583D01*
Y71166D01*
X300333Y71749D01*
X299166D01*
X298583Y71166D01*
X89667Y119249D02*
X92000D01*
X90834D01*
Y115751D01*
X93166D02*
X94333D01*
X93749D01*
Y119249D01*
X93166Y118666D01*
X161417Y28666D02*
X160834Y29249D01*
X159667D01*
X159084Y28666D01*
Y28083D01*
X159667Y27500D01*
X160834D01*
X161417Y26917D01*
Y26334D01*
X160834Y25751D01*
X159667D01*
X159084Y26334D01*
X164916Y25751D02*
X162583D01*
X164916Y28083D01*
Y28666D01*
X164333Y29249D01*
X163166D01*
X162583Y28666D01*
X210918Y226251D02*
Y229749D01*
X212667D01*
X213251Y229166D01*
Y228000D01*
X212667Y227417D01*
X210918D01*
X212084D02*
X213251Y226251D01*
X214417Y229749D02*
X216749D01*
X215583D01*
Y226251D01*
X217916D02*
X219082D01*
X218499D01*
Y229749D01*
X217916Y229166D01*
X155335Y185751D02*
Y189249D01*
X157084D01*
X157667Y188666D01*
Y187500D01*
X157084Y186917D01*
X155335D01*
X156501D02*
X157667Y185751D01*
X160583D02*
Y189249D01*
X158834Y187500D01*
X161166D01*
X164082Y185751D02*
Y189249D01*
X162333Y187500D01*
X164665D01*
X155335Y193251D02*
Y196749D01*
X157084D01*
X157667Y196166D01*
Y195000D01*
X157084Y194417D01*
X155335D01*
X156501D02*
X157667Y193251D01*
X160583D02*
Y196749D01*
X158834Y195000D01*
X161166D01*
X164665Y193251D02*
X162333D01*
X164665Y195583D01*
Y196166D01*
X164082Y196749D01*
X162916D01*
X162333Y196166D01*
X164835Y122751D02*
Y126249D01*
X166584D01*
X167167Y125666D01*
Y124500D01*
X166584Y123917D01*
X164835D01*
X166001D02*
X167167Y122751D01*
X168334Y125666D02*
X168917Y126249D01*
X170083D01*
X170666Y125666D01*
Y125083D01*
X170083Y124500D01*
X169500D01*
X170083D01*
X170666Y123917D01*
Y123334D01*
X170083Y122751D01*
X168917D01*
X168334Y123334D01*
X171833D02*
X172416Y122751D01*
X173582D01*
X174165Y123334D01*
Y125666D01*
X173582Y126249D01*
X172416D01*
X171833Y125666D01*
Y125083D01*
X172416Y124500D01*
X174165D01*
X111835Y150251D02*
Y153749D01*
X113584D01*
X114167Y153166D01*
Y152000D01*
X113584Y151417D01*
X111835D01*
X113001D02*
X114167Y150251D01*
X115334Y153166D02*
X115917Y153749D01*
X117083D01*
X117666Y153166D01*
Y152583D01*
X117083Y152000D01*
X116500D01*
X117083D01*
X117666Y151417D01*
Y150834D01*
X117083Y150251D01*
X115917D01*
X115334Y150834D01*
X118833Y153166D02*
X119416Y153749D01*
X120582D01*
X121165Y153166D01*
Y152583D01*
X120582Y152000D01*
X121165Y151417D01*
Y150834D01*
X120582Y150251D01*
X119416D01*
X118833Y150834D01*
Y151417D01*
X119416Y152000D01*
X118833Y152583D01*
Y153166D01*
X119416Y152000D02*
X120582D01*
X111835Y143751D02*
Y147249D01*
X113584D01*
X114167Y146666D01*
Y145500D01*
X113584Y144917D01*
X111835D01*
X113001D02*
X114167Y143751D01*
X115334Y146666D02*
X115917Y147249D01*
X117083D01*
X117666Y146666D01*
Y146083D01*
X117083Y145500D01*
X116500D01*
X117083D01*
X117666Y144917D01*
Y144334D01*
X117083Y143751D01*
X115917D01*
X115334Y144334D01*
X121165Y147249D02*
X119999Y146666D01*
X118833Y145500D01*
Y144334D01*
X119416Y143751D01*
X120582D01*
X121165Y144334D01*
Y144917D01*
X120582Y145500D01*
X118833D01*
X123626Y138251D02*
Y141749D01*
X125376D01*
X125959Y141166D01*
Y140000D01*
X125376Y139417D01*
X123626D01*
X124793D02*
X125959Y138251D01*
X127125D02*
X128292D01*
X127708D01*
Y141749D01*
X127125Y141166D01*
X130041D02*
X130624Y141749D01*
X131790D01*
X132374Y141166D01*
Y140583D01*
X131790Y140000D01*
X131207D01*
X131790D01*
X132374Y139417D01*
Y138834D01*
X131790Y138251D01*
X130624D01*
X130041Y138834D01*
X319126Y200251D02*
Y203749D01*
X320876D01*
X321459Y203166D01*
Y202000D01*
X320876Y201417D01*
X319126D01*
X320293D02*
X321459Y200251D01*
X322625D02*
X323792D01*
X323208D01*
Y203749D01*
X322625Y203166D01*
X325541D02*
X326124Y203749D01*
X327290D01*
X327874Y203166D01*
Y200834D01*
X327290Y200251D01*
X326124D01*
X325541Y200834D01*
Y203166D01*
X95918Y71751D02*
Y75249D01*
X97667D01*
X98251Y74666D01*
Y73500D01*
X97667Y72917D01*
X95918D01*
X97084D02*
X98251Y71751D01*
X101749D02*
X99417D01*
X101749Y74083D01*
Y74666D01*
X101166Y75249D01*
X100000D01*
X99417Y74666D01*
X102916Y71751D02*
X104082D01*
X103499D01*
Y75249D01*
X102916Y74666D01*
X115126Y64251D02*
Y67749D01*
X116876D01*
X117459Y67166D01*
Y66000D01*
X116876Y65417D01*
X115126D01*
X116293D02*
X117459Y64251D01*
X118625D02*
X119792D01*
X119208D01*
Y67749D01*
X118625Y67166D01*
X121541Y64834D02*
X122124Y64251D01*
X123290D01*
X123874Y64834D01*
Y67166D01*
X123290Y67749D01*
X122124D01*
X121541Y67166D01*
Y66583D01*
X122124Y66000D01*
X123874D01*
X125835Y64251D02*
Y67749D01*
X127584D01*
X128167Y67166D01*
Y66000D01*
X127584Y65417D01*
X125835D01*
X127001D02*
X128167Y64251D01*
X131666D02*
X129334D01*
X131666Y66583D01*
Y67166D01*
X131083Y67749D01*
X129917D01*
X129334Y67166D01*
X132833D02*
X133416Y67749D01*
X134582D01*
X135165Y67166D01*
Y64834D01*
X134582Y64251D01*
X133416D01*
X132833Y64834D01*
Y67166D01*
X175084Y8251D02*
Y11749D01*
X176834D01*
X177417Y11166D01*
Y10000D01*
X176834Y9417D01*
X175084D01*
X176251D02*
X177417Y8251D01*
X178583Y11166D02*
X179166Y11749D01*
X180333D01*
X180916Y11166D01*
Y10583D01*
X180333Y10000D01*
X179749D01*
X180333D01*
X180916Y9417D01*
Y8834D01*
X180333Y8251D01*
X179166D01*
X178583Y8834D01*
X196335Y160251D02*
Y163749D01*
X198084D01*
X198667Y163166D01*
Y162000D01*
X198084Y161417D01*
X196335D01*
X197501D02*
X198667Y160251D01*
X201583D02*
Y163749D01*
X199834Y162000D01*
X202166D01*
X203333Y163166D02*
X203916Y163749D01*
X205082D01*
X205665Y163166D01*
Y162583D01*
X205082Y162000D01*
X205665Y161417D01*
Y160834D01*
X205082Y160251D01*
X203916D01*
X203333Y160834D01*
Y161417D01*
X203916Y162000D01*
X203333Y162583D01*
Y163166D01*
X203916Y162000D02*
X205082D01*
X111835Y184751D02*
Y188249D01*
X113584D01*
X114167Y187666D01*
Y186500D01*
X113584Y185917D01*
X111835D01*
X113001D02*
X114167Y184751D01*
X117083D02*
Y188249D01*
X115334Y186500D01*
X117666D01*
X118833Y185334D02*
X119416Y184751D01*
X120582D01*
X121165Y185334D01*
Y187666D01*
X120582Y188249D01*
X119416D01*
X118833Y187666D01*
Y187083D01*
X119416Y186500D01*
X121165D01*
X211335Y135251D02*
Y138749D01*
X213084D01*
X213667Y138166D01*
Y137000D01*
X213084Y136417D01*
X211335D01*
X212501D02*
X213667Y135251D01*
X216583D02*
Y138749D01*
X214834Y137000D01*
X217166D01*
X218333Y138166D02*
X218916Y138749D01*
X220082D01*
X220665Y138166D01*
Y137583D01*
X220082Y137000D01*
X219499D01*
X220082D01*
X220665Y136417D01*
Y135834D01*
X220082Y135251D01*
X218916D01*
X218333Y135834D01*
X111835Y190251D02*
Y193749D01*
X113584D01*
X114167Y193166D01*
Y192000D01*
X113584Y191417D01*
X111835D01*
X113001D02*
X114167Y190251D01*
X117083D02*
Y193749D01*
X115334Y192000D01*
X117666D01*
X118833Y193749D02*
X121165D01*
Y193166D01*
X118833Y190834D01*
Y190251D01*
X91335Y227751D02*
Y231249D01*
X93084D01*
X93667Y230666D01*
Y229500D01*
X93084Y228917D01*
X91335D01*
X92501D02*
X93667Y227751D01*
X96583D02*
Y231249D01*
X94834Y229500D01*
X97166D01*
X98333Y230666D02*
X98916Y231249D01*
X100082D01*
X100665Y230666D01*
Y228334D01*
X100082Y227751D01*
X98916D01*
X98333Y228334D01*
Y230666D01*
X165835Y140751D02*
Y144249D01*
X167584D01*
X168167Y143666D01*
Y142500D01*
X167584Y141917D01*
X165835D01*
X167001D02*
X168167Y140751D01*
X169334Y143666D02*
X169917Y144249D01*
X171083D01*
X171666Y143666D01*
Y143083D01*
X171083Y142500D01*
X170500D01*
X171083D01*
X171666Y141917D01*
Y141334D01*
X171083Y140751D01*
X169917D01*
X169334Y141334D01*
X172833Y144249D02*
X175165D01*
Y143666D01*
X172833Y141334D01*
Y140751D01*
X176335Y263251D02*
Y266749D01*
X178084D01*
X178667Y266166D01*
Y265000D01*
X178084Y264417D01*
X176335D01*
X177501D02*
X178667Y263251D01*
X179834Y266166D02*
X180417Y266749D01*
X181583D01*
X182166Y266166D01*
Y265583D01*
X181583Y265000D01*
X181000D01*
X181583D01*
X182166Y264417D01*
Y263834D01*
X181583Y263251D01*
X180417D01*
X179834Y263834D01*
X185665Y263251D02*
X183333D01*
X185665Y265583D01*
Y266166D01*
X185082Y266749D01*
X183916D01*
X183333Y266166D01*
X199835Y220751D02*
Y224249D01*
X201584D01*
X202167Y223666D01*
Y222500D01*
X201584Y221917D01*
X199835D01*
X201001D02*
X202167Y220751D01*
X203334Y223666D02*
X203917Y224249D01*
X205083D01*
X205666Y223666D01*
Y223083D01*
X205083Y222500D01*
X204500D01*
X205083D01*
X205666Y221917D01*
Y221334D01*
X205083Y220751D01*
X203917D01*
X203334Y221334D01*
X206833Y223666D02*
X207416Y224249D01*
X208582D01*
X209165Y223666D01*
Y223083D01*
X208582Y222500D01*
X207999D01*
X208582D01*
X209165Y221917D01*
Y221334D01*
X208582Y220751D01*
X207416D01*
X206833Y221334D01*
X199918Y226251D02*
Y229749D01*
X201667D01*
X202251Y229166D01*
Y228000D01*
X201667Y227417D01*
X199918D01*
X201084D02*
X202251Y226251D01*
X203417Y229166D02*
X204000Y229749D01*
X205166D01*
X205749Y229166D01*
Y228583D01*
X205166Y228000D01*
X204583D01*
X205166D01*
X205749Y227417D01*
Y226834D01*
X205166Y226251D01*
X204000D01*
X203417Y226834D01*
X206916Y226251D02*
X208082D01*
X207499D01*
Y229749D01*
X206916Y229166D01*
X177835Y239751D02*
Y243249D01*
X179584D01*
X180167Y242666D01*
Y241500D01*
X179584Y240917D01*
X177835D01*
X179001D02*
X180167Y239751D01*
X181334Y242666D02*
X181917Y243249D01*
X183083D01*
X183666Y242666D01*
Y242083D01*
X183083Y241500D01*
X182500D01*
X183083D01*
X183666Y240917D01*
Y240334D01*
X183083Y239751D01*
X181917D01*
X181334Y240334D01*
X184833Y242666D02*
X185416Y243249D01*
X186582D01*
X187165Y242666D01*
Y240334D01*
X186582Y239751D01*
X185416D01*
X184833Y240334D01*
Y242666D01*
X165335Y151751D02*
Y155249D01*
X167084D01*
X167667Y154666D01*
Y153500D01*
X167084Y152917D01*
X165335D01*
X166501D02*
X167667Y151751D01*
X171166D02*
X168834D01*
X171166Y154083D01*
Y154666D01*
X170583Y155249D01*
X169417D01*
X168834Y154666D01*
X172333Y152334D02*
X172916Y151751D01*
X174082D01*
X174665Y152334D01*
Y154666D01*
X174082Y155249D01*
X172916D01*
X172333Y154666D01*
Y154083D01*
X172916Y153500D01*
X174665D01*
X118335Y95751D02*
Y99249D01*
X120084D01*
X120667Y98666D01*
Y97500D01*
X120084Y96917D01*
X118335D01*
X119501D02*
X120667Y95751D01*
X124166D02*
X121834D01*
X124166Y98083D01*
Y98666D01*
X123583Y99249D01*
X122417D01*
X121834Y98666D01*
X127082Y95751D02*
Y99249D01*
X125333Y97500D01*
X127665D01*
X118335Y90251D02*
Y93749D01*
X120084D01*
X120667Y93166D01*
Y92000D01*
X120084Y91417D01*
X118335D01*
X119501D02*
X120667Y90251D01*
X124166D02*
X121834D01*
X124166Y92583D01*
Y93166D01*
X123583Y93749D01*
X122417D01*
X121834Y93166D01*
X127665Y93749D02*
X125333D01*
Y92000D01*
X126499Y92583D01*
X127082D01*
X127665Y92000D01*
Y90834D01*
X127082Y90251D01*
X125916D01*
X125333Y90834D01*
X152335Y83751D02*
Y87249D01*
X154084D01*
X154667Y86666D01*
Y85500D01*
X154084Y84917D01*
X152335D01*
X153501D02*
X154667Y83751D01*
X158166D02*
X155834D01*
X158166Y86083D01*
Y86666D01*
X157583Y87249D01*
X156417D01*
X155834Y86666D01*
X161665Y83751D02*
X159333D01*
X161665Y86083D01*
Y86666D01*
X161082Y87249D01*
X159916D01*
X159333Y86666D01*
X299626Y200251D02*
Y203749D01*
X301376D01*
X301959Y203166D01*
Y202000D01*
X301376Y201417D01*
X299626D01*
X300793D02*
X301959Y200251D01*
X303125D02*
X304292D01*
X303708D01*
Y203749D01*
X303125Y203166D01*
X306041Y203749D02*
X308374D01*
Y203166D01*
X306041Y200834D01*
Y200251D01*
X120084Y125251D02*
Y128749D01*
X121834D01*
X122417Y128166D01*
Y127000D01*
X121834Y126417D01*
X120084D01*
X121251D02*
X122417Y125251D01*
X123583Y128166D02*
X124166Y128749D01*
X125333D01*
X125916Y128166D01*
Y127583D01*
X125333Y127000D01*
X125916Y126417D01*
Y125834D01*
X125333Y125251D01*
X124166D01*
X123583Y125834D01*
Y126417D01*
X124166Y127000D01*
X123583Y127583D01*
Y128166D01*
X124166Y127000D02*
X125333D01*
X295084Y62751D02*
Y66249D01*
X296834D01*
X297417Y65666D01*
Y64500D01*
X296834Y63917D01*
X295084D01*
X296251D02*
X297417Y62751D01*
X300916D02*
X298583D01*
X300916Y65083D01*
Y65666D01*
X300333Y66249D01*
X299166D01*
X298583Y65666D01*
X174084Y43251D02*
Y46749D01*
X175834D01*
X176417Y46166D01*
Y45000D01*
X175834Y44417D01*
X174084D01*
X175251D02*
X176417Y43251D01*
X177583Y43834D02*
X178166Y43251D01*
X179333D01*
X179916Y43834D01*
Y46166D01*
X179333Y46749D01*
X178166D01*
X177583Y46166D01*
Y45583D01*
X178166Y45000D01*
X179916D01*
X210084Y47751D02*
Y51249D01*
X211834D01*
X212417Y50666D01*
Y49500D01*
X211834Y48917D01*
X210084D01*
X211251D02*
X212417Y47751D01*
X213583Y51249D02*
X215916D01*
Y50666D01*
X213583Y48334D01*
Y47751D01*
X204584Y32751D02*
Y36249D01*
X206334D01*
X206917Y35666D01*
Y34500D01*
X206334Y33917D01*
X204584D01*
X205751D02*
X206917Y32751D01*
X210416Y36249D02*
X209249Y35666D01*
X208083Y34500D01*
Y33334D01*
X208666Y32751D01*
X209833D01*
X210416Y33334D01*
Y33917D01*
X209833Y34500D01*
X208083D01*
X208167Y119751D02*
Y123249D01*
X209917D01*
X210500Y122666D01*
Y121500D01*
X209917Y120917D01*
X208167D01*
X209334D02*
X210500Y119751D01*
X211666D02*
X212833D01*
X212249D01*
Y123249D01*
X211666Y122666D01*
X123084Y227251D02*
Y230749D01*
X124834D01*
X125417Y230166D01*
Y229000D01*
X124834Y228417D01*
X123084D01*
X128333Y227251D02*
Y230749D01*
X126583Y229000D01*
X128916D01*
X7584Y48251D02*
Y51749D01*
X9334D01*
X9917Y51166D01*
Y50000D01*
X9334Y49417D01*
X7584D01*
X13416Y51749D02*
X11083D01*
Y50000D01*
X12249Y50583D01*
X12833D01*
X13416Y50000D01*
Y48834D01*
X12833Y48251D01*
X11666D01*
X11083Y48834D01*
X337084Y122751D02*
Y126249D01*
X338834D01*
X339417Y125666D01*
Y124500D01*
X338834Y123917D01*
X337084D01*
X340583Y126249D02*
X342916D01*
Y125666D01*
X340583Y123334D01*
Y122751D01*
X290126Y192751D02*
Y196249D01*
X291876D01*
X292459Y195666D01*
Y194500D01*
X291876Y193917D01*
X290126D01*
X293625Y192751D02*
X294792D01*
X294208D01*
Y196249D01*
X293625Y195666D01*
X296541D02*
X297124Y196249D01*
X298290D01*
X298874Y195666D01*
Y193334D01*
X298290Y192751D01*
X297124D01*
X296541Y193334D01*
Y195666D01*
X290210Y224751D02*
Y228249D01*
X291959D01*
X292542Y227666D01*
Y226500D01*
X291959Y225917D01*
X290210D01*
X293708Y224751D02*
X294875D01*
X294292D01*
Y228249D01*
X293708Y227666D01*
X296624Y224751D02*
X297790D01*
X297207D01*
Y228249D01*
X296624Y227666D01*
X295626Y30251D02*
Y33749D01*
X297376D01*
X297959Y33166D01*
Y32000D01*
X297376Y31417D01*
X295626D01*
X299125Y30251D02*
X300292D01*
X299708D01*
Y33749D01*
X299125Y33166D01*
X302041D02*
X302624Y33749D01*
X303790D01*
X304374Y33166D01*
Y32583D01*
X303790Y32000D01*
X303207D01*
X303790D01*
X304374Y31417D01*
Y30834D01*
X303790Y30251D01*
X302624D01*
X302041Y30834D01*
X21584Y159751D02*
Y163249D01*
X23334D01*
X23917Y162666D01*
Y161500D01*
X23334Y160917D01*
X21584D01*
X25083Y162666D02*
X25666Y163249D01*
X26833D01*
X27416Y162666D01*
Y162083D01*
X26833Y161500D01*
X27416Y160917D01*
Y160334D01*
X26833Y159751D01*
X25666D01*
X25083Y160334D01*
Y160917D01*
X25666Y161500D01*
X25083Y162083D01*
Y162666D01*
X25666Y161500D02*
X26833D01*
X226584Y294749D02*
Y291251D01*
X228917D01*
X232416D02*
X230083D01*
X232416Y293583D01*
Y294166D01*
X231833Y294749D01*
X230666D01*
X230083Y294166D01*
X120084Y134749D02*
Y131251D01*
X121834D01*
X122417Y131834D01*
Y134166D01*
X121834Y134749D01*
X120084D01*
X125916D02*
X123583D01*
Y133000D01*
X124749Y133583D01*
X125333D01*
X125916Y133000D01*
Y131834D01*
X125333Y131251D01*
X124166D01*
X123583Y131834D01*
X213626Y290749D02*
Y287251D01*
X215376D01*
X215959Y287834D01*
Y290166D01*
X215376Y290749D01*
X213626D01*
X217125Y287251D02*
X218292D01*
X217708D01*
Y290749D01*
X217125Y290166D01*
X222374Y290749D02*
X221207Y290166D01*
X220041Y289000D01*
Y287834D01*
X220624Y287251D01*
X221790D01*
X222374Y287834D01*
Y288417D01*
X221790Y289000D01*
X220041D01*
X320584Y239749D02*
Y236251D01*
X322334D01*
X322917Y236834D01*
Y239166D01*
X322334Y239749D01*
X320584D01*
X324083Y239166D02*
X324666Y239749D01*
X325833D01*
X326416Y239166D01*
Y238583D01*
X325833Y238000D01*
X326416Y237417D01*
Y236834D01*
X325833Y236251D01*
X324666D01*
X324083Y236834D01*
Y237417D01*
X324666Y238000D01*
X324083Y238583D01*
Y239166D01*
X324666Y238000D02*
X325833D01*
X174084Y40249D02*
Y36751D01*
X175834D01*
X176417Y37334D01*
Y39666D01*
X175834Y40249D01*
X174084D01*
X179333Y36751D02*
Y40249D01*
X177583Y38500D01*
X179916D01*
X152667Y114166D02*
X152084Y114749D01*
X150918D01*
X150335Y114166D01*
Y111834D01*
X150918Y111251D01*
X152084D01*
X152667Y111834D01*
X153834Y114166D02*
X154417Y114749D01*
X155583D01*
X156166Y114166D01*
Y113583D01*
X155583Y113000D01*
X155000D01*
X155583D01*
X156166Y112417D01*
Y111834D01*
X155583Y111251D01*
X154417D01*
X153834Y111834D01*
X159082Y111251D02*
Y114749D01*
X157333Y113000D01*
X159665D01*
X201000Y127666D02*
X200417Y128249D01*
X199251D01*
X198667Y127666D01*
Y125334D01*
X199251Y124751D01*
X200417D01*
X201000Y125334D01*
X202166Y124751D02*
X203333D01*
X202749D01*
Y128249D01*
X202166Y127666D01*
X114167Y141166D02*
X113584Y141749D01*
X112418D01*
X111835Y141166D01*
Y138834D01*
X112418Y138251D01*
X113584D01*
X114167Y138834D01*
X117083Y138251D02*
Y141749D01*
X115334Y140000D01*
X117666D01*
X118833Y141166D02*
X119416Y141749D01*
X120582D01*
X121165Y141166D01*
Y138834D01*
X120582Y138251D01*
X119416D01*
X118833Y138834D01*
Y141166D01*
X120459Y104166D02*
X119876Y104749D01*
X118710D01*
X118126Y104166D01*
Y101834D01*
X118710Y101251D01*
X119876D01*
X120459Y101834D01*
X121625Y101251D02*
X122792D01*
X122208D01*
Y104749D01*
X121625Y104166D01*
X126874Y104749D02*
X125707Y104166D01*
X124541Y103000D01*
Y101834D01*
X125124Y101251D01*
X126290D01*
X126874Y101834D01*
Y102417D01*
X126290Y103000D01*
X124541D01*
X153959Y97666D02*
X153376Y98249D01*
X152210D01*
X151626Y97666D01*
Y95334D01*
X152210Y94751D01*
X153376D01*
X153959Y95334D01*
X155125Y94751D02*
X156292D01*
X155708D01*
Y98249D01*
X155125Y97666D01*
X160374Y98249D02*
X158041D01*
Y96500D01*
X159207Y97083D01*
X159790D01*
X160374Y96500D01*
Y95334D01*
X159790Y94751D01*
X158624D01*
X158041Y95334D01*
X161459Y23166D02*
X160876Y23749D01*
X159710D01*
X159126Y23166D01*
Y20834D01*
X159710Y20251D01*
X160876D01*
X161459Y20834D01*
X162625Y20251D02*
X163792D01*
X163208D01*
Y23749D01*
X162625Y23166D01*
X165541D02*
X166124Y23749D01*
X167290D01*
X167874Y23166D01*
Y22583D01*
X167290Y22000D01*
X166707D01*
X167290D01*
X167874Y21417D01*
Y20834D01*
X167290Y20251D01*
X166124D01*
X165541Y20834D01*
X198667Y157666D02*
X198084Y158249D01*
X196918D01*
X196335Y157666D01*
Y155334D01*
X196918Y154751D01*
X198084D01*
X198667Y155334D01*
X199834Y157666D02*
X200417Y158249D01*
X201583D01*
X202166Y157666D01*
Y157083D01*
X201583Y156500D01*
X201000D01*
X201583D01*
X202166Y155917D01*
Y155334D01*
X201583Y154751D01*
X200417D01*
X199834Y155334D01*
X203333D02*
X203916Y154751D01*
X205082D01*
X205665Y155334D01*
Y157666D01*
X205082Y158249D01*
X203916D01*
X203333Y157666D01*
Y157083D01*
X203916Y156500D01*
X205665D01*
X201667Y138166D02*
X201084Y138749D01*
X199918D01*
X199335Y138166D01*
Y135834D01*
X199918Y135251D01*
X201084D01*
X201667Y135834D01*
X202834Y138166D02*
X203417Y138749D01*
X204583D01*
X205166Y138166D01*
Y137583D01*
X204583Y137000D01*
X204000D01*
X204583D01*
X205166Y136417D01*
Y135834D01*
X204583Y135251D01*
X203417D01*
X202834Y135834D01*
X206333Y138749D02*
X208665D01*
Y138166D01*
X206333Y135834D01*
Y135251D01*
X167667Y149166D02*
X167084Y149749D01*
X165918D01*
X165335Y149166D01*
Y146834D01*
X165918Y146251D01*
X167084D01*
X167667Y146834D01*
X168834Y149166D02*
X169417Y149749D01*
X170583D01*
X171166Y149166D01*
Y148583D01*
X170583Y148000D01*
X170000D01*
X170583D01*
X171166Y147417D01*
Y146834D01*
X170583Y146251D01*
X169417D01*
X168834Y146834D01*
X172333Y149166D02*
X172916Y149749D01*
X174082D01*
X174665Y149166D01*
Y148583D01*
X174082Y148000D01*
X173499D01*
X174082D01*
X174665Y147417D01*
Y146834D01*
X174082Y146251D01*
X172916D01*
X172333Y146834D01*
X167167Y224666D02*
X166584Y225249D01*
X165418D01*
X164835Y224666D01*
Y222334D01*
X165418Y221751D01*
X166584D01*
X167167Y222334D01*
X170666Y221751D02*
X168334D01*
X170666Y224083D01*
Y224666D01*
X170083Y225249D01*
X168917D01*
X168334Y224666D01*
X171833Y225249D02*
X174165D01*
Y224666D01*
X171833Y222334D01*
Y221751D01*
X166667Y230166D02*
X166084Y230749D01*
X164918D01*
X164335Y230166D01*
Y227834D01*
X164918Y227251D01*
X166084D01*
X166667Y227834D01*
X170166Y227251D02*
X167834D01*
X170166Y229583D01*
Y230166D01*
X169583Y230749D01*
X168417D01*
X167834Y230166D01*
X173665Y230749D02*
X172499Y230166D01*
X171333Y229000D01*
Y227834D01*
X171916Y227251D01*
X173082D01*
X173665Y227834D01*
Y228417D01*
X173082Y229000D01*
X171333D01*
X279667Y227666D02*
X279084Y228249D01*
X277918D01*
X277335Y227666D01*
Y225334D01*
X277918Y224751D01*
X279084D01*
X279667Y225334D01*
X283166Y224751D02*
X280834D01*
X283166Y227083D01*
Y227666D01*
X282583Y228249D01*
X281417D01*
X280834Y227666D01*
X286082Y224751D02*
Y228249D01*
X284333Y226500D01*
X286665D01*
X201667Y235166D02*
X201084Y235749D01*
X199918D01*
X199335Y235166D01*
Y232834D01*
X199918Y232251D01*
X201084D01*
X201667Y232834D01*
X205166Y232251D02*
X202834D01*
X205166Y234583D01*
Y235166D01*
X204583Y235749D01*
X203417D01*
X202834Y235166D01*
X206333D02*
X206916Y235749D01*
X208082D01*
X208665Y235166D01*
Y234583D01*
X208082Y234000D01*
X207499D01*
X208082D01*
X208665Y233417D01*
Y232834D01*
X208082Y232251D01*
X206916D01*
X206333Y232834D01*
X196667Y288666D02*
X196084Y289249D01*
X194918D01*
X194335Y288666D01*
Y286334D01*
X194918Y285751D01*
X196084D01*
X196667Y286334D01*
X200166Y285751D02*
X197834D01*
X200166Y288083D01*
Y288666D01*
X199583Y289249D01*
X198417D01*
X197834Y288666D01*
X203665Y285751D02*
X201333D01*
X203665Y288083D01*
Y288666D01*
X203082Y289249D01*
X201916D01*
X201333Y288666D01*
X223751Y241166D02*
X223167Y241749D01*
X222001D01*
X221418Y241166D01*
Y238834D01*
X222001Y238251D01*
X223167D01*
X223751Y238834D01*
X227249Y238251D02*
X224917D01*
X227249Y240583D01*
Y241166D01*
X226666Y241749D01*
X225500D01*
X224917Y241166D01*
X228416Y238251D02*
X229582D01*
X228999D01*
Y241749D01*
X228416Y241166D01*
X172167Y289666D02*
X171584Y290249D01*
X170418D01*
X169835Y289666D01*
Y287334D01*
X170418Y286751D01*
X171584D01*
X172167Y287334D01*
X175666Y286751D02*
X173334D01*
X175666Y289083D01*
Y289666D01*
X175083Y290249D01*
X173917D01*
X173334Y289666D01*
X176833D02*
X177416Y290249D01*
X178582D01*
X179165Y289666D01*
Y287334D01*
X178582Y286751D01*
X177416D01*
X176833Y287334D01*
Y289666D01*
X117459Y72666D02*
X116876Y73249D01*
X115710D01*
X115126Y72666D01*
Y70334D01*
X115710Y69751D01*
X116876D01*
X117459Y70334D01*
X118625Y69751D02*
X119792D01*
X119208D01*
Y73249D01*
X118625Y72666D01*
X121541D02*
X122124Y73249D01*
X123290D01*
X123874Y72666D01*
Y72083D01*
X123290Y71500D01*
X123874Y70917D01*
Y70334D01*
X123290Y69751D01*
X122124D01*
X121541Y70334D01*
Y70917D01*
X122124Y71500D01*
X121541Y72083D01*
Y72666D01*
X122124Y71500D02*
X123290D01*
X139459Y81520D02*
X138876Y82103D01*
X137710D01*
X137126Y81520D01*
Y79188D01*
X137710Y78605D01*
X138876D01*
X139459Y79188D01*
X140625Y78605D02*
X141792D01*
X141208D01*
Y82103D01*
X140625Y81520D01*
X143541Y82103D02*
X145874D01*
Y81520D01*
X143541Y79188D01*
Y78605D01*
X177459Y16666D02*
X176876Y17249D01*
X175710D01*
X175126Y16666D01*
Y14334D01*
X175710Y13751D01*
X176876D01*
X177459Y14334D01*
X178625Y13751D02*
X179792D01*
X179208D01*
Y17249D01*
X178625Y16666D01*
X183290Y13751D02*
Y17249D01*
X181541Y15500D01*
X183874D01*
X242459Y63666D02*
X241876Y64249D01*
X240710D01*
X240126Y63666D01*
Y61334D01*
X240710Y60751D01*
X241876D01*
X242459Y61334D01*
X243625Y60751D02*
X244792D01*
X244208D01*
Y64249D01*
X243625Y63666D01*
X246541D02*
X247124Y64249D01*
X248290D01*
X248874Y63666D01*
Y61334D01*
X248290Y60751D01*
X247124D01*
X246541Y61334D01*
Y63666D01*
X240417Y98666D02*
X239834Y99249D01*
X238667D01*
X238084Y98666D01*
Y96334D01*
X238667Y95751D01*
X239834D01*
X240417Y96334D01*
X243333Y95751D02*
Y99249D01*
X241583Y97500D01*
X243916D01*
X216959Y132166D02*
X216376Y132749D01*
X215210D01*
X214626Y132166D01*
Y129834D01*
X215210Y129251D01*
X216376D01*
X216959Y129834D01*
X218125Y129251D02*
X219292D01*
X218708D01*
Y132749D01*
X218125Y132166D01*
X223374Y129251D02*
X221041D01*
X223374Y131583D01*
Y132166D01*
X222790Y132749D01*
X221624D01*
X221041Y132166D01*
X230542D02*
X229959Y132749D01*
X228793D01*
X228210Y132166D01*
Y129834D01*
X228793Y129251D01*
X229959D01*
X230542Y129834D01*
X231708Y129251D02*
X232875D01*
X232292D01*
Y132749D01*
X231708Y132166D01*
X234624Y129251D02*
X235790D01*
X235207D01*
Y132749D01*
X234624Y132166D01*
X234917Y58166D02*
X234334Y58749D01*
X233167D01*
X232584Y58166D01*
Y55834D01*
X233167Y55251D01*
X234334D01*
X234917Y55834D01*
X238416Y58749D02*
X236083D01*
Y57000D01*
X237249Y57583D01*
X237833D01*
X238416Y57000D01*
Y55834D01*
X237833Y55251D01*
X236666D01*
X236083Y55834D01*
X176417Y52166D02*
X175834Y52749D01*
X174667D01*
X174084Y52166D01*
Y49834D01*
X174667Y49251D01*
X175834D01*
X176417Y49834D01*
X179916Y52749D02*
X178749Y52166D01*
X177583Y51000D01*
Y49834D01*
X178166Y49251D01*
X179333D01*
X179916Y49834D01*
Y50417D01*
X179333Y51000D01*
X177583D01*
X172417Y107666D02*
X171834Y108249D01*
X170667D01*
X170084Y107666D01*
Y105334D01*
X170667Y104751D01*
X171834D01*
X172417Y105334D01*
X173583Y108249D02*
X175916D01*
Y107666D01*
X173583Y105334D01*
Y104751D01*
X200917Y112666D02*
X200334Y113249D01*
X199167D01*
X198584Y112666D01*
Y110334D01*
X199167Y109751D01*
X200334D01*
X200917Y110334D01*
X202083Y112666D02*
X202666Y113249D01*
X203833D01*
X204416Y112666D01*
Y112083D01*
X203833Y111500D01*
X203249D01*
X203833D01*
X204416Y110917D01*
Y110334D01*
X203833Y109751D01*
X202666D01*
X202083Y110334D01*
X212417Y44666D02*
X211834Y45249D01*
X210667D01*
X210084Y44666D01*
Y42334D01*
X210667Y41751D01*
X211834D01*
X212417Y42334D01*
X213583D02*
X214166Y41751D01*
X215333D01*
X215916Y42334D01*
Y44666D01*
X215333Y45249D01*
X214166D01*
X213583Y44666D01*
Y44083D01*
X214166Y43500D01*
X215916D01*
X170417Y73666D02*
X169834Y74249D01*
X168667D01*
X168084Y73666D01*
Y71334D01*
X168667Y70751D01*
X169834D01*
X170417Y71334D01*
X171583Y73666D02*
X172166Y74249D01*
X173333D01*
X173916Y73666D01*
Y73083D01*
X173333Y72500D01*
X173916Y71917D01*
Y71334D01*
X173333Y70751D01*
X172166D01*
X171583Y71334D01*
Y71917D01*
X172166Y72500D01*
X171583Y73083D01*
Y73666D01*
X172166Y72500D02*
X173333D01*
X200917Y120166D02*
X200334Y120749D01*
X199167D01*
X198584Y120166D01*
Y117834D01*
X199167Y117251D01*
X200334D01*
X200917Y117834D01*
X204416Y117251D02*
X202083D01*
X204416Y119583D01*
Y120166D01*
X203833Y120749D01*
X202666D01*
X202083Y120166D01*
D18*
X164532Y288160D02*
Y296031D01*
X160596D01*
X159284Y294720D01*
Y293408D01*
X160596Y292096D01*
X164532D01*
X160596D01*
X159284Y290784D01*
Y289472D01*
X160596Y288160D01*
X164532D01*
X156660Y296031D02*
Y290784D01*
X154036Y288160D01*
X151412Y290784D01*
Y296031D01*
Y292096D01*
X156660D01*
X148788Y288160D02*
X143541D01*
X146165D01*
Y296031D01*
X140917Y288160D02*
X135669D01*
X138293D01*
Y296031D01*
X127798Y288160D02*
X133046D01*
Y296031D01*
X127798D01*
X133046Y292096D02*
X130422D01*
X125174Y296031D02*
Y288160D01*
X121238D01*
X119926Y289472D01*
Y292096D01*
X121238Y293408D01*
X125174D01*
X122550D02*
X119926Y296031D01*
X117303Y288160D02*
Y289472D01*
X114679Y292096D01*
X112055Y289472D01*
Y288160D01*
X114679Y292096D02*
Y296031D01*
X109431Y292096D02*
X104183D01*
X106807Y289472D02*
Y294720D01*
X91531Y287660D02*
Y295532D01*
X87596D01*
X86284Y294220D01*
Y292908D01*
X87596Y291596D01*
X91531D01*
X87596D01*
X86284Y290284D01*
Y288972D01*
X87596Y287660D01*
X91531D01*
X83660Y295532D02*
Y287660D01*
X81036Y290284D01*
X78412Y287660D01*
Y295532D01*
X70541Y288972D02*
X71853Y287660D01*
X74477D01*
X75788Y288972D01*
Y290284D01*
X74477Y291596D01*
X71853D01*
X70541Y292908D01*
Y294220D01*
X71853Y295532D01*
X74477D01*
X75788Y294220D01*
X67917Y291596D02*
X62669D01*
X56110Y287660D02*
X58734D01*
X60046Y288972D01*
Y294220D01*
X58734Y295532D01*
X56110D01*
X54798Y294220D01*
Y288972D01*
X56110Y287660D01*
X52174D02*
Y294220D01*
X50862Y295532D01*
X48238D01*
X46926Y294220D01*
Y287660D01*
X44303D02*
X39055D01*
X41679D01*
Y295532D01*
D19*
X223751Y229166D02*
X223167Y229749D01*
X222001D01*
X221418Y229166D01*
Y226834D01*
X222001Y226251D01*
X223167D01*
X223751Y226834D01*
X226666Y226251D02*
Y229749D01*
X224917Y228000D01*
X227249D01*
X228416Y226251D02*
X229582D01*
X228999D01*
Y229749D01*
X228416Y229166D01*
X66626Y198749D02*
Y195834D01*
X67210Y195251D01*
X68376D01*
X68959Y195834D01*
Y198749D01*
X70125Y195251D02*
X71292D01*
X70708D01*
Y198749D01*
X70125Y198166D01*
X75374Y195251D02*
X73041D01*
X75374Y197583D01*
Y198166D01*
X74790Y198749D01*
X73624D01*
X73041Y198166D01*
X212626Y27251D02*
Y30749D01*
X214376D01*
X214959Y30166D01*
Y29000D01*
X214376Y28417D01*
X212626D01*
X216125Y27251D02*
X217292D01*
X216708D01*
Y30749D01*
X216125Y30166D01*
X220790Y27251D02*
Y30749D01*
X219041Y29000D01*
X221374D01*
X253335Y151438D02*
X253918Y152021D01*
X255084D01*
X255667Y151438D01*
Y150855D01*
X255084Y150272D01*
X254501D01*
X255084D01*
X255667Y149688D01*
Y149105D01*
X255084Y148522D01*
X253918D01*
X253335Y149105D01*
X256834Y152021D02*
Y149688D01*
X258000Y148522D01*
X259166Y149688D01*
Y152021D01*
X260333Y151438D02*
X260916Y152021D01*
X262082D01*
X262665Y151438D01*
Y150855D01*
X262082Y150272D01*
X261499D01*
X262082D01*
X262665Y149688D01*
Y149105D01*
X262082Y148522D01*
X260916D01*
X260333Y149105D01*
X269417Y152021D02*
X267084D01*
Y150272D01*
X268251Y150855D01*
X268834D01*
X269417Y150272D01*
Y149105D01*
X268834Y148522D01*
X267667D01*
X267084Y149105D01*
X270583Y152021D02*
Y149688D01*
X271749Y148522D01*
X272916Y149688D01*
Y152021D01*
M02*
