G04*
G04 #@! TF.GenerationSoftware,Altium Limited,Altium Designer,21.8.1 (53)*
G04*
G04 Layer_Color=8388736*
%FSLAX25Y25*%
%MOIN*%
G70*
G04*
G04 #@! TF.SameCoordinates,67586CA8-3494-4C59-B5DC-5B9CAF07B576*
G04*
G04*
G04 #@! TF.FilePolarity,Negative*
G04*
G01*
G75*
%ADD52R,0.06902X0.03556*%
%ADD53R,0.04737X0.06115*%
%ADD54R,0.04737X0.03556*%
%ADD55R,0.04147X0.03556*%
%ADD56R,0.15367X0.13398*%
%ADD57R,0.09068X0.06312*%
%ADD58R,0.03556X0.04147*%
%ADD59R,0.03753X0.05721*%
%ADD60R,0.06115X0.04737*%
%ADD61R,0.08280X0.10249*%
%ADD62R,0.05524X0.01981*%
%ADD63R,0.01981X0.05524*%
%ADD64R,0.07887X0.03753*%
%ADD65R,0.03556X0.04737*%
%ADD66R,0.13398X0.07690*%
%ADD67R,0.04540X0.07690*%
%ADD68R,0.07047X0.07047*%
%ADD69R,0.01535X0.03307*%
%ADD70R,0.03307X0.01535*%
%ADD71R,0.03162X0.04737*%
%ADD72R,0.14973X0.08083*%
%ADD73R,0.05721X0.03753*%
%ADD74R,0.03000X0.08600*%
%ADD75R,0.04343X0.03556*%
%ADD76R,0.11627X0.05131*%
%ADD77O,0.06312X0.02572*%
%ADD78R,0.13202X0.18517*%
%ADD79O,0.06509X0.03162*%
%ADD80R,0.13398X0.15367*%
%ADD81R,0.03162X0.03950*%
%ADD82R,0.10642X0.07099*%
%ADD83R,0.07099X0.10642*%
%ADD84R,0.20879X0.16548*%
%ADD85R,0.08241X0.05800*%
%ADD86O,0.08674X0.07493*%
G04:AMPARAMS|DCode=87|XSize=74.93mil|YSize=86.74mil|CornerRadius=20.73mil|HoleSize=0mil|Usage=FLASHONLY|Rotation=90.000|XOffset=0mil|YOffset=0mil|HoleType=Round|Shape=RoundedRectangle|*
%AMROUNDEDRECTD87*
21,1,0.07493,0.04528,0,0,90.0*
21,1,0.03347,0.08674,0,0,90.0*
1,1,0.04146,0.02264,0.01673*
1,1,0.04146,0.02264,-0.01673*
1,1,0.04146,-0.02264,-0.01673*
1,1,0.04146,-0.02264,0.01673*
%
%ADD87ROUNDEDRECTD87*%
%ADD88C,0.10800*%
%ADD89C,0.06706*%
%ADD90R,0.06706X0.06706*%
%ADD91C,0.24422*%
G04:AMPARAMS|DCode=92|XSize=74.93mil|YSize=86.74mil|CornerRadius=20.73mil|HoleSize=0mil|Usage=FLASHONLY|Rotation=0.000|XOffset=0mil|YOffset=0mil|HoleType=Round|Shape=RoundedRectangle|*
%AMROUNDEDRECTD92*
21,1,0.07493,0.04528,0,0,0.0*
21,1,0.03347,0.08674,0,0,0.0*
1,1,0.04146,0.01673,-0.02264*
1,1,0.04146,-0.01673,-0.02264*
1,1,0.04146,-0.01673,0.02264*
1,1,0.04146,0.01673,0.02264*
%
%ADD92ROUNDEDRECTD92*%
%ADD93O,0.07493X0.08674*%
%ADD94C,0.06800*%
%ADD95C,0.13398*%
%ADD96C,0.03950*%
G36*
X103500Y233000D02*
X36500D01*
Y283500D01*
X103500D01*
Y233000D01*
D02*
G37*
G36*
X174000D02*
X107262Y233000D01*
X106766Y283145D01*
X107118Y283500D01*
X174000D01*
Y233000D01*
D02*
G37*
D52*
X252728Y42045D02*
D03*
Y37045D02*
D03*
Y32045D02*
D03*
Y27045D02*
D03*
X231272D02*
D03*
Y32045D02*
D03*
Y37045D02*
D03*
Y42045D02*
D03*
X213228Y27347D02*
D03*
Y22347D02*
D03*
Y17347D02*
D03*
Y12348D02*
D03*
X191772D02*
D03*
Y17347D02*
D03*
Y22347D02*
D03*
Y27347D02*
D03*
D53*
X237358Y20000D02*
D03*
X244642D02*
D03*
X187858Y126494D02*
D03*
X195142D02*
D03*
X187808Y118997D02*
D03*
X195092D02*
D03*
X195142Y111500D02*
D03*
X187858D02*
D03*
X216956Y125000D02*
D03*
X224239D02*
D03*
X205642Y5500D02*
D03*
X198358D02*
D03*
X172142Y112987D02*
D03*
X164858D02*
D03*
X168171Y15000D02*
D03*
X160888D02*
D03*
X127858Y74146D02*
D03*
X135142D02*
D03*
X158642Y74146D02*
D03*
X151358D02*
D03*
X203642Y212000D02*
D03*
X196358D02*
D03*
X219500Y175500D02*
D03*
X212216D02*
D03*
X237642Y125500D02*
D03*
X230358D02*
D03*
X210549Y240000D02*
D03*
X217833D02*
D03*
X191858D02*
D03*
X199142D02*
D03*
X223142Y277800D02*
D03*
X215858D02*
D03*
X167058Y66010D02*
D03*
X174341D02*
D03*
X167058Y58513D02*
D03*
X174341D02*
D03*
X182858Y212500D02*
D03*
X190142D02*
D03*
X194358Y281000D02*
D03*
X201642D02*
D03*
X224358Y243000D02*
D03*
X231642D02*
D03*
X132956Y103270D02*
D03*
X140239D02*
D03*
X153642Y103270D02*
D03*
X146358D02*
D03*
X162739Y213000D02*
D03*
X155456D02*
D03*
X176142D02*
D03*
X168858D02*
D03*
D54*
X248594Y5802D02*
D03*
X235405D02*
D03*
X284405Y110000D02*
D03*
X297594D02*
D03*
X278976Y93869D02*
D03*
X292165D02*
D03*
X265811Y32285D02*
D03*
X279000D02*
D03*
X278095Y124000D02*
D03*
X264906D02*
D03*
X193095Y295710D02*
D03*
X179905D02*
D03*
X275689Y54500D02*
D03*
X262500D02*
D03*
D55*
X332500Y126252D02*
D03*
Y132748D02*
D03*
Y108248D02*
D03*
Y101752D02*
D03*
X127000Y54717D02*
D03*
Y61214D02*
D03*
X121471Y61214D02*
D03*
Y54717D02*
D03*
X259987Y37248D02*
D03*
Y30752D02*
D03*
X192987Y146088D02*
D03*
Y152584D02*
D03*
X213535Y148466D02*
D03*
Y141970D02*
D03*
X226561Y141768D02*
D03*
Y148264D02*
D03*
X202000Y39252D02*
D03*
Y45748D02*
D03*
X220500Y16752D02*
D03*
Y23248D02*
D03*
X125000Y88748D02*
D03*
Y82252D02*
D03*
X253000Y122252D02*
D03*
Y128748D02*
D03*
X312500Y230252D02*
D03*
Y236748D02*
D03*
X130500Y114252D02*
D03*
Y120748D02*
D03*
X259029Y122252D02*
D03*
X273000Y103748D02*
D03*
Y97252D02*
D03*
X259029Y128748D02*
D03*
X270500Y136918D02*
D03*
Y143414D02*
D03*
X251000Y143248D02*
D03*
Y136752D02*
D03*
X210737Y117248D02*
D03*
Y110752D02*
D03*
X186267Y252866D02*
D03*
Y246370D02*
D03*
X245000Y143248D02*
D03*
Y136752D02*
D03*
X169000Y84748D02*
D03*
X241731Y77248D02*
D03*
Y70752D02*
D03*
X169000Y78252D02*
D03*
X111133Y62542D02*
D03*
Y69038D02*
D03*
X119471Y88748D02*
D03*
Y82252D02*
D03*
X112500Y96248D02*
D03*
Y89752D02*
D03*
X242472Y100252D02*
D03*
Y106748D02*
D03*
X248000Y100252D02*
D03*
Y106748D02*
D03*
D56*
X298000Y198627D02*
D03*
Y214966D02*
D03*
Y229746D02*
D03*
Y246085D02*
D03*
X234500Y184839D02*
D03*
Y168500D02*
D03*
D57*
X152702Y4928D02*
D03*
X116875D02*
D03*
Y22645D02*
D03*
X152702D02*
D03*
X152827Y48500D02*
D03*
X117000D02*
D03*
X152827Y30784D02*
D03*
X117000D02*
D03*
D58*
X293248Y82000D02*
D03*
X286752D02*
D03*
X178752Y48500D02*
D03*
X185248D02*
D03*
X196748D02*
D03*
X190252D02*
D03*
X179748Y142000D02*
D03*
X173252D02*
D03*
X168748Y119500D02*
D03*
X162252D02*
D03*
X160297Y8487D02*
D03*
X166793D02*
D03*
X263500Y114000D02*
D03*
X269996D02*
D03*
X186973Y260000D02*
D03*
X180477D02*
D03*
X218248Y233487D02*
D03*
X211752D02*
D03*
X88432Y217500D02*
D03*
X81936D02*
D03*
X88432Y211500D02*
D03*
X81936D02*
D03*
X92248Y192000D02*
D03*
X85752D02*
D03*
X139182Y161500D02*
D03*
X132686D02*
D03*
X144752D02*
D03*
X151248D02*
D03*
X137752Y167487D02*
D03*
X144248D02*
D03*
X121252Y161034D02*
D03*
X127748D02*
D03*
X152748Y126308D02*
D03*
X146252D02*
D03*
X130748Y126308D02*
D03*
X124252D02*
D03*
X259748Y92500D02*
D03*
X253252D02*
D03*
D59*
X272000Y79000D02*
D03*
X279874D02*
D03*
X195937Y232000D02*
D03*
X188063D02*
D03*
Y224897D02*
D03*
X195937D02*
D03*
D60*
X186474Y153962D02*
D03*
Y146678D02*
D03*
X199500D02*
D03*
Y153962D02*
D03*
X207023Y149844D02*
D03*
Y142560D02*
D03*
X220048Y142358D02*
D03*
Y149642D02*
D03*
X215500Y51841D02*
D03*
Y44558D02*
D03*
X223000Y51642D02*
D03*
Y44358D02*
D03*
X181000Y120642D02*
D03*
Y113358D02*
D03*
X234000Y97642D02*
D03*
Y90358D02*
D03*
X172500Y93858D02*
D03*
Y101142D02*
D03*
X99253Y197858D02*
D03*
Y205142D02*
D03*
X179326Y246823D02*
D03*
Y254107D02*
D03*
X181500Y235642D02*
D03*
Y228358D02*
D03*
X125000Y224142D02*
D03*
Y216858D02*
D03*
X137513Y126013D02*
D03*
Y118729D02*
D03*
D61*
X218234Y114000D02*
D03*
X234376D02*
D03*
D62*
X226138Y95764D02*
D03*
Y91827D02*
D03*
Y89858D02*
D03*
Y85921D02*
D03*
Y83953D02*
D03*
Y81984D02*
D03*
Y80016D02*
D03*
Y78047D02*
D03*
Y76079D02*
D03*
Y74110D02*
D03*
Y72142D02*
D03*
Y70173D02*
D03*
Y68205D02*
D03*
Y66236D02*
D03*
X180862Y80016D02*
D03*
Y78047D02*
D03*
Y76079D02*
D03*
Y74110D02*
D03*
Y72142D02*
D03*
Y70173D02*
D03*
Y68205D02*
D03*
Y66236D02*
D03*
Y95764D02*
D03*
Y91827D02*
D03*
Y89858D02*
D03*
Y87890D02*
D03*
Y85921D02*
D03*
Y83953D02*
D03*
Y81984D02*
D03*
Y93795D02*
D03*
X226138Y87890D02*
D03*
Y93795D02*
D03*
D63*
X218264Y58362D02*
D03*
X216295D02*
D03*
X214327D02*
D03*
X212358D02*
D03*
X210390D02*
D03*
X208421D02*
D03*
X206453D02*
D03*
X204484D02*
D03*
X202516D02*
D03*
X200547D02*
D03*
X198579D02*
D03*
X196610D02*
D03*
X194642D02*
D03*
X192673D02*
D03*
X190705D02*
D03*
X188736D02*
D03*
X218264Y103638D02*
D03*
X216295D02*
D03*
X214327D02*
D03*
X212358D02*
D03*
X210390D02*
D03*
X208421D02*
D03*
X206453D02*
D03*
X204484D02*
D03*
X202516D02*
D03*
X200547D02*
D03*
X198579D02*
D03*
X194642D02*
D03*
X192673D02*
D03*
X190705D02*
D03*
X188736D02*
D03*
X196610D02*
D03*
D64*
X181307Y36771D02*
D03*
X194693D02*
D03*
X181307Y42479D02*
D03*
X194693D02*
D03*
D65*
X273000Y24689D02*
D03*
Y11500D02*
D03*
D66*
X193500Y178912D02*
D03*
X166000Y179412D02*
D03*
D67*
X184445Y203715D02*
D03*
X193500D02*
D03*
X202555D02*
D03*
X156945Y204216D02*
D03*
X166000D02*
D03*
X175055D02*
D03*
D68*
X143453Y61988D02*
D03*
X142488Y91047D02*
D03*
D69*
X146405Y56476D02*
D03*
X144437D02*
D03*
X142469D02*
D03*
X140500D02*
D03*
Y67500D02*
D03*
X142469D02*
D03*
X144437D02*
D03*
X146405D02*
D03*
X145441Y96559D02*
D03*
X143472D02*
D03*
X141504D02*
D03*
X139535D02*
D03*
Y85535D02*
D03*
X141504D02*
D03*
X143472D02*
D03*
X145441D02*
D03*
D70*
X137941Y59035D02*
D03*
Y61004D02*
D03*
Y62972D02*
D03*
Y64941D02*
D03*
X148965D02*
D03*
Y62972D02*
D03*
Y61004D02*
D03*
Y59035D02*
D03*
X148000Y88095D02*
D03*
Y90063D02*
D03*
Y92032D02*
D03*
Y94000D02*
D03*
X136976D02*
D03*
Y92032D02*
D03*
Y90063D02*
D03*
Y88095D02*
D03*
D71*
X212260Y182587D02*
D03*
X216000D02*
D03*
X219740D02*
D03*
Y193413D02*
D03*
X212260D02*
D03*
D72*
X217500Y212135D02*
D03*
X238169D02*
D03*
D73*
X312500Y217063D02*
D03*
Y224937D02*
D03*
D74*
X132500Y133971D02*
D03*
X137500Y153371D02*
D03*
X122500Y133971D02*
D03*
X127500D02*
D03*
X137500D02*
D03*
X142500D02*
D03*
X147500D02*
D03*
X152500D02*
D03*
Y153371D02*
D03*
X147500D02*
D03*
X142500D02*
D03*
X132500D02*
D03*
X127500D02*
D03*
X122500D02*
D03*
D75*
X250260Y114147D02*
D03*
X257740Y111588D02*
D03*
Y116706D02*
D03*
X264240Y143059D02*
D03*
Y137941D02*
D03*
X256760Y140500D02*
D03*
X254740Y74000D02*
D03*
X247260Y76559D02*
D03*
Y71441D02*
D03*
X259760Y100500D02*
D03*
X267240Y97941D02*
D03*
Y103059D02*
D03*
D76*
X183000Y282004D02*
D03*
Y269996D02*
D03*
D77*
X193489Y269516D02*
D03*
Y266957D02*
D03*
Y264398D02*
D03*
Y261839D02*
D03*
Y259279D02*
D03*
Y256720D02*
D03*
Y254161D02*
D03*
Y251602D02*
D03*
Y249043D02*
D03*
Y246484D02*
D03*
X216718Y269516D02*
D03*
Y266957D02*
D03*
Y264398D02*
D03*
Y261839D02*
D03*
Y259279D02*
D03*
Y256720D02*
D03*
Y254161D02*
D03*
Y251602D02*
D03*
Y249043D02*
D03*
Y246484D02*
D03*
D78*
X205103Y258000D02*
D03*
D79*
X94772Y228000D02*
D03*
Y218000D02*
D03*
Y213000D02*
D03*
X116228Y228000D02*
D03*
Y218000D02*
D03*
Y213000D02*
D03*
Y223000D02*
D03*
X94772D02*
D03*
D80*
X97206Y241151D02*
D03*
X113544D02*
D03*
D81*
X92740Y197547D02*
D03*
X85260D02*
D03*
X89000Y205500D02*
D03*
D82*
X48299Y167500D02*
D03*
X35701D02*
D03*
D83*
X227500Y253162D02*
D03*
Y265761D02*
D03*
D84*
X259907Y278633D02*
D03*
Y241231D02*
D03*
D85*
X90646Y84500D02*
D03*
Y74500D02*
D03*
Y64500D02*
D03*
Y94500D02*
D03*
Y104500D02*
D03*
X36354Y84500D02*
D03*
Y74500D02*
D03*
Y64500D02*
D03*
Y94500D02*
D03*
Y104500D02*
D03*
D86*
X346500Y123500D02*
D03*
Y91500D02*
D03*
X294500Y170695D02*
D03*
Y139407D02*
D03*
X319500Y171000D02*
D03*
X17500Y190394D02*
D03*
Y180552D02*
D03*
X16500Y95917D02*
D03*
Y63657D02*
D03*
D87*
X346500Y133343D02*
D03*
Y101342D02*
D03*
X294500Y180538D02*
D03*
Y149249D02*
D03*
X319500Y180842D02*
D03*
X17500Y200237D02*
D03*
X16500Y105759D02*
D03*
Y73500D02*
D03*
D88*
X315500Y149500D02*
D03*
X288505Y73000D02*
D03*
X194597Y137619D02*
D03*
X207896Y133500D02*
D03*
X235500Y142000D02*
D03*
X174500Y133000D02*
D03*
X312500Y205500D02*
D03*
X306500Y38500D02*
D03*
X162500Y133500D02*
D03*
X171500Y226000D02*
D03*
X313500Y253500D02*
D03*
X259500Y293500D02*
D03*
X102000Y85500D02*
D03*
Y57500D02*
D03*
D89*
X288048Y8105D02*
D03*
Y18105D02*
D03*
Y28105D02*
D03*
Y38105D02*
D03*
Y48105D02*
D03*
X44079Y134000D02*
D03*
X54000D02*
D03*
Y154130D02*
D03*
X44000D02*
D03*
X34000Y154000D02*
D03*
Y134000D02*
D03*
X14000Y154000D02*
D03*
Y134000D02*
D03*
X306548Y110829D02*
D03*
Y60829D02*
D03*
Y70829D02*
D03*
Y80829D02*
D03*
Y100829D02*
D03*
Y90829D02*
D03*
D90*
X288048Y58105D02*
D03*
X306548Y50829D02*
D03*
D91*
X351000Y16185D02*
D03*
X16295Y286500D02*
D03*
X351000D02*
D03*
X16295Y16185D02*
D03*
D92*
X253670Y160611D02*
D03*
D93*
X273355D02*
D03*
X263513D02*
D03*
D94*
X148461Y258500D02*
D03*
X62039Y258461D02*
D03*
D95*
X165921Y275961D02*
D03*
X148461Y241039D02*
D03*
X165921Y258500D02*
D03*
Y241039D02*
D03*
X131000D02*
D03*
Y258500D02*
D03*
X148461Y275961D02*
D03*
X131000D02*
D03*
X79500Y275921D02*
D03*
X62039Y241000D02*
D03*
X79500Y258461D02*
D03*
Y241000D02*
D03*
X44579D02*
D03*
Y258461D02*
D03*
X62039Y275921D02*
D03*
X44579D02*
D03*
D96*
X213000Y6000D02*
D03*
X251500Y20000D02*
D03*
X232000Y20802D02*
D03*
X254500Y5500D02*
D03*
X332500Y114000D02*
D03*
X288000Y124500D02*
D03*
X275500Y114000D02*
D03*
X271000Y124500D02*
D03*
X161000Y35500D02*
D03*
X160500Y45000D02*
D03*
X236446Y76898D02*
D03*
X262500Y77000D02*
D03*
X297500Y77500D02*
D03*
X224000Y32500D02*
D03*
X219000Y37000D02*
D03*
X224798Y131644D02*
D03*
X245028Y120000D02*
D03*
X245500Y89500D02*
D03*
X223000Y169000D02*
D03*
X219749Y193422D02*
D03*
X231973Y81122D02*
D03*
X262789Y108334D02*
D03*
X189000Y95500D02*
D03*
X254000Y102000D02*
D03*
X280000Y143000D02*
D03*
X200737Y244000D02*
D03*
X187000Y68500D02*
D03*
X165000Y50000D02*
D03*
X186856Y81687D02*
D03*
X162500Y80000D02*
D03*
X149500Y167000D02*
D03*
X232500Y219500D02*
D03*
Y204000D02*
D03*
X292000Y249500D02*
D03*
X277000D02*
D03*
X247500D02*
D03*
Y234500D02*
D03*
X262500Y219500D02*
D03*
X247500Y204000D02*
D03*
X262500D02*
D03*
X277500D02*
D03*
X305500Y249500D02*
D03*
X278000Y188500D02*
D03*
X247500D02*
D03*
X155500Y212000D02*
D03*
X155397Y204519D02*
D03*
X143500Y204500D02*
D03*
X155000Y81500D02*
D03*
X133000Y59500D02*
D03*
X116000Y54000D02*
D03*
X131500Y87000D02*
D03*
X120000Y75500D02*
D03*
X184000Y30500D02*
D03*
X127500Y99000D02*
D03*
X162500Y220000D02*
D03*
X196234Y218829D02*
D03*
X204935Y257894D02*
D03*
X209500Y236500D02*
D03*
X209000Y273000D02*
D03*
X209434Y264496D02*
D03*
X200773Y251504D02*
D03*
X209434D02*
D03*
X200773Y264496D02*
D03*
X183000Y282004D02*
D03*
X232000Y289000D02*
D03*
Y297000D02*
D03*
X199500Y153962D02*
D03*
X184500Y135000D02*
D03*
X181000Y126000D02*
D03*
X193500Y79500D02*
D03*
X160500Y66500D02*
D03*
X161437Y59425D02*
D03*
X155500Y62102D02*
D03*
X155000Y55000D02*
D03*
X102000Y168000D02*
D03*
X180000Y152500D02*
D03*
X136500Y222500D02*
D03*
X98000Y191500D02*
D03*
X191500Y86000D02*
D03*
X187000Y89500D02*
D03*
X224358Y243000D02*
D03*
X232000Y280500D02*
D03*
X224000Y297000D02*
D03*
X224500Y289000D02*
D03*
X216500D02*
D03*
Y297000D02*
D03*
X209000Y289000D02*
D03*
X200500Y297000D02*
D03*
X209000D02*
D03*
Y281000D02*
D03*
X200500D02*
D03*
X209500Y244000D02*
D03*
X93000Y255000D02*
D03*
X99500D02*
D03*
X93000Y261500D02*
D03*
X99500D02*
D03*
X93000Y267500D02*
D03*
X99500D02*
D03*
X93000Y274000D02*
D03*
X99500D02*
D03*
X93000Y280000D02*
D03*
X99500D02*
D03*
X117000Y255000D02*
D03*
X110500D02*
D03*
X117000Y261500D02*
D03*
X110500D02*
D03*
X117000Y267500D02*
D03*
X110500D02*
D03*
X117000Y274000D02*
D03*
X110500D02*
D03*
X117000Y280000D02*
D03*
X110500D02*
D03*
X173500Y6000D02*
D03*
X144500Y74000D02*
D03*
X183000Y188500D02*
D03*
X135000Y212000D02*
D03*
Y204500D02*
D03*
X126500D02*
D03*
X193500Y170500D02*
D03*
X166000Y171000D02*
D03*
X247500Y219500D02*
D03*
X75000Y217000D02*
D03*
X144000Y142925D02*
D03*
X240753Y94113D02*
D03*
X219413Y91000D02*
D03*
X211000Y77500D02*
D03*
X232537Y73000D02*
D03*
X110500Y130500D02*
D03*
X145900Y118978D02*
D03*
X215000Y228000D02*
D03*
X184500Y16500D02*
D03*
Y22000D02*
D03*
X168068Y21407D02*
D03*
X161000Y21500D02*
D03*
X212500Y33500D02*
D03*
X309500Y194000D02*
D03*
X248000Y95000D02*
D03*
X88189Y224642D02*
D03*
X262500Y188500D02*
D03*
Y249500D02*
D03*
X277500Y219500D02*
D03*
X262500Y234500D02*
D03*
X277000D02*
D03*
X266500Y24500D02*
D03*
X188000Y5500D02*
D03*
X279000Y39500D02*
D03*
X238000Y48500D02*
D03*
X206426Y87574D02*
D03*
X230500Y51500D02*
D03*
X203000Y64500D02*
D03*
X252728Y49666D02*
D03*
X164587Y98087D02*
D03*
X135000Y110000D02*
D03*
X143000Y110500D02*
D03*
X165000Y105000D02*
D03*
X218500Y156000D02*
D03*
X132000Y167972D02*
D03*
M02*
