G04*
G04 #@! TF.GenerationSoftware,Altium Limited,Altium Designer,21.2.0 (30)*
G04*
G04 Layer_Physical_Order=2*
G04 Layer_Color=32768*
%FSLAX25Y25*%
%MOIN*%
G70*
G04*
G04 #@! TF.SameCoordinates,67EC13EC-3D0F-47E5-A8FF-4F5FDFC94078*
G04*
G04*
G04 #@! TF.FilePolarity,Negative*
G04*
G01*
G75*
%ADD12C,0.01000*%
%ADD71C,0.04000*%
%ADD75C,0.19748*%
%ADD76C,0.11283*%
%ADD77C,0.07937*%
G04:AMPARAMS|DCode=78|XSize=99.37mil|YSize=99.37mil|CornerRadius=0mil|HoleSize=0mil|Usage=FLASHONLY|Rotation=0.000|XOffset=0mil|YOffset=0mil|HoleType=Round|Shape=Relief|Width=10mil|Gap=10mil|Entries=4|*
%AMTHD78*
7,0,0,0.09937,0.07937,0.01000,45*
%
%ADD78THD78*%
%ADD79C,0.09000*%
%ADD80C,0.07150*%
G04:AMPARAMS|DCode=81|XSize=95.433mil|YSize=95.433mil|CornerRadius=0mil|HoleSize=0mil|Usage=FLASHONLY|Rotation=0.000|XOffset=0mil|YOffset=0mil|HoleType=Round|Shape=Relief|Width=10mil|Gap=10mil|Entries=4|*
%AMTHD81*
7,0,0,0.09543,0.07543,0.01000,45*
%
%ADD81THD81*%
%ADD82C,0.07543*%
G04:AMPARAMS|DCode=83|XSize=110mil|YSize=110mil|CornerRadius=0mil|HoleSize=0mil|Usage=FLASHONLY|Rotation=0.000|XOffset=0mil|YOffset=0mil|HoleType=Round|Shape=Relief|Width=10mil|Gap=10mil|Entries=4|*
%AMTHD83*
7,0,0,0.11000,0.09000,0.01000,45*
%
%ADD83THD83*%
%ADD84C,0.20535*%
%ADD85C,0.05378*%
G04:AMPARAMS|DCode=86|XSize=73.779mil|YSize=73.779mil|CornerRadius=0mil|HoleSize=0mil|Usage=FLASHONLY|Rotation=0.000|XOffset=0mil|YOffset=0mil|HoleType=Round|Shape=Relief|Width=10mil|Gap=10mil|Entries=4|*
%AMTHD86*
7,0,0,0.07378,0.05378,0.01000,45*
%
%ADD86THD86*%
%ADD87C,0.05969*%
%ADD88C,0.06800*%
G04:AMPARAMS|DCode=89|XSize=79.685mil|YSize=79.685mil|CornerRadius=0mil|HoleSize=0mil|Usage=FLASHONLY|Rotation=0.000|XOffset=0mil|YOffset=0mil|HoleType=Round|Shape=Relief|Width=10mil|Gap=10mil|Entries=4|*
%AMTHD89*
7,0,0,0.07969,0.05969,0.01000,45*
%
%ADD89THD89*%
D12*
X111500Y500D02*
X111500Y123500D01*
X500D02*
X111500D01*
D71*
X-0Y303000D02*
X0Y0D01*
X-0Y303000D02*
X366500D01*
Y0D02*
Y303000D01*
X0Y0D02*
X366500D01*
D75*
X62039Y258461D02*
D03*
X148461Y258500D02*
D03*
D76*
X79500Y275921D02*
D03*
X62039Y241000D02*
D03*
X79500Y258461D02*
D03*
Y241000D02*
D03*
X44579D02*
D03*
Y258461D02*
D03*
X62039Y275921D02*
D03*
X44579D02*
D03*
X165921Y275961D02*
D03*
X148461Y241039D02*
D03*
X165921Y258500D02*
D03*
Y241039D02*
D03*
X131000D02*
D03*
Y258500D02*
D03*
X148461Y275961D02*
D03*
X131000D02*
D03*
D77*
X26500Y178500D02*
D03*
Y188342D02*
D03*
X241972Y14000D02*
D03*
X251815D02*
D03*
X271500D02*
D03*
X293815D02*
D03*
X303658D02*
D03*
X323342D02*
D03*
X344500Y181158D02*
D03*
X316000Y288000D02*
D03*
X344500Y213500D02*
D03*
Y223342D02*
D03*
X315500Y171658D02*
D03*
Y181500D02*
D03*
X344500Y255842D02*
D03*
Y246000D02*
D03*
Y158500D02*
D03*
Y138815D02*
D03*
X16500Y105759D02*
D03*
Y95917D02*
D03*
Y63657D02*
D03*
Y73500D02*
D03*
D78*
X26500Y198185D02*
D03*
X261658Y14000D02*
D03*
X313500D02*
D03*
X344500Y191000D02*
D03*
X306157Y288000D02*
D03*
X344500Y148658D02*
D03*
D79*
X267500Y134500D02*
D03*
X320500Y135000D02*
D03*
X273000Y77000D02*
D03*
X282500Y121500D02*
D03*
Y134500D02*
D03*
X297500Y121500D02*
D03*
Y135000D02*
D03*
X267500Y121500D02*
D03*
X321000Y150500D02*
D03*
D80*
X54079Y132870D02*
D03*
X64000D02*
D03*
Y153000D02*
D03*
X54000D02*
D03*
X44000Y152870D02*
D03*
Y132870D02*
D03*
X24000Y152870D02*
D03*
Y132870D02*
D03*
D81*
X344000Y115000D02*
D03*
D82*
Y65000D02*
D03*
Y75000D02*
D03*
Y85000D02*
D03*
Y105000D02*
D03*
Y95000D02*
D03*
Y55000D02*
D03*
D83*
X297000Y151500D02*
D03*
D84*
X351000Y16185D02*
D03*
X16295Y286500D02*
D03*
X351000D02*
D03*
X16295Y16185D02*
D03*
D85*
X138500Y198000D02*
D03*
X204500Y193500D02*
D03*
Y198000D02*
D03*
X82500Y215000D02*
D03*
X95500Y184500D02*
D03*
X133500Y60000D02*
D03*
X132500Y88500D02*
D03*
X145925Y146112D02*
D03*
X181000Y113500D02*
D03*
X282500Y196500D02*
D03*
X252500Y167000D02*
D03*
X309500Y94500D02*
D03*
X172195Y199263D02*
D03*
X169000Y203000D02*
D03*
X175500D02*
D03*
X169000Y182000D02*
D03*
X175000Y191500D02*
D03*
X222500Y58500D02*
D03*
X185500Y30000D02*
D03*
X170000Y52000D02*
D03*
X148500Y80000D02*
D03*
X142500Y110000D02*
D03*
X165500Y94500D02*
D03*
X183000Y11000D02*
D03*
X251000Y51500D02*
D03*
X303500Y94500D02*
D03*
X308500Y119000D02*
D03*
X131500Y207500D02*
D03*
X226000Y165500D02*
D03*
X231500Y163000D02*
D03*
X235500Y166500D02*
D03*
X173000Y129500D02*
D03*
X241500Y168000D02*
D03*
X179500Y156500D02*
D03*
X193000Y157500D02*
D03*
X216286Y155652D02*
D03*
X153500Y146500D02*
D03*
X223500Y223000D02*
D03*
X286000Y221000D02*
D03*
X185000Y105000D02*
D03*
X200000Y65000D02*
D03*
X194500Y63500D02*
D03*
X191500Y78000D02*
D03*
X186876Y89624D02*
D03*
Y84624D02*
D03*
X186500Y95000D02*
D03*
X186376Y79624D02*
D03*
X206500Y98000D02*
D03*
X215000D02*
D03*
X168500Y28000D02*
D03*
X225571Y5576D02*
D03*
X295500Y46000D02*
D03*
X292000Y182000D02*
D03*
X291000Y243500D02*
D03*
X295000Y204000D02*
D03*
X234000Y102500D02*
D03*
X224500Y33500D02*
D03*
X172000Y8000D02*
D03*
X154500Y55000D02*
D03*
X156876Y59124D02*
D03*
X157500Y63500D02*
D03*
X165000Y79000D02*
D03*
D86*
X158000Y212500D02*
D03*
X103500Y191000D02*
D03*
X213000Y222500D02*
D03*
X249000Y162500D02*
D03*
X115500Y157500D02*
D03*
X143702Y139298D02*
D03*
X161500Y119000D02*
D03*
X192000Y133000D02*
D03*
X249000Y79000D02*
D03*
X238500Y131000D02*
D03*
X220500Y159500D02*
D03*
X176000Y161500D02*
D03*
X194500Y166500D02*
D03*
X142488Y91047D02*
D03*
X271000Y197000D02*
D03*
X325500Y41000D02*
D03*
X293000D02*
D03*
X265500Y41500D02*
D03*
X246149Y40690D02*
D03*
X289000Y186000D02*
D03*
X298500Y198000D02*
D03*
X321000Y229000D02*
D03*
X317500Y267000D02*
D03*
X304000Y232500D02*
D03*
X288500Y249500D02*
D03*
X231000Y243500D02*
D03*
X217500Y196500D02*
D03*
X223000D02*
D03*
Y203500D02*
D03*
X217500D02*
D03*
X196500Y193500D02*
D03*
X191000D02*
D03*
X196500Y199500D02*
D03*
X191000D02*
D03*
X233500Y51000D02*
D03*
X163500Y51500D02*
D03*
X143438Y62003D02*
D03*
X157000Y79500D02*
D03*
X125500Y75500D02*
D03*
X132000Y110000D02*
D03*
X165500Y102500D02*
D03*
X183000Y19000D02*
D03*
X254000Y57000D02*
D03*
X117000Y180500D02*
D03*
X159000Y182000D02*
D03*
X138500Y187000D02*
D03*
X131500Y214500D02*
D03*
X86000Y225500D02*
D03*
X72500Y190500D02*
D03*
X192000Y83500D02*
D03*
Y90000D02*
D03*
X240000Y91500D02*
D03*
X172500Y20000D02*
D03*
D87*
X97000Y171500D02*
D03*
D88*
X255500Y191000D02*
D03*
Y199000D02*
D03*
Y207000D02*
D03*
X263500Y191000D02*
D03*
X247500D02*
D03*
X263500Y199000D02*
D03*
X247500D02*
D03*
X263500Y207000D02*
D03*
X247500D02*
D03*
X110000Y255500D02*
D03*
X118000Y256000D02*
D03*
X118500Y262500D02*
D03*
X110500Y263000D02*
D03*
Y270000D02*
D03*
X118500Y269500D02*
D03*
X118000Y278000D02*
D03*
X110500D02*
D03*
X100000Y255500D02*
D03*
X92500Y255000D02*
D03*
Y263000D02*
D03*
X100000Y262500D02*
D03*
X100500Y270500D02*
D03*
X92500Y271000D02*
D03*
X100500Y278000D02*
D03*
X93000Y278500D02*
D03*
D89*
X200773Y264496D02*
D03*
X209434Y251504D02*
D03*
X200773D02*
D03*
X209434Y264496D02*
D03*
M02*
