G04*
G04 #@! TF.GenerationSoftware,Altium Limited,Altium Designer,21.2.0 (30)*
G04*
G04 Layer_Physical_Order=4*
G04 Layer_Color=16711680*
%FSLAX25Y25*%
%MOIN*%
G70*
G04*
G04 #@! TF.SameCoordinates,67EC13EC-3D0F-47E5-A8FF-4F5FDFC94078*
G04*
G04*
G04 #@! TF.FilePolarity,Positive*
G04*
G01*
G75*
%ADD12C,0.01000*%
%ADD41R,0.03937X0.05315*%
%ADD57C,0.06000*%
%ADD58C,0.12598*%
%ADD59O,0.07874X0.06693*%
G04:AMPARAMS|DCode=60|XSize=66.93mil|YSize=78.74mil|CornerRadius=16.73mil|HoleSize=0mil|Usage=FLASHONLY|Rotation=270.000|XOffset=0mil|YOffset=0mil|HoleType=Round|Shape=RoundedRectangle|*
%AMROUNDEDRECTD60*
21,1,0.06693,0.04528,0,0,270.0*
21,1,0.03347,0.07874,0,0,270.0*
1,1,0.03346,-0.02264,-0.01673*
1,1,0.03346,-0.02264,0.01673*
1,1,0.03346,0.02264,0.01673*
1,1,0.03346,0.02264,-0.01673*
%
%ADD60ROUNDEDRECTD60*%
%ADD61C,0.10000*%
%ADD62O,0.06693X0.07874*%
G04:AMPARAMS|DCode=63|XSize=66.93mil|YSize=78.74mil|CornerRadius=16.73mil|HoleSize=0mil|Usage=FLASHONLY|Rotation=180.000|XOffset=0mil|YOffset=0mil|HoleType=Round|Shape=RoundedRectangle|*
%AMROUNDEDRECTD63*
21,1,0.06693,0.04528,0,0,180.0*
21,1,0.03347,0.07874,0,0,180.0*
1,1,0.03346,-0.01673,0.02264*
1,1,0.03346,0.01673,0.02264*
1,1,0.03346,0.01673,-0.02264*
1,1,0.03346,-0.01673,-0.02264*
%
%ADD63ROUNDEDRECTD63*%
%ADD64C,0.05906*%
%ADD65R,0.05906X0.05906*%
%ADD66C,0.23622*%
%ADD67C,0.05000*%
%ADD68C,0.03150*%
%ADD69C,0.01500*%
%ADD70C,0.02000*%
%ADD71C,0.04000*%
%ADD73C,0.02559*%
%ADD74C,0.03937*%
%ADD92R,0.12598X0.06890*%
%ADD93R,0.03740X0.06890*%
%ADD94R,0.18504X0.12992*%
G36*
X173480Y233138D02*
X106762D01*
Y283639D01*
X173480D01*
Y233138D01*
D02*
G37*
G36*
X103262D02*
X36262D01*
Y283639D01*
X103262D01*
Y233138D01*
D02*
G37*
G36*
X239500Y231500D02*
X180000D01*
Y300971D01*
X239500D01*
Y231500D01*
D02*
G37*
G36*
X199500Y191017D02*
X199398D01*
Y182552D01*
X199500D01*
Y175000D01*
X187500D01*
Y215500D01*
X199500D01*
Y191017D01*
D02*
G37*
G36*
X213480Y205500D02*
Y174500D01*
X200787Y174500D01*
X200520Y175000D01*
Y182552D01*
X200500Y182651D01*
Y190918D01*
X200520Y191017D01*
Y205500D01*
X213480Y205500D01*
D02*
G37*
G36*
X226500Y174500D02*
X214500D01*
Y215000D01*
X226500D01*
Y174500D01*
D02*
G37*
G36*
X179000Y191000D02*
X186000D01*
Y174653D01*
X185538Y174462D01*
X185500Y174500D01*
X164500D01*
Y207500D01*
X179000D01*
Y191000D01*
D02*
G37*
%LPC*%
G36*
X149335Y267374D02*
X147587D01*
X145872Y267033D01*
X144257Y266364D01*
X142804Y265393D01*
X141568Y264157D01*
X140597Y262703D01*
X139928Y261088D01*
X139587Y259374D01*
Y257626D01*
X139928Y255911D01*
X140597Y254297D01*
X141568Y252843D01*
X142804Y251607D01*
X144257Y250636D01*
X145872Y249967D01*
X147587Y249626D01*
X149335D01*
X151049Y249967D01*
X152664Y250636D01*
X154118Y251607D01*
X155353Y252843D01*
X156325Y254297D01*
X156994Y255911D01*
X157335Y257626D01*
Y259374D01*
X156994Y261088D01*
X156325Y262703D01*
X155353Y264157D01*
X154118Y265393D01*
X152664Y266364D01*
X151049Y267033D01*
X149335Y267374D01*
D02*
G37*
G36*
X62913Y267335D02*
X61165D01*
X59451Y266994D01*
X57836Y266325D01*
X56383Y265353D01*
X55146Y264118D01*
X54175Y262664D01*
X53506Y261049D01*
X53165Y259335D01*
Y257587D01*
X53506Y255872D01*
X54175Y254257D01*
X55146Y252804D01*
X56383Y251568D01*
X57836Y250597D01*
X59451Y249928D01*
X61165Y249587D01*
X62913D01*
X64628Y249928D01*
X66243Y250597D01*
X67696Y251568D01*
X68932Y252804D01*
X69903Y254257D01*
X70572Y255872D01*
X70913Y257587D01*
Y259335D01*
X70572Y261049D01*
X69903Y262664D01*
X68932Y264118D01*
X67696Y265353D01*
X66243Y266325D01*
X64628Y266994D01*
X62913Y267335D01*
D02*
G37*
%LPD*%
D12*
X138500Y216500D02*
X148461Y226461D01*
X138500Y198000D02*
Y216500D01*
X252922Y167000D02*
X253637Y167715D01*
X253715D02*
X282500Y196500D01*
X252500Y167000D02*
X252922D01*
X253637Y167715D02*
X253715D01*
X206500Y79431D02*
Y98000D01*
X191720Y64651D02*
X206500Y79431D01*
X168500Y28000D02*
Y41431D01*
X191720Y64651D02*
Y64651D01*
X168500Y41431D02*
X191720Y64651D01*
X209279Y95221D02*
X216151D01*
X206500Y98000D02*
X209279Y95221D01*
X183500Y10000D02*
X190703Y2797D01*
X270297D01*
X278750Y11250D01*
Y21250D01*
X299500Y51500D02*
X303500Y55500D01*
X251000Y51500D02*
X299500D01*
X316000Y119000D02*
X335815Y138815D01*
X344500D01*
X308500Y119000D02*
X316000D01*
X321500Y107500D02*
X344000Y85000D01*
X216151Y95221D02*
X228431Y107500D01*
X321500D01*
X148461Y226461D02*
Y241039D01*
X177000Y129500D02*
X213000Y165500D01*
X226000D01*
X173000Y129500D02*
X177000D01*
X229000Y169500D02*
X231500Y167000D01*
Y163000D02*
Y167000D01*
X209000Y169500D02*
X229000D01*
X206069Y166569D02*
X209000Y169500D01*
X206000Y166569D02*
X206069D01*
X188961Y154000D02*
X193431D01*
X206000Y166569D01*
X179500Y156500D02*
X186461D01*
X188961Y154000D01*
X206500Y171000D02*
X231000D01*
X235500Y166500D01*
X193000Y157500D02*
X206500Y171000D01*
X240754Y166815D02*
Y166832D01*
X232277Y158339D02*
Y158339D01*
X241500Y167578D02*
Y168000D01*
X232277Y158339D02*
X240754Y166815D01*
Y166832D02*
X241500Y167578D01*
X223353Y149414D02*
X232277Y158339D01*
X216286Y155652D02*
X222524Y149414D01*
X223353D01*
X215000Y98000D02*
Y113692D01*
X283221Y181913D02*
X291913D01*
X215000Y113692D02*
X283221Y181913D01*
X220000Y219500D02*
X223500Y223000D01*
X167000Y219500D02*
X220000D01*
X162500Y215000D02*
X167000Y219500D01*
X162500Y155500D02*
Y215000D01*
X153500Y146500D02*
X162500Y155500D01*
X286000Y206000D02*
Y221000D01*
X185000Y105000D02*
X286000Y206000D01*
X200000Y65000D02*
X219000Y46000D01*
X295500D01*
X194500Y36648D02*
X225571Y5576D01*
X194500Y36648D02*
Y63500D01*
X196000Y98500D02*
X294842Y197342D01*
Y203842D01*
X196000Y82500D02*
Y98500D01*
X291913Y181913D02*
X292000Y182000D01*
X186500Y95000D02*
X291000Y199500D01*
X191500Y78000D02*
X196000Y82500D01*
X161376Y59124D02*
X186876Y84624D01*
X156876Y59124D02*
X161376D01*
X294842Y203842D02*
X295000Y204000D01*
X161752Y55000D02*
X186376Y79624D01*
X154500Y55000D02*
X161752D01*
X160752Y63500D02*
X186876Y89624D01*
X157500Y63500D02*
X160752D01*
X291000Y199500D02*
Y243500D01*
X224500Y33078D02*
X241972Y15606D01*
Y14000D02*
Y15606D01*
X224500Y33078D02*
Y33500D01*
D41*
X196761Y178000D02*
D03*
X204044D02*
D03*
X183358D02*
D03*
X190642D02*
D03*
X217597D02*
D03*
X210314D02*
D03*
X231000D02*
D03*
X223716D02*
D03*
D57*
X62039Y258461D02*
D03*
X148461Y258500D02*
D03*
D58*
X79500Y275921D02*
D03*
X62039Y241000D02*
D03*
X79500Y258461D02*
D03*
Y241000D02*
D03*
X44579D02*
D03*
Y258461D02*
D03*
X62039Y275921D02*
D03*
X44579D02*
D03*
X165921Y275961D02*
D03*
X148461Y241039D02*
D03*
X165921Y258500D02*
D03*
Y241039D02*
D03*
X131000D02*
D03*
Y258500D02*
D03*
X148461Y275961D02*
D03*
X131000D02*
D03*
D59*
X26500Y178500D02*
D03*
Y188342D02*
D03*
X344500Y191000D02*
D03*
Y223342D02*
D03*
X315500Y181500D02*
D03*
X344500Y255842D02*
D03*
Y138815D02*
D03*
Y148658D02*
D03*
X16500Y95917D02*
D03*
Y63657D02*
D03*
D60*
X26500Y198185D02*
D03*
X344500Y181158D02*
D03*
Y213500D02*
D03*
X315500Y171658D02*
D03*
X344500Y246000D02*
D03*
Y158500D02*
D03*
X16500Y105759D02*
D03*
Y73500D02*
D03*
D61*
X267500Y134500D02*
D03*
X320500Y135000D02*
D03*
X273000Y77000D02*
D03*
X282500Y121500D02*
D03*
Y134500D02*
D03*
X297500Y121500D02*
D03*
X297000Y151500D02*
D03*
X297500Y135000D02*
D03*
X267500Y121500D02*
D03*
X321000Y150500D02*
D03*
D62*
X241972Y14000D02*
D03*
X251815D02*
D03*
X261658D02*
D03*
X293815D02*
D03*
X303658D02*
D03*
X313500D02*
D03*
X306157Y288000D02*
D03*
D63*
X271500Y14000D02*
D03*
X323342D02*
D03*
X316000Y288000D02*
D03*
D64*
X54079Y132870D02*
D03*
X64000D02*
D03*
Y153000D02*
D03*
X54000D02*
D03*
X44000Y152870D02*
D03*
Y132870D02*
D03*
X24000Y152870D02*
D03*
Y132870D02*
D03*
X344000Y115000D02*
D03*
Y65000D02*
D03*
Y75000D02*
D03*
Y85000D02*
D03*
Y105000D02*
D03*
Y95000D02*
D03*
D65*
Y55000D02*
D03*
D66*
X351000Y16185D02*
D03*
X16295Y286500D02*
D03*
X351000D02*
D03*
X16295Y16185D02*
D03*
D67*
X255500Y191000D02*
D03*
Y199000D02*
D03*
Y207000D02*
D03*
X263500Y191000D02*
D03*
X247500D02*
D03*
X263500Y199000D02*
D03*
X247500D02*
D03*
X263500Y207000D02*
D03*
X247500D02*
D03*
X110000Y255500D02*
D03*
X118000Y256000D02*
D03*
X118500Y262500D02*
D03*
X110500Y263000D02*
D03*
Y270000D02*
D03*
X118500Y269500D02*
D03*
X118000Y278000D02*
D03*
X110500D02*
D03*
X100000Y255500D02*
D03*
X92500Y255000D02*
D03*
Y263000D02*
D03*
X100000Y262500D02*
D03*
X100500Y270500D02*
D03*
X92500Y271000D02*
D03*
X100500Y278000D02*
D03*
X93000Y278500D02*
D03*
D68*
X200773Y264496D02*
D03*
X209434Y251504D02*
D03*
X200773D02*
D03*
X209434Y264496D02*
D03*
D69*
X97000Y164746D02*
Y171500D01*
X90000Y159000D02*
X91254D01*
X97000Y164746D01*
X84378Y127000D02*
X90000Y132622D01*
D70*
X229555Y186284D02*
X231000Y184840D01*
Y183265D02*
Y184840D01*
X131000Y240520D02*
Y241039D01*
X64000Y132870D02*
X69760Y138630D01*
Y179279D01*
X131000Y240520D01*
X59949Y127000D02*
X84378D01*
X54079Y132870D02*
X59949Y127000D01*
D71*
X231000Y184840D02*
X232575Y183265D01*
X239765D02*
X247500Y191000D01*
X232575Y183265D02*
X239765D01*
X229555Y186284D02*
X231000Y184840D01*
X278750Y21250D02*
X281500Y24000D01*
X273437Y15937D02*
X278750Y21250D01*
X303500Y55500D02*
Y94500D01*
Y27000D02*
Y55500D01*
X323342Y14000D02*
Y24657D01*
X320999Y27000D02*
X323342Y24657D01*
X303500Y27000D02*
X320999D01*
X271500Y14591D02*
X272847Y15937D01*
X273437D01*
X271500Y14000D02*
Y14591D01*
X281500Y24000D02*
X300500D01*
X303500Y27000D01*
X231000Y178000D02*
Y183265D01*
D73*
X138500Y198000D02*
D03*
X158000Y212500D02*
D03*
X204500Y193500D02*
D03*
Y198000D02*
D03*
X82500Y215000D02*
D03*
X103500Y191000D02*
D03*
X95500Y184500D02*
D03*
X213000Y222500D02*
D03*
X249000Y162500D02*
D03*
X133500Y60000D02*
D03*
X132500Y88500D02*
D03*
X115500Y157500D02*
D03*
X145925Y146112D02*
D03*
X143702Y139298D02*
D03*
X161500Y119000D02*
D03*
X192000Y133000D02*
D03*
X181000Y113500D02*
D03*
X249000Y79000D02*
D03*
X238500Y131000D02*
D03*
X220500Y159500D02*
D03*
X176000Y161500D02*
D03*
X194500Y166500D02*
D03*
X142488Y91047D02*
D03*
X282500Y196500D02*
D03*
X252500Y167000D02*
D03*
X271000Y197000D02*
D03*
X325500Y41000D02*
D03*
X293000D02*
D03*
X265500Y41500D02*
D03*
X246149Y40690D02*
D03*
X289000Y186000D02*
D03*
X298500Y198000D02*
D03*
X321000Y229000D02*
D03*
X317500Y267000D02*
D03*
X304000Y232500D02*
D03*
X288500Y249500D02*
D03*
X231000Y243500D02*
D03*
X309500Y94500D02*
D03*
X172195Y199263D02*
D03*
X169000Y203000D02*
D03*
X217500Y196500D02*
D03*
X223000D02*
D03*
Y203500D02*
D03*
X217500D02*
D03*
X196500Y193500D02*
D03*
X191000D02*
D03*
X196500Y199500D02*
D03*
X191000D02*
D03*
X175500Y203000D02*
D03*
X169000Y182000D02*
D03*
X175000Y191500D02*
D03*
X233500Y51000D02*
D03*
X222500Y58500D02*
D03*
X185500Y30000D02*
D03*
X170000Y52000D02*
D03*
X163500Y51500D02*
D03*
X143438Y62003D02*
D03*
X157000Y79500D02*
D03*
X148500Y80000D02*
D03*
X125500Y75500D02*
D03*
X142500Y110000D02*
D03*
X132000D02*
D03*
X165500Y102500D02*
D03*
Y94500D02*
D03*
X183000Y19000D02*
D03*
Y11000D02*
D03*
X254000Y57000D02*
D03*
X251000Y51500D02*
D03*
X303500Y94500D02*
D03*
X308500Y119000D02*
D03*
X117000Y180500D02*
D03*
X159000Y182000D02*
D03*
X138500Y187000D02*
D03*
X131500Y207500D02*
D03*
Y214500D02*
D03*
X86000Y225500D02*
D03*
X72500Y190500D02*
D03*
X226000Y165500D02*
D03*
X231500Y163000D02*
D03*
X235500Y166500D02*
D03*
X173000Y129500D02*
D03*
X241500Y168000D02*
D03*
X179500Y156500D02*
D03*
X193000Y157500D02*
D03*
X216286Y155652D02*
D03*
X153500Y146500D02*
D03*
X223500Y223000D02*
D03*
X286000Y221000D02*
D03*
X185000Y105000D02*
D03*
X200000Y65000D02*
D03*
X194500Y63500D02*
D03*
X191500Y78000D02*
D03*
X186876Y89624D02*
D03*
Y84624D02*
D03*
X186500Y95000D02*
D03*
X186376Y79624D02*
D03*
X206500Y98000D02*
D03*
X215000D02*
D03*
X168500Y28000D02*
D03*
X225571Y5576D02*
D03*
X295500Y46000D02*
D03*
X192000Y83500D02*
D03*
Y90000D02*
D03*
X292000Y182000D02*
D03*
X291000Y243500D02*
D03*
X295000Y204000D02*
D03*
X240000Y91500D02*
D03*
X234000Y102500D02*
D03*
X224500Y33500D02*
D03*
X172500Y20000D02*
D03*
X172000Y8000D02*
D03*
X154500Y55000D02*
D03*
X156876Y59124D02*
D03*
X157500Y63500D02*
D03*
X165000Y79000D02*
D03*
D74*
X97000Y171500D02*
D03*
D92*
X193000Y211588D02*
D03*
X220500Y211088D02*
D03*
D93*
X183945Y186785D02*
D03*
X193000D02*
D03*
X202055D02*
D03*
X229555Y186284D02*
D03*
X220500D02*
D03*
X211445D02*
D03*
D94*
X90000Y132622D02*
D03*
Y159000D02*
D03*
M02*
