G04*
G04 #@! TF.GenerationSoftware,Altium Limited,Altium Designer,21.2.0 (30)*
G04*
G04 Layer_Color=255*
%FSLAX25Y25*%
%MOIN*%
G70*
G04*
G04 #@! TF.SameCoordinates,1A82DE82-DBE2-47DD-AFC6-AE7A396213A6*
G04*
G04*
G04 #@! TF.FilePolarity,Positive*
G04*
G01*
G75*
%ADD41R,0.03937X0.05315*%
%ADD57C,0.06000*%
%ADD58C,0.12598*%
%ADD59O,0.07874X0.06693*%
G04:AMPARAMS|DCode=60|XSize=66.93mil|YSize=78.74mil|CornerRadius=16.73mil|HoleSize=0mil|Usage=FLASHONLY|Rotation=270.000|XOffset=0mil|YOffset=0mil|HoleType=Round|Shape=RoundedRectangle|*
%AMROUNDEDRECTD60*
21,1,0.06693,0.04528,0,0,270.0*
21,1,0.03347,0.07874,0,0,270.0*
1,1,0.03346,-0.02264,-0.01673*
1,1,0.03346,-0.02264,0.01673*
1,1,0.03346,0.02264,0.01673*
1,1,0.03346,0.02264,-0.01673*
%
%ADD60ROUNDEDRECTD60*%
%ADD61C,0.10000*%
%ADD62O,0.06693X0.07874*%
G04:AMPARAMS|DCode=63|XSize=66.93mil|YSize=78.74mil|CornerRadius=16.73mil|HoleSize=0mil|Usage=FLASHONLY|Rotation=180.000|XOffset=0mil|YOffset=0mil|HoleType=Round|Shape=RoundedRectangle|*
%AMROUNDEDRECTD63*
21,1,0.06693,0.04528,0,0,180.0*
21,1,0.03347,0.07874,0,0,180.0*
1,1,0.03346,-0.01673,0.02264*
1,1,0.03346,0.01673,0.02264*
1,1,0.03346,0.01673,-0.02264*
1,1,0.03346,-0.01673,-0.02264*
%
%ADD63ROUNDEDRECTD63*%
%ADD64C,0.05906*%
%ADD65R,0.05906X0.05906*%
%ADD66C,0.23622*%
%ADD75R,0.12598X0.06890*%
%ADD76R,0.03740X0.06890*%
%ADD77R,0.18504X0.12992*%
D41*
X196761Y178000D02*
D03*
X204044D02*
D03*
X183358D02*
D03*
X190642D02*
D03*
X217597D02*
D03*
X210314D02*
D03*
X231000D02*
D03*
X223716D02*
D03*
D57*
X62039Y258461D02*
D03*
X148461Y258500D02*
D03*
D58*
X79500Y275921D02*
D03*
X62039Y241000D02*
D03*
X79500Y258461D02*
D03*
Y241000D02*
D03*
X44579D02*
D03*
Y258461D02*
D03*
X62039Y275921D02*
D03*
X44579D02*
D03*
X165921Y275961D02*
D03*
X148461Y241039D02*
D03*
X165921Y258500D02*
D03*
Y241039D02*
D03*
X131000D02*
D03*
Y258500D02*
D03*
X148461Y275961D02*
D03*
X131000D02*
D03*
D59*
X26500Y178500D02*
D03*
Y188342D02*
D03*
X344500Y191000D02*
D03*
Y223342D02*
D03*
X315500Y181500D02*
D03*
X344500Y255842D02*
D03*
Y138815D02*
D03*
Y148658D02*
D03*
X16500Y95917D02*
D03*
Y63657D02*
D03*
D60*
X26500Y198185D02*
D03*
X344500Y181158D02*
D03*
Y213500D02*
D03*
X315500Y171658D02*
D03*
X344500Y246000D02*
D03*
Y158500D02*
D03*
X16500Y105759D02*
D03*
Y73500D02*
D03*
D61*
X267500Y134500D02*
D03*
X320500Y135000D02*
D03*
X273000Y77000D02*
D03*
X282500Y121500D02*
D03*
Y134500D02*
D03*
X297500Y121500D02*
D03*
X297000Y151500D02*
D03*
X297500Y135000D02*
D03*
X267500Y121500D02*
D03*
X321000Y150500D02*
D03*
D62*
X241972Y14000D02*
D03*
X251815D02*
D03*
X261658D02*
D03*
X293815D02*
D03*
X303658D02*
D03*
X313500D02*
D03*
X306157Y288000D02*
D03*
D63*
X271500Y14000D02*
D03*
X323342D02*
D03*
X316000Y288000D02*
D03*
D64*
X54079Y132870D02*
D03*
X64000D02*
D03*
Y153000D02*
D03*
X54000D02*
D03*
X44000Y152870D02*
D03*
Y132870D02*
D03*
X24000Y152870D02*
D03*
Y132870D02*
D03*
X344000Y115000D02*
D03*
Y65000D02*
D03*
Y75000D02*
D03*
Y85000D02*
D03*
Y105000D02*
D03*
Y95000D02*
D03*
D65*
Y55000D02*
D03*
D66*
X351000Y16185D02*
D03*
X16295Y286500D02*
D03*
X351000D02*
D03*
X16295Y16185D02*
D03*
D75*
X193000Y211588D02*
D03*
X220500Y211088D02*
D03*
D76*
X183945Y186785D02*
D03*
X193000D02*
D03*
X202055D02*
D03*
X229555Y186284D02*
D03*
X220500D02*
D03*
X211445D02*
D03*
D77*
X90000Y132622D02*
D03*
Y159000D02*
D03*
M02*
