M48
;Layer_Color=9474304
;FILE_FORMAT=2:5
INCH,TZ
;TYPE=PLATED
T1F00S00C0.01968
T2F00S00C0.03150
T3F00S00C0.03543
T4F00S00C0.03937
T5F00S00C0.05000
T6F00S00C0.07283
T7F00S00C0.16535
;TYPE=NON_PLATED
T8F00S00C0.15748
%
T01
X116000Y54000
X155000Y55000
X165000Y50000
X160500Y45000
X161000Y35500
Y21500
X168068Y21407
X184500Y22000
Y16500
X184000Y30500
X188000Y5500
X173500Y6000
X213000
X212500Y33500
X219000Y37000
X224000Y32500
X232000Y20802
X251500Y20000
X254500Y5500
X266500Y24500
X279000Y39500
X252728Y49666
X238000Y48500
X230500Y51500
X232537Y73000
X236446Y76898
X231973Y81122
X240753Y94113
X248000Y95000
X245500Y89500
X254000Y102000
X262789Y108334
X275500Y114000
X271000Y124500
X288000
X280000Y143000
X278000Y188500
X262500
X247500
Y204000
X232500
X219749Y193422
X223000Y169000
X218500Y156000
X224798Y131644
X245028Y120000
X219413Y91000
X262500Y77000
X297500Y77500
X332500Y114000
X309500Y194000
X277500Y204000
X262500
X183000Y188500
X193500Y170500
X199500Y153962
X180000Y152500
X184500Y135000
X181000Y126000
X165000Y105000
X164587Y98087
X162500Y80000
X155000Y81500
X144500Y74000
X155500Y62102
X161437Y59425
X160500Y66500
X187000Y68500
X186856Y81687
X187000Y89500
X189000Y95500
X191500Y86000
X193500Y79500
X211000Y77500
X206426Y87574
X203000Y64500
X133000Y59500
X131500Y87000
X127500Y99000
X135000Y110000
X143000Y110500
X145900Y118978
X144000Y142925
X149500Y167000
X132000Y167972
X102000Y168000
X98000Y191500
X126500Y204500
X135000
Y212000
X143500Y204500
X155397Y204519
X155500Y212000
X166000Y171000
X110500Y130500
X120000Y75500
X136500Y222500
X162500Y220000
X196234Y218829
X200737Y244000
X200773Y251504
X209434
X209500Y244000
Y236500
X204935Y257894
X200773Y264496
X209434
X209000Y273000
Y281000
Y289000
Y297000
X200500
Y281000
X183000Y282004
X117000Y280000
Y274000
Y267500
Y261500
Y255000
X110500
Y261500
Y267500
Y274000
Y280000
X99500
Y274000
Y267500
Y261500
Y255000
X93000
Y261500
Y267500
Y274000
Y280000
X88189Y224642
X75000Y217000
X215000Y228000
X224358Y243000
X247500Y249500
Y234500
Y219500
X232500
X262500
X277500
X277000Y234500
X262500
Y249500
X277000
X292000
X305500
X232000Y280500
Y289000
X224500
X216500
Y297000
X224000
X232000
T02
X14000Y134000
X34000
X44079
X54000
Y154130
X44000
X34000Y154000
X14000
T03
X288048Y8105
Y18105
Y28105
Y38105
Y48105
X306548Y50829
Y60829
Y70829
Y80829
Y90829
Y100829
Y110829
X288048Y58105
T04
X253670Y160611
X263513
X273355
X294500Y170695
Y180538
X319500Y180842
Y171000
X294500Y149249
Y139407
X346500Y133343
Y123500
Y101342
Y91500
X16500Y95917
Y105759
Y73500
Y63657
X17500Y180552
Y190394
Y200237
T05
X306500Y38500
X288505Y73000
X315500Y149500
X312500Y205500
X235500Y142000
X207896Y133500
X194597Y137619
X174500Y133000
X162500Y133500
X102000Y85500
Y57500
X171500Y226000
X259500Y293500
X313500Y253500
T06
X44579Y241000
Y258461
Y275921
X62039
X79500
Y258461
Y241000
X62039
X131000Y241039
X148461
X165921
Y258500
Y275961
X148461
X131000
Y258500
T07
X16295Y16185
X351000
X16295Y286500
X351000
T08
X62039Y258461
X148461Y258500
M30
