G04*
G04 #@! TF.GenerationSoftware,Altium Limited,Altium Designer,21.8.1 (53)*
G04*
G04 Layer_Color=65535*
%FSLAX25Y25*%
%MOIN*%
G70*
G04*
G04 #@! TF.SameCoordinates,67586CA8-3494-4C59-B5DC-5B9CAF07B576*
G04*
G04*
G04 #@! TF.FilePolarity,Positive*
G04*
G01*
G75*
%ADD10C,0.01000*%
%ADD11C,0.02756*%
%ADD12C,0.00984*%
%ADD13C,0.00984*%
%ADD14C,0.00600*%
%ADD15C,0.00787*%
%ADD16C,0.00394*%
%ADD17C,0.00799*%
G36*
X240819Y13283D02*
X243181Y10920D01*
X243181Y15645D01*
X240819Y13283D01*
D02*
G37*
G36*
X265520Y16913D02*
X267882Y19276D01*
X263158Y19276D01*
X265520Y16913D01*
D02*
G37*
G36*
X271224Y39765D02*
X273587Y37403D01*
X273587Y42127D01*
X271224Y39765D01*
D02*
G37*
G36*
X270276Y47020D02*
X267913Y49382D01*
X267913Y44657D01*
X270276Y47020D01*
D02*
G37*
G36*
X284389Y101349D02*
X286752Y98987D01*
X286752Y103711D01*
X284389Y101349D01*
D02*
G37*
G36*
X41722Y171688D02*
X42512Y170898D01*
Y172477D01*
X41722Y171688D01*
D02*
G37*
G36*
X187681Y288229D02*
X185319Y290592D01*
X185319Y285867D01*
X187681Y288229D01*
D02*
G37*
G36*
X231688Y259739D02*
X230898Y258950D01*
X232477D01*
X231688Y259739D01*
D02*
G37*
G36*
X270319Y131480D02*
X272681Y129118D01*
X272681Y133843D01*
X270319Y131480D01*
D02*
G37*
G36*
X289819Y117480D02*
X292181Y115118D01*
X292181Y119843D01*
X289819Y117480D01*
D02*
G37*
D10*
X320500Y149500D02*
X320398Y150506D01*
X320095Y151472D01*
X319604Y152356D01*
X318945Y153124D01*
X318145Y153743D01*
X317236Y154189D01*
X316257Y154442D01*
X315247Y154494D01*
X314247Y154340D01*
X313298Y153989D01*
X312439Y153454D01*
X311706Y152757D01*
X311128Y151927D01*
X310729Y150997D01*
X310526Y150006D01*
Y148994D01*
X310729Y148003D01*
X311128Y147073D01*
X311706Y146243D01*
X312439Y145546D01*
X313298Y145011D01*
X314247Y144660D01*
X315247Y144506D01*
X316257Y144558D01*
X317236Y144811D01*
X318145Y145257D01*
X318945Y145876D01*
X319604Y146644D01*
X320095Y147528D01*
X320398Y148494D01*
X320500Y149500D01*
X293505Y73000D02*
X293403Y74006D01*
X293100Y74972D01*
X292609Y75856D01*
X291950Y76624D01*
X291150Y77243D01*
X290242Y77689D01*
X289262Y77942D01*
X288252Y77994D01*
X287252Y77840D01*
X286303Y77489D01*
X285444Y76954D01*
X284711Y76257D01*
X284133Y75427D01*
X283734Y74497D01*
X283531Y73506D01*
Y72494D01*
X283734Y71503D01*
X284133Y70574D01*
X284711Y69743D01*
X285444Y69046D01*
X286303Y68511D01*
X287252Y68160D01*
X288252Y68006D01*
X289262Y68058D01*
X290242Y68311D01*
X291150Y68757D01*
X291950Y69376D01*
X292609Y70144D01*
X293100Y71028D01*
X293403Y71993D01*
X293505Y73000D01*
X199597Y137619D02*
X199494Y138625D01*
X199191Y139590D01*
X198701Y140475D01*
X198042Y141242D01*
X197242Y141862D01*
X196333Y142307D01*
X195354Y142561D01*
X194343Y142612D01*
X193343Y142459D01*
X192395Y142107D01*
X191536Y141572D01*
X190803Y140875D01*
X190225Y140045D01*
X189826Y139115D01*
X189622Y138124D01*
Y137113D01*
X189826Y136122D01*
X190225Y135192D01*
X190803Y134362D01*
X191536Y133665D01*
X192395Y133129D01*
X193343Y132778D01*
X194343Y132625D01*
X195354Y132676D01*
X196333Y132930D01*
X197242Y133375D01*
X198042Y133994D01*
X198701Y134762D01*
X199191Y135647D01*
X199494Y136612D01*
X199597Y137619D01*
X212896Y133500D02*
X212793Y134506D01*
X212490Y135472D01*
X212000Y136356D01*
X211340Y137124D01*
X210541Y137743D01*
X209632Y138189D01*
X208653Y138442D01*
X207642Y138494D01*
X206642Y138340D01*
X205694Y137989D01*
X204835Y137454D01*
X204102Y136757D01*
X203524Y135926D01*
X203125Y134997D01*
X202921Y134006D01*
Y132994D01*
X203125Y132003D01*
X203524Y131073D01*
X204102Y130243D01*
X204835Y129546D01*
X205694Y129011D01*
X206642Y128660D01*
X207642Y128506D01*
X208653Y128558D01*
X209632Y128811D01*
X210541Y129257D01*
X211340Y129876D01*
X212000Y130644D01*
X212490Y131528D01*
X212793Y132493D01*
X212896Y133500D01*
X240500Y142000D02*
X240398Y143007D01*
X240095Y143972D01*
X239604Y144856D01*
X238945Y145624D01*
X238145Y146243D01*
X237236Y146689D01*
X236257Y146942D01*
X235247Y146994D01*
X234247Y146840D01*
X233298Y146489D01*
X232439Y145954D01*
X231706Y145257D01*
X231128Y144427D01*
X230729Y143497D01*
X230526Y142506D01*
Y141494D01*
X230729Y140503D01*
X231128Y139574D01*
X231706Y138743D01*
X232439Y138046D01*
X233298Y137511D01*
X234247Y137160D01*
X235247Y137006D01*
X236257Y137058D01*
X237236Y137311D01*
X238145Y137757D01*
X238945Y138376D01*
X239604Y139144D01*
X240095Y140028D01*
X240398Y140993D01*
X240500Y142000D01*
X179500Y133000D02*
X179398Y134007D01*
X179095Y134972D01*
X178604Y135856D01*
X177945Y136624D01*
X177145Y137243D01*
X176236Y137689D01*
X175257Y137942D01*
X174247Y137994D01*
X173247Y137840D01*
X172298Y137489D01*
X171440Y136954D01*
X170706Y136257D01*
X170128Y135426D01*
X169729Y134497D01*
X169526Y133506D01*
Y132494D01*
X169729Y131503D01*
X170128Y130573D01*
X170706Y129743D01*
X171440Y129046D01*
X172298Y128511D01*
X173247Y128160D01*
X174247Y128006D01*
X175257Y128058D01*
X176236Y128311D01*
X177145Y128757D01*
X177945Y129376D01*
X178604Y130144D01*
X179095Y131028D01*
X179398Y131993D01*
X179500Y133000D01*
X7760Y157630D02*
X6972D01*
X7760D01*
X311500Y38500D02*
X311398Y39507D01*
X311095Y40472D01*
X310604Y41356D01*
X309945Y42124D01*
X309145Y42743D01*
X308237Y43189D01*
X307257Y43442D01*
X306247Y43494D01*
X305247Y43340D01*
X304298Y42989D01*
X303439Y42454D01*
X302706Y41757D01*
X302128Y40927D01*
X301729Y39997D01*
X301526Y39006D01*
Y37994D01*
X301729Y37003D01*
X302128Y36073D01*
X302706Y35243D01*
X303439Y34546D01*
X304298Y34011D01*
X305247Y33660D01*
X306247Y33506D01*
X307257Y33558D01*
X308237Y33811D01*
X309145Y34257D01*
X309945Y34876D01*
X310604Y35644D01*
X311095Y36528D01*
X311398Y37494D01*
X311500Y38500D01*
X167500Y133500D02*
X167398Y134506D01*
X167095Y135472D01*
X166604Y136356D01*
X165945Y137124D01*
X165145Y137743D01*
X164236Y138189D01*
X163257Y138442D01*
X162247Y138494D01*
X161247Y138340D01*
X160298Y137989D01*
X159440Y137454D01*
X158706Y136757D01*
X158128Y135926D01*
X157729Y134997D01*
X157526Y134006D01*
Y132994D01*
X157729Y132003D01*
X158128Y131073D01*
X158706Y130243D01*
X159440Y129546D01*
X160298Y129011D01*
X161247Y128660D01*
X162247Y128506D01*
X163257Y128558D01*
X164236Y128811D01*
X165145Y129257D01*
X165945Y129876D01*
X166604Y130644D01*
X167095Y131528D01*
X167398Y132493D01*
X167500Y133500D01*
X317500Y205500D02*
X317398Y206506D01*
X317095Y207472D01*
X316604Y208356D01*
X315945Y209124D01*
X315145Y209743D01*
X314236Y210189D01*
X313257Y210442D01*
X312247Y210494D01*
X311247Y210340D01*
X310298Y209989D01*
X309439Y209454D01*
X308706Y208757D01*
X308128Y207927D01*
X307729Y206997D01*
X307526Y206006D01*
Y204994D01*
X307729Y204003D01*
X308128Y203074D01*
X308706Y202243D01*
X309439Y201546D01*
X310298Y201011D01*
X311247Y200660D01*
X312247Y200506D01*
X313257Y200558D01*
X314236Y200811D01*
X315145Y201257D01*
X315945Y201876D01*
X316604Y202644D01*
X317095Y203528D01*
X317398Y204493D01*
X317500Y205500D01*
X176500Y226000D02*
X176398Y227007D01*
X176095Y227972D01*
X175604Y228856D01*
X174945Y229624D01*
X174145Y230243D01*
X173237Y230689D01*
X172257Y230942D01*
X171247Y230994D01*
X170247Y230840D01*
X169298Y230489D01*
X168439Y229954D01*
X167706Y229257D01*
X167128Y228427D01*
X166729Y227497D01*
X166526Y226506D01*
Y225494D01*
X166729Y224503D01*
X167128Y223573D01*
X167706Y222743D01*
X168439Y222046D01*
X169298Y221511D01*
X170247Y221160D01*
X171247Y221006D01*
X172257Y221058D01*
X173237Y221311D01*
X174145Y221757D01*
X174945Y222376D01*
X175604Y223144D01*
X176095Y224028D01*
X176398Y224993D01*
X176500Y226000D01*
X318500Y253500D02*
X318398Y254506D01*
X318095Y255472D01*
X317604Y256356D01*
X316945Y257124D01*
X316145Y257743D01*
X315236Y258189D01*
X314257Y258442D01*
X313247Y258494D01*
X312247Y258340D01*
X311298Y257989D01*
X310439Y257454D01*
X309706Y256757D01*
X309128Y255926D01*
X308729Y254997D01*
X308526Y254006D01*
Y252994D01*
X308729Y252003D01*
X309128Y251074D01*
X309706Y250243D01*
X310439Y249546D01*
X311298Y249011D01*
X312247Y248660D01*
X313247Y248506D01*
X314257Y248558D01*
X315236Y248811D01*
X316145Y249257D01*
X316945Y249876D01*
X317604Y250644D01*
X318095Y251528D01*
X318398Y252494D01*
X318500Y253500D01*
X264500Y293500D02*
X264398Y294507D01*
X264095Y295472D01*
X263604Y296356D01*
X262945Y297124D01*
X262145Y297743D01*
X261237Y298189D01*
X260257Y298442D01*
X259247Y298494D01*
X258247Y298340D01*
X257298Y297989D01*
X256439Y297454D01*
X255706Y296757D01*
X255128Y295926D01*
X254729Y294997D01*
X254526Y294006D01*
Y292994D01*
X254729Y292003D01*
X255128Y291073D01*
X255706Y290243D01*
X256439Y289546D01*
X257298Y289011D01*
X258247Y288660D01*
X259247Y288506D01*
X260257Y288558D01*
X261237Y288811D01*
X262145Y289257D01*
X262945Y289876D01*
X263604Y290644D01*
X264095Y291528D01*
X264398Y292494D01*
X264500Y293500D01*
X107000Y85500D02*
X106898Y86506D01*
X106595Y87472D01*
X106104Y88356D01*
X105445Y89124D01*
X104645Y89743D01*
X103736Y90189D01*
X102757Y90442D01*
X101747Y90494D01*
X100747Y90340D01*
X99798Y89989D01*
X98940Y89454D01*
X98206Y88757D01*
X97628Y87927D01*
X97229Y86997D01*
X97026Y86006D01*
Y84994D01*
X97229Y84003D01*
X97628Y83074D01*
X98206Y82243D01*
X98940Y81546D01*
X99798Y81011D01*
X100747Y80660D01*
X101747Y80506D01*
X102757Y80558D01*
X103736Y80811D01*
X104645Y81257D01*
X105445Y81876D01*
X106104Y82644D01*
X106595Y83528D01*
X106898Y84493D01*
X107000Y85500D01*
Y57500D02*
X106898Y58507D01*
X106595Y59472D01*
X106104Y60356D01*
X105445Y61124D01*
X104645Y61743D01*
X103736Y62189D01*
X102757Y62442D01*
X101747Y62494D01*
X100747Y62340D01*
X99798Y61989D01*
X98940Y61454D01*
X98206Y60757D01*
X97628Y59926D01*
X97229Y58997D01*
X97026Y58006D01*
Y56994D01*
X97229Y56003D01*
X97628Y55073D01*
X98206Y54243D01*
X98940Y53546D01*
X99798Y53011D01*
X100747Y52660D01*
X101747Y52506D01*
X102757Y52558D01*
X103736Y52811D01*
X104645Y53257D01*
X105445Y53876D01*
X106104Y54644D01*
X106595Y55528D01*
X106898Y56494D01*
X107000Y57500D01*
X240819Y11314D02*
Y15251D01*
X243181Y13283D02*
X245543D01*
X238457D02*
X240819D01*
X287457Y117480D02*
X289819D01*
X292181D02*
X294543D01*
X289819Y115512D02*
Y119449D01*
X284389Y99380D02*
Y103317D01*
X286752Y101349D02*
X289114D01*
X282027D02*
X284389D01*
X268862Y39765D02*
X271224D01*
X273587D02*
X275949D01*
X271224Y37796D02*
Y41733D01*
X263551Y16913D02*
X267488D01*
X265520Y19276D02*
Y21638D01*
Y14551D02*
Y16913D01*
X210906Y200914D02*
X214055D01*
X212480Y199340D02*
Y202489D01*
X270319Y129512D02*
Y133449D01*
X272681Y131480D02*
X275043D01*
X267957D02*
X270319D01*
X187681Y288229D02*
X190043D01*
X182957D02*
X185319D01*
X187681Y286261D02*
Y290198D01*
X270276Y47020D02*
X272638D01*
X265551D02*
X267913D01*
X270276Y45051D02*
Y48988D01*
X119000Y130171D02*
Y139671D01*
D11*
X226295Y102500D02*
X225705D01*
X226295D01*
D12*
X149949Y55689D02*
D03*
X148984Y84748D02*
D03*
D13*
X209492Y182500D02*
X208754Y182926D01*
Y182074D01*
X209492Y182500D01*
X193981Y272567D02*
X193243Y272993D01*
Y272141D01*
X193981Y272567D01*
X95264Y231347D02*
X94526Y231773D01*
Y230920D01*
X95264Y231347D01*
D14*
X120300Y142471D02*
X121149Y142823D01*
X121500Y143671D01*
X121149Y144520D01*
X120300Y144871D01*
X154700Y138583D02*
Y148760D01*
X120300Y138583D02*
Y148760D01*
D15*
X228221Y44801D02*
X234323D01*
X235701Y24900D02*
Y44191D01*
Y24900D02*
X248299D01*
Y44191D01*
X235701D02*
X248299D01*
X240803Y17736D02*
X241197D01*
X240803Y22264D02*
X241197D01*
X236291Y2456D02*
X247709D01*
X236291Y9149D02*
X247709D01*
Y2456D02*
Y3243D01*
X236291Y2456D02*
Y3243D01*
X247709Y8361D02*
Y9149D01*
X236291Y8361D02*
Y9149D01*
X188721Y30103D02*
X194823D01*
X196201Y10202D02*
Y29493D01*
Y10202D02*
X208799D01*
Y29493D01*
X196201D02*
X208799D01*
X337000Y143000D02*
X360000D01*
X337000Y113500D02*
Y143000D01*
X360000Y113500D02*
Y143000D01*
X337000Y113500D02*
X360000D01*
X331221Y129106D02*
Y129894D01*
X333780Y129106D02*
Y129894D01*
Y104606D02*
Y105394D01*
X331221Y104606D02*
Y105394D01*
X337000Y81500D02*
X360000D01*
Y111000D01*
X337000Y81500D02*
Y111000D01*
X360000D01*
X285000Y160695D02*
X308000D01*
Y190195D01*
X285000Y160695D02*
Y190195D01*
X308000D01*
X285000Y158907D02*
X308000D01*
X285000Y129407D02*
Y158907D01*
X308000Y129407D02*
Y158907D01*
X285000Y129407D02*
X308000D01*
X285291Y112559D02*
Y113347D01*
X296709Y112559D02*
Y113347D01*
X285291Y106653D02*
Y107441D01*
X296709Y106653D02*
Y107441D01*
X285291Y113347D02*
X296709D01*
X285291Y106653D02*
X296709D01*
X279862Y90522D02*
X291279D01*
X279862Y97215D02*
X291279D01*
Y90522D02*
Y91309D01*
X279862Y90522D02*
Y91309D01*
X291279Y96428D02*
Y97215D01*
X279862Y96428D02*
Y97215D01*
X125721Y57572D02*
Y58359D01*
X128279Y57572D02*
Y58359D01*
X120192Y57572D02*
Y58359D01*
X122751Y57572D02*
Y58359D01*
X266697Y34844D02*
Y35631D01*
X278114Y34844D02*
Y35631D01*
X266697Y28938D02*
Y29725D01*
X278114Y28938D02*
Y29725D01*
X266697Y35631D02*
X278114D01*
X266697Y28938D02*
X278114D01*
X261267Y33606D02*
Y34394D01*
X258708Y33606D02*
Y34394D01*
X283048Y3105D02*
Y63105D01*
X293048Y3105D02*
Y63105D01*
X283048D02*
X293048D01*
X283048Y3105D02*
X293048D01*
X289606Y80721D02*
X290394D01*
X289606Y83280D02*
X290394D01*
X274953Y81067D02*
X276921D01*
X274953Y76933D02*
X276921D01*
X191708Y148942D02*
Y149730D01*
X194267Y148942D02*
Y149730D01*
X188738Y150123D02*
Y150517D01*
X184211Y150123D02*
Y150517D01*
X201764Y150123D02*
Y150517D01*
X197236Y150123D02*
Y150517D01*
X191303Y128758D02*
X191697D01*
X191303Y124230D02*
X191697D01*
X191253Y116733D02*
X191647D01*
X191253Y121261D02*
X191647D01*
X191303Y113764D02*
X191697D01*
X191303Y109236D02*
X191697D01*
X204759Y146005D02*
Y146399D01*
X209286Y146005D02*
Y146399D01*
X214815Y144824D02*
Y145611D01*
X212256Y144824D02*
Y145611D01*
X220401Y122736D02*
X220794D01*
X220401Y127264D02*
X220794D01*
X222312Y145803D02*
Y146197D01*
X217785Y145803D02*
Y146197D01*
X225282Y144622D02*
Y145409D01*
X227841Y144622D02*
Y145409D01*
X181606Y49779D02*
X182394D01*
X181606Y47221D02*
X182394D01*
X193106D02*
X193894D01*
X193106Y49779D02*
X193894D01*
X217764Y48003D02*
Y48397D01*
X213236Y48003D02*
Y48397D01*
X220736Y47803D02*
Y48197D01*
X225264Y47803D02*
Y48197D01*
X176106Y140720D02*
X176894D01*
X176106Y143280D02*
X176894D01*
X200721Y42106D02*
Y42894D01*
X203279Y42106D02*
Y42894D01*
X201803Y3236D02*
X202197D01*
X201803Y7764D02*
X202197D01*
X276346Y12386D02*
Y23803D01*
X269654Y12386D02*
Y23803D01*
X275559D02*
X276346D01*
X275559Y12386D02*
X276346D01*
X269654Y23803D02*
X270441D01*
X269654Y12386D02*
X270441D01*
X183264Y116803D02*
Y117197D01*
X178736Y116803D02*
Y117197D01*
X165106Y118220D02*
X165894D01*
X165106Y120780D02*
X165894D01*
X219220Y19606D02*
Y20394D01*
X221779Y19606D02*
Y20394D01*
X168303Y110723D02*
X168697D01*
X168303Y115251D02*
X168697D01*
X205803Y200271D02*
Y207160D01*
X180705Y198204D02*
X206295D01*
X180705Y184424D02*
Y198204D01*
Y184424D02*
X206295D01*
Y198204D01*
X164333Y12736D02*
X164726D01*
X164333Y17264D02*
X164726D01*
X163152Y9767D02*
X163939D01*
X163152Y7208D02*
X163939D01*
X131303Y76410D02*
X131697D01*
X131303Y71882D02*
X131697D01*
X154803Y71882D02*
X155197D01*
X154803Y76410D02*
X155197D01*
X126279Y85106D02*
Y85894D01*
X123721Y85106D02*
Y85894D01*
X251720Y125106D02*
Y125894D01*
X254279Y125106D02*
Y125894D01*
X199803Y209736D02*
X200197D01*
X199803Y214264D02*
X200197D01*
X178303Y200771D02*
Y207660D01*
X153205Y198704D02*
X178795D01*
X153205Y184924D02*
Y198704D01*
Y184924D02*
X178795D01*
Y198704D01*
X215661Y173236D02*
X216055D01*
X215661Y177764D02*
X216055D01*
X210094Y186031D02*
Y189969D01*
X221905Y186031D02*
Y189969D01*
X210094Y186031D02*
X221905D01*
X210094Y189969D02*
X221905D01*
X214449Y216958D02*
Y220649D01*
X219321Y225521D01*
X214449Y203621D02*
X219321Y198749D01*
X214449Y203621D02*
Y207312D01*
X219321Y225521D02*
X241220D01*
Y216958D02*
Y225521D01*
Y198749D02*
Y207312D01*
X219321Y198749D02*
X241220D01*
X310433Y220016D02*
Y221984D01*
X314567Y220016D02*
Y221984D01*
X311221Y233106D02*
Y233894D01*
X313779Y233106D02*
Y233894D01*
X301548Y45829D02*
Y115829D01*
Y45829D02*
X311548D01*
Y115829D01*
X301548D02*
X311548D01*
X266354Y115279D02*
X267142D01*
X266354Y112721D02*
X267142D01*
X271721Y100106D02*
Y100894D01*
X274279Y100106D02*
Y100894D01*
X265791Y120653D02*
X277209D01*
X265791Y127347D02*
X277209D01*
Y120653D02*
Y121441D01*
X265791Y120653D02*
Y121441D01*
X277209Y126559D02*
Y127347D01*
X265791Y126559D02*
Y127347D01*
X260308Y125106D02*
Y125894D01*
X257749Y125106D02*
Y125894D01*
X310000Y190500D02*
X333000D01*
X310000Y161000D02*
Y190500D01*
X333000Y161000D02*
Y190500D01*
X310000Y161000D02*
X333000D01*
X243670Y147111D02*
Y170111D01*
Y147111D02*
X283170D01*
Y170111D01*
X243670D02*
X283170D01*
X269220Y139773D02*
Y140560D01*
X271779Y139773D02*
Y140560D01*
X252279Y139606D02*
Y140394D01*
X249721Y139606D02*
Y140394D01*
X233803Y127764D02*
X234197D01*
X233803Y123236D02*
X234197D01*
X212017Y113606D02*
Y114394D01*
X209458Y113606D02*
Y114394D01*
X187546Y249224D02*
Y250012D01*
X184987Y249224D02*
Y250012D01*
X183331Y258720D02*
X184119D01*
X183331Y261280D02*
X184119D01*
X188020Y273638D02*
Y278362D01*
X177980Y273638D02*
Y278362D01*
X213994Y242264D02*
X214388D01*
X213994Y237736D02*
X214388D01*
X195303Y242264D02*
X195697D01*
X195303Y237736D02*
X195697D01*
X214606Y232208D02*
X215394D01*
X214606Y234767D02*
X215394D01*
X197820Y270992D02*
X212387D01*
X197820Y245008D02*
X212387D01*
X219303Y275536D02*
X219697D01*
X219303Y280064D02*
X219697D01*
X170503Y63746D02*
X170897D01*
X170503Y68274D02*
X170897D01*
X170503Y56249D02*
X170897D01*
X170503Y60777D02*
X170897D01*
X231736Y93803D02*
Y94197D01*
X236264Y93803D02*
Y94197D01*
X246280Y139606D02*
Y140394D01*
X243721Y139606D02*
Y140394D01*
X84790Y216220D02*
X85578D01*
X84790Y218779D02*
X85578D01*
X84790Y210221D02*
X85578D01*
X84790Y212779D02*
X85578D01*
X99201Y210658D02*
Y230343D01*
X111799Y210658D02*
Y230343D01*
X99201D02*
X111799D01*
X99201Y210658D02*
X111799D01*
X170236Y97303D02*
Y97697D01*
X174764Y97303D02*
Y97697D01*
X186303Y214764D02*
X186697D01*
X186303Y210236D02*
X186697D01*
X88606Y190720D02*
X89394D01*
X88606Y193280D02*
X89394D01*
X96989Y201303D02*
Y201697D01*
X101517Y201303D02*
Y201697D01*
X122961Y233000D02*
Y283000D01*
Y233000D02*
X173961D01*
Y283500D01*
X123461D02*
X173961D01*
X122961Y283000D02*
X123461Y283500D01*
X36539Y232961D02*
Y282961D01*
Y232961D02*
X87539D01*
Y283461D01*
X37039D02*
X87539D01*
X36539Y282961D02*
X37039Y283461D01*
X27000Y170737D02*
Y210237D01*
X4000Y170737D02*
X27000D01*
X4000D02*
Y210237D01*
X27000D01*
X177062Y250268D02*
Y250662D01*
X181590Y250268D02*
Y250662D01*
X192209Y292363D02*
Y293151D01*
X180791Y292363D02*
Y293151D01*
X192209Y298269D02*
Y299056D01*
X180791Y298269D02*
Y299056D01*
Y292363D02*
X192209D01*
X180791Y299056D02*
X192209D01*
X183764Y231803D02*
Y232197D01*
X179236Y231803D02*
Y232197D01*
X127264Y220303D02*
Y220697D01*
X122736Y220303D02*
Y220697D01*
X221791Y250013D02*
Y268910D01*
X233209Y250013D02*
Y268910D01*
X221791Y250013D02*
X222776D01*
X221791Y268910D02*
X222776D01*
X232224Y250013D02*
X233209D01*
X232224Y268910D02*
X233209D01*
X197803Y283264D02*
X198197D01*
X197803Y278736D02*
X198197D01*
X191016Y229933D02*
X192984D01*
X191016Y234067D02*
X192984D01*
X284119Y235719D02*
Y284145D01*
X235694Y235719D02*
Y284145D01*
X271521D02*
X284119D01*
X271521Y235719D02*
X284119D01*
X235694Y284145D02*
X248292D01*
X235694Y235719D02*
X248292D01*
X227803Y240736D02*
X228197D01*
X227803Y245264D02*
X228197D01*
X191016Y226964D02*
X192984D01*
X191016Y222830D02*
X192984D01*
X274803Y51153D02*
Y51941D01*
X263386Y51153D02*
Y51941D01*
X274803Y57059D02*
Y57846D01*
X263386Y57059D02*
Y57846D01*
Y51153D02*
X274803D01*
X263386Y57846D02*
X274803D01*
X240452Y73606D02*
Y74394D01*
X243011Y73606D02*
Y74394D01*
X167720Y81106D02*
Y81894D01*
X170280Y81106D02*
Y81894D01*
X135540Y160221D02*
X136328D01*
X135540Y162779D02*
X136328D01*
X147606D02*
X148394D01*
X147606Y160221D02*
X148394D01*
X140606Y166208D02*
X141394D01*
X140606Y168767D02*
X141394D01*
X124106Y162314D02*
X124894D01*
X124106Y159755D02*
X124894D01*
X109854Y65396D02*
Y66183D01*
X112413Y65396D02*
Y66183D01*
X149106Y125029D02*
X149894D01*
X149106Y127588D02*
X149894D01*
X139777Y122174D02*
Y122568D01*
X135249Y122174D02*
Y122568D01*
X127106Y125029D02*
X127894D01*
X127106Y127588D02*
X127894D01*
X120751Y85106D02*
Y85894D01*
X118192Y85106D02*
Y85894D01*
X136401Y101006D02*
X136794D01*
X136401Y105534D02*
X136794D01*
X149803Y105534D02*
X150197D01*
X149803Y101006D02*
X150197D01*
X131780Y117106D02*
Y117894D01*
X129220Y117106D02*
Y117894D01*
X113779Y92606D02*
Y93394D01*
X111221Y92606D02*
Y93394D01*
X256106Y91220D02*
X256894D01*
X256106Y93779D02*
X256894D01*
X241192Y103106D02*
Y103894D01*
X243751Y103106D02*
Y103894D01*
X246721Y103106D02*
Y103894D01*
X249279Y103106D02*
Y103894D01*
X158901Y215264D02*
X159294D01*
X158901Y210736D02*
X159294D01*
X172303Y215264D02*
X172697D01*
X172303Y210736D02*
X172697D01*
X32551Y161791D02*
X51449D01*
X32551Y173209D02*
X51449D01*
Y161791D02*
Y162776D01*
X32551Y161791D02*
Y162776D01*
X51449Y172224D02*
Y173209D01*
X32551Y172224D02*
Y173209D01*
X7000Y85917D02*
X30000D01*
Y115417D01*
X7000Y85917D02*
Y115417D01*
X30000D01*
X87677Y59744D02*
X93779D01*
X7000Y83157D02*
X30000D01*
X7000Y53658D02*
Y83157D01*
X30000Y53658D02*
Y83157D01*
X7000Y53658D02*
X30000D01*
D16*
X231122Y259695D02*
X232303Y259698D01*
X41764Y172303D02*
X41766Y171122D01*
D17*
X333632Y148798D02*
X331299D01*
Y145299D01*
X333632D01*
X331299Y147049D02*
X332466D01*
X334798Y148798D02*
X337131Y145299D01*
Y148798D02*
X334798Y145299D01*
X338297Y148798D02*
X340630D01*
X339463D01*
Y145299D01*
X341796Y147049D02*
X344128D01*
X347627Y148215D02*
X347044Y148798D01*
X345878D01*
X345295Y148215D01*
Y145882D01*
X345878Y145299D01*
X347044D01*
X347627Y145882D01*
X350543Y148798D02*
X349377D01*
X348794Y148215D01*
Y145882D01*
X349377Y145299D01*
X350543D01*
X351126Y145882D01*
Y148215D01*
X350543Y148798D01*
X352292Y145299D02*
Y148798D01*
X354625Y145299D01*
Y148798D01*
X355791D02*
X358124D01*
X356958D01*
Y145299D01*
X359290Y147049D02*
X361623D01*
X362789Y145299D02*
X363955D01*
X363372D01*
Y148798D01*
X362789Y148215D01*
X331425Y73002D02*
X329092D01*
Y69503D01*
X331425D01*
X329092Y71253D02*
X330258D01*
X332591Y73002D02*
X334924Y69503D01*
Y73002D02*
X332591Y69503D01*
X336090Y73002D02*
X338422D01*
X337256D01*
Y69503D01*
X339589Y71253D02*
X341921D01*
X345420Y72419D02*
X344837Y73002D01*
X343671D01*
X343088Y72419D01*
Y70086D01*
X343671Y69503D01*
X344837D01*
X345420Y70086D01*
X348336Y73002D02*
X347170D01*
X346586Y72419D01*
Y70086D01*
X347170Y69503D01*
X348336D01*
X348919Y70086D01*
Y72419D01*
X348336Y73002D01*
X350085Y69503D02*
Y73002D01*
X352418Y69503D01*
Y73002D01*
X353584D02*
X355917D01*
X354751D01*
Y69503D01*
X357083Y71253D02*
X359416D01*
X362915Y69503D02*
X360582D01*
X362915Y71836D01*
Y72419D01*
X362332Y73002D01*
X361165D01*
X360582Y72419D01*
X264799Y73798D02*
Y70299D01*
X266549D01*
X267132Y70882D01*
Y73215D01*
X266549Y73798D01*
X264799D01*
X270631D02*
X268298D01*
Y70299D01*
X270631D01*
X268298Y72049D02*
X269464D01*
X271797Y73798D02*
Y70299D01*
X273546D01*
X274130Y70882D01*
Y71465D01*
X273546Y72049D01*
X271797D01*
X273546D01*
X274130Y72632D01*
Y73215D01*
X273546Y73798D01*
X271797D01*
X275296D02*
Y70882D01*
X275879Y70299D01*
X277045D01*
X277628Y70882D01*
Y73798D01*
X281127Y73215D02*
X280544Y73798D01*
X279378D01*
X278795Y73215D01*
Y70882D01*
X279378Y70299D01*
X280544D01*
X281127Y70882D01*
Y72049D01*
X279961D01*
X316799Y215799D02*
X317966D01*
X317382D01*
Y219298D01*
X316799Y218715D01*
X322047Y215799D02*
X319715D01*
X322047Y218132D01*
Y218715D01*
X321464Y219298D01*
X320298D01*
X319715Y218715D01*
X323214Y219298D02*
Y216966D01*
X324380Y215799D01*
X325546Y216966D01*
Y219298D01*
X331961D02*
X330795D01*
X330211Y218715D01*
Y216382D01*
X330795Y215799D01*
X331961D01*
X332544Y216382D01*
Y218715D01*
X331961Y219298D01*
X333710Y215799D02*
Y219298D01*
X336043Y215799D01*
Y219298D01*
X90799Y41299D02*
Y44798D01*
X92549D01*
X93132Y44215D01*
Y43049D01*
X92549Y42465D01*
X90799D01*
X91966D02*
X93132Y41299D01*
X94298Y44798D02*
X96631Y41299D01*
Y44798D02*
X94298Y41299D01*
X97797D02*
X98963D01*
X98380D01*
Y44798D01*
X97797Y44215D01*
X100713Y43049D02*
X103045D01*
X101879Y44215D02*
Y41882D01*
X97799Y72299D02*
Y75798D01*
X99549D01*
X100132Y75215D01*
Y74049D01*
X99549Y73466D01*
X97799D01*
X98966D02*
X100132Y72299D01*
X101298Y75798D02*
X103631Y72299D01*
Y75798D02*
X101298Y72299D01*
X107130D02*
X104797D01*
X107130Y74632D01*
Y75215D01*
X106546Y75798D01*
X105380D01*
X104797Y75215D01*
X108296Y74049D02*
X110628D01*
X109462Y75215D02*
Y72882D01*
X325132Y148798D02*
X322799D01*
Y147049D01*
X323966Y147632D01*
X324549D01*
X325132Y147049D01*
Y145882D01*
X324549Y145299D01*
X323382D01*
X322799Y145882D01*
X326298Y148798D02*
Y146466D01*
X327464Y145299D01*
X328631Y146466D01*
Y148798D01*
X314799Y35215D02*
X315382Y35798D01*
X316549D01*
X317132Y35215D01*
Y34632D01*
X316549Y34049D01*
X315966D01*
X316549D01*
X317132Y33465D01*
Y32882D01*
X316549Y32299D01*
X315382D01*
X314799Y32882D01*
X318298Y32299D02*
Y32882D01*
X318881D01*
Y32299D01*
X318298D01*
X321214Y35215D02*
X321797Y35798D01*
X322963D01*
X323546Y35215D01*
Y34632D01*
X322963Y34049D01*
X322380D01*
X322963D01*
X323546Y33465D01*
Y32882D01*
X322963Y32299D01*
X321797D01*
X321214Y32882D01*
X324713Y35798D02*
Y33465D01*
X325879Y32299D01*
X327045Y33465D01*
Y35798D01*
X135799Y288847D02*
Y285348D01*
X137549D01*
X138132Y285931D01*
Y286514D01*
X137549Y287098D01*
X135799D01*
X137549D01*
X138132Y287681D01*
Y288264D01*
X137549Y288847D01*
X135799D01*
X139298Y285348D02*
Y287681D01*
X140464Y288847D01*
X141631Y287681D01*
Y285348D01*
Y287098D01*
X139298D01*
X142797Y288847D02*
X145130D01*
X143963D01*
Y285348D01*
X146296Y288847D02*
X148628D01*
X147462D01*
Y285348D01*
X152127Y288847D02*
X149795D01*
Y285348D01*
X152127D01*
X149795Y287098D02*
X150961D01*
X153294Y285348D02*
Y288847D01*
X155043D01*
X155626Y288264D01*
Y287098D01*
X155043Y286514D01*
X153294D01*
X154460D02*
X155626Y285348D01*
X156792Y288847D02*
Y288264D01*
X157959Y287098D01*
X159125Y288264D01*
Y288847D01*
X157959Y287098D02*
Y285348D01*
X160291Y287098D02*
X162624D01*
X161458Y288264D02*
Y285931D01*
X323132Y204215D02*
X322549Y204798D01*
X321382D01*
X320799Y204215D01*
Y201882D01*
X321382Y201299D01*
X322549D01*
X323132Y201882D01*
Y203049D01*
X321966D01*
X324298Y201299D02*
Y204798D01*
X326631Y201299D01*
Y204798D01*
X327797D02*
Y201299D01*
X329546D01*
X330130Y201882D01*
Y204215D01*
X329546Y204798D01*
X327797D01*
X49799Y285348D02*
Y288847D01*
X50965Y287681D01*
X52132Y288847D01*
Y285348D01*
X55631Y288264D02*
X55048Y288847D01*
X53881D01*
X53298Y288264D01*
Y285931D01*
X53881Y285348D01*
X55048D01*
X55631Y285931D01*
X56797Y287098D02*
X59130D01*
X62045Y288847D02*
X60879D01*
X60296Y288264D01*
Y285931D01*
X60879Y285348D01*
X62045D01*
X62628Y285931D01*
Y288264D01*
X62045Y288847D01*
X63795D02*
Y285931D01*
X64378Y285348D01*
X65544D01*
X66127Y285931D01*
Y288847D01*
X67294D02*
X69626D01*
X68460D01*
Y285348D01*
X269132Y292715D02*
X268549Y293298D01*
X267382D01*
X266799Y292715D01*
Y292132D01*
X267382Y291549D01*
X268549D01*
X269132Y290966D01*
Y290382D01*
X268549Y289799D01*
X267382D01*
X266799Y290382D01*
X270298Y293298D02*
Y289799D01*
X271464Y290966D01*
X272631Y289799D01*
Y293298D01*
X255632Y213715D02*
X255049Y214298D01*
X253882D01*
X253299Y213715D01*
Y211382D01*
X253882Y210799D01*
X255049D01*
X255632Y211382D01*
X258547Y214298D02*
X257381D01*
X256798Y213715D01*
Y211382D01*
X257381Y210799D01*
X258547D01*
X259131Y211382D01*
Y213715D01*
X258547Y214298D01*
X260297Y210799D02*
Y214298D01*
X262630Y210799D01*
Y214298D01*
X263796D02*
X266128D01*
X264962D01*
Y210799D01*
X267295D02*
Y213132D01*
X268461Y214298D01*
X269627Y213132D01*
Y210799D01*
Y212549D01*
X267295D01*
X273126Y213715D02*
X272543Y214298D01*
X271377D01*
X270794Y213715D01*
Y211382D01*
X271377Y210799D01*
X272543D01*
X273126Y211382D01*
X274292Y214298D02*
X276625D01*
X275459D01*
Y210799D01*
X279541Y214298D02*
X278374D01*
X277791Y213715D01*
Y211382D01*
X278374Y210799D01*
X279541D01*
X280124Y211382D01*
Y213715D01*
X279541Y214298D01*
X281290Y210799D02*
Y214298D01*
X283040D01*
X283623Y213715D01*
Y212549D01*
X283040Y211965D01*
X281290D01*
X282456D02*
X283623Y210799D01*
X309299Y260799D02*
X310466D01*
X309882D01*
Y264298D01*
X309299Y263715D01*
X314547Y260799D02*
X312215D01*
X314547Y263132D01*
Y263715D01*
X313964Y264298D01*
X312798D01*
X312215Y263715D01*
X315714Y264298D02*
Y261965D01*
X316880Y260799D01*
X318046Y261965D01*
Y264298D01*
X315035Y49799D02*
Y52132D01*
X313868Y50965D02*
X316201D01*
X252299Y175798D02*
X253466D01*
X252882D01*
Y172299D01*
X252299D01*
X253466D01*
X255215D02*
Y175798D01*
X256381Y174632D01*
X257547Y175798D01*
Y172299D01*
X258714Y175798D02*
Y172299D01*
X260463D01*
X261046Y172882D01*
Y175215D01*
X260463Y175798D01*
X258714D01*
X294132Y127298D02*
X291799D01*
Y123799D01*
X294132D01*
X291799Y125549D02*
X292966D01*
X295298Y127298D02*
X297631Y123799D01*
Y127298D02*
X295298Y123799D01*
X298797Y127298D02*
X301130D01*
X299963D01*
Y123799D01*
X302296Y125549D02*
X304628D01*
X305795Y127298D02*
Y123799D01*
X308127D01*
X311626Y127298D02*
X309294D01*
Y123799D01*
X311626D01*
X309294Y125549D02*
X310460D01*
X312792Y127298D02*
Y123799D01*
X314542D01*
X315125Y124382D01*
Y126715D01*
X314542Y127298D01*
X312792D01*
X316701Y111201D02*
X314368D01*
X313799Y62798D02*
Y59299D01*
X315549D01*
X316132Y59882D01*
Y62215D01*
X315549Y62798D01*
X313799D01*
X317298D02*
X318464D01*
X317881D01*
Y59299D01*
X317298D01*
X318464D01*
X321963Y62798D02*
X320797D01*
X320214Y62215D01*
Y59882D01*
X320797Y59299D01*
X321963D01*
X322546Y59882D01*
Y62215D01*
X321963Y62798D01*
X316132Y72215D02*
X315549Y72798D01*
X314382D01*
X313799Y72215D01*
Y69882D01*
X314382Y69299D01*
X315549D01*
X316132Y69882D01*
X317298Y72798D02*
Y69299D01*
X319631D01*
X320797Y72798D02*
Y69299D01*
Y70465D01*
X323130Y72798D01*
X321380Y71049D01*
X323130Y69299D01*
X314299Y99299D02*
Y102798D01*
X316049D01*
X316632Y102215D01*
Y101049D01*
X316049Y100466D01*
X314299D01*
X315465D02*
X316632Y99299D01*
X317798Y102798D02*
X320131Y99299D01*
Y102798D02*
X317798Y99299D01*
X313799Y92298D02*
X316132D01*
X314966D01*
Y88799D01*
X317298Y92298D02*
X319631Y88799D01*
Y92298D02*
X317298Y88799D01*
X313799Y79299D02*
Y82798D01*
X316132Y79299D01*
Y82798D01*
X317298Y79299D02*
Y82798D01*
X319047D01*
X319631Y82215D01*
Y81049D01*
X319047Y80466D01*
X317298D01*
X318464D02*
X319631Y79299D01*
X323130Y82215D02*
X322546Y82798D01*
X321380D01*
X320797Y82215D01*
Y81632D01*
X321380Y81049D01*
X322546D01*
X323130Y80466D01*
Y79882D01*
X322546Y79299D01*
X321380D01*
X320797Y79882D01*
X324296Y82798D02*
X326628D01*
X325462D01*
Y79299D01*
X23542Y128179D02*
X21209D01*
Y124680D01*
X23542D01*
X21209Y126429D02*
X22376D01*
X27041Y127595D02*
X26458Y128179D01*
X25291D01*
X24708Y127595D01*
Y125263D01*
X25291Y124680D01*
X26458D01*
X27041Y125263D01*
X30540Y124680D02*
X28207D01*
X30540Y127012D01*
Y127595D01*
X29956Y128179D01*
X28790D01*
X28207Y127595D01*
X31706Y126429D02*
X34038D01*
X35205Y124680D02*
X36371D01*
X35788D01*
Y128179D01*
X35205Y127595D01*
X40453Y124680D02*
X38120D01*
X40453Y127012D01*
Y127595D01*
X39870Y128179D01*
X38704D01*
X38120Y127595D01*
X41619Y124680D02*
Y128179D01*
X43952Y124680D01*
Y128179D01*
X45118D02*
Y125263D01*
X45701Y124680D01*
X46868D01*
X47451Y125263D01*
Y128179D01*
X15544Y51798D02*
X16710D01*
X16127D01*
Y48299D01*
X15544D01*
X16710D01*
X20792Y51215D02*
X20209Y51798D01*
X19042D01*
X18459Y51215D01*
Y50632D01*
X19042Y50049D01*
X20209D01*
X20792Y49466D01*
Y48882D01*
X20209Y48299D01*
X19042D01*
X18459Y48882D01*
X23708Y51798D02*
X22541D01*
X21958Y51215D01*
Y48882D01*
X22541Y48299D01*
X23708D01*
X24291Y48882D01*
Y51215D01*
X23708Y51798D01*
X25457Y50049D02*
X27790D01*
X31288Y51215D02*
X30705Y51798D01*
X29539D01*
X28956Y51215D01*
Y50632D01*
X29539Y50049D01*
X30705D01*
X31288Y49466D01*
Y48882D01*
X30705Y48299D01*
X29539D01*
X28956Y48882D01*
X32455Y48299D02*
Y51798D01*
X34204D01*
X34787Y51215D01*
Y50049D01*
X34204Y49466D01*
X32455D01*
X35954Y51798D02*
X37120D01*
X36537D01*
Y48299D01*
X35954D01*
X37120D01*
X38869Y50049D02*
X41202D01*
X42368Y51798D02*
Y48299D01*
X44118D01*
X44701Y48882D01*
Y49466D01*
X44118Y50049D01*
X42368D01*
X44118D01*
X44701Y50632D01*
Y51215D01*
X44118Y51798D01*
X42368D01*
X16799Y121298D02*
X17966D01*
X17382D01*
Y117799D01*
X16799D01*
X17966D01*
X22048Y120715D02*
X21464Y121298D01*
X20298D01*
X19715Y120715D01*
Y120132D01*
X20298Y119549D01*
X21464D01*
X22048Y118965D01*
Y118382D01*
X21464Y117799D01*
X20298D01*
X19715Y118382D01*
X24963Y121298D02*
X23797D01*
X23214Y120715D01*
Y118382D01*
X23797Y117799D01*
X24963D01*
X25546Y118382D01*
Y120715D01*
X24963Y121298D01*
X26713Y119549D02*
X29045D01*
X32544Y120715D02*
X31961Y121298D01*
X30795D01*
X30211Y120715D01*
Y120132D01*
X30795Y119549D01*
X31961D01*
X32544Y118965D01*
Y118382D01*
X31961Y117799D01*
X30795D01*
X30211Y118382D01*
X33710Y117799D02*
Y121298D01*
X35460D01*
X36043Y120715D01*
Y119549D01*
X35460Y118965D01*
X33710D01*
X37209Y121298D02*
X38376D01*
X37792D01*
Y117799D01*
X37209D01*
X38376D01*
X40125Y119549D02*
X42458D01*
X43624Y117799D02*
Y120132D01*
X44790Y121298D01*
X45956Y120132D01*
Y117799D01*
Y119549D01*
X43624D01*
X337126Y150751D02*
Y154249D01*
X338876D01*
X339459Y153666D01*
Y152500D01*
X338876Y151917D01*
X337126D01*
X340625Y150751D02*
X341792D01*
X341208D01*
Y154249D01*
X340625Y153666D01*
X343541D02*
X344124Y154249D01*
X345290D01*
X345874Y153666D01*
Y151334D01*
X345290Y150751D01*
X344124D01*
X343541Y151334D01*
Y153666D01*
X324835Y118751D02*
Y122249D01*
X326584D01*
X327167Y121666D01*
Y120500D01*
X326584Y119917D01*
X324835D01*
X326001D02*
X327167Y118751D01*
X330083D02*
Y122249D01*
X328334Y120500D01*
X330666D01*
X331833Y119334D02*
X332416Y118751D01*
X333582D01*
X334165Y119334D01*
Y121666D01*
X333582Y122249D01*
X332416D01*
X331833Y121666D01*
Y121083D01*
X332416Y120500D01*
X334165D01*
X325335Y94751D02*
Y98249D01*
X327084D01*
X327667Y97666D01*
Y96500D01*
X327084Y95917D01*
X325335D01*
X326501D02*
X327667Y94751D01*
X330583D02*
Y98249D01*
X328834Y96500D01*
X331166D01*
X334665Y98249D02*
X333499Y97666D01*
X332333Y96500D01*
Y95334D01*
X332916Y94751D01*
X334082D01*
X334665Y95334D01*
Y95917D01*
X334082Y96500D01*
X332333D01*
X337210Y75751D02*
Y79249D01*
X338959D01*
X339542Y78666D01*
Y77500D01*
X338959Y76917D01*
X337210D01*
X340708Y75751D02*
X341875D01*
X341292D01*
Y79249D01*
X340708Y78666D01*
X343624Y75751D02*
X344790D01*
X344207D01*
Y79249D01*
X343624Y78666D01*
X289898Y85174D02*
Y88673D01*
X291648D01*
X292231Y88090D01*
Y86923D01*
X291648Y86340D01*
X289898D01*
X291065D02*
X292231Y85174D01*
X295147D02*
Y88673D01*
X293397Y86923D01*
X295730D01*
X299229Y85174D02*
X296896D01*
X299229Y87506D01*
Y88090D01*
X298646Y88673D01*
X297479D01*
X296896Y88090D01*
X224710Y196749D02*
Y193834D01*
X225293Y193251D01*
X226459D01*
X227042Y193834D01*
Y196749D01*
X228208Y193251D02*
X229375D01*
X228792D01*
Y196749D01*
X228208Y196166D01*
X231124Y193251D02*
X232290D01*
X231707D01*
Y196749D01*
X231124Y196166D01*
X243835Y190751D02*
Y194249D01*
X245584D01*
X246167Y193666D01*
Y192500D01*
X245584Y191917D01*
X243835D01*
X245001D02*
X246167Y190751D01*
X249666Y194249D02*
X247334D01*
Y192500D01*
X248500Y193083D01*
X249083D01*
X249666Y192500D01*
Y191334D01*
X249083Y190751D01*
X247917D01*
X247334Y191334D01*
X250833Y193666D02*
X251416Y194249D01*
X252582D01*
X253165Y193666D01*
Y191334D01*
X252582Y190751D01*
X251416D01*
X250833Y191334D01*
Y193666D01*
X201667Y173166D02*
X201084Y173749D01*
X199918D01*
X199335Y173166D01*
Y170834D01*
X199918Y170251D01*
X201084D01*
X201667Y170834D01*
X202834Y173166D02*
X203417Y173749D01*
X204583D01*
X205166Y173166D01*
Y172583D01*
X204583Y172000D01*
X204000D01*
X204583D01*
X205166Y171417D01*
Y170834D01*
X204583Y170251D01*
X203417D01*
X202834Y170834D01*
X208665Y173749D02*
X207499Y173166D01*
X206333Y172000D01*
Y170834D01*
X206916Y170251D01*
X208082D01*
X208665Y170834D01*
Y171417D01*
X208082Y172000D01*
X206333D01*
X316335Y231251D02*
Y234749D01*
X318084D01*
X318667Y234166D01*
Y233000D01*
X318084Y232417D01*
X316335D01*
X317501D02*
X318667Y231251D01*
X321583D02*
Y234749D01*
X319834Y233000D01*
X322166D01*
X323333Y234166D02*
X323916Y234749D01*
X325082D01*
X325665Y234166D01*
Y233583D01*
X325082Y233000D01*
X325665Y232417D01*
Y231834D01*
X325082Y231251D01*
X323916D01*
X323333Y231834D01*
Y232417D01*
X323916Y233000D01*
X323333Y233583D01*
Y234166D01*
X323916Y233000D02*
X325082D01*
X259626Y83749D02*
Y80251D01*
X261376D01*
X261959Y80834D01*
Y83166D01*
X261376Y83749D01*
X259626D01*
X263125Y80251D02*
X264292D01*
X263708D01*
Y83749D01*
X263125Y83166D01*
X268374Y83749D02*
X267207Y83166D01*
X266041Y82000D01*
Y80834D01*
X266624Y80251D01*
X267790D01*
X268374Y80834D01*
Y81417D01*
X267790Y82000D01*
X266041D01*
X316626Y226186D02*
Y222688D01*
X318376D01*
X318959Y223271D01*
Y225603D01*
X318376Y226186D01*
X316626D01*
X320125Y222688D02*
X321292D01*
X320708D01*
Y226186D01*
X320125Y225603D01*
X325374Y226186D02*
X323041D01*
Y224437D01*
X324207Y225020D01*
X324790D01*
X325374Y224437D01*
Y223271D01*
X324790Y222688D01*
X323624D01*
X323041Y223271D01*
X327584Y193093D02*
Y196592D01*
X329334D01*
X329917Y196009D01*
Y194843D01*
X329334Y194259D01*
X327584D01*
X331083Y193676D02*
X331666Y193093D01*
X332833D01*
X333416Y193676D01*
Y196009D01*
X332833Y196592D01*
X331666D01*
X331083Y196009D01*
Y195426D01*
X331666Y194843D01*
X333416D01*
X313584Y118251D02*
Y121749D01*
X315334D01*
X315917Y121166D01*
Y120000D01*
X315334Y119417D01*
X313584D01*
X319416Y121749D02*
X318249Y121166D01*
X317083Y120000D01*
Y118834D01*
X317666Y118251D01*
X318833D01*
X319416Y118834D01*
Y119417D01*
X318833Y120000D01*
X317083D01*
X276500Y137334D02*
Y139666D01*
X275917Y140249D01*
X274751D01*
X274167Y139666D01*
Y137334D01*
X274751Y136751D01*
X275917D01*
X275334Y137917D02*
X276500Y136751D01*
X275917D02*
X276500Y137334D01*
X277666Y136751D02*
X278833D01*
X278249D01*
Y140249D01*
X277666Y139666D01*
X266300Y106769D02*
Y110268D01*
X268049D01*
X268632Y109685D01*
Y108518D01*
X268049Y107935D01*
X266300D01*
X267466D02*
X268632Y106769D01*
X271548D02*
Y110268D01*
X269798Y108518D01*
X272131D01*
X273297Y110268D02*
X275630D01*
Y109685D01*
X273297Y107352D01*
Y106769D01*
X255835Y131751D02*
Y135249D01*
X257584D01*
X258167Y134666D01*
Y133500D01*
X257584Y132917D01*
X255835D01*
X257001D02*
X258167Y131751D01*
X259334Y134666D02*
X259917Y135249D01*
X261083D01*
X261666Y134666D01*
Y134083D01*
X261083Y133500D01*
X260500D01*
X261083D01*
X261666Y132917D01*
Y132334D01*
X261083Y131751D01*
X259917D01*
X259334Y132334D01*
X265165Y131751D02*
X262833D01*
X265165Y134083D01*
Y134666D01*
X264582Y135249D01*
X263416D01*
X262833Y134666D01*
X253917Y105980D02*
Y108313D01*
X253334Y108896D01*
X252167D01*
X251584Y108313D01*
Y105980D01*
X252167Y105397D01*
X253334D01*
X252751Y106563D02*
X253917Y105397D01*
X253334D02*
X253917Y105980D01*
X256833Y105397D02*
Y108896D01*
X255083Y107147D01*
X257416D01*
X297126Y121749D02*
Y118251D01*
X298876D01*
X299459Y118834D01*
Y121166D01*
X298876Y121749D01*
X297126D01*
X300625Y118251D02*
X301792D01*
X301208D01*
Y121749D01*
X300625Y121166D01*
X305290Y118251D02*
Y121749D01*
X303541Y120000D01*
X305874D01*
X241126Y127249D02*
Y123751D01*
X242876D01*
X243459Y124334D01*
Y126666D01*
X242876Y127249D01*
X241126D01*
X244625Y123751D02*
X245792D01*
X245208D01*
Y127249D01*
X244625Y126666D01*
X247541D02*
X248124Y127249D01*
X249290D01*
X249874Y126666D01*
Y126083D01*
X249290Y125500D01*
X248707D01*
X249290D01*
X249874Y124917D01*
Y124334D01*
X249290Y123751D01*
X248124D01*
X247541Y124334D01*
X192877Y162749D02*
X195210D01*
X194043D01*
Y159251D01*
X196376D02*
Y162749D01*
X198125D01*
X198708Y162166D01*
Y161000D01*
X198125Y160417D01*
X196376D01*
X199875Y159251D02*
X201041D01*
X200458D01*
Y162749D01*
X199875Y162166D01*
X204540Y159251D02*
Y162749D01*
X202790Y161000D01*
X205123D01*
X213773Y138749D02*
X216105D01*
X214939D01*
Y135251D01*
X217271D02*
Y138749D01*
X219021D01*
X219604Y138166D01*
Y137000D01*
X219021Y136417D01*
X217271D01*
X220770Y135251D02*
X221937D01*
X221354D01*
Y138749D01*
X220770Y138166D01*
X223686D02*
X224269Y138749D01*
X225435D01*
X226019Y138166D01*
Y137583D01*
X225435Y137000D01*
X224852D01*
X225435D01*
X226019Y136417D01*
Y135834D01*
X225435Y135251D01*
X224269D01*
X223686Y135834D01*
X229377Y152749D02*
X231710D01*
X230543D01*
Y149251D01*
X232876D02*
Y152749D01*
X234625D01*
X235208Y152166D01*
Y151000D01*
X234625Y150417D01*
X232876D01*
X236375Y149251D02*
X237541D01*
X236958D01*
Y152749D01*
X236375Y152166D01*
X241623Y149251D02*
X239290D01*
X241623Y151583D01*
Y152166D01*
X241040Y152749D01*
X239874D01*
X239290Y152166D01*
X156460Y149749D02*
X158793D01*
X157626D01*
Y146251D01*
X159959D02*
Y149749D01*
X161708D01*
X162292Y149166D01*
Y148000D01*
X161708Y147417D01*
X159959D01*
X163458Y146251D02*
X164624D01*
X164041D01*
Y149749D01*
X163458Y149166D01*
X166374Y146251D02*
X167540D01*
X166957D01*
Y149749D01*
X166374Y149166D01*
X158362Y144364D02*
X160695D01*
X159529D01*
Y140865D01*
X161861D02*
Y144364D01*
X163611D01*
X164194Y143781D01*
Y142615D01*
X163611Y142032D01*
X161861D01*
X165360Y140865D02*
X166526D01*
X165943D01*
Y144364D01*
X165360Y143781D01*
X168276D02*
X168859Y144364D01*
X170025D01*
X170608Y143781D01*
Y141448D01*
X170025Y140865D01*
X168859D01*
X168276Y141448D01*
Y143781D01*
X314335Y42249D02*
X316667D01*
X315501D01*
Y38751D01*
X317834D02*
Y42249D01*
X319583D01*
X320166Y41666D01*
Y40500D01*
X319583Y39917D01*
X317834D01*
X321333Y39334D02*
X321916Y38751D01*
X323082D01*
X323665Y39334D01*
Y41666D01*
X323082Y42249D01*
X321916D01*
X321333Y41666D01*
Y41083D01*
X321916Y40500D01*
X323665D01*
X321335Y155249D02*
X323667D01*
X322501D01*
Y151751D01*
X324834D02*
Y155249D01*
X326583D01*
X327166Y154666D01*
Y153500D01*
X326583Y152917D01*
X324834D01*
X328333Y154666D02*
X328916Y155249D01*
X330082D01*
X330665Y154666D01*
Y154083D01*
X330082Y153500D01*
X330665Y152917D01*
Y152334D01*
X330082Y151751D01*
X328916D01*
X328333Y152334D01*
Y152917D01*
X328916Y153500D01*
X328333Y154083D01*
Y154666D01*
X328916Y153500D02*
X330082D01*
X320335Y210749D02*
X322667D01*
X321501D01*
Y207251D01*
X323834D02*
Y210749D01*
X325583D01*
X326166Y210166D01*
Y209000D01*
X325583Y208417D01*
X323834D01*
X327333Y210749D02*
X329665D01*
Y210166D01*
X327333Y207834D01*
Y207251D01*
X166417Y33166D02*
X165834Y33749D01*
X164667D01*
X164084Y33166D01*
Y32583D01*
X164667Y32000D01*
X165834D01*
X166417Y31417D01*
Y30834D01*
X165834Y30251D01*
X164667D01*
X164084Y30834D01*
X167583Y33166D02*
X168166Y33749D01*
X169333D01*
X169916Y33166D01*
Y32583D01*
X169333Y32000D01*
X168749D01*
X169333D01*
X169916Y31417D01*
Y30834D01*
X169333Y30251D01*
X168166D01*
X167583Y30834D01*
X84335Y184251D02*
Y187749D01*
X86084D01*
X86667Y187166D01*
Y186000D01*
X86084Y185417D01*
X84335D01*
X85501D02*
X86667Y184251D01*
X89583D02*
Y187749D01*
X87834Y186000D01*
X90166D01*
X93665Y187749D02*
X91333D01*
Y186000D01*
X92499Y186583D01*
X93082D01*
X93665Y186000D01*
Y184834D01*
X93082Y184251D01*
X91916D01*
X91333Y184834D01*
X69519Y209251D02*
Y212749D01*
X71268D01*
X71851Y212166D01*
Y211000D01*
X71268Y210417D01*
X69519D01*
X70685D02*
X71851Y209251D01*
X74767D02*
Y212749D01*
X73018Y211000D01*
X75350D01*
X78266Y209251D02*
Y212749D01*
X76517Y211000D01*
X78849D01*
X74019Y222251D02*
Y225749D01*
X75768D01*
X76351Y225166D01*
Y224000D01*
X75768Y223417D01*
X74019D01*
X75185D02*
X76351Y222251D01*
X79267D02*
Y225749D01*
X77518Y224000D01*
X79850D01*
X81017Y225166D02*
X81600Y225749D01*
X82766D01*
X83349Y225166D01*
Y224583D01*
X82766Y224000D01*
X82183D01*
X82766D01*
X83349Y223417D01*
Y222834D01*
X82766Y222251D01*
X81600D01*
X81017Y222834D01*
X73710Y203249D02*
X74876D01*
X74293D01*
Y199751D01*
X73710D01*
X74876D01*
X78958Y202666D02*
X78375Y203249D01*
X77208D01*
X76625Y202666D01*
Y200334D01*
X77208Y199751D01*
X78375D01*
X78958Y200334D01*
X80124Y199751D02*
X81290D01*
X80707D01*
Y203249D01*
X80124Y202666D01*
X106420Y199166D02*
X105837Y199749D01*
X104671D01*
X104088Y199166D01*
Y196834D01*
X104671Y196251D01*
X105837D01*
X106420Y196834D01*
X109336Y196251D02*
Y199749D01*
X107587Y198000D01*
X109919D01*
X113418Y199749D02*
X111086D01*
Y198000D01*
X112252Y198583D01*
X112835D01*
X113418Y198000D01*
Y196834D01*
X112835Y196251D01*
X111669D01*
X111086Y196834D01*
X155335Y230749D02*
X157667D01*
X156501D01*
Y227251D01*
X158834D02*
Y230749D01*
X160583D01*
X161166Y230166D01*
Y229000D01*
X160583Y228417D01*
X158834D01*
X164665Y230749D02*
X163499Y230166D01*
X162333Y229000D01*
Y227834D01*
X162916Y227251D01*
X164082D01*
X164665Y227834D01*
Y228417D01*
X164082Y229000D01*
X162333D01*
X308835Y269749D02*
X311167D01*
X310001D01*
Y266251D01*
X312334D02*
Y269749D01*
X314083D01*
X314666Y269166D01*
Y268000D01*
X314083Y267417D01*
X312334D01*
X318165Y269749D02*
X315833D01*
Y268000D01*
X316999Y268583D01*
X317582D01*
X318165Y268000D01*
Y266834D01*
X317582Y266251D01*
X316416D01*
X315833Y266834D01*
X199626Y35249D02*
Y32334D01*
X200210Y31751D01*
X201376D01*
X201959Y32334D01*
Y35249D01*
X203125Y31751D02*
X204292D01*
X203708D01*
Y35249D01*
X203125Y34666D01*
X206041D02*
X206624Y35249D01*
X207790D01*
X208374Y34666D01*
Y32334D01*
X207790Y31751D01*
X206624D01*
X206041Y32334D01*
Y34666D01*
X272418Y67749D02*
X274751D01*
X273584D01*
Y64251D01*
X275917D02*
Y67749D01*
X277666D01*
X278249Y67166D01*
Y66000D01*
X277666Y65417D01*
X275917D01*
X279416Y64251D02*
X280582D01*
X279999D01*
Y67749D01*
X279416Y67166D01*
X217918Y26251D02*
Y29749D01*
X219667D01*
X220251Y29166D01*
Y28000D01*
X219667Y27417D01*
X217918D01*
X219084D02*
X220251Y26251D01*
X223166D02*
Y29749D01*
X221417Y28000D01*
X223749D01*
X224916Y26251D02*
X226082D01*
X225499D01*
Y29749D01*
X224916Y29166D01*
X314835Y193751D02*
Y197249D01*
X316584D01*
X317167Y196666D01*
Y195500D01*
X316584Y194917D01*
X314835D01*
X316001D02*
X317167Y193751D01*
X320083D02*
Y197249D01*
X318334Y195500D01*
X320666D01*
X321833Y196666D02*
X322416Y197249D01*
X323582D01*
X324165Y196666D01*
Y194334D01*
X323582Y193751D01*
X322416D01*
X321833Y194334D01*
Y196666D01*
X291335Y261751D02*
Y265249D01*
X293084D01*
X293667Y264666D01*
Y263500D01*
X293084Y262917D01*
X291335D01*
X292501D02*
X293667Y261751D01*
X294834Y264666D02*
X295417Y265249D01*
X296583D01*
X297166Y264666D01*
Y264083D01*
X296583Y263500D01*
X296000D01*
X296583D01*
X297166Y262917D01*
Y262334D01*
X296583Y261751D01*
X295417D01*
X294834Y262334D01*
X298333D02*
X298916Y261751D01*
X300082D01*
X300665Y262334D01*
Y264666D01*
X300082Y265249D01*
X298916D01*
X298333Y264666D01*
Y264083D01*
X298916Y263500D01*
X300665D01*
X251835Y85751D02*
Y89249D01*
X253584D01*
X254167Y88666D01*
Y87500D01*
X253584Y86917D01*
X251835D01*
X253001D02*
X254167Y85751D01*
X257666D02*
X255334D01*
X257666Y88083D01*
Y88666D01*
X257083Y89249D01*
X255917D01*
X255334Y88666D01*
X261165Y89249D02*
X258833D01*
Y87500D01*
X259999Y88083D01*
X260582D01*
X261165Y87500D01*
Y86334D01*
X260582Y85751D01*
X259416D01*
X258833Y86334D01*
X259126Y12249D02*
Y8751D01*
X260876D01*
X261459Y9334D01*
Y11666D01*
X260876Y12249D01*
X259126D01*
X262625Y8751D02*
X263792D01*
X263208D01*
Y12249D01*
X262625Y11666D01*
X267874Y8751D02*
X265541D01*
X267874Y11083D01*
Y11666D01*
X267290Y12249D01*
X266124D01*
X265541Y11666D01*
X258710Y6552D02*
Y3053D01*
X260459D01*
X261042Y3636D01*
Y5968D01*
X260459Y6552D01*
X258710D01*
X262208Y3053D02*
X263375D01*
X262792D01*
Y6552D01*
X262208Y5968D01*
X265124Y3053D02*
X266290D01*
X265707D01*
Y6552D01*
X265124Y5968D01*
X260721Y63249D02*
Y59751D01*
X262470D01*
X263053Y60334D01*
Y62666D01*
X262470Y63249D01*
X260721D01*
X264220Y59751D02*
X265386D01*
X264803D01*
Y63249D01*
X264220Y62666D01*
X267136D02*
X267719Y63249D01*
X268885D01*
X269468Y62666D01*
Y60334D01*
X268885Y59751D01*
X267719D01*
X267136Y60334D01*
Y62666D01*
X257584Y43534D02*
Y40035D01*
X259334D01*
X259917Y40618D01*
Y42951D01*
X259334Y43534D01*
X257584D01*
X261083Y40618D02*
X261666Y40035D01*
X262833D01*
X263416Y40618D01*
Y42951D01*
X262833Y43534D01*
X261666D01*
X261083Y42951D01*
Y42368D01*
X261666Y41785D01*
X263416D01*
X170084Y297459D02*
Y293960D01*
X171834D01*
X172417Y294543D01*
Y296876D01*
X171834Y297459D01*
X170084D01*
X173583Y296876D02*
X174166Y297459D01*
X175333D01*
X175916Y296876D01*
Y296293D01*
X175333Y295710D01*
X175916Y295127D01*
Y294543D01*
X175333Y293960D01*
X174166D01*
X173583Y294543D01*
Y295127D01*
X174166Y295710D01*
X173583Y296293D01*
Y296876D01*
X174166Y295710D02*
X175333D01*
X245667Y227241D02*
X245084Y227824D01*
X243918D01*
X243335Y227241D01*
Y224908D01*
X243918Y224325D01*
X245084D01*
X245667Y224908D01*
X246834Y227241D02*
X247417Y227824D01*
X248583D01*
X249166Y227241D01*
Y226658D01*
X248583Y226075D01*
X248000D01*
X248583D01*
X249166Y225492D01*
Y224908D01*
X248583Y224325D01*
X247417D01*
X246834Y224908D01*
X250333D02*
X250916Y224325D01*
X252082D01*
X252665Y224908D01*
Y227241D01*
X252082Y227824D01*
X250916D01*
X250333Y227241D01*
Y226658D01*
X250916Y226075D01*
X252665D01*
X8084Y117751D02*
Y121249D01*
X9834D01*
X10417Y120666D01*
Y119500D01*
X9834Y118917D01*
X8084D01*
X11583Y121249D02*
X13916D01*
Y120666D01*
X11583Y118334D01*
Y117751D01*
X37138Y285348D02*
Y288847D01*
X38887D01*
X39470Y288264D01*
Y287098D01*
X38887Y286514D01*
X37138D01*
X40637Y285348D02*
X41803D01*
X41220D01*
Y288847D01*
X40637Y288264D01*
X45885Y285348D02*
X43552D01*
X45885Y287681D01*
Y288264D01*
X45302Y288847D01*
X44135D01*
X43552Y288264D01*
X215959Y284666D02*
X215376Y285249D01*
X214210D01*
X213626Y284666D01*
Y282334D01*
X214210Y281751D01*
X215376D01*
X215959Y282334D01*
X217125Y281751D02*
X218292D01*
X217708D01*
Y285249D01*
X217125Y284666D01*
X222374Y285249D02*
X220041D01*
Y283500D01*
X221207Y284083D01*
X221790D01*
X222374Y283500D01*
Y282334D01*
X221790Y281751D01*
X220624D01*
X220041Y282334D01*
X252677Y65275D02*
Y67607D01*
X252094Y68190D01*
X250927D01*
X250344Y67607D01*
Y65275D01*
X250927Y64692D01*
X252094D01*
X251510Y65858D02*
X252677Y64692D01*
X252094D02*
X252677Y65275D01*
X253843Y67607D02*
X254426Y68190D01*
X255592D01*
X256176Y67607D01*
Y67024D01*
X255592Y66441D01*
X255009D01*
X255592D01*
X256176Y65858D01*
Y65275D01*
X255592Y64692D01*
X254426D01*
X253843Y65275D01*
X196647Y276749D02*
Y273834D01*
X197230Y273251D01*
X198396D01*
X198979Y273834D01*
Y276749D01*
X201895Y273251D02*
Y276749D01*
X200146Y275000D01*
X202478D01*
X130084Y56249D02*
Y53334D01*
X130667Y52751D01*
X131834D01*
X132417Y53334D01*
Y56249D01*
X133583D02*
X135916D01*
Y55666D01*
X133583Y53334D01*
Y52751D01*
X266140Y92234D02*
Y94567D01*
X265557Y95150D01*
X264390D01*
X263807Y94567D01*
Y92234D01*
X264390Y91651D01*
X265557D01*
X264973Y92817D02*
X266140Y91651D01*
X265557D02*
X266140Y92234D01*
X269639Y91651D02*
X267306D01*
X269639Y93984D01*
Y94567D01*
X269055Y95150D01*
X267889D01*
X267306Y94567D01*
X101710Y96251D02*
Y99749D01*
X103459D01*
X104042Y99166D01*
Y98000D01*
X103459Y97417D01*
X101710D01*
X102876D02*
X104042Y96251D01*
X105208D02*
X106375D01*
X105792D01*
Y99749D01*
X105208Y99166D01*
X108124Y96251D02*
X109290D01*
X108707D01*
Y99749D01*
X108124Y99166D01*
X112084Y208357D02*
Y205441D01*
X112667Y204858D01*
X113834D01*
X114417Y205441D01*
Y208357D01*
X117916D02*
X116749Y207774D01*
X115583Y206607D01*
Y205441D01*
X116166Y204858D01*
X117333D01*
X117916Y205441D01*
Y206024D01*
X117333Y206607D01*
X115583D01*
X123667Y212166D02*
X123084Y212749D01*
X121918D01*
X121335Y212166D01*
Y209834D01*
X121918Y209251D01*
X123084D01*
X123667Y209834D01*
X124834Y212166D02*
X125417Y212749D01*
X126583D01*
X127166Y212166D01*
Y211583D01*
X126583Y211000D01*
X126000D01*
X126583D01*
X127166Y210417D01*
Y209834D01*
X126583Y209251D01*
X125417D01*
X124834Y209834D01*
X130665Y209251D02*
X128333D01*
X130665Y211583D01*
Y212166D01*
X130082Y212749D01*
X128916D01*
X128333Y212166D01*
X235095Y64251D02*
Y67749D01*
X236844D01*
X237427Y67166D01*
Y66000D01*
X236844Y65417D01*
X235095D01*
X236261D02*
X237427Y64251D01*
X238594Y67166D02*
X239177Y67749D01*
X240343D01*
X240926Y67166D01*
Y66583D01*
X240343Y66000D01*
X239760D01*
X240343D01*
X240926Y65417D01*
Y64834D01*
X240343Y64251D01*
X239177D01*
X238594Y64834D01*
X242092Y67749D02*
X244425D01*
Y67166D01*
X242092Y64834D01*
Y64251D01*
X171302Y122156D02*
Y118657D01*
X173635D01*
X177133D02*
X174801D01*
X177133Y120990D01*
Y121573D01*
X176550Y122156D01*
X175384D01*
X174801Y121573D01*
X10418Y128249D02*
Y124751D01*
Y125917D01*
X12751Y128249D01*
X11001Y126500D01*
X12751Y124751D01*
X13917Y128249D02*
X16249D01*
X15083D01*
Y124751D01*
X17416D02*
X18582D01*
X17999D01*
Y128249D01*
X17416Y127666D01*
X55584Y173249D02*
Y169751D01*
X57334D01*
X57917Y170334D01*
Y172666D01*
X57334Y173249D01*
X55584D01*
X59083D02*
X61416D01*
Y172666D01*
X59083Y170334D01*
Y169751D01*
X292968Y103447D02*
Y99948D01*
X294717D01*
X295300Y100531D01*
Y102864D01*
X294717Y103447D01*
X292968D01*
X298799D02*
X297633Y102864D01*
X296467Y101697D01*
Y100531D01*
X297050Y99948D01*
X298216D01*
X298799Y100531D01*
Y101114D01*
X298216Y101697D01*
X296467D01*
X278084Y118749D02*
Y115251D01*
X279834D01*
X280417Y115834D01*
Y118166D01*
X279834Y118749D01*
X278084D01*
X283333Y115251D02*
Y118749D01*
X281583Y117000D01*
X283916D01*
X241167Y113749D02*
Y113166D01*
X242334Y112000D01*
X243500Y113166D01*
Y113749D01*
X242334Y112000D02*
Y110251D01*
X244666D02*
X245833D01*
X245249D01*
Y113749D01*
X244666Y113166D01*
X111584Y155284D02*
Y152368D01*
X112167Y151785D01*
X113334D01*
X113917Y152368D01*
Y155284D01*
X117416D02*
X115083D01*
Y153534D01*
X116249Y154118D01*
X116833D01*
X117416Y153534D01*
Y152368D01*
X116833Y151785D01*
X115666D01*
X115083Y152368D01*
X151584Y97249D02*
Y94334D01*
X152167Y93751D01*
X153334D01*
X153917Y94334D01*
Y97249D01*
X155083Y96666D02*
X155666Y97249D01*
X156833D01*
X157416Y96666D01*
Y96083D01*
X156833Y95500D01*
X156249D01*
X156833D01*
X157416Y94917D01*
Y94334D01*
X156833Y93751D01*
X155666D01*
X155083Y94334D01*
X242584Y49795D02*
Y46879D01*
X243167Y46296D01*
X244334D01*
X244917Y46879D01*
Y49795D01*
X248416Y46296D02*
X246083D01*
X248416Y48629D01*
Y49212D01*
X247833Y49795D01*
X246666D01*
X246083Y49212D01*
X235167Y61749D02*
Y58834D01*
X235751Y58251D01*
X236917D01*
X237500Y58834D01*
Y61749D01*
X238666Y58251D02*
X239833D01*
X239249D01*
Y61749D01*
X238666Y61166D01*
X266335Y299249D02*
X268667D01*
X267501D01*
Y295751D01*
X269834D02*
Y299249D01*
X271583D01*
X272166Y298666D01*
Y297500D01*
X271583Y296917D01*
X269834D01*
X275082Y295751D02*
Y299249D01*
X273333Y297500D01*
X275665D01*
X107335Y80749D02*
X109667D01*
X108501D01*
Y77251D01*
X110834D02*
Y80749D01*
X112583D01*
X113166Y80166D01*
Y79000D01*
X112583Y78417D01*
X110834D01*
X114333Y80166D02*
X114916Y80749D01*
X116082D01*
X116665Y80166D01*
Y79583D01*
X116082Y79000D01*
X115499D01*
X116082D01*
X116665Y78417D01*
Y77834D01*
X116082Y77251D01*
X114916D01*
X114333Y77834D01*
X91335Y50749D02*
X93667D01*
X92501D01*
Y47251D01*
X94834D02*
Y50749D01*
X96583D01*
X97166Y50166D01*
Y49000D01*
X96583Y48417D01*
X94834D01*
X100665Y47251D02*
X98333D01*
X100665Y49583D01*
Y50166D01*
X100082Y50749D01*
X98916D01*
X98333Y50166D01*
X89667Y119249D02*
X92000D01*
X90834D01*
Y115751D01*
X93166D02*
X94333D01*
X93749D01*
Y119249D01*
X93166Y118666D01*
X161000Y28166D02*
X160417Y28749D01*
X159251D01*
X158667Y28166D01*
Y27583D01*
X159251Y27000D01*
X160417D01*
X161000Y26417D01*
Y25834D01*
X160417Y25251D01*
X159251D01*
X158667Y25834D01*
X162166Y25251D02*
X163333D01*
X162749D01*
Y28749D01*
X162166Y28166D01*
X221418Y227751D02*
Y231249D01*
X223167D01*
X223751Y230666D01*
Y229500D01*
X223167Y228917D01*
X221418D01*
X222584D02*
X223751Y227751D01*
X224917Y231249D02*
X227249D01*
X226083D01*
Y227751D01*
X228416D02*
X229582D01*
X228999D01*
Y231249D01*
X228416Y230666D01*
X136335Y171251D02*
Y174749D01*
X138084D01*
X138667Y174166D01*
Y173000D01*
X138084Y172417D01*
X136335D01*
X137501D02*
X138667Y171251D01*
X139834Y174166D02*
X140417Y174749D01*
X141583D01*
X142166Y174166D01*
Y173583D01*
X141583Y173000D01*
X141000D01*
X141583D01*
X142166Y172417D01*
Y171834D01*
X141583Y171251D01*
X140417D01*
X139834Y171834D01*
X145665Y174749D02*
X144499Y174166D01*
X143333Y173000D01*
Y171834D01*
X143916Y171251D01*
X145082D01*
X145665Y171834D01*
Y172417D01*
X145082Y173000D01*
X143333D01*
X155835Y159751D02*
Y163249D01*
X157584D01*
X158167Y162666D01*
Y161500D01*
X157584Y160917D01*
X155835D01*
X157001D02*
X158167Y159751D01*
X159334Y162666D02*
X159917Y163249D01*
X161083D01*
X161666Y162666D01*
Y162083D01*
X161083Y161500D01*
X160500D01*
X161083D01*
X161666Y160917D01*
Y160334D01*
X161083Y159751D01*
X159917D01*
X159334Y160334D01*
X165165Y163249D02*
X162833D01*
Y161500D01*
X163999Y162083D01*
X164582D01*
X165165Y161500D01*
Y160334D01*
X164582Y159751D01*
X163416D01*
X162833Y160334D01*
X160835Y122751D02*
Y126249D01*
X162584D01*
X163167Y125666D01*
Y124500D01*
X162584Y123917D01*
X160835D01*
X162001D02*
X163167Y122751D01*
X164334Y125666D02*
X164917Y126249D01*
X166083D01*
X166666Y125666D01*
Y125083D01*
X166083Y124500D01*
X165500D01*
X166083D01*
X166666Y123917D01*
Y123334D01*
X166083Y122751D01*
X164917D01*
X164334Y123334D01*
X169582Y122751D02*
Y126249D01*
X167833Y124500D01*
X170165D01*
X117835Y118751D02*
Y122249D01*
X119584D01*
X120167Y121666D01*
Y120500D01*
X119584Y119917D01*
X117835D01*
X119001D02*
X120167Y118751D01*
X121334Y121666D02*
X121917Y122249D01*
X123083D01*
X123666Y121666D01*
Y121083D01*
X123083Y120500D01*
X122500D01*
X123083D01*
X123666Y119917D01*
Y119334D01*
X123083Y118751D01*
X121917D01*
X121334Y119334D01*
X124833Y121666D02*
X125416Y122249D01*
X126582D01*
X127165Y121666D01*
Y121083D01*
X126582Y120500D01*
X125999D01*
X126582D01*
X127165Y119917D01*
Y119334D01*
X126582Y118751D01*
X125416D01*
X124833Y119334D01*
X110418Y124530D02*
Y128029D01*
X112167D01*
X112751Y127446D01*
Y126279D01*
X112167Y125696D01*
X110418D01*
X111584D02*
X112751Y124530D01*
X113917Y127446D02*
X114500Y128029D01*
X115666D01*
X116249Y127446D01*
Y126863D01*
X115666Y126279D01*
X115083D01*
X115666D01*
X116249Y125696D01*
Y125113D01*
X115666Y124530D01*
X114500D01*
X113917Y125113D01*
X117416Y124530D02*
X118582D01*
X117999D01*
Y128029D01*
X117416Y127446D01*
X263835Y85751D02*
Y89249D01*
X265584D01*
X266167Y88666D01*
Y87500D01*
X265584Y86917D01*
X263835D01*
X265001D02*
X266167Y85751D01*
X267334Y88666D02*
X267917Y89249D01*
X269083D01*
X269666Y88666D01*
Y88083D01*
X269083Y87500D01*
X268500D01*
X269083D01*
X269666Y86917D01*
Y86334D01*
X269083Y85751D01*
X267917D01*
X267334Y86334D01*
X270833Y88666D02*
X271416Y89249D01*
X272582D01*
X273165Y88666D01*
Y86334D01*
X272582Y85751D01*
X271416D01*
X270833Y86334D01*
Y88666D01*
X236335Y130251D02*
Y133749D01*
X238084D01*
X238667Y133166D01*
Y132000D01*
X238084Y131417D01*
X236335D01*
X237501D02*
X238667Y130251D01*
X242166D02*
X239834D01*
X242166Y132583D01*
Y133166D01*
X241583Y133749D01*
X240417D01*
X239834Y133166D01*
X243333Y130834D02*
X243916Y130251D01*
X245082D01*
X245665Y130834D01*
Y133166D01*
X245082Y133749D01*
X243916D01*
X243333Y133166D01*
Y132583D01*
X243916Y132000D01*
X245665D01*
X97738Y65040D02*
Y68539D01*
X99487D01*
X100071Y67956D01*
Y66790D01*
X99487Y66207D01*
X97738D01*
X98904D02*
X100071Y65040D01*
X103569D02*
X101237D01*
X103569Y67373D01*
Y67956D01*
X102986Y68539D01*
X101820D01*
X101237Y67956D01*
X104736D02*
X105319Y68539D01*
X106485D01*
X107068Y67956D01*
Y67373D01*
X106485Y66790D01*
X107068Y66207D01*
Y65623D01*
X106485Y65040D01*
X105319D01*
X104736Y65623D01*
Y66207D01*
X105319Y66790D01*
X104736Y67373D01*
Y67956D01*
X105319Y66790D02*
X106485D01*
X114335Y64216D02*
Y67715D01*
X116084D01*
X116667Y67132D01*
Y65966D01*
X116084Y65382D01*
X114335D01*
X115501D02*
X116667Y64216D01*
X120166D02*
X117834D01*
X120166Y66549D01*
Y67132D01*
X119583Y67715D01*
X118417D01*
X117834Y67132D01*
X121333Y67715D02*
X123665D01*
Y67132D01*
X121333Y64799D01*
Y64216D01*
X125835Y64716D02*
Y68215D01*
X127584D01*
X128167Y67632D01*
Y66466D01*
X127584Y65882D01*
X125835D01*
X127001D02*
X128167Y64716D01*
X131666D02*
X129334D01*
X131666Y67049D01*
Y67632D01*
X131083Y68215D01*
X129917D01*
X129334Y67632D01*
X135165Y68215D02*
X133999Y67632D01*
X132833Y66466D01*
Y65299D01*
X133416Y64716D01*
X134582D01*
X135165Y65299D01*
Y65882D01*
X134582Y66466D01*
X132833D01*
X158880Y1751D02*
Y5249D01*
X160630D01*
X161213Y4666D01*
Y3500D01*
X160630Y2917D01*
X158880D01*
X160046D02*
X161213Y1751D01*
X164712D02*
X162379D01*
X164712Y4083D01*
Y4666D01*
X164128Y5249D01*
X162962D01*
X162379Y4666D01*
X167627Y1751D02*
Y5249D01*
X165878Y3500D01*
X168210D01*
X182335Y157251D02*
Y160749D01*
X184084D01*
X184667Y160166D01*
Y159000D01*
X184084Y158417D01*
X182335D01*
X183501D02*
X184667Y157251D01*
X188166D02*
X185834D01*
X188166Y159583D01*
Y160166D01*
X187583Y160749D01*
X186417D01*
X185834Y160166D01*
X189333D02*
X189916Y160749D01*
X191082D01*
X191665Y160166D01*
Y159583D01*
X191082Y159000D01*
X190499D01*
X191082D01*
X191665Y158417D01*
Y157834D01*
X191082Y157251D01*
X189916D01*
X189333Y157834D01*
X108335Y163251D02*
Y166749D01*
X110084D01*
X110667Y166166D01*
Y165000D01*
X110084Y164417D01*
X108335D01*
X109501D02*
X110667Y163251D01*
X114166D02*
X111834D01*
X114166Y165583D01*
Y166166D01*
X113583Y166749D01*
X112417D01*
X111834Y166166D01*
X117665Y163251D02*
X115333D01*
X117665Y165583D01*
Y166166D01*
X117082Y166749D01*
X115916D01*
X115333Y166166D01*
X207418Y159251D02*
Y162749D01*
X209167D01*
X209751Y162166D01*
Y161000D01*
X209167Y160417D01*
X207418D01*
X208584D02*
X209751Y159251D01*
X213249D02*
X210917D01*
X213249Y161583D01*
Y162166D01*
X212666Y162749D01*
X211500D01*
X210917Y162166D01*
X214416Y159251D02*
X215582D01*
X214999D01*
Y162749D01*
X214416Y162166D01*
X108335Y157285D02*
Y160784D01*
X110084D01*
X110667Y160201D01*
Y159034D01*
X110084Y158451D01*
X108335D01*
X109501D02*
X110667Y157285D01*
X114166D02*
X111834D01*
X114166Y159618D01*
Y160201D01*
X113583Y160784D01*
X112417D01*
X111834Y160201D01*
X115333D02*
X115916Y160784D01*
X117082D01*
X117665Y160201D01*
Y157868D01*
X117082Y157285D01*
X115916D01*
X115333Y157868D01*
Y160201D01*
X93126Y285251D02*
Y288749D01*
X94876D01*
X95459Y288166D01*
Y287000D01*
X94876Y286417D01*
X93126D01*
X94293D02*
X95459Y285251D01*
X96625D02*
X97792D01*
X97208D01*
Y288749D01*
X96625Y288166D01*
X99541Y285834D02*
X100124Y285251D01*
X101290D01*
X101874Y285834D01*
Y288166D01*
X101290Y288749D01*
X100124D01*
X99541Y288166D01*
Y287583D01*
X100124Y287000D01*
X101874D01*
X223626Y154751D02*
Y158249D01*
X225376D01*
X225959Y157666D01*
Y156500D01*
X225376Y155917D01*
X223626D01*
X224793D02*
X225959Y154751D01*
X227125D02*
X228292D01*
X227708D01*
Y158249D01*
X227125Y157666D01*
X230041D02*
X230624Y158249D01*
X231790D01*
X232374Y157666D01*
Y157083D01*
X231790Y156500D01*
X232374Y155917D01*
Y155334D01*
X231790Y154751D01*
X230624D01*
X230041Y155334D01*
Y155917D01*
X230624Y156500D01*
X230041Y157083D01*
Y157666D01*
X230624Y156500D02*
X231790D01*
X172626Y145751D02*
Y149249D01*
X174376D01*
X174959Y148666D01*
Y147500D01*
X174376Y146917D01*
X172626D01*
X173793D02*
X174959Y145751D01*
X176125D02*
X177292D01*
X176708D01*
Y149249D01*
X176125Y148666D01*
X179041Y149249D02*
X181374D01*
Y148666D01*
X179041Y146334D01*
Y145751D01*
X176626Y263251D02*
Y266749D01*
X178376D01*
X178959Y266166D01*
Y265000D01*
X178376Y264417D01*
X176626D01*
X177793D02*
X178959Y263251D01*
X180125D02*
X181292D01*
X180708D01*
Y266749D01*
X180125Y266166D01*
X185374Y266749D02*
X184207Y266166D01*
X183041Y265000D01*
Y263834D01*
X183624Y263251D01*
X184790D01*
X185374Y263834D01*
Y264417D01*
X184790Y265000D01*
X183041D01*
X199626Y221751D02*
Y225249D01*
X201376D01*
X201959Y224666D01*
Y223500D01*
X201376Y222917D01*
X199626D01*
X200793D02*
X201959Y221751D01*
X203125D02*
X204292D01*
X203708D01*
Y225249D01*
X203125Y224666D01*
X208374Y225249D02*
X206041D01*
Y223500D01*
X207207Y224083D01*
X207790D01*
X208374Y223500D01*
Y222334D01*
X207790Y221751D01*
X206624D01*
X206041Y222334D01*
X199126Y227251D02*
Y230749D01*
X200876D01*
X201459Y230166D01*
Y229000D01*
X200876Y228417D01*
X199126D01*
X200293D02*
X201459Y227251D01*
X202625D02*
X203792D01*
X203208D01*
Y230749D01*
X202625Y230166D01*
X207290Y227251D02*
Y230749D01*
X205541Y229000D01*
X207874D01*
X180126Y240251D02*
Y243749D01*
X181876D01*
X182459Y243166D01*
Y242000D01*
X181876Y241417D01*
X180126D01*
X181293D02*
X182459Y240251D01*
X183625D02*
X184792D01*
X184208D01*
Y243749D01*
X183625Y243166D01*
X186541D02*
X187124Y243749D01*
X188290D01*
X188874Y243166D01*
Y242583D01*
X188290Y242000D01*
X187707D01*
X188290D01*
X188874Y241417D01*
Y240834D01*
X188290Y240251D01*
X187124D01*
X186541Y240834D01*
X150126Y118722D02*
Y122221D01*
X151876D01*
X152459Y121637D01*
Y120471D01*
X151876Y119888D01*
X150126D01*
X151293D02*
X152459Y118722D01*
X153625D02*
X154792D01*
X154208D01*
Y122221D01*
X153625Y121637D01*
X158874Y118722D02*
X156541D01*
X158874Y121054D01*
Y121637D01*
X158290Y122221D01*
X157124D01*
X156541Y121637D01*
X113626Y99251D02*
Y102749D01*
X115376D01*
X115959Y102166D01*
Y101000D01*
X115376Y100417D01*
X113626D01*
X114793D02*
X115959Y99251D01*
X117125D02*
X118292D01*
X117708D01*
Y102749D01*
X117125Y102166D01*
X120041D02*
X120624Y102749D01*
X121790D01*
X122374Y102166D01*
Y99834D01*
X121790Y99251D01*
X120624D01*
X120041Y99834D01*
Y102166D01*
X122702Y92251D02*
Y95749D01*
X124451D01*
X125035Y95166D01*
Y94000D01*
X124451Y93417D01*
X122702D01*
X123868D02*
X125035Y92251D01*
X126201Y92834D02*
X126784Y92251D01*
X127950D01*
X128533Y92834D01*
Y95166D01*
X127950Y95749D01*
X126784D01*
X126201Y95166D01*
Y94583D01*
X126784Y94000D01*
X128533D01*
X166084Y87251D02*
Y90749D01*
X167834D01*
X168417Y90166D01*
Y89000D01*
X167834Y88417D01*
X166084D01*
X167251D02*
X168417Y87251D01*
X169583Y90166D02*
X170166Y90749D01*
X171333D01*
X171916Y90166D01*
Y89583D01*
X171333Y89000D01*
X171916Y88417D01*
Y87834D01*
X171333Y87251D01*
X170166D01*
X169583Y87834D01*
Y88417D01*
X170166Y89000D01*
X169583Y89583D01*
Y90166D01*
X170166Y89000D02*
X171333D01*
X277246Y130298D02*
Y133797D01*
X278995D01*
X279579Y133213D01*
Y132047D01*
X278995Y131464D01*
X277246D01*
X278412D02*
X279579Y130298D01*
X280745Y133797D02*
X283078D01*
Y133213D01*
X280745Y130881D01*
Y130298D01*
X250956Y95648D02*
Y99146D01*
X252705D01*
X253289Y98563D01*
Y97397D01*
X252705Y96814D01*
X250956D01*
X252122D02*
X253289Y95648D01*
X256787Y99146D02*
X255621Y98563D01*
X254455Y97397D01*
Y96231D01*
X255038Y95648D01*
X256204D01*
X256787Y96231D01*
Y96814D01*
X256204Y97397D01*
X254455D01*
X257584Y45751D02*
Y49249D01*
X259334D01*
X259917Y48666D01*
Y47500D01*
X259334Y46917D01*
X257584D01*
X258751D02*
X259917Y45751D01*
X263416Y49249D02*
X261083D01*
Y47500D01*
X262249Y48083D01*
X262833D01*
X263416Y47500D01*
Y46334D01*
X262833Y45751D01*
X261666D01*
X261083Y46334D01*
X170084Y43751D02*
Y47249D01*
X171834D01*
X172417Y46666D01*
Y45500D01*
X171834Y44917D01*
X170084D01*
X171251D02*
X172417Y43751D01*
X175333D02*
Y47249D01*
X173583Y45500D01*
X175916D01*
X199584Y50751D02*
Y54249D01*
X201334D01*
X201917Y53666D01*
Y52500D01*
X201334Y51917D01*
X199584D01*
X200751D02*
X201917Y50751D01*
X203083Y53666D02*
X203666Y54249D01*
X204833D01*
X205416Y53666D01*
Y53083D01*
X204833Y52500D01*
X204249D01*
X204833D01*
X205416Y51917D01*
Y51334D01*
X204833Y50751D01*
X203666D01*
X203083Y51334D01*
X205584Y39751D02*
Y43249D01*
X207334D01*
X207917Y42666D01*
Y41500D01*
X207334Y40917D01*
X205584D01*
X206751D02*
X207917Y39751D01*
X211416D02*
X209083D01*
X211416Y42083D01*
Y42666D01*
X210833Y43249D01*
X209666D01*
X209083Y42666D01*
X208667Y119751D02*
Y123249D01*
X210417D01*
X211000Y122666D01*
Y121500D01*
X210417Y120917D01*
X208667D01*
X209834D02*
X211000Y119751D01*
X212166D02*
X213333D01*
X212749D01*
Y123249D01*
X212166Y122666D01*
X123763Y285348D02*
Y288847D01*
X125513D01*
X126096Y288264D01*
Y287098D01*
X125513Y286514D01*
X123763D01*
X127262Y285348D02*
X128428D01*
X127845D01*
Y288847D01*
X127262Y288264D01*
X131927Y285348D02*
Y288847D01*
X130178Y287098D01*
X132510D01*
X7584Y48251D02*
Y51749D01*
X9334D01*
X9917Y51166D01*
Y50000D01*
X9334Y49417D01*
X7584D01*
X11083Y51166D02*
X11666Y51749D01*
X12833D01*
X13416Y51166D01*
Y50583D01*
X12833Y50000D01*
X13416Y49417D01*
Y48834D01*
X12833Y48251D01*
X11666D01*
X11083Y48834D01*
Y49417D01*
X11666Y50000D01*
X11083Y50583D01*
Y51166D01*
X11666Y50000D02*
X12833D01*
X244255Y172362D02*
Y175861D01*
X246004D01*
X246587Y175277D01*
Y174111D01*
X246004Y173528D01*
X244255D01*
X250086Y175861D02*
X247754D01*
Y174111D01*
X248920Y174694D01*
X249503D01*
X250086Y174111D01*
Y172945D01*
X249503Y172362D01*
X248337D01*
X247754Y172945D01*
X310084Y133251D02*
Y136749D01*
X311834D01*
X312417Y136166D01*
Y135000D01*
X311834Y134417D01*
X310084D01*
X315333Y133251D02*
Y136749D01*
X313583Y135000D01*
X315916D01*
X277297Y175288D02*
Y178787D01*
X279047D01*
X279630Y178204D01*
Y177038D01*
X279047Y176454D01*
X277297D01*
X280796Y178204D02*
X281379Y178787D01*
X282546D01*
X283129Y178204D01*
Y177621D01*
X282546Y177038D01*
X281962D01*
X282546D01*
X283129Y176454D01*
Y175871D01*
X282546Y175288D01*
X281379D01*
X280796Y175871D01*
X295084Y28251D02*
Y31749D01*
X296834D01*
X297417Y31166D01*
Y30000D01*
X296834Y29417D01*
X295084D01*
X300916Y28251D02*
X298583D01*
X300916Y30583D01*
Y31166D01*
X300333Y31749D01*
X299166D01*
X298583Y31166D01*
X4167Y165251D02*
Y168749D01*
X5917D01*
X6500Y168166D01*
Y167000D01*
X5917Y166417D01*
X4167D01*
X7666Y165251D02*
X8833D01*
X8249D01*
Y168749D01*
X7666Y168166D01*
X278667Y290749D02*
Y287251D01*
X281000D01*
X282166D02*
X283333D01*
X282749D01*
Y290749D01*
X282166Y290166D01*
X144584Y194249D02*
Y191334D01*
X145167Y190751D01*
X146334D01*
X146917Y191334D01*
Y194249D01*
X148083Y191334D02*
X148666Y190751D01*
X149833D01*
X150416Y191334D01*
Y193666D01*
X149833Y194249D01*
X148666D01*
X148083Y193666D01*
Y193083D01*
X148666Y192500D01*
X150416D01*
X181084Y173249D02*
Y170334D01*
X181667Y169751D01*
X182834D01*
X183417Y170334D01*
Y173249D01*
X184583Y172666D02*
X185166Y173249D01*
X186333D01*
X186916Y172666D01*
Y172083D01*
X186333Y171500D01*
X186916Y170917D01*
Y170334D01*
X186333Y169751D01*
X185166D01*
X184583Y170334D01*
Y170917D01*
X185166Y171500D01*
X184583Y172083D01*
Y172666D01*
X185166Y171500D02*
X186333D01*
X233084Y105749D02*
Y102251D01*
X234834D01*
X235417Y102834D01*
Y105166D01*
X234834Y105749D01*
X233084D01*
X238916D02*
X236583D01*
Y104000D01*
X237749Y104583D01*
X238333D01*
X238916Y104000D01*
Y102834D01*
X238333Y102251D01*
X237166D01*
X236583Y102834D01*
X227084Y275749D02*
Y272251D01*
X228834D01*
X229417Y272834D01*
Y275166D01*
X228834Y275749D01*
X227084D01*
X230583Y275166D02*
X231166Y275749D01*
X232333D01*
X232916Y275166D01*
Y274583D01*
X232333Y274000D01*
X231749D01*
X232333D01*
X232916Y273417D01*
Y272834D01*
X232333Y272251D01*
X231166D01*
X230583Y272834D01*
X234584Y158249D02*
Y154751D01*
X236334D01*
X236917Y155334D01*
Y157666D01*
X236334Y158249D01*
X234584D01*
X240416Y154751D02*
X238083D01*
X240416Y157083D01*
Y157666D01*
X239833Y158249D01*
X238666D01*
X238083Y157666D01*
X171667Y39749D02*
Y36251D01*
X173417D01*
X174000Y36834D01*
Y39166D01*
X173417Y39749D01*
X171667D01*
X175166Y36251D02*
X176333D01*
X175749D01*
Y39749D01*
X175166Y39166D01*
X152167Y116166D02*
X151584Y116749D01*
X150418D01*
X149835Y116166D01*
Y113834D01*
X150418Y113251D01*
X151584D01*
X152167Y113834D01*
X153334Y116166D02*
X153917Y116749D01*
X155083D01*
X155666Y116166D01*
Y115583D01*
X155083Y115000D01*
X154500D01*
X155083D01*
X155666Y114417D01*
Y113834D01*
X155083Y113251D01*
X153917D01*
X153334Y113834D01*
X156833Y116166D02*
X157416Y116749D01*
X158582D01*
X159165Y116166D01*
Y115583D01*
X158582Y115000D01*
X159165Y114417D01*
Y113834D01*
X158582Y113251D01*
X157416D01*
X156833Y113834D01*
Y114417D01*
X157416Y115000D01*
X156833Y115583D01*
Y116166D01*
X157416Y115000D02*
X158582D01*
X201283Y125971D02*
X200699Y126554D01*
X199533D01*
X198950Y125971D01*
Y123638D01*
X199533Y123055D01*
X200699D01*
X201283Y123638D01*
X202449Y125971D02*
X203032Y126554D01*
X204198D01*
X204781Y125971D01*
Y125388D01*
X204198Y124804D01*
X203615D01*
X204198D01*
X204781Y124221D01*
Y123638D01*
X204198Y123055D01*
X203032D01*
X202449Y123638D01*
X205948Y126554D02*
X208280D01*
Y125971D01*
X205948Y123638D01*
Y123055D01*
X120167Y115666D02*
X119584Y116249D01*
X118418D01*
X117835Y115666D01*
Y113334D01*
X118418Y112751D01*
X119584D01*
X120167Y113334D01*
X121334Y115666D02*
X121917Y116249D01*
X123083D01*
X123666Y115666D01*
Y115083D01*
X123083Y114500D01*
X122500D01*
X123083D01*
X123666Y113917D01*
Y113334D01*
X123083Y112751D01*
X121917D01*
X121334Y113334D01*
X127165Y116249D02*
X124833D01*
Y114500D01*
X125999Y115083D01*
X126582D01*
X127165Y114500D01*
Y113334D01*
X126582Y112751D01*
X125416D01*
X124833Y113334D01*
X138167Y216666D02*
X137584Y217249D01*
X136418D01*
X135835Y216666D01*
Y214334D01*
X136418Y213751D01*
X137584D01*
X138167Y214334D01*
X139334Y216666D02*
X139917Y217249D01*
X141083D01*
X141666Y216666D01*
Y216083D01*
X141083Y215500D01*
X140500D01*
X141083D01*
X141666Y214917D01*
Y214334D01*
X141083Y213751D01*
X139917D01*
X139334Y214334D01*
X144582Y213751D02*
Y217249D01*
X142833Y215500D01*
X145165D01*
X144167Y208834D02*
X143584Y208251D01*
X142418D01*
X141835Y208834D01*
Y211166D01*
X142418Y211749D01*
X143584D01*
X144167Y211166D01*
X145334Y208834D02*
X145917Y208251D01*
X147083D01*
X147666Y208834D01*
Y209417D01*
X147083Y210000D01*
X146500D01*
X147083D01*
X147666Y210583D01*
Y211166D01*
X147083Y211749D01*
X145917D01*
X145334Y211166D01*
X148833Y208834D02*
X149416Y208251D01*
X150582D01*
X151165Y208834D01*
Y209417D01*
X150582Y210000D01*
X149999D01*
X150582D01*
X151165Y210583D01*
Y211166D01*
X150582Y211749D01*
X149416D01*
X148833Y211166D01*
X123751Y107666D02*
X123167Y108249D01*
X122001D01*
X121418Y107666D01*
Y105334D01*
X122001Y104751D01*
X123167D01*
X123751Y105334D01*
X124917Y107666D02*
X125500Y108249D01*
X126666D01*
X127249Y107666D01*
Y107083D01*
X126666Y106500D01*
X126083D01*
X126666D01*
X127249Y105917D01*
Y105334D01*
X126666Y104751D01*
X125500D01*
X124917Y105334D01*
X128416Y104751D02*
X129582D01*
X128999D01*
Y108249D01*
X128416Y107666D01*
X152167Y110666D02*
X151584Y111249D01*
X150418D01*
X149835Y110666D01*
Y108334D01*
X150418Y107751D01*
X151584D01*
X152167Y108334D01*
X153334Y110666D02*
X153917Y111249D01*
X155083D01*
X155666Y110666D01*
Y110083D01*
X155083Y109500D01*
X154500D01*
X155083D01*
X155666Y108917D01*
Y108334D01*
X155083Y107751D01*
X153917D01*
X153334Y108334D01*
X156833Y110666D02*
X157416Y111249D01*
X158582D01*
X159165Y110666D01*
Y108334D01*
X158582Y107751D01*
X157416D01*
X156833Y108334D01*
Y110666D01*
X173697Y16166D02*
X173114Y16749D01*
X171948D01*
X171364Y16166D01*
Y13834D01*
X171948Y13251D01*
X173114D01*
X173697Y13834D01*
X177196Y13251D02*
X174863D01*
X177196Y15583D01*
Y16166D01*
X176613Y16749D01*
X175446D01*
X174863Y16166D01*
X178362Y13834D02*
X178945Y13251D01*
X180112D01*
X180695Y13834D01*
Y16166D01*
X180112Y16749D01*
X178945D01*
X178362Y16166D01*
Y15583D01*
X178945Y15000D01*
X180695D01*
X199667Y167666D02*
X199084Y168249D01*
X197918D01*
X197335Y167666D01*
Y165334D01*
X197918Y164751D01*
X199084D01*
X199667Y165334D01*
X203166Y164751D02*
X200834D01*
X203166Y167083D01*
Y167666D01*
X202583Y168249D01*
X201417D01*
X200834Y167666D01*
X204333D02*
X204916Y168249D01*
X206082D01*
X206665Y167666D01*
Y167083D01*
X206082Y166500D01*
X206665Y165917D01*
Y165334D01*
X206082Y164751D01*
X204916D01*
X204333Y165334D01*
Y165917D01*
X204916Y166500D01*
X204333Y167083D01*
Y167666D01*
X204916Y166500D02*
X206082D01*
X205667Y156166D02*
X205084Y156749D01*
X203918D01*
X203335Y156166D01*
Y153834D01*
X203918Y153251D01*
X205084D01*
X205667Y153834D01*
X209166Y153251D02*
X206834D01*
X209166Y155583D01*
Y156166D01*
X208583Y156749D01*
X207417D01*
X206834Y156166D01*
X210333Y156749D02*
X212665D01*
Y156166D01*
X210333Y153834D01*
Y153251D01*
X219167Y163666D02*
X218584Y164249D01*
X217418D01*
X216835Y163666D01*
Y161334D01*
X217418Y160751D01*
X218584D01*
X219167Y161334D01*
X222666Y160751D02*
X220334D01*
X222666Y163083D01*
Y163666D01*
X222083Y164249D01*
X220917D01*
X220334Y163666D01*
X226165Y164249D02*
X224999Y163666D01*
X223833Y162500D01*
Y161334D01*
X224416Y160751D01*
X225582D01*
X226165Y161334D01*
Y161917D01*
X225582Y162500D01*
X223833D01*
X179667Y165785D02*
X179084Y166368D01*
X177918D01*
X177335Y165785D01*
Y163452D01*
X177918Y162869D01*
X179084D01*
X179667Y163452D01*
X183166Y162869D02*
X180834D01*
X183166Y165202D01*
Y165785D01*
X182583Y166368D01*
X181417D01*
X180834Y165785D01*
X186665Y166368D02*
X184333D01*
Y164619D01*
X185499Y165202D01*
X186082D01*
X186665Y164619D01*
Y163452D01*
X186082Y162869D01*
X184916D01*
X184333Y163452D01*
X184167Y220166D02*
X183584Y220749D01*
X182418D01*
X181835Y220166D01*
Y217834D01*
X182418Y217251D01*
X183584D01*
X184167Y217834D01*
X187666Y217251D02*
X185334D01*
X187666Y219583D01*
Y220166D01*
X187083Y220749D01*
X185917D01*
X185334Y220166D01*
X190582Y217251D02*
Y220749D01*
X188833Y219000D01*
X191165D01*
X202167Y219166D02*
X201584Y219749D01*
X200418D01*
X199835Y219166D01*
Y216834D01*
X200418Y216251D01*
X201584D01*
X202167Y216834D01*
X205666Y216251D02*
X203334D01*
X205666Y218583D01*
Y219166D01*
X205083Y219749D01*
X203917D01*
X203334Y219166D01*
X206833D02*
X207416Y219749D01*
X208582D01*
X209165Y219166D01*
Y218583D01*
X208582Y218000D01*
X207999D01*
X208582D01*
X209165Y217417D01*
Y216834D01*
X208582Y216251D01*
X207416D01*
X206833Y216834D01*
X148167Y224666D02*
X147584Y225249D01*
X146418D01*
X145835Y224666D01*
Y222334D01*
X146418Y221751D01*
X147584D01*
X148167Y222334D01*
X151666Y221751D02*
X149334D01*
X151666Y224083D01*
Y224666D01*
X151083Y225249D01*
X149917D01*
X149334Y224666D01*
X155165Y221751D02*
X152833D01*
X155165Y224083D01*
Y224666D01*
X154582Y225249D01*
X153416D01*
X152833Y224666D01*
X148251Y230166D02*
X147667Y230749D01*
X146501D01*
X145918Y230166D01*
Y227834D01*
X146501Y227251D01*
X147667D01*
X148251Y227834D01*
X151749Y227251D02*
X149417D01*
X151749Y229583D01*
Y230166D01*
X151166Y230749D01*
X150000D01*
X149417Y230166D01*
X152916Y227251D02*
X154082D01*
X153499D01*
Y230749D01*
X152916Y230166D01*
X234167Y233166D02*
X233584Y233749D01*
X232418D01*
X231835Y233166D01*
Y230834D01*
X232418Y230251D01*
X233584D01*
X234167Y230834D01*
X237666Y230251D02*
X235334D01*
X237666Y232583D01*
Y233166D01*
X237083Y233749D01*
X235917D01*
X235334Y233166D01*
X238833D02*
X239416Y233749D01*
X240582D01*
X241165Y233166D01*
Y230834D01*
X240582Y230251D01*
X239416D01*
X238833Y230834D01*
Y233166D01*
X200959Y235666D02*
X200376Y236249D01*
X199210D01*
X198626Y235666D01*
Y233334D01*
X199210Y232751D01*
X200376D01*
X200959Y233334D01*
X202125Y232751D02*
X203292D01*
X202708D01*
Y236249D01*
X202125Y235666D01*
X205041Y233334D02*
X205624Y232751D01*
X206790D01*
X207374Y233334D01*
Y235666D01*
X206790Y236249D01*
X205624D01*
X205041Y235666D01*
Y235083D01*
X205624Y234500D01*
X207374D01*
X196959Y288666D02*
X196376Y289249D01*
X195210D01*
X194626Y288666D01*
Y286334D01*
X195210Y285751D01*
X196376D01*
X196959Y286334D01*
X198125Y285751D02*
X199292D01*
X198708D01*
Y289249D01*
X198125Y288666D01*
X201041D02*
X201624Y289249D01*
X202790D01*
X203374Y288666D01*
Y288083D01*
X202790Y287500D01*
X203374Y286917D01*
Y286334D01*
X202790Y285751D01*
X201624D01*
X201041Y286334D01*
Y286917D01*
X201624Y287500D01*
X201041Y288083D01*
Y288666D01*
X201624Y287500D02*
X202790D01*
X223459Y238166D02*
X222876Y238749D01*
X221710D01*
X221126Y238166D01*
Y235834D01*
X221710Y235251D01*
X222876D01*
X223459Y235834D01*
X224625Y235251D02*
X225792D01*
X225208D01*
Y238749D01*
X224625Y238166D01*
X227541Y238749D02*
X229874D01*
Y238166D01*
X227541Y235834D01*
Y235251D01*
X168521Y288876D02*
X167938Y289459D01*
X166772D01*
X166189Y288876D01*
Y286543D01*
X166772Y285960D01*
X167938D01*
X168521Y286543D01*
X169688Y285960D02*
X170854D01*
X170271D01*
Y289459D01*
X169688Y288876D01*
X174936Y289459D02*
X173770Y288876D01*
X172603Y287710D01*
Y286543D01*
X173187Y285960D01*
X174353D01*
X174936Y286543D01*
Y287126D01*
X174353Y287710D01*
X172603D01*
X117959Y72166D02*
X117376Y72749D01*
X116210D01*
X115626Y72166D01*
Y69834D01*
X116210Y69251D01*
X117376D01*
X117959Y69834D01*
X119125Y69251D02*
X120292D01*
X119708D01*
Y72749D01*
X119125Y72166D01*
X123790Y69251D02*
Y72749D01*
X122041Y71000D01*
X124374D01*
X144459Y81666D02*
X143876Y82249D01*
X142710D01*
X142126Y81666D01*
Y79334D01*
X142710Y78751D01*
X143876D01*
X144459Y79334D01*
X145625Y78751D02*
X146792D01*
X146208D01*
Y82249D01*
X145625Y81666D01*
X148541D02*
X149124Y82249D01*
X150290D01*
X150874Y81666D01*
Y81083D01*
X150290Y80500D01*
X149707D01*
X150290D01*
X150874Y79917D01*
Y79334D01*
X150290Y78751D01*
X149124D01*
X148541Y79334D01*
X220881Y7166D02*
X220298Y7749D01*
X219131D01*
X218548Y7166D01*
Y4834D01*
X219131Y4251D01*
X220298D01*
X220881Y4834D01*
X222047Y4251D02*
X223214D01*
X222630D01*
Y7749D01*
X222047Y7166D01*
X227295Y4251D02*
X224963D01*
X227295Y6583D01*
Y7166D01*
X226712Y7749D01*
X225546D01*
X224963Y7166D01*
X232042Y14666D02*
X231459Y15249D01*
X230293D01*
X229710Y14666D01*
Y12334D01*
X230293Y11751D01*
X231459D01*
X232042Y12334D01*
X233208Y11751D02*
X234375D01*
X233792D01*
Y15249D01*
X233208Y14666D01*
X236124Y11751D02*
X237290D01*
X236707D01*
Y15249D01*
X236124Y14666D01*
X232959Y86166D02*
X232376Y86749D01*
X231210D01*
X230626Y86166D01*
Y83834D01*
X231210Y83251D01*
X232376D01*
X232959Y83834D01*
X234125Y83251D02*
X235292D01*
X234708D01*
Y86749D01*
X234125Y86166D01*
X237041D02*
X237624Y86749D01*
X238790D01*
X239374Y86166D01*
Y83834D01*
X238790Y83251D01*
X237624D01*
X237041Y83834D01*
Y86166D01*
X217313Y132310D02*
X216729Y132893D01*
X215563D01*
X214980Y132310D01*
Y129977D01*
X215563Y129394D01*
X216729D01*
X217313Y129977D01*
X218479D02*
X219062Y129394D01*
X220228D01*
X220811Y129977D01*
Y132310D01*
X220228Y132893D01*
X219062D01*
X218479Y132310D01*
Y131727D01*
X219062Y131144D01*
X220811D01*
X230917Y132666D02*
X230334Y133249D01*
X229167D01*
X228584Y132666D01*
Y130334D01*
X229167Y129751D01*
X230334D01*
X230917Y130334D01*
X232083Y132666D02*
X232666Y133249D01*
X233833D01*
X234416Y132666D01*
Y132083D01*
X233833Y131500D01*
X234416Y130917D01*
Y130334D01*
X233833Y129751D01*
X232666D01*
X232083Y130334D01*
Y130917D01*
X232666Y131500D01*
X232083Y132083D01*
Y132666D01*
X232666Y131500D02*
X233833D01*
X236917Y55666D02*
X236334Y56249D01*
X235167D01*
X234584Y55666D01*
Y53334D01*
X235167Y52751D01*
X236334D01*
X236917Y53334D01*
X238083Y56249D02*
X240416D01*
Y55666D01*
X238083Y53334D01*
Y52751D01*
X172917Y53166D02*
X172334Y53749D01*
X171167D01*
X170584Y53166D01*
Y50834D01*
X171167Y50251D01*
X172334D01*
X172917Y50834D01*
X176416Y53749D02*
X175249Y53166D01*
X174083Y52000D01*
Y50834D01*
X174666Y50251D01*
X175833D01*
X176416Y50834D01*
Y51417D01*
X175833Y52000D01*
X174083D01*
X172417Y107666D02*
X171834Y108249D01*
X170667D01*
X170084Y107666D01*
Y105334D01*
X170667Y104751D01*
X171834D01*
X172417Y105334D01*
X175916Y108249D02*
X173583D01*
Y106500D01*
X174749Y107083D01*
X175333D01*
X175916Y106500D01*
Y105334D01*
X175333Y104751D01*
X174166D01*
X173583Y105334D01*
X201417Y112166D02*
X200834Y112749D01*
X199667D01*
X199084Y112166D01*
Y109834D01*
X199667Y109251D01*
X200834D01*
X201417Y109834D01*
X204333Y109251D02*
Y112749D01*
X202583Y111000D01*
X204916D01*
X207917Y48666D02*
X207334Y49249D01*
X206167D01*
X205584Y48666D01*
Y46334D01*
X206167Y45751D01*
X207334D01*
X207917Y46334D01*
X209083Y48666D02*
X209666Y49249D01*
X210833D01*
X211416Y48666D01*
Y48083D01*
X210833Y47500D01*
X210249D01*
X210833D01*
X211416Y46917D01*
Y46334D01*
X210833Y45751D01*
X209666D01*
X209083Y46334D01*
X170417Y73666D02*
X169834Y74249D01*
X168667D01*
X168084Y73666D01*
Y71334D01*
X168667Y70751D01*
X169834D01*
X170417Y71334D01*
X173916Y70751D02*
X171583D01*
X173916Y73083D01*
Y73666D01*
X173333Y74249D01*
X172166D01*
X171583Y73666D01*
X201500Y118666D02*
X200917Y119249D01*
X199751D01*
X199167Y118666D01*
Y116334D01*
X199751Y115751D01*
X200917D01*
X201500Y116334D01*
X202666Y115751D02*
X203833D01*
X203249D01*
Y119249D01*
X202666Y118666D01*
M02*
