G04*
G04 #@! TF.GenerationSoftware,Altium Limited,Altium Designer,21.8.1 (53)*
G04*
G04 Layer_Color=255*
%FSLAX25Y25*%
%MOIN*%
G70*
G04*
G04 #@! TF.SameCoordinates,67586CA8-3494-4C59-B5DC-5B9CAF07B576*
G04*
G04*
G04 #@! TF.FilePolarity,Positive*
G04*
G01*
G75*
%ADD103O,0.07874X0.06693*%
G04:AMPARAMS|DCode=104|XSize=66.93mil|YSize=78.74mil|CornerRadius=16.73mil|HoleSize=0mil|Usage=FLASHONLY|Rotation=90.000|XOffset=0mil|YOffset=0mil|HoleType=Round|Shape=RoundedRectangle|*
%AMROUNDEDRECTD104*
21,1,0.06693,0.04528,0,0,90.0*
21,1,0.03347,0.07874,0,0,90.0*
1,1,0.03346,0.02264,0.01673*
1,1,0.03346,0.02264,-0.01673*
1,1,0.03346,-0.02264,-0.01673*
1,1,0.03346,-0.02264,0.01673*
%
%ADD104ROUNDEDRECTD104*%
%ADD105C,0.10000*%
%ADD106C,0.05906*%
%ADD107R,0.05906X0.05906*%
%ADD108C,0.23622*%
G04:AMPARAMS|DCode=109|XSize=66.93mil|YSize=78.74mil|CornerRadius=16.73mil|HoleSize=0mil|Usage=FLASHONLY|Rotation=0.000|XOffset=0mil|YOffset=0mil|HoleType=Round|Shape=RoundedRectangle|*
%AMROUNDEDRECTD109*
21,1,0.06693,0.04528,0,0,0.0*
21,1,0.03347,0.07874,0,0,0.0*
1,1,0.03346,0.01673,-0.02264*
1,1,0.03346,-0.01673,-0.02264*
1,1,0.03346,-0.01673,0.02264*
1,1,0.03346,0.01673,0.02264*
%
%ADD109ROUNDEDRECTD109*%
%ADD110O,0.06693X0.07874*%
%ADD111C,0.06000*%
%ADD112C,0.12598*%
%ADD114R,0.18504X0.12992*%
D103*
X346500Y123500D02*
D03*
Y91500D02*
D03*
X294500Y170695D02*
D03*
Y139407D02*
D03*
X319500Y171000D02*
D03*
X17500Y190394D02*
D03*
Y180552D02*
D03*
X16500Y95917D02*
D03*
Y63657D02*
D03*
D104*
X346500Y133343D02*
D03*
Y101342D02*
D03*
X294500Y180538D02*
D03*
Y149249D02*
D03*
X319500Y180842D02*
D03*
X17500Y200237D02*
D03*
X16500Y105759D02*
D03*
Y73500D02*
D03*
D105*
X315500Y149500D02*
D03*
X288505Y73000D02*
D03*
X194597Y137619D02*
D03*
X207896Y133500D02*
D03*
X235500Y142000D02*
D03*
X174500Y133000D02*
D03*
X312500Y205500D02*
D03*
X306500Y38500D02*
D03*
X162500Y133500D02*
D03*
X171500Y226000D02*
D03*
X313500Y253500D02*
D03*
X259500Y293500D02*
D03*
X102000Y85500D02*
D03*
Y57500D02*
D03*
D106*
X288048Y8105D02*
D03*
Y18105D02*
D03*
Y28105D02*
D03*
Y38105D02*
D03*
Y48105D02*
D03*
X44079Y134000D02*
D03*
X54000D02*
D03*
Y154130D02*
D03*
X44000D02*
D03*
X34000Y154000D02*
D03*
Y134000D02*
D03*
X14000Y154000D02*
D03*
Y134000D02*
D03*
X306548Y110829D02*
D03*
Y60829D02*
D03*
Y70829D02*
D03*
Y80829D02*
D03*
Y100829D02*
D03*
Y90829D02*
D03*
D107*
X288048Y58105D02*
D03*
X306548Y50829D02*
D03*
D108*
X351000Y16185D02*
D03*
X16295Y286500D02*
D03*
X351000D02*
D03*
X16295Y16185D02*
D03*
D109*
X253670Y160611D02*
D03*
D110*
X273355D02*
D03*
X263513D02*
D03*
D111*
X148461Y258500D02*
D03*
X62039Y258461D02*
D03*
D112*
X165921Y275961D02*
D03*
X148461Y241039D02*
D03*
X165921Y258500D02*
D03*
Y241039D02*
D03*
X131000D02*
D03*
Y258500D02*
D03*
X148461Y275961D02*
D03*
X131000D02*
D03*
X79500Y275921D02*
D03*
X62039Y241000D02*
D03*
X79500Y258461D02*
D03*
Y241000D02*
D03*
X44579D02*
D03*
Y258461D02*
D03*
X62039Y275921D02*
D03*
X44579D02*
D03*
D114*
X90000Y132622D02*
D03*
Y159000D02*
D03*
M02*
