G04*
G04 #@! TF.GenerationSoftware,Altium Limited,Altium Designer,21.2.0 (30)*
G04*
G04 Layer_Physical_Order=1*
G04 Layer_Color=255*
%FSLAX25Y25*%
%MOIN*%
G70*
G04*
G04 #@! TF.SameCoordinates,77A29CB9-FCA2-4D4B-8533-71CC963FDA7C*
G04*
G04*
G04 #@! TF.FilePolarity,Positive*
G04*
G01*
G75*
%ADD14C,0.01000*%
%ADD15R,0.02756X0.03543*%
%ADD16R,0.05000X0.07441*%
%ADD17R,0.03347X0.02756*%
%ADD18R,0.08268X0.05512*%
%ADD19R,0.06890X0.03740*%
%ADD20R,0.06890X0.12598*%
%ADD21R,0.05315X0.03937*%
%ADD22R,0.03937X0.05315*%
%ADD23R,0.07087X0.02953*%
%ADD24R,0.02756X0.06102*%
G04:AMPARAMS|DCode=25|XSize=39.37mil|YSize=39.37mil|CornerRadius=9.84mil|HoleSize=0mil|Usage=FLASHONLY|Rotation=90.000|XOffset=0mil|YOffset=0mil|HoleType=Round|Shape=RoundedRectangle|*
%AMROUNDEDRECTD25*
21,1,0.03937,0.01968,0,0,90.0*
21,1,0.01968,0.03937,0,0,90.0*
1,1,0.01968,0.00984,0.00984*
1,1,0.01968,0.00984,-0.00984*
1,1,0.01968,-0.00984,-0.00984*
1,1,0.01968,-0.00984,0.00984*
%
%ADD25ROUNDEDRECTD25*%
%ADD26R,0.03500X0.01201*%
%ADD27R,0.02756X0.03347*%
%ADD28R,0.07480X0.09449*%
%ADD29R,0.01181X0.04724*%
%ADD30R,0.04724X0.01181*%
%ADD53C,0.01500*%
%ADD54C,0.05906*%
%ADD55R,0.05906X0.05906*%
%ADD56R,0.05906X0.05906*%
%ADD57C,0.03543*%
%ADD58C,0.05000*%
G36*
X493700Y270646D02*
Y243600D01*
X462000D01*
Y270900D01*
X493346Y270999D01*
X493700Y270646D01*
D02*
G37*
D14*
X411036Y257098D02*
X413498D01*
X408780Y254842D02*
X411036Y257098D01*
X413498D02*
X417600Y261200D01*
X407402Y254842D02*
X408780D01*
X403505Y288205D02*
X403990D01*
X405458Y289673D02*
Y290362D01*
X401787Y283987D02*
Y286487D01*
X403505Y288205D01*
X403990D02*
X405458Y289673D01*
X355700Y328800D02*
X376700Y349800D01*
X346266Y328800D02*
X355700D01*
X376700Y349800D02*
X385900D01*
X346587Y330600D02*
X354900D01*
X374652Y350352D02*
Y358331D01*
X354900Y330600D02*
X374652Y350352D01*
X346145Y326800D02*
X356400D01*
X377900Y348300D02*
X394400D01*
X356400Y326800D02*
X377900Y348300D01*
X369400Y383300D02*
X392000Y405900D01*
Y419626D01*
X366000Y384800D02*
X381900Y400700D01*
Y419903D01*
X362800Y385700D02*
X372200Y395100D01*
Y420310D01*
X361900Y391200D02*
Y420763D01*
X359700Y389000D02*
X361900Y391200D01*
X292100Y390900D02*
Y421151D01*
Y390900D02*
X298000Y385000D01*
X281900Y390800D02*
X292900Y379800D01*
X281900Y390800D02*
Y420356D01*
X272100Y391100D02*
Y420428D01*
Y391100D02*
X287200Y376000D01*
X407341Y374957D02*
X408048Y375664D01*
X405100Y372340D02*
Y372734D01*
X407323Y374957D01*
X407341D01*
X394730Y378134D02*
X395433Y378837D01*
X394730Y375664D02*
Y378134D01*
X391800Y372340D02*
Y372734D01*
X394730Y375664D01*
X378500Y372340D02*
Y372734D01*
X381940Y376174D01*
Y377959D01*
X382818Y378837D01*
X407803Y364715D02*
X407900Y364812D01*
Y367914D01*
X407314Y368500D02*
X407900Y367914D01*
X393914Y368500D02*
X407314D01*
X394359Y364860D02*
X394500Y365001D01*
X384699Y368500D02*
X393914D01*
X394500Y365001D02*
Y367914D01*
X393914Y368500D02*
X394500Y367914D01*
X381937Y366131D02*
X382331D01*
X384699Y368500D01*
X381059Y364860D02*
Y365253D01*
X381937Y366131D01*
X407803Y358476D02*
Y364715D01*
Y358476D02*
X407948Y358331D01*
X394359Y364860D02*
X394553Y364665D01*
Y358526D02*
X394748Y358331D01*
X394553Y358526D02*
Y364665D01*
X381103Y358376D02*
Y364815D01*
X381059Y364860D02*
X381103Y364815D01*
Y358376D02*
X381148Y358331D01*
X401454Y355354D02*
Y358331D01*
X401452Y363377D02*
X402541Y364466D01*
X401452Y358331D02*
Y363377D01*
X402541Y364466D02*
Y364860D01*
X388252Y358331D02*
Y363477D01*
X389241Y364466D01*
Y364860D01*
X374652Y358331D02*
Y363177D01*
X375941Y364466D01*
Y364860D01*
X446886Y351546D02*
X450300D01*
Y296034D02*
Y297254D01*
X448300Y294034D02*
X450300Y296034D01*
X446886Y294034D02*
X448300D01*
X440300Y296034D02*
Y297254D01*
Y351546D02*
X443714D01*
X454700Y376600D02*
X457020Y374280D01*
X458114D01*
X458700Y373694D01*
Y372273D02*
Y373694D01*
X444300Y357873D02*
X458700Y372273D01*
X444300Y352132D02*
Y357873D01*
X443714Y351546D02*
X444300Y352132D01*
X440300Y296034D02*
X442300Y294034D01*
X443714D01*
X444300Y293448D01*
Y292620D02*
Y293448D01*
X443714Y292034D02*
X444300Y292620D01*
X437179Y292034D02*
X443714D01*
X428713Y300500D02*
X437179Y292034D01*
X426359Y300500D02*
X428713D01*
X425773Y301086D02*
X426359Y300500D01*
X425773Y301086D02*
Y301870D01*
X424895Y302748D02*
X425773Y301870D01*
X424600Y302748D02*
X424895D01*
X446300Y293448D02*
X446886Y294034D01*
X446300Y291791D02*
Y293448D01*
X444543Y290034D02*
X446300Y291791D01*
X436350Y290034D02*
X444543D01*
X427884Y298500D02*
X436350Y290034D01*
X426359Y298500D02*
X427884D01*
X425773Y297914D02*
X426359Y298500D01*
X425773Y297130D02*
Y297914D01*
X424895Y296252D02*
X425773Y297130D01*
X424600Y296252D02*
X424895D01*
X463817Y375717D02*
X464700Y376600D01*
X461286Y375717D02*
X463817D01*
X460700Y375131D02*
X461286Y375717D01*
X460700Y371444D02*
Y375131D01*
X446300Y357044D02*
X460700Y371444D01*
X446300Y352132D02*
Y357044D01*
Y352132D02*
X446886Y351546D01*
X355100Y310000D02*
X355212D01*
X357744Y312531D02*
X361374D01*
X355212Y310000D02*
X357744Y312531D01*
X351872Y313372D02*
X356462D01*
X349600Y308200D02*
Y311100D01*
X351872Y313372D01*
X355144Y303300D02*
X355488D01*
X340900Y306400D02*
X343845D01*
X368272Y281973D01*
Y279128D02*
Y281973D01*
X356936Y304748D02*
X361465D01*
X355488Y303300D02*
X356936Y304748D01*
X361465D02*
X361483Y304766D01*
X384395Y291000D02*
X384853Y291458D01*
X371500Y291358D02*
X371858Y291000D01*
X384395D01*
X377512Y296588D02*
X378888D01*
X376927Y297173D02*
X377512Y296588D01*
X372969Y297173D02*
X376927D01*
X379573Y297273D02*
X383385D01*
X378888Y296588D02*
X379573Y297273D01*
X383385D02*
X384853Y298742D01*
X394759Y298879D02*
X395909D01*
X394622Y298742D02*
X394759Y298879D01*
X384853Y298742D02*
X394622D01*
X399127Y291725D02*
Y292932D01*
X398748Y291346D02*
X399127Y291725D01*
X399300Y293105D02*
Y307942D01*
X399127Y292932D02*
X399300Y293105D01*
X395800Y295190D02*
Y296810D01*
X392252Y291641D02*
X395800Y295190D01*
X392252Y291346D02*
Y291641D01*
X395900Y296910D02*
X395909D01*
X395800Y296810D02*
X395900Y296910D01*
X404958Y290862D02*
Y300080D01*
Y290862D02*
X405458Y290362D01*
X404958Y300080D02*
X407270Y302392D01*
X401300Y283500D02*
X401787Y283987D01*
X412491Y290612D02*
X412742Y290362D01*
X412491Y290612D02*
Y296910D01*
X349654Y289000D02*
X349744Y289090D01*
Y294744D01*
X350200Y295200D01*
X359834Y241500D02*
X376900Y224434D01*
X326300Y241500D02*
X359834D01*
X343748Y293025D02*
X345751Y295028D01*
X345600Y298800D02*
X345751Y298649D01*
Y295028D02*
Y298649D01*
X343748Y289000D02*
Y293025D01*
X341500Y302300D02*
X341689Y302111D01*
Y289090D02*
Y302111D01*
Y289090D02*
X341779Y289000D01*
X339811D02*
Y294589D01*
X337300Y297100D02*
X339811Y294589D01*
X333628Y299128D02*
X340900Y306400D01*
X333172Y299085D02*
Y299384D01*
Y294601D02*
Y299085D01*
Y299384D02*
Y302028D01*
X333287Y299384D02*
X333542Y299128D01*
X333628D01*
X332800Y302400D02*
X333172Y302028D01*
Y294601D02*
X335784Y291990D01*
X357591Y314500D02*
X361374D01*
X356462Y313372D02*
X357591Y314500D01*
X350900Y319900D02*
X356627D01*
X348572Y314872D02*
X355841D01*
X345700Y312000D02*
X348572Y314872D01*
X348860Y316628D02*
X355476D01*
X348175Y317313D02*
X348860Y316628D01*
X345487Y317313D02*
X348175D01*
X345000Y317800D02*
X345487Y317313D01*
X346113Y323587D02*
X346600Y323100D01*
X339811Y327489D02*
X343713Y323587D01*
X346113D01*
X400334Y224434D02*
X416000Y240100D01*
X414288Y241300D02*
X415488Y240100D01*
X416000D01*
X413600Y241300D02*
X414288D01*
X320098Y326402D02*
X322500Y324000D01*
X316189Y326402D02*
X320098D01*
X328091Y330517D02*
Y334185D01*
X328000Y334276D02*
X328091Y334185D01*
Y330517D02*
X330400Y328208D01*
Y328200D02*
Y328208D01*
X376100Y322563D02*
X376359Y322822D01*
X376100Y315900D02*
Y322563D01*
X371500Y298642D02*
X372969Y297173D01*
X361465Y296874D02*
X363236D01*
X364613Y295497D01*
Y293087D02*
Y295497D01*
Y293087D02*
X365100Y292600D01*
X316313Y407562D02*
X328816D01*
X338200Y396565D02*
Y398178D01*
X337614Y395979D02*
X338200Y396565D01*
X337578Y395979D02*
X337614D01*
X336700Y395102D02*
X337578Y395979D01*
X336700Y393428D02*
Y395102D01*
X328816Y407562D02*
X338200Y398178D01*
X310900Y419531D02*
X311486Y420117D01*
X340200Y396565D02*
X340786Y395979D01*
X340822D01*
X340200Y396565D02*
Y399007D01*
X341700Y393428D02*
Y395102D01*
X340822Y395979D02*
X341700Y395102D01*
X329645Y409562D02*
X340200Y399007D01*
X311117Y420117D02*
X312000Y421000D01*
X305414Y420117D02*
X306000Y419531D01*
Y417874D02*
Y419531D01*
X308586Y420117D02*
X311117D01*
X308000Y418703D02*
Y419531D01*
X306000Y417874D02*
X316313Y407562D01*
X308000Y419531D02*
X308586Y420117D01*
X302883D02*
X305414D01*
X302000Y421000D02*
X302883Y420117D01*
X317141Y409562D02*
X329645D01*
X308000Y418703D02*
X317141Y409562D01*
X406687Y302975D02*
Y321649D01*
Y302975D02*
X407270Y302392D01*
X406687Y321649D02*
X409252Y324214D01*
X407270Y302392D02*
X409582Y304703D01*
X409252Y324214D02*
Y324510D01*
X311900Y230200D02*
X316200D01*
X300300Y241800D02*
X311900Y230200D01*
X296800Y221500D02*
Y306900D01*
Y221500D02*
X302000Y216300D01*
X288800Y219500D02*
X292000Y216300D01*
X288800Y219500D02*
Y268300D01*
X294000Y273500D01*
X355000Y360834D02*
Y380658D01*
Y356400D02*
Y360834D01*
X335500Y339812D02*
Y340500D01*
X333906Y334276D02*
Y338217D01*
X335500Y339812D01*
X337933Y337171D02*
X340975Y340213D01*
X343413D01*
X343900Y340700D01*
X393502Y330200D02*
X409700D01*
X388458Y325156D02*
X393502Y330200D01*
X416000Y240100D02*
X425100Y249200D01*
X372953Y254842D02*
X407402D01*
X401509Y260734D02*
X407402Y254842D01*
X401300Y260734D02*
X401509D01*
X376900Y224434D02*
X400334D01*
X325000Y355200D02*
Y374334D01*
X330700Y380034D01*
X335874Y327058D02*
X337400Y325532D01*
Y325200D02*
Y325532D01*
X335874Y327058D02*
Y334276D01*
X350642Y262115D02*
Y272022D01*
Y262115D02*
X354705Y258052D01*
X339811Y327489D02*
Y334276D01*
X350555Y387900D02*
X354269D01*
X321200Y392700D02*
X330972D01*
X331700Y393428D01*
X342000Y251300D02*
X343400Y252700D01*
Y265000D01*
X331100Y251300D02*
X342000D01*
X329558Y252842D02*
X331100Y251300D01*
X329558Y252842D02*
Y257538D01*
X368272Y279128D02*
X371172Y276228D01*
Y274340D02*
Y276228D01*
Y274340D02*
X372953Y272558D01*
X353590Y289000D02*
X353681Y288910D01*
Y287313D02*
X355687D01*
X353681D02*
Y288910D01*
X355687Y287313D02*
X358000Y285000D01*
X409476Y324734D02*
Y329976D01*
X409700Y330200D01*
X409252Y324510D02*
X409476Y324734D01*
X376359Y323511D02*
Y331500D01*
Y322822D02*
Y323511D01*
X377828Y324979D01*
X378517D02*
X378693Y325156D01*
X388458D01*
X389044Y324570D01*
Y319775D02*
Y324570D01*
X377828Y324979D02*
X378517D01*
X394659Y310790D02*
X394759Y310690D01*
X389044Y319775D02*
X394659Y314160D01*
X394759Y310690D02*
X395909D01*
X394659Y310790D02*
Y314160D01*
X412491Y304784D02*
Y306753D01*
X409582Y304703D02*
X412411D01*
X412491Y304784D01*
X410208Y296991D02*
X412411D01*
X408900Y298299D02*
Y301900D01*
X412411Y296991D02*
X412491Y296910D01*
X408900Y298299D02*
X410208Y296991D01*
X408900Y301900D02*
X409816Y302816D01*
X412491D01*
X432600Y273512D02*
Y274200D01*
X431731Y268025D02*
Y272643D01*
X432600Y273512D01*
X425587Y249687D02*
X427256D01*
X431011Y253442D02*
X431700D01*
X427256Y249687D02*
X431011Y253442D01*
X425100Y249200D02*
X425587Y249687D01*
X432420Y268025D02*
X434490Y265955D01*
X431731Y268025D02*
X432420D01*
X434490Y265955D02*
X441098D01*
X322258Y257538D02*
X322258Y257538D01*
X329558D01*
X354705Y258052D02*
X355000D01*
X362700Y258558D02*
X367859D01*
X371575Y254842D01*
X372953D01*
X346187Y347587D02*
X355000Y356400D01*
X344087Y347587D02*
X346187D01*
X343600Y347100D02*
X344087Y347587D01*
X355000Y387942D02*
X355100Y388042D01*
X343800Y354900D02*
Y362342D01*
X343442Y362700D02*
X343800Y362342D01*
X336158Y362700D02*
X336700Y363242D01*
X335900Y362442D02*
X336158Y362700D01*
X335900Y354900D02*
Y362442D01*
X407948Y358331D02*
X411069D01*
X414600Y354800D01*
X300800Y298400D02*
X306742D01*
X307500Y297642D01*
X316300Y349170D02*
X324978D01*
X325000Y349192D02*
Y355200D01*
X324978Y349170D02*
X325000Y349192D01*
X316000Y349470D02*
X316300Y349170D01*
X316000Y349470D02*
Y355400D01*
X309200Y342000D02*
X316187D01*
X316300Y341887D01*
X305600Y306600D02*
X306288D01*
X310353Y310653D02*
X316189D01*
X307252Y307563D02*
X307263D01*
X310353Y310653D01*
X306288Y306600D02*
X307252Y307563D01*
X305427Y301800D02*
X310343Y306716D01*
X300500Y304800D02*
X303500Y301800D01*
X305427D01*
X372953Y272558D02*
X408780D01*
X355000Y264548D02*
X361406D01*
X362700Y265842D01*
X366327Y267310D02*
X371575Y272558D01*
X364169Y267310D02*
X366327D01*
X362700Y265842D02*
X364169Y267310D01*
X371575Y272558D02*
X372953D01*
X335784Y289090D02*
X335874Y289000D01*
X335784Y289090D02*
Y291990D01*
X398800Y321800D02*
X399000D01*
X403100Y317700D01*
X403300D01*
X379165Y310653D02*
X380712Y312200D01*
X361465Y310653D02*
X379165D01*
X380712Y312200D02*
X381400D01*
X361374Y312531D02*
X361465Y312622D01*
X361374Y314500D02*
X361465Y314591D01*
X355841Y314872D02*
X357528Y316559D01*
X361465D01*
X355476Y316628D02*
X357376Y318528D01*
X361465D01*
X356924Y322465D02*
X361465D01*
X356088Y323300D02*
X356924Y322465D01*
X355400Y323300D02*
X356088D01*
X356627Y319900D02*
X357223Y320496D01*
X361465D01*
X394400Y348300D02*
X401454Y355354D01*
X341870Y331075D02*
X346145Y326800D01*
X341779Y334276D02*
X341870Y334185D01*
Y331075D02*
Y334185D01*
X385900Y349800D02*
X388252Y352152D01*
Y358331D01*
X343839Y331227D02*
Y334185D01*
X343748Y334276D02*
X343839Y334185D01*
Y331227D02*
X346266Y328800D01*
X345807Y331380D02*
X346587Y330600D01*
X345717Y334276D02*
X345807Y334185D01*
Y331380D02*
Y334185D01*
X351713Y286104D02*
Y288910D01*
Y286104D02*
X359017Y278800D01*
X365000D01*
X351622Y289000D02*
X351713Y288910D01*
X337752Y282752D02*
Y288910D01*
X337400Y282400D02*
X337752Y282752D01*
Y288910D02*
X337842Y289000D01*
X329934Y289034D02*
X329969Y289000D01*
X329934Y289034D02*
Y294966D01*
X329900Y295000D02*
X329934Y294966D01*
X327200Y282588D02*
X328000Y283388D01*
X327200Y281900D02*
Y282588D01*
X328000Y283388D02*
Y289000D01*
X311000Y247300D02*
X342000Y216300D01*
X311000Y247300D02*
Y279300D01*
X314400Y282700D01*
X322536D01*
X325941Y286104D02*
Y288910D01*
X322536Y282700D02*
X325941Y286104D01*
Y288910D02*
X326031Y289000D01*
X322000Y216300D02*
Y232100D01*
X308100Y246000D02*
X322000Y232100D01*
X308100Y246000D02*
Y281673D01*
X326000Y299573D02*
Y302900D01*
X308100Y281673D02*
X326000Y299573D01*
X324400Y304500D02*
X326000Y302900D01*
X321200Y304500D02*
X324400D01*
X319479Y302780D02*
X321200Y304500D01*
X316189Y302780D02*
X319479D01*
X316245Y300756D02*
X322445D01*
X316189Y300811D02*
X316245Y300756D01*
X322445D02*
X322500Y300700D01*
X310343Y306716D02*
X316189D01*
X319685Y308685D02*
X322200Y311200D01*
X316189Y308685D02*
X319685D01*
X308189Y297642D02*
X311658D01*
X309658Y299110D02*
Y301022D01*
X308189Y297642D02*
X309658Y299110D01*
X307500Y297642D02*
X308189D01*
X316098Y304658D02*
X316189Y304748D01*
X313294Y304658D02*
X316098D01*
X309658Y301022D02*
X313294Y304658D01*
X337933Y334366D02*
Y337171D01*
X337842Y334276D02*
X337933Y334366D01*
X296800Y306900D02*
X302522Y312622D01*
X316189D01*
X294000Y273500D02*
Y310200D01*
X298391Y314591D01*
X316189D01*
X282000Y271400D02*
X290300Y279700D01*
X282000Y216300D02*
Y271400D01*
X290300Y279700D02*
Y313100D01*
X293759Y316559D01*
X316189D01*
X272000Y216300D02*
Y270400D01*
X286300Y284700D01*
Y314600D01*
X290228Y318528D01*
X316189D01*
X394748Y358331D02*
X394944Y358527D01*
X381148Y358331D02*
X381224Y358407D01*
X298000Y332300D02*
Y385000D01*
Y332300D02*
X305867Y324433D01*
X316189D01*
X292900Y332800D02*
Y379800D01*
Y332800D02*
X303235Y322465D01*
X316189D01*
X287200Y332500D02*
Y376000D01*
Y332500D02*
X299204Y320496D01*
X316189D01*
X311658Y297642D02*
X312768Y298752D01*
X316098D01*
X316189Y298843D01*
X308189Y290358D02*
X314327Y296496D01*
X307500Y290358D02*
X308189D01*
X314327Y296496D02*
Y296783D01*
X314417Y296874D01*
X316189D01*
X324063Y334276D02*
Y336047D01*
X316300Y341887D02*
X316989D01*
X322738Y336138D01*
X323972D01*
X324063Y336047D01*
X324978Y341887D02*
X326031Y340833D01*
Y334276D02*
Y340833D01*
X346700Y370298D02*
Y371972D01*
Y370298D02*
X348200Y368798D01*
Y354673D02*
Y368798D01*
X344527Y351000D02*
X348200Y354673D01*
X337200Y351000D02*
X344527D01*
X331937Y345737D02*
X337200Y351000D01*
X331937Y334276D02*
Y345737D01*
X329969Y334276D02*
Y368567D01*
X331700Y370298D01*
Y371972D01*
X359700Y356500D02*
Y389000D01*
X347685Y344485D02*
X359700Y356500D01*
X347685Y334276D02*
Y344485D01*
X362800Y354900D02*
Y385700D01*
X349654Y341754D02*
X362800Y354900D01*
X349654Y334276D02*
Y341754D01*
X367607Y324433D02*
X369076Y322965D01*
Y322822D02*
Y322965D01*
X361465Y324433D02*
X367607D01*
X366177Y329343D02*
X367607D01*
X369076Y330811D02*
Y331500D01*
X361465Y326402D02*
X363236D01*
X366177Y329343D01*
X367607D02*
X369076Y330811D01*
X343400Y265000D02*
Y271980D01*
X343358Y272022D02*
X343400Y271980D01*
X350642Y272022D02*
Y280700D01*
X347685Y284346D02*
X350642Y281389D01*
Y280700D02*
Y281389D01*
X347685Y284346D02*
Y289000D01*
X343358Y272022D02*
Y280700D01*
Y281389D02*
X345717Y283747D01*
X343358Y280700D02*
Y281389D01*
X345717Y283747D02*
Y289000D01*
X334187Y269169D02*
X336842Y266514D01*
X333906Y269450D02*
X334187Y269169D01*
X336842Y257538D02*
Y266514D01*
X314975Y266098D02*
X318045Y269169D01*
X314975Y257538D02*
Y266098D01*
X318045Y270153D02*
X321286Y273393D01*
X324893D02*
X331937Y280437D01*
X318045Y269169D02*
Y270153D01*
X321286Y273393D02*
X324893D01*
X331937Y280437D02*
Y289000D01*
X333906Y269450D02*
Y289000D01*
X395909Y298879D02*
Y300847D01*
Y296910D02*
Y298879D01*
X361555Y298752D02*
X364360D01*
X370811Y291358D02*
X371500D01*
X361465Y298843D02*
X361555Y298752D01*
X364360D02*
X369342Y293770D01*
Y292827D02*
Y293770D01*
Y292827D02*
X370811Y291358D01*
Y298642D02*
X371500D01*
X361465Y300811D02*
X368642D01*
X370811Y298642D01*
X408048Y375664D02*
Y378837D01*
X399393Y385449D02*
X400576D01*
X401552Y378837D02*
Y384472D01*
X400576Y385449D02*
X401552Y384472D01*
X386007Y385449D02*
X387960D01*
X388937Y378837D02*
Y384472D01*
X387960Y385449D02*
X388937Y384472D01*
X376322Y383539D02*
X383940Y391157D01*
X376322Y378837D02*
Y383539D01*
X383940Y391157D02*
X386007D01*
X336700Y363242D02*
Y371972D01*
X341973Y364858D02*
X343442Y363389D01*
X341303Y365443D02*
X341888Y364858D01*
X341303Y371574D02*
X341700Y371972D01*
X343442Y362700D02*
Y363389D01*
X341888Y364858D02*
X341973D01*
X341303Y365443D02*
Y371574D01*
X346700Y391755D02*
X350555Y387900D01*
X346700Y391755D02*
Y393428D01*
X366000Y353500D02*
Y384800D01*
X351622Y339122D02*
X366000Y353500D01*
X351622Y334276D02*
Y339122D01*
X369400Y351857D02*
Y383300D01*
X353590Y334276D02*
Y336047D01*
X369400Y351857D01*
X415748Y324510D02*
X415798Y324460D01*
Y317850D02*
X415848Y317800D01*
X415798Y317850D02*
Y324460D01*
X412491Y308721D02*
X412572Y308802D01*
X414775D01*
X415848Y309875D01*
Y317800D01*
X409352Y312680D02*
Y317800D01*
Y312680D02*
X411342Y310690D01*
X412491D01*
X361483Y304766D02*
X395890D01*
X395909Y304784D01*
Y306753D02*
X395989Y306834D01*
X395890Y306735D02*
X395909Y306753D01*
X398192Y306834D02*
X399300Y307942D01*
X395989Y306834D02*
X398192D01*
X399300Y307942D02*
Y314700D01*
X392300Y321700D02*
X399300Y314700D01*
X361483Y308703D02*
X390497D01*
X395890D01*
X385500Y313700D02*
X390497Y308703D01*
X385500Y313700D02*
Y321600D01*
X424326Y302474D02*
X424600Y302748D01*
X421427Y302474D02*
X424326D01*
X412491Y300847D02*
X419800D01*
X421427Y302474D01*
X412491Y298879D02*
X419800D01*
X422427Y296252D02*
X424600D01*
X419800Y298879D02*
X422427Y296252D01*
X361483Y302798D02*
X395890D01*
X361483Y306735D02*
X395890D01*
Y302798D02*
X395909Y302816D01*
X395890Y308703D02*
X395909Y308721D01*
X361465Y306716D02*
X361483Y306735D01*
X361465Y308685D02*
X361483Y308703D01*
X361465Y302780D02*
X361483Y302798D01*
D15*
X375941Y364860D02*
D03*
X378500Y372340D02*
D03*
X381059Y364860D02*
D03*
X389241D02*
D03*
X391800Y372340D02*
D03*
X394359Y364860D02*
D03*
X402541D02*
D03*
X405100Y372340D02*
D03*
X407659Y364860D02*
D03*
D16*
X460300Y297254D02*
D03*
X450300D02*
D03*
X440300D02*
D03*
X470300D02*
D03*
X480300D02*
D03*
X460300Y351546D02*
D03*
X450300D02*
D03*
X440300D02*
D03*
X470300D02*
D03*
X480300D02*
D03*
D17*
X424600Y302748D02*
D03*
Y296252D02*
D03*
X355000Y264548D02*
D03*
Y258052D02*
D03*
D18*
X408780Y272558D02*
D03*
X372953D02*
D03*
X408780Y254842D02*
D03*
X372953D02*
D03*
D19*
X441098Y265955D02*
D03*
Y256900D02*
D03*
Y247845D02*
D03*
D20*
X465902Y256900D02*
D03*
D21*
X431731Y268025D02*
D03*
Y260742D02*
D03*
X431700Y253442D02*
D03*
Y246158D02*
D03*
X355000Y387942D02*
D03*
Y380658D02*
D03*
X307500Y290358D02*
D03*
Y297642D02*
D03*
X362700Y265842D02*
D03*
Y258558D02*
D03*
X324978Y349170D02*
D03*
Y341887D02*
D03*
X316300D02*
D03*
Y349170D02*
D03*
X384853Y291458D02*
D03*
Y298742D02*
D03*
X371500Y298642D02*
D03*
Y291358D02*
D03*
D22*
X336158Y362700D02*
D03*
X343442D02*
D03*
X329558Y257538D02*
D03*
X336842D02*
D03*
X322258Y257538D02*
D03*
X314975D02*
D03*
X369076Y331500D02*
D03*
X376359D02*
D03*
Y322822D02*
D03*
X369076D02*
D03*
X405458Y290362D02*
D03*
X412742D02*
D03*
X350642Y280700D02*
D03*
X343358D02*
D03*
X350642Y272022D02*
D03*
X343358D02*
D03*
D23*
X399393Y391157D02*
D03*
X386007D02*
D03*
X399393Y385449D02*
D03*
X386007D02*
D03*
D24*
X331700Y393428D02*
D03*
X336700D02*
D03*
X341700D02*
D03*
X346700D02*
D03*
Y371972D02*
D03*
X341700D02*
D03*
X336700D02*
D03*
X331700D02*
D03*
D25*
X398800Y321800D02*
D03*
X392300Y321700D02*
D03*
X385500Y321600D02*
D03*
D26*
X395909Y310690D02*
D03*
Y308721D02*
D03*
Y306753D02*
D03*
Y304784D02*
D03*
Y302816D02*
D03*
Y300847D02*
D03*
Y298879D02*
D03*
Y296910D02*
D03*
X412491Y310690D02*
D03*
Y308721D02*
D03*
Y306753D02*
D03*
Y304784D02*
D03*
Y302816D02*
D03*
Y300847D02*
D03*
Y298879D02*
D03*
Y296910D02*
D03*
D27*
X395433Y378837D02*
D03*
X388937D02*
D03*
X382818D02*
D03*
X376322D02*
D03*
X408048D02*
D03*
X401552D02*
D03*
X407948Y358331D02*
D03*
X401452D02*
D03*
X394748D02*
D03*
X388252D02*
D03*
X381148D02*
D03*
X374652D02*
D03*
X409252Y324510D02*
D03*
X415748D02*
D03*
X415848Y317800D02*
D03*
X409352D02*
D03*
X398748Y291346D02*
D03*
X392252D02*
D03*
D28*
X318045Y269169D02*
D03*
X334187D02*
D03*
D29*
X353590Y289000D02*
D03*
X351622D02*
D03*
X349654D02*
D03*
X347685D02*
D03*
X345717D02*
D03*
X343748D02*
D03*
X341779D02*
D03*
X339811D02*
D03*
X337842D02*
D03*
X335874D02*
D03*
X333906D02*
D03*
X331937D02*
D03*
X329969D02*
D03*
X328000D02*
D03*
X326031D02*
D03*
X324063D02*
D03*
X353590Y334276D02*
D03*
X351622D02*
D03*
X349654D02*
D03*
X347685D02*
D03*
X345717D02*
D03*
X343748D02*
D03*
X341779D02*
D03*
X339811D02*
D03*
X337842D02*
D03*
X335874D02*
D03*
X333906D02*
D03*
X331937D02*
D03*
X329969D02*
D03*
X328000D02*
D03*
X326031D02*
D03*
X324063D02*
D03*
D30*
X361465Y310653D02*
D03*
Y308685D02*
D03*
Y306716D02*
D03*
Y304748D02*
D03*
Y302780D02*
D03*
Y300811D02*
D03*
Y298843D02*
D03*
Y296874D02*
D03*
Y326402D02*
D03*
Y324433D02*
D03*
Y322465D02*
D03*
Y320496D02*
D03*
Y318528D02*
D03*
Y316559D02*
D03*
Y314591D02*
D03*
Y312622D02*
D03*
X316189Y326402D02*
D03*
Y324433D02*
D03*
Y322465D02*
D03*
Y320496D02*
D03*
Y318528D02*
D03*
Y316559D02*
D03*
Y314591D02*
D03*
Y312622D02*
D03*
Y310653D02*
D03*
Y308685D02*
D03*
Y306716D02*
D03*
Y304748D02*
D03*
Y302780D02*
D03*
Y300811D02*
D03*
Y298843D02*
D03*
Y296874D02*
D03*
D53*
X370022Y281278D02*
Y282698D01*
X315320Y337400D02*
X370022Y282698D01*
X313800Y337400D02*
X315320D01*
X372400Y278900D02*
X405300D01*
X370022Y281278D02*
X372400Y278900D01*
X412242Y279542D02*
Y289862D01*
X412742Y290362D01*
X355295Y258052D02*
X367047Y246300D01*
X314300Y250100D02*
X318100Y246300D01*
X367047D01*
X368347Y245000D01*
X314300Y250100D02*
Y250200D01*
X354269Y387900D02*
X354311Y387942D01*
X351269Y384900D02*
X354269Y387900D01*
X319900Y384900D02*
X351269D01*
X354311Y387942D02*
X355000D01*
X309200Y374200D02*
X319900Y384900D01*
X309200Y342000D02*
Y374200D01*
X369076Y332189D02*
X378187Y341300D01*
X417200D01*
X369076Y331500D02*
Y332189D01*
X413308Y280609D02*
X416809D01*
X417200Y281000D01*
X412242Y279542D02*
X413308Y280609D01*
X305592Y288451D02*
Y289140D01*
X304600Y287458D02*
X305592Y288451D01*
X304600Y244500D02*
Y287458D01*
X306811Y290358D02*
X307500D01*
X305592Y289140D02*
X306811Y290358D01*
X304600Y244500D02*
X307600Y241500D01*
X309200Y342000D02*
X313800Y337400D01*
X368347Y245000D02*
X415300D01*
X355000Y258052D02*
X355295D01*
X431042Y260742D02*
X431731D01*
X415300Y245000D02*
X431042Y260742D01*
X401460Y391157D02*
X409517Y383100D01*
X399393Y391157D02*
X401460D01*
X409517Y383100D02*
X414900D01*
X405300Y278900D02*
X411599D01*
X412242Y279542D01*
X431042Y260742D01*
X438404Y258020D02*
X439524Y256900D01*
X441098D01*
X431731Y260742D02*
X436639D01*
X438404Y258977D01*
Y258020D02*
Y258977D01*
X441098Y256900D02*
X465902D01*
X437837Y246158D02*
X439524Y247845D01*
X441098D01*
X431700Y246158D02*
X437837D01*
X431700Y236600D02*
X452000Y216300D01*
X431700Y236600D02*
Y246158D01*
D54*
X464700Y376600D02*
D03*
X282000Y216300D02*
D03*
X292000D02*
D03*
X302000D02*
D03*
X312000D02*
D03*
X322000D02*
D03*
X332000D02*
D03*
X342000D02*
D03*
X352000D02*
D03*
X362000D02*
D03*
X372000D02*
D03*
X382000D02*
D03*
X392000D02*
D03*
X402000D02*
D03*
X412000D02*
D03*
X422000D02*
D03*
X432000D02*
D03*
X442000D02*
D03*
X452000D02*
D03*
X462000D02*
D03*
X282000Y421000D02*
D03*
X292000D02*
D03*
X302000D02*
D03*
X312000D02*
D03*
X322000D02*
D03*
X332000D02*
D03*
X342000D02*
D03*
X352000D02*
D03*
X362000D02*
D03*
X372000D02*
D03*
X382000D02*
D03*
X392000D02*
D03*
X402000D02*
D03*
X412000D02*
D03*
X422000D02*
D03*
X432000D02*
D03*
X442000D02*
D03*
X452000D02*
D03*
X462000D02*
D03*
X277900Y311300D02*
D03*
Y301300D02*
D03*
Y321300D02*
D03*
Y331300D02*
D03*
Y341300D02*
D03*
Y351300D02*
D03*
D55*
X454700Y376600D02*
D03*
X272000Y216300D02*
D03*
Y421000D02*
D03*
D56*
X277900Y291300D02*
D03*
D57*
X355100Y310000D02*
D03*
X355144Y303300D02*
D03*
X349600Y308200D02*
D03*
X378127Y291000D02*
D03*
X378200Y296588D02*
D03*
X350200Y295200D02*
D03*
X417600Y261200D02*
D03*
X345600Y298800D02*
D03*
X341500Y302300D02*
D03*
X337300Y297100D02*
D03*
X350900Y319900D02*
D03*
X345700Y312000D02*
D03*
X345000Y317800D02*
D03*
X346600Y323100D02*
D03*
X488000Y249000D02*
D03*
Y255400D02*
D03*
Y261700D02*
D03*
Y267600D02*
D03*
X480000Y267800D02*
D03*
Y261600D02*
D03*
Y255500D02*
D03*
Y249200D02*
D03*
X413600Y241300D02*
D03*
X322500Y324000D02*
D03*
X330400Y328200D02*
D03*
X376100Y315900D02*
D03*
X365100Y292600D02*
D03*
X355400Y323300D02*
D03*
X314300Y250200D02*
D03*
X316200Y230200D02*
D03*
X300300Y241800D02*
D03*
X355000Y360834D02*
D03*
X343900Y340700D02*
D03*
X335500Y340500D02*
D03*
X401300Y260734D02*
D03*
X376900Y224434D02*
D03*
X330700Y380034D02*
D03*
X337400Y325200D02*
D03*
X321200Y392700D02*
D03*
X417200Y341300D02*
D03*
Y281000D02*
D03*
X307600Y241500D02*
D03*
X358000Y285000D02*
D03*
X414900Y383100D02*
D03*
X405300Y278900D02*
D03*
X401300Y283500D02*
D03*
X409700Y330200D02*
D03*
X432600Y274200D02*
D03*
X425100Y249200D02*
D03*
X414600Y354800D02*
D03*
X305600Y306600D02*
D03*
X332800Y302400D02*
D03*
X403300Y317700D02*
D03*
X381400Y312200D02*
D03*
X365000Y278800D02*
D03*
X337400Y282400D02*
D03*
X329900Y295000D02*
D03*
X327200Y281900D02*
D03*
X322500Y300700D02*
D03*
X300500Y304800D02*
D03*
X322200Y311200D02*
D03*
X343600Y347100D02*
D03*
X300800Y298400D02*
D03*
X309200Y342000D02*
D03*
X325000Y355200D02*
D03*
X316000Y355400D02*
D03*
X343400Y265000D02*
D03*
X343800Y354900D02*
D03*
X335900D02*
D03*
D58*
X326300Y241500D02*
D03*
M02*
