G04*
G04 #@! TF.GenerationSoftware,Altium Limited,Altium Designer,21.2.0 (30)*
G04*
G04 Layer_Color=32768*
%FSLAX25Y25*%
%MOIN*%
G70*
G04*
G04 #@! TF.SameCoordinates,77A29CB9-FCA2-4D4B-8533-71CC963FDA7C*
G04*
G04*
G04 #@! TF.FilePolarity,Positive*
G04*
G01*
G75*
%ADD59C,0.00394*%
%ADD60C,0.00197*%
D59*
X423025Y299500D02*
X426175D01*
X424600Y297925D02*
Y301075D01*
X431731Y262415D02*
Y266352D01*
X429763Y264384D02*
X433700D01*
X431700Y247832D02*
Y251768D01*
X429732Y249800D02*
X433669D01*
X337831Y362700D02*
X341769D01*
X339800Y360732D02*
Y364668D01*
X355000Y382331D02*
Y386268D01*
X353031Y384300D02*
X356968D01*
X390610Y378837D02*
X393760D01*
X392185Y377262D02*
Y380412D01*
X377995Y378837D02*
X381144D01*
X379570Y377262D02*
Y380412D01*
X403225Y378837D02*
X406375D01*
X404800Y377262D02*
Y380412D01*
X403125Y358331D02*
X406275D01*
X404700Y356756D02*
Y359906D01*
X389925Y358331D02*
X393075D01*
X391500Y356756D02*
Y359906D01*
X376325Y358331D02*
X379475D01*
X377900Y356756D02*
Y359906D01*
X331231Y257538D02*
X335169D01*
X333200Y255569D02*
Y259506D01*
X316648Y257538D02*
X320585D01*
X318616Y255570D02*
Y259506D01*
X307500Y292032D02*
Y295969D01*
X305532Y294000D02*
X309469D01*
X355000Y259725D02*
Y262875D01*
X353425Y261300D02*
X356575D01*
X362700Y260231D02*
Y264169D01*
X360732Y262200D02*
X364668D01*
X324978Y343560D02*
Y347497D01*
X323010Y345529D02*
X326947D01*
X316300Y343560D02*
Y347497D01*
X314332Y345529D02*
X318268D01*
X410925Y324510D02*
X414075D01*
X412500Y322935D02*
Y326084D01*
X411025Y317800D02*
X414175D01*
X412600Y316225D02*
Y319375D01*
X393925Y291346D02*
X397075D01*
X395500Y289772D02*
Y292921D01*
X370749Y331500D02*
X374686D01*
X372717Y329532D02*
Y333469D01*
X370749Y322822D02*
X374686D01*
X372717Y320853D02*
Y324790D01*
X407131Y290362D02*
X411068D01*
X409100Y288393D02*
Y292331D01*
X384853Y293131D02*
Y297069D01*
X382885Y295100D02*
X386822D01*
X371500Y293032D02*
Y296969D01*
X369531Y295000D02*
X373468D01*
X345031Y280700D02*
X348969D01*
X347000Y278731D02*
Y282668D01*
X345031Y272022D02*
X348969D01*
X347000Y270053D02*
Y273990D01*
D60*
X377713Y368600D02*
X379287D01*
X378500Y367813D02*
Y369387D01*
X383224Y362301D02*
Y363482D01*
X373776Y362301D02*
X383224D01*
X373776D02*
Y374899D01*
X383224D01*
Y363482D02*
Y374899D01*
X391013Y368600D02*
X392587D01*
X391800Y367813D02*
Y369387D01*
X396524Y362301D02*
Y363482D01*
X387076Y362301D02*
X396524D01*
X387076D02*
Y374899D01*
X396524D01*
Y363482D02*
Y374899D01*
X404313Y368600D02*
X405887D01*
X405100Y367813D02*
Y369387D01*
X409824Y362301D02*
Y363482D01*
X400376Y362301D02*
X409824D01*
X400376D02*
Y374899D01*
X409824D01*
Y363482D02*
Y374899D01*
X441300Y356400D02*
X489800D01*
Y292400D02*
Y356400D01*
X430800Y292400D02*
X489800D01*
X430800D02*
Y356400D01*
X441300D01*
X427356Y293791D02*
Y305209D01*
X421844Y293791D02*
Y305209D01*
X427356D01*
X421844Y293791D02*
X427356D01*
X367638Y251102D02*
Y272361D01*
Y251102D02*
X413701D01*
Y276298D01*
X367638D02*
X413701D01*
X367638Y272361D02*
Y276298D01*
X390866Y262125D02*
Y265275D01*
X389685Y263700D02*
X392047D01*
X436669Y271073D02*
X470331D01*
Y242727D02*
Y271073D01*
X436669Y242727D02*
X470331D01*
X436669D02*
Y271073D01*
X427991Y271077D02*
X435471D01*
X427991Y257691D02*
X435471D01*
Y271077D01*
X427991Y257691D02*
Y271077D01*
X427960Y256493D02*
X435440D01*
X427960Y243107D02*
X435440D01*
Y256493D01*
X427960Y243107D02*
Y256493D01*
X333107Y358960D02*
Y366440D01*
X346493Y358960D02*
Y366440D01*
X333107D02*
X346493D01*
X333107Y358960D02*
X346493D01*
X381283Y382791D02*
X402542D01*
X381283D02*
Y393815D01*
X403724D01*
Y382791D02*
Y393815D01*
X402542Y382791D02*
X403724D01*
X391519Y388303D02*
X393881D01*
X392700Y387122D02*
Y389484D01*
X351260Y390993D02*
X358740D01*
X351260Y377607D02*
X358740D01*
Y390993D01*
X351260Y377607D02*
Y390993D01*
X328373Y367936D02*
X350027D01*
Y397464D01*
X328373D02*
X350027D01*
X328373Y367936D02*
Y397464D01*
X393200Y313800D02*
X398700D01*
X393200Y295300D02*
Y313800D01*
Y295300D02*
X415200D01*
Y313800D01*
X412700D02*
X415200D01*
X398700D02*
X412700D01*
X397894Y376081D02*
Y381593D01*
X386476Y376081D02*
Y381593D01*
Y376081D02*
X397894D01*
X386476Y381593D02*
X397894D01*
X385278Y376081D02*
Y381593D01*
X373861Y376081D02*
Y381593D01*
Y376081D02*
X385278D01*
X373861Y381593D02*
X385278D01*
X410509Y376081D02*
Y381593D01*
X399091Y376081D02*
Y381593D01*
Y376081D02*
X410509D01*
X399091Y381593D02*
X410509D01*
X410409Y355575D02*
Y361087D01*
X398991Y355575D02*
Y361087D01*
Y355575D02*
X410409D01*
X398991Y361087D02*
X410409D01*
X397209Y355575D02*
Y361087D01*
X385791Y355575D02*
Y361087D01*
Y355575D02*
X397209D01*
X385791Y361087D02*
X397209D01*
X383609Y355575D02*
Y361087D01*
X372191Y355575D02*
Y361087D01*
Y355575D02*
X383609D01*
X372191Y361087D02*
X383609D01*
X324935Y269169D02*
X327297D01*
X326116Y267988D02*
Y270350D01*
X339108Y264838D02*
Y275862D01*
X313124D02*
X339108D01*
X313124Y262476D02*
Y275862D01*
Y262476D02*
X339108D01*
Y264838D01*
X326507Y253798D02*
Y261278D01*
X339893Y253798D02*
Y261278D01*
X326507D02*
X339893D01*
X326507Y253798D02*
X339893D01*
X325309Y253798D02*
Y261278D01*
X311923Y253798D02*
Y261278D01*
Y253798D02*
X325309D01*
X311923Y261278D02*
X325309D01*
X303760Y287307D02*
X311240D01*
X303760Y300693D02*
X311240D01*
X303760Y287307D02*
Y300693D01*
X311240Y287307D02*
Y300693D01*
X352244Y267009D02*
X357756D01*
X352244Y255591D02*
X357756D01*
Y267009D01*
X352244Y255591D02*
Y267009D01*
X358960Y268893D02*
X366440D01*
X358960Y255507D02*
X366440D01*
Y268893D01*
X358960Y255507D02*
Y268893D01*
X321238Y352221D02*
X328718D01*
X321238Y338836D02*
X328718D01*
Y352221D01*
X321238Y338836D02*
Y352221D01*
X312560Y338836D02*
X320040D01*
X312560Y352221D02*
X320040D01*
X312560Y338836D02*
Y352221D01*
X320040Y338836D02*
Y352221D01*
X406791Y321754D02*
Y327266D01*
X418209Y321754D02*
Y327266D01*
X406791D02*
X418209D01*
X406791Y321754D02*
X418209D01*
X418309Y315044D02*
Y320556D01*
X406891Y315044D02*
Y320556D01*
Y315044D02*
X418309D01*
X406891Y320556D02*
X418309D01*
X401209Y288590D02*
Y294102D01*
X389791Y288590D02*
Y294102D01*
Y288590D02*
X401209D01*
X389791Y294102D02*
X401209D01*
X366025Y327760D02*
Y335240D01*
X379411Y327760D02*
Y335240D01*
X366025D02*
X379411D01*
X366025Y327760D02*
X379411D01*
X379411Y319082D02*
Y326562D01*
X366025Y319082D02*
Y326562D01*
Y319082D02*
X379411D01*
X366025Y326562D02*
X379411D01*
X402407Y286622D02*
Y294102D01*
X415793Y286622D02*
Y294102D01*
X402407D02*
X415793D01*
X402407Y286622D02*
X415793D01*
X381113Y288407D02*
X388594D01*
X381113Y301793D02*
X388594D01*
X381113Y288407D02*
Y301793D01*
X388594Y288407D02*
Y301793D01*
X367760Y301693D02*
X375240D01*
X367760Y288307D02*
X375240D01*
Y301693D01*
X367760Y288307D02*
Y301693D01*
X312827Y285638D02*
Y326638D01*
Y285638D02*
X364827D01*
Y337638D01*
X312827D02*
X364827D01*
X312827Y326638D02*
Y337638D01*
X353693Y276960D02*
Y284440D01*
X340307Y276960D02*
Y284440D01*
Y276960D02*
X353693D01*
X340307Y284440D02*
X353693D01*
Y268282D02*
Y275762D01*
X340307Y268282D02*
Y275762D01*
Y268282D02*
X353693D01*
X340307Y275762D02*
X353693D01*
M02*
