G04*
G04 #@! TF.GenerationSoftware,Altium Limited,Altium Designer,21.2.0 (30)*
G04*
G04 Layer_Color=16711935*
%FSLAX25Y25*%
%MOIN*%
G70*
G04*
G04 #@! TF.SameCoordinates,77A29CB9-FCA2-4D4B-8533-71CC963FDA7C*
G04*
G04*
G04 #@! TF.FilePolarity,Positive*
G04*
G01*
G75*
%ADD59C,0.00394*%
D59*
X426175Y296350D02*
Y302650D01*
X423025Y296350D02*
Y302650D01*
X426175D01*
X423025Y296350D02*
X426175D01*
X446610Y269695D02*
X460390D01*
Y244105D02*
Y269695D01*
X446610Y244105D02*
X460390D01*
X446610D02*
Y269695D01*
Y260640D02*
X455665Y269695D01*
X429369Y268321D02*
X434094D01*
X429369Y260447D02*
X434094D01*
Y268321D01*
X429369Y260447D02*
Y268321D01*
X429338Y253737D02*
X434062D01*
X429338Y245863D02*
X434062D01*
Y253737D01*
X429338Y245863D02*
Y253737D01*
X335863Y360338D02*
Y365062D01*
X343737Y360338D02*
Y365062D01*
X335863D02*
X343737D01*
X335863Y360338D02*
X343737D01*
X352638Y388237D02*
X357362D01*
X352638Y380363D02*
X357362D01*
Y388237D01*
X352638Y380363D02*
Y388237D01*
X329554Y380023D02*
X334554Y375023D01*
X329554D02*
X348846D01*
Y390377D01*
X329554D02*
X348846D01*
X329554Y375023D02*
Y390377D01*
X395334Y377262D02*
Y380412D01*
X389035Y377262D02*
Y380412D01*
Y377262D02*
X395334D01*
X389035Y380412D02*
X395334D01*
X382719Y377262D02*
Y380412D01*
X376420Y377262D02*
Y380412D01*
Y377262D02*
X382719D01*
X376420Y380412D02*
X382719D01*
X407950Y377262D02*
Y380412D01*
X401650Y377262D02*
Y380412D01*
Y377262D02*
X407950D01*
X401650Y380412D02*
X407950D01*
X407850Y356756D02*
Y359906D01*
X401550Y356756D02*
Y359906D01*
Y356756D02*
X407850D01*
X401550Y359906D02*
X407850D01*
X394650Y356756D02*
Y359906D01*
X388350Y356756D02*
Y359906D01*
Y356756D02*
X394650D01*
X388350Y359906D02*
X394650D01*
X381050Y356756D02*
Y359906D01*
X374750Y356756D02*
Y359906D01*
Y356756D02*
X381050D01*
X374750Y359906D02*
X381050D01*
X329263Y255176D02*
Y259900D01*
X337137Y255176D02*
Y259900D01*
X329263D02*
X337137D01*
X329263Y255176D02*
X337137D01*
X322553Y255176D02*
Y259900D01*
X314679Y255176D02*
Y259900D01*
Y255176D02*
X322553D01*
X314679Y259900D02*
X322553D01*
X305138Y290063D02*
X309862D01*
X305138Y297937D02*
X309862D01*
X305138Y290063D02*
Y297937D01*
X309862Y290063D02*
Y297937D01*
X353425Y264450D02*
X356575D01*
X353425Y258150D02*
X356575D01*
Y264450D01*
X353425Y258150D02*
Y264450D01*
X360338Y266137D02*
X365062D01*
X360338Y258263D02*
X365062D01*
Y266137D01*
X360338Y258263D02*
Y266137D01*
X322616Y349466D02*
X327340D01*
X322616Y341592D02*
X327340D01*
Y349466D01*
X322616Y341592D02*
Y349466D01*
X313938Y341592D02*
X318662D01*
X313938Y349466D02*
X318662D01*
X313938Y341592D02*
Y349466D01*
X318662Y341592D02*
Y349466D01*
X409350Y322935D02*
Y326084D01*
X415650Y322935D02*
Y326084D01*
X409350D02*
X415650D01*
X409350Y322935D02*
X415650D01*
X415750Y316225D02*
Y319375D01*
X409450Y316225D02*
Y319375D01*
Y316225D02*
X415750D01*
X409450Y319375D02*
X415750D01*
X398650Y289772D02*
Y292921D01*
X392350Y289772D02*
Y292921D01*
Y289772D02*
X398650D01*
X392350Y292921D02*
X398650D01*
X368780Y329138D02*
Y333862D01*
X376655Y329138D02*
Y333862D01*
X368780D02*
X376655D01*
X368780Y329138D02*
X376655D01*
Y320460D02*
Y325184D01*
X368780Y320460D02*
Y325184D01*
Y320460D02*
X376655D01*
X368780Y325184D02*
X376655D01*
X405163Y288000D02*
Y292724D01*
X413037Y288000D02*
Y292724D01*
X405163D02*
X413037D01*
X405163Y288000D02*
X413037D01*
X382491Y291163D02*
X387215D01*
X382491Y299037D02*
X387215D01*
X382491Y291163D02*
Y299037D01*
X387215Y291163D02*
Y299037D01*
X369138Y298937D02*
X373862D01*
X369138Y291063D02*
X373862D01*
Y298937D01*
X369138Y291063D02*
Y298937D01*
X350937Y278338D02*
Y283062D01*
X343063Y278338D02*
Y283062D01*
Y278338D02*
X350937D01*
X343063Y283062D02*
X350937D01*
Y269659D02*
Y274384D01*
X343063Y269659D02*
Y274384D01*
Y269659D02*
X350937D01*
X343063Y274384D02*
X350937D01*
M02*
