G04*
G04 #@! TF.GenerationSoftware,Altium Limited,Altium Designer,21.2.0 (30)*
G04*
G04 Layer_Color=65535*
%FSLAX25Y25*%
%MOIN*%
G70*
G04*
G04 #@! TF.SameCoordinates,77A29CB9-FCA2-4D4B-8533-71CC963FDA7C*
G04*
G04*
G04 #@! TF.FilePolarity,Positive*
G04*
G01*
G75*
%ADD10C,0.01000*%
%ADD11C,0.02756*%
%ADD12C,0.00787*%
%ADD13C,0.00800*%
%ADD14C,0.01000*%
D10*
X395897Y312800D02*
D03*
D11*
X316622Y290138D02*
X316032D01*
X316622D01*
D12*
X435544Y294121D02*
Y300223D01*
X425879Y299106D02*
Y299894D01*
X423320Y299106D02*
Y299894D01*
X446610Y269695D02*
X460390D01*
Y244105D02*
Y269695D01*
X446610Y244105D02*
X460390D01*
X446610D02*
Y269695D01*
X437653Y269203D02*
X444543D01*
X433995Y264187D02*
Y264580D01*
X429467Y264187D02*
Y264580D01*
X433964Y249603D02*
Y249997D01*
X429436Y249603D02*
Y249997D01*
X449700Y381600D02*
X469700D01*
X449700Y371600D02*
Y381600D01*
Y371600D02*
X469700D01*
Y381600D01*
X339603Y364964D02*
X339997D01*
X339603Y360436D02*
X339997D01*
X267000Y221300D02*
X467500D01*
Y211300D02*
Y221300D01*
X267000Y211300D02*
X467500D01*
X267000D02*
Y221300D01*
Y426000D02*
X467500D01*
Y416000D02*
Y426000D01*
X267000Y416000D02*
X467500D01*
X267000D02*
Y426000D01*
X357264Y384103D02*
Y384497D01*
X352736Y384103D02*
Y384497D01*
X328944Y368920D02*
Y375023D01*
X329554Y376401D02*
X348846D01*
Y388999D01*
X329554D02*
X348846D01*
X329554Y376401D02*
Y388999D01*
X391791Y377558D02*
X392579D01*
X391791Y380117D02*
X392579D01*
X379176Y377558D02*
X379963D01*
X379176Y380117D02*
X379963D01*
X404406Y377558D02*
X405194D01*
X404406Y380117D02*
X405194D01*
X404306Y357052D02*
X405094D01*
X404306Y359611D02*
X405094D01*
X391106Y357052D02*
X391894D01*
X391106Y359611D02*
X391894D01*
X377506Y357052D02*
X378294D01*
X377506Y359611D02*
X378294D01*
X333003Y259802D02*
X333397D01*
X333003Y255274D02*
X333397D01*
X318420Y255274D02*
X318813D01*
X318420Y259802D02*
X318813D01*
X305236Y293803D02*
Y294197D01*
X309764Y293803D02*
Y294197D01*
X356279Y260906D02*
Y261694D01*
X353720Y260906D02*
Y261694D01*
X364964Y262003D02*
Y262397D01*
X360436Y262003D02*
Y262397D01*
X327242Y345332D02*
Y345725D01*
X322714Y345332D02*
Y345725D01*
X314036Y345332D02*
Y345725D01*
X318564Y345332D02*
Y345725D01*
X412106Y325789D02*
X412894D01*
X412106Y323230D02*
X412894D01*
X412206Y316521D02*
X412994D01*
X412206Y319079D02*
X412994D01*
X395106Y290067D02*
X395894D01*
X395106Y292626D02*
X395894D01*
X372521Y333764D02*
X372914D01*
X372521Y329236D02*
X372914D01*
X372521Y320558D02*
X372914D01*
X372521Y325086D02*
X372914D01*
X408903Y292626D02*
X409297D01*
X408903Y288098D02*
X409297D01*
X382590Y294903D02*
Y295297D01*
X387117Y294903D02*
Y295297D01*
X373764Y294803D02*
Y295197D01*
X369236Y294803D02*
Y295197D01*
X346803Y278436D02*
X347197D01*
X346803Y282964D02*
X347197D01*
X346803Y269758D02*
X347197D01*
X346803Y274285D02*
X347197D01*
X272900Y356300D02*
X282900D01*
Y286300D02*
Y356300D01*
X272900Y286300D02*
X282900D01*
X272900D02*
Y356300D01*
D13*
X386084Y312949D02*
Y310034D01*
X386667Y309451D01*
X387834D01*
X388417Y310034D01*
Y312949D01*
X391333Y309451D02*
Y312949D01*
X389583Y311200D01*
X391916D01*
X381069Y325551D02*
Y329049D01*
X382235Y327883D01*
X383401Y329049D01*
Y325551D01*
X386317Y329049D02*
X385151D01*
X384567Y328466D01*
Y326134D01*
X385151Y325551D01*
X386317D01*
X386900Y326134D01*
Y328466D01*
X386317Y329049D01*
X390399Y328466D02*
X389816Y329049D01*
X388649D01*
X388066Y328466D01*
Y327883D01*
X388649Y327300D01*
X389816D01*
X390399Y326717D01*
Y326134D01*
X389816Y325551D01*
X388649D01*
X388066Y326134D01*
X391565Y329049D02*
X392731D01*
X392148D01*
Y325551D01*
X391565D01*
X392731D01*
X385877Y314951D02*
Y318449D01*
X387043Y317283D01*
X388210Y318449D01*
Y314951D01*
X389376Y318449D02*
X390542D01*
X389959D01*
Y314951D01*
X389376D01*
X390542D01*
X394624Y317866D02*
X394041Y318449D01*
X392875D01*
X392292Y317866D01*
Y317283D01*
X392875Y316700D01*
X394041D01*
X394624Y316117D01*
Y315534D01*
X394041Y314951D01*
X392875D01*
X392292Y315534D01*
X397540Y318449D02*
X396374D01*
X395790Y317866D01*
Y315534D01*
X396374Y314951D01*
X397540D01*
X398123Y315534D01*
Y317866D01*
X397540Y318449D01*
X397667Y328366D02*
X397084Y328949D01*
X395918D01*
X395335Y328366D01*
Y327783D01*
X395918Y327200D01*
X397084D01*
X397667Y326617D01*
Y326034D01*
X397084Y325451D01*
X395918D01*
X395335Y326034D01*
X401166Y328366D02*
X400583Y328949D01*
X399417D01*
X398834Y328366D01*
Y326034D01*
X399417Y325451D01*
X400583D01*
X401166Y326034D01*
X402333Y328949D02*
Y325451D01*
Y326617D01*
X404665Y328949D01*
X402916Y327200D01*
X404665Y325451D01*
X313767Y280849D02*
Y280266D01*
X314934Y279100D01*
X316100Y280266D01*
Y280849D01*
X314934Y279100D02*
Y277351D01*
X317266D02*
X318433D01*
X317849D01*
Y280849D01*
X317266Y280266D01*
X319568Y374599D02*
Y371267D01*
X320234Y370601D01*
X321567D01*
X322234Y371267D01*
Y374599D01*
X323567Y373933D02*
X324233Y374599D01*
X325566D01*
X326232Y373933D01*
Y373266D01*
X325566Y372600D01*
X324899D01*
X325566D01*
X326232Y371934D01*
Y371267D01*
X325566Y370601D01*
X324233D01*
X323567Y371267D01*
X313468Y286799D02*
Y283467D01*
X314134Y282801D01*
X315467D01*
X316134Y283467D01*
Y286799D01*
X320132Y282801D02*
X317466D01*
X320132Y285466D01*
Y286133D01*
X319466Y286799D01*
X318133D01*
X317466Y286133D01*
X439134Y275699D02*
Y272367D01*
X439801Y271701D01*
X441134D01*
X441800Y272367D01*
Y275699D01*
X443133Y271701D02*
X444466D01*
X443799D01*
Y275699D01*
X443133Y275033D01*
X431367Y290749D02*
X433700D01*
X432534D01*
Y287251D01*
X434866D02*
X436033D01*
X435449D01*
Y290749D01*
X434866Y290166D01*
X418000Y274866D02*
X417417Y275449D01*
X416251D01*
X415667Y274866D01*
Y274283D01*
X416251Y273700D01*
X417417D01*
X418000Y273117D01*
Y272534D01*
X417417Y271951D01*
X416251D01*
X415667Y272534D01*
X419166Y271951D02*
X420333D01*
X419749D01*
Y275449D01*
X419166Y274866D01*
X420010Y322851D02*
Y326349D01*
X421759D01*
X422342Y325766D01*
Y324600D01*
X421759Y324017D01*
X420010D01*
X421176D02*
X422342Y322851D01*
X423508D02*
X424675D01*
X424092D01*
Y326349D01*
X423508Y325766D01*
X426424Y322851D02*
X427590D01*
X427007D01*
Y326349D01*
X426424Y325766D01*
X420226Y316251D02*
Y319749D01*
X421976D01*
X422559Y319166D01*
Y318000D01*
X421976Y317417D01*
X420226D01*
X421393D02*
X422559Y316251D01*
X423725D02*
X424892D01*
X424308D01*
Y319749D01*
X423725Y319166D01*
X426641D02*
X427224Y319749D01*
X428390D01*
X428974Y319166D01*
Y316834D01*
X428390Y316251D01*
X427224D01*
X426641Y316834D01*
Y319166D01*
X421275Y306766D02*
Y310265D01*
X423024D01*
X423607Y309682D01*
Y308515D01*
X423024Y307932D01*
X421275D01*
X422441D02*
X423607Y306766D01*
X424774Y307349D02*
X425357Y306766D01*
X426523D01*
X427106Y307349D01*
Y309682D01*
X426523Y310265D01*
X425357D01*
X424774Y309682D01*
Y309098D01*
X425357Y308515D01*
X427106D01*
X392384Y281651D02*
Y285149D01*
X394134D01*
X394717Y284566D01*
Y283400D01*
X394134Y282817D01*
X392384D01*
X393551D02*
X394717Y281651D01*
X395883Y284566D02*
X396466Y285149D01*
X397633D01*
X398216Y284566D01*
Y283983D01*
X397633Y283400D01*
X398216Y282817D01*
Y282234D01*
X397633Y281651D01*
X396466D01*
X395883Y282234D01*
Y282817D01*
X396466Y283400D01*
X395883Y283983D01*
Y284566D01*
X396466Y283400D02*
X397633D01*
X374884Y349051D02*
Y352549D01*
X376634D01*
X377217Y351966D01*
Y350800D01*
X376634Y350217D01*
X374884D01*
X376051D02*
X377217Y349051D01*
X378383Y352549D02*
X380716D01*
Y351966D01*
X378383Y349634D01*
Y349051D01*
X388284Y348851D02*
Y352349D01*
X390034D01*
X390617Y351766D01*
Y350600D01*
X390034Y350017D01*
X388284D01*
X389451D02*
X390617Y348851D01*
X394116Y352349D02*
X392949Y351766D01*
X391783Y350600D01*
Y349434D01*
X392366Y348851D01*
X393533D01*
X394116Y349434D01*
Y350017D01*
X393533Y350600D01*
X391783D01*
X402384Y349151D02*
Y352649D01*
X404134D01*
X404717Y352066D01*
Y350900D01*
X404134Y350317D01*
X402384D01*
X403551D02*
X404717Y349151D01*
X408216Y352649D02*
X405883D01*
Y350900D01*
X407049Y351483D01*
X407633D01*
X408216Y350900D01*
Y349734D01*
X407633Y349151D01*
X406466D01*
X405883Y349734D01*
X363084Y371651D02*
Y375149D01*
X364834D01*
X365417Y374566D01*
Y373400D01*
X364834Y372817D01*
X363084D01*
X364251D02*
X365417Y371651D01*
X368333D02*
Y375149D01*
X366583Y373400D01*
X368916D01*
X363084Y366251D02*
Y369749D01*
X364834D01*
X365417Y369166D01*
Y368000D01*
X364834Y367417D01*
X363084D01*
X364251D02*
X365417Y366251D01*
X366583Y369166D02*
X367166Y369749D01*
X368333D01*
X368916Y369166D01*
Y368583D01*
X368333Y368000D01*
X367749D01*
X368333D01*
X368916Y367417D01*
Y366834D01*
X368333Y366251D01*
X367166D01*
X366583Y366834D01*
X413084Y371651D02*
Y375149D01*
X414834D01*
X415417Y374566D01*
Y373400D01*
X414834Y372817D01*
X413084D01*
X414251D02*
X415417Y371651D01*
X418916D02*
X416583D01*
X418916Y373983D01*
Y374566D01*
X418333Y375149D01*
X417166D01*
X416583Y374566D01*
X350467Y251051D02*
Y254549D01*
X352217D01*
X352800Y253966D01*
Y252800D01*
X352217Y252217D01*
X350467D01*
X351634D02*
X352800Y251051D01*
X353966D02*
X355133D01*
X354549D01*
Y254549D01*
X353966Y253966D01*
X365317Y361434D02*
Y363766D01*
X364734Y364349D01*
X363567D01*
X362984Y363766D01*
Y361434D01*
X363567Y360851D01*
X364734D01*
X364151Y362017D02*
X365317Y360851D01*
X364734D02*
X365317Y361434D01*
X366483Y363766D02*
X367066Y364349D01*
X368233D01*
X368816Y363766D01*
Y363183D01*
X368233Y362600D01*
X367649D01*
X368233D01*
X368816Y362017D01*
Y361434D01*
X368233Y360851D01*
X367066D01*
X366483Y361434D01*
X415417Y366834D02*
Y369166D01*
X414834Y369749D01*
X413667D01*
X413084Y369166D01*
Y366834D01*
X413667Y366251D01*
X414834D01*
X414251Y367417D02*
X415417Y366251D01*
X414834D02*
X415417Y366834D01*
X418916Y366251D02*
X416583D01*
X418916Y368583D01*
Y369166D01*
X418333Y369749D01*
X417166D01*
X416583Y369166D01*
X415500Y361434D02*
Y363766D01*
X414917Y364349D01*
X413751D01*
X413167Y363766D01*
Y361434D01*
X413751Y360851D01*
X414917D01*
X414334Y362017D02*
X415500Y360851D01*
X414917D02*
X415500Y361434D01*
X416666Y360851D02*
X417833D01*
X417249D01*
Y364349D01*
X416666Y363766D01*
X374967Y386549D02*
Y383051D01*
X376717D01*
X377300Y383634D01*
Y385966D01*
X376717Y386549D01*
X374967D01*
X378466Y383051D02*
X379633D01*
X379049D01*
Y386549D01*
X378466Y385966D01*
X407559Y284566D02*
X406976Y285149D01*
X405810D01*
X405226Y284566D01*
Y282234D01*
X405810Y281651D01*
X406976D01*
X407559Y282234D01*
X408725Y281651D02*
X409892D01*
X409308D01*
Y285149D01*
X408725Y284566D01*
X411641Y285149D02*
X413974D01*
Y284566D01*
X411641Y282234D01*
Y281651D01*
X382412Y284566D02*
X381829Y285149D01*
X380663D01*
X380080Y284566D01*
Y282234D01*
X380663Y281651D01*
X381829D01*
X382412Y282234D01*
X383579Y281651D02*
X384745D01*
X384162D01*
Y285149D01*
X383579Y284566D01*
X388827Y285149D02*
X387661Y284566D01*
X386494Y283400D01*
Y282234D01*
X387077Y281651D01*
X388244D01*
X388827Y282234D01*
Y282817D01*
X388244Y283400D01*
X386494D01*
X354359Y369266D02*
X353776Y369849D01*
X352610D01*
X352026Y369266D01*
Y366934D01*
X352610Y366351D01*
X353776D01*
X354359Y366934D01*
X355525Y366351D02*
X356692D01*
X356108D01*
Y369849D01*
X355525Y369266D01*
X360774Y369849D02*
X358441D01*
Y368100D01*
X359607Y368683D01*
X360190D01*
X360774Y368100D01*
Y366934D01*
X360190Y366351D01*
X359024D01*
X358441Y366934D01*
X354159Y374566D02*
X353576Y375149D01*
X352410D01*
X351826Y374566D01*
Y372234D01*
X352410Y371651D01*
X353576D01*
X354159Y372234D01*
X355325Y371651D02*
X356492D01*
X355908D01*
Y375149D01*
X355325Y374566D01*
X359990Y371651D02*
Y375149D01*
X358241Y373400D01*
X360574D01*
X304559Y280366D02*
X303976Y280949D01*
X302810D01*
X302226Y280366D01*
Y278034D01*
X302810Y277451D01*
X303976D01*
X304559Y278034D01*
X305725Y277451D02*
X306892D01*
X306308D01*
Y280949D01*
X305725Y280366D01*
X308641D02*
X309224Y280949D01*
X310390D01*
X310974Y280366D01*
Y279783D01*
X310390Y279200D01*
X309807D01*
X310390D01*
X310974Y278617D01*
Y278034D01*
X310390Y277451D01*
X309224D01*
X308641Y278034D01*
X359459Y253866D02*
X358876Y254449D01*
X357710D01*
X357126Y253866D01*
Y251534D01*
X357710Y250951D01*
X358876D01*
X359459Y251534D01*
X360625Y250951D02*
X361792D01*
X361208D01*
Y254449D01*
X360625Y253866D01*
X365874Y250951D02*
X363541D01*
X365874Y253283D01*
Y253866D01*
X365290Y254449D01*
X364124D01*
X363541Y253866D01*
X305142Y350466D02*
X304559Y351049D01*
X303393D01*
X302810Y350466D01*
Y348134D01*
X303393Y347551D01*
X304559D01*
X305142Y348134D01*
X306308Y347551D02*
X307475D01*
X306892D01*
Y351049D01*
X306308Y350466D01*
X309224Y347551D02*
X310390D01*
X309807D01*
Y351049D01*
X309224Y350466D01*
X370659Y344566D02*
X370076Y345149D01*
X368910D01*
X368326Y344566D01*
Y342234D01*
X368910Y341651D01*
X370076D01*
X370659Y342234D01*
X371825Y341651D02*
X372992D01*
X372408D01*
Y345149D01*
X371825Y344566D01*
X374741D02*
X375324Y345149D01*
X376490D01*
X377074Y344566D01*
Y342234D01*
X376490Y341651D01*
X375324D01*
X374741Y342234D01*
Y344566D01*
X370917Y284566D02*
X370334Y285149D01*
X369167D01*
X368584Y284566D01*
Y282234D01*
X369167Y281651D01*
X370334D01*
X370917Y282234D01*
X372083D02*
X372666Y281651D01*
X373833D01*
X374416Y282234D01*
Y284566D01*
X373833Y285149D01*
X372666D01*
X372083Y284566D01*
Y283983D01*
X372666Y283400D01*
X374416D01*
X357917Y281166D02*
X357334Y281749D01*
X356167D01*
X355584Y281166D01*
Y278834D01*
X356167Y278251D01*
X357334D01*
X357917Y278834D01*
X359083Y281166D02*
X359666Y281749D01*
X360833D01*
X361416Y281166D01*
Y280583D01*
X360833Y280000D01*
X361416Y279417D01*
Y278834D01*
X360833Y278251D01*
X359666D01*
X359083Y278834D01*
Y279417D01*
X359666Y280000D01*
X359083Y280583D01*
Y281166D01*
X359666Y280000D02*
X360833D01*
X321917Y251766D02*
X321334Y252349D01*
X320167D01*
X319584Y251766D01*
Y249434D01*
X320167Y248851D01*
X321334D01*
X321917Y249434D01*
X323083Y252349D02*
X325416D01*
Y251766D01*
X323083Y249434D01*
Y248851D01*
X330117Y251566D02*
X329534Y252149D01*
X328367D01*
X327784Y251566D01*
Y249234D01*
X328367Y248651D01*
X329534D01*
X330117Y249234D01*
X333616Y252149D02*
X332449Y251566D01*
X331283Y250400D01*
Y249234D01*
X331866Y248651D01*
X333033D01*
X333616Y249234D01*
Y249817D01*
X333033Y250400D01*
X331283D01*
X357917Y273466D02*
X357334Y274049D01*
X356167D01*
X355584Y273466D01*
Y271134D01*
X356167Y270551D01*
X357334D01*
X357917Y271134D01*
X361416Y274049D02*
X359083D01*
Y272300D01*
X360249Y272883D01*
X360833D01*
X361416Y272300D01*
Y271134D01*
X360833Y270551D01*
X359666D01*
X359083Y271134D01*
X333017Y350466D02*
X332434Y351049D01*
X331267D01*
X330684Y350466D01*
Y348134D01*
X331267Y347551D01*
X332434D01*
X333017Y348134D01*
X335933Y347551D02*
Y351049D01*
X334183Y349300D01*
X336516D01*
X369617Y316766D02*
X369034Y317349D01*
X367867D01*
X367284Y316766D01*
Y314434D01*
X367867Y313851D01*
X369034D01*
X369617Y314434D01*
X370783Y316766D02*
X371366Y317349D01*
X372533D01*
X373116Y316766D01*
Y316183D01*
X372533Y315600D01*
X371949D01*
X372533D01*
X373116Y315017D01*
Y314434D01*
X372533Y313851D01*
X371366D01*
X370783Y314434D01*
X423517Y262766D02*
X422934Y263349D01*
X421767D01*
X421184Y262766D01*
Y260434D01*
X421767Y259851D01*
X422934D01*
X423517Y260434D01*
X427016Y259851D02*
X424683D01*
X427016Y262183D01*
Y262766D01*
X426433Y263349D01*
X425266D01*
X424683Y262766D01*
X424100Y257166D02*
X423517Y257749D01*
X422351D01*
X421767Y257166D01*
Y254834D01*
X422351Y254251D01*
X423517D01*
X424100Y254834D01*
X425266Y254251D02*
X426433D01*
X425849D01*
Y257749D01*
X425266Y257166D01*
D14*
X463665Y234668D02*
X464498Y235501D01*
Y237167D01*
X463665Y238000D01*
X460333D01*
X459500Y237167D01*
Y235501D01*
X460333Y234668D01*
X461999D01*
Y236334D01*
X459500Y233002D02*
X464498D01*
X459500Y229669D01*
X464498D01*
Y228003D02*
X459500D01*
Y225504D01*
X460333Y224671D01*
X463665D01*
X464498Y225504D01*
Y228003D01*
X454498Y234668D02*
Y238000D01*
X451999D01*
X452832Y236334D01*
Y235501D01*
X451999Y234668D01*
X450333D01*
X449500Y235501D01*
Y237167D01*
X450333Y238000D01*
X454498Y233002D02*
X451166D01*
X449500Y231335D01*
X451166Y229669D01*
X454498D01*
X463300Y367600D02*
X466632D01*
X452400Y367566D02*
X455732D01*
X454066Y369232D02*
Y365900D01*
X284900Y289000D02*
Y293998D01*
X288232Y289000D01*
Y293998D01*
X289898Y289000D02*
Y293998D01*
X292398D01*
X293231Y293165D01*
Y291499D01*
X292398Y290666D01*
X289898D01*
X291564D02*
X293231Y289000D01*
X298229Y293165D02*
X297396Y293998D01*
X295730D01*
X294897Y293165D01*
Y292332D01*
X295730Y291499D01*
X297396D01*
X298229Y290666D01*
Y289833D01*
X297396Y289000D01*
X295730D01*
X294897Y289833D01*
X299895Y293998D02*
X303227D01*
X301561D01*
Y289000D01*
X286100Y299400D02*
Y304398D01*
X288599D01*
X289432Y303565D01*
Y301899D01*
X288599Y301066D01*
X286100D01*
X287766D02*
X289432Y299400D01*
X291098Y304398D02*
X294431Y299400D01*
Y304398D02*
X291098Y299400D01*
X285700Y314098D02*
X289032D01*
X287366D01*
Y309100D01*
X290698Y314098D02*
X294031Y309100D01*
Y314098D02*
X290698Y309100D01*
X288832Y323165D02*
X287999Y323998D01*
X286333D01*
X285500Y323165D01*
Y322332D01*
X286333Y321499D01*
X287999D01*
X288832Y320666D01*
Y319833D01*
X287999Y319000D01*
X286333D01*
X285500Y319833D01*
X290498Y323998D02*
Y319000D01*
X292164Y320666D01*
X293831Y319000D01*
Y323998D01*
X298829Y323165D02*
X297996Y323998D01*
X296330D01*
X295497Y323165D01*
Y319833D01*
X296330Y319000D01*
X297996D01*
X298829Y319833D01*
X300495Y323998D02*
Y319000D01*
X303827D01*
X305493Y323998D02*
Y319000D01*
Y320666D01*
X308826Y323998D01*
X306327Y321499D01*
X308826Y319000D01*
X288832Y333265D02*
X287999Y334098D01*
X286333D01*
X285500Y333265D01*
Y332432D01*
X286333Y331599D01*
X287999D01*
X288832Y330766D01*
Y329933D01*
X287999Y329100D01*
X286333D01*
X285500Y329933D01*
X290498Y334098D02*
Y329100D01*
X292164Y330766D01*
X293831Y329100D01*
Y334098D01*
X295497D02*
Y329100D01*
X297996D01*
X298829Y329933D01*
Y333265D01*
X297996Y334098D01*
X295497D01*
X300495D02*
X302161D01*
X301328D01*
Y329100D01*
X300495D01*
X302161D01*
X307160Y334098D02*
X305493D01*
X304661Y333265D01*
Y329933D01*
X305493Y329100D01*
X307160D01*
X307993Y329933D01*
Y333265D01*
X307160Y334098D01*
X285500Y341965D02*
X286333Y342798D01*
X287999D01*
X288832Y341965D01*
Y341132D01*
X287999Y340299D01*
X287166D01*
X287999D01*
X288832Y339466D01*
Y338633D01*
X287999Y337800D01*
X286333D01*
X285500Y338633D01*
X290498Y342798D02*
Y339466D01*
X292164Y337800D01*
X293831Y339466D01*
Y342798D01*
X295497Y341965D02*
X296330Y342798D01*
X297996D01*
X298829Y341965D01*
Y341132D01*
X297996Y340299D01*
X297163D01*
X297996D01*
X298829Y339466D01*
Y338633D01*
X297996Y337800D01*
X296330D01*
X295497Y338633D01*
X288932Y352865D02*
X288099Y353698D01*
X286433D01*
X285600Y352865D01*
Y349533D01*
X286433Y348700D01*
X288099D01*
X288932Y349533D01*
Y351199D01*
X287266D01*
X290598Y348700D02*
Y353698D01*
X293931Y348700D01*
Y353698D01*
X295597D02*
Y348700D01*
X298096D01*
X298929Y349533D01*
Y352865D01*
X298096Y353698D01*
X295597D01*
X439500Y238000D02*
X444498D01*
Y235501D01*
X443665Y234668D01*
X441999D01*
X441166Y235501D01*
Y238000D01*
X439500Y233002D02*
X442832D01*
X444498Y231335D01*
X442832Y229669D01*
X439500D01*
X441999D01*
Y233002D01*
X443665Y228003D02*
X444498Y227170D01*
Y225504D01*
X443665Y224671D01*
X442832D01*
X441999Y225504D01*
Y226337D01*
Y225504D01*
X441166Y224671D01*
X440333D01*
X439500Y225504D01*
Y227170D01*
X440333Y228003D01*
X429500Y238000D02*
X434498D01*
Y235501D01*
X433665Y234668D01*
X431999D01*
X431166Y235501D01*
Y238000D01*
X429500Y233002D02*
X432832D01*
X434498Y231335D01*
X432832Y229669D01*
X429500D01*
X431999D01*
Y233002D01*
X429500Y224671D02*
Y228003D01*
X432832Y224671D01*
X433665D01*
X434498Y225504D01*
Y227170D01*
X433665Y228003D01*
X419500Y238000D02*
X424498D01*
Y235501D01*
X423665Y234668D01*
X421999D01*
X421166Y235501D01*
Y238000D01*
X419500Y233002D02*
X422832D01*
X424498Y231335D01*
X422832Y229669D01*
X419500D01*
X421999D01*
Y233002D01*
X419500Y228003D02*
Y226337D01*
Y227170D01*
X424498D01*
X423665Y228003D01*
X409500Y238000D02*
X414498D01*
Y235501D01*
X413665Y234668D01*
X411999D01*
X411166Y235501D01*
Y238000D01*
X409500Y233002D02*
X412832D01*
X414498Y231335D01*
X412832Y229669D01*
X409500D01*
X411999D01*
Y233002D01*
X413665Y228003D02*
X414498Y227170D01*
Y225504D01*
X413665Y224671D01*
X410333D01*
X409500Y225504D01*
Y227170D01*
X410333Y228003D01*
X413665D01*
X399500Y238000D02*
X404498D01*
Y235501D01*
X403665Y234668D01*
X401999D01*
X401166Y235501D01*
Y238000D01*
X403665Y229669D02*
X404498Y230502D01*
Y232169D01*
X403665Y233002D01*
X400333D01*
X399500Y232169D01*
Y230502D01*
X400333Y229669D01*
X403665Y228003D02*
X404498Y227170D01*
Y225504D01*
X403665Y224671D01*
X402832D01*
X401999Y225504D01*
Y226337D01*
Y225504D01*
X401166Y224671D01*
X400333D01*
X399500Y225504D01*
Y227170D01*
X400333Y228003D01*
X389500Y238000D02*
X394498D01*
Y235501D01*
X393665Y234668D01*
X391999D01*
X391166Y235501D01*
Y238000D01*
X393665Y229669D02*
X394498Y230502D01*
Y232169D01*
X393665Y233002D01*
X390333D01*
X389500Y232169D01*
Y230502D01*
X390333Y229669D01*
X389500Y224671D02*
Y228003D01*
X392832Y224671D01*
X393665D01*
X394498Y225504D01*
Y227170D01*
X393665Y228003D01*
X379500Y238000D02*
X384498D01*
Y235501D01*
X383665Y234668D01*
X381999D01*
X381166Y235501D01*
Y238000D01*
X383665Y229669D02*
X384498Y230502D01*
Y232169D01*
X383665Y233002D01*
X380333D01*
X379500Y232169D01*
Y230502D01*
X380333Y229669D01*
X379500Y228003D02*
Y226337D01*
Y227170D01*
X384498D01*
X383665Y228003D01*
X369500Y238000D02*
X374498D01*
Y235501D01*
X373665Y234668D01*
X371999D01*
X371166Y235501D01*
Y238000D01*
X373665Y229669D02*
X374498Y230502D01*
Y232169D01*
X373665Y233002D01*
X370333D01*
X369500Y232169D01*
Y230502D01*
X370333Y229669D01*
X373665Y228003D02*
X374498Y227170D01*
Y225504D01*
X373665Y224671D01*
X370333D01*
X369500Y225504D01*
Y227170D01*
X370333Y228003D01*
X373665D01*
X359500Y242000D02*
X364498D01*
Y239501D01*
X363665Y238668D01*
X361999D01*
X361166Y239501D01*
Y242000D01*
X363665Y233669D02*
X364498Y234502D01*
Y236169D01*
X363665Y237002D01*
X360333D01*
X359500Y236169D01*
Y234502D01*
X360333Y233669D01*
X359500Y232003D02*
Y230337D01*
Y231170D01*
X364498D01*
X363665Y232003D01*
X364498Y224506D02*
Y227838D01*
X361999D01*
X362832Y226172D01*
Y225339D01*
X361999Y224506D01*
X360333D01*
X359500Y225339D01*
Y227005D01*
X360333Y227838D01*
X349500Y242000D02*
X354498D01*
Y239501D01*
X353665Y238668D01*
X351999D01*
X351166Y239501D01*
Y242000D01*
X353665Y233669D02*
X354498Y234502D01*
Y236169D01*
X353665Y237002D01*
X350333D01*
X349500Y236169D01*
Y234502D01*
X350333Y233669D01*
X349500Y232003D02*
Y230337D01*
Y231170D01*
X354498D01*
X353665Y232003D01*
X349500Y225339D02*
X354498D01*
X351999Y227838D01*
Y224506D01*
X339500Y242000D02*
X344498D01*
Y239501D01*
X343665Y238668D01*
X341999D01*
X341166Y239501D01*
Y242000D01*
X343665Y233669D02*
X344498Y234502D01*
Y236169D01*
X343665Y237002D01*
X340333D01*
X339500Y236169D01*
Y234502D01*
X340333Y233669D01*
X339500Y232003D02*
Y230337D01*
Y231170D01*
X344498D01*
X343665Y232003D01*
Y227838D02*
X344498Y227005D01*
Y225339D01*
X343665Y224506D01*
X342832D01*
X341999Y225339D01*
Y226172D01*
Y225339D01*
X341166Y224506D01*
X340333D01*
X339500Y225339D01*
Y227005D01*
X340333Y227838D01*
X329500Y238000D02*
X334498D01*
Y235501D01*
X333665Y234668D01*
X331999D01*
X331166Y235501D01*
Y238000D01*
X334498Y233002D02*
X329500D01*
Y230502D01*
X330333Y229669D01*
X331166D01*
X331999Y230502D01*
Y233002D01*
Y230502D01*
X332832Y229669D01*
X333665D01*
X334498Y230502D01*
Y233002D01*
X330333Y228003D02*
X329500Y227170D01*
Y225504D01*
X330333Y224671D01*
X333665D01*
X334498Y225504D01*
Y227170D01*
X333665Y228003D01*
X332832D01*
X331999Y227170D01*
Y224671D01*
X319500Y238000D02*
X324498D01*
Y235501D01*
X323665Y234668D01*
X321999D01*
X321166Y235501D01*
Y238000D01*
X324498Y233002D02*
X319500D01*
Y230502D01*
X320333Y229669D01*
X321166D01*
X321999Y230502D01*
Y233002D01*
Y230502D01*
X322832Y229669D01*
X323665D01*
X324498Y230502D01*
Y233002D01*
X323665Y228003D02*
X324498Y227170D01*
Y225504D01*
X323665Y224671D01*
X322832D01*
X321999Y225504D01*
X321166Y224671D01*
X320333D01*
X319500Y225504D01*
Y227170D01*
X320333Y228003D01*
X321166D01*
X321999Y227170D01*
X322832Y228003D01*
X323665D01*
X321999Y227170D02*
Y225504D01*
X309500Y238000D02*
X314498D01*
Y235501D01*
X313665Y234668D01*
X311999D01*
X311166Y235501D01*
Y238000D01*
X314498Y233002D02*
X309500D01*
Y230502D01*
X310333Y229669D01*
X311166D01*
X311999Y230502D01*
Y233002D01*
Y230502D01*
X312832Y229669D01*
X313665D01*
X314498Y230502D01*
Y233002D01*
Y224671D02*
Y228003D01*
X311999D01*
X312832Y226337D01*
Y225504D01*
X311999Y224671D01*
X310333D01*
X309500Y225504D01*
Y227170D01*
X310333Y228003D01*
X299500Y238000D02*
X304498D01*
Y235501D01*
X303665Y234668D01*
X301999D01*
X301166Y235501D01*
Y238000D01*
X304498Y233002D02*
X299500D01*
Y230502D01*
X300333Y229669D01*
X301166D01*
X301999Y230502D01*
Y233002D01*
Y230502D01*
X302832Y229669D01*
X303665D01*
X304498Y230502D01*
Y233002D01*
X299500Y225504D02*
X304498D01*
X301999Y228003D01*
Y224671D01*
X289500Y238000D02*
X294498D01*
Y235501D01*
X293665Y234668D01*
X291999D01*
X291166Y235501D01*
Y238000D01*
X294498Y233002D02*
X289500D01*
Y230502D01*
X290333Y229669D01*
X291166D01*
X291999Y230502D01*
Y233002D01*
Y230502D01*
X292832Y229669D01*
X293665D01*
X294498Y230502D01*
Y233002D01*
X293665Y228003D02*
X294498Y227170D01*
Y225504D01*
X293665Y224671D01*
X292832D01*
X291999Y225504D01*
Y226337D01*
Y225504D01*
X291166Y224671D01*
X290333D01*
X289500Y225504D01*
Y227170D01*
X290333Y228003D01*
X279500Y238000D02*
X284498D01*
Y235501D01*
X283665Y234668D01*
X281999D01*
X281166Y235501D01*
Y238000D01*
X284498Y233002D02*
X279500D01*
Y230502D01*
X280333Y229669D01*
X283665D01*
X284498Y230502D01*
Y233002D01*
X279500Y224671D02*
Y228003D01*
X282832Y224671D01*
X283665D01*
X284498Y225504D01*
Y227170D01*
X283665Y228003D01*
X269500Y242000D02*
X274498D01*
Y239501D01*
X273665Y238668D01*
X271999D01*
X271166Y239501D01*
Y242000D01*
X273665Y233669D02*
X274498Y234502D01*
Y236169D01*
X273665Y237002D01*
X270333D01*
X269500Y236169D01*
Y234502D01*
X270333Y233669D01*
X269500Y232003D02*
Y230337D01*
Y231170D01*
X274498D01*
X273665Y232003D01*
X269500Y224506D02*
Y227838D01*
X272832Y224506D01*
X273665D01*
X274498Y225339D01*
Y227005D01*
X273665Y227838D01*
X459500Y413000D02*
X464498D01*
Y410501D01*
X463665Y409668D01*
X461999D01*
X461166Y410501D01*
Y413000D01*
X463665Y404669D02*
X464498Y405502D01*
Y407169D01*
X463665Y408002D01*
X460333D01*
X459500Y407169D01*
Y405502D01*
X460333Y404669D01*
X459500Y400504D02*
X464498D01*
X461999Y403003D01*
Y399671D01*
X449500Y413000D02*
X454498D01*
Y410501D01*
X453665Y409668D01*
X451999D01*
X451166Y410501D01*
Y413000D01*
X453665Y404669D02*
X454498Y405502D01*
Y407169D01*
X453665Y408002D01*
X450333D01*
X449500Y407169D01*
Y405502D01*
X450333Y404669D01*
X454498Y399671D02*
Y403003D01*
X451999D01*
X452832Y401337D01*
Y400504D01*
X451999Y399671D01*
X450333D01*
X449500Y400504D01*
Y402170D01*
X450333Y403003D01*
X439500Y413000D02*
X444498D01*
Y410501D01*
X443665Y409668D01*
X441999D01*
X441166Y410501D01*
Y413000D01*
X444498Y408002D02*
X439500D01*
Y405502D01*
X440333Y404669D01*
X441166D01*
X441999Y405502D01*
Y408002D01*
Y405502D01*
X442832Y404669D01*
X443665D01*
X444498Y405502D01*
Y408002D01*
X443665Y403003D02*
X444498Y402170D01*
Y400504D01*
X443665Y399671D01*
X440333D01*
X439500Y400504D01*
Y402170D01*
X440333Y403003D01*
X443665D01*
X429500Y413000D02*
X434498D01*
Y410501D01*
X433665Y409668D01*
X431999D01*
X431166Y410501D01*
Y413000D01*
X434498Y408002D02*
X429500D01*
Y405502D01*
X430333Y404669D01*
X431166D01*
X431999Y405502D01*
Y408002D01*
Y405502D01*
X432832Y404669D01*
X433665D01*
X434498Y405502D01*
Y408002D01*
X429500Y403003D02*
Y401337D01*
Y402170D01*
X434498D01*
X433665Y403003D01*
X419500Y413000D02*
X424498D01*
Y410501D01*
X423665Y409668D01*
X421999D01*
X421166Y410501D01*
Y413000D01*
X424498Y408002D02*
X419500D01*
Y405502D01*
X420333Y404669D01*
X421166D01*
X421999Y405502D01*
Y408002D01*
Y405502D01*
X422832Y404669D01*
X423665D01*
X424498Y405502D01*
Y408002D01*
X419500Y399671D02*
Y403003D01*
X422832Y399671D01*
X423665D01*
X424498Y400504D01*
Y402170D01*
X423665Y403003D01*
X409500Y413000D02*
X414498D01*
Y410501D01*
X413665Y409668D01*
X411999D01*
X411166Y410501D01*
Y413000D01*
X414498Y408002D02*
X409500D01*
Y405502D01*
X410333Y404669D01*
X411166D01*
X411999Y405502D01*
Y408002D01*
Y405502D01*
X412832Y404669D01*
X413665D01*
X414498Y405502D01*
Y408002D01*
X409500Y403003D02*
Y401337D01*
Y402170D01*
X414498D01*
X413665Y403003D01*
Y398838D02*
X414498Y398005D01*
Y396339D01*
X413665Y395506D01*
X410333D01*
X409500Y396339D01*
Y398005D01*
X410333Y398838D01*
X413665D01*
X399500Y413000D02*
X404498D01*
Y410501D01*
X403665Y409668D01*
X401999D01*
X401166Y410501D01*
Y413000D01*
X404498Y408002D02*
X399500D01*
Y405502D01*
X400333Y404669D01*
X401166D01*
X401999Y405502D01*
Y408002D01*
Y405502D01*
X402832Y404669D01*
X403665D01*
X404498Y405502D01*
Y408002D01*
X399500Y403003D02*
Y401337D01*
Y402170D01*
X404498D01*
X403665Y403003D01*
X399500Y398838D02*
Y397172D01*
Y398005D01*
X404498D01*
X403665Y398838D01*
X389500Y413000D02*
X394498D01*
Y410501D01*
X393665Y409668D01*
X391999D01*
X391166Y410501D01*
Y413000D01*
X394498Y408002D02*
X389500D01*
Y405502D01*
X390333Y404669D01*
X391166D01*
X391999Y405502D01*
Y408002D01*
Y405502D01*
X392832Y404669D01*
X393665D01*
X394498Y405502D01*
Y408002D01*
X389500Y403003D02*
Y401337D01*
Y402170D01*
X394498D01*
X393665Y403003D01*
X389500Y395506D02*
Y398838D01*
X392832Y395506D01*
X393665D01*
X394498Y396339D01*
Y398005D01*
X393665Y398838D01*
X379500Y413000D02*
X384498D01*
Y410501D01*
X383665Y409668D01*
X381999D01*
X381166Y410501D01*
Y413000D01*
X384498Y408002D02*
X379500D01*
Y405502D01*
X380333Y404669D01*
X381166D01*
X381999Y405502D01*
Y408002D01*
Y405502D01*
X382832Y404669D01*
X383665D01*
X384498Y405502D01*
Y408002D01*
X379500Y403003D02*
Y401337D01*
Y402170D01*
X384498D01*
X383665Y403003D01*
Y398838D02*
X384498Y398005D01*
Y396339D01*
X383665Y395506D01*
X382832D01*
X381999Y396339D01*
Y397172D01*
Y396339D01*
X381166Y395506D01*
X380333D01*
X379500Y396339D01*
Y398005D01*
X380333Y398838D01*
X369500Y413000D02*
X374498D01*
Y410501D01*
X373665Y409668D01*
X371999D01*
X371166Y410501D01*
Y413000D01*
X374498Y408002D02*
X369500D01*
Y405502D01*
X370333Y404669D01*
X371166D01*
X371999Y405502D01*
Y408002D01*
Y405502D01*
X372832Y404669D01*
X373665D01*
X374498Y405502D01*
Y408002D01*
X369500Y403003D02*
Y401337D01*
Y402170D01*
X374498D01*
X373665Y403003D01*
X369500Y396339D02*
X374498D01*
X371999Y398838D01*
Y395506D01*
X359500Y413000D02*
X364498D01*
Y410501D01*
X363665Y409668D01*
X361999D01*
X361166Y410501D01*
Y413000D01*
X364498Y408002D02*
X359500D01*
Y405502D01*
X360333Y404669D01*
X361166D01*
X361999Y405502D01*
Y408002D01*
Y405502D01*
X362832Y404669D01*
X363665D01*
X364498Y405502D01*
Y408002D01*
X359500Y403003D02*
Y401337D01*
Y402170D01*
X364498D01*
X363665Y403003D01*
X364498Y395506D02*
Y398838D01*
X361999D01*
X362832Y397172D01*
Y396339D01*
X361999Y395506D01*
X360333D01*
X359500Y396339D01*
Y398005D01*
X360333Y398838D01*
X349500Y413000D02*
X354498D01*
Y410501D01*
X353665Y409668D01*
X351999D01*
X351166Y410501D01*
Y413000D01*
X353665Y404669D02*
X354498Y405502D01*
Y407169D01*
X353665Y408002D01*
X350333D01*
X349500Y407169D01*
Y405502D01*
X350333Y404669D01*
Y403003D02*
X349500Y402170D01*
Y400504D01*
X350333Y399671D01*
X353665D01*
X354498Y400504D01*
Y402170D01*
X353665Y403003D01*
X352832D01*
X351999Y402170D01*
Y399671D01*
X339500Y413000D02*
X344498D01*
Y410501D01*
X343665Y409668D01*
X341999D01*
X341166Y410501D01*
Y413000D01*
X339500Y408002D02*
X342832D01*
X344498Y406335D01*
X342832Y404669D01*
X339500D01*
X341999D01*
Y408002D01*
X343665Y403003D02*
X344498Y402170D01*
Y400504D01*
X343665Y399671D01*
X342832D01*
X341999Y400504D01*
X341166Y399671D01*
X340333D01*
X339500Y400504D01*
Y402170D01*
X340333Y403003D01*
X341166D01*
X341999Y402170D01*
X342832Y403003D01*
X343665D01*
X341999Y402170D02*
Y400504D01*
X329500Y413000D02*
X334498D01*
Y410501D01*
X333665Y409668D01*
X331999D01*
X331166Y410501D01*
Y413000D01*
X329500Y408002D02*
X332832D01*
X334498Y406335D01*
X332832Y404669D01*
X329500D01*
X331999D01*
Y408002D01*
X330333Y403003D02*
X329500Y402170D01*
Y400504D01*
X330333Y399671D01*
X333665D01*
X334498Y400504D01*
Y402170D01*
X333665Y403003D01*
X332832D01*
X331999Y402170D01*
Y399671D01*
X319500Y413000D02*
X324498D01*
Y410501D01*
X323665Y409668D01*
X321999D01*
X321166Y410501D01*
Y413000D01*
X319500Y408002D02*
X322832D01*
X324498Y406335D01*
X322832Y404669D01*
X319500D01*
X321999D01*
Y408002D01*
X319500Y403003D02*
Y401337D01*
Y402170D01*
X324498D01*
X323665Y403003D01*
Y398838D02*
X324498Y398005D01*
Y396339D01*
X323665Y395506D01*
X320333D01*
X319500Y396339D01*
Y398005D01*
X320333Y398838D01*
X323665D01*
X313665Y409668D02*
X314498Y410501D01*
Y412167D01*
X313665Y413000D01*
X310333D01*
X309500Y412167D01*
Y410501D01*
X310333Y409668D01*
X309500Y408002D02*
X312832D01*
X314498Y406335D01*
X312832Y404669D01*
X309500D01*
X311999D01*
Y408002D01*
X309500Y403003D02*
X314498D01*
X309500Y399671D01*
X314498D01*
Y398005D02*
X309500D01*
Y394673D01*
X303665Y409668D02*
X304498Y410501D01*
Y412167D01*
X303665Y413000D01*
X300333D01*
X299500Y412167D01*
Y410501D01*
X300333Y409668D01*
X299500Y408002D02*
X302832D01*
X304498Y406335D01*
X302832Y404669D01*
X299500D01*
X301999D01*
Y408002D01*
X299500Y403003D02*
X304498D01*
X299500Y399671D01*
X304498D01*
Y398005D02*
X299500D01*
X301999D01*
Y394673D01*
X304498D01*
X299500D01*
X289500Y413000D02*
X294498D01*
Y410501D01*
X293665Y409668D01*
X291999D01*
X291166Y410501D01*
Y413000D01*
X289500Y408002D02*
X292832D01*
X294498Y406335D01*
X292832Y404669D01*
X289500D01*
X291999D01*
Y408002D01*
X289500Y403003D02*
Y401337D01*
Y402170D01*
X294498D01*
X293665Y403003D01*
X294498Y395506D02*
Y398838D01*
X291999D01*
X292832Y397172D01*
Y396339D01*
X291999Y395506D01*
X290333D01*
X289500Y396339D01*
Y398005D01*
X290333Y398838D01*
X279500Y413000D02*
X284498D01*
Y410501D01*
X283665Y409668D01*
X281999D01*
X281166Y410501D01*
Y413000D01*
X283665Y404669D02*
X284498Y405502D01*
Y407169D01*
X283665Y408002D01*
X280333D01*
X279500Y407169D01*
Y405502D01*
X280333Y404669D01*
X279500Y403003D02*
Y401337D01*
Y402170D01*
X284498D01*
X283665Y403003D01*
Y398838D02*
X284498Y398005D01*
Y396339D01*
X283665Y395506D01*
X280333D01*
X279500Y396339D01*
Y398005D01*
X280333Y398838D01*
X283665D01*
X269500Y413000D02*
X274498D01*
Y410501D01*
X273665Y409668D01*
X271999D01*
X271166Y410501D01*
Y413000D01*
X273665Y404669D02*
X274498Y405502D01*
Y407169D01*
X273665Y408002D01*
X270333D01*
X269500Y407169D01*
Y405502D01*
X270333Y404669D01*
X269500Y403003D02*
Y401337D01*
Y402170D01*
X274498D01*
X273665Y403003D01*
X269500Y398838D02*
Y397172D01*
Y398005D01*
X274498D01*
X273665Y398838D01*
X439606Y390999D02*
X441605D01*
X440606D01*
Y385001D01*
X439606D01*
X441605D01*
X448603Y389999D02*
X447603Y390999D01*
X445604D01*
X444604Y389999D01*
Y389000D01*
X445604Y388000D01*
X447603D01*
X448603Y387000D01*
Y386001D01*
X447603Y385001D01*
X445604D01*
X444604Y386001D01*
X453602Y390999D02*
X451602D01*
X450602Y389999D01*
Y386001D01*
X451602Y385001D01*
X453602D01*
X454601Y386001D01*
Y389999D01*
X453602Y390999D01*
X456601Y388000D02*
X460599D01*
X466597Y389999D02*
X465598Y390999D01*
X463598D01*
X462599Y389999D01*
Y389000D01*
X463598Y388000D01*
X465598D01*
X466597Y387000D01*
Y386001D01*
X465598Y385001D01*
X463598D01*
X462599Y386001D01*
X468597Y385001D02*
Y390999D01*
X471596D01*
X472595Y389999D01*
Y388000D01*
X471596Y387000D01*
X468597D01*
X474595Y390999D02*
X476594D01*
X475594D01*
Y385001D01*
X474595D01*
X476594D01*
X273500Y359700D02*
Y364698D01*
X275999D01*
X276832Y363865D01*
Y362199D01*
X275999Y361366D01*
X273500D01*
X278498Y359700D02*
Y364698D01*
X280998D01*
X281831Y363865D01*
Y362199D01*
X280998Y361366D01*
X278498D01*
X280165D02*
X281831Y359700D01*
X285996Y364698D02*
X284330D01*
X283497Y363865D01*
Y360533D01*
X284330Y359700D01*
X285996D01*
X286829Y360533D01*
Y363865D01*
X285996Y364698D01*
X291827Y363865D02*
X290994Y364698D01*
X289328D01*
X288495Y363865D01*
Y360533D01*
X289328Y359700D01*
X290994D01*
X291827Y360533D01*
Y362199D01*
X290161D01*
X293494Y359700D02*
Y364698D01*
X295993D01*
X296826Y363865D01*
Y362199D01*
X295993Y361366D01*
X293494D01*
X295160D02*
X296826Y359700D01*
X298492D02*
Y363032D01*
X300158Y364698D01*
X301824Y363032D01*
Y359700D01*
Y362199D01*
X298492D01*
X303490Y359700D02*
Y364698D01*
X305156Y363032D01*
X306822Y364698D01*
Y359700D01*
X308489D02*
Y364698D01*
X310155Y363032D01*
X311821Y364698D01*
Y359700D01*
X313487Y364698D02*
X315153D01*
X314320D01*
Y359700D01*
X313487D01*
X315153D01*
X317652D02*
Y364698D01*
X320985Y359700D01*
Y364698D01*
X325983Y363865D02*
X325150Y364698D01*
X323484D01*
X322651Y363865D01*
Y360533D01*
X323484Y359700D01*
X325150D01*
X325983Y360533D01*
Y362199D01*
X324317D01*
X471501Y224698D02*
X477499D01*
Y221699D01*
X476499Y220700D01*
X474500D01*
X473500Y221699D01*
Y224698D01*
X471501Y214702D02*
Y218700D01*
X475500Y214702D01*
X476499D01*
X477499Y215701D01*
Y217701D01*
X476499Y218700D01*
X472401Y423299D02*
X478399D01*
Y420300D01*
X477399Y419300D01*
X475400D01*
X474400Y420300D01*
Y423299D01*
X472401Y417301D02*
Y415301D01*
Y416301D01*
X478399D01*
X477399Y417301D01*
M02*
