G04*
G04 #@! TF.GenerationSoftware,Altium Limited,Altium Designer,21.2.0 (30)*
G04*
G04 Layer_Color=8388736*
%FSLAX25Y25*%
%MOIN*%
G70*
G04*
G04 #@! TF.SameCoordinates,77A29CB9-FCA2-4D4B-8533-71CC963FDA7C*
G04*
G04*
G04 #@! TF.FilePolarity,Negative*
G04*
G01*
G75*
%ADD31R,0.03556X0.04343*%
%ADD32R,0.05800X0.08241*%
%ADD33R,0.04147X0.03556*%
%ADD34R,0.09068X0.06312*%
%ADD35R,0.07690X0.04540*%
%ADD36R,0.07690X0.13398*%
%ADD37R,0.06115X0.04737*%
%ADD38R,0.04737X0.06115*%
%ADD39R,0.07887X0.03753*%
%ADD40R,0.03556X0.06902*%
G04:AMPARAMS|DCode=41|XSize=47.37mil|YSize=47.37mil|CornerRadius=13.84mil|HoleSize=0mil|Usage=FLASHONLY|Rotation=90.000|XOffset=0mil|YOffset=0mil|HoleType=Round|Shape=RoundedRectangle|*
%AMROUNDEDRECTD41*
21,1,0.04737,0.01968,0,0,90.0*
21,1,0.01968,0.04737,0,0,90.0*
1,1,0.02769,0.00984,0.00984*
1,1,0.02769,0.00984,-0.00984*
1,1,0.02769,-0.00984,-0.00984*
1,1,0.02769,-0.00984,0.00984*
%
%ADD41ROUNDEDRECTD41*%
%ADD42R,0.04300X0.02001*%
%ADD43R,0.03556X0.04147*%
%ADD44R,0.08280X0.10249*%
%ADD45R,0.01981X0.05524*%
%ADD46R,0.05524X0.01981*%
%ADD47C,0.06706*%
%ADD48R,0.06706X0.06706*%
%ADD49R,0.06706X0.06706*%
%ADD50C,0.04343*%
%ADD51C,0.04143*%
%ADD52C,0.05800*%
D31*
X375941Y364860D02*
D03*
X378500Y372340D02*
D03*
X381059Y364860D02*
D03*
X389241D02*
D03*
X391800Y372340D02*
D03*
X394359Y364860D02*
D03*
X402541D02*
D03*
X405100Y372340D02*
D03*
X407659Y364860D02*
D03*
D32*
X460300Y297254D02*
D03*
X450300D02*
D03*
X440300D02*
D03*
X470300D02*
D03*
X480300D02*
D03*
X460300Y351546D02*
D03*
X450300D02*
D03*
X440300D02*
D03*
X470300D02*
D03*
X480300D02*
D03*
D33*
X424600Y302748D02*
D03*
Y296252D02*
D03*
X355000Y264548D02*
D03*
Y258052D02*
D03*
D34*
X408780Y272558D02*
D03*
X372953D02*
D03*
X408780Y254842D02*
D03*
X372953D02*
D03*
D35*
X441098Y265955D02*
D03*
Y256900D02*
D03*
Y247845D02*
D03*
D36*
X465902Y256900D02*
D03*
D37*
X431731Y268025D02*
D03*
Y260742D02*
D03*
X431700Y253442D02*
D03*
Y246158D02*
D03*
X355000Y387942D02*
D03*
Y380658D02*
D03*
X307500Y290358D02*
D03*
Y297642D02*
D03*
X362700Y265842D02*
D03*
Y258558D02*
D03*
X324978Y349170D02*
D03*
Y341887D02*
D03*
X316300D02*
D03*
Y349170D02*
D03*
X384853Y291458D02*
D03*
Y298742D02*
D03*
X371500Y298642D02*
D03*
Y291358D02*
D03*
D38*
X336158Y362700D02*
D03*
X343442D02*
D03*
X329558Y257538D02*
D03*
X336842D02*
D03*
X322258Y257538D02*
D03*
X314975D02*
D03*
X369076Y331500D02*
D03*
X376359D02*
D03*
Y322822D02*
D03*
X369076D02*
D03*
X405458Y290362D02*
D03*
X412742D02*
D03*
X350642Y280700D02*
D03*
X343358D02*
D03*
X350642Y272022D02*
D03*
X343358D02*
D03*
D39*
X399393Y391157D02*
D03*
X386007D02*
D03*
X399393Y385449D02*
D03*
X386007D02*
D03*
D40*
X331700Y393428D02*
D03*
X336700D02*
D03*
X341700D02*
D03*
X346700D02*
D03*
Y371972D02*
D03*
X341700D02*
D03*
X336700D02*
D03*
X331700D02*
D03*
D41*
X398800Y321800D02*
D03*
X392300Y321700D02*
D03*
X385500Y321600D02*
D03*
D42*
X395909Y310690D02*
D03*
Y308721D02*
D03*
Y306753D02*
D03*
Y304784D02*
D03*
Y302816D02*
D03*
Y300847D02*
D03*
Y298879D02*
D03*
Y296910D02*
D03*
X412491Y310690D02*
D03*
Y308721D02*
D03*
Y306753D02*
D03*
Y304784D02*
D03*
Y302816D02*
D03*
Y300847D02*
D03*
Y298879D02*
D03*
Y296910D02*
D03*
D43*
X395433Y378837D02*
D03*
X388937D02*
D03*
X382818D02*
D03*
X376322D02*
D03*
X408048D02*
D03*
X401552D02*
D03*
X407948Y358331D02*
D03*
X401452D02*
D03*
X394748D02*
D03*
X388252D02*
D03*
X381148D02*
D03*
X374652D02*
D03*
X409252Y324510D02*
D03*
X415748D02*
D03*
X415848Y317800D02*
D03*
X409352D02*
D03*
X398748Y291346D02*
D03*
X392252D02*
D03*
D44*
X318045Y269169D02*
D03*
X334187D02*
D03*
D45*
X353590Y289000D02*
D03*
X351622D02*
D03*
X349654D02*
D03*
X347685D02*
D03*
X345717D02*
D03*
X343748D02*
D03*
X341779D02*
D03*
X339811D02*
D03*
X337842D02*
D03*
X335874D02*
D03*
X333906D02*
D03*
X331937D02*
D03*
X329969D02*
D03*
X328000D02*
D03*
X326031D02*
D03*
X324063D02*
D03*
X353590Y334276D02*
D03*
X351622D02*
D03*
X349654D02*
D03*
X347685D02*
D03*
X345717D02*
D03*
X343748D02*
D03*
X341779D02*
D03*
X339811D02*
D03*
X337842D02*
D03*
X335874D02*
D03*
X333906D02*
D03*
X331937D02*
D03*
X329969D02*
D03*
X328000D02*
D03*
X326031D02*
D03*
X324063D02*
D03*
D46*
X361465Y310653D02*
D03*
Y308685D02*
D03*
Y306716D02*
D03*
Y304748D02*
D03*
Y302780D02*
D03*
Y300811D02*
D03*
Y298843D02*
D03*
Y296874D02*
D03*
Y326402D02*
D03*
Y324433D02*
D03*
Y322465D02*
D03*
Y320496D02*
D03*
Y318528D02*
D03*
Y316559D02*
D03*
Y314591D02*
D03*
Y312622D02*
D03*
X316189Y326402D02*
D03*
Y324433D02*
D03*
Y322465D02*
D03*
Y320496D02*
D03*
Y318528D02*
D03*
Y316559D02*
D03*
Y314591D02*
D03*
Y312622D02*
D03*
Y310653D02*
D03*
Y308685D02*
D03*
Y306716D02*
D03*
Y304748D02*
D03*
Y302780D02*
D03*
Y300811D02*
D03*
Y298843D02*
D03*
Y296874D02*
D03*
D47*
X464700Y376600D02*
D03*
X282000Y216300D02*
D03*
X292000D02*
D03*
X302000D02*
D03*
X312000D02*
D03*
X322000D02*
D03*
X332000D02*
D03*
X342000D02*
D03*
X352000D02*
D03*
X362000D02*
D03*
X372000D02*
D03*
X382000D02*
D03*
X392000D02*
D03*
X402000D02*
D03*
X412000D02*
D03*
X422000D02*
D03*
X432000D02*
D03*
X442000D02*
D03*
X452000D02*
D03*
X462000D02*
D03*
X282000Y421000D02*
D03*
X292000D02*
D03*
X302000D02*
D03*
X312000D02*
D03*
X322000D02*
D03*
X332000D02*
D03*
X342000D02*
D03*
X352000D02*
D03*
X362000D02*
D03*
X372000D02*
D03*
X382000D02*
D03*
X392000D02*
D03*
X402000D02*
D03*
X412000D02*
D03*
X422000D02*
D03*
X432000D02*
D03*
X442000D02*
D03*
X452000D02*
D03*
X462000D02*
D03*
X277900Y311300D02*
D03*
Y301300D02*
D03*
Y321300D02*
D03*
Y331300D02*
D03*
Y341300D02*
D03*
Y351300D02*
D03*
D48*
X454700Y376600D02*
D03*
X272000Y216300D02*
D03*
Y421000D02*
D03*
D49*
X277900Y291300D02*
D03*
D50*
X355100Y310000D02*
D03*
X355144Y303300D02*
D03*
X349600Y308200D02*
D03*
X417600Y261200D02*
D03*
X345600Y298800D02*
D03*
X341500Y302300D02*
D03*
X337300Y297100D02*
D03*
X350900Y319900D02*
D03*
X345700Y312000D02*
D03*
X345000Y317800D02*
D03*
X346600Y323100D02*
D03*
X488000Y249000D02*
D03*
Y255400D02*
D03*
Y261700D02*
D03*
Y267600D02*
D03*
X480000Y267800D02*
D03*
Y261600D02*
D03*
Y255500D02*
D03*
Y249200D02*
D03*
X413600Y241300D02*
D03*
X322500Y324000D02*
D03*
X330400Y328200D02*
D03*
X376100Y315900D02*
D03*
X365100Y292600D02*
D03*
X355400Y323300D02*
D03*
X314300Y250200D02*
D03*
X316200Y230200D02*
D03*
X300300Y241800D02*
D03*
X355000Y360834D02*
D03*
X343900Y340700D02*
D03*
X335500Y340500D02*
D03*
X401300Y260734D02*
D03*
X376900Y224434D02*
D03*
X330700Y380034D02*
D03*
X337400Y325200D02*
D03*
X321200Y392700D02*
D03*
X417200Y341300D02*
D03*
Y281000D02*
D03*
X307600Y241500D02*
D03*
X358000Y285000D02*
D03*
X414900Y383100D02*
D03*
X405300Y278900D02*
D03*
X401300Y283500D02*
D03*
X409700Y330200D02*
D03*
X432600Y274200D02*
D03*
X425100Y249200D02*
D03*
X414600Y354800D02*
D03*
X305600Y306600D02*
D03*
X332800Y302400D02*
D03*
X403300Y317700D02*
D03*
X381400Y312200D02*
D03*
X365000Y278800D02*
D03*
X337400Y282400D02*
D03*
X329900Y295000D02*
D03*
X327200Y281900D02*
D03*
X322500Y300700D02*
D03*
X300500Y304800D02*
D03*
X322200Y311200D02*
D03*
X343600Y347100D02*
D03*
X300800Y298400D02*
D03*
X309200Y342000D02*
D03*
X325000Y355200D02*
D03*
X316000Y355400D02*
D03*
X343400Y265000D02*
D03*
X343800Y354900D02*
D03*
X335900D02*
D03*
D51*
X378127Y291000D02*
D03*
X378200Y296588D02*
D03*
X350200Y295200D02*
D03*
D52*
X326300Y241500D02*
D03*
M02*
