G04*
G04 #@! TF.GenerationSoftware,Altium Limited,Altium Designer,21.2.0 (30)*
G04*
G04 Layer_Color=255*
%FSLAX25Y25*%
%MOIN*%
G70*
G04*
G04 #@! TF.SameCoordinates,77A29CB9-FCA2-4D4B-8533-71CC963FDA7C*
G04*
G04*
G04 #@! TF.FilePolarity,Positive*
G04*
G01*
G75*
%ADD15R,0.02756X0.03543*%
%ADD16R,0.05000X0.07441*%
%ADD17R,0.03347X0.02756*%
%ADD18R,0.08268X0.05512*%
%ADD19R,0.06890X0.03740*%
%ADD20R,0.06890X0.12598*%
%ADD21R,0.05315X0.03937*%
%ADD22R,0.03937X0.05315*%
%ADD23R,0.07087X0.02953*%
%ADD24R,0.02756X0.06102*%
G04:AMPARAMS|DCode=25|XSize=39.37mil|YSize=39.37mil|CornerRadius=9.84mil|HoleSize=0mil|Usage=FLASHONLY|Rotation=90.000|XOffset=0mil|YOffset=0mil|HoleType=Round|Shape=RoundedRectangle|*
%AMROUNDEDRECTD25*
21,1,0.03937,0.01968,0,0,90.0*
21,1,0.01968,0.03937,0,0,90.0*
1,1,0.01968,0.00984,0.00984*
1,1,0.01968,0.00984,-0.00984*
1,1,0.01968,-0.00984,-0.00984*
1,1,0.01968,-0.00984,0.00984*
%
%ADD25ROUNDEDRECTD25*%
%ADD26R,0.03500X0.01201*%
%ADD27R,0.02756X0.03347*%
%ADD28R,0.07480X0.09449*%
%ADD29R,0.01181X0.04724*%
%ADD30R,0.04724X0.01181*%
%ADD54C,0.05906*%
%ADD55R,0.05906X0.05906*%
%ADD56R,0.05906X0.05906*%
D15*
X375941Y364860D02*
D03*
X378500Y372340D02*
D03*
X381059Y364860D02*
D03*
X389241D02*
D03*
X391800Y372340D02*
D03*
X394359Y364860D02*
D03*
X402541D02*
D03*
X405100Y372340D02*
D03*
X407659Y364860D02*
D03*
D16*
X460300Y297254D02*
D03*
X450300D02*
D03*
X440300D02*
D03*
X470300D02*
D03*
X480300D02*
D03*
X460300Y351546D02*
D03*
X450300D02*
D03*
X440300D02*
D03*
X470300D02*
D03*
X480300D02*
D03*
D17*
X424600Y302748D02*
D03*
Y296252D02*
D03*
X355000Y264548D02*
D03*
Y258052D02*
D03*
D18*
X408780Y272558D02*
D03*
X372953D02*
D03*
X408780Y254842D02*
D03*
X372953D02*
D03*
D19*
X441098Y265955D02*
D03*
Y256900D02*
D03*
Y247845D02*
D03*
D20*
X465902Y256900D02*
D03*
D21*
X431731Y268025D02*
D03*
Y260742D02*
D03*
X431700Y253442D02*
D03*
Y246158D02*
D03*
X355000Y387942D02*
D03*
Y380658D02*
D03*
X307500Y290358D02*
D03*
Y297642D02*
D03*
X362700Y265842D02*
D03*
Y258558D02*
D03*
X324978Y349170D02*
D03*
Y341887D02*
D03*
X316300D02*
D03*
Y349170D02*
D03*
X384853Y291458D02*
D03*
Y298742D02*
D03*
X371500Y298642D02*
D03*
Y291358D02*
D03*
D22*
X336158Y362700D02*
D03*
X343442D02*
D03*
X329558Y257538D02*
D03*
X336842D02*
D03*
X322258Y257538D02*
D03*
X314975D02*
D03*
X369076Y331500D02*
D03*
X376359D02*
D03*
Y322822D02*
D03*
X369076D02*
D03*
X405458Y290362D02*
D03*
X412742D02*
D03*
X350642Y280700D02*
D03*
X343358D02*
D03*
X350642Y272022D02*
D03*
X343358D02*
D03*
D23*
X399393Y391157D02*
D03*
X386007D02*
D03*
X399393Y385449D02*
D03*
X386007D02*
D03*
D24*
X331700Y393428D02*
D03*
X336700D02*
D03*
X341700D02*
D03*
X346700D02*
D03*
Y371972D02*
D03*
X341700D02*
D03*
X336700D02*
D03*
X331700D02*
D03*
D25*
X398800Y321800D02*
D03*
X392300Y321700D02*
D03*
X385500Y321600D02*
D03*
D26*
X395909Y310690D02*
D03*
Y308721D02*
D03*
Y306753D02*
D03*
Y304784D02*
D03*
Y302816D02*
D03*
Y300847D02*
D03*
Y298879D02*
D03*
Y296910D02*
D03*
X412491Y310690D02*
D03*
Y308721D02*
D03*
Y306753D02*
D03*
Y304784D02*
D03*
Y302816D02*
D03*
Y300847D02*
D03*
Y298879D02*
D03*
Y296910D02*
D03*
D27*
X395433Y378837D02*
D03*
X388937D02*
D03*
X382818D02*
D03*
X376322D02*
D03*
X408048D02*
D03*
X401552D02*
D03*
X407948Y358331D02*
D03*
X401452D02*
D03*
X394748D02*
D03*
X388252D02*
D03*
X381148D02*
D03*
X374652D02*
D03*
X409252Y324510D02*
D03*
X415748D02*
D03*
X415848Y317800D02*
D03*
X409352D02*
D03*
X398748Y291346D02*
D03*
X392252D02*
D03*
D28*
X318045Y269169D02*
D03*
X334187D02*
D03*
D29*
X353590Y289000D02*
D03*
X351622D02*
D03*
X349654D02*
D03*
X347685D02*
D03*
X345717D02*
D03*
X343748D02*
D03*
X341779D02*
D03*
X339811D02*
D03*
X337842D02*
D03*
X335874D02*
D03*
X333906D02*
D03*
X331937D02*
D03*
X329969D02*
D03*
X328000D02*
D03*
X326031D02*
D03*
X324063D02*
D03*
X353590Y334276D02*
D03*
X351622D02*
D03*
X349654D02*
D03*
X347685D02*
D03*
X345717D02*
D03*
X343748D02*
D03*
X341779D02*
D03*
X339811D02*
D03*
X337842D02*
D03*
X335874D02*
D03*
X333906D02*
D03*
X331937D02*
D03*
X329969D02*
D03*
X328000D02*
D03*
X326031D02*
D03*
X324063D02*
D03*
D30*
X361465Y310653D02*
D03*
Y308685D02*
D03*
Y306716D02*
D03*
Y304748D02*
D03*
Y302780D02*
D03*
Y300811D02*
D03*
Y298843D02*
D03*
Y296874D02*
D03*
Y326402D02*
D03*
Y324433D02*
D03*
Y322465D02*
D03*
Y320496D02*
D03*
Y318528D02*
D03*
Y316559D02*
D03*
Y314591D02*
D03*
Y312622D02*
D03*
X316189Y326402D02*
D03*
Y324433D02*
D03*
Y322465D02*
D03*
Y320496D02*
D03*
Y318528D02*
D03*
Y316559D02*
D03*
Y314591D02*
D03*
Y312622D02*
D03*
Y310653D02*
D03*
Y308685D02*
D03*
Y306716D02*
D03*
Y304748D02*
D03*
Y302780D02*
D03*
Y300811D02*
D03*
Y298843D02*
D03*
Y296874D02*
D03*
D54*
X464700Y376600D02*
D03*
X282000Y216300D02*
D03*
X292000D02*
D03*
X302000D02*
D03*
X312000D02*
D03*
X322000D02*
D03*
X332000D02*
D03*
X342000D02*
D03*
X352000D02*
D03*
X362000D02*
D03*
X372000D02*
D03*
X382000D02*
D03*
X392000D02*
D03*
X402000D02*
D03*
X412000D02*
D03*
X422000D02*
D03*
X432000D02*
D03*
X442000D02*
D03*
X452000D02*
D03*
X462000D02*
D03*
X282000Y421000D02*
D03*
X292000D02*
D03*
X302000D02*
D03*
X312000D02*
D03*
X322000D02*
D03*
X332000D02*
D03*
X342000D02*
D03*
X352000D02*
D03*
X362000D02*
D03*
X372000D02*
D03*
X382000D02*
D03*
X392000D02*
D03*
X402000D02*
D03*
X412000D02*
D03*
X422000D02*
D03*
X432000D02*
D03*
X442000D02*
D03*
X452000D02*
D03*
X462000D02*
D03*
X277900Y311300D02*
D03*
Y301300D02*
D03*
Y321300D02*
D03*
Y331300D02*
D03*
Y341300D02*
D03*
Y351300D02*
D03*
D55*
X454700Y376600D02*
D03*
X272000Y216300D02*
D03*
Y421000D02*
D03*
D56*
X277900Y291300D02*
D03*
M02*
