M48
;Layer_Color=9474304
;FILE_FORMAT=2:5
INCH,TZ
;TYPE=PLATED
T1F00S00C0.02362
T2F00S00C0.02800
T3F00S00C0.03543
%
T01
X480000Y249200
Y255500
Y261600
Y267800
X488000Y267600
Y261700
Y255400
Y249000
X425100Y249200
X413600Y241300
X417600Y261200
X401300Y260734
X405300Y278900
X401300Y283500
X417200Y281000
X432600Y274200
X378127Y291000
X378200Y296588
X365100Y292600
X365000Y278800
X358000Y285000
X350200Y295200
X345600Y298800
X341500Y302300
X332800Y302400
X337300Y297100
X329900Y295000
X322500Y300700
X322200Y311200
X345700Y312000
X349600Y308200
X355100Y310000
X355144Y303300
X381400Y312200
X337400Y282400
X327200Y281900
X343400Y265000
X314300Y250200
X316200Y230200
X376900Y224434
X307600Y241500
X300300Y241800
X300800Y298400
X300500Y304800
X305600Y306600
X309200Y342000
X316000Y355400
X325000Y355200
X335900Y354900
X343800
X343600Y347100
X343900Y340700
X335500Y340500
X337400Y325200
X330400Y328200
X322500Y324000
X346600Y323100
X345000Y317800
X350900Y319900
X355400Y323300
X376100Y315900
X403300Y317700
X409700Y330200
X417200Y341300
X414600Y354800
X414900Y383100
X355000Y360834
X330700Y380034
X321200Y392700
T02
X326300Y241500
T03
X322000Y216300
X332000
X342000
X352000
X362000
X372000
X382000
X392000
X402000
X412000
X422000
X432000
X442000
X452000
X462000
X312000
X302000
X292000
X282000
X272000
X277900Y291300
Y301300
Y311300
Y321300
Y331300
Y341300
Y351300
X282000Y421000
X272000
X292000
X302000
X312000
X322000
X332000
X342000
X352000
X362000
X372000
X382000
X392000
X402000
X412000
X422000
X432000
X442000
X452000
X462000
X464700Y376600
X454700
M30
